<svg xmlns="http://www.w3.org/2000/svg" width="83" height="9" viewBox="0 0 83 9">
    <g fill="none" fill-rule="evenodd">
        <ellipse cx="63.279" cy="4.615" fill="#FFF" rx="3.169" ry="3.092"/>
        <path fill="#000" fill-rule="nonzero" d="M4.871 8.862L3.452 6.069l-1.206-.023v2.792H0V.37h4.351c1.939 0 3.027 1.246 3.027 2.839 0 1.454-.78 2.307-1.68 2.654l1.703 3h-2.53zm.26-5.654c0-.577-.496-.946-1.087-.946H2.27v1.915h1.774c.662 0 1.087-.37 1.087-.97zM14.566 8.862L14 7.2l-3.169-.023-.544 1.661H7.732L11.02.346h2.814l3.287 8.492h-2.554v.024zm-2.151-6.347l-.97 2.793h1.939l-.97-2.793z"/>
        <path fill="#000" d="M25.562 8.862V.369h2.247v8.493h-2.247zM35.044 8.862l-3.688-4.916v4.916h-2.247V.369h2.317l3.524 4.685V.369h2.246v8.493h-2.152zM38.119 4.592C38.07 1.892 40.27.185 42.777.185c1.608 0 2.648.553 3.476 1.43l-1.49 1.362c-.662-.692-1.04-.808-1.891-.83-1.277-.047-2.436 1.06-2.436 2.4 0 1.384 1.04 2.445 2.412 2.445.71 0 1.135-.184 1.537-.484v-.646h-1.3V3.923h3.546v3.139C45.615 8.4 44.314 8.93 42.848 8.954c-2.2.023-4.682-1.408-4.73-4.362z"/>
        <path fill="#000" fill-rule="nonzero" d="M50.817 8.862V.369h4.35c1.963 0 3.028 1.339 3.028 2.885 0 1.523-1.065 2.815-3.027 2.815h-2.105v2.793h-2.246zm5.108-5.631c0-.577-.45-.97-1.041-.97h-1.82V4.2h1.82c.591 0 1.04-.392 1.04-.97z"/>
        <path fill="#000" d="M78.105 8.862v-6.6H75.67V.346h7.117v1.916h-2.435v6.576z"/>
        <path fill="#ED1C24" fill-rule="nonzero" d="M63.279.208c-2.483 0-4.493 1.961-4.493 4.384s2.01 4.385 4.493 4.385c2.483 0 4.493-1.962 4.493-4.385S65.762.208 63.279.208zm0 6.715a2.378 2.378 0 0 1-1.585-.577c-.496-.438-.827-1.061-.827-1.754 0-1.246 1.016-2.284 2.27-2.33h.118c.142 0 .26 0 .402.023.07.023.166.023.236.046.095.023.166.046.26.092.024 0 .024 0 .048.023a2.34 2.34 0 0 1 1.466 2.17c.024 1.269-1.064 2.307-2.388 2.307z"/>
        <path fill="#000" d="M24.782 7.523c-.45-.415-1.466-1.361-1.466-1.361-.426.507-1.088.853-1.916.853-1.419 0-2.435-1.246-2.435-2.469 0-1.523 1.324-2.515 2.577-2.423.851.07 1.348.392 1.75.83 0 0 1.466-1.36 1.49-1.384-.331-.323-1.277-1.407-3.334-1.407-2.743-.024-4.8 1.8-4.8 4.338 0 2.63 2.127 4.454 4.729 4.454 1.891 0 2.837-.83 3.405-1.43zM68.032 7.523l1.49-1.361c.732.646 1.584.923 2.553.923.78 0 1.206-.277 1.206-.693 0-1.154-4.942-.207-4.942-3.461 0-1.431 1.253-2.746 3.476-2.746 1.82 0 2.956.853 3.098.923l-1.514 1.384a4.122 4.122 0 0 0-1.82-.415c-.662 0-.923.254-.923.623 0 1.062 4.919.208 4.919 3.438 0 1.708-1.372 2.816-3.642 2.816-1.726 0-2.956-.6-3.901-1.43z"/>
    </g>
</svg>
