<svg xmlns="http://www.w3.org/2000/svg" viewBox="0 0 273.19 272.92"><style>.st2{fill:#fff}.st4{fill:#ef3e33}</style><g class="st0"><circle fill="#003876" cx="136.72" cy="136.47" r="120"/><path class="st2" d="M93.17 181.77l1.46 11.51-7.99-8.41-7.97 8.31 1.37-11.28-11.26-1.23 9.8-6.03-6.22-9.52 10.81 3.92L86.68 158l3.68 11.13 10.9-3.84-6.55 9.2 9.96 6.39zm98.61-76.15l.78 4.97-3.49-3.83-3.45 3.79.83-5.05-5.14-.4 4.36-2.57-2.8-4.19 4.69 1.68 1.57-4.76 1.63 4.75 4.68-1.6-2.77 4.09 4.26 2.69zm-.08 80.13l.77 4.96-3.48-3.83-3.46 3.79.84-5.05-5.14-.39 4.36-2.57-2.8-4.2 4.68 1.69 1.58-4.77 1.63 4.76 4.68-1.6-2.78 4.08 4.26 2.7zm-31.18-49.43l.77 4.97-3.48-3.83-3.46 3.79.84-5.05-5.14-.39 4.36-2.57-2.8-4.2 4.68 1.68 1.58-4.76 1.63 4.75 4.68-1.6-2.78 4.09 4.26 2.69zm58.92-8.33l.78 4.97-3.49-3.83-3.45 3.79.83-5.06-5.14-.39 4.37-2.57-2.81-4.19 4.69 1.68 1.57-4.76 1.63 4.75 4.68-1.6-2.77 4.08 4.26 2.7zm-20.66 17.25l.84-3.16-2.56-2.12 3.26-.24 1.23-3.02 1.25 2.99 3.24.27-2.55 2.23.83 3.05-2.74-1.79z"/><path fill="#003876" d="M136.96 141.12l-.09-65.71-101.36.06.01 65.65z"/><path class="st2" d="M35.53 133.11l39.38-25.02L35.5 82.87l.01-7.4h12.4l38.78 24.96 38.73-25.02 11.45-.03v7.65l-38.71 25.29 38.8 25.13v7.67l-12.41.02-38.12-25.2-38.71 25.21-12.2-.03z"/><path class="st4" d="M35.51 80.33l33.09 21.2c.1-.16 9.7 4.73 9.7 4.73s-2.34 8.57-1.86 8.57l-40.01 26.28 7.85.01 37.41-24.64c-.64-.13 6.46-4.26 6.46-4.26l10.91 4.09 37.9 24.81V136l-32.65-21.38c.2.2-8.93-4.38-8.93-4.38l1.2-8.78 40.27-26.05-7.59.02-37.63 24.31c.01.23-5.38 4.68-5.38 4.68l-12.44-4.61-38.3-24.34v4.86z"/><path class="st2" d="M78.19 96.55v-21.1h17.08v21.06h41.61l.05 23.09H95.27v21.52H78.19l-.02-21.52-42.66.01V96.55z"/><path class="st4" d="M91.77 101.06l45.12-.02.03 13.87-45.08-.02.01 26.23H81.66l.04-26.27-46.18.02v-13.7l46.16.01-.02-25.73h10.19l-.01 25.61"/><path fill="none" stroke="#231f20" stroke-width=".169" d="M237.72 210.45V75.34l-202.21.13.03 135.11z"/></g><path class="st2" d="M136.72 13.65c32.81 0 63.65 12.78 86.85 35.97 23.2 23.2 35.97 54.04 35.97 86.85 0 32.81-12.78 63.65-35.97 86.85-23.2 23.2-54.04 35.97-86.85 35.97s-63.65-12.78-86.85-35.97c-23.2-23.2-35.97-54.04-35.97-86.85s12.78-63.65 35.97-86.85c23.19-23.2 54.04-35.97 86.85-35.97m0-13.65C61.34 0 .24 61.1.24 136.47s61.1 136.47 136.47 136.47 136.47-61.1 136.47-136.47C273.19 61.1 212.09 0 136.72 0z"/></svg>