<svg xmlns="http://www.w3.org/2000/svg" xmlns:xlink="http://www.w3.org/1999/xlink" width="25" height="20" viewBox="0 0 25 20">
    <defs>
        <path id="a" d="M0 0h27v21H0z"/>
    </defs>
    <g fill="none" fill-rule="evenodd" transform="translate(-1)">
        <mask id="b" fill="#fff">
            <use xlink:href="#a"/>
        </mask>
        <g fill="#FAC031" fill-rule="nonzero" mask="url(#b)">
            <path d="M5.98 14.904l-.27-.16v-.477c0-.585 0-1.435.38-2.284l.053-.107c.054-.053.109-.159.163-.265.488-.638 1.355-1.7 1.517-4.09.217-3.028 2.548-5.311 5.475-5.311 2.927 0 5.257 2.283 5.474 5.311.163 2.39 1.03 3.452 1.518 4.09.054.106.108.16.162.265l.054.107c.38.796.38 1.7.38 2.284v.478l-.271.159c-1.626 1.062-13.008 1.062-14.634 0zm1.185-1.089c1.388.807 10.95.807 12.339 0 0-.453 0-1.058-.206-1.561-.051-.05-.103-.101-.103-.152-.514-.655-1.44-1.864-1.645-4.433-.206-2.419-1.954-4.132-4.216-4.132-2.262 0-4.01 1.713-4.164 4.081-.155 2.57-1.131 3.78-1.645 4.434l-.155.151c-.205.554-.205 1.159-.205 1.612z"/>
            <path d="M11.13 2.125C11.13.956 12.105 0 13.298 0c1.192 0 2.168.956 2.168 2.125 0 1.524-1.084 1.268-1.084 0 0-.585-.488-1.063-1.084-1.063-.596 0-1.084.478-1.084 1.063 0 1.183-1.084 1.464-1.084 0zM13.34 17.155c.857-.007 1.148-.305 1.148-1.155h1.62c0 1.749-1.016 2.763-2.768 2.775-1.752-.012-2.768-1.026-2.768-2.775h1.62c0 .85.292 1.148 1.148 1.155z"/>
            <g stroke-linecap="round">
                <path d="M23.291 9.28a.405.405 0 1 1 .66-.468c.235.33.452.678.691 1.17.372.766.638 1.586.746 2.447.303 2.4-.65 4.68-3.23 6.618a.405.405 0 1 1-.486-.648c2.345-1.762 3.18-3.756 2.913-5.869a7.043 7.043 0 0 0-.671-2.193 7.095 7.095 0 0 0-.623-1.057z"/>
                <path d="M21.519 10.165a.405.405 0 1 1 .66-.469c2.073 2.922 1.619 5.5-1.328 7.535a.405.405 0 0 1-.46-.666c2.575-1.78 2.94-3.847 1.128-6.4z"/>
            </g>
            <g stroke-linecap="round">
                <path d="M4.824 18.39a.405.405 0 1 1-.46.666 7.875 7.875 0 0 1-1.05-.864 7.842 7.842 0 0 1-1.538-2.044c-1.105-2.152-.988-4.62.772-7.323a.405.405 0 1 1 .679.442c-1.601 2.459-1.704 4.617-.73 6.511.352.686.829 1.298 1.38 1.832.357.345.647.573.947.78z"/>
                <path d="M6.187 16.952a.405.405 0 1 1-.46.666c-2.948-2.036-3.402-4.613-1.33-7.534a.405.405 0 0 1 .661.468c-1.811 2.553-1.447 4.62 1.129 6.4z"/>
            </g>
        </g>
    </g>
</svg>
