<svg xmlns="http://www.w3.org/2000/svg" width="16" height="19" viewBox="0 0 16 19">
    <g fill="#FFF" fill-rule="nonzero">
        <path d="M.98 14.904l-.27-.16v-.477c0-.585 0-1.435.38-2.284l.053-.107c.054-.053.109-.159.163-.265.488-.638 1.355-1.7 1.517-4.09C3.04 4.493 5.371 2.21 8.298 2.21c2.927 0 5.257 2.283 5.474 5.311.163 2.39 1.03 3.452 1.518 4.09.054.106.108.16.162.265l.054.107c.38.796.38 1.7.38 2.284v.478l-.271.159c-1.626 1.062-13.008 1.062-14.634 0zm1.185-1.089c1.388.807 10.95.807 12.339 0 0-.453 0-1.058-.206-1.561-.051-.05-.103-.101-.103-.152-.514-.655-1.44-1.864-1.645-4.433-.206-2.419-1.954-4.132-4.216-4.132-2.262 0-4.01 1.713-4.164 4.081-.155 2.57-1.131 3.78-1.645 4.434l-.155.151c-.205.554-.205 1.159-.205 1.612z"/>
        <path d="M6.13 2.125C6.13.956 7.105 0 8.298 0c1.192 0 2.168.956 2.168 2.125 0 1.524-1.084 1.268-1.084 0 0-.585-.488-1.063-1.084-1.063-.596 0-1.084.478-1.084 1.063 0 1.183-1.084 1.464-1.084 0zM7.192 16c0 .86.299 1.155 1.18 1.155l-.033-.001.118-.002c.766-.033 1.03-.342 1.03-1.152h1.62c0 1.738-1.002 2.75-2.733 2.775h-.066C6.575 18.75 5.572 17.738 5.572 16z"/>
    </g>
</svg>
