<svg xmlns="http://www.w3.org/2000/svg" width="22" height="22" viewBox="0 0 22 22">
    <g fill="none" fill-rule="nonzero">
        <rect width="3" height="1" x="4.5" y="4.5" fill="#979797" stroke="#FFF" rx=".5"/>
        <rect width="2" height="1" x="4.5" y="7.5" fill="#979797" stroke="#FFF" rx=".5"/>
        <rect width="2" height="1" x="4.5" y="10.5" fill="#979797" stroke="#FFF" rx=".5"/>
        <rect width="2" height="1" x="4.5" y="13.5" fill="#979797" stroke="#FFF" rx=".5"/>
        <rect width="6" height="1" x="4.5" y="16.5" fill="#979797" stroke="#FFF" rx=".5"/>
        <rect width="6" height="1" x="15.643" y="17.102" fill="#979797" stroke="#FFF" rx=".5" transform="rotate(60 18.643 17.102)"/>
        <path fill="#FFF" d="M14.5 15.5a6 6 0 1 1 0-12 6 6 0 0 1 0 12zm0-1a5 5 0 1 0 0-10 5 5 0 0 0 0 10z"/>
        <path fill="#FFF" d="M14.494 16.711a.5.5 0 0 1 .5.5v2.672a1 1 0 0 1-1 1H2.032a1 1 0 0 1-1-1V2a1 1 0 0 1 1-1h12.073a.89.89 0 0 1 .89.89v.389a.5.5 0 1 1-1 0V2H2.031v17.883h11.962V17.21a.5.5 0 0 1 .5-.5z"/>
    </g>
</svg>
