<svg xmlns="http://www.w3.org/2000/svg" width="20" height="13"><path fill="#252835" fill-rule="evenodd" d="M4.47 6.196c.697-.245 1.082-.787 1.082-1.872V2.522C5.553 1 4.765.248 3.17.248H0v12.245h3.207c1.594 0 2.382-.752 2.382-2.274V7.962c0-.997-.366-1.52-1.118-1.766zm-.86-3.604v2.1c0 .507-.257.77-.807.77h-.862V1.893h.935c.495 0 .733.227.733.7zm-1.67 4.46h.898c.55 0 .807.246.807.77v2.327c0 .472-.238.7-.733.7h-.972V7.053zm10.52 3.272V2.417c0-1.52-.79-2.274-2.383-2.274H9.034c-1.594 0-2.382.753-2.382 2.274v7.907c0 1.522.788 2.274 2.382 2.274h1.045c1.594 0 2.382-.752 2.382-2.274zM10.5 2.504v7.732c0 .5-.238.718-.733.718h-.403c-.513 0-.75-.228-.75-.718v-7.73c0-.5.238-.717.75-.717h.403c.495 0 .733.227.733.717zm6.964 4.916v2.816c0 .5-.238.718-.75.718h-.44c-.513 0-.75-.228-.75-.718v-7.73c0-.5.238-.717.75-.717h.404c.495 0 .733.227.733.717v1.87h1.924V2.4c0-1.504-.77-2.257-2.364-2.257h-1.026c-1.594 0-2.382.753-2.382 2.274v7.907c0 1.522.788 2.274 2.382 2.274h1.045c1.594 0 2.382-.752 2.382-2.274V5.8h-2.932v1.6h1.026z"/></svg>