<svg xmlns="http://www.w3.org/2000/svg" width="15" height="14" viewBox="0 0 15 14">
    <path fill="#252835" fill-rule="evenodd" d="M6.325 10.756h2.757c.312 0 .564-.226.564-.538a.546.546 0 0 0-.564-.538h-.763V6.436c0-.425-.208-.702-.598-.702H6.455a.539.539 0 0 0-.554.537c0 .321.242.547.554.547h.633V9.68h-.763a.546.546 0 0 0-.563.538c0 .312.251.538.563.538m1.101-6.08c.546 0 .971-.443.971-.98a.972.972 0 0 0-1.942 0c0 .537.434.98.971.98m.07 8.006A5.646 5.646 0 0 1 1.836 7c0-3.157 2.504-5.682 5.651-5.682A5.668 5.668 0 0 1 13.174 7a5.65 5.65 0 0 1-5.678 5.682m0 1.318c3.823 0 7.004-3.175 7.004-7s-3.19-7-7.013-7C3.673 0 .5 3.175.5 7s3.181 7 6.996 7"/>
</svg>
