<svg xmlns="http://www.w3.org/2000/svg" viewBox="0 0 34 34"><title>ICN_UnSuccess</title><path d="M17,0A17,17,0,1,0,34,17,17,17,0,0,0,17,0Zm0,32A15,15,0,1,1,32,17,15,15,0,0,1,17,32Z" transform="translate(0 0)" fill="#fff"/><path d="M22.89,11.93l-.82-.82a.39.39,0,0,0-.55,0L17,15.63l-4.52-4.52a.39.39,0,0,0-.55,0l-.82.82a.39.39,0,0,0,0,.55L15.63,17l-4.52,4.52a.39.39,0,0,0,0,.55l.82.82a.39.39,0,0,0,.55,0L17,18.37l4.52,4.52a.39.39,0,0,0,.55,0l.82-.82a.39.39,0,0,0,0-.55L18.37,17l4.52-4.52A.39.39,0,0,0,22.89,11.93Z" transform="translate(0 0)" fill="#fff"/></svg>