<svg data-name="Layer 1" xmlns="http://www.w3.org/2000/svg" viewBox="0 0 52 32"><rect width="52" height="32" rx="4" ry="4" fill="#232856"/><path fill="#fff" d="M8.53 11.67h34.94v8.67H8.53z"/><path d="M28.83 15.5c0 .23.07.29.72.54a2.71 2.71 0 0 1 .47.23V16v-.9h-.4c-.53-.01-.79.13-.79.4zM18.45 17.54A.5.5 0 0 0 19 18a1.16 1.16 0 0 0 1.1-1.25h-.34c-.88.02-1.31.25-1.31.79zM25.4 15.68c0-.41-.27-.65-.72-.65a1 1 0 0 0-1 .9h1.68q.04-.15.04-.25z" fill="#0386c7" fill-rule="evenodd"/><path d="M28.26 19.11h-.85L27 19h-.34l.21-1.16a5 5 0 0 0 1.38.2c.61 0 .89-.14.89-.45s-.1-.3-.72-.55c-.82-.33-1.17-.76-1.17-1.4 0-.92.59-1.69 2.32-1.69h.29A12.11 12.11 0 0 0 26 7a12.2 12.2 0 1 0-8.23 21.16A12.26 12.26 0 0 0 26 25a12.13 12.13 0 0 0 3.67-6.11 4 4 0 0 1-1.41.22zM14.72 19l.91-4.74L13.54 19h-1.39l-.25-4.71L11 19H9.6l1.18-6.16h2.38l.13 3.82 1.71-3.8h2.48L16.24 19zm6.94-2.66l-.32 1.78-.05.32V19h-1.36v-.52a2.05 2.05 0 0 1-1.6.61A1.32 1.32 0 0 1 17 17.74c0-1.22 1-1.93 2.68-1.93a5.94 5.94 0 0 1 .62 0 1.08 1.08 0 0 0 .06-.33c0-.33-.27-.46-1-.46a5.68 5.68 0 0 0-1.27.14l-.21.05h-.14l.21-1.13a7 7 0 0 1 1.83-.27c1.31 0 2 .51 2 1.47a5.11 5.11 0 0 1-.13 1.09zM24.87 18a4.09 4.09 0 0 0 1.58-.32l-.25 1.25a6 6 0 0 1-1.56.2c-1.7 0-2.59-.77-2.59-2.25a2.76 2.76 0 0 1 2.67-3 1.82 1.82 0 0 1 2.06 1.82 4.7 4.7 0 0 1-.19 1.24h-3a1 1 0 0 0 0 .16c-.05.59.41.9 1.28.9z" fill="#0386c7" fill-rule="evenodd"/><path d="M44.85 22.78a.4.4 0 1 1 .4.39.39.39 0 0 1-.4-.39zm.4.3a.3.3 0 1 0-.3-.3.3.3 0 0 0 .3.3zm-.05-.13h-.08v-.35h.15a.16.16 0 0 1 .09 0 .1.1 0 0 1 0 .09.09.09 0 0 1-.06.09l.06.15h-.06l-.05-.14h-.06v-.06h.09-.09v.28zM42.64 18.52v.09h.09z" fill="#fff" fill-rule="evenodd"/><path d="M42.65 18.34a.3.3 0 1 0 .3.3.3.3 0 0 0-.3-.3zm.06.47l-.05-.14h-.06v.14h-.08v-.34h.15a.16.16 0 0 1 .09 0 .1.1 0 0 1 0 .09.09.09 0 0 1-.06.09l.06.15z" fill="#fff" fill-rule="evenodd"/><path d="M40.07 15.09c-.78 0-1.26.91-1.26 1.72s.33 1.14.88 1.13a1.5 1.5 0 0 0 1.17-1.23 3.4 3.4 0 0 0 0-.6c.05-.52-.16-1.02-.79-1.02z" fill="#e52332" fill-rule="evenodd"/><path d="M34.23 3.85a12.27 12.27 0 0 0-9.46 4.43h2.47a12.23 12.23 0 0 1 .93 1.29h-4.34a12.1 12.1 0 0 0-.71 1.29h5.75a12 12 0 0 1 .52 1.29H22.6a12 12 0 0 0-.36 1.29h7.5c0 .16.06.32.09.49.34 0 .77 0 1.07.09l-.22 1.16-.68-.08v1.17a1.25 1.25 0 0 1 .62 1.16 1.41 1.41 0 0 1-1 1.46q-.12.49-.28 1H22.6a12 12 0 0 0 .52 1.29h5.75a12.14 12.14 0 0 1-.71 1.29h-4.33a12.21 12.21 0 0 0 .93 1.29h2.47A12.3 12.3 0 0 1 26 25a12.2 12.2 0 1 0 8.23-21.15zM33.08 17.9a1.45 1.45 0 0 0 .41 0l-.2 1.1a4 4 0 0 1-1.1.16c-.78 0-1.21-.39-1.21-1.1a2.48 2.48 0 0 1 0-.45l.09-.49.07-.4.71-3.83h1.52L33.2 14h.8l-.21 1.22H33l-.4 2.09a1.17 1.17 0 0 0 0 .21c-.04.27.12.38.48.38zm3.74-2.48c-.73 0-1 .54-1.51 3.6h-1.53l.93-5h1.38l-.13.76c.47-.59.83-.81 1.33-.81h.28l.17.05-.55 1.42h-.18zm2.7 3.74a2.16 2.16 0 0 1-2.42-2.31 2.82 2.82 0 0 1 3-3 2.19 2.19 0 0 1 2.42 2.26 3.14 3.14 0 0 1 0 .62 2.68 2.68 0 0 1-3 2.43zm3.13-.16a.39.39 0 1 1 .4-.39.39.39 0 0 1-.4.39z" fill="#e52332" fill-rule="evenodd"/></svg>