<?xml version="1.0" encoding="UTF-8"?>
<svg width="12px" height="11px" viewBox="0 0 12 11" version="1.1" xmlns="http://www.w3.org/2000/svg" xmlns:xlink="http://www.w3.org/1999/xlink">
    <!-- Generator: Sketch 54.1 (76490) - https://sketchapp.com -->
    <title>Arrow-Boosted</title>
    <desc>Created with Sketch.</desc>
    <defs>
        <rect id="path-1" x="0" y="0.241391585" width="12" height="11"></rect>
    </defs>
    <g id="Symbols" stroke="none" stroke-width="1" fill="none" fill-rule="evenodd">
        <g id="BTN-/-CTA-/-Boosted" transform="translate(-20.000000, -15.000000)">
            <g id="Arrow-Boosted">
                <g transform="translate(20.000000, 14.758608)">
                    <mask id="mask-2" fill="white">
                        <use xlink:href="#path-1"></use>
                    </mask>
                    <g id="Mask"></g>
                    <g mask="url(#mask-2)">
                        <g transform="translate(6.299962, 5.500000) scale(-1, 1) rotate(-83.000000) translate(-6.299962, -5.500000) translate(1.799962, -1.000000)">
                            <ellipse id="Oval-1" stroke="none" fill="#F57800" fill-rule="evenodd" cx="2.79532967" cy="9.51877889" rx="2.79532967" ry="2.74799319"></ellipse>
                            <path d="M7.39402384,0.715723686 L0.750202207,9.31460765 C0.571544027,9.54583917 0.647949298,9.88260983 0.908901376,10.0141042 L3.40927463,11.2740484 C3.6498483,11.395274 3.94276933,11.2873247 4.04714485,11.0389759 L8.19059323,1.18014784 C8.40143505,0.678475529 7.72673578,0.285105356 7.39402384,0.715723686 Z M5.95520608,4.09889069 L3.38287362,10.2194408 L1.83059381,9.43724326 L5.95520608,4.09889069 Z" id="Path-2" stroke="none" fill="#F57800" fill-rule="nonzero"></path>
                            <polygon id="Path-3" stroke="#F57800" stroke-width="1" fill="none" points="5.5049384 4.41260583 3.98451196 8.37345214 2.66422986 7.86664332"></polygon>
                        </g>
                    </g>
                </g>
            </g>
        </g>
    </g>
</svg>