<?xml version="1.0" encoding="UTF-8"?>
<svg width="22px" height="16px" viewBox="0 0 22 16" version="1.1" xmlns="http://www.w3.org/2000/svg" xmlns:xlink="http://www.w3.org/1999/xlink">
    <!-- Generator: Sketch 54.1 (76490) - https://sketchapp.com -->
    <title>Boost-BG</title>
    <desc>Created with Sketch.</desc>
    <defs>
        <rect id="path-1" x="0" y="0" width="22" height="16"></rect>
        <rect id="path-3" x="0" y="0" width="22" height="16"></rect>
    </defs>
    <g id="Boost-BG" stroke="none" stroke-width="1" fill="none" fill-rule="evenodd">
        <g id="ICN_Boost">
            <mask id="mask-2" fill="white">
                <use xlink:href="#path-1"></use>
            </mask>
            <g id="Mask"></g>
            <g mask="url(#mask-2)">
                <g transform="translate(11.000000, 8.000000) scale(-1, 1) translate(-11.000000, -8.000000) ">
                    <mask id="mask-4" fill="white">
                        <use xlink:href="#path-3"></use>
                    </mask>
                    <g id="Mask" stroke="none" fill="none" fill-rule="nonzero"></g>
                    <g id="Group-6" stroke="none" stroke-width="1" fill="none" fill-rule="evenodd" mask="url(#mask-4)">
                        <g transform="translate(0.000000, 1.000000)" fill="#FFFFFF" id="Combined-Shape">
                            <path d="M18.9785327,6.94673007 L17.848077,7.59939893 C17.5753475,7.75685942 17.2234221,7.65789465 17.0722052,7.39597922 C16.9164326,7.12617312 17.009275,6.78094243 17.2839745,6.62234463 L18.4081324,5.97331172 C17.7332456,4.9764235 16.8545499,4.12361666 15.8303209,3.47201682 L15.2385034,4.49707482 C15.0799056,4.77177425 14.7346749,4.86461672 14.4648688,4.7088441 C14.2029534,4.55762715 14.1039886,4.20570182 14.2614491,3.93297225 L14.8418202,2.92773999 C13.8796416,2.47472537 12.8213752,2.18658258 11.7051282,2.1006669 L11.7051282,3.36969929 C11.7051282,3.68462027 11.4434595,3.93991416 11.1410256,3.93991416 C10.8294804,3.93991416 10.5769231,3.68689488 10.5769231,3.36969929 L10.5769231,2.0833396 C9.33518689,2.14040431 8.16011115,2.4473458 7.1028432,2.95402606 L7.66803805,3.93297225 C7.82549854,4.20570182 7.72653377,4.55762715 7.46461834,4.7088441 C7.19481224,4.86461672 6.84958155,4.77177425 6.69098375,4.49707482 L6.11821316,3.50500705 C5.11600161,4.15229388 4.25542329,4.99316087 3.59186756,5.97331172 L4.71602554,6.62234463 C4.98875511,6.77980512 5.07901177,7.13406378 4.92779483,7.39597922 C4.77202221,7.66578531 4.42662242,7.75799673 4.15192298,7.59939893 L3.02146735,6.94673007 C2.44123929,8.10414175 2.11538462,9.4062296 2.11538462,10.782923 L-1.77635684e-15,10.782923 C0,4.82767906 4.92486775,0 11,0 C17.0751322,0 22,4.82767906 22,10.782923 L19.8846154,10.782923 C19.8846154,9.4062296 19.5587607,8.10414175 18.9785327,6.94673007 Z" transform="translate(11.000000, 5.391461) scale(-1, 1) translate(-11.000000, -5.391461) "></path>
                        </g>
                    </g>
                </g>
            </g>
        </g>
    </g>
</svg>