<svg xmlns="http://www.w3.org/2000/svg" xmlns:xlink="http://www.w3.org/1999/xlink" width="22" height="22"><defs><path id="A" d="M0 0h22v22H0z"/></defs><g fill="none" fill-rule="evenodd"><mask id="B" fill="#fff"><use xlink:href="#A"/></mask><g mask="url(#B)"><path d="M5.23 15.09h2.75l1.187 2.017c-1.494-.233-2.874-.94-3.935-2.017zM4.25 8.754l-1.053 1.79c-.06-.972.085-1.947.422-2.86l.63 1.072zm4.012-5.408l1.384 2.35L7.98 8.532H4.636l-.8-1.36c.857-1.852 2.47-3.245 4.427-3.824zm5.11 2.13H10.03L8.71 3.23c.505-.113 1.02-.17 1.54-.17a7.02 7.02 0 0 1 3.865 1.156l-.74 1.26zm3.758 3.057h-1.705l-1.668-2.834.722-1.227a7.08 7.08 0 0 1 2.651 4.061zm-7.1-2.612h3.343l1.667 2.835-1.667 2.834H10.03L8.364 8.755 10.03 5.92zm-5.206 8.725a7.04 7.04 0 0 1-1.545-3.366l1.355-2.303H7.98L9.647 11.8 7.98 14.645H4.826zM10.25 17.2a7.08 7.08 0 0 1-.532-.023l-1.354-2.3 1.668-2.834h3.343l1.667 2.834-.516.877c-1.227.94-2.73 1.448-4.276 1.447zm7.065-7.065c0 1.718-.617 3.294-1.64 4.52h-.248L13.76 11.8l1.668-2.834h1.793c.062.374.095.757.095 1.148zm-.476 4.964l.022-.03c1.066-1.424 1.642-3.156 1.64-4.936 0-1.85-.6-3.56-1.64-4.936-.5-.668-1.1-1.257-1.775-1.747a8.21 8.21 0 0 0-4.836-1.568c-2.19-.003-4.288.867-5.834 2.416a8.23 8.23 0 0 0-1.222 1.555C2.41 7.136 1.998 8.616 2 10.125a8.23 8.23 0 0 0 .813 3.576c.23.48.507.934.825 1.36.238.318.498.618.778.898 1.546 1.55 3.645 2.42 5.834 2.416a8.28 8.28 0 0 0 1.929-.229 8.2 8.2 0 0 0 1.856-.691c1.1-.57 2.058-1.377 2.804-2.366z" fill="#252835"/><rect fill="red" x="9.625" y="7.75" width="12.375" height="12.375" rx="6.188"/><g fill="#fff"><path d="M18.73 11.02a.69.69 0 0 1 0 .972l-4.86 4.86a.69.69 0 0 1-.972 0 .69.69 0 0 1 0-.972l4.86-4.86a.69.69 0 0 1 .972 0z"/><path d="M12.86 10.987a.69.69 0 0 1 .972 0l4.86 4.86a.69.69 0 0 1 0 .972.69.69 0 0 1-.972 0l-4.86-4.86a.69.69 0 0 1 0-.972z"/></g></g></g></svg>