<?xml version="1.0" encoding="UTF-8"?>
<svg width="1297px" height="116px" viewBox="0 0 1297 116" version="1.1" xmlns="http://www.w3.org/2000/svg" xmlns:xlink="http://www.w3.org/1999/xlink">
    <!-- Generator: Sketch 53.2 (72643) - https://sketchapp.com -->
    <title>Artboard</title>
    <desc>Created with Sketch.</desc>
    <g id="Artboard" stroke="none" stroke-width="1" fill="none" fill-rule="evenodd">
        <path d="M568,109.03 L568,12.03 L616.39,12.03 C638.11,12.03 650,27.37 650,44.95 C650,62.53 638.11,77.12 616.39,77.12 L592.92,77.12 L592.92,109.03 L568,109.03 Z M624.64,44.95 C624.64,38.27 619.72,33.85 613.05,33.85 L592.92,33.85 L592.92,55.96 L613.05,55.96 C619.72,55.96 624.64,51.5 624.64,44.95 L624.64,44.95 Z" id="Shape" fill="#202020"></path>
        <polyline id="Path" fill="#202020" points="868.1 109.03 868.1 33.85 841 33.85 841 12.03 920 12.03 920 33.85 893.03 33.85 893.03 109.03 868.1 109.03"></polyline>
        <path d="M705,10.03 C677.4,10.03 655,32.64 655,60.53 C655,88.42 677.39,111.03 705,111.03 C732.61,111.03 755,88.42 755,60.53 C755,32.64 732.61,10.03 705,10.03 Z M705,87.52 C698.517437,87.5138349 692.262336,85.1299227 687.42,80.82 C679.173246,73.6010896 676.108579,62.1131736 679.663791,51.7458166 C683.219003,41.3784597 692.688634,34.1888505 703.63,33.55 L705,33.55 C706.461038,33.5531582 707.919323,33.6769118 709.36,33.92 C710.25,34.07 711.14,34.26 712.02,34.5 C713.012903,34.7731892 713.988076,35.1071523 714.94,35.5 L715.41,35.69 C727.171816,40.7127252 733.796171,53.2984746 731.277734,65.8374361 C728.759297,78.3763976 717.789045,87.4282889 705,87.52 L705,87.52 Z" id="Shape" fill="#D8222B"></path>
        <path d="M757,93.5 C757,93.5 773.49,77.73 773.56,77.82 C781.82,85.22 791.17,88.38 801.96,88.38 C810.52,88.38 815.41,85.11 815.41,80.38 C815.41,67.11 760.55,77.97 760.55,40.57 C760.55,24.13 774.41,9.04 799.22,9.04 C811.508016,8.95223972 823.516794,12.7034535 833.57,19.77 C833.57,19.77 816.84,35.56 816.88,35.59 C810.548429,32.4610909 803.582491,30.8290906 796.52,30.82 C789.28,30.82 786.28,33.9 786.28,38 C786.28,50.16 840.98,40.29 840.98,77.5 C840.98,97.17 825.82,110 800.62,110 C781.03,110 767.46,103.24 756.98,93.47" id="Path" fill="#202020"></path>
        <path d="M62.61,107.950541 L47.06,76.514374 L33.79,76.3462133 L33.79,108 L9,108 L9,12 L57.13,12 C78.46,12 90.62,26.194745 90.62,44.0296754 C90.62,60.4896445 81.96,70.0748068 72.19,74.0117465 L91,107.950541 L62.61,107.950541 Z M66,43.8536026 C66,37.2505737 60.4607595,33 53.8481013,33 L34,33 L34,55 L53.8481013,55 C61.2708861,55 66,50.7595227 66,43.8536026 L66,43.8536026 Z" id="Shape" fill="#202020"></path>
        <path d="M169.06125,108 L162.901058,89.3542268 L128.019712,89.1958763 L121.93875,108 L94,108 L129.960865,12 L160.900481,12 L197,108 L169.06125,108 Z M145.465606,37 L135,68 L156,68 L145.465606,37 Z" id="Shape" fill="#202020"></path>
        <rect id="Rectangle" fill="#202020" x="291" y="12.0343357" width="25" height="96"></rect>
        <polyline id="Path" fill="#202020" points="394.9 108.034336 353.97 52.4829955 353.97 108.034336 329 108.034336 329 12.0343357 354.69 12.0343357 393.88 64.8640264 393.88 12.0343357 419 12.0343357 419 108.034336 394.9 108.034336"></polyline>
        <path d="M429.008343,59.3987821 C428.483969,28.6279943 452.753604,9.16358991 480.278319,9.03488327 C498.087264,8.9655797 509.425626,15.4801159 518.676384,25.3608257 L502.341623,40.9145283 C495.00038,33.1030252 490.914217,31.7565557 481.366643,31.4298389 C467.416302,30.9447138 454.554286,43.4589596 454.554286,58.8641545 C454.554286,74.7049719 465.92233,86.6350875 481.267704,86.6350875 C489.034383,86.6350875 493.783436,84.5658808 498.295035,81.0809009 L498.295035,73.6753188 L483.988516,73.6753188 L483.988516,51.7555877 L523,51.7555877 L522.920849,87.5756361 C511.651744,102.96103 497.25618,108.822132 481.366643,109.030043 C456.978282,109.336959 429.621762,93.1892257 429.047919,59.3987821" id="Path" fill="#202020"></path>
        <path d="M281.960457,92.7672391 C277.106547,88.0445337 265.856547,77.1932021 265.866432,77.1932021 C260.664982,83.4889773 252.878216,87.0619907 244.720782,86.8960351 C229.071617,86.8960351 217.633787,72.7873238 217.633787,58.7479186 C217.633787,41.5303404 232.314148,30.203768 246.183875,31.3522666 C255.713752,32.1443346 261.230009,35.7977483 265.609402,40.7085699 C265.609402,40.767975 281.901142,25.2335413 282,25.0949294 C278.282953,21.3821107 267.804042,9.1842635 245.205185,9.03575075 C214.737258,8.83773375 192,29.4414026 192,58.4310914 C192,88.4306668 215.518234,109.034336 244.463752,109.034336 C265.223858,109.034336 275.524824,99.6483299 281.920914,92.7672391" id="Path" fill="#202020"></path>
        <path d="M964,12 L1012.98502,12 C1034.98253,12 1047,26.6912621 1047,44.2762577 C1047,61.8612533 1034.94799,76.1415711 1012.98502,76.1415711 L989.226337,76.1415711 L989.226337,109 L964,109 L964,12 Z M1009.63532,33.0780229 L989.26087,33.0780229 L989.26087,54.8923213 L1009.63532,54.8923213 C1016.36925,54.8923213 1021.35927,50.6801412 1021.35927,44.1392763 C1021.37653,37.5984113 1016.33472,33.0780229 1009.63532,33.0780229 Z" id="Shape" fill="#D8262A" fill-rule="nonzero"></path>
        <polygon id="Path" fill="#D8262A" fill-rule="nonzero" points="1058 12 1083 12 1083 109 1058 109"></polygon>
        <path d="M1094,60.5086004 C1094,30.3482924 1116.70807,10 1145.88211,10 C1170.06517,10 1182.58548,23.3126117 1189,36.2113597 L1167.44105,46.4544832 C1163.70211,37.8323254 1155.22946,32.2624115 1145.88211,32.2451671 C1130.73768,32.2451671 1119.52085,44.5403642 1119.52085,60.4913561 C1119.52085,76.4423481 1130.73768,88.7547894 1145.88211,88.7547894 C1155.22946,88.7375451 1163.70211,83.1676312 1167.44105,74.5454733 L1188.9657,84.7885968 C1182.70554,97.3941915 1170.01372,110.999957 1145.84781,110.999957 C1116.72522,111.034445 1094,90.5309539 1094,60.5086004 Z" id="Path" fill="#D8262A" fill-rule="nonzero"></path>
        <polygon id="Path" fill="#D8262A" fill-rule="nonzero" points="1230.67038 72.5051201 1224.10603 80.6398305 1224.10603 109 1199 109 1199 12 1224.10603 12 1224.10603 51.8515184 1254.02363 12 1284.95509 12 1247.16715 57.3659958 1287 109 1256.20601 109"></polygon>
    </g>
</svg>