<?xml version="1.0" encoding="UTF-8"?>
<svg width="165px" height="147px" viewBox="0 0 165 147" version="1.1" xmlns="http://www.w3.org/2000/svg" xmlns:xlink="http://www.w3.org/1999/xlink">
    <!-- Generator: Sketch 54.1 (76490) - https://sketchapp.com -->
    <title>ICN-Shield-GRADIENT</title>
    <desc>Created with Sketch.</desc>
    <defs>
        <rect id="path-1" x="0" y="0" width="166" height="147"></rect>
        <path d="M0.168606612,16.3437285 L102.884303,0.0183885027 C102.938847,0.00971945789 102.990091,0.0469083394 102.99876,0.101452194 C102.999586,0.106643712 103,0.111892208 103,0.117148888 L103,216 L89.0293193,214.458014 C38.3542734,208.864856 6.13106517e-14,166.044393 5.5067062e-14,115.061615 L2.35089725e-14,16.5412492 C2.34969297e-14,16.4429115 0.0714879248,16.3591642 0.168606612,16.3437285 Z" id="path-3"></path>
        <path d="M16.4908061,16.6204027 L102.88144,0.303034495 C102.935709,0.292784239 102.988012,0.328468424 102.998263,0.382737354 C102.999418,0.38885634 103,0.395069906 103,0.401297084 L103,216.280641 L103,216.280641 C53.4096879,209.776083 16.3279256,167.512832 16.3279256,117.49775 L16.3279256,16.8169279 C16.3279256,16.7207852 16.3963338,16.6382465 16.4908061,16.6204027 Z" id="path-5"></path>
        <path d="M13.8854736,16.3426255 L102.881962,0.0216468886 C102.936284,0.0116847289 102.988398,0.0476459333 102.99836,0.101968487 C102.999451,0.107919184 103,0.113956638 103,0.120006573 L103,216 L93.8109676,214.985779 C41.4469514,209.206204 3.03378599,163.043442 6.86666667,110.501053 L13.7220798,16.5247938 C13.7287068,16.4339482 13.7958807,16.3590558 13.8854736,16.3426255 Z" id="path-7"></path>
        <path d="M30.2061279,16.6186527 L102.878101,0.308000425 C102.931988,0.295905717 102.985478,0.329785769 102.997573,0.383673638 C102.999186,0.390861744 103,0.398206115 103,0.405573044 L103,216.280641 L103,216.280641 C54.3457365,209.898861 19.1176046,166.670381 22.6877676,117.729413 L30.0504568,16.7992469 C30.0568711,16.7113176 30.1201051,16.6379598 30.2061279,16.6186527 Z" id="path-9"></path>
    </defs>
    <g id="Symbols" stroke="none" stroke-width="1" fill="none" fill-rule="evenodd">
        <g id="1-copy" transform="translate(-89.000000, 0.000000)">
            <g id="Team-Gradient-BG">
                <g id="Group" transform="translate(89.000000, 0.000000)">
                    <g id="ICN-Shield-GRADIENT">
                        <mask id="mask-2" fill="white">
                            <use xlink:href="#path-1"></use>
                        </mask>
                        <g id="Mask"></g>
                        <g id="ICN/Shield/GRADIENT" mask="url(#mask-2)">
                            <g transform="translate(-35.000000, -66.000000)" id="ICN/Badge">
                                <g>
                                    <g id="Rectangle-15">
                                        <g id="Group-16">
                                            <mask id="mask-4" fill="white">
                                                <use xlink:href="#path-3"></use>
                                            </mask>
                                            <use id="Rectangle" fill="#1F1F1F" xlink:href="#path-3"></use>
                                            <mask id="mask-6" fill="white">
                                                <use xlink:href="#path-5"></use>
                                            </mask>
                                            <use id="Rectangle" fill="#090909" xlink:href="#path-5"></use>
                                        </g>
                                    </g>
                                    <g id="Group-16" transform="translate(151.066667, 108.000000) scale(-1, 1) translate(-151.066667, -108.000000) translate(96.133333, 0.000000)">
                                        <mask id="mask-8" fill="white">
                                            <use xlink:href="#path-7"></use>
                                        </mask>
                                        <use id="Rectangle" fill="#E7E7E7" xlink:href="#path-7"></use>
                                        <mask id="mask-10" fill="white">
                                            <use xlink:href="#path-9"></use>
                                        </mask>
                                        <use id="Rectangle" fill="#AFAFAF" xlink:href="#path-9"></use>
                                    </g>
                                </g>
                            </g>
                        </g>
                    </g>
                </g>
            </g>
        </g>
    </g>
</svg>