<svg width="21px" height="17px" viewBox="0 0 21 17" version="1.1" xmlns="http://www.w3.org/2000/svg">
  <g id="byb" stroke="none" stroke-width="1" fill="#004696" fill-rule="evenodd">
    <path d="M18.6325037,8.1079795 C19.693265,7.52379209 20.4619327,6.32467057 20.4619327,4.54136164 C20.4619327,1.60505124 19.3550512,0.313689605 15.204246,0.313689605 L9.34699854,0.313689605 L9.34699854,6.83199122 L6.37994143,6.83199122 L6.37994143,3.35761347 L3.47437775,3.35761347 L3.47437775,6.83199122 L0,6.83199122 L0,9.7375549 L3.47437775,9.7375549 L3.47437775,13.2119327 L6.37994143,13.2119327 L6.37994143,9.7375549 L9.34699854,9.7375549 L9.34699854,9.75292826 L15.3579795,9.75292826 C16.5878477,9.75292826 17.4487555,10.1526354 17.4487555,11.7975842 C17.4487555,13.2887994 16.772328,13.8114934 15.4348463,13.8114934 L12.8674963,13.8114934 L12.8674963,11.4901171 L9.34699854,9.76830161 L9.34699854,16.6863104 L15.5424597,16.6863104 C19.4934114,16.6863104 21,14.9030015 21,12.0896779 C20.9846266,10.0757687 20.2313324,8.73828697 18.6325037,8.1079795 Z M15.0812592,6.98572474 L12.8674963,6.98572474 L12.8674963,4.66434846 L9.34699854,3.18850659 L15.1120059,3.18850659 C16.4494876,3.18850659 16.9721816,3.86493411 16.9721816,5.07942899 C16.9568082,6.4784041 16.4187408,6.98572474 15.0812592,6.98572474 Z" id="ICN/BuildUrBet" fill-rule="nonzero"></path>
  </g>
</svg>
