<svg xmlns="http://www.w3.org/2000/svg" width="17" height="17" viewBox="0 0 17 17">
  <g fill="#000" fill-rule="nonzero">
    <path d="M8.51 17A8.5 8.5 0 0 1 1.2 4.14a.34.34 0 0 1 .59.34 7.82 7.82 0 0 0 11.36 10.31l.44.51h-.05A8.43 8.43 0 0 1 8.51 17zm7-4a.31.31 0 0 1-.18 0 .33.33 0 0 1-.11-.46 7.94 7.94 0 0 0 1.11-4A7.78 7.78 0 0 0 14.8 3.9 7.88 7.88 0 0 0 8.49.68a7.78 7.78 0 0 0-4.64 1.53l-.41-.54A8.5 8.5 0 0 1 17 8.49a8.58 8.58 0 0 1-1.21 4.39.36.36 0 0 1-.29.12h.01z"/>
    <path d="M13.37 9.1a.85.85 0 0 1-.24.59l-2.77 2.77a.83.83 0 0 1-1.18 0 .8.8 0 0 1-.25-.56v-1.5H7.15a3.28 3.28 0 0 1-2.54-5 2.58 2.58 0 0 0 2.57 2.45h1.74V6.29a.76.76 0 0 1 .25-.56.83.83 0 0 1 1.19 0l2.76 2.77.1.12.06.13a.87.87 0 0 1 .09.35z"/>
  </g>
</svg>
