<svg viewBox="0 0 70 70" xmlns="http://www.w3.org/2000/svg">
  <path d="M69.8 16.5c-0.3 0-0.5 0-0.8 0c-2.9 0-5.5 0.6-7.3 1.1c0.9-5.1-2.3-10.2-7.3-11.7c-1-0.3-1.9-0.4-2.9-0.4
      c-4.6 0-8.7 3.1-10 7.5c-0.2 0.6-0.3 1.3-0.4 2C39 16.3 36.3 18 36.3 18l-3.2 2.1l8.8 0l0.6 1.6l-1.1 5.6l2.8-0.6l1.9
      4.6l5.4-2.5 l2.1 0.9l-3.1 5.3l-11.1-5.2L4.7 44.9l-1.8-1L3.8 41L23.4 19c0.4-0.3 0.5-0.9 0.3-1.4c-0.4-0.8-0.6-1.6-0.6-2.5
      c0-1.7 0.8-3.3 2.1-4.5c1.3 1.1 2.1 2.7 2.1 4.5c0 0.8-0.2 1.6-0.5 2.3c-0.2 0.5-0.1 1.1 0.3 1.4L30
      21l2.8-0.8l-3.6-2.8 c0.2-0.8 0.4-1.6 0.4-2.4c0-1.5-0.4-3-1.2-4.2c-0.7-1.1-1.5-2-2.6-2.7C25.7 8 25.4 8 25.2 8C25
      8 24.8 8 24.6 8.1 c-2.4 1.5-3.8 4.1-3.8 6.9c0 0.9 0.2 1.9 0.5 2.7L1.6 40.2l-1.4 5L8.9 50l20.8-9c0.9 1.8 8.6 22.8
      8.6 22.8 c0.2 0.3 0.5 0.6 0.9 0.7c0.1 0 0.1 0 0.2 0c0.3 0 0.6-0.1 0.8-0.3l16.9-17.3c0.4-0.5 0.4-1.2
      0-1.6l-4.5-3.6l-1.5 1.7l3.7 3 l-15 15c0 0-7.6-20.6-8.4-22.3c-0.2-0.4-0.6-0.6-1-0.6c-0.1 0-0.2 0-0.4
      0.1L9.1 47.3l-1.9-1l32.2-14.1l12.1 5.7l5.4-9.2l-5.3-2.3 l-4.2 2l-1.7-4.2l-1.3 0.3l0.5-2.9l-1.3-3.7l-2.8 0c0.7-0.5
      2.6-1.7 2.6-1.7l0-0.6c0-0.7 0.1-1.4 0.3-2c0.6-2.1 2-3.8 3.9-4.9 c1.2-0.7 2.5-1 3.9-1c0.8 0 1.6 0.1 2.3
      0.3c2.1 0.6 3.8 2 4.9 3.9c1 1.9 1.3 4 0.7 6.1c-0.3 0.4-1.5 1.4-2.7 2.3l-0.2 0.1l1.3 1.8 l2.9-1.9c0.7-0.3
      4.2-1.6 8.3-1.6c0.2 0 0.5 0 0.7 0l0.2 0l0.1-2.2L69.8 16.5z"></path>
</svg>
