<svg xmlns="http://www.w3.org/2000/svg" width="28" height="18" viewBox="0 0 28 18">
    <path fill="#FFF" fill-rule="evenodd" d="M24.73 6.598a7.419 7.419 0 0 1-.86-.182c.145-.124.252-.172.34-.172.15 0 .108.09.441.295a.9.9 0 0 0 .134.068l-.056-.009m-3.613-2.44A.127.127 0 0 0 21 4.084l-.052-.001c.319-.052.57-.037.567-.026-.125.016-.26.053-.399.1m-1.244.554c-.028.043-.039.088-.053.133-.046.03-.09.06-.132.09a1.162 1.162 0 0 0-.48.031.88.88 0 0 0-.386.248c.243-.107.46-.209.575-.108-.127-.022-.262.047-.35.134a2.376 2.376 0 0 0-.198.218l-.036.009-.3.07c.055-.079.092-.154.091-.218-.004-.218-.113-.427-.213-.491a7.82 7.82 0 0 0-1.237-.585c-.378-.129-.633-.204-.74-.235.836-.188 1.224-.57 1.239-.57.347.395.543.613.543.613.165.182.154.322.443.323.29.002.336.18.658.145.321-.035.476-.08.476-.08s.219.151.411.097a.519.519 0 0 0 .079-.03l.015.054-.134.079c-.105 0-.224 0-.271.073m-7.432 9.853s-.7-.04-.818-.107c-.116-.065-.5-.352-.7-.303-.017 0 .041-.393.15-.696.108-.304.275-.582.275-.582s.459.639.542.918c.084.278.142.393.3.532.159.14.25.238.25.238M7.124 7.992c.004 0 .032.268.162.59.004.129.016.26.037.392a1.634 1.634 0 0 1-.2-.982m-1.667.597c.02-.75.504-1.174.504-1.174-.019.287.118.351.12.361-.442.36-.614.811-.624.813m-2.248-.15s.455-.234.755-.423c.3-.188.63-.282.63-.282s-.698.673-1.385.705m10.207-5.463c-.01.025-.027.039-.034.04-.005 0-.009.002-.02-.02-.013-.026-.024-.054-.036-.082a.31.31 0 0 0 .074-.07c.016.015.024.031.028.05a.14.14 0 0 1-.012.082m-.242-.243h-.001l.004-.005s0 .002-.003.005m-.038-.604a.356.356 0 0 1 0-.065.3.3 0 0 1 .029.061l-.03.004m14.73 4.214c-.075-.099-.86-1.05-1.143-1.41-.284-.36-.55-.787-.709-.942-.158-.156-.375-.337-.392-.427-.006-.034-.069-.098-.15-.166.035-.033.056-.066.047-.075l-.096-.099c-.009-.009-.044.01-.078.043l-.02.018a1.025 1.025 0 0 0-.245-.139.782.782 0 0 1-.259-.123c-.033-.098-.267-.254-.408-.401-.142-.148-.393-.337-.46-.304-.066.033.118.18.21.295.087.11.121.346.131.36-.092-.042-.282-.286-.399-.351-.116-.066-.075.073-.008.13.067.058.184.28.184.28-.03.004-.057.01-.085.015a2.303 2.303 0 0 0-.359-.065 2.87 2.87 0 0 0-.967.145c-.153.062-.756.227-.702.234.055.007.424.016.729-.063.305-.08.502-.048.502-.048l-.23.099s-.296.068-.578.093c-.766.068-1.447.463-1.375.427.52-.17 1.007-.196 1.007-.196l-.217.102c-.654.068-1.03.203-1.23.312-.04 0-.08-.001-.117-.005a.502.502 0 0 0-.016-.048c-.076-.192-.296-.113-.296-.113-.065-.093-.189-.089-.559-.323-.41-.26-.608-.16-.591-.178-.095-.19-.03-.648-.05-.662.026-.087-.148-.469-.148-.469s.186-.007.157-.11a1.41 1.41 0 0 0-.02-.066.112.112 0 0 0 .077-.051c.02-.03.044-.04.074-.03l.006.004c-.012.022-.014.042-.006.047l.125.083c.01.006.028-.006.047-.027.041.028.08.055.102.068.058.034.168.08.215-.006.046-.085.052-.125.11-.12.057.006.07-.085.07-.085s.109.064.119-.012c.006-.046.017-.08.03-.079.03.003.15.07.173.012.015-.04.015-.134.02-.223.045-.043.16-.157.165-.19.002-.016-.017-.037-.042-.056a.319.319 0 0 0 .036-.036.382.382 0 0 0 .217.019c.022-.008.041-.106.054-.195.246.013.427.01.461-.02.061-.054-.409-.209-.409-.209s.04-.726-.785-.945a.737.737 0 0 0-.35-.06c-.496-.016-.75.324-.906.821-.038.105-.024.17.053.203a.336.336 0 0 0-.038.145.32.32 0 0 1-.022-.003.234.234 0 0 0-.065-.078c-.084-.043-.069.024-.24-.023a1.313 1.313 0 0 0-.234-.042C17.787.94 17.31.79 16.518.933c-.017-.016-.671-.077-1.02.016 0 0-.344-.13-.607.097-.263.226-1.069.565-1.184.678-.016 0-.197.065-.18.194 0 .014-.166.104-.195.18-.038.008-.08.015-.119.02a.817.817 0 0 0-.022-.053c-.02-.037-.03-.065-.069-.066-.028.009-.031.031-.035.052a.391.391 0 0 0-.003.083h-.017c-.061 0-.135-.008-.17.051 0 .002-.01.004-.026.01a.133.133 0 0 0-.104-.022c-.168-.31-.4-.747-.598-1.227-.098-.236-.176-.402-.258-.657-.004-.014-.02-.154-.059-.149-.036.005.032.141.036.156.083.256.142.416.239.662.196.496.405.939.565 1.256a.123.123 0 0 0-.022.14l.036.073a.958.958 0 0 0-.06.194c-.005.05.086.12.086.12s-.008.085.04.119c.037.027.105.016.155.006l.014.028a.128.128 0 0 0-.048.047c-.022.042.013.068.04.072a.267.267 0 0 0 .066-.006.131.131 0 0 0 .172.048.131.131 0 0 0 .074-.106l.033-.013.037.083c.015.033.045.054.075.048.061-.017.097-.1.084-.181a.144.144 0 0 0-.043-.08l.013-.015c.04-.038.2-.2.235-.277.11.018.225-.095.225-.095s.148 0 .412-.113c.262-.113.805-.259.805-.259s.161.01.36.014a4.535 4.535 0 0 0-.914 1.158c-.042.04-.078.076-.107.106-.186.196-.61.7-.605 1.097a.943.943 0 0 0 .69.888 7.654 7.654 0 0 0 1.305.217 42.4 42.4 0 0 1 1.307.102s-.124.043-.27.184c-.583.012-1.083.062-1.41.15-.393.104-1.098.135-1.544.024-.445-.112-.605-.135-.612-.075-.006.04.085.274.46.425l-.19-.027c-1.018-.147-1.785-.68-2.544-.811-.513-.09-1.385-.017-2.19.174l.006-.016s-.03.013-.104.04a5.87 5.87 0 0 0-.853.28L7.83 6c-.805.242-1.15.287-1.84.3-.689.013-1.1.37-1.1.37s-1.434.258-2.055.165c-.62-.092-1.582-.002-2.148-.336C.119 6.164.1 6.176.01 6.166c-.091-.01.463.492 1.04.649.578.156 1.078.251 1.078.251S1.073 7.03.81 6.9s-.72-.398-.77-.393c-.049.005.601.499.726.545.125.046.457.15.457.15s-.688.12-1.028.401c-.054.055 1.255-.435 1.81-.208 0 .01-1.305.349-1.581.574-.018.038.339-.022.339-.022s-.366.311-.255.264c.56-.238.952-.297.952-.297s-.594.354-.649.756c-.007.054.309-.475.806-.507 0 .01-.393.274-.577.73-.08.208-.179.562-.104.59.03.01.124-.543.823-.744.01-.001-.097.216-.044.24.053.024.287-.217.501-.268.215-.052 1.402-.648 1.402-.648s-.471.364-.642.45c-.055.046.186.05.47 0 .285-.049.756-.235 1.744-.997.011.008-.395.513-.645.696-.08.056.43-.185.466-.204-.026.015-.448.386-.49.728-.006.129.147-.31.532-.547 0 0-.248.39-.225.702 0 0 .142-.359.216-.416 0 .01-.058.95.678 1.189.107.057-.252-.21-.297-.53.01-.001.372.295.816.416.134.036-.667-.432-.761-.835 0 0 .329-.477.76-.837 0 0 .035.784.195 1.062s.592.755.716.79c.124.037-.415-.507-.518-.9-.102-.392.072-.725.072-.725s-.134 1.165.924 1.694c.21.087-.747-.522-.717-1.45-.001-.007.086.558.487.92.404 1.114 2.086 2.313 2.264 2.526.192.23.209 1.901.159 2.073-.05.172-.15.46-.142.722.008.262.375.492.709.492.917.032 2.81.483 2.961.532.15.05.142.23.234.279.091.05.158-.09.333-.033.175.058.092.402-.008.484-.1.082-.034.18-.034.18s.009.172.067.254c.059.082 1.118.558 1.176.517.059-.041-.091-.558-.083-.558.534-.13.2.533.117.648a.173.173 0 0 0 0 .213s.216.32.325.369c.109.049 1.268.049 1.285-.025.016-.074-.493-.656-.484-.664.025-.123-.075-.23-.192-.336-.117-.106-.342-.623-.442-.926-.1-.303-.56-.516-.7-.59-.143-.074-1.219-.96-1.335-1.14-.117-.18-.41-.565-.534-.664-.125-.098-.3-.704-.376-1.032-.075-.328-.483-1.631-.475-1.623 1.284.934 1.718.918 2.51 1.098.793.18 1.502 0 2.061.05.077.006.156.01.235.014l-.002.078c-.002.047.013.085.033.086l.219.006c.02.001.037-.037.039-.084l.002-.083c.371-.003.675-.034.675-.034.61 1.172.984 1.14.993 1.148.075.467.55.917.742 1.114.186.19.254.419.258.426-.109-.016-.775.099-1.117.19-.342.089-.893.114-1.018.097-.125-.016-.3-.04-.3.017s.158.147-.083.188c-.242.041-.41-.336-.35-.442.057-.107-.05-.205-.05-.205l-.26-.18c-.058-.042-1.284.172-1.2.253.083.082.6.566.608.566.009.197.276.32.45.344.176.025.36.082.493.164s.4.189.65.115c.368-.123 1.268-.23 1.46-.221.192.008.851.14 1.31-.033.459-.172.45-.631.442-.803-.008-.173-.334-.796-.459-1.05a1.528 1.528 0 0 1-.142-.581c.117.008 1.076-.115 1.135-.107a.687.687 0 0 1 .175.082s-.042.057-.075.574c-.034.516-.084 1.123-.175 1.377-.092.254-.1.352-.042.352s.15.107-.008.295c-.159.189-.459.066-.584.008-.125-.057-.125.033-.125.033s-.2.123-.276.189c-.075.065-.142 1.196-.066 1.213.075.016.734-.46.734-.451.175.025.408-.262.525-.418.117-.156.442-.41.542-.557.1-.148.067-.427.05-.574.009-.656.276-1.377.41-1.697.133-.32.124-.697.083-.877-.042-.18-.36-.385-.5-.442-.143-.058-.618-.082-.918-.132-.3-.049-.851-.23-.851-.23s.3-.155.484-.45c.156-.251.318-1.364.383-1.74l.077.01c.048.006.088 0 .09-.012l.016-.135c.002-.013-.035-.028-.083-.033l-.053-.007c.06-.164.203-.575.203-.575s.493-.475.801-.885c.309-.41.884-.95 1.11-1.197.097-.116.184-.21.261-.287.314.093.645.16.961.21.437.068.844.102 1.13.12.17.073.45.185.63.26l-.005.012c-.016.034-.02.065-.008.07l.126.058c.011.005.034-.018.05-.052l.006-.014h.002c.05.033.083.197.175.344.092.148.375.033.483.074.109.041.15-.04.15-.04.084.032.276-.124.384-.197.109-.074.092-.287.142-.418.083-.255-.033-.517-.108-.615"/>
</svg>
