<svg xmlns="http://www.w3.org/2000/svg" xmlns:xlink="http://www.w3.org/1999/xlink" width="200" height="40" viewBox="0 0 200 40">
    <defs>
        <path id="a" d="M0 .203h199.625v39.371H0z"/>
    </defs>
    <g fill="none" fill-rule="evenodd">
        <g transform="translate(0 .223)">
            <mask id="b" fill="#fff">
                <use xlink:href="#a"/>
            </mask>
            <path fill="#61C900" d="M160.594 16.81l-.288 1.558c-.167.943-.502 1.155-1.124 1.155h-.838l.67-3.868h.838c.622 0 .91.212.742 1.156zm4.763.59c.79-4.528-.958-5.048-4.978-5.048h-5.625l-2.705 15.333h4.859l.981-5.567 1.101 5.567h4.978l-1.435-5.897c1.484-.684 2.345-1.816 2.824-4.388zm-31.84 1.086h-1.77l1.1-6.134h-4.978l-2.705 15.333h4.979l1.1-6.37h1.772l-1.1 6.37h4.977l2.705-15.333h-4.978l-1.101 6.134zm15.466 0l.503-2.831h3.47l.599-3.303h-8.449l-2.705 15.333h4.979l1.1-6.37h3.112l.502-2.83h-3.11zm22.791-2.831h4.332l.599-3.303h-9.31l-2.705 15.333H174l.55-3.303h-4.332l.551-3.066h3.973l.503-2.83h-3.973l.502-2.831zm3.545 12.03h9.31l.55-3.303h-4.331l.55-3.066h3.973l.503-2.83H181.9l.502-2.831h4.333l.598-3.303h-9.31l-2.705 15.333zM88.724 12.352l-2.968 10.474h-.048l.479-10.474H82.38l-3.255 10.474h-.048l.766-10.474h-4.978l-.191 15.333h5.743l2.73-9.034-.408 9.034h5.745l5.217-15.333h-4.978zm9.458 9.671h-1.651l2.01-6.698h.048l-.407 6.698zm-2.656-9.67l-5.6 15.332h4.954l.813-2.83h2.322l-.12 2.83h4.955l-.192-15.333h-7.132zm24.49 11.18c-.168.944-.503 1.156-1.101 1.156-.623 0-.838-.212-.67-1.156l1.245-7.03c.167-.943.478-1.155 1.1-1.155.599 0 .838.212.67 1.156l-.31 1.77h4.666l.096-.59c.766-4.246 0-5.638-4.523-5.638-4.022 0-6.104 1.014-6.917 5.543l-.862 4.86c-.766 4.528.91 5.542 4.93 5.542 4.524 0 5.793-1.391 6.534-5.637l.168-.826h-4.667l-.36 2.005zm-5.412-11.18h-10.243l-.6 3.302h2.634l-2.106 12.03h4.978l2.106-12.03h2.633l.598-3.303zm76.079 25.228H63.335l6.53-35.384h127.348l-6.53 35.384zM7.266.203L0 39.575h192.36L199.624.203H7.265z" mask="url(#b)"/>
        </g>
        <path fill="#FFF" d="M54.912 15.403a13.887 13.887 0 0 1-1.602-.338c.272-.23.471-.319.634-.319.28 0 .201.168.823.549.08.048.164.09.249.124l-.104-.016m-6.73-4.534a.236.236 0 0 0-.215-.137 2.834 2.834 0 0 0-.097-.003c.593-.097 1.061-.069 1.057-.048-.234.03-.486.098-.744.188m-2.317 1.027c-.052.08-.073.164-.1.248l-.244.165c-.218-.046-.548-.026-.895.06-.287.072-.594.315-.72.46.454-.2.858-.388 1.072-.2-.235-.041-.487.088-.652.248a4.549 4.549 0 0 0-.368.405l-.066.017-.564.13c.103-.145.176-.286.174-.406-.008-.404-.21-.793-.396-.911-.186-.12-1.351-.761-2.305-1.087-.704-.24-1.179-.38-1.38-.437 1.559-.35 2.28-1.057 2.31-1.06.645.734 1.01 1.14 1.01 1.14.308.339.287.598.826.6.54.003.626.336 1.225.27.599-.065.887-.15.887-.15s.407.282.766.18a.953.953 0 0 0 .146-.055l.027.1-.248.147c-.196 0-.417 0-.505.136m-13.842 18.31s-1.305-.076-1.522-.197c-.218-.122-.932-.655-1.305-.564-.031 0 .078-.731.28-1.295s.512-1.081.512-1.081.854 1.188 1.01 1.706c.155.518.264.731.559.99.295.258.466.441.466.441m-9.902-12.213c.009 0 .059.498.302 1.096.007.24.03.485.068.73-.252-.441-.444-1.044-.37-1.826m-3.105 1.109c.035-1.393.938-2.181.938-2.181-.035.534.22.654.222.671-.822.67-1.142 1.508-1.16 1.51m-4.187-.278s.847-.435 1.406-.786c.559-.35 1.174-.524 1.174-.524s-1.3 1.25-2.58 1.31M33.84 8.673c-.02.045-.052.072-.066.073-.008 0-.015.004-.037-.037-.024-.048-.044-.1-.067-.152a.568.568 0 0 0 .14-.129.168.168 0 0 1 .05.093.26.26 0 0 1-.02.152m-.451-.451a.04.04 0 0 0-.004-.002l.009-.01-.005.012m-.073-1.124a.644.644 0 0 1 .003-.12.519.519 0 0 1 .052.114l-.055.006m27.432 7.831c-.14-.183-1.6-1.95-2.129-2.62-.528-.67-1.025-1.462-1.32-1.751-.295-.29-.699-.625-.73-.793-.012-.063-.128-.183-.28-.31.065-.06.104-.121.088-.138l-.178-.183c-.017-.017-.083.018-.147.078l-.036.035c-.182-.128-.362-.234-.457-.259-.233-.06-.482-.213-.482-.228-.061-.183-.496-.472-.76-.746-.265-.275-.73-.625-.855-.564-.124.061.217.335.388.548.163.204.227.643.246.67-.171-.08-.526-.533-.743-.654-.217-.122-.14.137-.015.244.124.106.341.517.341.517l-.157.03a4.344 4.344 0 0 0-.668-.122c-.614-.042-1.518.155-1.802.27-.285.116-1.407.422-1.306.435.1.012.789.03 1.357-.118.567-.147.934-.088.934-.088l-.426.183s-.553.126-1.078.173c-1.426.127-2.696.86-2.56.794.967-.316 1.876-.364 1.876-.364l-.405.19c-1.218.125-1.92.377-2.293.58-.074 0-.148-.003-.216-.01a.882.882 0 0 0-.03-.09c-.142-.357-.551-.21-.551-.21-.12-.173-.352-.164-1.041-.6-.765-.484-1.132-.296-1.102-.33-.175-.354-.055-1.204-.092-1.231.05-.16-.276-.87-.276-.87s.346-.015.293-.208a3.235 3.235 0 0 0-.038-.12.21.21 0 0 0 .144-.096c.037-.053.083-.074.137-.053.003 0 .008.003.01.005-.02.042-.025.078-.009.089l.233.153c.017.011.052-.01.087-.05.077.052.149.101.19.126.108.063.313.148.4-.01.086-.159.096-.233.204-.223.108.01.13-.158.13-.158s.204.119.223-.023c.011-.085.032-.148.057-.146.055.005.28.129.321.022.03-.074.029-.25.039-.415.082-.08.296-.292.305-.353.004-.03-.032-.068-.077-.104a.618.618 0 0 0 .066-.067c.144.045.294.07.405.035.04-.014.076-.197.1-.362.459.024.795.02.86-.037.112-.1-.762-.388-.762-.388s.073-1.35-1.462-1.758a1.38 1.38 0 0 0-.652-.11c-.925-.03-1.398.601-1.688 1.526-.071.195-.045.317.099.377-.07.124-.07.269-.07.269a.807.807 0 0 1-.043-.006.425.425 0 0 0-.12-.144c-.156-.08-.128.044-.448-.043a2.422 2.422 0 0 0-.435-.077c-.36-.162-1.245-.44-2.723-.173-.03-.03-1.25-.143-1.897.03 0 0-.644-.24-1.133.18-.49.42-1.99 1.05-2.204 1.261-.03 0-.368.12-.337.36 0 .027-.31.193-.362.335a4.653 4.653 0 0 1-.222.038 1.197 1.197 0 0 0-.04-.1c-.038-.068-.055-.121-.13-.121-.051.015-.057.057-.065.095a.682.682 0 0 0-.004.153l-.033.002c-.113 0-.251-.016-.316.095 0 .003-.02.006-.049.018a.25.25 0 0 0-.193-.04 23.961 23.961 0 0 1-1.113-2.28c-.183-.44-.33-.749-.481-1.221-.009-.028-.038-.288-.11-.278-.069.01.058.262.068.29.152.476.263.774.443 1.231.366.922.755 1.743 1.053 2.334a.229.229 0 0 0-.042.26l.069.135a1.802 1.802 0 0 0-.114.36c-.008.095.162.222.162.222s-.016.158.073.222c.07.05.197.03.29.013l.026.05a.237.237 0 0 0-.09.088c-.04.079.024.127.073.135a.484.484 0 0 0 .125-.012.245.245 0 0 0 .32.09.244.244 0 0 0 .139-.197l.06-.026c.022.049.043.101.07.155.028.062.084.1.137.09.116-.031.181-.188.158-.338a.267.267 0 0 0-.08-.147.399.399 0 0 1 .025-.028c.073-.071.372-.372.437-.515.206.033.42-.177.42-.177s.276 0 .765-.21c.49-.21 1.5-.481 1.5-.481s.3.02.673.025a8.435 8.435 0 0 0-1.705 2.153 7 7 0 0 0-.197.197c-.348.364-1.136 1.3-1.128 2.037a1.753 1.753 0 0 0 1.286 1.651c.643.18 1.912.387 2.43.403.517.016 2.434.19 2.434.19s-.23.084-.5.342c-1.086.023-2.02.116-2.63.278-.731.195-2.044.251-2.874.045-.83-.206-1.127-.251-1.142-.14-.01.077.16.51.86.792l-.356-.05c-1.895-.275-3.325-1.265-4.738-1.509-.955-.165-2.58-.03-4.077.325l.009-.031s-.055.024-.193.075c-.568.143-1.112.318-1.588.52l-.144.043c-1.5.449-2.142.534-3.426.557-1.284.024-2.05.689-2.05.689s-2.67.479-3.826.306c-1.156-.172-2.946-.004-4.001-.626-1.056-.621-1.09-.6-1.26-.618-.169-.02.863.915 1.939 1.206 1.075.29 2.007.467 2.007.467s-1.965-.07-2.457-.31c-.492-.242-1.34-.74-1.433-.73-.092.009 1.119.926 1.352 1.012.233.085.85.277.85.277s-1.28.224-1.913.747c-.101.102 2.335-.81 3.369-.386.002.018-2.43.648-2.944 1.066-.033.07.632-.04.632-.04s-.683.577-.475.49c1.041-.443 1.772-.552 1.772-.552s-1.106.659-1.208 1.405c-.014.1.575-.882 1.501-.942.002.018-.732.508-1.074 1.354-.148.388-.334 1.046-.194 1.097.057.02.23-1.007 1.533-1.382.018-.002-.18.403-.082.447.098.045.534-.403.933-.499.4-.096 2.61-1.203 2.61-1.203s-.877.676-1.195.837c-.102.084.346.092.876 0s1.406-.438 3.248-1.855c.02.017-.736.955-1.202 1.295-.15.103.802-.343.868-.38-.05.029-.834.718-.912 1.354-.011.238.273-.577.99-1.017 0 0-.462.724-.418 1.304 0 0 .263-.667.4-.773.003.018-.106 1.766 1.265 2.209.198.107-.47-.39-.554-.985.018-.001.693.55 1.52.775.249.065-1.243-.803-1.417-1.553 0 0 .612-.886 1.416-1.554 0 0 .064 1.455.362 1.972.298.518 1.103 1.403 1.334 1.47.23.067-.773-.943-.964-1.673-.191-.73.134-1.348.134-1.348s-.251 2.165 1.72 3.148c.39.16-1.392-.97-1.336-2.694-.002-.015.16 1.037.907 1.707.751 2.071 3.886 4.3 4.217 4.695.357.426.389 3.534.295 3.854-.093.32-.28.853-.264 1.34.016.488.7.914 1.32.914 1.71.06 5.236.899 5.516.99.28.091.263.427.434.518.171.092.295-.168.622-.061.326.107.17.747-.016.899-.186.152-.062.335-.062.335s.016.32.124.472c.11.153 2.082 1.036 2.19.96.11-.076-.17-1.036-.155-1.036.995-.244.373.99.218 1.203a.32.32 0 0 0 0 .396s.403.594.606.686c.202.09 2.361.09 2.392-.046.031-.137-.916-1.219-.901-1.234.047-.228-.14-.426-.357-.625-.218-.197-.637-1.157-.824-1.72-.186-.564-1.04-.96-1.304-1.097-.265-.137-2.269-1.783-2.486-2.117-.218-.335-.761-1.051-.994-1.234-.233-.183-.56-1.31-.7-1.92-.14-.609-.9-3.03-.885-3.015 2.393 1.736 3.2 1.706 4.676 2.04 1.476.336 2.796 0 3.837.092.144.013.292.021.438.026l-.004.146c-.003.087.025.159.062.16l.408.012c.037.001.07-.069.072-.156l.005-.154a15.275 15.275 0 0 0 1.256-.064c1.134 2.178 1.833 2.117 1.849 2.132.14.868 1.025 1.706 1.382 2.072.346.353.473.777.481.792-.203-.03-1.444.183-2.08.35-.638.167-1.663.213-1.896.183-.233-.03-.56-.076-.56.03 0 .107.296.274-.154.35-.451.077-.761-.624-.653-.822.109-.198-.093-.38-.093-.38l-.482-.336c-.109-.076-2.392.32-2.237.473.156.152 1.119 1.05 1.134 1.05.016.366.513.595.84.64.325.046.667.153.916.305.248.152.745.35 1.211.213.684-.228 2.362-.427 2.719-.41.357.014 1.584.258 2.439-.062.854-.32.839-1.173.823-1.493-.015-.32-.62-1.477-.854-1.95-.233-.472-.28-1.081-.264-1.081.217.015 2.004-.213 2.113-.198.108.015.326.152.326.152s-.078.107-.14 1.066c-.062.96-.156 2.087-.326 2.56-.171.472-.187.654-.078.654s.28.199-.016.549c-.295.35-.854.122-1.087.015-.233-.107-.233.061-.233.061s-.373.229-.513.35c-.14.122-.264 2.224-.124 2.255.14.03 1.367-.853 1.367-.838.327.045.761-.487.979-.777.217-.289.823-.761 1.01-1.036.186-.274.124-.792.093-1.066.015-1.219.512-2.559.76-3.153a2.979 2.979 0 0 0 .156-1.63c-.077-.335-.668-.716-.932-.822-.264-.107-1.15-.153-1.709-.244-.559-.092-1.584-.427-1.584-.427s.56-.289.9-.837c.292-.467.594-2.535.716-3.233l.143.018c.089.01.163 0 .165-.022l.033-.252c.002-.023-.067-.05-.155-.061l-.1-.013c.112-.304.38-1.068.38-1.068s.916-.883 1.49-1.645c.576-.761 1.648-1.767 2.067-2.224.182-.215.343-.39.487-.533a14.61 14.61 0 0 0 1.79.39c.813.127 1.57.19 2.103.221.316.137.838.346 1.175.485l-.01.022c-.03.063-.036.121-.015.13l.235.108c.021.01.062-.034.092-.096l.012-.027h.003c.093.062.155.366.326.64.171.275.7.062.902.138.201.076.279-.076.279-.076.155.06.513-.229.714-.366.203-.137.171-.533.264-.777.156-.472-.061-.96-.201-1.142"/>
    </g>
</svg>
