<svg xmlns="http://www.w3.org/2000/svg" xmlns:xlink="http://www.w3.org/1999/xlink" width="22" height="22"><defs><path id="A" d="M0 1.232h11.53v11.184h6.01V19H0z"/></defs><g fill="none" fill-rule="evenodd"><g transform="translate(1.5 1.5)"><mask id="B" fill="#fff"><use xlink:href="#A"/></mask><g mask="url(#B)" fill="#2b2b2b"><path d="M3.433 15.508h2.922l1.26 2.144c-1.588-.248-3.055-1-4.183-2.144zm-1.04-6.734l-1.12 1.902c-.063-1.034.1-2.07.45-3.04l.67 1.14zm4.264-5.748l1.47 2.5-1.773 3.012H2.802L1.95 7.09c.91-1.968 2.626-3.45 4.706-4.065zM12.1 5.288H8.537L7.134 2.903a7.51 7.51 0 0 1 1.635-.182c1.46-.001 2.89.426 4.108 1.23L12.1 5.288zm3.994 3.25H14.27l-1.773-3.012.767-1.304c1.394 1.046 2.412 2.565 2.818 4.317zM8.537 5.762H12.1l1.772 3.013-1.772 3.012H8.537L6.764 8.775l1.773-3.013zm-5.533 9.274c-.857-1.025-1.424-2.26-1.642-3.578L2.802 9h3.553l1.773 3.012-1.773 3.014H3.003zM8.77 17.74c-.19 0-.38-.01-.566-.024l-1.44-2.445 1.773-3.012H12.1l1.772 3.012-.548.932a7.47 7.47 0 0 1-4.545 1.538zm7.5-7.5c0 1.826-.656 3.5-1.743 4.805h-.263L12.5 12.023l1.773-3.012h1.906a7.47 7.47 0 0 1 .101 1.221zm-.506 5.277l.024-.03a8.73 8.73 0 0 0 1.742-5.246 8.73 8.73 0 0 0-1.742-5.247c-.532-.7-1.168-1.336-1.887-1.856-1.494-1.085-3.294-1.67-5.14-1.666a8.74 8.74 0 0 0-6.201 2.569 8.75 8.75 0 0 0-1.299 1.653A8.73 8.73 0 0 0 0 10.231a8.75 8.75 0 0 0 .865 3.801 8.73 8.73 0 0 0 .877 1.445c.253.338.53.657.827.954A8.74 8.74 0 0 0 8.769 19c.706 0 1.392-.086 2.05-.243.694-.167 1.355-.415 1.973-.735 1.17-.605 2.187-1.464 2.98-2.515z"/></g></g><path d="M17.575 9.49c0-.348-.09-.6-.267-.788s-.5-.362-.97-.554c-.855-.324-1.47-.704-1.846-1.14a2.29 2.29 0 0 1-.562-1.544c0-.72.255-1.296.765-1.73s1.157-.653 1.942-.653c.523 0 1 .1 1.4.33s.726.532.946.935.33.86.33 1.37h-1.717c0-.398-.085-.702-.255-.91s-.415-.313-.735-.313c-.3 0-.535.09-.703.267s-.252.417-.252.718c0 .234.094.446.28.636s.52.386.996.59c.832.3 1.437.67 1.813 1.107s.565.994.565 1.67c0 .742-.236 1.322-.71 1.74s-1.115.627-1.928.627a3.32 3.32 0 0 1-1.506-.34 2.55 2.55 0 0 1-1.063-.973c-.256-.422-.384-.92-.384-1.494h1.73c0 .492.096.85.287 1.072s.504.334.938.334c.602 0 .902-.318.902-.955z" fill-opacity=".86" fill="#000" fill-rule="nonzero"/></g></svg>