<svg viewBox="0 10 72 38" version="1.1" xmlns="http://www.w3.org/2000/svg" xmlns:xlink="http://www.w3.org/1999/xlink">
  <g id="Animation-Elements" stroke="none" stroke-width="1" fill="none" fill-rule="evenodd">
    <g fill="#FFFFFF">
      <g>
        <path d="M62.1094243,23.8768463 C64.0096895,27.8568911 65.0769231,32.3347641 65.0769231,37.0693069 L72,37.0693069 C72,16.596494 55.882251,0 36,0 C16.117749,0 0,16.596494 0,37.0693069 L6.92307692,37.0693069 C6.92307692,32.3347641 7.99031054,27.8568911 9.89057566,23.8768463 L13.947737,26.2192495 C14.7149621,26.6622071 15.7027064,26.4007901 16.1469529,25.6313326 L16.3843479,25.2201525 C16.8239867,24.4586757 16.5642378,23.4663772 15.7938909,23.0216173 L11.6826794,20.6480082 C13.8584929,17.2386441 16.6923362,14.3142801 19.9982047,12.0664457 L22.1053949,15.7162062 C22.5483525,16.4834313 23.5344726,16.7509097 24.3039302,16.3066632 L24.7151102,16.0692682 C25.4765871,15.6296294 25.7477871,14.6403992 25.3030271,13.8700524 L23.1780307,10.1894505 C26.6556747,8.42723181 30.5250217,7.35951633 34.6153846,7.16206128 L34.6153846,11.9339361 C34.6153846,12.8198513 35.3356505,13.5445545 36.2241435,13.5445545 L36.6989334,13.5445545 C37.5782111,13.5445545 38.3076923,12.8234561 38.3076923,11.9339361 L38.3076923,7.22162872 C42.2655264,7.5416198 46.0006366,8.6776149 49.3544311,10.4663117 L47.3892806,13.8700524 C46.9445206,14.6403992 47.2157206,15.6296294 47.9771975,16.0692682 L48.3883775,16.3066632 C49.1578351,16.7509097 50.1439552,16.4834313 50.5869128,15.7162062 L52.495819,12.4098837 C55.5903813,14.6089588 58.2506777,17.4097077 60.3173206,20.6480082 L56.2061091,23.0216173 C55.4357622,23.4663772 55.1760133,24.4586757 55.6156521,25.2201525 L55.8530471,25.6313326 C56.2972936,26.4007901 57.2850379,26.6622071 58.052263,26.2192495 L62.1094243,23.8768463 Z"></path>
      </g>
    </g>
  </g>
</svg>