<svg id="Layer_1" data-name="Layer 1" xmlns="http://www.w3.org/2000/svg" viewBox="0 0 15 10"><defs><style>.cls-2{fill:#ffe15a}</style></defs><path d="M14.74 10H.26A.26.26 0 0 1 0 9.74V.26A.26.26 0 0 1 .26 0h14.48a.26.26 0 0 1 .26.26v9.48a.26.26 0 0 1-.26.26z" fill="#41479b"/><path class="cls-2" d="M7.61 1.15l.1.31H8v.09l-.26.19.1.32s0 .08-.07 0l-.27-.19-.26.19h-.07l.1-.32L7 1.55a.05.05 0 0 1 0-.09h.33l.1-.31s.16-.05.18 0zM7.61 7.94l.1.31H8v.08l-.26.2.1.31c0 .05 0 .08-.07.05L7.5 8.7l-.2.2s-.08 0-.07-.05l.1-.31-.27-.2v-.08h.33l.1-.31s.1-.05.12-.01zM10.94 4.54l.11.32h.32v.08l-.26.2.1.32h-.07l-.27-.2-.27.2h-.06l.1-.32-.27-.2v-.08h.33l.1-.32h.14zM4.27 4.54l.1.32h.33v.08l-.26.2.1.32h-.07l-.26-.2-.21.25h-.07L4 5.14l-.26-.2v-.08h.33l.1-.32h.1zM4.77 2.77l.1.31h.33v.08l-.2.21.1.31s0 .08-.07 0l-.26-.19-.27.19h-.07l.1-.31-.26-.2v-.08h.33l.1-.31.07-.01zM10.55 6.16l.1.32H11s.06.06 0 .08l-.27.2.1.32h-.07l-.26-.19-.27.19h-.07l.1-.32-.26-.2v-.08h.33l.11-.32h.11zM9.33 1.52l.1.32h.33s.06.06 0 .08l-.27.2.1.32-.07.05-.23-.19-.29.19v-.05l.1-.32-.26-.2v-.08h.33l.1-.32h.06zM6 7.41l.1.31h.33v.08l-.25.2.1.31h-.07L6 8.18l-.27.19h-.07L5.71 8l-.26-.2v-.08h.35l.11-.31H6zM10.47 2.77l-.11.31H10v.08l.26.2-.1.31s0 .08.07 0l.27-.19.26.19h.07l-.1-.31.27-.2v-.08h-.33l-.1-.31h-.1zM4.68 6.16l-.1.32h-.33v.08l.26.2-.1.32s0 .08.07 0l.27-.19.25.24h.07L5 6.76l.27-.2v-.08h-.4l-.1-.32h-.09zM5.91 1.52l-.11.32h-.33v.08l.26.2-.1.32s0 .08.07.05L6 2.3l.26.19.07-.05-.1-.32.27-.2v-.08h-.41L6 1.52h-.09zM9.24 7.41l-.1.31h-.33v.08l.26.2-.07.32h.07l.27-.19.26.19h.07L9.52 8l.27-.2v-.08h-.36l-.1-.31h-.09z"/></svg>