<svg id="Layer_1" data-name="Layer 1" xmlns="http://www.w3.org/2000/svg" viewBox="0 0 15 10"><defs><style>.cls-1{fill:#f5f5f5}</style></defs><path class="cls-1" d="M14.74 10H.26A.26.26 0 0 1 0 9.74V.26A.26.26 0 0 1 .26 0h14.48a.26.26 0 0 1 .26.26v9.48a.26.26 0 0 1-.26.26z"/><path d="M7.5 8.65A3.65 3.65 0 1 1 11.09 5 3.63 3.63 0 0 1 7.5 8.65z" fill="#82afff"/><path class="cls-1" d="M9.43 3h1.05l-.19-.27h-1a3.19 3.19 0 0 0-.82-1.2 3.48 3.48 0 0 0-2 0 3.19 3.19 0 0 0-.82 1.2h-1L4.52 3h1.05a6.17 6.17 0 0 0-.33 1.89H3.91v.28h1.33A6.17 6.17 0 0 0 5.57 7H4.52l.19.27h1a3.19 3.19 0 0 0 .82 1.2 3.48 3.48 0 0 0 2 0 3.19 3.19 0 0 0 .82-1.2h1l.13-.27H9.43a6.17 6.17 0 0 0 .33-1.89h1.33v-.25H9.76A6.17 6.17 0 0 0 9.43 3zM7.37 8.64A2 2 0 0 1 6 7.3h1.37v1.34zm0-1.64H5.84a5.84 5.84 0 0 1-.33-1.89h1.86V7zm0-2.17H5.51A5.84 5.84 0 0 1 5.84 3h1.53v1.86zm0-2.16H6a2 2 0 0 1 1.37-1.31V2.7zm.26-1.34A2 2 0 0 1 9.05 2.7H7.63V1.36zm0 7.28V7.3h1.42a2 2 0 0 1-1.42 1.34zM9.16 7H7.63V5.14h1.86A5.84 5.84 0 0 1 9.16 7zM7.63 4.86V3h1.53a5.84 5.84 0 0 1 .33 1.89z"/></svg>