<svg data-name="Layer 1" xmlns="http://www.w3.org/2000/svg" viewBox="0 0 25 25"><path d="M18.31 4.73h-7.73a.48.48 0 0 0 0 1h7.73a.48.48 0 0 0 0-1zm-1 4.81h-6.73a.48.48 0 0 0 0 1h6.73a.48.48 0 0 0 0-1zM6.57 6.73a.24.24 0 0 0 .15.05.24.24 0 0 0 .19-.09L9 4.3a.27.27 0 0 0 0-.38l-.18-.21a.25.25 0 0 0-.29 0l-1.75 2-.66-.8L6 4.83a.25.25 0 0 0-.34 0l-.19.21a.28.28 0 0 0 0 .35zm2.27 1.79a.25.25 0 0 0-.29 0l-1.75 2-.66-.8L6 9.64a.24.24 0 0 0-.34 0l-.19.21a.28.28 0 0 0 0 .35l1.07 1.28a.25.25 0 0 0 .34 0L9 9.11a.27.27 0 0 0 0-.38zm0 4.81a.24.24 0 0 0-.29 0l-1.75 2-.66-.8-.14-.08a.24.24 0 0 0-.34 0l-.19.21a.28.28 0 0 0 0 .35l1.08 1.29a.25.25 0 0 0 .15.05.24.24 0 0 0 .19-.09L9 13.92a.28.28 0 0 0 0-.38zm14.65 3.13A5 5 0 1 0 25 20a5 5 0 0 0-1.51-3.54zM20 24.19A4.19 4.19 0 1 1 24.15 20 4.2 4.2 0 0 1 20 24.19z"/><path d="M21.62 21.09l-1.26-1.26v-2.59a.4.4 0 0 0-.81 0V20a.4.4 0 0 0 .12.29l1.38 1.38a.4.4 0 1 0 .57-.57zM14.17 23l-1.64 1-1.66-1.25a.48.48 0 0 0-.54 0L8.2 23.94l-1.66-1.25a.48.48 0 0 0-.54 0l-1.68 1V1h16.35v12.54a6.48 6.48 0 0 1 1 .18V.48a.48.48 0 0 0-.52-.48H3.85a.48.48 0 0 0-.48.48v24a.48.48 0 0 0 .73.41l2.13-1.28 1.65 1.29a.48.48 0 0 0 .54 0l2.13-1.28 1.66 1.25a.48.48 0 0 0 .54 0l1.92-1.15a6.46 6.46 0 0 1-.5-.72z"/><path d="M16.75 14.35h-6.17a.48.48 0 0 0 0 1h4.88a6.52 6.52 0 0 1 1.29-1z"/></svg>