<svg xmlns="http://www.w3.org/2000/svg" viewBox="0 0 273.19 272.92"><style>.st1{fill:#fff}</style><g clip-path="url(#SVGID_223_)"><circle fill="#F81A2C" cx="136.72" cy="136.47" r="100"/><path fill="#fff" d="M35 140a65 65 0 0 0 200 0"/><path class="st1" d="M96.02 92.53c0-13.45 8.43-25.04 20.61-30.36-2.41-.5-4.87-.8-7.43-.8-18.28 0-33.13 13.95-33.13 31.16 0 17.23 14.85 31.18 33.13 31.18 2.57 0 5.03-.3 7.43-.8-12.18-5.36-20.61-16.93-20.61-30.38zm36.08-25.2l1.9 5.59h6.24l-5.04 3.43 1.93 5.59-5.03-3.46-5.06 3.46 1.91-5.59-5.03-3.43h6.26zm18.41 12.96l1.91 5.57h6.24l-5.04 3.46 1.94 5.59-5.05-3.46-5.05 3.46 1.94-5.59-5.06-3.46h6.24z"/><path class="st1" d="M113.34 80.29l1.95 5.57h6.23l-5.05 3.46 1.93 5.59-5.06-3.46-5.04 3.46 1.92-5.59-5.05-3.46h6.24zm30.1 20.65l1.94 5.59h6.24l-5.05 3.43 1.94 5.59-5.07-3.46-5.01 3.46 1.93-5.59-5.05-3.43h6.21zm-22.91 0l1.94 5.59h6.24l-5.02 3.43 1.91 5.59-5.07-3.46-5.02 3.46 1.94-5.59-5.05-3.43h6.23z"/></g><path class="st1" d="M136.72 13.65c32.81 0 63.65 12.78 86.85 35.97 23.2 23.2 35.97 54.04 35.97 86.85 0 32.81-12.78 63.65-35.97 86.85-23.2 23.2-54.04 35.97-86.85 35.97s-63.65-12.78-86.85-35.97c-23.2-23.2-35.97-54.04-35.97-86.85s12.78-63.65 35.97-86.85c23.19-23.2 54.04-35.97 86.85-35.97m0-13.65C61.34 0 .24 61.1.24 136.47s61.1 136.47 136.47 136.47 136.47-61.1 136.47-136.47C273.19 61.1 212.09 0 136.72 0z"/></svg>