<svg xmlns="http://www.w3.org/2000/svg" viewBox="0 0 32 32"><path d="M16,31.34A15.34,15.34,0,1,1,31.34,16,15.36,15.36,0,0,1,16,31.34Z" fill="#ed1c24"/><path d="M16,23.63A7.63,7.63,0,1,1,23.63,16,7.64,7.64,0,0,1,16,23.63Z" fill="#ffca06"/><path d="M16 0a16 16 0 1 0 16 16A16 16 0 0 0 16 0zm0 1.46a14.31 14.31 0 0 1 5.37 1A6.85 6.85 0 0 1 16 5.09a6.85 6.85 0 0 1-5.37-2.59A14.31 14.31 0 0 1 16 1.46zM2.5 21.37a14.38 14.38 0 0 1 0-10.74 6.85 6.85 0 0 1 0 10.74zm0 0a14.38 14.38 0 0 1 0-10.74 6.85 6.85 0 0 1 0 10.74zM16 30.54a14.31 14.31 0 0 1-5.37-1 6.86 6.86 0 0 1 10.74 0 14.31 14.31 0 0 1-5.37 1zm6.72-1.66a8.3 8.3 0 0 0-13.44 0 14.53 14.53 0 0 1-6.16-6.16 8.3 8.3 0 0 0 0-13.44 14.53 14.53 0 0 1 6.16-6.16 8.3 8.3 0 0 0 13.44 0 14.53 14.53 0 0 1 6.16 6.16 8.3 8.3 0 0 0 0 13.44 14.53 14.53 0 0 1-6.16 6.16zM26.9 16a6.85 6.85 0 0 1 2.59-5.37 14.38 14.38 0 0 1 0 10.74A6.84 6.84 0 0 1 26.91 16zM16 7.66A8.34 8.34 0 1 0 24.34 16 8.35 8.35 0 0 0 16 7.66zm0 15.22A6.88 6.88 0 1 1 22.88 16 6.89 6.89 0 0 1 16 22.88z" fill="#fff"/><path d="M2.5 21.37a14.38 14.38 0 0 1 0-10.74 6.85 6.85 0 0 1 0 10.74zM26.9 16a6.85 6.85 0 0 1 2.59-5.37 14.38 14.38 0 0 1 0 10.74A6.85 6.85 0 0 1 26.91 16zm-5.53 13.5a14.38 14.38 0 0 1-10.74 0 6.86 6.86 0 0 1 10.74 0zM16 5.1a6.85 6.85 0 0 1-5.37-2.59 14.38 14.38 0 0 1 10.74 0A6.85 6.85 0 0 1 16 5.09z" fill="#ffca06"/><text transform="translate(13.66 19.97)" fill="#ed1c24" font-size="12" font-family="Tungsten-Bold,Tungsten" font-weight="700">6</text></svg>