<svg xmlns="http://www.w3.org/2000/svg" viewBox="0 0 32 32"><path d="M4.14 24.4c2.64 3.7 6.96 6.14 11.86 6.14s9.22-2.44 11.86-6.15H4.14zM16 1.46c-4.98 0-9.38 2.52-12 6.35h24c-2.62-3.83-7.02-6.35-12-6.35z" fill="#ed2224"/><path d="M30.54 16A14.42 14.42 0 0 0 28 7.81H4A14.42 14.42 0 0 0 1.46 16c0 3.13 1 6.02 2.7 8.4h23.7c1.68-2.37 2.68-5.26 2.68-8.4z" fill="#fdc20f"/><path d="M16 0C7.18 0 0 7.18 0 16s7.18 16 16 16 16-7.18 16-16S24.82 0 16 0zm0 30.54c-4.9 0-9.22-2.44-11.86-6.15-1.68-2.37-2.68-5.26-2.68-8.4A14.42 14.42 0 0 1 4 7.81c2.62-3.83 7.02-6.35 12-6.35s9.38 2.52 12 6.35c1.6 2.34 2.54 5.16 2.54 8.2 0 3.13-1 6.02-2.68 8.4-2.64 3.72-6.97 6.15-11.86 6.15z" fill="#fff"/></svg>