<svg xmlns="http://www.w3.org/2000/svg" viewBox="0 0 80 80"><path d="M40 0C17.9 0 0 17.9 0 40s17.9 40 40 40 40-17.9 40-40S62.1 0 40 0zm25.3 65.3c-3.3 3.3-7.1 5.9-11.4 7.7-4.4 1.9-9.1 2.8-13.9 2.8s-9.5-.9-13.9-2.8c-4.3-1.8-8.1-4.4-11.4-7.7C11.4 62 8.8 58.2 7 53.9 5.1 49.5 4.2 44.8 4.2 40c0-4.8.9-9.5 2.8-13.9 1.8-4.3 4.4-8.1 7.7-11.4C18 11.4 21.8 8.8 26.1 7c4.4-1.9 9.1-2.8 13.9-2.8s9.5.9 13.9 2.8c4.3 1.8 8.1 4.4 11.4 7.7 3.3 3.3 5.9 7.1 7.7 11.4 1.9 4.4 2.8 9.1 2.8 13.9 0 4.8-.9 9.5-2.8 13.9-1.8 4.3-4.4 8.1-7.7 11.4z"/><path d="M40 24.2L29.6 36.3 16 28.1l6.1 19.7v8h35.7v-8L64 28.1l-13.5 8.2L40 24.2zm20.3 8.6L55.7 48v5.8H24.2V48l-4.6-15.2 8.9 5.4 1.5.9 1.2-1.4L40 27.4l8.9 10.2L50 39l1.5-.9 8.8-5.3z"/></svg>