<svg xmlns="http://www.w3.org/2000/svg" viewBox="0 0 340 68"><path d="M12.4 0L0 68h327.6L340 0H12.4zm312.4 64.6H107.9L119 3.4h216.9l-11.1 61.2zM195.2 21h-17.4l-1 5.7h4.5l-3.6 20.8h8.5l3.6-20.8h4.5l.9-5.7zm9.2 19.3c-.3 1.6-.9 2-1.9 2-1.1 0-1.4-.4-1.1-2l2.1-12.1c.3-1.6.8-2 1.9-2 1 0 1.4.4 1.1 2l-.5 3.1h7.9l.2-1c1.3-7.3 0-9.7-7.7-9.7-6.8 0-10.4 1.8-11.8 9.6l-1.5 8.4c-1.3 7.8 1.5 9.6 8.4 9.6 7.7 0 9.9-2.4 11.1-9.7l.3-1.4H205l-.6 3.2zM162.7 21l-9.5 26.5h8.4l1.4-4.9h4l-.2 4.9h8.4l-.4-26.5h-12.1zm4.5 16.7h-2.8l3.4-11.6h.1l-.7 11.6zM151.1 21L146 39.1l.8-18.1h-6.5l-5.5 18.1h-.1L136 21h-8.5l-.3 26.5h9.8l4.6-15.6-.7 15.6h9.8l8.9-26.5h-8.5zm147.5 26.5h15.9l.9-5.7H308l.9-5.3h6.8l.9-4.9h-6.8l.9-4.9h7.4l1-5.7h-15.9l-4.6 26.5zm-6-20.8h7.4l1-5.7h-15.9l-4.6 26.5h15.9l.9-5.7h-7.4l.9-5.3h6.8l.9-4.9h-6.8l.9-4.9zm-38.9 4.9l.9-4.9h5.9l1-5.7h-14.4l-4.6 26.5h8.5l1.9-11h5.3l.9-4.9h-5.4zm-26.3 0h-3l1.9-10.6h-8.5l-4.6 26.5h8.5l1.9-11h3l-1.9 11h8.5l4.6-26.5h-8.5l-1.9 10.6zm54.2-1.9c1.3-7.8-1.6-8.7-8.5-8.7h-9.6L259 47.5h8.3l1.7-9.6 1.9 9.6h8.5L277 37.3c2.4-1.2 3.8-3.2 4.6-7.6zm-8.1-1l-.5 2.7c-.3 1.6-.9 2-1.9 2h-1.4l1.1-6.7h1.4c1.1 0 1.6.4 1.3 2z" fill="#61c900"/><path d="M103.5 25c-.2-.3-2.7-3.4-3.6-4.5-.9-1.2-1.7-2.5-2.2-3-.5-.5-1.2-1.1-1.2-1.4 0-.1-.2-.3-.5-.5.1-.1.2-.2.1-.2l-.4-.4s-.1 0-.2.1l-.1.1c-.3-.2-.6-.4-.8-.4-.4-.1-.8-.4-.8-.4-.1-.3-.8-.8-1.3-1.3-.4-.5-1.2-1.1-1.5-1-.2.1.4.6.7.9.3.4.4 1.1.4 1.2-.3-.1-.9-.9-1.3-1.1-.4-.2-.2.2 0 .4s.6.9.6.9c-.1 0-.2 0-.3.1-.5-.1-.9-.2-1.1-.2-1-.1-2.6.3-3.1.5s-2.4.7-2.2.8c.2 0 1.3.1 2.3-.2s1.6-.2 1.6-.2l-.7.3s-.9.2-1.8.3c-2.4.2-4.6 1.5-4.4 1.4 1.6-.5 3.2-.6 3.2-.6l-.7.3c-2.1.2-3.3.6-3.9 1h-.4c0-.1 0-.1-.1-.2-.2-.6-.9-.4-.9-.4-.2-.3-.6-.3-1.8-1-1.3-.8-1.9-.5-1.9-.6-.3-.6-.1-2.1-.2-2.1.1-.3-.5-1.5-.5-1.5s.6 0 .5-.4c0-.1 0-.1-.1-.2.1 0 .2-.1.2-.2.1-.1.1-.1.2-.1v.2l.4.3s.1 0 .1-.1c.1.1.3.2.3.2.2.1.5.3.7 0 .1-.3.2-.4.3-.4.2 0 .2-.3.2-.3s.3.2.4 0c0-.1.1-.3.1-.3.1 0 .5.2.5 0 0-.1 0-.4.1-.7.1-.1.5-.5.5-.6 0-.1-.1-.1-.1-.2l.1-.1c.2.1.5.1.7.1.1 0 .1-.3.2-.6.8 0 1.4 0 1.5-.1.2-.2-1.3-.7-1.3-.7s.1-2.3-2.5-3c-.4-.2-.7-.2-1.1-.2-1.6-.1-2.4 1-2.9 2.6.2.4.3.6.5.7-.1.2-.1.5-.1.5h-.1c-.1-.1-.2-.2-.2-.3-.3-.1-.2.1-.8-.1-.2-.1-.4-.1-.7-.1-.6-.3-2.1-.8-4.6-.3-.1-.1-2.1-.2-3.2.1 0 0-1.1-.4-1.9.3-.8.7-3.4 1.8-3.8 2.2-.1 0-.6.2-.6.6 0 0-.5.3-.6.6-.1 0-.3 0-.4.1 0-.1 0-.1-.1-.2s-.1-.2-.2-.2-.1.1-.1.2v.3h-.1c-.2 0-.4 0-.5.2h-.1c-.1-.1-.2-.1-.3-.1-.5-1-1.3-2.4-1.9-3.9-.3-.8-.6-1.3-.8-2.1 0 0-.1-.5-.2-.5s.1.5.1.5c.3.8.4 1.3.8 2.1.6 1.6 1.3 3 1.8 4-.1.1-.1.3-.1.4l.1.2c-.1.2-.2.5-.2.6 0 .2.3.4.3.4s0 .3.1.4c.1.1.3.1.5 0v.1c-.1 0-.1.1-.2.2s0 .2.1.2h.2c.1.2.3.3.5.2.1-.1.2-.2.2-.3h.1c0 .1.1.2.1.3 0 .1.1.2.2.2.2-.1.3-.3.3-.6 0-.1-.1-.2-.1-.3.1-.1.6-.6.7-.9.4.1.7-.3.7-.3s.5 0 1.3-.4 2.6-.8 2.6-.8h1.1c-1.5 1.4-2.5 3-2.9 3.7l-.3.3c-.3.5-1.7 2.1-1.7 3.4 0 1.3.9 2.5 2.2 2.9 1.1.3 3.3.7 4.1.7s4.1.3 4.1.3-.4.1-.9.6c-1.9 0-3.4.2-4.5.5-1.2.3-3.5.4-4.9.1-1.4-.4-1.9-.4-1.9-.2 0 .1.3.9 1.5 1.4-.2 0-.4-.1-.6-.1-3.2-.5-5.7-2.2-8.1-2.6-1.6-.3-4.4-.1-6.9.6V23s-.1 0-.3.1c-1 .2-1.9.5-2.7.9-.1 0-.2 0-.2.1-2.6.8-3.6.9-5.8 1-2.2 0-3.5 1.2-3.5 1.2s-4.5.8-6.5.5c-2-.3-5 0-6.8-1.1-1.8-1.1-1.9-1-2.1-1.1-.3 0 1.5 1.6 3.3 2.1 1.8.5 3.4.8 3.4.8s-3.3-.1-4.2-.5c-.8-.4-2.3-1.3-2.4-1.3-.2 0 1.9 1.6 2.3 1.7.4.1 1.4.5 1.4.5s-2.2.4-3.3 1.3c-.2.2 4-1.4 5.7-.7 0 0-4.1 1.1-5 1.8-.1.1 1.1-.1 1.1-.1s-1.2 1-.8.8c1.8-.8 3-1 3-1s-1.9 1.1-2.1 2.4c0 .2 1-1.5 2.6-1.6 0 0-1.2.9-1.8 2.3-.3.7-.6 1.8-.3 1.9.1 0 .4-1.7 2.6-2.4 0 0-.3.7-.1.8.2.1.9-.7 1.6-.9.7-.2 4.4-2.1 4.4-2.1s-1.5 1.2-2 1.4c-.2.1.6.2 1.5 0s2.4-.8 5.5-3.2c0 0-1.3 1.6-2 2.2-.3.2 1.4-.6 1.5-.7-.1.1-1.4 1.2-1.6 2.3 0 .4.5-1 1.7-1.8 0 0-.8 1.3-.7 2.3 0 0 .4-1.2.7-1.3 0 0-.2 3 2.2 3.8.3.2-.8-.7-.9-1.7 0 0 1.2.9 2.6 1.3.4.1-2.1-1.4-2.4-2.7 0 0 1-1.5 2.4-2.7 0 0 .1 2.5.6 3.4.5.9 1.9 2.4 2.3 2.5.4.1-1.3-1.6-1.6-2.9-.3-1.3.2-2.3.2-2.3s-.4 3.7 2.9 5.4c.7.3-2.4-1.7-2.3-4.7 0 0 .3 1.8 1.5 2.9 1.3 3.6 6.6 7.4 7.2 8.1.6.7.7 6.1.5 6.7-.2.6-.5 1.5-.4 2.3 0 .8 1.2 1.6 2.2 1.6 2.9.1 8.9 1.6 9.4 1.7.5.2.4.7.7.9.3.2.5-.3 1.1-.1.6.2.3 1.3 0 1.6-.3.3-.1.6-.1.6s0 .6.2.8c.2.3 3.5 1.8 3.7 1.7.2-.1-.3-1.8-.3-1.8 1.7-.4.6 1.7.4 2.1-.3.4 0 .7 0 .7s.7 1 1 1.2c.3.2 4 .2 4.1-.1.1-.2-1.6-2.1-1.5-2.1.1-.4-.2-.7-.6-1.1-.4-.3-1.1-2-1.4-3-.3-1-1.8-1.7-2.2-1.9-.5-.2-3.9-3.1-4.2-3.7-.4-.6-1.3-1.8-1.7-2.1-.4-.3-1-2.3-1.2-3.3-.2-1.1-1.5-5.2-1.5-5.2 4.1 3 5.5 2.9 8 3.5 2.5.6 4.8 0 6.5.2h.7v.3c0 .2 0 .3.1.3h.7c.1 0 .1-.1.1-.3v-.3c1.2 0 2.1-.1 2.1-.1 1.9 3.8 3.1 3.7 3.1 3.7.2 1.5 1.7 2.9 2.4 3.6.6.6.8 1.3.8 1.4-.3-.1-2.5.3-3.5.6-1.1.3-2.8.4-3.2.3-.4-.1-1-.1-1 .1s.5.5-.3.6c-.8.1-1.3-1.1-1.1-1.4.2-.3-.2-.7-.2-.7s-.6-.4-.8-.6c-.2-.1-4.1.6-3.8.8.3.3 1.9 1.8 1.9 1.8 0 .6.9 1 1.4 1.1.6.1 1.1.3 1.6.5.4.3 1.3.6 2.1.4 1.2-.4 4-.7 4.6-.7.6 0 2.7.4 4.2-.1 1.5-.6 1.4-2 1.4-2.6 0-.6-1.1-2.6-1.5-3.4-.4-.8-.5-1.9-.4-1.9.4 0 3.4-.4 3.6-.3.2 0 .6.3.6.3s-.1.2-.2 1.8c-.1 1.7-.3 3.6-.6 4.4-.3.8-.3 1.1-.1 1.1.2 0 .5.3 0 .9-.5.6-1.5.2-1.9 0-.4-.2-.4.1-.4.1l-.9.6c-.2.2-.4 3.8-.2 3.9.2.1 2.3-1.5 2.3-1.4.6.1 1.3-.8 1.7-1.3.4-.5 1.4-1.3 1.7-1.8.3-.5.2-1.4.2-1.8 0-2.1.9-4.4 1.3-5.4s.4-2.2.3-2.8c-.4-.2-1.4-.9-1.8-1-.4-.2-2-.3-2.9-.4-1-.2-2.7-.7-2.7-.7s1-.5 1.5-1.4c.5-.8 1-4.4 1.2-5.6h.5l.1-.4s-.1-.1-.3-.1h-.2c.2-.5.6-1.8.6-1.8s1.6-1.5 2.5-2.8c1-1.3 2.8-3.1 3.5-3.8.3-.4.6-.7.8-.9 1 .3 2 .5 3 .7 1.4.2 2.7.3 3.6.4.5.2 1.4.6 2 .8-.1.1-.1.2 0 .2l.4.2.2-.2c.2.1.3.6.6 1.1.3.5 1.2.1 1.5.2.3.1.5-.1.5-.1.3.1.9-.4 1.2-.6.3-.2.3-.9.4-1.3.5-1.2.1-2-.1-2.4zM56.7 11.5v-.2.1c.1 0 .1.1 0 .1.1 0 .1 0 0 0zm.2 2s0-.1 0 0c0-.1 0 0 0 0zm.7.7c0 .1-.1.1-.1.1l-.1-.1c0-.1-.1-.2-.1-.3.1-.1.2-.1.2-.2 0 0 .1.1.1.2.1.2.1.3 0 .3zM25.3 31.8s1.4-.8 2.4-1.4c1-.6 2-.9 2-.9s-2.3 2.2-4.4 2.3zm7.1.5c.1-2.4 1.6-3.8 1.6-3.8-.1.9.4 1.1.4 1.2-1.4 1.1-2 2.6-2 2.6zm5.3-2s.1.9.5 1.9c0 .4.1.8.1 1.3-.4-.8-.7-1.8-.6-3.2zm16.8 21.1s-2.2-.1-2.6-.3c-.4-.2-1.6-1.1-2.2-1-.1 0 .1-1.3.5-2.2.3-1 .9-1.9.9-1.9s1.5 2.1 1.7 2.9c.3.9.4 1.3 1 1.7.5.5.7.8.7.8zm23.6-31.6c-.1.1-.1.3-.2.4-.1.1-.3.2-.4.3-.4-.1-.9 0-1.5.1-.5.1-1 .5-1.2.8.8-.3 1.5-.7 1.8-.3-.4-.1-.8.2-1.1.4-.2.2-.4.5-.6.7h-.1c-.3.1-.6.1-1 .2.2-.3.3-.5.3-.7 0-.7-.4-1.4-.7-1.6-.3-.2-2.3-1.3-3.9-1.9-1.2-.4-2-.7-2.3-.8 2.7-.6 3.9-1.8 3.9-1.8 1.1 1.3 1.7 2 1.7 2 .5.6.5 1 1.4 1 .9 0 1.1.6 2.1.5 1-.1 1.5-.3 1.5-.3s.7.5 1.3.3c.1 0 .2-.1.2-.1v.2c-.1.1-.3.2-.4.3-.3.1-.6.1-.8.3zm4-1.8c-.1-.1-.2-.2-.4-.2h-.2c1-.2 1.8-.1 1.8-.1l-1.2.3zm11.4 7.9c-.9-.1-1.8-.3-2.7-.6.5-.4.8-.6 1.1-.6.5 0 .3.3 1.4.9.1.1.3.2.4.2-.1.1-.1.1-.2.1z" fill="#fff"/></svg>