<svg xmlns="http://www.w3.org/2000/svg" viewBox="0 0 273.19 272.92"><style>.st1{fill:#fff}</style><path d="M169.62 42.12v188.7c39-13.69 66.8-50.76 66.8-94.35s-27.8-80.66-66.8-94.35z" fill="#ff1300"/><path class="st1" d="M136.72 36.47c-11.71 0-23.1 2.02-33.1 5.72v188.56c10 3.7 21.39 5.72 33.1 5.72 11.64 0 22.9-2 32.9-5.65V42.12c-10-3.65-21.26-5.65-32.9-5.65z"/><path d="M37.02 136.47c0 43.51 27.6 80.53 66.6 94.28V42.19c-39 13.75-66.6 50.77-66.6 94.28z" fill="#004fbb"/><path class="st1" d="M136.72 13.65c32.81 0 63.65 12.78 86.85 35.97 23.2 23.2 35.97 54.04 35.97 86.85 0 32.81-12.78 63.65-35.97 86.85-23.2 23.2-54.04 35.97-86.85 35.97s-63.65-12.78-86.85-35.97c-23.2-23.2-35.97-54.04-35.97-86.85s12.78-63.65 35.97-86.85c23.19-23.2 54.04-35.97 86.85-35.97m0-13.65C61.34 0 .24 61.1.24 136.47s61.1 136.47 136.47 136.47 136.47-61.1 136.47-136.47C273.19 61.1 212.09 0 136.72 0z"/></svg>