<svg width="32" height="32" xmlns="http://www.w3.org/2000/svg">
  <g fill="none" fill-rule="evenodd">
    <path d="M5.5 27.5c1.398 1.699 4.065 2.865 8 3.5 3.935.635 7.935-.365 12-3 2.269-.33 3.935-2.83 5-7.5S30.731 10.996 28 6c-2.362-2.938-5.028-4.438-8-4.5-1.898-.04-5.677-1.098-9.5 0-1.443.414-3.61 1.748-6.5 4-1.39 1.282-2.39 3.949-3 8-.61 4.051.89 8.718 4.5 14z" fill="#0D5EAF"/>
    <path d="M3.908 24.892l24.996.053L26.3 28.11l-20.397-.053-1.996-3.166zM10.42 2.089V7.3h7.212v3.166H10.42v7.377l20.48-.024.003 3.167-28.86.035-1.004-3.167 6.214-.008v-7.38H2.041l1-3.166h4.212V3.089l3.167-1zm7.216 8.73l12.992.035.992 3.167-13.992-.035.008-3.167zM25.62 3.73L28 7H17.63l-.004-3.217 7.994-.053z" fill="#FFF" fill-rule="nonzero"/>
    <circle stroke="#FFF" stroke-width="1.5" cx="16" cy="16" r="15.25"/>
  </g>
</svg>
