<svg xmlns="http://www.w3.org/2000/svg" xmlns:xlink="http://www.w3.org/1999/xlink" version="1.1" x="0" y="0" viewBox="0 0 273.19 272.92" xml:space="preserve">
    <style type="text/css">
      .st0{clip-path:url(#SVGID_222_);}
      .st1{fill-rule:evenodd;clip-rule:evenodd;fill:#E42620;}
      .st2{fill-rule:evenodd;clip-rule:evenodd;fill:#FFFFFF;}
      .st3{fill:#FFFFFF;}
    </style>
    <g class="st0">
      <circle fill="#E42620" cx="136.72" cy="136.47" r="100"></circle>
      <path class="st2" d="M150.93 70.74c-6.33 3.3-8.9 10.6-4.6 16.9c1.82 2.67 2.8 6.25 2.62 9.97c-0.23 3.75-1.34 7.39-4.33 10.78 c-4.56 6.24-13.1 6.57-14.71 15.93c-0.38 4.29 0.26 8.51 3.31 12.36c-4.77-4.58-7.86-9.61-8.88-15.18 c-1.07-5.8 0.08-12.21 3.88-19.35l-0.76-0.41c-3.89 7.32-5.07 13.92-3.97 19.92c1.08 5.85 4.34 11.12 9.38 15.88 c-8.66-5.1-14.25-11.17-18.02-20.9c-4.87-17.61 3.23-36.36 20.11-43.56C140.03 70.93 145.37 70.23 150.93 70.74L150.93 70.74z  M76.59 102.84c-2.14 5.22-3.08 10.59-2.55 16.15c1.75 18.46 17 31.89 35.05 32.44c10.29-0.74 17.69-4.33 25.08-11.18 c-6 3.44-11.93 5.03-17.78 4.32c-5.98-0.72-11.85-3.84-17.59-9.78l0.62-0.61c5.59 5.8 11.29 8.83 17.08 9.53 c5.56 0.67 11.22-0.81 16.96-4.05c-4.54 1.79-8.7 1.15-12.64-0.5c-8.34-4.35-6.11-12.7-10.63-18.98c-2.3-3.91-5.4-6.05-8.87-7.41 c-3.45-1.28-7.12-1.41-10.17-0.44C83.93 114.61 77.82 109.94 76.59 102.84L76.59 102.84z M91.84 123.58l3.02 2.56l3.33-2.13 l-1.47 3.7l3.03 2.54l-3.93-0.27l-1.45 3.7l-0.96-3.87l-3.93-0.25l3.34-2.12L91.84 123.58L91.84 123.58z M161.89 202.55 c4.78-2.93 8.66-6.71 11.48-11.51c9.35-15.94 4.87-35.89-9.37-47.13c-8.74-5.56-16.8-7.08-26.76-5.98 c6.85 0.81 12.56 3.08 16.86 7.14c4.41 4.16 7.33 10.18 8.49 18.41l-0.85 0.13c-1.14-8.03-3.97-13.88-8.23-17.9 c-4.09-3.86-9.52-6.05-16.05-6.87c4.71 1.27 7.7 4.27 9.91 7.96c4.2 8.5-2.48 13.9-2.49 21.67c-0.43 4.53 0.83 8.12 2.84 11.28 c2.04 3.1 4.93 5.39 7.95 6.44C162.83 188.68 165.04 196.09 161.89 202.55L161.89 202.55z M161.68 176.7l-0.95-3.87l-3.93-0.27 l3.34-2.1l-0.96-3.87l3.01 2.57l3.33-2.12l-1.48 3.69l3.02 2.56l-3.93-0.29L161.68 176.7L161.68 176.7z M203.47 133.26 c-1.1-5.54-3.28-10.53-6.77-14.84c-11.62-14.34-31.67-16.86-46.97-7.13c-8.13 6.43-12.29 13.59-14.66 23.44 c3.08-6.25 7.13-10.91 12.37-13.63c5.36-2.78 11.95-3.51 19.99-1.82l-0.18 0.85c-7.84-1.65-14.24-0.94-19.42 1.74 c-4.98 2.58-8.86 7.01-11.84 12.94c2.78-4.05 6.59-5.88 10.76-6.73c9.32-1.1 12.07 7.1 19.28 9.75 c4.06 1.94 7.82 1.97 11.44 1.14c3.57-0.88 6.68-2.85 8.68-5.38C190.9 127.64 198.54 128.07 203.47 133.26L203.47 133.26z  M179.39 124.66l-3.91-0.42l-1.59 3.65l-0.82-3.9l-3.92-0.4l3.41-1.99l-0.84-3.9l2.93 2.67l3.4-2.01l-1.6 3.64L179.39 124.66 L179.39 124.66z M82.11 183.28c7.01 1.27 13.43-2.94 13.8-10.6c0.15-3.23 1.53-6.68 3.9-9.52c2.44-2.84 5.5-5.05 9.91-5.9 c7.37-2.16 14.35 2.84 21.25-3.61c2.88-3.18 4.9-6.92 4.79-11.85c1.04 6.57 0.47 12.47-2.06 17.52 c-2.63 5.27-7.4 9.65-14.69 12.98l0.35 0.79c7.49-3.42 12.38-7.94 15.1-13.38c2.66-5.32 3.22-11.5 2.08-18.39 c3.82 9.38 4.62 17.64 1.77 27.69c-6.7 16.99-24.38 26.89-42.11 22.22C90.88 189.84 86.22 187.11 82.11 183.28L82.11 183.28z  M106.58 175.89l3.92 0.4l0.82 3.9l1.58-3.65l3.92 0.42l-2.94-2.66l1.6-3.64l-3.41 2.01l-2.93-2.67l0.84 3.9L106.58 175.89 L106.58 175.89z M135.93 91.67l-3.35 2.1l-2.99-2.59l0.93 3.87l-3.36 2.08l3.93 0.3l0.91 3.88l1.5-3.69l3.93 0.32l-3-2.58 L135.93 91.67z"></path>
    </g>
    <g>
      <path class="st3" d="M136.72 13.65c32.81 0 63.65 12.78 86.85 35.97c23.2 23.2 35.97 54.04 35.97 86.85 c0 32.81-12.78 63.65-35.97 86.85c-23.2 23.2-54.04 35.97-86.85 35.97s-63.65-12.78-86.85-35.97 c-23.2-23.2-35.97-54.04-35.97-86.85s12.78-63.65 35.97-86.85C73.06 26.42 103.91 13.65 136.72 13.65 M136.72 0 C61.34 0 0.24 61.1 0.24 136.47c0 75.37 61.1 136.47 136.47 136.47s136.47-61.1 136.47-136.47C273.19 61.1 212.09 0 136.72 0 L136.72 0z"></path>
    </g>
</svg>
