<svg xmlns="http://www.w3.org/2000/svg" viewBox="0 0 32 32"><path d="M4 7.8A14.42 14.42 0 0 0 1.46 16c0 3.13 1 6.02 2.7 8.4 1.25 1.76 2.9 3.24 4.78 4.3V3.3A14.7 14.7 0 0 0 4 7.81z" fill="#059b49"/><path d="M16 1.46c-2.57 0-4.98.67-7.07 1.85v25.4c2.1 1.18 4.5 1.85 7.07 1.85s4.98-.68 7.07-1.85V3.3c-2.1-1.17-4.5-1.84-7.07-1.84z" fill="#fff"/><path d="M23.07 3.3v25.4c1.9-1.06 3.53-2.54 4.78-4.3 1.68-2.37 2.68-5.26 2.68-8.4a14.42 14.42 0 0 0-2.54-8.19c-1.26-1.86-2.95-3.4-4.92-4.5z" fill="#f47920"/><path d="M16 0C7.18 0 0 7.18 0 16s7.18 16 16 16 16-7.18 16-16S24.82 0 16 0zm14.54 16c0 3.13-1 6.02-2.68 8.4-1.25 1.76-2.9 3.24-4.78 4.3-2.1 1.18-4.5 1.85-7.07 1.85s-4.98-.68-7.07-1.85c-1.9-1.06-3.53-2.54-4.78-4.3A14.33 14.33 0 0 1 1.46 16 14.42 14.42 0 0 1 4 7.81c1.27-1.86 2.96-3.4 4.93-4.5 2.1-1.17 4.5-1.85 7.07-1.85 2.57 0 4.98.67 7.07 1.85A14.67 14.67 0 0 1 28 7.81 14.42 14.42 0 0 1 30.54 16z" fill="#fff"/></svg>