<svg xmlns="http://www.w3.org/2000/svg" viewBox="0 0 32 32"><path d="M21 30.22A15 15 0 0 0 28.11 25L21 21.74zM3.9 25a15.07 15.07 0 0 0 7.1 5.22v-8.48zM11 1.78a15.1 15.1 0 0 0-7.21 5.37l7.2 3.3zm17.2 5.37A15 15 0 0 0 21 1.78v8.67z" fill="#223f84"/><path d="M13 18.8H1.18c0 .24.1.47.15.7A15.25 15.25 0 0 0 1.79 21v.06l.54 1.3 3-1.37h5.42l-7.28 3.38.42.6 7.1-3.25v8.48a14.77 14.77 0 0 0 2 .56v-12z" fill="#fff"/><path d="M27.25 11l2.5-1.15a14.69 14.69 0 0 0-1.08-2L21.83 11zM2.28 9.75c-.18.37-.33.76-.47 1.14a.31.31 0 0 0 0 .08h3.13zM26.87 21l2.8 1.3a11 11 0 0 0 .51-1.23.14.14 0 0 0 0-.06h-3.32zm-16.1 0H5.33l-3 1.37a13.69 13.69 0 0 0 1.12 2l7.3-3.37z" fill="#ed2224"/><path d="M19 12.73h11.73a.13.13 0 0 1 0-.06l-.2-.7v-.1l-.24-.76a.65.65 0 0 0 0-.13v-.08l-.43-1.07-2.6 1.17h-5.42l6.85-3.14-.47-.68-7.2 3.27V1.78a15.05 15.05 0 0 0-2-.56zm0 6.07v12a15.05 15.05 0 0 0 2-.56v-8.5L28.1 25a14.43 14.43 0 0 0 1.57-2.66L26.87 21h3.35l.26-.82.2-.72.15-.7zm-6-6.07V1.22a16.39 16.39 0 0 0-2 .56v8.67l-7.2-3.3a14.33 14.33 0 0 0-1.51 2.6L4.94 11H1.8a.69.69 0 0 0-.05.13q-.13.4-.24.78l-.2.8a.07.07 0 0 0 0 .05H13z" fill="#fff"/><path d="M30.73 12.73H19V1.22q-.5-.1-1-.22a15.87 15.87 0 0 0-2-.12 15.71 15.71 0 0 0-1.95.12q-.56.08-1.08.18v11.55H1.28A14.63 14.63 0 0 0 .92 16a15 15 0 0 0 .26 2.79H13v12a15.5 15.5 0 0 0 6.07 0v-12h11.75a15 15 0 0 0 .26-2.79 15.24 15.24 0 0 0-.35-3.27z" fill="#ed2224"/><path d="M16,32A16,16,0,1,1,32,16,16,16,0,0,1,16,32ZM16,1.46A14.54,14.54,0,1,0,30.54,16,14.55,14.55,0,0,0,16,1.46Z" fill="#fff"/></svg>