<svg xmlns="http://www.w3.org/2000/svg" viewBox="0 0 273.19 272.92"><style>.st0{fill:#fff}</style><path class="st0" d="M143.62 66.71h65.05c-5.03-5-10.61-10-16.66-14h-48.39v14zm0 31h85.26c-2.04-5-4.46-10-7.21-14h-78.05v14zm85.25 77H44.56c2.04 5 4.46 10 7.21 14h169.89c2.75-4 5.17-9 7.21-14zm-20.21 31H64.77c5.03 5 10.61 10 16.66 14H192c6.05-4 11.64-9 16.66-14zm27.71-61H37.06c.39 5 1.11 9 2.13 14h195.04c1.03-5 1.75-9 2.14-14zm-92.75-17h92.75c-.39-4-1.11-9-2.13-14h-90.62v14z"/><path d="M192 52.71c-14.05-9-30.39-14.73-48.39-15.94v15.94H192zm-55.28-16.14c-1.76 0-3.51.14-5.24.14h10.49c-1.75 0-3.5-.14-5.25-.14zm6.9 47.14h78.05c-3.74-6-8.1-12-13-17h-65.05v17zm0 30h90.62c-1.31-5-3.11-11-5.36-16h-85.26v16zm0 31h92.75c.23-3 .35-5.69.35-8.5s-.12-5.5-.35-8.5h-92.75v17zm90.61 14H39.2c1.31 6 3.11 11 5.36 16h184.31c2.26-5 4.06-10 5.36-16zm-12.57 30H51.77c3.74 6 8.1 12 13 17h143.89c4.9-5 9.26-11 13-17zm-140.23 31c15.84 10 34.84 16.67 55.29 16.67 20.44 0 39.45-6.67 55.29-16.67H81.43z" fill="#ff1300"/><path d="M143.62 128.2V36.77c-1-.04-1.12-.06-1.66-.06h-10.49c-9.04 0-17.76 2.19-26.02 4.9l1.32 4.1h4.49l-3.63 2.57 1.39 4.24-3.63-2.66-3.63 2.63 1.39-4.21-3.63-2.58H104l1.3-4.07c-7.77 2.57-15.12 6.03-21.91 10.32l.18.54-.5-.37c-4.5 2.87-8.76 6.09-12.73 9.62l.51 1.56-1.25-.98C61.26 69.87 54.21 78.7 48.79 88.7h4.3l1.39-4.27 1.39 4.27h4.49l-3.63 2.71 1.39 4.31-3.63-2.62-3.63 2.65 1.39-4.27-3.5-2.52c-1.87 3.46-3.55 6.74-5.01 10.74h3.91L44 102.33l1.39 4.26-3.32-2.72c-1.88 5.51-3.3 10.83-4.2 16.83h2.5l1.39-4.27 1.39 4.27h4.49L44 123.65l1.39 4.42-3.63-2.56-3.63 2.68 1.39-4.25-1.83-1.32c-.63 4.54-.97 9.11-.97 13.83 0 2.81.12 5.26.35 8.26h106.55V128.2zm-9.15-10.79l-3.63-2.64-3.63 2.64 1.39-4.17-3.63-2.53h4.49l1.39-4.27 1.39 4.27h4.49l-3.63 2.53 1.37 4.17zm-25.45 0l-3.63-2.64-3.63 2.64 1.39-4.17-3.63-2.53H104l1.39-4.27 1.39 4.27h4.49l-3.63 2.53 1.38 4.17zm-25.45 0l-3.63-2.64-3.63 2.64 1.39-4.17-3.63-2.53h4.49l1.39-4.27 1.39 4.27h4.49l-3.63 2.53 1.37 4.17zm3.21-39.7h4.49l1.39-4.27 1.39 4.27h4.49l-3.63 2.8 1.39 4.35-3.63-2.6-3.63 2.66 1.39-4.43-3.65-2.78zm24.49-11l-3.63 2.89 1.39 4.4-3.63-2.58-3.63 2.67 1.39-4.51-3.63-2.88H104l1.39-4.27 1.39 4.27h4.49zm-2.25 29.06l-3.63-2.64-3.63 2.64 1.39-4.35-3.63-2.71H104l1.39-4.27 1.39 4.27h4.49l-3.63 2.71 1.38 4.35zM79.94 84.43l1.39 4.27h4.49l-3.63 2.71 1.39 4.31-3.63-2.62-3.63 2.65 1.39-4.34-3.63-2.71h4.49l1.37-4.27zm12.72 11l1.39 4.27h4.49l-3.63 2.62 1.39 4.26-3.63-2.64-3.63 2.64 1.39-4.26-3.63-2.62h4.49l1.37-4.27zm31.33 4.28l-3.63 2.62 1.39 4.26-3.63-2.64-3.63 2.64 1.39-4.26-3.63-2.62h4.49l1.39-4.27 1.39 4.27h4.47zm10.48-3.94l-3.63-2.64-3.63 2.64 1.39-4.35-3.63-2.71h4.49l1.39-4.27 1.39 4.27h4.49l-3.63 2.71 1.37 4.35zm-12.72-10.82l-3.63-2.64-3.63 2.64 1.39-4.44-3.63-2.8h4.49l1.39-4.27 1.39 4.27h4.49l-3.63 2.8 1.37 4.44zm14.97-18.24l-3.63 2.89 1.39 4.4-3.63-2.58-3.63 2.67 1.39-4.51-3.63-2.88h4.49l1.39-4.27 1.39 4.27h4.47zm-5.88-25.28l1.39 4.27h4.49l-3.63 2.57 1.39 4.24-3.63-2.66-3.63 2.63 1.39-4.21-3.63-2.58h4.49l1.37-4.26zM119.5 55.71h4.49l-3.63 2.98 1.39 4.44-3.63-2.55-3.63 2.68 1.39-4.59-3.63-2.96h4.49l1.39-4.27 1.37 4.27zm-26.84-4.28l1.39 4.27h4.49l-3.63 2.98 1.39 4.44-3.63-2.55-3.63 2.68 1.39-4.59-3.63-2.96h4.49l1.37-4.27zm-12.72 11l1.39 4.27h4.49l-3.63 2.89 1.39 4.4-3.63-2.58-3.63 2.67 1.39-4.51-3.63-2.88h4.49l1.37-4.26zM61.33 77.71h4.49l1.39-4.27 1.39 4.27h4.49l-3.63 2.8 1.39 4.35-3.63-2.6-3.63 2.66 1.39-4.43-3.65-2.78zm5.88 17.72l1.39 4.27h4.49l-3.63 2.62 1.39 4.26-3.63-2.64-3.63 2.64 1.39-4.26-3.63-2.62h4.49l1.37-4.27zM48.6 110.71h4.49l1.39-4.27 1.39 4.27h4.49l-3.63 2.53 1.39 4.22-3.63-2.67-3.63 2.63 1.39-4.17-3.65-2.54zm9.52 28.33l-3.63-2.64-3.63 2.64 1.39-4.48-3.63-2.85h4.49l1.39-4.27 1.39 4.27h4.49l-3.63 2.85 1.37 4.48zm5.46-10.82l1.39-4.57-3.63-2.94h4.49l1.39-4.27 1.39 4.27h4.49l-3.63 2.94 1.39 4.42-3.63-2.56-3.65 2.71zm19.99 10.82l-3.63-2.64-3.63 2.64 1.39-4.48-3.63-2.85h4.49l1.39-4.27 1.39 4.27h4.49l-3.63 2.85 1.37 4.48zm5.46-10.82l1.39-4.57-3.63-2.94h4.49l1.39-4.27 1.39 4.27h4.49l-3.63 2.94 1.39 4.42-3.63-2.56-3.65 2.71zm19.99 10.82l-3.63-2.64-3.63 2.64 1.39-4.48-3.63-2.85H104l1.39-4.27 1.39 4.27h4.49l-3.63 2.85 1.38 4.48zm5.46-10.82l1.39-4.57-3.63-2.94h4.49l1.39-4.27 1.39 4.27H124l-3.63 2.94 1.39 4.42-3.63-2.56-3.65 2.71zm19.99 10.82l-3.63-2.64-3.63 2.64 1.39-4.48-3.63-2.85h4.49l1.39-4.27 1.39 4.27h4.49l-3.63 2.85 1.37 4.48z" fill="#3c3b6e"/><path class="st0" d="M44 102.33l3.63-2.62h-3.91c-.59 1-1.14 2.97-1.66 4.48l3.32 2.41-1.38-4.27zm-5.88 25.89l3.63-2.64 3.63 2.64-1.38-4.57 3.63-2.94h-4.49l-1.39-4.27-1.39 4.27h-2.5c-.07 1-.12 1.18-.18 1.61l1.83 1.48-1.39 4.42zm12.73-32.45l3.63-2.64 3.63 2.64-1.39-4.35 3.63-2.71h-4.49l-1.39-4.27-1.39 4.27h-4.3c-.02 0-.03.14-.05.17l3.5 2.58-1.38 4.31zm0 21.64l3.63-2.65 3.64 2.65-1.39-4.17 3.63-2.53h-4.49l-1.39-4.28-1.38 4.28h-4.5l3.64 2.53zm5.02 14.3l-1.39-4.28-1.38 4.28h-4.5l3.64 2.85-1.39 4.38 3.63-2.59 3.64 2.67-1.39-4.47 3.63-2.84zm14.47-69.96c-.25.22-.49.43-.74.66l1.25.91-.51-1.57zm-6.76 23.2l3.63-2.64 3.63 2.64-1.38-4.44 3.63-2.8H68.6l-1.39-4.28-1.39 4.28h-4.49l3.63 2.8zm-2.25 14.76l3.63 2.62-1.38 4.26 3.63-2.64 3.63 2.64-1.38-4.26 3.63-2.62H68.6l-1.39-4.28-1.39 4.28zm9.51 28.51l-1.38-4.57 3.63-2.94H68.6l-1.39-4.28-1.39 4.28h-4.49l3.63 2.94-1.38 4.42 3.63-2.56zm12.55-76.29c-.11.07-.21.13-.32.2l.5.36-.18-.56zm-9.33 14.78l3.63 2.89L76.3 74l3.64-2.58 3.63 2.67-1.39-4.51 3.64-2.87h-4.5l-1.38-4.28-1.39 4.28zm3.63 24.71l-1.39 4.31 3.64-2.62 3.63 2.65-1.39-4.34 3.64-2.71h-4.5l-1.38-4.28-1.39 4.28h-4.49zm8.13 19.29h-4.5l-1.38-4.28-1.39 4.28h-4.49l3.63 2.53-1.39 4.22 3.64-2.67 3.63 2.63-1.39-4.17zm-4.5 21l-1.38-4.28-1.39 4.28h-4.49l3.63 2.85-1.39 4.38 3.64-2.59 3.63 2.67-1.39-4.47 3.64-2.84zm5.46-76l3.64 2.98-1.39 4.44 3.63-2.55 3.64 2.68-1.39-4.59 3.63-2.96h-4.49l-1.39-4.28-1.39 4.28zm2.25 29.24l3.63-2.64 3.64 2.64-1.39-4.44 3.63-2.8h-4.49l-1.39-4.28-1.39 4.28h-4.49l3.64 2.8zm-2.25 14.76l3.64 2.62-1.39 4.26 3.63-2.64 3.64 2.64-1.39-4.26 3.63-2.62h-4.49l-1.39-4.28-1.39 4.28zm9.52 28.51l-1.39-4.57 3.63-2.94h-4.49l-1.39-4.28-1.39 4.28h-4.49l3.64 2.94-1.39 4.42 3.63-2.56zm3.21-82.51l3.63 2.57-1.39 4.24 3.63-2.66 3.63 2.63-1.39-4.21 3.63-2.58h-4.49l-1.32-4.12c-.05.02-.1.07-.16.08l-1.3 4.04h-4.47zm5.88 16.72L104 66.71h-4.49l3.63 2.89-1.39 4.4 3.64-2.58 3.63 2.67-1.39-4.51 3.64-2.87h-4.49zm1.39 26.28l-1.39-4.28-1.39 4.28h-4.49l3.63 2.71-1.39 4.31 3.64-2.62 3.63 2.65-1.39-4.34 3.64-2.71zm4.49 22h-4.49l-1.39-4.28-1.39 4.28h-4.49l3.63 2.53-1.39 4.22 3.64-2.67 3.63 2.63-1.39-4.17zm-4.49 21l-1.39-4.28-1.39 4.28h-4.49l3.63 2.85-1.39 4.38 3.64-2.59 3.63 2.67-1.39-4.47 3.64-2.84zm9.95-76h-4.5l3.64 2.98-1.39 4.44 3.63-2.55 3.64 2.68-1.39-4.59 3.63-2.96h-4.49l-1.39-4.28zm7.26 22h-4.49l-1.39-4.28-1.38 4.28h-4.5l3.64 2.8-1.39 4.35 3.63-2.6 3.64 2.67-1.39-4.43zm-5.88 17.72l-1.38 4.28h-4.5l3.64 2.62-1.39 4.26 3.63-2.64 3.64 2.64-1.39-4.26 3.63-2.62h-4.49zm3.64 32.79l-1.39-4.57 3.63-2.94h-4.49l-1.39-4.28-1.38 4.28h-4.5l3.64 2.94-1.39 4.42 3.63-2.56zm6.84-79.94l-1.38 4.24 3.63-2.66 3.63 2.64-1.38-4.21 3.63-2.58h-4.49l-1.39-4.28-1.39 4.28h-4.49zm2.25 14.15l-1.39 4.28h-4.49l3.63 2.89-1.38 4.4 3.63-2.58 3.63 2.67-1.38-4.51 3.63-2.87h-4.49zm1.39 26.28l-1.39-4.28-1.39 4.28h-4.49l3.63 2.71-1.38 4.31 3.63-2.62 3.63 2.65-1.38-4.34 3.63-2.71zm4.49 22h-4.49l-1.39-4.28-1.39 4.28h-4.49l3.63 2.53-1.38 4.22 3.63-2.67 3.63 2.63-1.38-4.17zm-4.49 21l-1.39-4.28-1.39 4.28h-4.49l3.63 2.85-1.38 4.38 3.63-2.59 3.63 2.67-1.38-4.47 3.63-2.84z"/><path class="st0" d="M136.72 13.65c32.81 0 63.65 12.78 86.85 35.97 23.2 23.2 35.97 54.04 35.97 86.85 0 32.81-12.78 63.65-35.97 86.85-23.2 23.2-54.04 35.97-86.85 35.97s-63.65-12.78-86.85-35.97c-23.2-23.2-35.97-54.04-35.97-86.85s12.78-63.65 35.97-86.85c23.19-23.2 54.04-35.97 86.85-35.97m0-13.65C61.34 0 .24 61.1.24 136.47s61.1 136.47 136.47 136.47 136.47-61.1 136.47-136.47C273.19 61.1 212.09 0 136.72 0z"/></svg>