<?xml version="1.0" encoding="UTF-8"?>
<svg width="7px" height="11px" viewBox="0 0 7 11" version="1.1" xmlns="http://www.w3.org/2000/svg" xmlns:xlink="http://www.w3.org/1999/xlink">
    <!-- Generator: Sketch 53.2 (72643) - https://sketchapp.com -->
    <title>ICN / Result</title>
    <desc>Created with Sketch.</desc>
    <g id="ICN-/-Result" stroke="none" stroke-width="1" fill="none" fill-rule="evenodd">
        <path d="M3,6.96455557 C1.30385293,6.72194074 0,5.26323595 0,3.5 C0,1.56700338 1.56700338,0 3.5,0 C5.43299662,0 7,1.56700338 7,3.5 C7,5.26323595 5.69614707,6.72194074 4,6.96455557 L4,11 L3,11 L3,6.96455557 Z M3.5,5 C4.32842712,5 5,4.32842712 5,3.5 C5,2.67157288 4.32842712,2 3.5,2 C2.67157288,2 2,2.67157288 2,3.5 C2,4.32842712 2.67157288,5 3.5,5 Z" id="Combined-Shape" fill="#41494E" fill-rule="nonzero"></path>
    </g>
</svg>