<?xml version="1.0" encoding="UTF-8"?>
<svg width="13px" height="22px" viewBox="0 0 13 22" version="1.1" xmlns="http://www.w3.org/2000/svg" xmlns:xlink="http://www.w3.org/1999/xlink">
    <!-- Generator: Sketch 54.1 (76490) - https://sketchapp.com -->
    <title>icn/live-commentary-mic</title>
    <desc>Created with Sketch.</desc>
    <g id="Symbols" stroke="none" stroke-width="1" fill="none" fill-rule="evenodd">
        <g id="icn/live-commentary-mic" transform="translate(-4.000000, 0.000000)" fill="#FFFFFF" fill-rule="nonzero">
            <g transform="translate(4.650262, 0.098025)">
                <rect id="Rectangle" x="4.34973764" y="7.90197458" width="3" height="8" rx="1.5"></rect>
                <path d="M3.34973764,10.9019746 L3.34973764,14.4019746 C3.34973764,15.7826865 4.46902576,16.9019746 5.84973764,16.9019746 C7.23044951,16.9019746 8.34973764,15.7826865 8.34973764,14.4019746 L8.34973764,10.9019746 L9.34973764,10.9019746 L9.34973764,14.4019746 C9.34973764,16.3349712 7.78273426,17.9019746 5.84973764,17.9019746 C3.91674101,17.9019746 2.34973764,16.3349712 2.34973764,14.4019746 L2.34973764,10.9019746 L3.34973764,10.9019746 Z" id="Combined-Shape"></path>
                <rect id="Rectangle" x="5.34973764" y="16.9019746" width="1" height="2"></rect>
                <path d="M3.34973764,19.9019746 L8.34973764,19.9019746 C9.45430714,19.9019746 10.3497376,20.7974051 10.3497376,21.9019746 L10.3497376,21.9019746 L1.34973764,21.9019746 L1.34973764,21.9019746 C1.34973764,20.7974051 2.24516814,19.9019746 3.34973764,19.9019746 Z" id="Rectangle"></path>
                <path d="M9.19244486,5.88368589 C9.19244486,6.11579088 9.00537223,6.30394916 8.77460646,6.30394916 C8.54384068,6.30394916 8.35676805,6.11579088 8.35676805,5.88368589 C8.35676805,4.49105589 7.2343323,3.36210622 5.84973764,3.36210622 C4.46514297,3.36210622 3.34270722,4.49105589 3.34270722,5.88368589 C3.34270722,6.11579088 3.1556346,6.30394916 2.92486882,6.30394916 C2.69410304,6.30394916 2.50703042,6.11579088 2.50703042,5.88368589 C2.50703042,4.02684589 4.00361142,2.52157967 5.84973764,2.52157967 C7.69586386,2.52157967 9.19244486,4.02684589 9.19244486,5.88368589 Z" id="Path"></path>
                <path d="M11.6994753,5.04315933 C11.6994753,5.27526433 11.5124027,5.46342261 11.2816369,5.46342261 C11.0508711,5.46342261 10.8637985,5.27526433 10.8637985,5.04315933 C10.8637985,2.73911858 8.63295433,0.840526555 5.84973764,0.840526555 C3.06652095,0.840526555 0.835676805,2.73911858 0.835676805,5.04315933 C0.835676805,5.27526433 0.64860418,5.46342261 0.417838403,5.46342261 C0.187072625,5.46342261 -2.66453526e-15,5.27526433 -2.66453526e-15,5.04315933 C-2.66453526e-15,2.2408901 2.63304411,0 5.84973764,0 C9.06643117,0 11.6994753,2.2408901 11.6994753,5.04315933 Z" id="Path-Copy"></path>
            </g>
        </g>
    </g>
</svg>