<svg data-name="Layer 1" xmlns="http://www.w3.org/2000/svg" viewBox="0 0 36 24"><path d="M35.14.82A3 3 0 0 0 33 0H3A3 3 0 0 0 .88.82 2.75 2.75 0 0 0 0 2.8v18.39a2.73 2.73 0 0 0 .88 2A3 3 0 0 0 3 24h30a3 3 0 0 0 2.09-.83 2.72 2.72 0 0 0 .86-2V2.8a2.74 2.74 0 0 0-.81-1.98zM34 21.19a.92.92 0 0 1-.3.66 1 1 0 0 1-.7.27H3a1 1 0 0 1-.7-.27.91.91 0 0 1-.3-.66V10.41h32zm0-15.62H2V2.8a.91.91 0 0 1 .28-.65A1 1 0 0 1 3 1.87h30a1 1 0 0 1 .7.28.92.92 0 0 1 .3.65z" fill="#d5d5d5"/><path d="M25 17.9h5a1 1 0 0 0 1-1v-2.63a1 1 0 0 0-1-1h-5a1 1 0 0 0-1 1v2.66a1 1 0 0 0 1 .97z" fill="#d5d5d5"/></svg>