<svg id="Layer_1" data-name="Layer 1" xmlns="http://www.w3.org/2000/svg" viewBox="0 0 15 10"><defs><style>.cls-1{fill:#c8414b}.cls-2{fill:#ffd250}.cls-3{fill:#f5f5f5}.cls-4{fill:#fab446}.cls-5{fill:#ffb441}.cls-6{fill:#5064aa}</style></defs><path class="cls-1" d="M.26 10h14.48a.26.26 0 0 0 .26-.26V.26a.26.26 0 0 0-.26-.26H.26A.26.26 0 0 0 0 .26v9.48a.26.26 0 0 0 .26.26z"/><path class="cls-2" d="M0 2.11h15V7.9H0z"/><path class="cls-1" d="M6.34 5l.22-1a.15.15 0 0 0-.15-.18h-.15a.14.14 0 0 0-.14.18z"/><path class="cls-3" d="M6.08 4.47h.52v2.24h-.52z"/><path class="cls-4" d="M5.95 4.21h.78v.26h-.78z"/><path class="cls-1" d="M5.43 5h1.29v.26H5.43zM6.72 6.05l-.77-.26v-.26l.77.26v.26zM2.46 5l.22-1a.15.15 0 0 0-.15-.18h-.15a.14.14 0 0 0-.14.18z"/><path class="cls-3" d="M3.36 4.21a.26.26 0 0 0-.26.26v1.71c0 .32.3.93 1.3.93s1.29-.61 1.29-.93V4.47a.26.26 0 0 0-.26-.26z"/><path class="cls-1" d="M4.4 5.53H3.1V4.47a.26.26 0 0 1 .26-.26h1zM4.4 5.53h1.29v.65a.65.65 0 0 1-.69.66.65.65 0 0 1-.64-.66z"/><path class="cls-4" d="M3.1 5.53h1.3v.65a.65.65 0 0 1-.65.66.65.65 0 0 1-.65-.66z"/><path class="cls-1" d="M4.14 6.71V5.53h-.26v1.3a.62.62 0 0 0 .26-.12zM3.62 6.83v-1.3h-.26v1.18a.62.62 0 0 0 .26.12z"/><path class="cls-5" d="M3.36 5h.78v.26h-.78z"/><path class="cls-4" d="M3.36 4.47h.78v.26h-.78z"/><path class="cls-4" d="M3.49 4.63h.52v.48h-.52z"/><path class="cls-3" d="M2.2 4.47h.52v2.24H2.2z"/><path class="cls-4" d="M2.07 6.58h.78v.26h-.78zM2.07 4.21h.78v.26h-.78z"/><path class="cls-6" d="M1.94 6.84h1.03v.26H1.94z"/><path class="cls-4" d="M6.08 6.58h.78v.26h-.78z"/><path class="cls-6" d="M5.82 6.84h1.03v.26H5.82z"/><path class="cls-4" d="M3.62 3.95h1.55v.26H3.62z"/><path class="cls-5" d="M4.27 3.16h.26v.79h-.26z"/><path class="cls-3" d="M4.14 3.55a.38.38 0 0 1-.39-.39.39.39 0 0 1 .39-.4.4.4 0 0 1 .39.4.39.39 0 0 1-.39.39zm0-.52a.13.13 0 1 0 .13.13.13.13 0 0 0-.13-.16z"/><path class="cls-3" d="M4.66 3.55a.38.38 0 0 1-.39-.39.39.39 0 1 1 .77 0 .38.38 0 0 1-.38.39zm0-.52a.13.13 0 0 0 0 .26.13.13 0 0 0 0-.26z"/><path class="cls-3" d="M5.17 3.82a.4.4 0 0 1-.39-.4.39.39 0 0 1 .39-.42.38.38 0 0 1 .39.39.39.39 0 0 1-.39.43zm0-.53a.13.13 0 1 0 .13.13.13.13 0 0 0-.13-.13zM3.62 3.82a.4.4 0 0 1-.39-.4.39.39 0 1 1 .78 0 .4.4 0 0 1-.39.4zm0-.53a.13.13 0 1 0 .13.13.13.13 0 0 0-.13-.13z"/><path class="cls-4" d="M5.17 6.05v.13a.13.13 0 1 1-.26 0v-.13h.26m.26-.26h-.77v.39a.39.39 0 1 0 .77 0v-.39z"/><path d="M5 5.26A.26.26 0 0 1 4.78 5v-.26A.27.27 0 0 1 5 4.47a.26.26 0 0 1 .26.27V5a.25.25 0 0 1-.26.26z" fill="#ffa0d2"/><ellipse class="cls-6" cx="4.4" cy="5.53" rx=".39" ry=".39"/><path class="cls-4" d="M4.27 2.63h.26v.79h-.26z"/><path class="cls-1" d="M3.62 4l-.26-.27.15-.15a1.26 1.26 0 0 1 .89-.37 1.22 1.22 0 0 1 .88.37l.15.15-.26.27z"/><circle class="cls-2" cx="4.4" cy="3.68" r=".13"/><circle class="cls-2" cx="3.88" cy="3.68" r=".13"/><circle class="cls-2" cx="4.91" cy="3.68" r=".13"/><path class="cls-1" d="M2.07 5h1.29v.26H2.07zM2.07 6.05l.78-.26v-.26l-.78.26v.26z"/></svg>