<svg xmlns="http://www.w3.org/2000/svg" xmlns:xlink="http://www.w3.org/1999/xlink" width="22" height="22"><defs><path id="A" d="M0 0h22v22H0z"/></defs><g fill="none" fill-rule="evenodd"><mask id="B" fill="#fff"><use xlink:href="#A"/></mask><g mask="url(#B)"><mask id="C" fill="#fff"><use xlink:href="#B" href="#A"/></mask><g mask="url(#C)"><path d="M11 20a9 9 0 1 1 0-18 9 9 0 0 1 6.364 15.364A9 9 0 0 1 11 20zm0-17a8.05 8.05 0 0 0-5.674 13.76A8.05 8.05 0 0 0 19.05 11 8.06 8.06 0 0 0 11 3z" fill="#252835" fill-rule="nonzero"/><path stroke="#252835" d="M11 6.95l1.32 2.67 2.94.42-2.13 2.08.5 2.93L11 13.67l-2.63 1.38.5-2.93-2.13-2.08 2.94-.42z"/></g></g></g></svg>