<svg xmlns="http://www.w3.org/2000/svg" xmlns:xlink="http://www.w3.org/1999/xlink" width="22" height="22"><defs><path id="A" d="M0 0h22v22H0z"/><path id="B" d="M0 0h10.91v10.952H0z"/><path id="C" d="M3.73 15.27c0 .432-.338.782-.755.782s-.755-.35-.755-.782"/></defs><g fill="none" fill-rule="evenodd"><mask id="D" fill="#fff"><use xlink:href="#A"/></mask><g mask="url(#D)"><g transform="translate(-1 .2)"><g transform="matrix(.965926 -.258819 .258819 .965926 -.005285 6.881417)" fill="#000" fill-rule="nonzero"><path d="M2.04 15.435c-.962.004-1.747-.795-1.76-1.79 0-.055.106-4.92.884-4.92.204 0 .347.15.574.376.66.79 1.626 1.237 2.636 1.22 1.986 0 3.27-2.214 3.278-2.237l.128-.227.234.1 3.852 1.893a29.11 29.11 0 0 0 4.924 1.666 3.42 3.42 0 0 1 1.775.782c.474.322.734.892.674 1.476s-.432 1.083-.96 1.294c-.602.285-1.27.39-1.926.305l-14.312.055zm-.755-5.993c-.228 1.39-.367 2.793-.415 4.2.012.672.544 1.21 1.193 1.205l14.35-.055a2.84 2.84 0 0 0 1.631-.25c.366-.105.633-.43.675-.822a.97.97 0 0 0-.486-.954 2.96 2.96 0 0 0-1.51-.602 29.54 29.54 0 0 1-5.083-1.784l-3.6-1.776c-.408.618-1.707 2.3-3.625 2.3-1.152.008-2.252-.496-3.02-1.385l-.098-.078z"/><use xlink:href="#C"/><use xlink:href="#C" x="2.327"/><use xlink:href="#C" x="4.66"/><use xlink:href="#C" x="8.528"/><use xlink:href="#C" x="10.86"/><use xlink:href="#C" x="13.187"/><path d="M.536 14.2H18.85v.196H.536z"/><path d="M6.835 15.216l2.062-2.996c.28-.407-.385-.782-.65-.383L6.185 14.84c-.28.407.385.782.65.376zm2.2 0l2.062-2.996c.28-.407-.385-.782-.657-.383L8.376 14.84c-.28.407.378.782.65.376zm.475-5.038l.884-1.306c.28-.407-.385-.782-.65-.383L8.86 9.802c-.272.407.385.782.657.376H9.5zm1.376.618l.9-1.314c.28-.407-.385-.782-.65-.383l-.86 1.314c-.272.407.393.782.657.383h-.038zm1.36.6l.9-1.314c.272-.407-.393-.782-.657-.383l-.884 1.314c-.28.407.385.782.65.383zM4.214 14.9l-.56-.102a3.06 3.06 0 0 0-.113-1.393C3.15 12.44 2.175 12.04.876 12.32l-.12-.57c1.57-.344 2.8.196 3.308 1.44a3.68 3.68 0 0 1 .151 1.721zM7.4 9.24h-.38V.415H1.7V9.24h-.378V.055h.18l5.9.117.053.125H7.4V9.24z"/><path d="M1.488 1.932h5.7v.39h-5.7z"/></g><g transform="translate(12)"><mask id="E" fill="#fff"><use xlink:href="#B"/></mask><g mask="url(#E)" fill="#252835"><path d="M2.135 8.77h1.817l.785 1.34c-.988-.155-1.9-.624-2.602-1.34zM1.49 4.566L.792 5.754c-.04-.646.056-1.292.28-1.9l.417.71zM4.14.977l.915 1.56-1.103 1.88h-2.2l-.53-.904C1.78 2.286 2.847 1.36 4.14.977zM7.52 2.4H5.3L4.437.9C4.77.825 5.112.787 5.455.787a4.63 4.63 0 0 1 2.555.767l-.5.836zm2.485 2.03H8.877l-1.103-1.88.477-.815c.867.653 1.5 1.602 1.753 2.696zM5.3 2.685h2.2l1.102 1.882-1.102 1.88H5.3l-1.103-1.88L5.3 2.685zM1.868 8.477A4.68 4.68 0 0 1 .847 6.242l.896-1.53h2.2l1.103 1.88-1.103 1.882H1.868zm3.586 1.69a4.66 4.66 0 0 1-.352-.015l-.895-1.527L5.3 6.743h2.2l1.102 1.88-.34.582c-.812.624-1.805.96-2.827.96zm4.67-4.7a4.68 4.68 0 0 1-1.084 3h-.164L7.775 6.595l1.103-1.88h1.186a4.68 4.68 0 0 1 .063.762zM9.81 8.77l.015-.02c.705-.945 1.085-2.095 1.084-3.276 0-1.23-.403-2.363-1.084-3.276-.33-.444-.727-.834-1.174-1.16C7.722.363 6.603-.001 5.455 0 4.008-.002 2.62.575 1.598 1.604A5.46 5.46 0 0 0 .79 2.636 5.47 5.47 0 0 0 0 5.476 5.48 5.48 0 0 0 .538 7.85c.152.318.335.62.545.902a5.51 5.51 0 0 0 .514.596c1.022 1.03 2.4 1.606 3.857 1.604.44 0 .866-.054 1.275-.152a5.41 5.41 0 0 0 1.227-.459 5.48 5.48 0 0 0 1.854-1.57z"/></g></g></g></g></g></svg>