<svg xmlns="http://www.w3.org/2000/svg" xmlns:xlink="http://www.w3.org/1999/xlink" width="22" height="15"><defs><path id="a" d="M0 0h22v16H0z"/></defs><g fill="none" fill-rule="evenodd" transform="matrix(-1 0 0 1 22 -1)"><mask id="b" fill="#fff"><use xlink:href="#a"/></mask><g mask="url(#b)"><path fill="#252835" d="M6.17 4.472l.591 1.025a.566.566 0 0 0 .774.212.573.573 0 0 0 .204-.776l-.58-1.005a8.97 8.97 0 0 1 3.136-.827V4.37c0 .315.262.57.564.57a.566.566 0 0 0 .564-.57V3.083a8.978 8.978 0 0 1 3.474.871l-.565.979a.573.573 0 0 0 .203.776c.27.156.615.063.774-.212l.573-.992a8.848 8.848 0 0 1 2.526 2.468l-1.124.65a.573.573 0 0 0-.212.773c.156.27.501.362.776.203l1.13-.652c.58 1.157.907 2.46.907 3.836H22C22 5.828 17.075 1 11 1a11.07 11.07 0 0 0-8.238 3.637l1.759 1.187A8.89 8.89 0 0 1 6.17 4.472zM.749 7.865A10.57 10.57 0 0 0 0 11.783h2.115c0-.943.153-1.852.436-2.702L.75 7.865z"/><g fill="#F57800" transform="scale(-1 1) rotate(24 -13.39 -20.857)"><ellipse cx="2.795" cy="8.519" rx="2.795" ry="2.748"/><path stroke="#F57800" stroke-linecap="round" stroke-linejoin="round" stroke-width=".93" d="M7.762 0L1.118 8.599l2.5 1.26z"/></g></g></g></svg>