<svg width="54" height="36" viewBox="0 0 282 181" xmlns="http://www.w3.org/2000/svg" preserveAspectRatio="xMidYMin slice" style="width:100%;padding-bottom:92%;height:1px" overflow="visible"><g fill="none" fill-rule="evenodd"><path d="M217.466 89.12c5.894 12.524 9.204 26.615 9.204 41.513h21.47c0-34.73-14.53-65.916-37.587-87.282l-11.034 19.905a93.915 93.915 0 0 1 12.456 15.813l-15.74 9.088a1.764 1.764 0 0 0-.648 2.41l3.961 6.861a1.768 1.768 0 0 0 2.412.645l15.506-8.952zM86.854 51.982c-10.275 7.093-19.078 16.325-25.83 27.088l15.74 9.088a1.764 1.764 0 0 1 .649 2.41l-3.961 6.861a1.768 1.768 0 0 1-2.412.645L55.534 89.12c-5.894 12.523-9.204 26.614-9.204 41.512H24.86C24.86 66.218 74.844 14 136.5 14c13.797 0 27.01 2.615 39.208 7.396l-10.95 19.752a86.41 86.41 0 0 0-21.102-4.426v18.127c0 .976-.787 1.767-1.764 1.767h-7.922a1.768 1.768 0 0 1-1.764-1.767V36.534c-12.709.623-24.73 3.994-35.53 9.558l8.34 14.448a1.764 1.764 0 0 1-.643 2.412l-6.861 3.961a1.768 1.768 0 0 1-2.411-.648l-8.247-14.284z" fill="#252835"/><g transform="translate(108.59 43.158)" fill="#F57800"><ellipse cx="28.37" cy="92.143" rx="28.37" ry="29.723"/><path stroke="#F57800" stroke-width="2.522" stroke-linecap="round" stroke-linejoin="round" d="M78.776 0L11.348 93.01l25.376 13.627z"/></g></g></svg>