<svg xmlns="http://www.w3.org/2000/svg" >
    <g  fill-rule="evenodd">
        <path fill-rule="nonzero" d="M17.026 9.442c.582 4.14-2.329 8.002-6.468 8.584-4.14.582-8.002-2.329-8.584-6.468-.582-4.14 2.329-8.002 6.468-8.584a7.409 7.409 0 0 1 2.11-.009l1.293-1.716C10.663 1.03 9.401.92 8.178 1.092 3.004 1.82-.635 6.648.092 11.822c.728 5.174 5.556 8.813 10.73 8.086 5.174-.728 8.813-5.556 8.086-10.73l-1.882.264z"/>
        <path d="M6.204 5.13l-1.44 1.389 8.337 8.632 1.438-1.39z"/>
        <path d="M17.27.814l1.438 1.389L6.205 15.15l-1.44-1.39z"/>
    </g>
</svg>
