<svg xmlns="http://www.w3.org/2000/svg" viewBox="0 0 34 34"><path d="M9.9 21.9l-4.1.8L1.7 4.6l14.1-2.9.6 2.7c.1.4.5.7.9.6.4-.2.7-.6.6-1L17.1.6c-.1-.4-.5-.7-.9-.6L.6 3.2c-.2 0-.4.2-.5.3-.1.2-.1.4-.1.6l4.5 19.6c.1.4.4.6.7.6h.2l4.8-1c.4-.1.7-.5.6-.9-.1-.3-.5-.6-.9-.5z"/><path d="M14 5.6c0-.4-.5-.6-.9-.6L5.4 6.7c-.4.1-.7.5-.6.9.1.4.4.6.7.6h.2l7.8-1.6c.4-.2.6-.6.5-1zm-1.5 5.1l-6 1.3c-.4.1-.7.5-.6.9.1.4.4.6.7.6h.2l6-1.3c.4-.1.7-.5.6-.9-.1-.4-.5-.7-.9-.6zm-1.6 5.7l-3.2.7c-.4.1-.7.5-.6.9.1.4.4.6.7.6H8l3.2-.7c.4-.1.7-.5.6-.9-.1-.4-.5-.7-.9-.6zm22.5-4.8L17.9 8c-.4-.1-.8.2-.9.6l-5.1 20.8c0 .2 0 .4.1.6.1.2.3.3.5.3L28.2 34h.2c.1 0 .3 0 .4-.1.2-.1.3-.3.3-.5L34 12.5c.1-.4-.2-.8-.6-.9zm-5.6 20.7l-14.2-3.4 4.7-19.3 14 3.3-4.5 19.4z"/><path d="M20.3 15.6l7.7 1.8h.2c.3 0 .7-.2.7-.6.1-.4-.2-.8-.6-.9l-7.7-1.8c-.4-.1-.8.2-.9.6 0 .4.2.8.6.9zm-1.2 5.3l7.7 1.8h.2c.3 0 .7-.2.7-.6.1-.4-.2-.8-.6-.9l-7.7-1.8c-.4-.1-.8.2-.9.6-.1.4.2.8.6.9zm6.9 5.4l-7.7-1.8c-.4-.1-.8.2-.9.6-.1.4.2.8.6.9l7.7 1.8h.2c.3 0 .7-.2.7-.6 0-.4-.2-.8-.6-.9z"/></svg>