<svg xmlns="http://www.w3.org/2000/svg" viewBox="0 0 18 17"><path d="M12.7 15.8c-1.2-.1-2.2-1-2.4-2.1H7.8c-.3 1.1-1.3 2-2.4 2.1-.3.1-.4.2-.4.4v.6c0 .1.1.2.2.2h7.7c.1 0 .2-.1.2-.2v-.6c0-.2-.2-.4-.4-.4zm-5.2.1c.4-.3.8-.8 1-1.2h1c.2.5.6.9 1 1.2h-3zm.3-3h2.3c.1-1.6 1-2.4 2.2-4.3 1.6-2.4 2.4-5.3 2.4-8.2 0-.1 0-.2-.1-.3-.1-.1-.2-.1-.2-.1H3.7c-.1 0-.2 0-.3.1-.1.1-.1.2-.1.3 0 2.9.8 5.8 2.4 8.2 1.1 1.9 2 2.6 2.1 4.3zM13.6 1c-.1 2.5-.8 4.9-2.2 7-.3.5-.6.9-.9 1.3-.6.7-1 1.6-1.3 2.5h-.4c-.3-.9-.8-1.8-1.4-2.5-.2-.3-.5-.8-.8-1.3-1.4-2.1-2.1-4.5-2.2-7h9.2z"/><path d="M5.1 8.8c-.5-.7-1-1.5-1.3-2.4-1.2-1-2.1-2.3-2.6-3.8h1.6c0-.4-.1-.8-.1-1.2H1.4c-.6 0-1.4.1-1.4.8 0 1.6 2.2 5 5.2 6.8l-.1-.2zm11.5-7.4h-1.2c0 .4-.1.8-.1 1.2h1.5c-.5 1.5-1.4 2.8-2.6 3.9-.3.8-.8 1.6-1.3 2.3l-.2.3C15.8 7.2 18 3.8 18 2.2c0-.7-.8-.7-1.4-.8z"/></svg>