<svg viewBox="0 0 100 100" xmlns="http://www.w3.org/2000/svg"><circle cx="50" cy="49.9" r="50" fill="#ef3340"/><path d="M30.4 35.1l-1.6 13.2h14.8l-.8 6.2H28l-2.2 17.8H18l5.3-43.4h25.3l-.8 6.2H30.4zm38.7-6.2c2.4 0 4.5.2 6.2.7s3.1 1.1 4.2 2c1.1.9 1.9 1.9 2.4 3.1.5 1.2.8 2.6.8 4.1 0 1.2-.2 2.4-.5 3.6s-.8 2.2-1.5 3.1-1.6 1.8-2.7 2.6-2.4 1.4-3.9 1.9c2.5.6 4.3 1.6 5.5 3 1.2 1.4 1.8 3.2 1.8 5.3 0 2-.4 3.9-1.1 5.6-.7 1.7-1.8 3.2-3.2 4.4-1.4 1.2-3.1 2.2-5.1 2.9-2 .7-4.3 1.1-6.8 1.1H49.8l5.3-43.4h14zm-3.4 37.3c1.4 0 2.6-.2 3.6-.6s1.8-.9 2.5-1.6c.6-.7 1.1-1.5 1.4-2.5.3-1 .5-2 .5-3.2 0-1.6-.5-2.8-1.5-3.8-1-.9-2.6-1.4-4.9-1.4H60l-1.6 13.1h7.3zm-3.5-31.3l-1.6 12.9h5.8c2.7 0 4.7-.6 6.2-1.9 1.4-1.3 2.2-3.2 2.2-5.8 0-1.8-.5-3.1-1.5-4s-2.6-1.2-4.8-1.2h-6.3z" fill="#fff"/></svg>