<svg viewBox="0 0 40 40" xmlns="http://www.w3.org/2000/svg"><path fill="#78be20" d="M23 27h17v3H23z"/><path fill="#ffcd00" d="M23 32h17v3H23z"/><path fill="#ef3340" d="M23 37h17v3H23z"/><path d="M29.4 25c-1.6-1.4-3.5-2.6-5.5-3.3 3.3-2.1 5.5-5.7 5.5-9.9C29.4 5.3 24.1 0 17.7 0 11.2 0 5.9 5.3 5.9 11.7c0 4.2 2.2 7.8 5.5 9.9C5.6 23.8 1 29.1.1 35.2 0 36 0 40 0 40h2.9s0-4.1.2-4.8c1.5-6.7 7.5-11.7 14.6-11.7 2.4 0 4.6.6 6.6 1.5h5.1zm-11.7-4.5c-4.8 0-8.8-4-8.8-8.8s3.9-8.8 8.8-8.8c4.8 0 8.8 4 8.8 8.8-.1 4.9-4 8.8-8.8 8.8z" fill="#fff"/></svg>