<svg width="27" height="12" xmlns="http://www.w3.org/2000/svg" xmlns:xlink="http://www.w3.org/1999/xlink"><defs><path id="a" d="M.087.139h26.599v11.497H.087z"/><path id="c" d="M.087.139h26.6v11.497H.086z"/></defs><g fill="none" fill-rule="evenodd"><g transform="matrix(1 0 0 -1 .114 11.836)"><mask id="b" fill="#fff"><use xlink:href="#a"/></mask><g mask="url(#b)"><path d="M11.607 8.232c-1.026 0-1.856-.91-1.856-2.03 0-1.147.83-2.07 1.856-2.07 1.025 0 1.855.896 1.855 2.07 0 1.162-.83 2.03-1.855 2.03m.252-5.807c-.843 0-1.56.28-2.108.84V.139H7.883v6.064c0 2.07 1.531 3.763 3.724 3.763 2.178 0 3.71-1.693 3.71-3.763 0-2.085-1.547-3.778-3.458-3.778M22.976 8.232c-1.025 0-1.854-.882-1.854-2.071 0-1.148.829-2.03 1.854-2.03 1.026 0 1.855.91 1.855 2.03 0 1.147-.829 2.07-1.855 2.07zm3.71-5.653H24.93v.755c-.548-.601-1.335-.909-2.207-.909-1.91 0-3.47 1.679-3.47 3.75 0 2.084 1.532 3.791 3.723 3.791 2.178 0 3.71-1.707 3.71-3.791V2.579z" fill="#00ADEF" fill-rule="nonzero"/></g></g><g transform="matrix(1 0 0 -1 .114 11.836)"><mask id="d" fill="#fff"><use xlink:href="#c"/></mask><g mask="url(#d)"><path d="M18.563 2.56c-1.812.008-2.767 1.235-2.767 3.057v6.019h1.86V9.797h1.117v-1.64h-1.118V5.601c0-1.01.466-1.389 1.395-1.333.494-.99 1.192-1.517 1.192-1.517-.849-.238-1.679-.192-1.679-.192M5.579 6.167c0 1.259-.811 2.136-1.807 2.136-.996 0-1.807-.877-1.807-2.136 0-1.23.811-2.078 1.807-2.078.996 0 1.807.848 1.807 2.078m1.892.015c0-2.178-1.664-3.804-3.699-3.804-2.034 0-3.685 1.626-3.685 3.804 0 2.177 1.65 3.832 3.685 3.832s3.699-1.655 3.699-3.832" fill="#00ADEF" fill-rule="nonzero"/></g></g></g></svg>