<svg viewBox="0 0 38.3 39.6" xmlns="http://www.w3.org/2000/svg"><style>.svg-y{fill:#ffcd00}</style><path d="M17.8 5.6c.2.2.3.5.3.9 0 .8-.7 1.5-1.5 1.5-.4 0-.8-.2-1.1-.4-.6-.5-2.4-2.4-2.4-2.4v6.6c0 .8-.7 1.5-1.5 1.5s-1.5-.7-1.5-1.5V5.2L8 7.3c-.1.2-.3.4-.5.5s-.4.2-.7.2C6 8 5.3 7.3 5.3 6.5c0-.5.2-.9.6-1.2C9 2 10.2.8 10.7.4c.3-.3.6-.4 1-.4s.8.2 1.1.5c1 .9 3.8 3.8 4.7 4.8.2.1.3.2.3.3" fill="#78be20"/><path class="svg-y" d="M24.4 27.7c0-1.1.3-2 1-2.6s1.6-.9 2.7-.9c.6 0 1.1.1 1.6.2.4.1.8.3 1 .5l.3.3c.1.1.1.3.1.4 0 .2 0 .3-.1.4s-.1.3-.2.4l-.3.3c-.1.1-.2.1-.3.2-.2-.2-.4-.3-.8-.5-.3-.2-.7-.2-1.2-.2-.6 0-1 .1-1.3.4s-.4.6-.4 1.1v.2H29c.4 0 .7.1.9.3s.3.4.3.7c0 .2 0 .5-.1.7s-.1.3-.2.4h-3.3v1.7h4.5v2.1h-6.7v-6.1z"/><path class="svg-y" d="M28 39.6c-5.7 0-10.3-4.6-10.3-10.3S22.3 19 28 19s10.3 4.6 10.3 10.3S33.7 39.6 28 39.6zm0-17.7c-4.1 0-7.3 3.3-7.3 7.3 0 4.1 3.3 7.3 7.3 7.3s7.3-3.3 7.3-7.3c.1-4-3.2-7.3-7.3-7.3z"/><path d="M23.4 13.9c0-1.7-1.2-3.3-3.3-4.5-.7-.4-1.6-.1-2 .6s-.1 1.6.6 2c1.1.6 1.8 1.3 1.8 1.9s-.7 1.3-1.8 1.9c-1.7 1-4.3 1.4-6.9 1.4-1.6 0-3.1-.2-4.6-.6-.9-.2-1.7-.5-2.5-.9-.8-.5-1.7-1-1.7-2 0-.6.7-1.2 1.8-1.8.7-.4 1-1.3.6-2s-1.3-1-2-.6C1.2 10.5 0 12.1 0 13.9c0 1.2.5 2.3 1.5 3.2-1 1-1.5 2.1-1.5 3.2 0 1.2.5 2.3 1.5 3.2-1 1-1.5 2.1-1.5 3.2 0 1.7 1.2 3.3 3.3 4.5 2.2 1.2 5.2 1.9 8.4 1.9 1.1 0 2.2-.1 3.4-.3.8-.1 1.4-.9 1.2-1.7-.1-.8-.9-1.4-1.7-1.2-1.1.2-2 .3-2.9.3-2.7 0-5.2-.5-6.9-1.5-1.1-.6-1.8-1.4-1.8-1.9s.4-1 1.2-1.5c2.1 1 4.7 1.5 7.6 1.5 1.3 0 2.7-.1 4-.4.8-.2 1.3-.9 1.2-1.8-.2-.8-.9-1.3-1.8-1.2-1.2.2-2.3.5-3.5.5-2.2 0-4.5-.1-6.6-1.1-.8-.4-2.1-1.3-2.1-2.3 0-.5.4-1.1 1.2-1.6 2.1 1 4.7 1.4 7.6 1.4 2.8 0 5.5-.5 7.5-1.5.2.1.3.2.5.4.3.3.7.4 1 .4.4 0 .8-.2 1.1-.5.5-.6.5-1.4 0-2 .9-.9 1.5-2.1 1.5-3.2z" fill="#fff"/></svg>