<?xml version="1.0" encoding="UTF-8"?>
<svg width="191px" height="195px" viewBox="0 0 191 195" version="1.1" xmlns="http://www.w3.org/2000/svg" xmlns:xlink="http://www.w3.org/1999/xlink">
    <!-- Generator: sketchtool 62 (101010) - https://sketch.com -->
    <title>AA9917B2-1783-4738-9CC7-18C49BCCCF6F</title>
    <desc>Created with sketchtool.</desc>
    <g id="--Premier-League-2020-21" stroke="none" stroke-width="1" fill="none" fill-rule="evenodd">
        <g id="Premier-League-2020-21" transform="translate(-209.000000, -259.000000)">
            <g id="Arsenal" transform="translate(208.000000, 259.000000)">
                <g id="Asset-1">
                    <path d="M96,140.280612 L146,136.30102 L154,180.076531 C154.8,183.956633 154.4,186.344388 150,187.040816 L109,194.005102 C104.6,194.701531 102.8,192.910714 102,189.030612 L96,165.153061 L96,140.280612 Z" id="shorts" fill="#DEDFE2"></path>
                    <path d="M96,140.280612 L46,136.30102 L38.3,180.076531 C37.5,183.857143 37.9,186.344388 42.3,187.040816 L83.1,194.005102 C87.4,194.701531 89.3,192.910714 90.1,189.030612 L96.1,165.252551 L96,140.280612 Z" id="Path" fill="#DEDFE2"></path>
                    <path d="M96,0 L121,0 C125.3,0.0994897959 147.4,1.29336735 162,10.0484694 C147.2,21.6887755 146,58.6989796 146,58.6989796 L146,136.30102 L96,140.280612 L96,0 Z" id="Path-2" fill="#BC151E"></path>
                    <path d="M96,0 L71,0 C66.7,0.0994897959 44.6,1.29336735 30,10.0484694 C44.8,21.6887755 46,58.6989796 46,58.6989796 L46,136.30102 L96,140.280612 L96,0 Z" id="Path-3" fill="#CD1517"></path>
                    <path d="M96,-2.16840434e-18 L120.7,-2.16840434e-18 C120.7,-2.16840434e-18 150.4,-0.49744898 163.6,10.9438776 C176.8,22.3852041 188.2,44.7704082 190.6,49.744898 C193,54.7193878 188,58.6989796 179,63.6734694 C169.4,69.0459184 160.6,73.622449 157,67.6530612 C153.4,61.6836735 146.6,51.7346939 146.6,51.7346939 C146.6,51.7346939 142.8,19.8979592 130.2,8.55612245 C120.7,-2.16840434e-18 96,3.48214286 96,3.48214286 L96,-2.16840434e-18 Z" id="Path-4" fill="#E0E0E0"></path>
                    <path d="M96.3,-2.16840434e-18 L71.5,-2.16840434e-18 C71.5,-2.16840434e-18 41.8,-0.49744898 28.6,10.9438776 C15.4,22.3852041 4.1,44.7704082 1.6,49.744898 C-0.9,54.7193878 4.2,58.6989796 13.2,63.6734694 C22.8,69.0459184 31.6,73.622449 35.2,67.6530612 C38.8,61.6836735 45.6,51.7346939 45.6,51.7346939 C45.6,51.7346939 49.4,19.8979592 62,8.55612245 C71.5,-2.16840434e-18 96.1,3.48214286 96.1,3.48214286 L96.3,-2.16840434e-18 L96.3,-2.16840434e-18 Z" id="Path-5" fill="#EDEDED"></path>
                </g>
                <path d="M1.6,52.4311224 C1.6,52.4311224 1,52.2321429 1,52.2321429 C1,52.2321429 0.9,53.127551 1.8,55.2168367 C1.8,55.2168367 1.8,55.2168367 1.8,55.2168367 C2.7,56.7091837 3.9,57.9030612 5.3,58.8979592 C5.3,58.8979592 19.9,67.6530612 23.9,69.1454082 C28,70.7372449 30.8,70.9362245 33.3,69.7423469 L1.6,52.4311224 Z" id="Path" fill="#77070D"></path>
                <polygon id="Path" fill="#CD1517" points="35 68.1505102 1.6 49.9438776 2.2 48.8494898 35.7 67.1556122"></polygon>
                <path d="M158.7,69.5433673 C161.3,70.9362245 163.9,70.6377551 168,69.1454082 C169.9,68.4489796 174.4,66.3596939 178.5,63.9719388 C182.8,61.4846939 186.6,58.7984694 186.6,58.7984694 C188,57.8035714 189.2,57.0076531 190.1,55.5153061 C190.1,55.5153061 190.4,55.0178571 190.4,55.0178571 C191.3,53.625 191.2,51.9336735 191.2,51.9336735 C191.2,51.9336735 190.3,52.3316327 190.3,52.3316327 L158.7,69.5433673 Z" id="Path" fill="#77070D"></path>
                <polygon id="Path" fill="#CD1517" points="157.1 67.8520408 190.5 49.6454082 189.9 48.5510204 156.4 66.8571429"></polygon>
                <g id="Group" transform="translate(47.000000, 110.433673)">
                    <g id="Path">
                        <polygon fill="#930916" points="0.2 24.5739796 24.7 13.630102 7.3 12.6352041"></polygon>
                        <polygon fill="#CC333B" points="1.5 0.0994897959 24.7 13.630102 7.3 12.6352041"></polygon>
                    </g>
                    <polygon id="Path" stroke="#F70B2D" stroke-width="0.864" points="0.2 24.5739796 24.7 13.630102 1.5 0.0994897959 7.3 12.6352041"></polygon>
                </g>
                <g id="Group" transform="translate(66.000000, 111.428571)">
                    <g id="Path">
                        <polygon fill="#930916" points="0.2 24.6734694 24.7 13.7295918 7.2 12.7346939"></polygon>
                        <polygon fill="#CC333B" points="1.4 0.298469388 24.6 13.7295918 7.2 12.7346939"></polygon>
                    </g>
                    <polygon id="Path" stroke="#F70B2D" stroke-width="0.864" points="0.2 24.6734694 24.6 13.7295918 1.4 0.298469388 7.2 12.7346939"></polygon>
                </g>
                <g id="Group" transform="translate(85.000000, 112.423469)">
                    <g id="Path">
                        <polygon fill="#930916" points="0.7 24.6734694 25.2 13.630102 7.7 12.6352041"></polygon>
                        <polygon fill="#CC333B" points="2 0.198979592 25.2 13.630102 7.7 12.6352041"></polygon>
                    </g>
                    <polygon id="Path" stroke="#F70B2D" stroke-width="0.864" points="0.7 24.6734694 25.2 13.630102 2 0.198979592 7.7 12.6352041"></polygon>
                </g>
                <g id="Group" transform="translate(104.000000, 112.423469)">
                    <g id="Path">
                        <polygon fill="#930916" points="0.8 25.2704082 25.3 14.3265306 7.9 13.3316327"></polygon>
                        <polygon fill="#CC333B" points="2.1 0.895408163 25.3 14.3265306 7.9 13.3316327"></polygon>
                    </g>
                    <polygon id="Path" stroke="#F70B2D" stroke-width="0.864" points="0.8 25.2704082 25.4 13.9285714 2.1 0.895408163 7.9 13.3316327"></polygon>
                </g>
                <g id="Group" transform="translate(122.000000, 113.418367)">
                    <g id="Path">
                        <polygon fill="#930916" points="0.9 24.5739796 23 13.5306122 7.9 12.6352041"></polygon>
                        <polygon fill="#CC333B" points="2.1 0.198979592 23.9 13.5306122 7.9 12.6352041"></polygon>
                    </g>
                    <polygon id="Path" stroke="#F70B2D" stroke-width="0.864" points="1.3 23.877551 23 13.5306122 2.1 0.198979592 7.9 12.6352041"></polygon>
                </g>
                <g id="Group" transform="translate(105.000000, 100.484694)">
                    <g id="Path">
                        <polygon fill="#930916" points="25.5 0.895408163 1 12.0382653 18.5 12.9336735"></polygon>
                        <polygon fill="#CC333B" points="24.1 25.1709184 0.8 11.8392857 18.2 12.7346939"></polygon>
                    </g>
                    <polygon id="Path" stroke="#F70B2D" stroke-width="0.864" points="25.5 0.895408163 1.1 12.0382653 24.2 24.9719388 18.5 12.9336735"></polygon>
                </g>
                <g id="Group" transform="translate(87.000000, 100.484694)">
                    <g id="Path">
                        <polygon fill="#930916" points="24.8 0.298469388 0.4 11.3418367 17.9 12.2372449"></polygon>
                        <polygon fill="#CC333B" points="23.7 24.6734694 0.4 11.4413265 17.9 12.2372449"></polygon>
                    </g>
                    <polygon id="Path" stroke="#F70B2D" stroke-width="0.864" points="24.8 0.298469388 0.4 11.4413265 23.7 24.6734694 17.9 12.2372449"></polygon>
                </g>
                <g id="Group" transform="translate(68.000000, 99.489796)">
                    <g id="Path">
                        <polygon fill="#930916" points="24.4 0.198979592 0 11.3418367 17.4 12.2372449"></polygon>
                        <polygon fill="#CC333B" points="23.3 24.6734694 0 11.3418367 17.4 12.2372449"></polygon>
                    </g>
                    <polygon id="Path" stroke="#F70B2D" stroke-width="0.864" points="24.4 0.198979592 0 11.3418367 23.3 24.6734694 17.4 12.2372449"></polygon>
                </g>
                <g id="Group" transform="translate(48.000000, 98.494898)">
                    <g id="Path">
                        <polygon fill="#930916" points="24.8 0.0994897959 0.4 11.2423469 17.9 12.1377551"></polygon>
                        <polygon fill="#CC333B" points="23.7 24.5739796 0.4 11.2423469 17.9 12.1377551"></polygon>
                    </g>
                    <polygon id="Path" stroke="#F70B2D" stroke-width="0.864" points="24.8 0.0994897959 0.4 11.2423469 23.7 24.5739796 17.9 12.1377551"></polygon>
                </g>
                <g id="Group" transform="translate(48.000000, 84.566327)">
                    <g id="Path">
                        <polygon fill="#930916" points="0.1 24.4744898 24.6 13.5306122 7.1 12.4362245"></polygon>
                        <polygon fill="#CC333B" points="1.3 0 24.5 13.5306122 7.1 12.4362245"></polygon>
                    </g>
                    <polygon id="Path" stroke="#F70B2D" stroke-width="0.864" points="0.1 24.4744898 24.5 13.5306122 1.3 0 7.1 12.4362245"></polygon>
                </g>
                <g id="Group" transform="translate(66.000000, 84.566327)">
                    <g id="Path">
                        <polygon fill="#930916" points="0.5 25.369898 25 14.4260204 7.5 13.4311224"></polygon>
                        <polygon fill="#CC333B" points="1.7 0.895408163 24.9 14.4260204 7.5 13.4311224"></polygon>
                    </g>
                    <polygon id="Path" stroke="#F70B2D" stroke-width="0.864" points="0.5 25.369898 24.9 14.4260204 1.7 0.895408163 7.5 13.4311224"></polygon>
                </g>
                <g id="Group" transform="translate(87.000000, 86.556122)">
                    <g id="Path">
                        <polygon fill="#930916" points="0.1 24.375 24.5 13.4311224 7.1 12.4362245"></polygon>
                        <polygon fill="#CC333B" points="1.3 0 24.5 13.4311224 7.1 12.4362245"></polygon>
                    </g>
                    <polygon id="Path" stroke="#F70B2D" stroke-width="0.864" points="0.1 24.375 24.5 13.4311224 1.3 0 7.1 12.4362245"></polygon>
                </g>
                <g id="Group" transform="translate(105.000000, 86.556122)">
                    <g id="Path">
                        <polygon fill="#930916" points="0.5 25.0714286 25 14.0280612 7.6 13.0331633"></polygon>
                        <polygon fill="#CC333B" points="1.8 0.596938776 25 14.0280612 7.6 13.0331633"></polygon>
                    </g>
                    <polygon id="Path" stroke="#F70B2D" stroke-width="0.864" points="0.5 25.0714286 25 14.0280612 1.8 0.596938776 7.6 13.0331633"></polygon>
                </g>
                <g id="Group" transform="translate(124.000000, 87.551020)">
                    <g id="Path">
                        <polygon fill="#930916" points="0.3 25.369898 21.7 14.127551 7.3 13.3316327"></polygon>
                        <polygon fill="#CC333B" points="1.5 0.895408163 21.1 14.0280612 7.3 13.3316327"></polygon>
                    </g>
                    <polygon id="Path" stroke="#F70B2D" stroke-width="0.864" points="0.3 25.369898 21.1 14.0280612 1.5 0.895408163 7.3 13.3316327"></polygon>
                </g>
                <g id="Group" transform="translate(106.000000, 73.622449)">
                    <g id="Path">
                        <polygon fill="#930916" points="24.5 0.895408163 0.1 12.0382653 17.6 12.9336735"></polygon>
                        <polygon fill="#CC333B" points="23.4 25.369898 0.1 12.0382653 17.6 12.9336735"></polygon>
                    </g>
                    <polygon id="Path" stroke="#F70B2D" stroke-width="0.864" points="24.5 0.895408163 0.1 12.0382653 23.4 25.369898 17.6 12.9336735"></polygon>
                </g>
                <g id="Group" transform="translate(87.000000, 73.622449)">
                    <g id="Path">
                        <polygon fill="#930916" points="24.9 0.298469388 0.5 11.4413265 17.9 12.3367347"></polygon>
                        <polygon fill="#CC333B" points="23.8 24.7729592 0.5 11.4413265 17.9 12.3367347"></polygon>
                    </g>
                    <polygon id="Path" stroke="#F70B2D" stroke-width="0.864" points="24.9 0.298469388 0.5 11.4413265 23.8 24.7729592 17.9 12.3367347"></polygon>
                </g>
                <g id="Group" transform="translate(69.000000, 73.622449)">
                    <g id="Path">
                        <polygon fill="#930916" points="24.4 0.298469388 0 11.4413265 17.5 12.3367347"></polygon>
                        <polygon fill="#CC333B" points="23.4 24.6734694 0.1 11.4413265 17.5 12.3367347"></polygon>
                    </g>
                    <polygon id="Path" stroke="#F70B2D" stroke-width="0.864" points="24.4 0.298469388 0.1 11.4413265 23.4 24.6734694 17.5 12.3367347"></polygon>
                </g>
                <g id="Group" transform="translate(48.000000, 71.632653)">
                    <g id="Path">
                        <polygon fill="#930916" points="24.9 0.0994897959 0.5 11.2423469 17.9 12.1377551"></polygon>
                        <polygon fill="#CC333B" points="23.8 24.5739796 0.5 11.2423469 17.9 12.1377551"></polygon>
                    </g>
                    <polygon id="Path" stroke="#F70B2D" stroke-width="0.864" points="24.9 0.0994897959 0.5 11.2423469 23.8 24.5739796 17.9 12.1377551"></polygon>
                </g>
                <g id="Group" transform="translate(48.000000, 57.704082)">
                    <g id="Path">
                        <polygon fill="#930916" points="0.1 24.4744898 24.6 13.5306122 7.2 12.5357143"></polygon>
                        <polygon fill="#CC333B" points="1.4 0.0994897959 24.6 13.5306122 7.2 12.5357143"></polygon>
                    </g>
                    <polygon id="Path" stroke="#F70B2D" stroke-width="0.864" points="0.1 24.4744898 24.6 13.5306122 1.4 0.0994897959 7.2 12.5357143"></polygon>
                </g>
                <g id="Group" transform="translate(67.000000, 59.693878)">
                    <g id="Path">
                        <polygon fill="#930916" points="0.5 24.375 25 13.4311224 7.6 12.4362245"></polygon>
                        <polygon fill="#CC333B" points="1.8 0 25 13.4311224 7.6 12.4362245"></polygon>
                    </g>
                    <polygon id="Path" stroke="#F70B2D" stroke-width="0.864" points="0.5 24.375 25 13.4311224 1.8 0 7.6 12.4362245"></polygon>
                </g>
                <g id="Group" transform="translate(87.000000, 59.693878)">
                    <g id="Path">
                        <polygon fill="#930916" points="0.1 24.4744898 24.6 13.4311224 7.1 12.4362245"></polygon>
                        <polygon fill="#CC333B" points="1.4 0 24.6 13.4311224 7.1 12.4362245"></polygon>
                    </g>
                    <polygon id="Path" stroke="#F70B2D" stroke-width="0.864" points="0.1 24.4744898 24.6 13.4311224 1.4 0 7.1 12.4362245"></polygon>
                </g>
                <g id="Group" transform="translate(105.000000, 60.688776)">
                    <g id="Path">
                        <polygon fill="#930916" points="0.8 24.5739796 25.3 13.630102 7.8 12.6352041"></polygon>
                        <polygon fill="#CC333B" points="2 0.198979592 25.2 13.630102 7.8 12.6352041"></polygon>
                    </g>
                    <polygon id="Path" stroke="#F70B2D" stroke-width="0.864" points="0.8 24.5739796 25.2 13.630102 2 0.198979592 7.8 12.6352041"></polygon>
                </g>
                <g id="Group" transform="translate(124.000000, 60.688776)">
                    <g id="Path">
                        <polygon fill="#930916" points="0.4 25.369898 20.2 14.127551 7.4 13.4311224"></polygon>
                        <polygon fill="#CC333B" points="1.6 0.895408163 20.5 14.127551 7.4 13.4311224"></polygon>
                    </g>
                    <polygon id="Path" stroke="#F70B2D" stroke-width="0.864" points="0.4 25.369898 21 14.127551 1.6 0.895408163 7.4 13.4311224"></polygon>
                </g>
                <g id="Group" transform="translate(107.000000, 47.755102)">
                    <g id="Path">
                        <polygon fill="#930916" points="24.5 0.895408163 0.1 12.0382653 17.6 12.9336735"></polygon>
                        <polygon fill="#CC333B" points="23.4 25.369898 0.1 12.0382653 17.6 12.9336735"></polygon>
                    </g>
                    <polygon id="Path" stroke="#F70B2D" stroke-width="0.864" points="24.5 0.895408163 0.1 12.0382653 23.4 25.369898 17.6 12.9336735"></polygon>
                </g>
                <g id="Group" transform="translate(88.000000, 47.755102)">
                    <g id="Path">
                        <polygon fill="#930916" points="24.9 0.298469388 0.5 11.4413265 17.9 12.3367347"></polygon>
                        <polygon fill="#CC333B" points="23.8 24.7729592 0.5 11.4413265 17.9 12.3367347"></polygon>
                    </g>
                    <polygon id="Path" stroke="#F70B2D" stroke-width="0.864" points="24.9 0.298469388 0.5 11.4413265 23.8 24.7729592 17.9 12.3367347"></polygon>
                </g>
                <g id="Group" transform="translate(70.000000, 47.755102)">
                    <g id="Path">
                        <polygon fill="#930916" points="24.4 0.298469388 0 11.4413265 17.5 12.3367347"></polygon>
                        <polygon fill="#CC333B" points="23.4 24.6734694 0.1 11.4413265 17.5 12.3367347"></polygon>
                    </g>
                    <polygon id="Path" stroke="#F70B2D" stroke-width="0.864" points="24.4 0.298469388 0.1 11.4413265 23.4 24.6734694 17.5 12.3367347"></polygon>
                </g>
                <g id="Group" transform="translate(49.000000, 45.765306)">
                    <g id="Path">
                        <polygon fill="#930916" points="24.9 0.0994897959 0.5 11.2423469 17.9 12.1377551"></polygon>
                        <polygon fill="#CC333B" points="23.8 24.5739796 0.5 11.2423469 17.9 12.1377551"></polygon>
                    </g>
                    <polygon id="Path" stroke="#F70B2D" stroke-width="0.864" points="24.9 0.0994897959 0.5 11.2423469 23.8 24.5739796 17.9 12.1377551"></polygon>
                </g>
                <g id="Group" transform="translate(49.000000, 31.836735)">
                    <g id="Path">
                        <polygon fill="#930916" points="0.1 24.4744898 24.6 13.5306122 7.2 12.5357143"></polygon>
                        <polygon fill="#CC333B" points="1.4 0.0994897959 24.6 13.5306122 7.2 12.5357143"></polygon>
                    </g>
                    <polygon id="Path" stroke="#F70B2D" stroke-width="0.864" points="0.1 24.4744898 24.6 13.5306122 1.8 0.596938776 7.2 12.5357143"></polygon>
                </g>
                <g id="Group" transform="translate(68.000000, 33.826531)">
                    <g id="Path">
                        <polygon fill="#930916" points="0.5 24.375 25.4 12.9336735 7.6 12.4362245"></polygon>
                        <polygon fill="#CC333B" points="1.8 0 25.9 12.7346939 7.6 12.4362245"></polygon>
                    </g>
                    <polygon id="Path" stroke="#F70B2D" stroke-width="0.864" points="0.5 24.375 26.3 12.9336735 1.8 0 7.6 12.4362245"></polygon>
                </g>
                <g id="Group" transform="translate(88.000000, 33.826531)">
                    <g id="Path">
                        <polygon fill="#930916" points="0.1 24.4744898 24.6 13.4311224 7.1 12.4362245"></polygon>
                        <polygon fill="#CC333B" points="1.4 0 24.6 13.4311224 7.1 12.4362245"></polygon>
                    </g>
                    <polygon id="Path" stroke="#F70B2D" stroke-width="0.864" points="0.1 24.4744898 24.6 13.4311224 1.4 0 7.1 12.4362245"></polygon>
                </g>
                <g id="Group" transform="translate(106.000000, 34.821429)">
                    <g id="Path">
                        <polygon fill="#930916" points="0.8 24.5739796 25.3 13.630102 7.8 12.6352041"></polygon>
                        <polygon fill="#CC333B" points="2 0.198979592 25.2 13.630102 7.8 12.6352041"></polygon>
                    </g>
                    <polygon id="Path" stroke="#F70B2D" stroke-width="0.864" points="0.8 24.5739796 25.2 13.630102 2 0.198979592 7.8 12.6352041"></polygon>
                </g>
                <g id="Group" transform="translate(125.000000, 34.821429)">
                    <g id="Path">
                        <polygon fill="#930916" points="0.4 25.369898 20 14.2270408 7.4 13.4311224"></polygon>
                        <polygon fill="#CC333B" points="1.6 0.895408163 19.8 14.2270408 7.4 13.4311224"></polygon>
                    </g>
                    <polygon id="Path" stroke="#F70B2D" stroke-width="0.864" points="0.4 25.369898 20.3 14.4260204 1.6 0.895408163 7.4 13.4311224"></polygon>
                </g>
                <g id="Group" transform="translate(108.000000, 22.882653)">
                    <g id="Path">
                        <polygon fill="#930916" points="25.2 0.49744898 0.8 11.5408163 18.2 12.4362245"></polygon>
                        <polygon fill="#CC333B" points="24.1 24.872449 0.8 11.6403061 18.2 12.4362245"></polygon>
                    </g>
                    <polygon id="Path" stroke="#F70B2D" stroke-width="0.864" points="25.2 0.49744898 0.8 11.6403061 23.6 24.9719388 18.2 12.4362245"></polygon>
                </g>
                <g id="Group" transform="translate(90.000000, 21.887755)">
                    <g id="Path">
                        <polygon fill="#930916" points="24.6 0.795918367 0.1 11.9387755 17.6 12.8341837"></polygon>
                        <polygon fill="#CC333B" points="23.5 25.2704082 0.2 11.9387755 17.6 12.8341837"></polygon>
                    </g>
                    <polygon id="Path" stroke="#F70B2D" stroke-width="0.864" points="24.6 0.795918367 0.2 11.9387755 23.2 24.872449 17.6 12.8341837"></polygon>
                </g>
                <g id="Group" transform="translate(70.000000, 21.887755)">
                    <g id="Path">
                        <polygon fill="#930916" points="25.1 0.795918367 0.7 11.9387755 18.2 12.8341837"></polygon>
                        <polygon fill="#CC333B" points="24.1 25.2704082 0.8 11.9387755 18.2 12.8341837"></polygon>
                    </g>
                    <polygon id="Path" stroke="#F70B2D" stroke-width="0.864" points="25.1 0.795918367 0.8 11.9387755 23.8 23.9770408 18.2 12.8341837"></polygon>
                </g>
                <g id="Group" transform="translate(51.000000, 19.897959)">
                    <g transform="translate(1.000000, 0.000000)" id="Path">
                        <polygon fill="#930916" points="24.6 0.696428571 0 12.2372449 17.6 12.7346939"></polygon>
                        <polygon fill="#CC333B" points="23.5 25.0714286 0 12.2372449 17.6 12.7346939"></polygon>
                    </g>
                    <polygon id="Path" stroke="#F70B2D" stroke-width="0.864" points="25.6 0.696428571 0.5 12.2372449 24.5 25.0714286 18.6 12.7346939"></polygon>
                </g>
                <g id="Group" transform="translate(50.000000, 13.928571)">
                    <g id="Path">
                        <polygon fill="#930916" points="0.8 18.1071429 25.3 7.06377551 7.8 6.06887755"></polygon>
                        <polygon fill="#CC333B" points="8.2 0.298469388 25.3 7.06377551 7.8 6.06887755"></polygon>
                    </g>
                    <polygon id="Path" stroke="#F70B2D" stroke-width="0.864" points="0.8 18.1071429 25.3 7.06377551 8 0.696428571 7.8 6.06887755"></polygon>
                </g>
                <g id="Group" transform="translate(70.000000, 7.959184)">
                    <g id="Path">
                        <polygon fill="#930916" points="0.2 24.9719388 24.7 13.9285714 7.3 12.9336735"></polygon>
                        <polygon fill="#CC333B" points="1.5 0.49744898 24.7 13.9285714 7.3 12.9336735"></polygon>
                    </g>
                    <polygon id="Path" stroke="#F70B2D" stroke-width="0.864" points="0.6 24.7729592 24.7 13.9285714 1.5 0.49744898 7.3 12.9336735"></polygon>
                </g>
                <g id="Group" transform="translate(89.000000, 7.959184)">
                    <g id="Path">
                        <polygon fill="#930916" points="0.8 24.9719388 25.3 14.0280612 7.8 12.9336735"></polygon>
                        <polygon fill="#CC333B" points="2.1 0.49744898 25.3 14.0280612 7.8 12.9336735"></polygon>
                    </g>
                    <polygon id="Path" stroke="#F70B2D" stroke-width="0.864" points="0.8 24.9719388 25.3 14.0280612 2.1 0.49744898 7.8 12.9336735"></polygon>
                </g>
                <g id="Group" transform="translate(108.000000, 8.954082)">
                    <g id="Path">
                        <polygon fill="#930916" points="0.5 25.1709184 25 14.127551 7.5 13.1326531"></polygon>
                        <polygon fill="#CC333B" points="1.7 0.696428571 24.9 14.127551 7.5 13.1326531"></polygon>
                    </g>
                    <polygon id="Path" stroke="#F70B2D" stroke-width="0.864" points="0.5 25.1709184 24.9 14.127551 1.7 0.696428571 7.5 13.1326531"></polygon>
                </g>
                <g id="Group" transform="translate(127.000000, 9.948980)">
                    <g id="Path">
                        <polygon fill="#930916" points="0 24.872449 10.9 13.2321429 7.1 12.9336735"></polygon>
                        <polygon fill="#CC333B" points="1.3 0.49744898 10.9 13.2321429 7.1 12.9336735"></polygon>
                    </g>
                    <polygon id="Path" stroke="#F70B2D" stroke-width="0.864" points="1.2 23.4795918 10.9 13.2321429 1.3 0.49744898 7.1 12.9336735"></polygon>
                </g>
                <g id="Group" transform="translate(122.000000, 75.612245)">
                    <g id="Path">
                        <polygon fill="#930916" points="22.7 0.795918367 2.1 11.2423469 19.5 12.1377551"></polygon>
                        <polygon fill="#CC333B" points="22.9 24.872449 0.5 11.1428571 18.9 12.1377551"></polygon>
                    </g>
                    <polygon id="Path" stroke="#F70B2D" stroke-width="0.864" points="23 0.0994897959 2.1 11.2423469 23.3 25.369898 19.5 12.1377551"></polygon>
                </g>
                <g id="Group" transform="translate(125.000000, 49.744898)">
                    <g id="Path">
                        <polygon fill="#930916" points="20.8 0.198979592 0.5 11.0433673 17.9 11.9387755"></polygon>
                        <polygon fill="#CC333B" points="19.9 24.1760204 0.5 11.0433673 17.9 11.9387755"></polygon>
                    </g>
                    <polygon id="Path" stroke="#F70B2D" stroke-width="0.864" points="20.8 0.198979592 0.5 11.0433673 20.2 24.4744898 17.9 11.9387755"></polygon>
                </g>
                <g id="Group" transform="translate(127.000000, 22.882653)">
                    <g transform="translate(0.000000, 0.994898)" id="Path">
                        <polygon fill="#930916" points="11.7 0 0.4 11.4413265 17.9 12.3367347"></polygon>
                        <polygon fill="#CC333B" points="18.4 23.877551 0.4 11.4413265 17.9 12.3367347"></polygon>
                    </g>
                    <polygon id="Path" stroke="#F70B2D" stroke-width="0.864" points="11.8 0.0994897959 0.4 12.4362245 18.9 25.9668367 17.9 13.3316327"></polygon>
                </g>
                <g id="Group" transform="translate(124.000000, 101.479592)">
                    <g transform="translate(1.000000, 0.994898)" id="Path">
                        <polygon fill="#930916" points="19.9 0 0.3 10.6454082 17.8 11.5408163"></polygon>
                        <polygon fill="#CC333B" points="20.9 24.4744898 0.3 10.6454082 17.8 11.5408163"></polygon>
                    </g>
                    <polygon id="Path" stroke="#F70B2D" stroke-width="0.864" points="21.3 0.895408163 0.6 11.7397959 21.3 24.6734694 18.8 12.5357143"></polygon>
                </g>
                <path d="M75.8,0.0994897959 C75.8,0.0994897959 79.2,14.3265306 95.9,15.0229592 C95.9,15.0229592 109.1,16.2168367 116.4,0.0994897959 L120.700167,0.0994897959 C120.700167,0.0994897959 121,17.8086735 96.2,19.997449 C96.2,19.997449 75.2,21.4897959 70.2,0.0994897959 L75.8,0.0994897959 Z" id="Path" fill="#E0E0E0"></path>
                <path d="M75.3,0 C78.5,8.75510204 86.5,14.9234694 95.8,14.9234694 C105.1,14.9234694 113.1,8.75510204 116.3,0 L75.3,0 Z" id="Path" fill="#939393"></path>
            </g>
        </g>
    </g>
</svg>