<svg width="192" height="196" viewBox="0 0 192 196" version="1.1" xmlns="http://www.w3.org/2000/svg"><title>atletico-madrid</title><symbol id="atletico-madrid" viewBox="0 0 192 196"><g id="Page-1" stroke="none" stroke-width="1" fill="none" fill-rule="evenodd"><g id="atletico-madrid"><path d="M96.2 1H71.5S41.8.5 28.6 12 4 46 1.6 51c-2.4 5 2.6 9 11.6 14 9.6 5.4 18.4 10 22 4 3.3-5.5 9.4-14.5 10.3-15.8.4 4.1.5 6.8.5 6.8v78l50 4V4.4h.2V1z" id="Path" fill="#EAE4E4" transform="translate(0 -1)"/><path d="M72 5.7V139l-15-.5v-122c.9-3.4 2.8-6.3 5.5-8.5C66.4 5.3 72 5.3 72 5.7z" id="Path" fill="#C13131" transform="translate(0 -1)"/><path d="M190.6 51c-2.4-5-13.8-27.5-27-39S120.7 1 120.7 1H96v141l50-4V60s.1-2.8.5-7.2v.2s6.9 10 10.4 16 12.4 1.4 22-4c9.1-5 14.1-9 11.7-14z" id="Path" fill="#EAE5E5" transform="translate(0 -1)"/><path id="Path" fill="#C13131" d="M95 16.2h8v125.2l-8 .6z" transform="translate(0 -1)"/><path id="Path" fill="#C13131" d="M88 16.2h8V142l-8-.6zM119 1c4.8.3 8.5 2 11 5s3.8 5.7 4 8v125l-15 1.2V1z" transform="translate(0 -1)"/><path d="M65 8c-1.5.9-4 2.4-5 4-.3.5-.6.9-.8 1.2-1 1.4-1.9 2.8-2.6 4.4-2.9 6.1-4.8 10.4-5.6 12.9-3.2 9.3-3.3 14-4.1 15.4L29.9 72c-2-.3-4-.8-5.9-1.5-2.9-1-5.9-2.4-5.7-2.6L60.1 3.5c.5-.7 1-1.4 1.6-2.1 0 0 2.9-.3 8.3-.4l2.7 4.6S66.6 7 65 8zM43.9 4.4C34.6 18.8 22.2 37.3 6.9 61c-1.1-.5-2-1.2-2.9-2-.7-.6-1.4-1.3-2-2-1.1-1.4-1.5-3.3-1-5 .8-2.2 1.8-4.4 3-6.5 2.2-4.2 4.9-8.3 6.5-11 1.8-2.9 4.8-7.2 9-13 2.8-4 6.1-7.6 10-10.5 1.9-1.4 3.9-2.5 6-3.5 3.9-1.8 8.6-3.4 8.4-3.1z" id="Path" fill="#BB1212" transform="translate(0 -1)"/><path d="M129.9 1.2l-.1-.2h-8.5l.2.7c.2.7.1 1.6-.5 2.1l-1.5 1.5.9.2c3.8.9 6.4 1.9 7.8 2.9 3.9 2.8 6.3 6.9 8.3 10.2l.1.1c3 5.1 6 14.8 8.9 28.8L161.8 72l.3-.1c2.1-.3 4.1-.8 6.1-1.5 1.6-.6 3.1-1.4 4.6-2.2l.5-.3-43.4-66.7zM190.6 51c-1.4-2.9-2.5-5-3.1-6.3-1.2-2.3-2.3-4.1-3.1-5.5l-.9-1.5-1.2-2c-1.5-2.6-2.6-4.6-3.9-6.5-1.6-2.4-3.5-5-5.5-7.5-1.4-1.8-4-4.7-7.5-8.5-1.1-1.2-2.3-2.2-3.7-3.1-1.4-.9-2.9-1.8-4.5-2.6-2.9-1.3-5.8-2.5-8.8-3.5l-1.4-.4 38.3 57.6.4-.3c1.3-.9 2.5-1.9 3.6-3.1.6-.7 1.1-1.5 1.4-2.4.6-1.4.5-3-.1-4.4z" id="Path" fill="#BB1212" fill-rule="nonzero" transform="translate(0 -1)"/><path d="M116 3H76v.8C76 6.7 96 18 96 18s20-11.3 20-14.2V3z" id="Path" fill="#C7C7C7" transform="translate(0 -1)"/><path d="M96 140l50-2 8 44c.8 3.9.4 6.3-4 7l-41 7c-4.4.7-6.2-1.1-7-5l-6-24v-27z" id="Path" fill="#172D64" transform="translate(0 -1)"/><path d="M96 140l-50-2-7.7 43.9c-.8 3.9-.4 6.3 4 7l40.8 7c4.3.7 6.2-1.1 7-5l6-23.9-.1-27z" id="Path" fill="#073D7E" transform="translate(0 -1)"/><path d="M122 1H70v.9C70 6 96 22 96 22s26-16 26-20.1V1z" id="Path" fill="#BE2424" transform="translate(0 -1)"/><path d="M116 1H76v.8C76 4.7 96 16 96 16s20-11.3 20-14.2V1z" id="Path" fill="#D03E3E" transform="translate(0 -1)"/></g></g></symbol></svg>