<svg width="200" height="200" viewBox="0 0 200 200" version="1.1" xmlns="http://www.w3.org/2000/svg" xmlns:xlink="http://www.w3.org/1999/xlink"><title>Bundesliga/Bayer-Leverkusen</title><defs><path d="M0 .003h24.665s29.725-.469 42.894 11c13.17 11.467 24.56 34.002 27 39C97 55 92 59 83 64c-9.64 5.356-18.44 10.003-22 4-3.56-6.003-10.44-15.997-10.44-15.997s-3.833-32.03-16.411-43.414C24.665.003 0 3.454 0 3.454V.003z" id="path-1"/><path d="M0 .003h24.665s29.725-.469 42.894 11c13.17 11.467 24.56 34.002 27 39C97 55 92 59 83 64c-9.64 5.356-18.44 10.003-22 4-3.56-6.003-10.44-15.997-10.44-15.997s-3.833-32.03-16.411-43.414C24.665.003 0 3.454 0 3.454V.003z" id="path-3"/></defs><symbol viewBox="0 0 200 200" id="b-leverkusen" stroke="none" stroke-width="1" fill="none" fill-rule="evenodd"><path fill="#FFF" d="M0 0h200v200H0z"/><g id="Bayern-Munich"><g id="Kit"><path d="M114 0H76v.781C76 3.662 94.987 15 94.987 15S114 3.662 114 .781V0z" id="inside-neck" fill="#D31818" transform="translate(5 3)"/><path d="M153.32 137h-50l-8 44c-.784 3.856-.37 6.308 4 7l41 7c4.37.692 6.216-1.145 7-5l6-24v-29z" id="shorts" fill="#A00A1B" transform="matrix(-1 0 0 1 253.32 3)"/><path d="M95 137H45l-7.682 43.892c-.78 3.846-.367 6.292 3.979 6.982l40.774 6.983c4.346.69 6.182-1.142 6.962-4.988l5.966-23.94L95 137z" id="shorts" fill="#C40F0F" transform="translate(5 3)"/><path d="M161 0h-25c-4.32.136-26.398 1.285-41 10.05C109.77 21.774 111 59 111 59v78l50 4V0z" id="top-highlight" fill="#C62020" transform="matrix(-1 0 0 1 261 3)"/><path d="M95 0H70c-4.32.136-26.398 1.285-41 10.05C43.77 21.774 45 59 45 59v78l50 4V0z" id="top-highlight" fill="#EF2525" transform="translate(5 3)"/><path d="M0 .003h24.665s29.725-.469 42.894 11c13.17 11.467 24.56 34.002 27 39C97 55 92 59 83 64c-9.64 5.356-18.44 10.003-22 4-3.56-6.003-10.44-15.997-10.44-15.997s-3.833-32.03-16.411-43.414C24.665.003 0 3.454 0 3.454V.003z" id="Mask" fill="#EF2525" transform="matrix(-1 0 0 1 100.176 3)"/><path d="M95 .003h24.665s29.725-.469 42.894 11c13.17 11.467 24.56 34.002 27 39C192 55 187 59 178 64c-9.64 5.356-18.44 10.003-22 4-3.56-6.003-10.44-15.997-10.44-15.997s-3.833-32.03-16.411-43.414C119.665.003 95 3.454 95 3.454V.003z" id="Mask" fill="#C62020" transform="translate(5 3)"/><g id="arm-fill" transform="translate(5 3)"><mask id="mask-2" fill="#fff"><use xlink:href="#path-1"/></mask><use id="Mask" fill="#E22121" transform="matrix(-1 0 0 1 95.176 0)" xlink:href="#path-1"/><path d="M-1.614 56.503c4.709.897 11.358 1.346 19.948 1.346 8.316 0 14.62-.42 18.914-1.262a3 3 0 0 1 3.577 2.945v5.092a3 3 0 0 1-3 3h-40a3 3 0 0 1-3-3V59.45a3 3 0 0 1 3.561-2.947z" id="Rectangle-2" fill="#4C4C4C" mask="url(#mask-2)" transform="scale(-1 1) rotate(-29 0 130.96)"/></g><g id="arm-fill" transform="translate(100 3)"><mask id="mask-4" fill="#fff"><use xlink:href="#path-3"/></mask><use id="Mask" fill="#C40F0F" xlink:href="#path-3"/><path d="M60.147 56.376c4.709.897 11.358 1.346 19.947 1.346 8.316 0 14.621-.421 18.915-1.262a3 3 0 0 1 3.577 2.944v5.093a3 3 0 0 1-3 3h-40a3 3 0 0 1-3-3v-5.174a3 3 0 0 1 3.561-2.947z" id="Rectangle-2" fill="#3D3D3D" mask="url(#mask-4)" transform="rotate(-29 79.586 61.91)"/></g><path d="M121 0L69 .024v.902C69 5 94.988 21 94.988 21S121 4.999 121 .926V0z" id="colar" fill="#3D3D3D" transform="translate(5 3)"/><path d="M115 0H75v.781C75 3.662 94.987 15 94.987 15S115 3.662 115 .781V0z" id="inside-neck" fill="#A00A1B" transform="translate(5 3)"/></g></g></symbol></svg>