<?xml version="1.0" encoding="UTF-8"?>
<svg width="191px" height="196px" viewBox="0 0 191 196" version="1.1" xmlns="http://www.w3.org/2000/svg" xmlns:xlink="http://www.w3.org/1999/xlink">
    <title>AFB1070B-518C-48D0-8AA5-1DF4BD653A1F</title>
    <g id="*Championship-2020-2021" stroke="none" stroke-width="1" fill="none" fill-rule="evenodd">
        <g id="Championship-2019-20" transform="translate(-204.000000, -371.000000)">
            <g id="Barnsley" transform="translate(204.000000, 371.000000)">
                <path d="M114.053,0.103 L76.053,0.103 L76.053,0.884 C76.053,3.765 95.04,15.103 95.04,15.103 C95.04,15.103 114.053,3.765 114.053,0.884 L114.053,0.103 Z" id="inside-neck" fill="#D31818"></path>
                <path d="M95.053,137.103 L145.053,137.103 L153.053,181.103 C153.837,184.959 153.423,187.411 149.053,188.103 L108.053,195.103 C103.683,195.795 101.837,193.958 101.053,190.103 L95.053,166.103 L95.053,137.103 Z" id="shorts" fill="#CCCCCC"></path>
                <path d="M95.053,137.103 L45.053,137.103 L37.371,180.995 C36.592,184.841 37.004,187.287 41.35,187.977 L82.124,194.96 C86.47,195.65 88.306,193.818 89.086,189.972 L95.053,166.031 L95.053,137.103 Z" id="shorts-2" fill="#E6E6E6"></path>
                <path d="M95.053,0.103 L120.053,0.103 C124.373,0.239 146.453,1.388 161.053,10.153 C146.282,21.877 145.053,59.103 145.053,59.103 L145.053,137.103 L95.053,141.103 L95.053,0.103 Z" id="top-highlight" fill="#C62020"></path>
                <path d="M95.053,0.103 L70.053,0.103 C65.733,0.239 43.653,1.388 29.053,10.153 C43.824,21.877 45.053,59.103 45.053,59.103 L45.053,137.103 L95.053,141.103 L95.053,0.103 Z" id="top-highlight-2" fill="#EF2525"></path>
                <path d="M95.229,0.103 L70.563,0.103 C70.563,0.103 40.839,-0.363 27.67,11.103 C14.501,22.569 3.111,45.103 0.67,50.103 C-1.771,55.103 3.229,59.103 12.229,64.103 C21.869,69.459 30.67,74.103 34.229,68.103 C37.788,62.103 44.67,52.103 44.67,52.103 C44.67,52.103 48.502,20.074 61.08,8.689 C70.563,0.103 95.229,3.557 95.229,3.557 L95.229,0.103 Z" id="Mask" fill="#EF2525"></path>
                <path d="M95.053,0.103 L119.718,0.103 C119.718,0.103 149.443,-0.366 162.612,11.103 C175.781,22.572 187.171,45.103 189.612,50.103 C192.053,55.103 187.053,59.103 178.053,64.103 C168.413,69.459 159.612,74.103 156.053,68.103 C152.494,62.103 145.612,52.103 145.612,52.103 C145.612,52.103 141.78,20.074 129.202,8.689 C119.718,0.103 95.053,3.557 95.053,3.557 L95.053,0.103 Z" id="Mask-2" fill="#C62020"></path>
                <g id="Mask-3" fill="#E22121">
                    <path d="M95.229,0.103 L70.563,0.103 C70.563,0.103 40.839,-0.363 27.67,11.103 C14.501,22.569 3.111,45.103 0.67,50.103 C-1.771,55.103 3.229,59.103 12.229,64.103 C21.869,69.459 30.67,74.103 34.229,68.103 C37.788,62.103 44.67,52.103 44.67,52.103 C44.67,52.103 48.502,20.074 61.08,8.689 C70.563,0.103 95.229,3.557 95.229,3.557 L95.229,0.103 Z" id="path-1"></path>
                </g>
                <g id="Mask-4" transform="translate(95.000000, 0.000000)" fill="#C40F0F">
                    <path d="M0.053,0.103 L24.718,0.103 C24.718,0.103 54.443,-0.366 67.612,11.103 C80.781,22.572 92.171,45.103 94.612,50.103 C97.053,55.103 92.053,59.103 83.053,64.103 C73.413,69.459 64.612,74.103 61.053,68.103 C57.494,62.103 50.612,52.103 50.612,52.103 C50.612,52.103 46.78,20.074 34.202,8.689 C24.718,0.103 0.053,3.557 0.053,3.557 L0.053,0.103 Z" id="path-3"></path>
                </g>
                <path d="M104.358,15.103 C111.821,10.115 121.053,3.455 121.053,1.029 L121.053,0.103 L69.053,0.127 L69.053,1.027 C69.053,3.455 78.276,10.115 85.734,15.103" id="colar" fill="#E6E6E6"></path>
                <path d="M115.053,0.103 L75.053,0.103 L75.053,0.884 C75.053,3.765 95.04,15.103 95.04,15.103 C95.04,15.103 115.053,3.765 115.053,0.884 L115.053,0.103 Z" id="inside-neck-2" fill="#A00A1B"></path>
                <path d="M69.053,0.127 L62.089,0.17 L62.089,0.17 L57.839,0.503 L54.519,0.933 C54.519,0.933 35.149,3.323 27.709,10.793 C20.269,18.263 19.579,19.503 19.579,19.503 C19.579,19.503 32.209,10.843 42.029,7.813 C51.849,4.783 71.153,4.003 71.153,4.003 L69.053,0.127 Z" id="Path" fill="#E6E6E6"></path>
                <path d="M121.053,0.103 L128.389,0.003 L128.389,0.003 L132.569,0.373 L135.889,0.793 C135.889,0.793 155.269,3.183 162.709,10.663 C170.149,18.143 170.879,19.283 170.879,19.283 C170.879,19.283 158.239,10.613 148.429,7.583 C138.619,4.553 119.229,3.813 119.229,3.813 L121.053,0.103 Z" id="Path" fill="#CCCCCC"></path>
                <path d="M44.553,52.28 L45.053,137.103 L49.675,137.473 L49.353,30.213 C45.513,39.035 45.553,42.711 44.553,52.28 Z" id="Path" fill="#E6E6E6"></path>
                <path d="M145.433,52.054 L145.053,137.103 L140.366,137.473 L140.2,30.213 C144.034,39.019 144.429,42.503 145.433,52.054 Z" id="Path" fill="#CCCCCC"></path>
                <path d="M1.525,48.373 C0.955655299,49.3176057 0.496012561,50.3241226 0.155,51.373 C-0.103650127,52.414525 -0.0373476,53.5102615 0.345,54.513 C1.895,57.643 5.425,60.513 12.995,64.933 C18.605,67.933 21.415,69.453 25.165,70.603 C27.935,71.473 31.415,72.243 34.165,68.363 C34.405,68.363 24.605,63.303 16.645,58.683 C11.3852368,55.5802453 6.3344186,52.1362019 1.525,48.373 L1.525,48.373 Z" id="Path" fill="#E6E6E6"></path>
                <path d="M188.789,48.381 C189.363719,49.3241341 189.826829,50.3308939 190.169,51.381 C190.438976,52.4300053 190.379979,53.5366453 190,54.551 C188.449,57.671 184.919,60.551 177.36,64.961 C171.74,67.961 168.94,69.481 165.18,70.641 C162.41,71.501 158.93,72.271 156.18,68.401 C155.94,68.401 165.74,63.341 173.7,58.721 C178.950351,55.6079777 183.990839,52.1538953 188.789,48.381 L188.789,48.381 Z" id="Path" fill="#CCCCCC"></path>
            </g>
        </g>
    </g>
</svg>