<?xml version="1.0" encoding="UTF-8"?>
<svg width="192px" height="196px" viewBox="0 0 192 196" version="1.1" xmlns="http://www.w3.org/2000/svg" xmlns:xlink="http://www.w3.org/1999/xlink">
    <title>7F58B48B-ADA1-4708-B6A4-198C69FC9D39</title>
    <g id="*Championship-2020-2021" stroke="none" stroke-width="1" fill="none" fill-rule="evenodd">
        <g id="Championship-2019-20" transform="translate(-504.000000, -369.000000)">
            <g id="Birmingham-City" transform="translate(504.000000, 369.000000)">
                <path d="M96,137 L46,137 L38.3,180.9 C37.5,184.7 37.9,187.2 42.3,187.9 L83.1,194.9 C87.4,195.6 89.3,193.8 90.1,189.9 L96.1,166 L96,137 Z" id="shorts" fill="#E6E6E6"></path>
                <path d="M96,137 L146,137 L154,181 C154.8,184.9 154.4,187.3 150,188 L109,195 C104.6,195.7 102.8,193.9 102,190 L96,166 L96,137 Z" id="shorts_1_" fill="#CCCCCC"></path>
                <path d="M115,0 L77,0 L77,0.8 C77,3.7 96,15 96,15 C96,15 115,3.7 115,0.8 L115,0 Z" id="inside-neck" fill="#D31818"></path>
                <g id="Mask" transform="translate(96.000000, 0.000000)" fill="#CCCCCC">
                    <path d="M0,0 L24.7,0 C24.7,0 54.4,-0.5 67.6,11 C80.8,22.5 92.2,45 94.6,50 C97,55 92,59 83,64 C73.4,69.4 64.6,74 61,68 C57.4,62 50.6,52 50.6,52 C50.6,52 46.7,20 34.1,8.6 C24.7,0 0,3.5 0,3.5 L0,0 Z" id="path-1_1_"></path>
                </g>
                <g id="Mask_1_" transform="translate(48.000000, 35.500000) scale(-1, 1) translate(-48.000000, -35.500000) " fill="#E6E6E6">
                    <path d="M0,0 L24.6,0 C24.6,0 54.3,-0.5 67.4,11 C80.5,22.5 91.9,45.1 94.4,50.1 C96.9,55.1 91.8,59.1 82.9,64.1 C73.3,69.5 64.5,74.1 60.9,68.1 C57.3,62.1 50.5,52.1 50.5,52.1 C50.5,52.1 46.6,20 34.1,8.6 C24.6,0 0,3.5 0,3.5 L0,0 Z" id="path-3_1_"></path>
                </g>
                <path d="M96,0 C110.8,0 119.1,0 121,0 C125.3,0.1 148.8,0 162.2,10.1 C147.4,22.1 146,60.3 146,60.3 L146,136.9 L96,141 L96,0 Z" id="top-highlight" fill="#1157A9"></path>
                <path d="M96,0 C81.2,0 71.9,0 70,0 C65.7,0.1 42,0.3 29.9,10 C44.6,21.7 46,59 46,59 L46,137 L96,141 L96,0 Z" id="top-highlight_1_" fill="#1C76DF"></path>
                <path d="M122,0 L70,0 L70,0.9 C70,5 96,21 96,21 C96,21 122,5 122,0.9 L122,0 Z" id="colar" fill="#E6E6E6"></path>
                <polygon id="Rectangle_2_" fill="#1C76DF" points="96 15 94 13 87 21 96 22"></polygon>
                <polygon id="Rectangle_3_" fill="#1157A9" points="96 15 98 13 106 21 96 22"></polygon>
                <path d="M116,0 L76,0 L76,0.8 C76,3.7 96,15 96,15 C96,15 116,3.7 116,0.8 L116,0 Z" id="inside-neck_1_" fill="#1157A9"></path>
                <polygon id="Path" fill="#CCCCCC" points="146 94 140.6 98 140.6 137.4 146 136.9"></polygon>
                <polygon id="Path" fill="#E6E6E6" points="46 94.1 51.4 98.1 51.4 137.5 46 137"></polygon>
            </g>
        </g>
    </g>
</svg>