<?xml version="1.0" encoding="utf-8"?>
<!-- Generator: Adobe Illustrator 25.0.1, SVG Export Plug-In . SVG Version: 6.00 Build 0)  -->
<svg version="1.1" id="Layer_1" xmlns="http://www.w3.org/2000/svg" xmlns:xlink="http://www.w3.org/1999/xlink" x="0px" y="0px"
	 viewBox="0 0 200 200" style="enable-background:new 0 0 200 200;" xml:space="preserve">
<g id="Premier-League_x2F_Bournemouth">
	<g id="Kit" transform="translate(4.000000, 3.000000)">
		<path id="inside-neck" style="fill-rule:evenodd;clip-rule:evenodd;fill:#D31818;" d="M115,0H77v0.8C77,3.7,96,15,96,15
			s19-11.3,19-14.2V0z"/>
		<path id="shorts" style="fill-rule:evenodd;clip-rule:evenodd;fill:#282828;" d="M96,137h49.7l8,43.9c0.8,3.8,0.4,6.3-4,7l-40.8,7
			c-4.3,0.7-6.2-1.1-7-5l-6-23.9L96,137z"/>
		<path id="shorts_1_" style="fill-rule:evenodd;clip-rule:evenodd;fill:#282828;" d="M96,137H46l-7.7,43.9c-0.8,3.8-0.4,6.3,4,7
			l40.8,7c4.3,0.7,6.2-1.1,7-5l6-23.9L96,137z"/>
		<path id="top-highlight" style="fill-rule:evenodd;clip-rule:evenodd;fill:#BB1515;" d="M96,0c14.8,0,23.1,0,25,0
			c4.3,0.1,26.4,1.3,41,10.1C147.2,21.8,146,59,146,59v78l-50,4V0z"/>
		<path id="top-highlight_1_" style="fill-rule:evenodd;clip-rule:evenodd;fill:#D31818;" d="M96,0C81.2,0,72.9,0,71,0
			c-4.3,0.1-26.4,1.3-41,10.1C44.8,21.8,46,59,46,59v78l50,4V0z"/>
		<path id="stripe" style="fill-rule:evenodd;clip-rule:evenodd;fill:#282828;" d="M73,0v147H58V13.7c0-3,1.2-6.1,3.8-9.1S68,0,73,0
			z"/>
		<polygon id="stripe_1_" style="fill-rule:evenodd;clip-rule:evenodd;fill:#282828;" points="96,15 104,15 104,143 96,143"/>
		<polygon id="stripe_2_" style="fill-rule:evenodd;clip-rule:evenodd;fill:#282828;" points="88,15 96,15 96,143 88,143"/>
		<g id="arm-fill" transform="translate(96.000000, 0.000000)">
			<g id="Mask">
				<path id="path-1_1_" style="fill-rule:evenodd;clip-rule:evenodd;fill:#A50F0F;" d="M0,0h24.7c0,0,29.7-0.5,42.9,11
					c13.2,11.5,24.6,34,27,39C97,55,92,59,83,64c-9.6,5.4-18.4,10-22,4c-3.6-6-10.4-16-10.4-16S46.7,20,34.1,8.6C24.7,0,0,3.5,0,3.5
					V0z"/>
			</g>
			<defs>
				<filter id="Adobe_OpacityMaskFilter" filterUnits="userSpaceOnUse" x="19" y="-1.4" width="79" height="60.4">
					<feColorMatrix  type="matrix" values="1 0 0 0 0  0 1 0 0 0  0 0 1 0 0  0 0 0 1 0"/>
				</filter>
			</defs>
			<mask maskUnits="userSpaceOnUse" x="19" y="-1.4" width="79" height="60.4" id="mask-2_1_">
				<g style="filter:url(#Adobe_OpacityMaskFilter);">
					<path id="path-1_2_" style="fill-rule:evenodd;clip-rule:evenodd;fill:#FFFFFF;" d="M0,0h24.7c0,0,29.7-0.5,42.9,11
						c13.2,11.5,24.6,34,27,39C97,55,92,59,83,64c-9.6,5.4-18.4,10-22,4c-3.6-6-10.4-16-10.4-16S46.7,20,34.1,8.6
						C24.7,0,0,3.5,0,3.5V0z"/>
				</g>
			</mask>
			<path id="Fill-1" style="mask:url(#mask-2_1_);fill-rule:evenodd;clip-rule:evenodd;fill:#282828;" d="M93,59c-9-19-18-33-28-43
				c-7.4-7.4-17-9-22-9s-5,2-5,6C38,23,18.4,2.6,19,2c0.7-0.7,1-1.3,1-2c40-6.7,66,11.3,78,54C95.4,56.3,93.8,57.9,93,59z"/>
		</g>
		<g id="arm-fill_1_" transform="translate(48.000000, 35.500000) scale(-1, 1) translate(-48.000000, -35.500000) ">
			<g id="Mask_1_">
				<path id="path-3_1_" style="fill-rule:evenodd;clip-rule:evenodd;fill:#C51212;" d="M0,0h24.7c0,0,29.7-0.5,42.9,11
					c13.2,11.5,24.6,34,27,39C97,55,92,59,83,64c-9.6,5.4-18.4,10-22,4c-3.6-6-10.4-16-10.4-16S46.7,20,34.1,8.6C24.7,0,0,3.5,0,3.5
					V0z"/>
			</g>
			<defs>
				<filter id="Adobe_OpacityMaskFilter_1_" filterUnits="userSpaceOnUse">
					<feColorMatrix  type="matrix" values="1 0 0 0 0  0 1 0 0 0  0 0 1 0 0  0 0 0 1 0"/>
				</filter>
			</defs>
			<mask maskUnits="userSpaceOnUse" id="mask-4_1_">
				<g style="filter:url(#Adobe_OpacityMaskFilter_1_);">
					<path id="path-3_2_" style="fill-rule:evenodd;clip-rule:evenodd;fill:#FFFFFF;" d="M0,0h24.7c0,0,29.7-0.5,42.9,11
						c13.2,11.5,24.6,34,27,39C97,55,92,59,83,64c-9.6,5.4-18.4,10-22,4c-3.6-6-10.4-16-10.4-16S46.7,20,34.1,8.6
						C24.7,0,0,3.5,0,3.5V0z"/>
				</g>
			</mask>
			<path id="Fill-1_1_" style="mask:url(#mask-4_1_);fill-rule:evenodd;clip-rule:evenodd;fill:#282828;" d="M93,59
				c-9-19-18-33-28-43c-7.4-7.4-17-9-22-9s-5,2-5,6C38,23,18.4,2.6,19,2c0.7-0.7,1-1.3,1-2c40-6.7,66,11.3,78,54
				C95.4,56.3,93.8,57.9,93,59z"/>
		</g>
		<path id="stripe_3_" style="fill-rule:evenodd;clip-rule:evenodd;fill:#282828;" d="M119,0c4.8,0.3,8.5,2,11,5s3.8,5.7,4,8v134
			h-15V0z"/>
		<path id="colar" style="fill-rule:evenodd;clip-rule:evenodd;fill:#282828;" d="M122,0L70,0v0.9C70,5,96,21,96,21s26-16,26-20.1V0
			z"/>
		<path id="inside-neck_1_" style="fill-rule:evenodd;clip-rule:evenodd;fill:#B80C0C;" d="M116,0H76v0.8C76,3.7,96,15,96,15
			s20-11.3,20-14.2V0z"/>
	</g>
</g>
</svg>