<?xml version="1.0" encoding="UTF-8"?>
<svg width="192px" height="196px" viewBox="0 0 192 196" version="1.1" xmlns="http://www.w3.org/2000/svg" xmlns:xlink="http://www.w3.org/1999/xlink">
    <title>D8CDA626-68E8-49A3-BB16-95CFD4D3E420</title>
    <g id="*Championship-2020-2021" stroke="none" stroke-width="1" fill="none" fill-rule="evenodd">
        <g id="Championship-2019-20" transform="translate(-1399.000000, -369.000000)">
            <g id="Brentford-FC" transform="translate(1399.000000, 369.000000)">
                <path d="M115.2,0 L77.2,0 L77.2,0.8 C77.2,3.7 96.2,15 96.2,15 C96.2,15 115.2,3.7 115.2,0.8 L115.2,0 Z" id="inside-neck" fill="#D31818"></path>
                <path d="M96.2,137 L146.2,137 L154.2,181 C155,184.9 154.6,187.3 150.2,188 L109.2,195 C104.8,195.7 103,193.9 102.2,190 L96.2,166 L96.2,137 L96.2,137 Z" id="shorts" fill="#121212"></path>
                <path d="M96.2,137 L46.2,137 L38.5,180.9 C37.7,184.8 38.1,187.2 42.5,187.9 L83.3,194.9 C87.6,195.6 89.5,193.8 90.3,189.9 L96.3,166 L96.2,137 Z" id="shorts-2" fill="#303030"></path>
                <path d="M96.2,0 L121.2,0 C125.5,0.1 147.6,1.3 162.2,10.1 C147.4,21.8 146.2,59.1 146.2,59.1 L146.2,137.1 L96.2,141.1 L96.2,0 Z" id="top-highlight" fill="#BF1836"></path>
                <path d="M96.2,0 L71.2,0 C66.9,0.1 44.8,1.3 30.2,10.1 C45,21.8 46.2,59 46.2,59 L46.2,137 L96.2,141 L96.2,0 Z" id="top-highlight-2" fill="#CA1D3C"></path>
                <path d="M96.2,3.51281504e-16 L71.5,3.51281504e-16 C71.5,3.51281504e-16 41.8,-0.5 28.6,11 C15.4,22.5 4.1,45 1.6,50 C-0.9,55 4.2,59 13.2,64 C22.8,69.4 31.6,74 35.2,68 C38.8,62 45.6,52 45.6,52 C45.6,52 49.5,20 62,8.6 C71.5,3.51281504e-16 96.2,3.5 96.2,3.5 L96.2,3.51281504e-16 Z" id="path-1" fill="#CA1D3C"></path>
                <path d="M96.2,3.51281504e-16 L120.9,3.51281504e-16 C120.9,3.51281504e-16 150.6,-0.5 163.8,11 C177,22.5 188.4,45 190.8,50 C193.2,55 188.2,59 179.2,64 C169.6,69.4 160.8,74 157.2,68 C153.6,62 146.8,52 146.8,52 C146.8,52 143,20 130.4,8.6 C120.8,3.51281504e-16 96.2,3.5 96.2,3.5 L96.2,3.51281504e-16 Z" id="path-3" fill="#BF1836"></path>
                <path d="M74.2,4.9 L74.2,139.2 L59.2,138 L59.2,13.7 C59.2,10.7 59.3,9.5 59.2,4.6 L74.2,4.9" id="stripe-2" stroke="#1D1D1B" stroke-width="0.5" fill="#EDEDED" stroke-linejoin="round"></path>
                <polygon id="stripe-4" fill="#EDEDED" points="88.2 15.2 104.3 15.2 104.3 140.4 96.2 141.1 88.2 140.4"></polygon>
                <polygon id="Path" fill="#CA1D3C" points="35.7 7.5 77.2 6.4 70.2 0"></polygon>
                <path d="M117.7,4.8 L132.7,4.6 C132.6,9.5 132.7,10.7 132.7,13.7 L132.7,138 L117.7,139.2 L117.7,4.8" id="stripe-5" stroke="#1D1D1B" stroke-width="0.5" fill="#EDEDED" stroke-linecap="round" stroke-linejoin="round"></path>
                <polygon id="Path" fill="#BF1836" points="156.2 7.5 114.7 6.4 121.7 0"></polygon>
                <path d="M122.2,0 L70.2,0 L70.2,0.9 C70.2,5 96.2,21 96.2,21 C96.2,21 122.2,5 122.2,0.9 L122.2,0 Z" id="colar" fill="#000000" fill-rule="nonzero"></path>
                <path d="M96.2,15 C96.2,15 116.2,3.7 116.2,0.8 L116.2,0 L76.2,0 L76.2,0.8 C76.2,3.7 96.2,15 96.2,15 L96.2,15 Z" id="inside-neck-2" fill="#D8D8D8"></path>
                <path d="M96.2,21.4 L88.2,16.2 C88.2,16.2 87.4,11.1 80.8,5.4 L96.2,15" id="Path" fill="#EDEDED"></path>
                <path d="M96.2,15 L96.2,21.3 L96.2,21.3 L104.2,16.1 C104.2,16.1 105,10.9 111.6,5.3" id="Path" fill="#EDEDED"></path>
                <path d="M88.2,140.4 L88.2,16 C88.2,15.7 88.1,15.4 88,15.1 C87.5,13.8 86.8,12.6 85.9,11.5" id="Path" stroke="#000000" stroke-width="0.5"></path>
                <path d="M104.3,140.4 L104.3,16 C104.3,15.7 104.4,15.4 104.5,15.1 C105,13.8 105.7,12.6 106.6,11.5" id="Path" stroke="#000000" stroke-width="0.5"></path>
                <path d="M46.2,137 L49.4,137.3 L40.5,187.4 C40.5,187.4 37,186.6 38.4,180.9 L46.2,137 Z" id="Path" fill="#C31D3A"></path>
                <path d="M146.2,137 L143.3,137.2 L152.2,187.4 C152.2,187.4 155.7,186.6 154.3,180.9 L146.2,137 Z" id="Path" fill="#B41733"></path>
            </g>
        </g>
    </g>
</svg>