<?xml version="1.0" encoding="UTF-8"?>
<svg width="192px" height="196px" viewBox="0 0 192 196" version="1.1" xmlns="http://www.w3.org/2000/svg" xmlns:xlink="http://www.w3.org/1999/xlink">
    <!-- Generator: sketchtool 62 (101010) - https://sketch.com -->
    <title>72E5FDFD-65D9-4CF4-BAF1-CE277FE4CAB5</title>
    <desc>Created with sketchtool.</desc>
    <g id="--Premier-League-2020-21" stroke="none" stroke-width="1" fill="none" fill-rule="evenodd">
        <g id="Premier-League-2020-21" transform="translate(-1103.000000, -259.000000)">
            <g id="Brighton" transform="translate(1103.000000, 259.000000)">
                <g id="Asset-1">
                    <path d="M95.7,141.2 L145.7,137.2 L153.7,181.2 C154.5,185.1 154.1,187.5 149.7,188.2 L108.7,195.2 C104.3,195.9 102.5,194.1 101.7,190.2 L95.7,166.2 L95.7,141.2 L95.7,141.2 Z" id="shorts" fill="#F9F9F9"></path>
                    <path d="M95.7,141.2 L45.7,137.2 L38,181.1 C37.2,184.9 37.6,187.4 42,188.1 L82.8,195.1 C87.1,195.8 89,194 89.8,190.1 L95.8,166.2 L95.7,141.2 Z" id="Path" fill="#F9F9F9"></path>
                    <path d="M95.7,0.2 L120.7,0.2 C125,0.3 147.1,1.5 161.7,10.3 C146.9,22 145.7,59.2 145.7,59.2 L145.7,137.2 L95.7,141.2 L95.7,0.2 Z" id="Path-2" fill="#194093"></path>
                    <path d="M95.7,0.2 L70.7,0.2 C66.4,0.3 44.3,1.5 29.7,10.3 C44.5,22 45.7,59.2 45.7,59.2 L45.7,137.2 L95.7,141.2 L95.7,0.2 Z" id="Path-3" fill="#284798"></path>
                    <path d="M96,0.2 L71.2,0.2 C71.2,0.2 41.5,-0.3 28.3,11.2 C15.1,22.7 3.8,45.2 1.3,50.2 C-1.2,55.2 3.9,59.2 12.9,64.2 C22.5,69.6 31.3,74.2 34.9,68.2 C38.5,62.2 45.3,52.2 45.3,52.2 C45.3,52.2 49.1,20.2 61.7,8.8 C71.2,0.2 95.8,3.7 95.8,3.7 L96,0.2 Z" id="Path-4" fill="#3056A3"></path>
                    <path d="M95.7,0.2 L120.4,0.2 C120.4,0.2 150.1,-0.3 163.3,11.2 C176.5,22.7 187.9,45.2 190.3,50.2 C192.7,55.2 187.7,59.2 178.7,64.2 C169.1,69.6 160.3,74.2 156.7,68.2 C153.1,62.2 146.3,52.2 146.3,52.2 C146.3,52.2 142.5,20.2 129.9,8.8 C120.4,0.2 95.7,3.7 95.7,3.7 L95.7,0.2 Z" id="Path-5" fill="#213B76"></path>
                    <path d="M121.7,0.2 L69.7,0.2 L69.7,1.1 C69.7,5.2 95.7,21.2 95.7,21.2 C95.7,21.2 121.7,5.2 121.7,1.1 L121.7,0.2 Z" id="colar" fill="#FFFFFF"></path>
                    <path d="M115.7,0.2 L75.7,0.2 L75.7,1 C75.7,3.9 95.7,15.2 95.7,15.2 C95.7,15.2 115.7,3.9 115.7,1 L115.7,0.2 Z" id="Path-6" fill="#1B2748"></path>
                </g>
                <line x1="72.4" y1="3.8" x2="73.1" y2="140.8" id="Path" stroke="#FFFFFF" stroke-width="2"></line>
                <line x1="84.1" y1="13" x2="84.9" y2="140.6" id="Path" stroke="#FFFFFF" stroke-width="2"></line>
                <line x1="119.4" y1="3.4" x2="120.9" y2="140.5" id="Path" stroke="#FFFFFF" stroke-width="2"></line>
                <line x1="106.3" y1="13" x2="106.7" y2="141.2" id="Path" stroke="#FFFFFF" stroke-width="2"></line>
                <line x1="134.3" y1="10.6" x2="135.4" y2="139.5" id="Path" stroke="#FFFFFF" stroke-width="2"></line>
                <line x1="60.1" y1="9.8" x2="61.2" y2="138.7" id="Path" stroke="#FFFFFF" stroke-width="2"></line>
                <path d="M58.6,9.5 L58.9,11.6 L58.9,11.7 C58.9,11.7 61.2,8.9 62.1,8.1 L58.6,9.5 Z" id="Path" fill="#325DA8" fill-rule="nonzero"></path>
                <path d="M132.7,11.7 C132.7,11.7 135.1,15.1 135.4,15.7 L136.1,9 L133.4,9.2 L132.7,11.7 Z" id="Path" fill="#1A3C6D"></path>
                <line x1="95.7" y1="20.7" x2="96.1" y2="141.4" id="Path" stroke="#FFFFFF" stroke-width="2"></line>
                <path d="M1.6,49.9 C1.6,49.9 -0.2,51.9 1.1,55.4 L1.1,55.4 C2,56.9 3.2,58.1 4.6,59.1 C4.6,59.1 14.7,66 22.3,69.1 C27.9,71.5 31.9,72.1 34.6,69.2" id="Path" fill="#FFFFFF"></path>
                <path d="M157.6,69.5 C160.3,72.4 164.2,71.8 169.8,69.4 C177.4,66.3 187.4,59.4 187.4,59.4 C188.8,58.4 190,57.2 190.9,55.7 L190.9,55.7 C192.2,52.2 190.4,50.2 190.4,50.2" id="Path" fill="#FFFFFF"></path>
                <polygon id="Path" fill="#284798" points="95.7 15.2 93.3 13.8 88.2 16.5 95.7 21.6"></polygon>
                <polygon id="Path" fill="#284798" points="95.7 15.2 98.1 13.8 103.1 16.5 95.7 21.6"></polygon>
            </g>
        </g>
    </g>
</svg>