<?xml version="1.0" encoding="utf-8"?>
<!-- Generator: Adobe Illustrator 25.0.1, SVG Export Plug-In . SVG Version: 6.00 Build 0)  -->
<svg version="1.1" xmlns="http://www.w3.org/2000/svg" xmlns:xlink="http://www.w3.org/1999/xlink" x="0px" y="0px"
	 viewBox="0 0 200 200" style="enable-background:new 0 0 200 200;" xml:space="preserve">
<g id="Layer_1">
</g>
<g id="Layer_2">
	<g>
		<defs>
			<path id="SVGID_1_" d="M100,139.4h50l8,44c0.8,3.9,0.4,6.3-4,7l-41,7c-4.4,0.7-6.2-1.1-7-5l-6-24L100,139.4z"/>
		</defs>
		<clipPath id="SVGID_2_">
			<use xlink:href="#SVGID_1_"  style="overflow:visible;"/>
		</clipPath>
		<rect x="95" y="134.4" style="clip-path:url(#SVGID_2_);fill:#CCCCCC;" width="68.3" height="68.1"/>
	</g>
	<g>
		<defs>
			<path id="SVGID_3_" d="M100,139.4H50l-7.7,43.9c-0.8,3.8-0.4,6.3,4,7l40.8,7c4.3,0.7,6.2-1.1,7-5l6-23.9L100,139.4z"/>
		</defs>
		<clipPath id="SVGID_4_">
			<use xlink:href="#SVGID_3_"  style="overflow:visible;"/>
		</clipPath>
		<rect x="37" y="134.4" style="clip-path:url(#SVGID_4_);fill:#E6E6E6;" width="68" height="68"/>
	</g>
	<g>
		<defs>
			<path id="SVGID_5_" d="M119,2.4H81v0.8c0,2.9,19,14.2,19,14.2s19-11.3,19-14.2V2.4z"/>
		</defs>
		<clipPath id="SVGID_6_">
			<use xlink:href="#SVGID_5_"  style="overflow:visible;"/>
		</clipPath>
		<rect x="76" y="-2.6" style="clip-path:url(#SVGID_6_);fill:#D31818;" width="48" height="25"/>
	</g>
	<g>
		<defs>
			<path id="SVGID_7_" d="M100,2.4c14.8,0,23.1,0,25,0c4.3,0.1,26.4,1.3,41,10.1c-14.8,11.7-16,48.9-16,48.9v78l-50,4V2.4z"/>
		</defs>
		<clipPath id="SVGID_8_">
			<use xlink:href="#SVGID_7_"  style="overflow:visible;"/>
		</clipPath>
		<g style="clip-path:url(#SVGID_8_);enable-background:new    ;">
			<g>
				<defs>
					<rect id="SVGID_9_" x="95" y="-2.6" width="76" height="151"/>
				</defs>
				<clipPath id="SVGID_10_">
					<use xlink:href="#SVGID_9_"  style="overflow:visible;"/>
				</clipPath>
				<g style="clip-path:url(#SVGID_10_);">
					<defs>
						<rect id="SVGID_11_" x="100" y="2.4" width="66" height="141"/>
					</defs>
					<clipPath id="SVGID_12_">
						<use xlink:href="#SVGID_11_"  style="overflow:visible;"/>
					</clipPath>
					<rect x="95" y="-2.6" style="clip-path:url(#SVGID_12_);fill:#B01625;" width="76" height="151"/>
				</g>
			</g>
		</g>
	</g>
	<g>
		<defs>
			<path id="SVGID_13_" d="M100,2.4c-14.8,0-23.1,0-25,0c-4.3,0.1-26.4,1.3-41,10.1c14.8,11.7,16,48.9,16,48.9v78l50,4V2.4z"/>
		</defs>
		<clipPath id="SVGID_14_">
			<use xlink:href="#SVGID_13_"  style="overflow:visible;"/>
		</clipPath>
		<g style="clip-path:url(#SVGID_14_);enable-background:new    ;">
			<g>
				<defs>
					<rect id="SVGID_15_" x="29" y="-2.6" width="76" height="151"/>
				</defs>
				<clipPath id="SVGID_16_">
					<use xlink:href="#SVGID_15_"  style="overflow:visible;"/>
				</clipPath>
				<g style="clip-path:url(#SVGID_16_);">
					<defs>
						<rect id="SVGID_17_" x="34" y="2.4" width="66" height="141"/>
					</defs>
					<clipPath id="SVGID_18_">
						<use xlink:href="#SVGID_17_"  style="overflow:visible;"/>
					</clipPath>
					<rect x="29" y="-2.6" style="clip-path:url(#SVGID_18_);fill:#CC1426;" width="76" height="151"/>
				</g>
			</g>
		</g>
	</g>
	<g>
		<defs>
			<path id="SVGID_19_" d="M100,2.4h24.7c0,0,29.7-0.5,42.9,11c13.2,11.5,24.6,34,27,39c2.4,5-2.6,9-11.6,14c-9.6,5.4-18.4,10-22,4
				s-10.4-16-10.4-16s-3.8-32-16.4-43.4C124.7,2.4,100,5.9,100,5.9V2.4z"/>
		</defs>
		<clipPath id="SVGID_20_">
			<use xlink:href="#SVGID_19_"  style="overflow:visible;"/>
		</clipPath>
		<g style="clip-path:url(#SVGID_20_);enable-background:new    ;">
			<g>
				<defs>
					<rect id="SVGID_21_" x="94" y="-2.6" width="107" height="82"/>
				</defs>
				<clipPath id="SVGID_22_">
					<use xlink:href="#SVGID_21_"  style="overflow:visible;"/>
				</clipPath>
				<g style="clip-path:url(#SVGID_22_);">
					<defs>
						<rect id="SVGID_23_" x="99" y="2.4" width="97" height="75"/>
					</defs>
					<clipPath id="SVGID_24_">
						<use xlink:href="#SVGID_23_"  style="overflow:visible;"/>
					</clipPath>
					<rect x="95" y="-2.6" style="clip-path:url(#SVGID_24_);fill:#B61323;" width="105.2" height="80.8"/>
				</g>
				<g style="clip-path:url(#SVGID_22_);">
					<defs>
						<path id="SVGID_25_" d="M179,61.4c7.5-4.3,12.7-7.6,15.6-10c0.6,1.1,0.9,1.9,1,2c2.4,5-2.6,9-11.6,14c-9.6,5.4-19.4,11-23,5
							c-0.1-0.1-0.4-0.7-0.9-1.6C164.3,69.5,170.6,66.4,179,61.4z"/>
					</defs>
					<clipPath id="SVGID_26_">
						<use xlink:href="#SVGID_25_"  style="overflow:visible;"/>
					</clipPath>
					<g style="clip-path:url(#SVGID_26_);">
						<defs>
							<rect id="SVGID_27_" x="99" y="2.4" width="97" height="75"/>
						</defs>
						<clipPath id="SVGID_28_">
							<use xlink:href="#SVGID_27_"  style="overflow:visible;"/>
						</clipPath>
						<rect x="155.1" y="46.5" style="clip-path:url(#SVGID_28_);fill:#E6E6E6;" width="46.1" height="33.5"/>
					</g>
				</g>
			</g>
		</g>
	</g>
	<g>
		<defs>
			<path id="SVGID_29_" d="M100,2.4H75.3c0,0-29.7-0.5-42.9,11c-13.2,11.5-24.6,34-27,39c-2.4,5,2.6,9,11.6,14c9.6,5.4,18.4,10,22,4
				s10.4-16,10.4-16s3.8-32,16.4-43.4C75.3,2.4,100,5.9,100,5.9V2.4z"/>
		</defs>
		<clipPath id="SVGID_30_">
			<use xlink:href="#SVGID_29_"  style="overflow:visible;"/>
		</clipPath>
		<g style="clip-path:url(#SVGID_30_);enable-background:new    ;">
			<g>
				<defs>
					<rect id="SVGID_31_" x="-1" y="-2.6" width="107" height="82"/>
				</defs>
				<clipPath id="SVGID_32_">
					<use xlink:href="#SVGID_31_"  style="overflow:visible;"/>
				</clipPath>
				<g style="clip-path:url(#SVGID_32_);">
					<defs>
						<rect id="SVGID_33_" x="4" y="2.4" width="97" height="75"/>
					</defs>
					<clipPath id="SVGID_34_">
						<use xlink:href="#SVGID_33_"  style="overflow:visible;"/>
					</clipPath>
					<rect x="-0.2" y="-2.6" style="clip-path:url(#SVGID_34_);fill:#B61323;" width="105.2" height="80.8"/>
				</g>
				<g style="clip-path:url(#SVGID_32_);">
					<defs>
						<path id="SVGID_35_" d="M21,61.4c-7.5-4.3-12.7-7.6-15.6-10c-0.6,1.1-0.9,1.9-1,2c-2.4,5,2.6,9,11.6,14c9.6,5.4,19.4,11,23,5
							c0.1-0.1,0.4-0.7,0.9-1.6C35.7,69.5,29.4,66.4,21,61.4z"/>
					</defs>
					<clipPath id="SVGID_36_">
						<use xlink:href="#SVGID_35_"  style="overflow:visible;"/>
					</clipPath>
					<g style="clip-path:url(#SVGID_36_);">
						<defs>
							<rect id="SVGID_37_" x="4" y="2.4" width="97" height="75"/>
						</defs>
						<clipPath id="SVGID_38_">
							<use xlink:href="#SVGID_37_"  style="overflow:visible;"/>
						</clipPath>
						<rect x="-1.2" y="46.5" style="clip-path:url(#SVGID_38_);fill:#E6E6E6;" width="46.1" height="33.5"/>
					</g>
				</g>
			</g>
		</g>
	</g>
	<g>
		<defs>
			<path id="SVGID_39_" d="M126,2.4l-52,0v0.9c0,4.1,26,20.1,26,20.1s26-16,26-20.1V2.4z"/>
		</defs>
		<clipPath id="SVGID_40_">
			<use xlink:href="#SVGID_39_"  style="overflow:visible;"/>
		</clipPath>
		<rect x="69" y="-2.6" style="clip-path:url(#SVGID_40_);fill:#B61323;" width="62" height="31"/>
	</g>
	<g>
		<defs>
			<path id="SVGID_41_" d="M120,2.4H80v0.8c0,2.9,20,14.2,20,14.2s20-11.3,20-14.2V2.4z"/>
		</defs>
		<clipPath id="SVGID_42_">
			<use xlink:href="#SVGID_41_"  style="overflow:visible;"/>
		</clipPath>
		<rect x="75" y="-2.6" style="clip-path:url(#SVGID_42_);fill:#6C0214;" width="50" height="25"/>
	</g>
</g>
</svg>