<?xml version="1.0" encoding="UTF-8"?>
<svg width="191px" height="195px" viewBox="0 0 191 195" version="1.1" xmlns="http://www.w3.org/2000/svg" xmlns:xlink="http://www.w3.org/1999/xlink">
    <!-- Generator: sketchtool 62 (101010) - https://sketch.com -->
    <title>B6B58D27-73DD-4A20-8ADC-DD9CE91318AC</title>
    <desc>Created with sketchtool.</desc>
    <g id="--Premier-League-2020-21" stroke="none" stroke-width="1" fill="none" fill-rule="evenodd">
        <g id="Premier-League-2020-21" transform="translate(-1404.000000, -259.000000)">
            <g id="Burnley" transform="translate(1404.000000, 259.000000)">
                <path d="M95.7,140.479592 L145.7,136.5 L153.7,180.27551 C154.5,184.155612 154.1,186.543367 149.7,187.239796 L108.7,194.204082 C104.3,194.90051 102.5,193.109694 101.7,189.229592 L95.7,165.352041 L95.7,140.479592 Z" id="shorts" fill="#EFEFEF"></path>
                <path d="M95.7,140.479592 L45.7,136.5 L38,180.17602 C37.2,183.956633 37.6,186.443878 42,187.140306 L82.8,194.104592 C87.1,194.80102 89,193.010204 89.8,189.130102 L95.8,165.352041 L95.7,140.479592 Z" id="Path" fill="#EFEFEF"></path>
                <path d="M95.7,0.198979592 L120.7,0.198979592 C125,0.298469388 147.1,1.49234694 161.7,10.247449 C146.9,21.8877551 145.7,58.8979592 145.7,58.8979592 L145.7,136.5 L95.7,140.479592 L95.7,0.198979592 Z" id="Path-2" fill="#67140F"></path>
                <path d="M95.7,0.198979592 L70.7,0.198979592 C66.4,0.298469388 44.3,1.49234694 29.7,10.247449 C44.5,21.8877551 45.7,58.8979592 45.7,58.8979592 L45.7,136.5 L95.7,140.479592 L95.7,0.198979592 Z" id="Path-3" fill="#76160F"></path>
                <path d="M96,0.198979592 L71.2,0.198979592 C71.2,0.198979592 41.5,-0.298469388 28.3,11.1428571 C15.1,22.5841837 3.8,44.9693878 1.3,49.9438776 C-1.2,54.9183673 3.9,58.8979592 12.9,63.872449 C22.5,69.244898 31.3,73.8214286 34.9,67.8520408 C38.5,61.8826531 45.3,51.9336735 45.3,51.9336735 C45.3,51.9336735 49.1,20.0969388 61.7,8.75510204 C71.2,0.198979592 95.8,3.68112245 95.8,3.68112245 L96,0.198979592 Z" id="Path-4" fill="#BDE2E6"></path>
                <path d="M95.7,0.198979592 L120.4,0.198979592 C120.4,0.198979592 150.1,-0.298469388 163.3,11.1428571 C176.5,22.5841837 187.9,44.9693878 190.3,49.9438776 C192.7,54.9183673 187.7,58.8979592 178.7,63.872449 C169.1,69.244898 160.3,73.8214286 156.7,67.8520408 C153.1,61.8826531 146.3,51.9336735 146.3,51.9336735 C146.3,51.9336735 142.5,20.0969388 129.9,8.75510204 C120.4,0.198979592 95.7,3.68112245 95.7,3.68112245 L95.7,0.198979592 Z" id="Path-5" fill="#A0D2D4"></path>
                <path d="M121.7,0.198979592 L69.7,0.198979592 L69.7,1.09438776 C69.7,2.98469388 75.2,7.3622449 81.2,11.5408163 C89.9,17.7091837 101.5,17.7091837 110.2,11.5408163 C116.2,7.3622449 121.7,2.98469388 121.7,1.09438776 L121.7,0.198979592 Z" id="colar" fill="#A0D2D4"></path>
                <path d="M115.7,0.198979592 L75.7,0.198979592 L75.7,0.994897959 C75.7,2.18877551 79,4.67602041 82.9,7.3622449 C90.7,12.5357143 100.8,12.5357143 108.5,7.3622449 C112.4,4.7755102 115.7,2.18877551 115.7,0.994897959 L115.7,0.198979592 Z" id="Path-6" fill="#67140F"></path>
                <path d="M112.1,35.8163265 C112.1,37.1096939 112.1,40.2933673 112.1,41.6862245 C112.1,48.4515306 120.5,54.4209184 120.5,54.4209184 C120.5,54.4209184 128.9,48.9489796 128.9,42.1836735 C128.9,40.5918367 128.9,37.3086735 128.7,35.9158163 L112.1,35.8163265 Z" id="Path" stroke="#E0DE20" stroke-width="2" fill="#A0D2D4"></path>
            </g>
        </g>
    </g>
</svg>