<?xml version="1.0" encoding="UTF-8"?>
<svg width="192px" height="196px" viewBox="0 0 192 196" version="1.1" xmlns="http://www.w3.org/2000/svg" xmlns:xlink="http://www.w3.org/1999/xlink">
    <title>F03965DA-BAA5-4CF8-9672-CB92A4A72162</title>
    <g id="*Championship-2020-2021" stroke="none" stroke-width="1" fill="none" fill-rule="evenodd">
        <g id="Championship-2019-20" transform="translate(-2009.000000, -370.000000)">
            <g id="Cardiff-City" transform="translate(2009.000000, 370.000000)">
                <g id="Group" transform="translate(37.000000, 137.000000)">
                    <path d="M59,0 L109,0 L117,44 C117.8,47.9 117.4,50.3 113,51 L72,58 C67.6,58.7 65.8,56.9 65,53 L59,29 L59,0 Z" id="shorts" fill="#CCCCCC"></path>
                    <path d="M59,0 L9,0 L1.3,43.9 C0.5,47.8 0.9,50.2 5.3,50.9 L46.1,57.9 C50.4,58.6 52.3,56.8 53.1,52.9 L59.1,29 L59,0 L59,0 Z" id="shorts_1_" fill="#E8E8E8"></path>
                    <path d="M9.6,0.1 L1.2,48 C1.2,48 1.3,48.4 1.6,48.9 L10.3,0.1 L9.6,0.1 L9.6,0.1 Z" id="Path" fill="#0E3BC2"></path>
                    <path d="M10.8,0.1 L1.9,49.3 C1.9,49.3 2.2,49.6 2.3,49.7 L11.4,0 L10.8,0 L10.8,0.1 Z" id="Path" fill="#0E3BC2"></path>
                    <path d="M115.4,50.2 L112,30.9 L114.4,30.3 L117,44 C117,44 118.5,48.8 115.4,50.2 Z" id="Path" fill="#0E43C2"></path>
                </g>
                <g id="Mask_2_" transform="translate(129.000000, 70.500000) scale(-1, 1) translate(-129.000000, -70.500000) translate(96.000000, 0.000000)" fill="#0E43C2">
                    <path d="M66,141 L16,137 L16,59 C16,59 14.8,21.5 0,9.8 C13.3,-0.3 36.7,0.1 41,0 C42.9,0 51.2,0 66,0 L66,141 Z" id="path-5_1_"></path>
                </g>
                <g id="Mask_3_" transform="translate(30.000000, 0.000000)" fill="#0E50C2">
                    <path d="M66,0 C51.2,0 42.9,0 41,0 C36.7,0.1 11.3,0 0,10.1 C14.8,21.8 16,59 16,59 L16,137 L66,141 L66,0 Z" id="path-7_1_"></path>
                </g>
                <path d="M34.9,15.4 C34.9,15.4 113.3,9.5 155.6,17.7 L153.4,22.1 C153.4,22.1 98.6,16.8 38,20.9 L34.9,15.4 Z" id="Path" fill="#0E5AC2"></path>
                <polygon id="Path" fill="#0E5AC2" points="41.5 30.7 149.2 35.4 148.5 38.4 42.8 35.4"></polygon>
                <polygon id="Path" fill="#0E5AC2" points="147.3 45.6 146.9 48.6 45.8 55.3 45.6 52.8"></polygon>
                <polygon id="Path" fill="#0E5AC2" points="46 64.9 146 63.7 146 66.3 46 70.5"></polygon>
                <path d="M46,80.6 C46,80.6 46,81.5 46,83.9 C46,84.8 146,86.1 146,86.1 L146,81.5 L46,80.6 Z" id="Path" fill="#0E5AC2"></path>
                <polygon id="Path" fill="#0E5AC2" points="46 91.5 46 98 146 107.9 146 101.1"></polygon>
                <polygon id="Path" fill="#0E5AC2" points="146 113.6 146 119 46 121.3 46 118.5"></polygon>
                <polygon id="Path" fill="#0E5AC2" points="46 125.1 146 129.2 146 131.6 46 130.2"></polygon>
                <g id="Group">
                    <g>
                        <g id="Mask_1_" fill="#0E5AC2">
                            <path d="M96,0 L71.3,0 C71.3,0 41.6,-0.5 28.4,11 C15.2,22.5 3.9,45 1.4,50 C-1.1,55 4,59 13,64 C22.6,69.4 31.4,74 35,68 C38.6,62 45.4,52 45.4,52 C45.4,52 49.2,20 61.8,8.6 C71.3,0 96,3.5 96,3.5 L96,0 Z" id="path-3_1_"></path>
                        </g>
                        <path d="M2,48.8 C1.4,49.7 1,50.8 0.6,51.8 C0.3,52.8 0.4,53.9 0.8,54.9 C2.3,58 5.9,60.9 13.4,65.3 C19,68.3 21.8,69.8 25.6,71 C28.4,71.9 31.8,72.6 34.6,68.8 C34.8,68.8 25,63.7 17.1,59.1 C11.9,56 6.8,52.6 2,48.8 Z" id="Path" fill="#E8E8E8"></path>
                        <path d="M0.8,51.3 C0.8,51.3 0,53 0.8,54.9 C1.6,56.8 3.8,58.7 3.8,58.7 C3.8,58.7 7,61.6 11.3,64 C15.6,66.4 16.5,66.9 16.5,66.9 C16.5,66.9 21.3,69.6 24.1,70.5 C26.9,71.4 26.1,71.2 26.1,71.2 C26.1,71.2 29.1,72.3 31.6,71.3 L32.5,70.8 C32.5,70.8 29.1,71.2 26.2,70.2 C23.3,69.2 20.3,67.8 20.3,67.8 C20.3,67.8 8.1,61.9 4.5,57.8 C4.5,57.8 2.5,56.1 1.7,54.3 C0.9,52.5 0.8,51.3 0.8,51.3 Z" id="Path" fill="#D9FFEB"></path>
                    </g>
                    <path d="M70,0.6 C70,0.6 40.2,2.9 31,10.9 L31.7,11.6 C31.7,11.6 36.6,4.9 70,1.4 C70.1,1.5 70.1,1.2 70,0.6 Z" id="Path" fill="#FFFFFF"></path>
                </g>
                <g id="Mask" transform="translate(96.000000, 0.000000)" fill="#0E40C2">
                    <path d="M0,0 L24.7,0 C24.7,0 54.4,-0.5 67.6,11 C80.8,22.5 92.2,45 94.6,50 C97,55 92,59 83,64 C73.4,69.4 64.6,74 61,68 C57.4,62 50.6,52 50.6,52 C50.6,52 46.8,20 34.2,8.6 C24.7,0 0,3.5 0,3.5 L0,0 Z" id="path-1_1_"></path>
                </g>
                <path d="M190,48.6 C190.6,49.5 191,50.6 191.4,51.6 C191.7,52.6 191.6,53.8 191.2,54.8 C189.6,57.9 186.1,60.8 178.6,65.2 C173,68.2 170.2,69.7 166.4,70.9 C163.6,71.8 160.2,72.5 157.4,68.7 C157.2,68.7 167,63.6 174.9,59 C180.2,55.9 185.2,52.4 190,48.6 Z" id="Path" fill="#E8E8E8"></path>
                <path d="M191.2,51.2 C191.2,51.2 192,52.9 191.2,54.8 C190.4,56.7 188.2,58.6 188.2,58.6 C188.2,58.6 185.1,61.4 180.8,63.9 C176.5,66.4 175.6,66.8 175.6,66.8 C175.6,66.8 170.8,69.5 168,70.4 C165.2,71.3 166,71.1 166,71.1 C166,71.1 163,72.2 160.5,71.2 L159.6,70.7 C159.6,70.7 163,71.1 165.9,70.1 C168.8,69.1 171.8,67.7 171.8,67.7 C171.8,67.7 184,61.8 187.6,57.7 C187.6,57.7 189.6,56 190.4,54.2 C191,52.6 191.2,51.2 191.2,51.2 Z" id="Path" fill="#D9FFEB"></path>
                <path d="M121.7,0.6 C121.7,0.6 151.5,2.9 160.7,10.9 L160,11.6 C160,11.6 155.1,4.9 121.7,1.4 C121.6,1.5 121.6,1.2 121.7,0.6 Z" id="Path" fill="#FFFFFF"></path>
                <path d="M122,0 L70,0 L70,0.9 C70,5 83.7,21 96,21 C108.3,21 122,5 122,0.9 L122,0 Z" id="colar" fill="#FFFFFF"></path>
                <path d="M76,0 L76,1.1 C76,1.1 75.8,3.8 84.1,9.8 C92.4,15.8 96,15.4 96,15.4 C96,15.4 101.1,15.6 108.3,9.4 C115.4,3.2 115.5,2.2 116,0.8 L116,0" id="Path" stroke="#D9FFEB"></path>
                <path d="M116,0 L76,0 L76,0.8 C76,3.7 88.3,15 96,15 C103.7,15 116,3.7 116,0.8 L116,0 Z" id="inside-neck_1_" fill="#002C60"></path>
            </g>
        </g>
    </g>
</svg>