<?xml version="1.0" encoding="UTF-8"?>
<svg width="193px" height="197px" viewBox="0 0 193 197" version="1.1" xmlns="http://www.w3.org/2000/svg" xmlns:xlink="http://www.w3.org/1999/xlink">
    <title>F5FADB17-1ADA-4908-A553-354883E7181E</title>
    <g id="*Championship-2020-2021" stroke="none" stroke-width="1" fill="none" fill-rule="evenodd">
        <g id="Championship-2019-20" transform="translate(-2296.000000, -371.000000)">
            <g id="Charlton-Athletic-01" transform="translate(2296.000000, 371.000000)">
                <path d="M137.3,2.1 L131.7,3.5 L139.2,4.1 L144.3,3.3 C142,2.7 139.6,2.3 137.3,2.1 Z" id="Path" fill="#D69A9A"></path>
                <path d="M56.8,1.6 L62.4,3 L55,3.6 L49.8,2.7 C49.8,2.7 53.1,2 56.8,1.6 Z" id="Path" fill="#D69A9A"></path>
                <g id="Group">
                    <path d="M97,138 L147,138 L155,182 C155.8,185.9 155.4,188.3 151,189 L110,196 C105.6,196.7 103.8,194.9 103,191 L97,167 L97,138 Z" id="shorts" fill="#CCCCCC"></path>
                    <path d="M97,138 L47,138 L39.3,181.9 C38.5,185.8 38.9,188.2 43.3,188.9 L84.1,195.9 C88.4,196.6 90.3,194.8 91.1,190.9 L97.1,167 L97,138 Z" id="shorts-2" fill="#E6E6E6"></path>
                    <path d="M116,1 L78,1 L78,1.8 C78,4.7 97,16 97,16 C97,16 116,4.7 116,1.8 L116,1 Z" id="inside-neck" fill="#D31818"></path>
                    <g id="Mask" transform="translate(97.000000, 1.000000)" fill="#B01625">
                        <path d="M0,0 L25,0 C29.3,0.1 51.4,1.3 66,10.1 C51.2,21.8 50,59.1 50,59.1 L50,137.1 L0,141.1 L0,0 Z" id="path-1"></path>
                    </g>
                    <g transform="translate(31.000000, 1.000000)" fill="#CC1426" id="top-highlight">
                        <path d="M66,0 L41,0 C36.7,0.1 14.6,1.3 0,10.1 C14.8,21.8 16,59 16,59 L16,137 L66,141 L66,0 Z" id="path-3"></path>
                    </g>
                    <path d="M91,18.2 L97,1 L71.7,0.6 C71.7,0.6 42,0.1 28.8,11.6 C15.6,23.1 4.2,45.6 1.8,50.6 C-0.6,55.6 4.4,59.6 13.4,64.6 C23,70 31.8,74.6 35.4,68.6 C39,62.6 45.8,52.6 45.8,52.6 L91.6,18.6" id="path-7" fill="#B61323"></path>
                    <path d="M102.4,18.6 L147.6,53 C147.6,53 154.5,63 158,69 C161.5,75 170.4,70.4 180,65 C189,60 194,56 191.6,51 C189.2,46 177.8,23.5 164.6,12 C151.4,0.5 121.7,1 121.7,1 L97,1 L102.4,18.6 Z" id="path-7-2" fill="#B61323"></path>
                    <path d="M123,1 L71,1 L71,1.9 C71,6 97,22 97,22 C97,22 123,6 123,1.9 L123,1 Z" id="colar" fill="#E6E6E6"></path>
                    <path d="M2.5,49.4 C1.9,50.4 1.5,51.4 1.1,52.4 C0.8,53.4 0.9,54.5 1.3,55.5 C2.9,58.6 6.4,61.5 13.9,65.9 C19.5,68.9 22.3,70.4 26.1,71.6 C28.9,72.5 32.3,73.2 35.1,69.4 C35.3,69.4 25.5,64.3 17.6,59.7 C12.3,56.6 7.3,53.1 2.5,49.4 Z" id="Path" fill="#E6E6E6"></path>
                    <path d="M190.8,49.4 C191.4,50.3 191.9,51.3 192.2,52.4 C192.5,53.5 192.4,54.6 192,55.6 C190.4,58.7 186.9,61.6 179.4,66 C173.8,69 171,70.5 167.2,71.7 C164.4,72.6 160.8,73.1 158.3,69.4 C158.1,69.4 167.8,64.4 175.7,59.8 C180.9,56.7 186,53.2 190.8,49.4 Z" id="Path" fill="#E6E6E6"></path>
                    <path d="M191.8,51.3 L192,52 C192,52 182.3,61.1 160.5,71.6 L160.1,71.3 L159.7,71.1 C159.8,71.1 182,60.1 191.8,51.3 Z" id="Path" fill="#B61323"></path>
                    <path d="M117,1 L77,1 L77,1.8 C77,4.7 97,16 97,16 C97,16 117,4.7 117,1.8 L117,1 Z" id="inside-neck-2" fill="#6C0214"></path>
                    <path d="M100,18.9 C100,18.9 118.4,6.7 121.2,3 C121.5,2.6 121.6,2.2 121.6,1.7 L121.6,1" id="Path" stroke="#B01625" stroke-width="0.5"></path>
                    <path d="M93.4,18.5 C93.4,18.5 75.5,6.7 72.7,2.9 C72.4,2.5 72.3,2.1 72.3,1.6 L72.3,1" id="Path" stroke="#CC1426" stroke-width="0.5"></path>
                    <polygon id="Path" fill="#B61323" points="91.6 18.6 97 16 97 16 97 16 102.4 18.6 97 22.3"></polygon>
                    <path d="M1.5,51.3 L1.2,52 C1.2,52 10.9,61.1 32.7,71.6 L33.1,71.3 L33.4,71.1 C33.5,71.1 11.3,60.1 1.5,51.3 Z" id="Path" fill="#B61323"></path>
                    <path d="M153.3,5.8 L148.2,6.2 L153.6,8.2 L159,8.3 C157.1,7.3 155.2,6.5 153.3,5.8 Z" id="Path" fill="#D69A9A"></path>
                    <path d="M161.1,12.2 L165.9,13.2 C167.3,14.4 168.6,15.8 169.8,17.2 L165.8,15.7 L161.1,12.2 Z" id="Path" fill="#D69A9A"></path>
                    <path d="M171.9,22 L175.4,24 C176.5,25.4 177.6,26.9 178.5,28.4 L175,26.5 L171.9,22 Z" id="Path" fill="#D69A9A"></path>
                    <path d="M40.4,5.3 L45.5,5.7 L40.1,7.7 L34.7,7.8 C36.5,6.7 38.4,5.9 40.4,5.3 Z" id="Path" fill="#D69A9A"></path>
                    <path d="M32.4,11.7 L27.6,12.7 C26.2,13.9 24.9,15.3 23.7,16.7 L27.7,15.2 L32.4,11.7 Z" id="Path" fill="#D69A9A"></path>
                    <path d="M21.5,21.5 L18,23.5 C16.9,24.9 15.8,26.4 14.9,27.9 L18.5,26 L21.5,21.5 Z" id="Path" fill="#D69A9A"></path>
                    <polygon id="Path" fill="#D69A9A" points="148.1 144 143.7 142 144.5 148 149.3 150.9"></polygon>
                    <path d="M154,176.4 L151.6,188.9 C151.6,188.9 156.8,188.7 155,182 L154,176.4 Z" id="Path" fill="#B01625"></path>
                    <polygon id="Path" fill="#D69A9A" points="45.9 144 50.3 141.9 49.5 147.9 44.7 150.8"></polygon>
                </g>
            </g>
        </g>
    </g>
</svg>