<?xml version="1.0" encoding="UTF-8"?>
<svg width="191px" height="195px" viewBox="0 0 191 195" version="1.1" xmlns="http://www.w3.org/2000/svg" xmlns:xlink="http://www.w3.org/1999/xlink">
    <!-- Generator: sketchtool 62 (101010) - https://sketch.com -->
    <title>59B9E366-254D-4576-87E7-62F75E98F1A1</title>
    <desc>Created with sketchtool.</desc>
    <g id="--Premier-League-2020-21" stroke="none" stroke-width="1" fill="none" fill-rule="evenodd">
        <g id="Premier-League-2020-21" transform="translate(-1709.000000, -262.000000)">
            <g id="Chelsea" transform="translate(1709.000000, 262.000000)">
                <g id="Asset-1">
                    <path d="M95.5,140.877551 L145.5,136.897959 L153.5,180.673469 C154.3,184.553571 153.9,186.941327 149.5,187.637755 L108.5,194.602041 C104.1,195.298469 102.3,193.507653 101.5,189.627551 L95.5,165.75 L95.5,140.877551 Z" id="shorts" fill="#2A52A0"></path>
                    <path d="M95.5,140.877551 L45.5,136.897959 L37.8,180.57398 C37,184.354592 37.4,186.841837 41.8,187.538265 L82.6,194.502551 C86.9,195.19898 88.8,193.408163 89.6,189.528061 L95.6,165.75 L95.5,140.877551 Z" id="Path" fill="#2A52A0"></path>
                    <path d="M95.5,0.596938776 L120.5,0.596938776 C124.8,0.696428571 146.9,1.89030612 161.5,10.6454082 C146.7,22.2857143 145.5,59.2959184 145.5,59.2959184 L145.5,136.897959 L95.5,140.877551 L95.5,0.596938776 Z" id="Path-2" fill="#1D4081"></path>
                    <path d="M95.5,0.596938776 L70.5,0.596938776 C66.2,0.696428571 44.1,1.89030612 29.5,10.6454082 C44.3,22.2857143 45.5,59.2959184 45.5,59.2959184 L45.5,136.897959 L95.5,140.877551 L95.5,0.596938776 Z" id="Path-3" fill="#224698"></path>
                    <path d="M95.7,0.596938776 L71,0.596938776 C71,0.596938776 41.3,0.0994897959 28.1,11.5408163 C14.9,22.9821429 3.6,45.3673469 1.1,50.3418367 C-1.4,55.3163265 3.7,59.2959184 12.7,64.2704082 C22.3,69.6428571 31.1,74.2193878 34.7,68.25 C38.3,62.2806122 45.1,52.3316327 45.1,52.3316327 C45.1,52.3316327 48.9,20.494898 61.5,9.15306122 C71,0.596938776 95.6,4.07908163 95.6,4.07908163 L95.7,0.596938776 Z" id="Path-4" fill="#2A519F"></path>
                    <path d="M95.5,0.596938776 L120.2,0.596938776 C120.2,0.596938776 149.9,0.0994897959 163.1,11.5408163 C176.3,22.9821429 187.7,45.3673469 190.1,50.3418367 C192.5,55.3163265 187.5,59.2959184 178.5,64.2704082 C168.9,69.6428571 160.1,74.2193878 156.5,68.25 C152.9,62.2806122 146.1,52.3316327 146.1,52.3316327 C146.1,52.3316327 142.3,20.494898 129.7,9.15306122 C120.2,0.596938776 95.5,4.07908163 95.5,4.07908163 L95.5,0.596938776 Z" id="Path-5" fill="#1C3766"></path>
                    <path d="M121.5,0.596938776 L69.5,0.596938776 L69.5,1.49234694 C69.5,3.38265306 75,7.76020408 81,11.9387755 C89.7,18.1071429 101.3,18.1071429 110,11.9387755 C116,7.76020408 121.5,3.38265306 121.5,1.49234694 L121.5,0.596938776 Z" id="colar" fill="#1B2645"></path>
                    <path d="M115.5,0.596938776 L75.5,0.596938776 L75.5,1.39285714 C75.5,2.58673469 78.8,5.07397959 82.7,7.76020408 C90.5,12.9336735 100.6,12.9336735 108.3,7.76020408 C112.2,5.17346939 115.5,2.58673469 115.5,1.39285714 L115.5,0.596938776 L115.5,0.596938776 Z" id="Path-6" fill="#010202"></path>
                </g>
                <path d="M0.5,51.4362245 C0.5,51.4362245 0,52.9285714 1,55.0178571 C1,55.0178571 1.2,55.3163265 1.2,55.3163265 C2.1,56.8086735 3.4,58.2015306 4.8,59.1964286 C4.8,59.1964286 8,61.3852041 11.8,63.6734694 C16.2,66.2602041 21.4,69.0459184 23.6,69.7423469 C31.2,72.2295918 32,70.7372449 34.2,69.0459184" id="Path" fill="#1B2645"></path>
                <path d="M157,68.9464286 C158.9,70.6377551 160.4,72.2295918 167.5,69.6428571 C169.6,68.8469388 174.9,66.1607143 179.3,63.5739796 C183.1,61.2857143 186.3,59.0969388 186.3,59.0969388 C187.7,58.1020408 189,56.6096939 189.9,55.2168367 C189.9,55.2168367 190.1,54.9183673 190.1,54.9183673 C191,52.9285714 190.6,51.3367347 190.6,51.3367347" id="Path" fill="#1B2645"></path>
                <path d="M145.5,136.897959 L153.8,182.265306 C153.8,182.265306 154.2,186.045918 151.7,187.040816 L142.6,137.196429 L145.5,136.897959 Z" id="Path" fill="#1B2645"></path>
                <path d="M45.4,136.69898 L37.1,182.066327 C37.1,182.066327 36.7,185.846939 39.2,186.841837 L48.3,136.997449 L45.4,136.69898 Z" id="Path" fill="#1B2645"></path>
            </g>
        </g>
    </g>
</svg>