<?xml version="1.0" encoding="utf-8"?>
<!-- Generator: Adobe Illustrator 25.0.1, SVG Export Plug-In . SVG Version: 6.00 Build 0)  -->
<svg version="1.1" id="Layer_1" xmlns="http://www.w3.org/2000/svg" xmlns:xlink="http://www.w3.org/1999/xlink" x="0px" y="0px"
	 viewBox="0 0 192 196" style="enable-background:new 0 0 192 196;" xml:space="preserve">
<g id="Championship_x2F_CoventryCity-v2">
	<g id="Coventry-City">
		<path id="shorts" style="fill:#79A4D4;" d="M96,141l50-4l8,44c0.8,3.9,0.4,6.3-4,7l-41,7c-4.4,0.7-6.2-1.1-7-5l-6-24V141z"/>
		<path id="Path" style="fill-rule:evenodd;clip-rule:evenodd;fill:#7EADDB;" d="M96,141l-50-4l-7.7,43.9c-0.8,3.8-0.4,6.3,4,7
			l40.8,7c4.3,0.7,6.2-1.1,7-5l6-23.9L96,141z"/>
		<path id="Path-2" style="fill-rule:evenodd;clip-rule:evenodd;fill:#79A4D4;" d="M96,0h25c4.3,0.1,26.4,1.3,41,10.1
			C147.2,21.8,146,59,146,59v78l-50,4V0z"/>
		<path id="Path-3" style="fill-rule:evenodd;clip-rule:evenodd;fill:#7EADDB;" d="M96,0H71c-4.3,0.1-26.4,1.3-41,10.1
			C44.8,21.8,46,59,46,59v78l50,4V0z"/>
		<path id="Path-4" style="fill-rule:evenodd;clip-rule:evenodd;fill:#96BDE6;" d="M96.3,0H71.5c0,0-29.7-0.5-42.9,11S4.1,45,1.6,50
			s2.6,9,11.6,14c9.6,5.4,18.4,10,22,4s10.4-16,10.4-16S49.4,20,62,8.6C71.6,0,96.2,3.5,96.2,3.5L96.3,0z"/>
		<path id="Path_1_" style="fill-rule:evenodd;clip-rule:evenodd;fill:#000025;" d="M2.5,48.3c-0.6,0.9-1,2-1.4,3
			c-0.3,1-0.2,2.1,0.2,3.1c1.5,3.1,5.1,6,12.6,10.4c5.6,3,8.4,4.5,12.2,5.7c2.8,0.9,7.6,0.6,8.9-2.3c0.2,0-9.5-5-17.4-9.6
			C12.4,55.5,7.3,52.1,2.5,48.3z"/>
		<path id="Path-5" style="fill-rule:evenodd;clip-rule:evenodd;fill:#96BDE6;" d="M96,0h24.7c0,0,29.7-0.5,42.9,11
			c13.2,11.5,24.6,34,27,39c2.4,5-2.6,9-11.6,14c-9.6,5.4-18.4,10-22,4s-10.4-16-10.4-16s-3.8-32-16.4-43.4C120.7,0,96,3.5,96,3.5V0
			z"/>
		<path id="Path_2_" style="fill-rule:evenodd;clip-rule:evenodd;fill:#000025;" d="M190.2,49.3c0.6,0.9,1,1.9,1.4,3
			c0.3,1,0.2,2.1-0.2,3.1c-1.5,3.1-5,5.9-12.5,10.3c-5.6,3-8.4,4.5-12.1,5.6c-2.8,0.8-6.2,1.6-9-2.2c-0.2,0,9.5-5,17.4-9.6
			C180.5,56.4,185.5,53,190.2,49.3z"/>
		<path id="colar" style="fill-rule:evenodd;clip-rule:evenodd;fill:#000025;" d="M122,0H70v0.9C70,5,96,21,96,21s26-16,26-20.1V0z"
			/>
		<path id="Path_3_" style="fill-rule:evenodd;clip-rule:evenodd;fill:#7EADDB;" d="M90.2,11.6l-2.7,4c0,0,0.5,0.4,2.5,1.8
			c1.7,1.2,3.5,5.8,3.1,9.7c0,0.3,0.2,0.6,0.5,0.6c0,0,0,0,0.1,0H96V13.2C94,12.9,92.1,12.4,90.2,11.6z"/>
		<path id="Path_4_" style="fill-rule:evenodd;clip-rule:evenodd;fill:#79A4D4;" d="M101.8,11.6l2.7,4c0,0-0.5,0.4-2.5,1.8
			c-1.7,1.2-3.5,5.8-3.1,9.7c0,0.3-0.2,0.6-0.5,0.6c0,0,0,0-0.1,0H96V13.1C98,12.9,100,12.4,101.8,11.6z"/>
		<path id="inside-neck-2" style="fill-rule:evenodd;clip-rule:evenodd;fill:#91BBDB;" d="M116,0H76v0.8C76,3.7,96,15,96,15
			s20-11.3,20-14.2V0z"/>
	</g>
</g>
</svg>