<?xml version="1.0" encoding="UTF-8"?>
<svg width="191px" height="195px" viewBox="0 0 191 195" version="1.1" xmlns="http://www.w3.org/2000/svg" xmlns:xlink="http://www.w3.org/1999/xlink">
    <!-- Generator: sketchtool 62 (101010) - https://sketch.com -->
    <title>D66B7B07-7E5E-4574-80E5-BBC1E8285FBD</title>
    <desc>Created with sketchtool.</desc>
    <g id="--Premier-League-2020-21" stroke="none" stroke-width="1" fill="none" fill-rule="evenodd">
        <g id="Premier-League-2020-21" transform="translate(-2009.000000, -259.000000)">
            <g id="Crystal-Palace" transform="translate(2009.000000, 259.000000)">
                <g id="Asset-1">
                    <path d="M95.2,140.479592 L145.2,136.5 L153.2,180.27551 C154,184.155612 153.6,186.543367 149.2,187.239796 L108.2,194.204082 C103.8,194.90051 102,193.109694 101.2,189.229592 L95.2,165.352041 L95.2,140.479592 Z" id="shorts" fill="#204C92"></path>
                    <path d="M95.2,140.479592 L45.2,136.5 L37.5,180.17602 C36.7,183.956633 37.1,186.443878 41.5,187.140306 L82.3,194.104592 C86.6,194.80102 88.5,193.010204 89.3,189.130102 L95.3,165.352041 L95.2,140.479592 Z" id="Path" fill="#2E55A2"></path>
                    <path d="M95.2,0.198979592 L120.2,0.198979592 C124.5,0.298469388 146.6,1.49234694 161.2,10.247449 C146.4,21.8877551 145.2,58.8979592 145.2,58.8979592 L145.2,136.5 L95.2,140.479592 L95.2,0.198979592 Z" id="Path-2" fill="#1D4081"></path>
                    <path d="M95.2,0.198979592 L70.2,0.198979592 C65.9,0.298469388 43.8,1.49234694 29.2,10.247449 C44,21.8877551 45.2,58.8979592 45.2,58.8979592 L45.2,136.5 L95.2,140.479592 L95.2,0.198979592 Z" id="Path-3" fill="#224698"></path>
                    <path d="M95.4,0.198979592 L70.7,0.198979592 C70.7,0.198979592 41,-0.298469388 27.8,11.1428571 C14.6,22.5841837 3.3,44.9693878 0.8,49.9438776 C-1.7,54.9183673 3.4,58.8979592 12.4,63.872449 C22,69.244898 30.8,73.8214286 34.4,67.8520408 C38,61.8826531 44.8,51.9336735 44.8,51.9336735 C44.8,51.9336735 48.6,20.0969388 61.2,8.75510204 C70.7,0.198979592 95.3,3.68112245 95.3,3.68112245 L95.4,0.198979592 Z" id="Path-4" fill="#2A519F"></path>
                    <path d="M95.2,0.198979592 L119.9,0.198979592 C119.9,0.198979592 149.6,-0.298469388 162.8,11.1428571 C176,22.5841837 187.4,44.9693878 189.8,49.9438776 C192.2,54.9183673 187.2,58.8979592 178.2,63.872449 C168.6,69.244898 159.8,73.8214286 156.2,67.8520408 C152.6,61.8826531 145.8,51.9336735 145.8,51.9336735 C145.8,51.9336735 142,20.0969388 129.4,8.75510204 C119.9,0.198979592 95.2,3.68112245 95.2,3.68112245 L95.2,0.198979592 Z" id="Path-5" fill="#1E3D7B"></path>
                    <path d="M121.2,0.198979592 L69.2,0.198979592 L69.2,1.09438776 C69.2,2.98469388 74.7,7.3622449 80.7,11.5408163 C89.4,17.7091837 101,17.7091837 109.7,11.5408163 C115.7,7.3622449 121.2,2.98469388 121.2,1.09438776 L121.2,0.198979592 Z" id="colar" fill="#1E3D7B"></path>
                    <path d="M115.2,0.198979592 L75.2,0.198979592 L75.2,0.994897959 C75.2,2.18877551 78.5,4.67602041 82.4,7.3622449 C90.2,12.5357143 100.3,12.5357143 108,7.3622449 C111.9,4.7755102 115.2,2.18877551 115.2,0.994897959 L115.2,0.198979592 Z" id="Path-6" fill="#010202"></path>
                </g>
                <polyline id="Path" fill="#D82526" points="95.2 23.7780612 83.1 29.25 82.5 139.584184 95.2 140.479592 95.2 23.7780612"></polyline>
                <polyline id="Path" fill="#BF1E1E" points="94.9 23.7780612 107 29.25 107.6 139.584184 94.9 140.479592 94.9 23.7780612"></polyline>
                <polygon id="Path" fill="#BF1E1E" points="145.8 51.9336735 131.3 40.5918367 131.8 137.295918 145.2 136.5"></polygon>
                <polygon id="Path" fill="#D82526" points="44.7 51.8341837 59.2 40.4923469 58.7 137.196429 45.3 136.40051"></polygon>
            </g>
        </g>
    </g>
</svg>