<?xml version="1.0" encoding="UTF-8"?>
<svg width="192px" height="196px" viewBox="0 0 192 196" version="1.1" xmlns="http://www.w3.org/2000/svg" xmlns:xlink="http://www.w3.org/1999/xlink">
    <title>0A80A7A4-7C17-4264-AD86-4B645271C543</title>
    <g id="*Championship-2020-2021" stroke="none" stroke-width="1" fill="none" fill-rule="evenodd">
        <g id="Championship-2020-21" transform="translate(-2900.000000, -371.000000)">
            <g id="Derby-County" transform="translate(2900.000000, 371.000000)">
                <path d="M96,141 L146,137 L154,181 C154.8,184.9 154.4,187.3 150,188 L109,195 C104.6,195.7 102.8,193.9 102,190 L96,166 L96,141 Z" id="shorts" fill="#000000" fill-rule="nonzero"></path>
                <path d="M96,141 L46,137 L38.3,180.9 C37.5,184.7 37.9,187.2 42.3,187.9 L83.1,194.9 C87.4,195.6 89.3,193.8 90.1,189.9 L96.1,166 L96,141 Z" id="Path" fill="#282828"></path>
                <path d="M96,0 L121,0 C125.3,0.1 147.4,1.3 162,10.1 C147.2,21.8 146,59 146,59 L146,137 L96,141 L96,0 Z" id="Path-2" fill="#D9D9D9"></path>
                <path d="M96,0 L71,0 C66.7,0.1 44.6,1.3 30,10.1 C44.8,21.8 46,59 46,59 L46,137 L96,141 L96,0 Z" id="Path-3" fill="#ECECEC"></path>
                <path d="M96.3,3.51281504e-16 L71.5,3.51281504e-16 C71.5,3.51281504e-16 41.8,-0.5 28.6,11 C15.4,22.5 4.1,45 1.6,50 C-0.9,55 4.2,59 13.2,64 C22.8,69.4 31.6,74 35.2,68 C38.8,62 45.6,52 45.6,52 C45.6,52 49.4,20 62,8.6 C71.6,3.51281504e-16 96.2,3.5 96.2,3.5 L96.3,3.51281504e-16 Z" id="Path-4" fill="#E8E8E8"></path>
                <path d="M96,3.51281504e-16 L120.7,3.51281504e-16 C120.7,3.51281504e-16 150.4,-0.5 163.6,11 C176.8,22.5 188.2,45 190.6,50 C193,55 188,59 179,64 C169.4,69.4 160.6,74 157,68 C153.4,62 146.6,52 146.6,52 C146.6,52 142.8,20 130.2,8.6 C120.7,3.51281504e-16 96,3.5 96,3.5 L96,3.51281504e-16 Z" id="Path-5" fill="#E8E8E8"></path>
                <path d="M122.3,0 L70.3,0 L70.3,0.9 C70.3,5 96.3,21 96.3,21 C96.3,21 122.3,5 122.3,0.9 L122.3,0 Z" id="colar" fill="#EDEDED"></path>
                <path d="M116.3,0 L76.3,0 L76.3,0.8 C76.3,3.7 96.3,15 96.3,15 C96.3,15 116.3,3.7 116.3,0.8 L116.3,0 Z" id="Path-6" fill="#F1F1F1"></path>
                <path d="M190.3,49.5 L190.5,50.2 C190.5,50.2 180.8,59.3 159,69.8 L158.6,69.5 L158.2,69.3 C158.3,69.3 180.5,58.3 190.3,49.5 Z" id="Path" fill="#000000" fill-rule="nonzero"></path>
                <path d="M1.9,49.8 L1.6,50.5 C1.6,50.5 11.3,59.6 33.1,70.1 L33.5,69.8 L33.8,69.6 C33.9,69.6 11.7,58.6 1.9,49.8 Z" id="Path" fill="#000000" fill-rule="nonzero"></path>
                <path d="M70.3,0 L70.3,0.9 C70.3,0.9 70,2.9 79.8,10 C89.6,17.1 96.3,21 96.3,21" id="Path" stroke="#000000" stroke-width="0.5"></path>
                <path d="M116.3,0 L116.3,0.8 C116.3,0.8 116,2.9 107.8,8 C99.6,13.1 96.3,15 96.3,15" id="Path" stroke="#000000" stroke-width="0.5"></path>
            </g>
        </g>
    </g>
</svg>