<?xml version="1.0" encoding="UTF-8"?>
<svg width="191px" height="195px" viewBox="0 0 191 195" version="1.1" xmlns="http://www.w3.org/2000/svg" xmlns:xlink="http://www.w3.org/1999/xlink">
    <!-- Generator: sketchtool 62 (101010) - https://sketch.com -->
    <title>8F6D2418-DE82-4580-9339-DF9EB17FA0DB</title>
    <desc>Created with sketchtool.</desc>
    <g id="--Premier-League-2020-21" stroke="none" stroke-width="1" fill="none" fill-rule="evenodd">
        <g id="Premier-League-2020-21" transform="translate(-2308.000000, -259.000000)">
            <g id="Everton" transform="translate(2308.000000, 259.000000)">
                <g id="Asset-1">
                    <path d="M95.2,140.479592 L145.2,136.5 L153.2,180.27551 C154,184.155612 153.6,186.543367 149.2,187.239796 L108.2,194.204082 C103.8,194.90051 102,193.109694 101.2,189.229592 L95.2,165.352041 L95.2,140.479592 Z" id="shorts" fill="#EFEFEF"></path>
                    <path d="M95.2,140.479592 L45.2,136.5 L37.5,180.17602 C36.7,183.956633 37.1,186.443878 41.5,187.140306 L82.3,194.104592 C86.6,194.80102 88.5,193.010204 89.3,189.130102 L95.3,165.352041 L95.2,140.479592 Z" id="Path" fill="#EFEFEF"></path>
                    <path d="M95.2,0.198979592 L120.2,0.198979592 C124.5,0.298469388 146.6,1.49234694 161.2,10.247449 C146.4,21.8877551 145.2,58.8979592 145.2,58.8979592 L145.2,136.5 L95.2,140.479592 L95.2,0.198979592 Z" id="Path-2" fill="#1D4081"></path>
                    <path d="M95.2,0.198979592 L70.2,0.198979592 C65.9,0.298469388 43.8,1.49234694 29.2,10.247449 C44,21.8877551 45.2,58.8979592 45.2,58.8979592 L45.2,136.5 L95.2,140.479592 L95.2,0.198979592 Z" id="Path-3" fill="#224698"></path>
                    <path d="M95.4,0.198979592 L70.7,0.198979592 C70.7,0.198979592 41,-0.298469388 27.8,11.1428571 C14.6,22.5841837 3.3,44.9693878 0.8,49.9438776 C-1.7,54.9183673 3.4,58.8979592 12.4,63.872449 C22,69.244898 30.8,73.8214286 34.4,67.8520408 C38,61.8826531 44.8,51.9336735 44.8,51.9336735 C44.8,51.9336735 48.6,20.0969388 61.2,8.75510204 C70.7,0.198979592 95.3,3.68112245 95.3,3.68112245 L95.4,0.198979592 Z" id="Path-4" fill="#2A519F"></path>
                    <path d="M95.2,0.198979592 L119.9,0.198979592 C119.9,0.198979592 149.6,-0.298469388 162.8,11.1428571 C176,22.5841837 187.4,44.9693878 189.8,49.9438776 C192.2,54.9183673 187.2,58.8979592 178.2,63.872449 C168.6,69.244898 159.8,73.8214286 156.2,67.8520408 C152.6,61.8826531 145.8,51.9336735 145.8,51.9336735 C145.8,51.9336735 142,20.0969388 129.4,8.75510204 C119.9,0.198979592 95.2,3.68112245 95.2,3.68112245 L95.2,0.198979592 Z" id="Path-5" fill="#1E3D7B"></path>
                    <path d="M121.2,0.198979592 L69.2,0.198979592 L69.2,1.09438776 C69.2,2.98469388 74.7,7.3622449 80.7,11.5408163 C89.4,17.7091837 101,17.7091837 109.7,11.5408163 C115.7,7.3622449 121.2,2.98469388 121.2,1.09438776 L121.2,0.198979592 Z" id="colar" fill="#1E3D7B"></path>
                    <path d="M115.2,0.198979592 L75.2,0.198979592 L75.2,0.994897959 C75.2,2.18877551 78.5,4.67602041 82.4,7.3622449 C90.2,12.5357143 100.3,12.5357143 108,7.3622449 C111.9,4.7755102 115.2,2.18877551 115.2,0.994897959 L115.2,0.198979592 Z" id="Path-6" fill="#010202"></path>
                </g>
                <polygon id="Path" fill="#FFFFFF" points="44.6 2.4872449 43.5 5.27295918 48.4 6.56632653 44.9 8.15816327 40 7.06377551 42 3.28316327"></polygon>
                <polygon id="Path" fill="#FFFFFF" points="37.5 4.67602041 35.5 9.45153061 40.4 10.744898 36.9 12.3367347 32 11.2423469 34 6.26785714"></polygon>
                <path d="M28.9,9.15306122 L27.2,13.2321429 L32.1,14.5255102 L28.6,16.1173469 L23.2,14.7244898 C23.3,14.625 27.2,10.1479592 28.9,9.15306122 Z" id="Path" fill="#FFFFFF"></path>
                <path d="M163.2,11.6403061 L164.8,15.9183673 L159.9,17.1122449 L163.4,18.7040816 L168.9,17.3112245 C168.9,17.3112245 164.3,12.1377551 163.2,11.6403061 Z" id="Path" fill="#FFFFFF"></path>
                <path d="M155.8,6.76530612 L157.8,11.7397959 L152.9,13.0331633 L156.4,14.625 L161.3,13.5306122 L159.3,8.45663265 C159.3,8.45663265 157.6,7.3622449 155.8,6.76530612 Z" id="Path" fill="#FFFFFF"></path>
                <path d="M152,5.17346939 L153.9,9.25255102 L149,10.3469388 L145.5,8.75510204 L150.4,7.46173469 L149,4.17857143 C149,4.17857143 151.5,4.875 152,5.17346939 Z" id="Path" fill="#FFFFFF"></path>
                <polygon id="Path" fill="#FFFFFF" points="143.2 2.58673469 143.7 3.78061224 138.6 5.37244898 142.1 6.96428571 147.1 5.57142857 145.7 3.18367347"></polygon>
                <polygon id="Path" fill="#FFFFFF" points="52 1.69132653 51.5 2.78571429 55.8 4.17857143 51.2 5.47193878 48.1 4.57653061 49.5 2.18877551"></polygon>
                <path d="M90.7,15.8188776 L91,30.1454082 L99.1,30.244898 L99.1,15.9183673 C99.1,15.9183673 96.2,16.7142857 90.7,15.8188776 Z" id="Path" fill="#1E3D7B"></path>
                <polygon id="Path" fill="#D5D6D8" points="42.3 152.617347 42.3 152.617347 47.1 150.329082 45.5 153.811224 41.8 155.701531"></polygon>
                <polygon id="Path" fill="#D5D6D8" points="40.9 160.576531 41 160.576531 45.5 158.188776 44 161.670918 40.3 164.257653 40.8 161.372449"></polygon>
                <path d="M39.6,168.137755 L39.6,168.137755 L44.4,165.75 L42.9,169.232143 L39,171.221939 C39,171.221939 39.2,170.028061 39.6,168.137755 Z" id="Path" fill="#D5D6D8"></path>
                <polygon id="Path" fill="#D5D6D8" points="43.6 145.354592 43.7 145.255102 47.7 143.265306 45.4 147.344388 43 148.737245 43.4 146.44898"></polygon>
                <path d="M32.4,69.9413265 L0.2,51.3367347 C0.2,51.3367347 0.4,50.6403061 0.5,50.3418367 C0.5,50.2423469 0.7,49.9438776 0.7,49.8443878 C0.9,49.4464286 1.6,48.1530612 1.6,48.1530612 C12.6,54.4209184 23.8,60.7882653 34.7,67.1556122 C34.7,67.1556122 34.2,68.1505102 33.8,68.6479592 C33.7,68.747449 33.7,68.747449 33.6,68.8469388 C33.3,69.3443878 32.4,69.9413265 32.4,69.9413265 Z" id="Path" fill="#F8F7F7"></path>
                <polygon id="Path" fill="#D5D6D8" points="148.7 156.19898 148.7 156.19898 143.9 153.910714 145.5 157.293367 149.2 159.183673"></polygon>
                <polygon id="Path" fill="#D5D6D8" points="150.1 164.158163 150 164.158163 145.5 161.770408 147 165.252551 150.7 167.839286 150.2 164.854592"></polygon>
                <path d="M151.4,171.619898 L151.4,171.619898 L146.6,169.232143 L148.1,172.714286 L152,174.704082 C152,174.803571 151.8,173.609694 151.4,171.619898 Z" id="Path" fill="#D5D6D8"></path>
                <polygon id="Path" fill="#D5D6D8" points="147.4 148.836735 147.3 148.836735 143.3 146.747449 145.6 150.92602 148 152.219388 147.6 150.030612"></polygon>
                <path d="M157.9,69.4438776 L190,50.9387755 C190,50.9387755 189.8,50.2423469 189.7,49.9438776 C189.7,49.8443878 189.5,49.5459184 189.5,49.4464286 C189.3,49.0484694 188.6,47.755102 188.6,47.755102 C177.6,54.0229592 166.4,60.3903061 155.5,66.7576531 C155.5,66.7576531 156,67.752551 156.4,68.25 C156.5,68.3494898 156.5,68.3494898 156.6,68.4489796 C157,68.9464286 157.9,69.4438776 157.9,69.4438776 Z" id="Path" fill="#F8F7F7"></path>
            </g>
        </g>
    </g>
</svg>