<?xml version="1.0" encoding="UTF-8"?>
<svg width="191px" height="196px" viewBox="0 0 191 196" version="1.1" xmlns="http://www.w3.org/2000/svg" xmlns:xlink="http://www.w3.org/1999/xlink">
    <!-- Generator: sketchtool 62 (101010) - https://sketch.com -->
    <title>2397F85D-88A0-40E2-A908-0B16B90B84D7</title>
    <desc>Created with sketchtool.</desc>
    <g id="--Premier-League-2020-21" stroke="none" stroke-width="1" fill="none" fill-rule="evenodd">
        <g id="Premier-League-2020-21" transform="translate(-2599.000000, -259.000000)">
            <g id="Fulham" transform="translate(2599.000000, 259.000000)">
                <g id="Page-1">
                    <g id="Asset-1">
                        <path d="M95.4,141.4 L145.4,137.4 L153.4,181.4 C154.2,185.3 153.8,187.7 149.4,188.4 L108.4,195.4 C104,196.1 102.2,194.3 101.4,190.4 L95.4,166.4 L95.4,141.4 Z" id="shorts" fill="#010202"></path>
                        <path d="M95.4,141.4 L45.4,137.4 L37.7,181.3 C36.9,185.1 37.3,187.6 41.7,188.3 L82.5,195.3 C86.8,196 88.7,194.2 89.5,190.3 L95.5,166.4 L95.4,141.4 Z" id="Path" fill="#010202"></path>
                        <path d="M95.4,0.4 L120.4,0.4 C124.7,0.5 146.8,1.7 161.4,10.5 C146.6,22.2 145.4,59.4 145.4,59.4 L145.4,137.4 L95.4,141.4 L95.4,0.4 Z" id="Path_1_" fill="#E5E4E4"></path>
                        <path d="M95.4,0.4 L70.4,0.4 C66.1,0.5 44,1.7 29.4,10.5 C44.2,22.2 45.4,59.4 45.4,59.4 L45.4,137.4 L95.4,141.4 L95.4,0.4 Z" id="Path_3_" fill="#F2F2F2"></path>
                        <path d="M95.6,0.4 L70.9,0.4 C70.9,0.4 41.2,-0.1 28,11.4 C14.8,22.9 3.5,45.4 1,50.4 C-1.5,55.4 3.6,59.4 12.6,64.4 C22.2,69.8 31,74.4 34.6,68.4 C38.2,62.4 45,52.4 45,52.4 C45,52.4 48.8,20.4 61.4,9 C70.9,0.4 95.5,3.9 95.5,3.9 L95.6,0.4 L95.6,0.4 Z" id="Path_9_" fill="#010202"></path>
                        <path d="M95.4,0.4 L120.1,0.4 C120.1,0.4 149.8,-0.1 163,11.4 C176.2,22.9 187.6,45.4 190,50.4 C192.4,55.4 187.4,59.4 178.4,64.4 C168.8,69.8 160,74.4 156.4,68.4 C152.8,62.4 146,52.4 146,52.4 C146,52.4 142.2,20.4 129.6,9 C120.1,0.4 95.4,3.9 95.4,3.9 L95.4,0.4 Z" id="Path_10_" fill="#010202"></path>
                        <path d="M121.4,0.4 L69.4,0.4 L69.4,1.3 C69.4,5.4 95.4,21.4 95.4,21.4 C95.4,21.4 121.4,5.4 121.4,1.3 L121.4,0.4 Z" id="colar" fill="#F2F2F2"></path>
                        <path d="M115.4,0.4 L75.4,0.4 L75.4,1.2 C75.4,4.1 95.4,15.4 95.4,15.4 C95.4,15.4 115.4,4.1 115.4,1.2 L115.4,0.4 Z" id="Path_12_" fill="#B5B5B5"></path>
                    </g>
                </g>
                <path d="M4.5,43.6 C4.5,43.6 -0.2,49.9 0.3,53.6 L0.7,55.1 C1.6,56.6 2.8,58.4 4.2,59.4 C4.2,59.4 14.2,66.3 21.8,69.4 C34.8,76.7 38,62.6 38.5,62.4" id="Path" fill="#F4F4F4"></path>
                <path d="M152.4,62.5 C155.1,65.4 155.4,75.9 169,69.6 C176.6,66.5 186.8,59.2 186.8,59.2 C188.2,58.2 189.4,57 190.3,55.5 L190.6,54.3 C192.2,50.8 186.3,43.4 186.3,43.4" id="Path" fill="#F4F4F4"></path>
                <path d="M71.3,4.3 C71.3,4.3 55.8,6 52.2,23.6 C52.2,23.6 71.9,16 95.3,21.4 L71.3,4.3 Z" id="Path" fill="#010202"></path>
                <path d="M119.3,4.4 C119.3,4.4 135.2,6.1 138.8,23.7 C138.8,23.7 118.7,16.1 95.3,21.5 L119.3,4.4 Z" id="Path" fill="#010202"></path>
                <path d="M112.8,40 C112.8,41.4 112.8,45.1 112.8,46.7 C112.8,54.4 121.2,61.1 121.2,61.1 C121.2,61.1 129.6,54.9 129.6,47.3 C129.6,45.5 129.6,41.8 129.4,40.2 L116,40 L112.8,40 Z" id="Path" stroke="#000000" fill="#E5E4E4"></path>
                <path d="M116.1,40.5 L116.2,55.1 C116.2,55.1 113.4,52.4 113.2,49.1 C113,45.8 113,40.5 113,40.5 L116.1,40.5 Z" id="Path" fill="#000000" fill-rule="nonzero"></path>
                <path d="M126.3,40.5 L126.2,55.1 C126.2,55.1 129,52.4 129.2,49.1 C129.4,45.8 129.4,40.5 129.4,40.5 L126.3,40.5 Z" id="Path" fill="#000000" fill-rule="nonzero"></path>
                <path d="M112.9,4.1 L78.1,4.3 L77.2,3.6 C77.2,3.6 76.4,2.8 76.4,2.8 L75.9,2.2 L115,2 L114.7,2.4 C114.7,2.4 113.9,3.2 113.9,3.2 L112.9,4.1 Z" id="Path" fill="#B2221F"></path>
            </g>
        </g>
    </g>
</svg>