<?xml version="1.0" encoding="UTF-8"?>
<svg width="192px" height="197px" viewBox="0 0 192 197" version="1.1" xmlns="http://www.w3.org/2000/svg" xmlns:xlink="http://www.w3.org/1999/xlink">
    <title>24790D9F-4FB6-46C3-BDE3-8B7AD845C88A</title>
    <g id="*Championship-2020-2021" stroke="none" stroke-width="1" fill="none" fill-rule="evenodd">
        <g id="Championship-2019-20" transform="translate(-203.000000, -785.000000)">
            <g id="Huddersfield-Town" transform="translate(203.000000, 785.000000)">
                <path d="M115.2,1 L77.2,1 L77.2,1.8 C77.2,4.7 96.2,16 96.2,16 C96.2,16 115.2,4.7 115.2,1.8 L115.2,1 Z" id="inside-neck" fill="#D31818"></path>
                <path d="M96.2,138 L146.2,138 L154.2,182 C155,185.9 154.6,188.3 150.2,189 L109.2,196 C104.8,196.7 103,194.9 102.2,191 L96.2,167 L96.2,138 L96.2,138 Z" id="shorts" fill="#CCCCCC"></path>
                <path d="M96.2,138 L46.2,138 L38.5,181.9 C37.7,185.8 38.1,188.2 42.5,188.9 L83.3,195.9 C87.6,196.6 89.5,194.8 90.3,190.9 L96.3,167 L96.2,138 Z" id="shorts-2" fill="#D6D7D8"></path>
                <path d="M96.2,1 L121.2,1 C125.5,1.1 147.6,2.3 162.2,11.1 C147.4,22.8 146.2,60.1 146.2,60.1 L146.2,138.1 L96.2,142.1 L96.2,1 Z" id="top-highlight" fill="#0D6BC9"></path>
                <path d="M96.2,1 L71.2,1 C66.9,1.1 44.8,2.3 30.2,11.1 C45,22.8 46.2,60 46.2,60 L46.2,138 L96.2,142 L96.2,1 Z" id="top-highlight-2" fill="#1C76DF"></path>
                <path d="M96.2,1 L71.5,1 C71.5,1 41.8,0.5 28.6,12 C15.4,23.5 4.1,46 1.6,51 C-0.9,56 4.2,60 13.2,65 C22.8,70.4 31.6,75 35.2,69 C38.8,63 45.6,53 45.6,53 C45.6,53 49.5,21 62,9.6 C71.5,1 96.2,4.5 96.2,4.5 L96.2,1 Z" id="path-1" fill="#1C76DF"></path>
                <path d="M96.2,1 L120.9,1 C120.9,1 150.6,0.5 163.8,12 C177,23.5 188.4,46 190.8,51 C193.2,56 188.2,60 179.2,65 C169.6,70.4 160.8,75 157.2,69 C153.6,63 146.8,53 146.8,53 C146.8,53 143,21 130.4,9.6 C120.8,1 96.2,4.5 96.2,4.5 L96.2,1 Z" id="path-3" fill="#0D6BC9"></path>
                <path d="M104.9,1 L118.7,1 L125.6,1.2 L129.8,1.4 L133.3,1.6 C133.1,6.5 133.3,11.7 133.3,14.7 L133.3,139.2 L107.5,141.3 L107.5,5.8" id="stripe-5" fill="#D6D6D6"></path>
                <path d="M84.4,5.6 L84.4,141 L58.6,139 L58.6,14.5 C58.6,11.5 58.8,6.3 58.6,1.4 L62.1,1.2 L66.3,1 L73.2,0.8 L87,0.8" id="stripe-5_1_" fill="#E0E0E0"></path>
                <path d="M122.2,1 L70.2,1 L70.2,1.9 C70.2,4 76.7,9 83.2,13.5 C84.9,14.7 88.3,17 91.5,19.1 C93.4,20.3 95,21.4 96.2,22 C100.2,19.8 104.5,16.8 109.2,13.5 C115.7,9 122.2,4 122.2,1.9 L122.2,1 Z" id="colar" fill="#1C76DF"></path>
                <path d="M96.2,16 C96.2,16 116.2,4.7 116.2,1.8 L116.2,1 L76.2,1 L76.2,1.8 C76.2,4.7 96.2,16 96.2,16 L96.2,16 Z" id="inside-neck-2" fill="#E0E0E0"></path>
                <path d="M81.5,12.3 L90.5,18.4 C90.5,18.4 93.2,20.7 93.6,23.4 C93.7,23.7 94,24 94.3,24 L98.1,24 C98.4,24 98.7,23.8 98.8,23.5 C99,22.4 99.8,20 101.4,18.9 C103.5,17.5 109.3,13.5 109.3,13.5 L106.3,10 L96.3,16 L84.5,8.9 L81.5,12.3 Z" id="Path" fill="#EDEDED"></path>
            </g>
        </g>
    </g>
</svg>