<?xml version="1.0" encoding="UTF-8"?>
<svg width="191px" height="196px" viewBox="0 0 191 196" version="1.1" xmlns="http://www.w3.org/2000/svg" xmlns:xlink="http://www.w3.org/1999/xlink">
    <!-- Generator: sketchtool 62 (101010) - https://sketch.com -->
    <title>0E1ECD2B-2479-463A-BB66-7E430E561BBE</title>
    <desc>Created with sketchtool.</desc>
    <g id="--Premier-League-2020-21" stroke="none" stroke-width="1" fill="none" fill-rule="evenodd">
        <g id="Premier-League-2020-21" transform="translate(-2904.000000, -259.000000)">
            <g id="Leeds2" transform="translate(2904.000000, 259.000000)">
                <g id="Asset-1">
                    <path d="M95.2,141.6 L145.2,137.6 L153.2,181.6 C154,185.5 153.6,187.9 149.2,188.6 L108.2,195.6 C103.8,196.3 102,194.5 101.2,190.6 L95.2,166.6 L95.2,141.6 L95.2,141.6 Z" id="shorts" fill="#F4F4F4"></path>
                    <path d="M95.2,141.6 L45.2,137.6 L37.5,181.5 C36.7,185.3 37.1,187.8 41.5,188.5 L82.3,195.5 C86.6,196.2 88.5,194.4 89.3,190.5 L95.3,166.6 L95.2,141.6 Z" id="Path" fill="#F4F4F4"></path>
                    <path d="M95.2,0.6 L120.2,0.6 C124.5,0.7 146.6,1.9 161.2,10.7 C146.4,22.4 145.2,59.6 145.2,59.6 L145.2,137.6 L95.2,141.6 L95.2,0.6 Z" id="Path-2" fill="#EAEAEA"></path>
                    <path d="M95.2,0.6 L70.2,0.6 C65.9,0.7 43.8,1.9 29.2,10.7 C44,22.4 45.2,59.6 45.2,59.6 L45.2,137.6 L95.2,141.6 L95.2,0.6 Z" id="Path-3" fill="#F2F2F2"></path>
                    <path d="M95.4,0.6 L70.7,0.6 C70.7,0.6 41,0.1 27.8,11.6 C14.6,23.1 3.3,45.6 0.8,50.6 C-1.7,55.6 3.4,59.6 12.4,64.6 C22,70 30.8,74.6 34.4,68.6 C38,62.6 44.8,52.6 44.8,52.6 C44.8,52.6 48.6,20.6 61.2,9.2 C70.7,0.6 95.3,4.1 95.3,4.1 L95.4,0.6 Z" id="Path-4" fill="#F8F7F7"></path>
                    <path d="M95.2,0.6 L119.9,0.6 C119.9,0.6 149.6,0.1 162.8,11.6 C176,23.1 187.4,45.6 189.8,50.6 C192.2,55.6 187.2,59.6 178.2,64.6 C168.6,70 159.8,74.6 156.2,68.6 C152.6,62.6 145.8,52.6 145.8,52.6 C145.8,52.6 142,20.6 129.4,9.2 C119.9,0.6 95.2,4.1 95.2,4.1 L95.2,0.6 Z" id="Path-5" fill="#DDDDDD"></path>
                </g>
                <path d="M121.1,0.8 L69.1,0.8 L69.1,1.7 C69.1,3 71.7,5.5 75.2,8.3 C86.8,17.5 103.3,17.5 114.9,8.3 C118.5,5.5 121,3 121,1.7 L121,0.8 L121.1,0.8 Z" id="colar" fill="#EAEAEA"></path>
                <path d="M115.1,0.8 L75.1,0.8 L75.1,1.6 C75.1,2.2 75.9,3.1 77.2,4.2 C87.5,13 102.8,13 113,4.2 C114.3,3.1 115.1,2.2 115.1,1.6 L115.1,0.8 L115.1,0.8 Z" id="Path-6" fill="#A5A4A4"></path>
                <path d="M35.3,7.3 L35.2,8.7 C35.2,8.7 43.2,5.1 51.8,3.9 C62.1,2.5 69.4,2.7 69.4,2.7 C69.4,2.7 69,1.8 69.1,0.8 C69.1,0.8 50.9,1.2 41.8,4.7" id="Path" fill="#2D3B8F"></path>
                <path d="M35.6,10.4 L35.6,11.8 C35.6,11.8 44.4,8.3 53,7.1 C63.2,5.6 72,5.7 72,5.7 C72,5.7 70.6,4.4 70.2,3.8 C70.2,3.8 52,4.2 42.9,7.7" id="Path" fill="#2D3B8F"></path>
                <path d="M36.3,13.7 L36.3,15.1 C36.3,15.1 46.4,11.7 55,10.6 C65.3,9.3 75.6,8.9 75.6,8.9 C75.6,8.9 74.4,8 73.6,7.3 C73.6,7.3 57.5,7.2 44.8,10.9" id="Path" fill="#2D3B8F"></path>
                <path d="M155.2,6.9 L155.3,8.6 C155.3,8.6 147.3,5 138.7,3.8 C128.4,2.4 121.1,2.6 121.1,2.6 C121.1,2.6 121.5,1.7 121.4,0.7 C121.4,0.7 139.6,1.1 148.7,4.6" id="Path" fill="#2D3B8F"></path>
                <path d="M154.9,10.2 L154.9,11.6 C154.9,11.6 146.1,8.1 137.5,6.9 C127.2,5.5 118.4,5.6 118.4,5.6 C118.4,5.6 119.8,4.3 120.2,3.7 C120.2,3.7 138.4,4.1 147.5,7.6" id="Path" fill="#2D3B8F"></path>
                <path d="M154.2,13.5 L154.2,14.9 C154.2,14.9 144.1,11.5 135.5,10.4 C125.2,9.1 114.9,8.7 114.9,8.7 C114.9,8.7 116.1,7.8 116.9,7.1 C116.9,7.1 133,7 145.7,10.7" id="Path" fill="#2D3B8F"></path>
                <path d="M0.2,51.6 C0.2,51.6 -2.3,57.6 14.4,65.8 C14.4,65.8 28.9,74.2 33.1,70.1 L0.2,51.6 Z" id="Path" fill="#2D3B8F"></path>
                <path d="M190.3,51.7 C190.3,51.7 192.8,57.7 176.1,65.9 C176.1,65.9 161.6,74.3 157.4,70.2 L190.3,51.7 Z" id="Path" fill="#2D3B8F"></path>
                <path d="M45.4,137.2 L37.1,182.8 C37.1,182.8 36.7,186.8 39.2,187.8 L48.3,137.5 L45.4,137.2 Z" id="Path" fill="#2D3B8F"></path>
                <path d="M145.1,137.5 L153.4,183.1 C153.4,183.1 153.8,186.9 151.3,187.9 L142.2,137.8 L145.1,137.5 Z" id="Path" fill="#2D3B8F"></path>
                <path d="M49.9,137.7 L40.4,188.3 C40.4,188.3 41,188.5 43.5,188.9 L52.7,138.1 L49.9,137.7 Z" id="Path" fill="#2D3B8F"></path>
                <path d="M54.6,138.3 L45.1,189.1 C45.1,189.1 45.8,189.2 48.3,189.6 L57.6,138.6 L54.6,138.3 Z" id="Path" fill="#2D3B8F"></path>
                <path d="M137.2,138.3 L146.4,189.1 C148.9,188.7 149.5,188.5 149.5,188.5 L140,137.9 L137.2,138.3 Z" id="Path" fill="#2D3B8F"></path>
                <path d="M132.3,139 L141.6,190 C144.1,189.6 144.8,189.5 144.8,189.5 L135.3,138.7 L132.3,139 Z" id="Path" fill="#2D3B8F"></path>
            </g>
        </g>
    </g>
</svg>