<?xml version="1.0" encoding="UTF-8"?>
<svg width="191px" height="195px" viewBox="0 0 191 195" version="1.1" xmlns="http://www.w3.org/2000/svg" xmlns:xlink="http://www.w3.org/1999/xlink">
    <!-- Generator: sketchtool 62 (101010) - https://sketch.com -->
    <title>2FA3BBEB-F5AE-455D-8754-062F1609664D</title>
    <desc>Created with sketchtool.</desc>
    <g id="--Premier-League-2020-21" stroke="none" stroke-width="1" fill="none" fill-rule="evenodd">
        <g id="Premier-League-2020-21" transform="translate(-207.000000, -622.000000)">
            <g id="Leiceister-City" transform="translate(207.000000, 622.000000)">
                <g id="Asset-1">
                    <path d="M95.2,140.479592 L145.2,136.5 L153.2,180.27551 C154,184.155612 153.6,186.543367 149.2,187.239796 L108.2,194.204082 C103.8,194.90051 102,193.109694 101.2,189.229592 L95.2,165.352041 L95.2,140.479592 L95.2,140.479592 Z" id="shorts" fill="#144996"></path>
                    <path d="M95.2,140.479592 L45.2,136.5 L37.5,180.17602 C36.7,183.956633 37.1,186.443878 41.5,187.140306 L82.3,194.104592 C86.6,194.80102 88.5,193.010204 89.3,189.130102 L95.3,165.352041 L95.2,140.479592 Z" id="Path" fill="#144996"></path>
                    <path d="M95.2,0.198979592 L120.2,0.198979592 C124.5,0.298469388 146.6,1.49234694 161.2,10.247449 C146.4,21.8877551 145.2,58.8979592 145.2,58.8979592 L145.2,136.5 L95.2,140.479592 L95.2,0.198979592 Z" id="Path-2" fill="#1A51AA"></path>
                    <path d="M95.2,0.198979592 L70.2,0.198979592 C65.9,0.298469388 43.8,1.49234694 29.2,10.247449 C44,21.8877551 45.2,58.8979592 45.2,58.8979592 L45.2,136.5 L95.2,140.479592 L95.2,0.198979592 Z" id="Path-3" fill="#1D57CC"></path>
                    <path d="M95.4,0.198979592 L70.7,0.198979592 C70.7,0.198979592 41,-0.298469388 27.8,11.1428571 C14.6,22.5841837 3.3,44.9693878 0.8,49.9438776 C-1.7,54.9183673 3.4,58.8979592 12.4,63.872449 C22,69.244898 30.8,73.8214286 34.4,67.8520408 C38,61.8826531 44.8,51.9336735 44.8,51.9336735 C44.8,51.9336735 48.6,20.0969388 61.2,8.75510204 C70.7,0.198979592 95.3,3.68112245 95.3,3.68112245 L95.4,0.198979592 Z" id="Path-4" fill="#2968CE"></path>
                    <path d="M95.2,0.198979592 L119.9,0.198979592 C119.9,0.198979592 149.6,-0.298469388 162.8,11.1428571 C176,22.5841837 187.4,44.9693878 189.8,49.9438776 C192.2,54.9183673 187.2,58.8979592 178.2,63.872449 C168.6,69.244898 159.8,73.8214286 156.2,67.8520408 C152.6,61.8826531 145.8,51.9336735 145.8,51.9336735 C145.8,51.9336735 142,20.0969388 129.4,8.75510204 C119.9,0.198979592 95.2,3.68112245 95.2,3.68112245 L95.2,0.198979592 Z" id="Path-5" fill="#184A93"></path>
                </g>
                <path d="M145.2,136.5 L153.3,180.57398 C153.3,180.57398 154.8,185.548469 150.8,186.841837 L150.8,186.841837 L141.4,136.798469 L145.2,136.5 Z" id="Path" fill="#FFFFFF"></path>
                <path d="M45.2,136.5 L37.1,180.57398 C37.1,180.57398 35.6,185.548469 39.6,186.841837 L39.6,186.841837 L48.7,136.69898 L45.2,136.5 Z" id="Path" fill="#FFFFFF"></path>
                <path d="M121.3,0.198979592 L69.3,0.198979592 L69.3,1.09438776 C69.3,5.17346939 95.3,21.0918367 95.3,21.0918367 C95.3,21.0918367 121.3,5.17346939 121.3,1.09438776 L121.3,0.198979592 Z" id="colar" fill="#184A93"></path>
                <path d="M115.3,0.198979592 L75.3,0.198979592 L75.3,0.994897959 C75.3,3.88010204 95.3,15.122449 95.3,15.122449 C95.3,15.122449 115.3,3.88010204 115.3,0.994897959 L115.3,0.198979592 Z" id="Path-6" fill="#093468"></path>
                <path d="M69.4,0.0994897959 C69.4,0.0994897959 50.7,0.397959184 38.2,5.17346939 L32.7,7.66071429 L32.9,10.0484694 C32.9,10.0484694 50.8,1.69132653 70,2.68622449 C70,2.58673469 68.9,1.49234694 69.4,0.0994897959 Z" id="Path" fill="#FFFFFF"></path>
                <path d="M121.8,0.198979592 C121.8,0.198979592 140.5,0.49744898 153,5.27295918 L158.5,7.76020408 L158.3,10.1479592 C158.3,10.1479592 140.4,1.79081633 121.2,2.78571429 C121.1,2.68622449 122.3,1.59183673 121.8,0.198979592 Z" id="Path" fill="#FFFFFF"></path>
                <polygon id="Path" fill="#CE9F1B" points="186.9 44.2729592 151.8 60.8877551 149.7 57.7040816 185.1 40.8903061"></polygon>
                <polygon id="Path" fill="#FFFFFF" points="185 40.8903061 149.7 57.7040816 148.6 56.0127551 184.1 39.1989796"></polygon>
                <polygon id="Path" fill="#FFFFFF" points="187.9 45.9642857 152.9 62.5790816 151.8 60.8877551 186.9 44.1734694"></polygon>
                <polygon id="Path" fill="#CE9F1B" points="4.6 42.5816327 38.7 61.1862245 41 58.002551 6.6 39.2984694"></polygon>
                <polygon id="Path" fill="#FFFFFF" points="6.6 39.2984694 41 58.002551 42.2 56.4107143 7.7 37.6071429"></polygon>
                <polygon id="Path" fill="#FFFFFF" points="3.5 44.1734694 37.6 62.7780612 38.7 61.0867347 4.6 42.4821429"></polygon>
            </g>
        </g>
    </g>
</svg>