<?xml version="1.0" encoding="UTF-8"?>
<svg width="192px" height="195px" viewBox="0 0 192 195" version="1.1" xmlns="http://www.w3.org/2000/svg" xmlns:xlink="http://www.w3.org/1999/xlink">
    <!-- Generator: sketchtool 62 (101010) - https://sketch.com -->
    <title>C8791272-7177-4B40-AF81-01E3561E6F89</title>
    <desc>Created with sketchtool.</desc>
    <g id="--Premier-League-2020-21" stroke="none" stroke-width="1" fill="none" fill-rule="evenodd">
        <g id="Premier-League-2020-21" transform="translate(-510.000000, -620.000000)">
            <g id="Liverpool" transform="translate(510.000000, 620.000000)">
                <g id="Asset-1" transform="translate(1.000000, 0.000000)">
                    <path d="M95.2,140.479592 L145.2,136.5 L153.2,180.27551 C154,184.155612 153.6,186.543367 149.2,187.239796 L108.2,194.204082 C103.8,194.90051 102,193.109694 101.2,189.229592 L95.2,165.352041 L95.2,140.479592 Z" id="shorts" fill="#E01A4A"></path>
                    <path d="M95.2,140.479592 L45.2,136.5 L37.5,180.17602 C36.7,183.956633 37.1,186.443878 41.5,187.140306 L82.3,194.104592 C86.6,194.80102 88.5,193.010204 89.3,189.130102 L95.3,165.352041 L95.2,140.479592 Z" id="Path" fill="#E01A4A"></path>
                    <path d="M95.2,0.198979592 L120.2,0.198979592 C124.5,0.298469388 146.6,1.49234694 161.2,10.247449 C146.4,21.8877551 145.2,58.8979592 145.2,58.8979592 L145.2,136.5 L95.2,140.479592 L95.2,0.198979592 Z" id="Path-2" fill="#C11541"></path>
                    <path d="M95.2,0.198979592 L70.2,0.198979592 C65.9,0.298469388 43.8,1.49234694 29.2,10.247449 C44,21.8877551 45.2,58.8979592 45.2,58.8979592 L45.2,136.5 L95.2,140.479592 L95.2,0.198979592 Z" id="Path-3" fill="#D81137"></path>
                    <path d="M95.4,0.198979592 L70.7,0.198979592 C70.7,0.198979592 41,-0.298469388 27.8,11.1428571 C14.6,22.5841837 3.3,44.9693878 0.8,49.9438776 C-1.7,54.9183673 3.4,58.8979592 12.4,63.872449 C22,69.244898 30.8,73.8214286 34.4,67.8520408 C38,61.8826531 44.8,51.9336735 44.8,51.9336735 C44.8,51.9336735 48.6,20.0969388 61.2,8.75510204 C70.7,0.198979592 95.3,3.68112245 95.3,3.68112245 L95.4,0.198979592 Z" id="Path-4" fill="#E51847"></path>
                    <path d="M95.2,0.198979592 L119.9,0.198979592 C119.9,0.198979592 149.6,-0.298469388 162.8,11.1428571 C176,22.5841837 187.4,44.9693878 189.8,49.9438776 C192.2,54.9183673 187.2,58.8979592 178.2,63.872449 C168.6,69.244898 159.8,73.8214286 156.2,67.8520408 C152.6,61.8826531 145.8,51.9336735 145.8,51.9336735 C145.8,51.9336735 142,20.0969388 129.4,8.75510204 C119.9,0.198979592 95.2,3.68112245 95.2,3.68112245 L95.2,0.198979592 Z" id="Path-5" fill="#AA1640"></path>
                    <path d="M121.2,0.198979592 L69.2,0.198979592 L69.2,1.09438776 C69.2,5.17346939 95.2,21.0918367 95.2,21.0918367 C95.2,21.0918367 121.2,5.17346939 121.2,1.09438776 L121.2,0.198979592 Z" id="colar" fill="#FFFFFF"></path>
                    <path d="M115.2,0.198979592 L75.2,0.198979592 L75.2,0.994897959 C75.2,3.38265306 88.4,11.1428571 93.3,14.0280612 C94.5,14.7244898 95.9,14.7244898 97,14.0280612 C102,11.1428571 115.1,3.28316327 115.1,0.994897959 L115.1,0.198979592 L115.2,0.198979592 Z" id="Path-6" fill="#D7D7D7"></path>
                </g>
                <polygon id="Path" fill="#148E77" points="35.6 67.5535714 1.8 49.5459184 3.4 46.6607143 37.4 64.6683673"></polygon>
                <path d="M35.6,67.5535714 L1.8,49.5459184 L1.1,51.5357143 C0.7,53.0280612 1.1,56.1122449 3.4,57.4056122 L7.1,60.4897959 C7.2,60.5892857 19.3,67.6530612 19.4,67.752551 L26.9,70.3392857 C28.7,71.3341837 33.2,70.6377551 34.3,69.1454082 L35.6,67.5535714 Z" id="Path" fill="#FFFFFF"></path>
                <polygon id="Path" fill="#148E77" points="156.9 67.5535714 190.6 49.6454082 189.2 46.6607143 155.2 64.6683673"></polygon>
                <path d="M156.7,67.5535714 L190.7,49.4464286 L191.4,51.1377551 C191.8,52.630102 191.4,56.1122449 189.1,57.4056122 L185.3,60.4897959 C185.2,60.5892857 173,67.752551 172.9,67.752551 L165.4,70.3392857 C163.6,71.3341837 159,70.6377551 158,69.1454082 L156.7,67.5535714 Z" id="Path" fill="#FFFFFF"></path>
                <path d="M115.9,0.298469388 C115.9,0.298469388 116.5,1.29336735 114.5,3.08418367 C112.5,4.875 90.6,17.6096939 90.6,17.6096939 L93.7,19.5994898 L118.6,3.18367347 C118.6,3.18367347 119.8,1.79081633 119,0.397959184 L115.9,0.298469388 Z" id="Path" fill="#148E77"></path>
                <path d="M76.2,0.298469388 C76.2,0.298469388 75.6,1.29336735 77.6,3.08418367 C79.6,4.875 97.2,15.4209184 97.2,15.4209184 L94,16.6147959 L73.6,3.08418367 C73.6,3.08418367 72.4,1.69132653 73.2,0.298469388 L76.2,0.298469388 Z" id="Path" fill="#148E77"></path>
                <path d="M45.4,140.778061 L57.8,142.071429 L49.1,188.334184 L42.5,187.239796 C42.5,187.239796 36.4,187.339286 38.5,180.27551 L45.4,140.778061 Z" id="Path" fill="#FFFFFF"></path>
                <path d="M147.1,140.977041 L134.7,142.270408 L143.4,188.533163 L150,187.438776 C150,187.438776 156.2,187.538265 154.1,180.375 L147.1,140.977041 Z" id="Path" fill="#FFFFFF"></path>
            </g>
        </g>
    </g>
</svg>