<?xml version="1.0" encoding="UTF-8"?>
<svg width="192px" height="196px" viewBox="0 0 192 196" version="1.1" xmlns="http://www.w3.org/2000/svg" xmlns:xlink="http://www.w3.org/1999/xlink">
    <title>CC2A5805-E59C-45CE-8CE4-7A47EB304A3F</title>
    <g id="*Championship-2020-2021" stroke="none" stroke-width="1" fill="none" fill-rule="evenodd">
        <g id="Championship-2019-20" transform="translate(-504.000000, -786.000000)">
            <g id="Luton-Town" transform="translate(504.000000, 786.000000)">
                <path d="M96,137 L46,137 L38.3,180.9 C37.5,184.7 37.9,187.2 42.3,187.9 L83.1,194.9 C87.4,195.6 89.3,193.8 90.1,189.9 L96.1,166 L96,137 Z" id="shorts" fill="#2E2E2E"></path>
                <path d="M96,137 L146,137 L154,181 C154.8,184.9 154.4,187.3 150,188 L109,195 C104.6,195.7 102.8,193.9 102,190 L96,166 L96,137 Z" id="shorts_1_" fill="#171717"></path>
                <path d="M115,0 L77,0 L77,0.8 C77,3.7 96,15 96,15 C96,15 115,3.7 115,0.8 L115,0 Z" id="inside-neck" fill="#D31818"></path>
                <path d="M96,3 C110.8,3 119.1,3 121,3 C125.3,3.1 147.4,4.3 162,13.1 C147.2,24.8 146,62 146,62 L146,137 L96,141 L96,3 Z" id="top-highlight" fill="#F15C27"></path>
                <path d="M96,0 C81.2,0 72.9,0 71,0 C66.7,0.1 44.6,1.3 30,10.1 C44.8,21.8 46,59 46,59 L46,137 L96,141 L96,0 Z" id="top-highlight_1_" fill="#FA7741"></path>
                <path d="M96,3.51281504e-16 L120.7,3.51281504e-16 C120.7,3.51281504e-16 150.4,-0.5 163.6,11 C176.8,22.5 188.2,45 190.6,50 C193,55 188,59 179,64 C169.4,69.4 160.6,74 157,68 C153.4,62 146.6,52 146.6,52 C146.6,52 142.8,20 130.2,8.6 C120.7,3.51281504e-16 96,3.5 96,3.5 L96,3.51281504e-16 Z" id="path-1_1_" fill="#F15427"></path>
                <path d="M96,3.51281504e-16 L71.4,3.51281504e-16 C71.4,3.51281504e-16 41.7,-0.5 28.6,11 C15.4,22.5 4.1,45.1 1.6,50.1 C-0.9,55.1 4.2,59.1 13.1,64.1 C22.7,69.5 31.5,74.1 35.1,68.1 C38.7,62.1 45.5,52.1 45.5,52.1 C45.5,52.1 49.4,20 61.9,8.6 C71.4,3.51281504e-16 96,3.5 96,3.5 L96,3.51281504e-16 Z" id="path-3_1_" fill="#FF7C41"></path>
                <path d="M122,0 L70,0 L70,0.9 C70,5 96,21 96,21 C96,21 122,5 122,0.9 L122,0 Z" id="colar" fill="#3F5993"></path>
                <path d="M2.5,48.4 C1.9,49.3 1.5,50.4 1.1,51.4 C0.8,52.4 0.9,53.5 1.3,54.5 C2.9,57.6 6.4,60.5 13.9,64.9 C19.5,67.9 22.3,69.4 26.1,70.6 C28.9,71.5 32.3,72.2 35.1,68.4 C35.3,68.4 25.5,63.3 17.6,58.7 C12.4,55.6 7.3,52.2 2.5,48.4 Z" id="Path" fill="#EBEBEB"></path>
                <path d="M189.6,48.3 C190.2,49.2 190.6,50.2 191,51.3 C191.3,52.3 191.2,53.5 190.8,54.5 C189.2,57.6 185.7,60.5 178.2,64.9 C172.6,67.9 169.8,69.4 166,70.6 C163.2,71.5 159.8,72.2 157,68.4 C156.8,68.4 166.6,63.3 174.5,58.7 C179.8,55.5 184.8,52 189.6,48.3 Z" id="Path" fill="#3F5993"></path>
                <polygon id="Rectangle_2_" fill="#FA7741" points="96 15 82 6.3 77.3 10.5 96 22"></polygon>
                <polygon id="Rectangle_1_" fill="#F15C27" points="96 22 114.6 10.5 109.9 6.3 96 15"></polygon>
                <path d="M116,0 L76,0 L76,0.8 C76,3.7 96,15 96,15 C96,15 116,3.7 116,0.8 L116,0 Z" id="inside-neck_1_" fill="#E26406"></path>
                <polygon id="Path" fill="#FF7C41" points="82 6.3 80.4 7.8 96 17.8 96 15"></polygon>
                <polygon id="Path" fill="#FF7C41" points="110 6.3 111.6 7.8 96 17.8 96 15"></polygon>
            </g>
        </g>
    </g>
</svg>