<svg xmlns="http://www.w3.org/2000/svg" xmlns:xlink="http://www.w3.org/1999/xlink"><defs><path d="M0 .003h24.665s29.725-.469 42.894 11c13.17 11.467 24.56 34.002 27 39C97 55 92 59 83 64c-9.64 5.356-18.44 10.003-22 4-3.56-6.003-10.44-15.997-10.44-15.997s-3.833-32.03-16.411-43.414C24.665.003 0 3.454 0 3.454V.003z" id="path-51"/><path d="M0 .003h24.665s29.725-.469 42.894 11c13.17 11.467 24.56 34.002 27 39C97 55 92 59 83 64c-9.64 5.356-18.44 10.003-22 4-3.56-6.003-10.44-15.997-10.44-15.997s-3.833-32.03-16.411-43.414C24.665.003 0 3.454 0 3.454V.003z" id="path-52"/></defs><symbol id="lyon" viewBox="0 0 200 200"><g id="Design-Screens" stroke="none" stroke-width="1" fill="none" fill-rule="evenodd"><g transform="translate(-5 -3)" id="1-2-FREE-Jerseys-V1"><path d="M119 3H81v.781C81 6.662 99.987 18 99.987 18S119 6.662 119 3.781V3z" id="inside-neck" fill="#D31818"/><path d="M158.32 140h-50l-8 44c-.784 3.856-.37 6.308 4 7l41 7c4.37.692 6.216-1.145 7-5l6-24v-29z" id="shorts" fill="#E8E8E8" transform="matrix(-1 0 0 1 258.32 0)"/><path d="M100 140H50l-7.682 43.892c-.78 3.846-.367 6.292 3.979 6.982l40.774 6.983c4.346.69 6.182-1.142 6.962-4.988l5.966-23.94L100 140z" id="shorts" fill="#E6E6E6"/><path d="M166 3h-25c-4.32.136-26.398 1.285-41 10.05C114.77 24.774 116 62 116 62v78l50 4V3z" id="top-highlight" fill="#D9D9D9" transform="matrix(-1 0 0 1 266 0)"/><path d="M100 3H75c-4.32.136-26.398 1.285-41 10.05C48.77 24.774 50 62 50 62v78l50 4V3z" id="top-highlight" fill="#ECECEC"/><g id="Rectangle-2" stroke-width="1" transform="translate(5 3)"><mask id="mask-2" fill="#fff"><use xlink:href="#path-51"/></mask><use id="Mask" fill="#E3E0E0" transform="matrix(-1 0 0 1 95.176 0)" xlink:href="#path-51"/></g><g id="Rectangle-2" stroke-width="1" transform="translate(100 3)"><mask id="mask-4" fill="#fff"><use xlink:href="#path-52"/></mask><use id="Mask" fill="#C7C5C5" xlink:href="#path-52"/></g><path d="M43 8.118c7.348-2.382 14.54-3.916 21.573-4.603 7.034-.687 15.478-.687 25.334 0l10.418 20.377c-7.236.076-15.386 1.172-24.452 3.288-9.065 2.116-16.633 6.049-22.703 11.796.17-7.426-.812-13.777-2.943-19.05-2.131-5.274-4.54-9.21-7.227-11.808z" id="Rectangle" fill="#D4263B"/><path d="M100 8.118c7.348-2.382 14.54-3.916 21.573-4.603 7.034-.687 15.478-.687 25.334 0l10.418 20.377c-7.236.076-15.386 1.172-24.452 3.288-9.065 2.116-16.633 6.049-22.703 11.796.17-7.426-.812-13.777-2.943-19.05-2.131-5.274-4.54-9.21-7.227-11.808z" id="Rectangle-Copy" fill="#B52032" transform="matrix(-1 0 0 1 257.325 0)"/><path d="M126 3l-52 .024v.902C74 8 99.988 24 99.988 24S126 7.999 126 3.926V3z" id="colar" fill="#E6E6E6"/><path d="M120 3H80v.781C80 6.662 99.987 18 99.987 18S120 6.662 120 3.781V3z" id="inside-neck" fill="#B5AFAF"/></g></g></symbol></svg>