<?xml version="1.0" encoding="UTF-8"?>
<svg width="191px" height="195px" viewBox="0 0 191 195" version="1.1" xmlns="http://www.w3.org/2000/svg" xmlns:xlink="http://www.w3.org/1999/xlink">
    <!-- Generator: sketchtool 62 (101010) - https://sketch.com -->
    <title>1C6DF50B-2298-458B-B8D8-9A106EB24AED</title>
    <desc>Created with sketchtool.</desc>
    <g id="--Premier-League-2020-21" stroke="none" stroke-width="1" fill="none" fill-rule="evenodd">
        <g id="Premier-League-2020-21" transform="translate(-1107.000000, -619.000000)">
            <g id="Manchester-United" transform="translate(1107.000000, 619.000000)">
                <g id="Asset-1">
                    <path d="M95.2,140.479592 L145.2,136.5 L153.2,180.27551 C154,184.155612 153.6,186.543367 149.2,187.239796 L108.2,194.204082 C103.8,194.90051 102,193.109694 101.2,189.229592 L95.2,165.352041 L95.2,140.479592 Z" id="shorts" fill="#F2F2F2"></path>
                    <path d="M95.2,140.479592 L45.2,136.5 L37.5,180.17602 C36.7,183.956633 37.1,186.443878 41.5,187.140306 L82.3,194.104592 C86.6,194.80102 88.5,193.010204 89.3,189.130102 L95.3,165.352041 L95.2,140.479592 Z" id="Path" fill="#F2F2F2"></path>
                    <path d="M95.2,0.198979592 L120.2,0.198979592 C124.5,0.298469388 146.6,1.49234694 161.2,10.247449 C146.4,21.8877551 145.2,58.8979592 145.2,58.8979592 L145.2,136.5 L95.2,140.479592 L95.2,0.198979592 Z" id="Path-2" fill="#AB201F"></path>
                    <path d="M95.2,0.198979592 L70.2,0.198979592 C65.9,0.298469388 43.8,1.49234694 29.2,10.247449 C44,21.8877551 45.2,58.8979592 45.2,58.8979592 L45.2,136.5 L95.2,140.479592 L95.2,0.198979592 Z" id="Path-3" fill="#BF2322"></path>
                    <path d="M95.4,0.198979592 L70.7,0.198979592 C70.7,0.198979592 41,-0.298469388 27.8,11.1428571 C14.6,22.5841837 3.3,44.9693878 0.8,49.9438776 C-1.7,54.9183673 3.4,58.8979592 12.4,63.872449 C22,69.244898 30.8,73.8214286 34.4,67.8520408 C38,61.8826531 44.8,51.9336735 44.8,51.9336735 C44.8,51.9336735 48.6,20.0969388 61.2,8.75510204 C70.7,0.198979592 95.3,3.68112245 95.3,3.68112245 L95.4,0.198979592 Z" id="Path-4" fill="#CD2928"></path>
                    <path d="M95.2,0.198979592 L119.9,0.198979592 C119.9,0.198979592 149.6,-0.298469388 162.8,11.1428571 C176,22.5841837 187.4,44.9693878 189.8,49.9438776 C192.2,54.9183673 187.2,58.8979592 178.2,63.872449 C168.6,69.244898 159.8,73.8214286 156.2,67.8520408 C152.6,61.8826531 145.8,51.9336735 145.8,51.9336735 C145.8,51.9336735 142,20.0969388 129.4,8.75510204 C119.9,0.198979592 95.2,3.68112245 95.2,3.68112245 L95.2,0.198979592 Z" id="Path-5" fill="#8E1C1C"></path>
                    <path d="M121.2,0.198979592 L69.2,0.198979592 L69.2,1.09438776 C69.2,2.58673469 72.7,5.67091837 77.1,8.95408163 C87.8,17.0127551 102.6,17.0127551 113.3,8.95408163 C117.7,5.67091837 121.2,2.58673469 121.2,1.09438776 L121.2,0.198979592 L121.2,0.198979592 Z" id="colar" fill="#8E1C1C"></path>
                    <path d="M115.2,0.198979592 L75.2,0.198979592 L75.2,0.994897959 C75.2,1.59183673 76,2.4872449 77.3,3.58163265 C87.6,12.3367347 102.9,12.3367347 113.1,3.58163265 C114.4,2.4872449 115.2,1.59183673 115.2,0.994897959 L115.2,0.198979592 L115.2,0.198979592 Z" id="Path-6" fill="#5B1314"></path>
                </g>
                <path d="M45.3,136.5 L37,181.867347 C37,181.867347 36.6,185.647959 39.1,186.642857 L48.2,136.798469 L45.3,136.5 Z" id="Path" fill="#BF2322"></path>
                <path d="M145.1,136.5 L153.4,181.867347 C153.4,181.867347 153.8,185.647959 151.3,186.642857 L142.2,136.798469 L145.1,136.5 Z" id="Path" fill="#BF2322"></path>
                <rect id="Rectangle" fill="#010202" x="68.3" y="29.1505102" width="9.3" height="1"></rect>
                <rect id="Rectangle" fill="#010202" x="86" y="72.0306122" width="9.3" height="1"></rect>
                <rect id="Rectangle" fill="#010202" x="106" y="58.6989796" width="9.3" height="1"></rect>
                <rect id="Rectangle" fill="#010202" x="73.1" y="78" width="9.3" height="1"></rect>
                <rect id="Rectangle" fill="#010202" x="105" y="93.3214286" width="9.3" height="1"></rect>
                <rect id="Rectangle" fill="#010202" x="55.9" y="100.385204" width="9.3" height="1"></rect>
                <rect id="Rectangle" fill="#010202" x="53.8" y="70.4387755" width="9.3" height="1"></rect>
                <rect id="Rectangle" fill="#010202" x="114.3" y="37.4081633" width="9.3" height="1"></rect>
                <rect id="Rectangle" fill="#010202" x="121.1" y="115.109694" width="9.3" height="1"></rect>
                <rect id="Rectangle" fill="#010202" x="89.4" y="115.109694" width="9.3" height="1"></rect>
                <rect id="Rectangle" fill="#010202" x="59.5" y="128.043367" width="9.3" height="1"></rect>
                <rect id="Rectangle" fill="#010202" x="132.7" y="87.1530612" width="9.3" height="1"></rect>
                <rect id="Rectangle" fill="#010202" x="70.8" y="47.4566327" width="9.3" height="1"></rect>
                <rect id="Rectangle" fill="#E2A028" x="124.1" y="69.4438776" width="9.3" height="1"></rect>
                <rect id="Rectangle" fill="#E2A028" x="114.3" y="101.877551" width="9.3" height="1"></rect>
                <rect id="Rectangle" fill="#E2A028" x="79.2" y="78.8954082" width="9.3" height="1"></rect>
                <rect id="Rectangle" fill="#E2A028" x="127.3" y="118.492347" width="12.6" height="1"></rect>
                <rect id="Rectangle" fill="#E2A028" x="85.8" y="116.204082" width="9.3" height="1"></rect>
                <rect id="Rectangle" fill="#E2A028" x="62" y="102.17602" width="21" height="1"></rect>
                <rect id="Rectangle" fill="#E2A028" x="59.5" y="69.5433673" width="12.1" height="1"></rect>
                <rect id="Rectangle" fill="#E2A028" x="90.8" y="88.8443878" width="9.3" height="1"></rect>
                <rect id="Rectangle" fill="#E2A028" x="70.8" y="26.1658163" width="9.3" height="1"></rect>
                <rect id="Rectangle" fill="#E2A028" x="110.8" y="29.1505102" width="9.3" height="1"></rect>
                <rect id="Rectangle" fill="#E2A028" x="64.8" y="49.0484694" width="9.3" height="1"></rect>
                <rect id="Rectangle" fill="#E2A028" x="64.9" y="129.635204" width="21" height="1"></rect>
                <rect id="Rectangle" fill="#E2A028" x="98.8" y="56.0127551" width="18.8" height="1"></rect>
                <rect id="Rectangle" fill="#010202" x="109" y="78.5969388" width="9.3" height="1"></rect>
                <rect id="Rectangle" fill="#010202" x="124.1" y="17.1122449" width="9.3" height="1"></rect>
                <rect id="Rectangle" fill="#010202" x="68.1" y="12.1377551" width="9.3" height="1"></rect>
                <rect id="Rectangle" fill="#E2A028" x="56.8" y="14.127551" width="14.6" height="1"></rect>
                <rect id="Rectangle" fill="#E2A028" x="111.5" y="15.3214286" width="19" height="1"></rect>
                <rect id="Rectangle" fill="#010202" x="91.8" y="37.3086735" width="9.3" height="1"></rect>
                <rect id="Rectangle" fill="#E2A028" x="95.8" y="35.3188776" width="9.3" height="1"></rect>
            </g>
        </g>
    </g>
</svg>