<?xml version="1.0" encoding="UTF-8"?>
<svg width="191px" height="195px" viewBox="0 0 191 195" version="1.1" xmlns="http://www.w3.org/2000/svg" xmlns:xlink="http://www.w3.org/1999/xlink">
    <!-- Generator: sketchtool 62 (101010) - https://sketch.com -->
    <title>BC46F125-364D-491A-A30E-A475AC03C6BD</title>
    <desc>Created with sketchtool.</desc>
    <g id="--Premier-League-2020-21" stroke="none" stroke-width="1" fill="none" fill-rule="evenodd">
        <g id="Premier-League-2020-21" transform="translate(-807.000000, -619.000000)">
            <g id="Manchester-City" transform="translate(807.000000, 619.000000)">
                <g id="Asset-1">
                    <path d="M95.2,140.479592 L145.2,136.5 L153.2,180.27551 C154,184.155612 153.6,186.543367 149.2,187.239796 L108.2,194.204082 C103.8,194.90051 102,193.109694 101.2,189.229592 L95.2,165.352041 L95.2,140.479592 Z" id="shorts" fill="#F2F2F2"></path>
                    <path d="M95.2,140.479592 L45.2,136.5 L37.5,180.17602 C36.7,183.956633 37.1,186.443878 41.5,187.140306 L82.3,194.104592 C86.6,194.80102 88.5,193.010204 89.3,189.130102 L95.3,165.352041 L95.2,140.479592 Z" id="Path" fill="#F2F2F2"></path>
                    <path d="M95.2,0.198979592 L120.2,0.198979592 C124.5,0.298469388 146.6,1.49234694 161.2,10.247449 C146.4,21.8877551 145.2,58.8979592 145.2,58.8979592 L145.2,136.5 L95.2,140.479592 L95.2,0.198979592 Z" id="Path-2" fill="#4577B3"></path>
                    <path d="M95.2,0.198979592 L70.2,0.198979592 C65.9,0.298469388 43.8,1.49234694 29.2,10.247449 C44,21.8877551 45.2,58.8979592 45.2,58.8979592 L45.2,136.5 L95.2,140.479592 L95.2,0.198979592 Z" id="Path-3" fill="#5483C3"></path>
                    <path d="M95.4,0.198979592 L70.7,0.198979592 C70.7,0.198979592 41,-0.298469388 27.8,11.1428571 C14.6,22.5841837 3.3,44.9693878 0.8,49.9438776 C-1.7,54.9183673 3.4,58.8979592 12.4,63.872449 C22,69.244898 30.8,73.8214286 34.4,67.8520408 C38,61.8826531 44.8,51.9336735 44.8,51.9336735 C44.8,51.9336735 48.6,20.0969388 61.2,8.75510204 C70.7,0.198979592 95.3,3.68112245 95.3,3.68112245 L95.4,0.198979592 Z" id="Path-4" fill="#6E99CF"></path>
                    <path d="M95.2,0.198979592 L119.9,0.198979592 C119.9,0.198979592 149.6,-0.298469388 162.8,11.1428571 C176,22.5841837 187.4,44.9693878 189.8,49.9438776 C192.2,54.9183673 187.2,58.8979592 178.2,63.872449 C168.6,69.244898 159.8,73.8214286 156.2,67.8520408 C152.6,61.8826531 145.8,51.9336735 145.8,51.9336735 C145.8,51.9336735 142,20.0969388 129.4,8.75510204 C119.9,0.198979592 95.2,3.68112245 95.2,3.68112245 L95.2,0.198979592 Z" id="Path-5" fill="#396A9A"></path>
                    <path d="M121.2,0.198979592 L69.2,0.198979592 L69.2,1.09438776 C69.2,3.48214286 78.2,9.94897959 85.6,14.9234694 C91.4,18.8035714 99,18.8035714 104.8,14.9234694 C112.2,9.94897959 121.2,3.48214286 121.2,1.09438776 L121.2,0.198979592 L121.2,0.198979592 Z" id="colar" fill="#4577B3"></path>
                    <path d="M115.2,0.198979592 L75.2,0.198979592 L75.2,0.994897959 C75.2,2.98469388 84.5,8.85459184 90.4,12.3367347 C93.4,14.127551 97,14.127551 100,12.3367347 C105.9,8.85459184 115.2,2.98469388 115.2,0.994897959 L115.2,0.198979592 Z" id="Path-6" fill="#D7D7D7"></path>
                </g>
                <path d="M75.2,0.298469388 C75.2,0.298469388 74.6,1.29336735 76.6,3.08418367 C78.6,4.875 81.6,6.86479592 81.6,6.86479592 L78.2,9.94897959 L71.7,4.875 C71.7,4.875 68.4,1.69132653 69.2,0.198979592 L75.2,0.298469388 Z" id="Path" fill="#FFFFFF"></path>
                <path d="M115.1,0.0994897959 C115.1,0.0994897959 115.7,1.09438776 113.7,2.88520408 C111.7,4.67602041 108.7,6.66581633 108.7,6.66581633 L112.1,9.75 L118.6,4.67602041 C118.6,4.67602041 121.9,1.49234694 121.1,-8.83646897e-16 L115.1,0.0994897959 Z" id="Path" fill="#FFFFFF"></path>
            </g>
        </g>
    </g>
</svg>