<?xml version="1.0" encoding="UTF-8"?>
<svg width="191px" height="196px" viewBox="0 0 191 196" version="1.1" xmlns="http://www.w3.org/2000/svg" xmlns:xlink="http://www.w3.org/1999/xlink">
    <title>609E60AA-263A-40C7-A348-D01DEA237AB5</title>
    <g id="*Championship-2020-2021" stroke="none" stroke-width="1" fill="none" fill-rule="evenodd">
        <g id="Championship-2020-21" transform="translate(-827.000000, -787.000000)">
            <g id="Middlesbrough" transform="translate(827.000000, 787.000000)">
                <path d="M95,137 L45,137 L37.3,180.9 C36.5,184.7 36.9,187.2 41.3,187.9 L82.1,194.9 C86.4,195.6 88.3,193.8 89.1,189.9 L95.1,166 L95.1,137 L95,137 Z" id="shorts" fill="#EBEBEB"></path>
                <path d="M95,137 L145,137 L153,181 C153.8,184.9 153.4,187.3 149,188 L108,195 C103.6,195.7 101.8,193.9 101,190 L95,166 L95,137 Z" id="shorts-2" fill="#CCCCCC"></path>
                <path d="M114,0 L76,0 L76,0.8 C76,3.7 95,15 95,15 C95,15 114,3.7 114,0.8 L114,0 Z" id="inside-neck" fill="#D31818"></path>
                <path d="M95,3 L120,3 C124.3,3.1 146.4,4.3 161,13.1 C146.2,24.8 145,62 145,62 L145,137 L95,141 L95,3 Z" id="top-highlight" fill="#B01625"></path>
                <path d="M95,0 L70,0 C65.7,0.1 43.6,1.3 29,10 C43.8,21.8 45,59 45,59 L45,137 L95,141 L95,0 Z" id="top-highlight-2" fill="#CC1426"></path>
                <path d="M95,3.51281504e-16 L119.7,3.51281504e-16 C119.7,3.51281504e-16 149.4,-0.5 162.6,11 C175.8,22.5 187.2,45 189.6,50 C192,55 187,59 178,64 C168.4,69.4 159.6,74 156,68 C152.4,62 145.6,52 145.6,52 C145.6,52 141.8,20 129.2,8.6 C119.7,3.51281504e-16 95,3.5 95,3.5 L95,3.51281504e-16 Z" id="path-1" fill="#B61323"></path>
                <path d="M96,3.51281504e-16 L71.2,3.51281504e-16 C71.2,3.51281504e-16 41.7,-0.5 28.6,11 C15.5,22.5 4.1,45.1 1.6,50.1 C-0.9,55.1 4.2,59.1 13.1,64.1 C22.7,69.5 31.5,74.1 35.1,68.1 C38.7,62.1 45.5,52.1 45.5,52.1 C45.5,52.1 49.4,20 61.9,8.6 C71.4,3.51281504e-16 96,3.5 96,3.5 L96,3.51281504e-16 Z" id="path-3" fill="#B61323"></path>
                <path d="M121,0 L69,0 L69,0.9 C69,5 95,21 95,21 C95,21 121,5 121,0.9 L121,0 Z" id="colar" fill="#FAFAFA"></path>
                <polygon id="Rectangle" fill="#CC1426" points="95 15 84.6 8.6 80.8 13.5 95 22"></polygon>
                <polygon id="Rectangle-2" fill="#B01625" points="95 22 108 12.6 105.1 8.7 95 15"></polygon>
                <path d="M83,10.5 L83.9,11.1 C87.3,13.4 90.7,16.9 91.4,21 L93.3,37 L95,37 L95,13.3 L84.6,8.6 L83,10.5 Z" id="Path" fill="#003060"></path>
                <path d="M106.6,10.7 L106,11.1 C102.6,13.4 99,16.9 98.4,21 L96.3,37 L95,37 L95,13.3 L105.2,8.8 L106.6,10.7 Z" id="Path" fill="#003060"></path>
                <path d="M115,0 L75,0 L75,0.8 C75,2.8 84.2,8.6 90.1,12.2 C93.1,14 96.9,14 99.9,12.2 C105.8,8.6 115,2.7 115,0.8 L115,0 Z" id="inside-neck-2" fill="#6C0214"></path>
                <path d="M83,10.5 L83.3,10.1 C83.3,10.1 91.4,14.7 92,21.6 L93.8,37 L93.3,37 L91.5,21.2 C91.5,21.2 91.1,16 84,11.2 C83.7,10.9 83.4,10.7 83,10.5 Z" id="Path" fill="#FAFAFA"></path>
                <path d="M106.9,10.5 L106.6,10.1 C106.6,10.1 98.5,14.7 97.9,21.6 L96.1,37 L96.6,37 L98.4,21.2 C98.4,21.2 98.8,16 105.9,11.2 C106.3,10.9 106.6,10.7 106.9,10.5 Z" id="Path" fill="#FAFAFA"></path>
                <path d="M121,0 L121,0.9 C121,0.9 121,1.6 120.2,2.6 L120.1,2.8 L119.9,3 L119.8,3.2 L119.7,3.3 L119.5,3.5 L119.4,3.6 L119.2,3.8 L119,3.9 L118.8,4.1 L118.7,4.2 L118.6,4.3 L118.5,4.4 L118.3,4.6 L118.1,4.8 L117.8,5 L117.6,5.2 L117.4,5.4 L117.2,5.5 L117,5.7 L116.7,5.9 L116.3,6.2 L116,6.5 L115.7,6.8 L115.4,7 L115.1,7.2 L114.8,7.4 L114.4,7.7 L114.2,7.9 L114,8.2 L113.6,8.5 L113.4,8.6 L113.2,8.7 L113,8.9 L112.6,9.2 L112.4,9.4 L112.2,9.5 L112,9.7 L111.6,10 L111.3,10.3 L110.9,10.6 L110.6,10.8 L110.3,11 L109.9,11.3 L109.6,11.5 L109.2,11.8 L108.9,12 L108.5,12.3 L108.1,12.6 L107.7,12.9" id="Path" stroke="#003060" stroke-width="0.5"></path>
                <path d="M120.6,0 L120.6,0.6 C120.6,0.6 120.7,1.4 120,2.2 L119.9,2.4 L119.7,2.6 L119.6,2.8 L119.5,2.9 L119.3,3.1 L119,3.2 L118.8,3.4 L118.7,3.5 L118.5,3.7 L118.4,3.8 L118.3,4 L118.2,4.1 L118,4.2 L117.8,4.4 L117.6,4.6 L117.4,4.8 L117.2,5 L117,5.2 L116.8,5.4 L116.5,5.6 L116.1,5.9 L115.8,6.2 L115.5,6.5 L115.2,6.8 L114.9,7 L114.6,7.2 L114.2,7.5 L114,7.6 L113.7,7.8 L113.3,8.1 L113.1,8.2 L113,8.3 L112.7,8.5 L112.3,8.8 L112.1,9 L111.9,9.1 L111.7,9.2 L111.3,9.5 L111,9.8 L110.6,10.1 L110.3,10.3 L110,10.5 L109.6,10.8 L109.3,11 L108.9,11.3 L108.6,11.5 L108.2,11.8 L107.8,12.1 L107.4,12.4" id="Path" stroke="#B20224" stroke-width="0.5"></path>
                <path d="M68.9,0 L68.9,0.5 C68.9,0.5 68.9,1.2 69.7,2.2 L69.8,2.4 L70,2.5 L70.1,2.7 L70.2,2.8 L70.4,3 L70.5,3.1 L70.7,3.3 L70.8,3.4 L71,3.6 L71.1,3.7 L71.2,3.8 L71.4,4 L71.6,4.2 L71.8,4.4 L72,4.6 L72.2,4.8 L72.4,5 L72.6,5.1 L72.8,5.3 L73.1,5.5 L73.5,5.8 L73.8,6.1 L74.1,6.4 L74.4,6.7 L74.7,6.9 L74.9,7 L75.3,7.3 L75.5,7.5 L75.8,7.7 L76.2,8 L76.4,8.1 L76.6,8.2 L76.9,8.4 L77.3,8.7 L77.5,9 L77.7,9.1 L77.9,9.2 L78.3,9.5 L78.6,9.8 L78.9,10.1 L79.2,10.3 L79.5,10.5 L79.9,10.8 L80.2,11 L80.6,11.3 L80.9,11.5 L81.3,11.8 L81.7,12.1 L82.1,12.4" id="Path" stroke="#003060" stroke-width="0.5"></path>
                <path d="M69.3,0 L69.3,0 C69.3,0.1 69.2,0.9 69.9,1.7 L70,1.9 L70.2,2.1 L70.3,2.3 L70.4,2.4 L70.6,2.7 L70.7,2.8 L71,2.9 L71.1,3 L71.3,3.2 L71.4,3.3 L71.5,3.4 L71.6,3.5 L71.8,3.7 L72,4 L72.2,4.2 L72.4,4.4 L72.6,4.6 L72.8,4.7 L73,4.9 L73.3,5.1 L73.7,5.4 L74,5.7 L74.3,6 L74.6,6.3 L74.9,6.5 L75.2,6.7 L75.6,7 L75.8,7.2 L76.1,7.4 L76.5,7.7 L76.7,7.8 L76.9,7.9 L77.2,8.1 L77.6,8.4 L77.8,8.6 L78,8.7 L78.2,8.8 L78.6,9.1 L78.9,9.4 L79.2,9.7 L79.5,9.9 L79.7,10.1 L80.1,10.4 L80.4,10.6 L80.8,10.9 L81.1,11.1 L81.5,11.4 L81.9,11.7 L82.3,12" id="Path" stroke="#B20224" stroke-width="0.5"></path>
                <polygon id="Path" fill="#EAEAEA" points="48.8 35.5 48.7 35.9 26.6 70.5 26 70.3 49.1 34.3"></polygon>
                <polygon id="Path" fill="#EAEAEA" points="142.5 35.8 142.6 36.2 164.3 70.4 165 70.2 142.1 34.6"></polygon>
                <polygon id="Path" fill="#848484" points="147 148.4 147.7 152.2 145.9 151.6 145.3 147.7"></polygon>
                <polygon id="Path" fill="#848484" points="148.1 154.1 148.8 158 147 157.4 146.3 153.5"></polygon>
                <polygon id="Path" fill="#848484" points="149.1 159.9 149.8 163.7 148 163.1 147.4 159.2"></polygon>
                <polygon id="Path" fill="#848484" points="150.2 165.6 150.9 169.5 149.1 168.9 148.4 165"></polygon>
                <path d="M152.7,179.2 L150.4,179.6 L151.5,187.2 C151.5,187.2 153.6,186.2 153.3,182.9 L152.7,179.2 Z" id="Path" fill="#B01625"></path>
                <polygon id="Path" fill="#B01625" points="37.3 180.9 88.8 190.7 89.5 188.1 37.8 178"></polygon>
                <polygon id="Path" fill="#003060" points="38 177.4 38.2 175.8 90 185.9 89.6 187.5"></polygon>
                <polygon id="Path" fill="#B01625" points="38.4 175.2 38.7 173.6 90.5 183.8 90.1 185.4"></polygon>
            </g>
        </g>
    </g>
</svg>