<svg xmlns="http://www.w3.org/2000/svg" viewBox="0 0 190.3 195.21"><defs><style>.cls-1{fill:#ccc;}.cls-1,.cls-2,.cls-3,.cls-4,.cls-5,.cls-6,.cls-7,.cls-8,.cls-9{fill-rule:evenodd;}.cls-2{fill:#e6e6e6;}.cls-3{fill:#192a54;}.cls-4{fill:#2d447d;}.cls-5{fill:#384f89;}.cls-6{fill:#ededed;}.cls-7{fill:#0e1f49;}.cls-8{fill:#fff;}.cls-9{fill:#13244d;}.cls-10{fill:none;stroke:#0e1f49;stroke-width:0.5px;}</style></defs><g id="Layer_2" data-name="Layer 2"><g id="Layer_1-2" data-name="Layer 1"><path class="cls-1" d="M95.1,140.06l50-3,8,44c.8,3.9.4,6.3-4,7l-41,7c-4.4.7-6.2-1.1-7-5l-6-24Z"/><path class="cls-2" d="M95.1,140.06l-50-3L37.4,181c-.8,3.8-.4,6.3,4,7l40.8,7c4.3.7,6.2-1.1,7-5l6-23.9-.1-26Z"/><path class="cls-3" d="M95.1.06h25c4.3.1,26.4.3,41,9.1-14.8,11.7-16,48.9-16,48.9v79l-50,3Z"/><path class="cls-4" d="M95.1.06h-25c-4.3.1-26.4.3-41,9.1,14.8,11.7,16,48.9,16,48.9v79l50,3Z"/><path class="cls-5" d="M95.4.06H70.6s-29.7-1.5-42.9,10-24.5,34-27,39,2.6,9,11.6,14c9.6,5.4,18.4,11,22,5s10.4-17,10.4-17,3.8-31,16.4-42.4c9.6-8.6,34.2-5.1,34.2-5.1Z"/><path class="cls-6" d="M17.2,57.26a142.3,142.3,0,0,1-15.6-10c-.6,1.1-.9,1.9-1,2-2.4,5,2.6,9,11.6,14,9.6,5.4,18.5,10.9,22.1,4.9.3-.5.6-.9.9-1.4C30.9,65.36,24.9,61.56,17.2,57.26Z"/><path class="cls-5" d="M1,48.46s16.6,12.6,33.6,19.1l-.6,1C22.3,64,10.8,57.06.5,49.56Z"/><path class="cls-5" d="M.3,50s16.4,12.5,33.4,18.9l-.5.6C20.7,65.36,9.8,58.66.1,50.76Z"/><path class="cls-7" d="M95.1.06h24.7s29.7-1.5,42.9,10,24.6,35,27,40-2.6,9-11.6,14c-8.4,4.7-19.6,8-22,4-3.6-6-10.4-17-10.4-17s-3.8-31-16.4-42.4c-9.5-8.6-34.2-5.1-34.2-5.1Z"/><path class="cls-6" d="M173.1,57.16c5.4-3,10.6-5.3,15.6-9,.6,1.1.9,1.9,1,2,2.4,5-2.6,9-11.6,14-8.5,4.7-19.7,8-22,4-.1-.1-.4-.7-.9-1.6C159.4,65.16,165.4,61.36,173.1,57.16Z"/><path class="cls-3" d="M189.4,49.56c-16.6,9.9-17.2,10.2-33.6,18.1l.4.7a188.25,188.25,0,0,0,33.6-18Z"/><path class="cls-3" d="M190,51c-16.6,9.9-16.6,9.9-33.4,17.9l.5.6a176.91,176.91,0,0,0,33.1-17.8Z"/><path class="cls-8" d="M121.27.06h-52V1c0,4.1,26,20.1,26,20.1s26-16,26-20.1Z"/><path class="cls-9" d="M115.17.06h-40v.8c0,2.9,20,14.2,20,14.2s20-11.3,20-14.2Z"/><path class="cls-10" d="M92.67,17.16s-18.8-11.5-21.6-15.3a3.85,3.85,0,0,1-.6-1.8"/><path class="cls-10" d="M93.87,16.66s-18.8-11.5-21.6-15.3a2,2,0,0,1-.4-1.3"/><path class="cls-8" d="M95.17,15.06l-5.1,2.7,5.1,3.4,5.1-3.3Z"/><path class="cls-10" d="M94,20.56l6.4-4.1s16.2-10.7,19-14.5a2,2,0,0,0,.4-1.3V.06"/><path class="cls-10" d="M92.87,19.86l6.1-4s16.3-10.7,19-14.5a2,2,0,0,0,.4-1.3"/><path class="cls-4" d="M47.66,137.26l-8.4,50.2c-3.1-1.1-2-5.6-2-5.6l7.84-44.8,2.56.2Z"/><path class="cls-3" d="M142.8,137.26l2.3-.2,8.1,44.8s1.1,4.5-2,5.6l-8.4-50.2Z"/></g></g></svg>
