<svg xmlns="http://www.w3.org/2000/svg"><symbol id="netherlands" viewBox="0 0 200 200"><g fill="none" fill-rule="evenodd"><path d="M119 3H81v.781C81 6.662 99.987 18 99.987 18S119 6.662 119 3.781V3z" id="inside-neck" fill="#D31818"/><path d="M158.32 140h-50l-8 44c-.784 3.856-.37 6.308 4 7l41 7c4.37.692 6.216-1.145 7-5l6-24v-29z" id="shorts" fill="#CCC" transform="matrix(-1 0 0 1 258.32 0)"/><path d="M100 140H50l-7.682 43.892c-.78 3.846-.367 6.292 3.979 6.982l40.774 6.983c4.346.69 6.182-1.142 6.962-4.988l5.966-23.94L100 140z" id="shorts" fill="#E6E6E6"/><path d="M166 3h-25c-4.32.136-26.398 1.285-41 10.05C114.77 24.774 116 62 116 62v78l50 4V3z" id="top-highlight" fill="#F55123" transform="matrix(-1 0 0 1 266 0)"/><path d="M100 3H75c-4.32.136-26.398 1.285-41 10.05C48.77 24.774 50 62 50 62v78l50 4V3z" id="top-highlight" fill="#FF6B41"/><path d="M5 3.003h24.665s29.725-.469 42.894 11c13.17 11.467 24.56 34.002 27 39C102 58 97 62 88 67c-9.64 5.356-18.44 10.003-22 4-3.56-6.003-10.44-15.997-10.44-15.997s-3.833-32.03-16.411-43.414C29.665 3.003 5 6.454 5 6.454V3.003z" id="Mask" fill="#FF5829" transform="matrix(-1 0 0 1 105.176 0)"/><path d="M100 3.003h24.665s29.725-.469 42.894 11c13.17 11.467 24.56 34.002 27 39C197 58 192 62 183 67c-9.64 5.356-18.44 10.003-22 4-3.56-6.003-10.44-15.997-10.44-15.997s-3.833-32.03-16.411-43.414C124.665 3.003 100 6.454 100 6.454V3.003z" id="Mask" fill="#E93F0F"/><path d="M126 3l-52 .024v.902C74 8 99.988 24 99.988 24S126 7.999 126 3.926V3z" id="colar" fill="#E93F0F"/><path d="M120 3H80v.781C80 6.662 99.987 18 99.987 18S120 6.662 120 3.781V3z" id="inside-neck" fill="#BA2900"/></g></symbol></svg>