<?xml version="1.0" encoding="UTF-8"?>
<svg width="191px" height="195px" viewBox="0 0 191 195" version="1.1" xmlns="http://www.w3.org/2000/svg" xmlns:xlink="http://www.w3.org/1999/xlink">
    <!-- Generator: sketchtool 62 (101010) - https://sketch.com -->
    <title>CB15D5D8-5496-4F3C-B397-D4AAD1FFD368</title>
    <desc>Created with sketchtool.</desc>
    <g id="--Premier-League-2020-21" stroke="none" stroke-width="1" fill="none" fill-rule="evenodd">
        <g id="Premier-League-2020-21" transform="translate(-1407.000000, -619.000000)">
            <g id="Newcastle-United" transform="translate(1407.000000, 619.000000)">
                <g id="Asset-1">
                    <path d="M95.2,140.479592 L145.2,136.5 L153.2,180.27551 C154,184.155612 153.6,186.543367 149.2,187.239796 L108.2,194.204082 C103.8,194.90051 102,193.109694 101.2,189.229592 L95.2,165.352041 L95.2,140.479592 Z" id="shorts" fill="#191818"></path>
                    <path d="M95.2,140.479592 L45.2,136.5 L37.5,180.17602 C36.7,183.956633 37.1,186.443878 41.5,187.140306 L82.3,194.104592 C86.6,194.80102 88.5,193.010204 89.3,189.130102 L95.3,165.352041 L95.2,140.479592 Z" id="Path" fill="#191818"></path>
                    <path d="M95.2,0.198979592 L120.2,0.198979592 C124.5,0.298469388 146.6,1.49234694 161.2,10.247449 C146.4,21.8877551 145.2,58.8979592 145.2,58.8979592 L145.2,136.5 L95.2,140.479592 L95.2,0.198979592 Z" id="Path-2" fill="#0E0E0E"></path>
                    <path d="M95.2,0.198979592 L70.2,0.198979592 C65.9,0.298469388 43.8,1.49234694 29.2,10.247449 C44,21.8877551 45.2,58.8979592 45.2,58.8979592 L45.2,136.5 L95.2,140.479592 L95.2,0.198979592 Z" id="Path-3" fill="#111110"></path>
                    <path d="M95.4,0.198979592 L70.7,0.198979592 C70.7,0.198979592 41,-0.298469388 27.8,11.1428571 C14.6,22.5841837 3.3,44.9693878 0.8,49.9438776 C-1.7,54.9183673 3.4,58.8979592 12.4,63.872449 C22,69.244898 30.8,73.8214286 34.4,67.8520408 C38,61.8826531 44.8,51.9336735 44.8,51.9336735 C44.8,51.9336735 48.6,20.0969388 61.2,8.75510204 C70.7,0.198979592 95.3,3.68112245 95.3,3.68112245 L95.4,0.198979592 Z" id="Path-4" fill="#1C1C1C"></path>
                    <path d="M95.2,0.198979592 L119.9,0.198979592 C119.9,0.198979592 149.6,-0.298469388 162.8,11.1428571 C176,22.5841837 187.4,44.9693878 189.8,49.9438776 C192.2,54.9183673 187.2,58.8979592 178.2,63.872449 C168.6,69.244898 159.8,73.8214286 156.2,67.8520408 C152.6,61.8826531 145.8,51.9336735 145.8,51.9336735 C145.8,51.9336735 142,20.0969388 129.4,8.75510204 C119.9,0.198979592 95.2,3.68112245 95.2,3.68112245 L95.2,0.198979592 Z" id="Path-5" fill="#010202"></path>
                    <path d="M121.2,0.198979592 L69.2,0.198979592 L69.2,1.09438776 C69.2,2.58673469 72.7,5.67091837 77.1,8.95408163 C87.8,17.0127551 102.6,17.0127551 113.3,8.95408163 C117.7,5.67091837 121.2,2.58673469 121.2,1.09438776 L121.2,0.198979592 L121.2,0.198979592 Z" id="colar" fill="#010202"></path>
                    <path d="M115.2,0.198979592 L75.2,0.198979592 L75.2,0.994897959 C75.2,1.59183673 76,2.4872449 77.3,3.58163265 C87.6,12.3367347 102.9,12.3367347 113.1,3.58163265 C114.4,2.4872449 115.2,1.59183673 115.2,0.994897959 L115.2,0.198979592 L115.2,0.198979592 Z" id="Path-6" fill="#111110"></path>
                </g>
                <path d="M94.8,15.122449 L95.1,140.479592 L90,139.982143 L90,14.5255102 C90.1,14.5255102 90.1,15.0229592 94.8,15.122449 Z" id="Path" fill="#FFFFFF"></path>
                <path d="M75.7,7.85969388 L76,138.589286 L68.8,137.992347 L67.4,5.17346939 C67.4,5.17346939 68.3,4.875 70,4.37755102 C70.5,4.27806122 71.3,4.17857143 71.3,4.17857143 C71.3,4.17857143 73.8,6.46683673 75.7,7.85969388 Z" id="Path" fill="#FFFFFF"></path>
                <path d="M57.7,12.6352041 L58.6,137.395408 L51,136.897959 L49.8,29.5484694 C49.8,29.5484694 52.9,20.8928571 53.8,19.4005102 C54.2,18.7040816 55.6,15.9183673 55.6,15.9183673 L57.7,12.6352041 Z" id="Path" fill="#FFFFFF"></path>
                <path d="M94.9,15.122449 L94.6,140.479592 L99.7,140.280612 L100.6,14.625 C100.6,14.7244898 99.7,15.122449 94.9,15.122449 Z" id="Path" fill="#EDEDED"></path>
                <path d="M114.1,7.95918367 L113.7,138.688776 L120.9,138.091837 L122.3,5.27295918 C122.3,5.27295918 121.4,4.9744898 119.7,4.47704082 C119.2,4.37755102 118.4,4.27806122 118.4,4.27806122 C118.4,4.27806122 116,6.56632653 114.1,7.95918367 Z" id="Path" fill="#EDEDED"></path>
                <path d="M132,12.6352041 L131.1,137.395408 L138.7,136.897959 L140,29.5484694 C140,29.5484694 136.9,20.8928571 136,19.4005102 C135.6,18.7040816 134.2,15.9183673 134.2,15.9183673 L132,12.6352041 Z" id="Path" fill="#EDEDED"></path>
            </g>
        </g>
    </g>
</svg>