<svg width="49" height="50" viewBox="0 0 49 50" fill="none" xmlns="http://www.w3.org/2000/svg">
<g clip-path="url(#clip0_435_18281)">
<path fill-rule="evenodd" clip-rule="evenodd" d="M24.3182 0.0766602H30.7137C31.8138 0.102242 37.4674 0.409226 41.2023 2.66044C37.4162 5.65353 37.1092 15.17 37.1092 15.17V35.124L24.3182 36.1473V0.0766602Z" fill="#ECDE41"/>
<path d="M33.6812 0.920898H33.4254V36.6845H33.6812V0.920898Z" fill="#F3E654"/>
<path d="M34.1161 0.920898H33.8603V36.6845H34.1161V0.920898Z" fill="#F3E654"/>
<path d="M34.5255 0.920898H34.2696V36.6845H34.5255V0.920898Z" fill="#F3E654"/>
<path d="M34.9603 0.946533H34.7045V36.7102H34.9603V0.946533Z" fill="#F3E654"/>
<path d="M35.3952 0.920898H35.1394V36.6845H35.3952V0.920898Z" fill="#F3E654"/>
<path d="M29.7672 0.920898H29.5114V36.6845H29.7672V0.920898Z" fill="#F3E654"/>
<path d="M30.1765 0.920898H29.9207V36.6845H30.1765V0.920898Z" fill="#F3E654"/>
<path d="M30.6114 0.920898H30.3556V36.6845H30.6114V0.920898Z" fill="#F3E654"/>
<path d="M31.0207 0.946533H30.7649V36.7102H31.0207V0.946533Z" fill="#F3E654"/>
<path d="M31.4556 0.920898H31.1998V36.6845H31.4556V0.920898Z" fill="#F3E654"/>
<path d="M25.802 0.946533H25.5462V36.7102H25.802V0.946533Z" fill="#F3E654"/>
<path d="M26.2369 0.946533H25.9811V36.7102H26.2369V0.946533Z" fill="#F3E654"/>
<path d="M26.6462 0.946533H26.3904V36.7102H26.6462V0.946533Z" fill="#F3E654"/>
<path d="M27.0811 0.946533H26.8253V36.7102H27.0811V0.946533Z" fill="#F3E654"/>
<path d="M27.516 0.946533H27.2602V36.7102H27.516V0.946533Z" fill="#F3E654"/>
<path fill-rule="evenodd" clip-rule="evenodd" d="M24.3182 0.0767464H30.637C30.637 0.0767464 38.2348 -0.0511637 41.6117 2.89077C44.9885 5.83269 47.9048 11.5886 48.5188 12.8677C49.1328 14.1468 47.8537 15.1701 45.5513 16.4492C43.0954 17.8306 40.8442 19.0074 39.9233 17.4725C39.0023 15.9376 37.2627 13.3794 37.2627 13.3794C37.2627 13.3794 36.2906 5.19314 33.0673 2.2768C30.637 0.0767462 24.3182 0.972116 24.3182 0.972116V0.0767464Z" fill="#E6D734"/>
<path fill-rule="evenodd" clip-rule="evenodd" d="M40.3326 17.9329C41.407 18.7004 43.4024 17.6515 45.5513 16.4491C47.7002 15.2468 48.9793 14.2747 48.6211 13.0979C48.5955 13.0979 45.5513 15.0677 40.3326 17.9329Z" fill="#EDEDED"/>
<path fill-rule="evenodd" clip-rule="evenodd" d="M39.6674 17.1142C39.7698 17.2677 39.8721 17.4468 39.9744 17.6003L48.4165 12.7141C48.3397 12.5862 48.263 12.4072 48.1862 12.2537" fill="#007244" fill-opacity="0.9"/>
<path fill-rule="evenodd" clip-rule="evenodd" d="M24.3182 0.0766602H17.9227C16.8227 0.102242 11.1691 0.409226 7.43413 2.66044C11.2203 5.65353 11.5272 15.17 11.5272 15.17V35.124L24.3182 36.1473V0.0766602Z" fill="#FEF160"/>
<path d="M21.4275 0.306885H21.1717V36.0705H21.4275V0.306885Z" fill="#F3E654"/>
<path d="M21.8368 0.306885H21.581V36.0705H21.8368V0.306885Z" fill="#F3E654"/>
<path d="M22.2717 0.306885H22.0159V36.0705H22.2717V0.306885Z" fill="#F3E654"/>
<path d="M22.681 0.33252H22.4252V36.0962H22.681V0.33252Z" fill="#F3E654"/>
<path d="M23.1159 0.306885H22.8601V36.0705H23.1159V0.306885Z" fill="#F3E654"/>
<path d="M17.4878 0.306885H17.232V36.0705H17.4878V0.306885Z" fill="#F3E654"/>
<path d="M17.8972 0.306885H17.6413V36.0705H17.8972V0.306885Z" fill="#F3E654"/>
<path d="M18.3321 0.306885H18.0762V36.0705H18.3321V0.306885Z" fill="#F3E654"/>
<path d="M18.767 0.306885H18.5111V36.0705H18.767V0.306885Z" fill="#F3E654"/>
<path d="M19.2018 0.306885H18.946V36.0705H19.2018V0.306885Z" fill="#F3E654"/>
<path d="M13.5482 0.306885H13.2924V36.0705H13.5482V0.306885Z" fill="#F3E654"/>
<path d="M13.9575 0.306885H13.7017V36.0705H13.9575V0.306885Z" fill="#F3E654"/>
<path d="M14.3924 0.306885H14.1366V36.0705H14.3924V0.306885Z" fill="#F3E654"/>
<path d="M14.8017 0.33252H14.5459V36.0962H14.8017V0.33252Z" fill="#F3E654"/>
<path d="M15.2366 0.306885H14.9808V36.0705H15.2366V0.306885Z" fill="#F3E654"/>
<path fill-rule="evenodd" clip-rule="evenodd" d="M24.3924 0.0767464H18.0481C18.0481 0.0767464 10.4502 -0.0511637 7.07343 2.89077C3.6966 5.83269 0.805833 11.5886 0.166283 12.8677C-0.473267 14.1468 0.831417 15.1701 3.1338 16.4492C5.58967 17.8306 7.84088 19.0074 8.76184 17.4725C9.68279 15.9376 11.4224 13.3794 11.4224 13.3794C11.4224 13.3794 12.3945 5.19314 15.6178 2.2768C18.0737 0.0767462 24.3669 0.972116 24.3669 0.972116L24.3924 0.0767464Z" fill="#F3E654"/>
<path fill-rule="evenodd" clip-rule="evenodd" d="M0.0665144 13.0979C-0.317216 14.2747 0.961884 15.2468 3.13635 16.4491C5.31082 17.6515 7.28063 18.7004 8.35508 17.9329C3.13635 15.0677 0.0665144 13.0979 0.0665144 13.0979Z" fill="#EDEDED"/>
<path fill-rule="evenodd" clip-rule="evenodd" d="M0.5014 12.2283C0.435049 12.3867 0.358132 12.5406 0.271164 12.6887L8.71323 17.5749C8.81556 17.4214 8.91788 17.2679 9.02021 17.0889" fill="#007244" fill-opacity="0.9"/>
<path fill-rule="evenodd" clip-rule="evenodd" d="M24.3182 36.1473L37.1092 35.124L39.1558 46.3801C39.3604 47.3778 39.2581 47.9918 38.1325 48.1708L27.6439 49.9616C26.5183 50.1406 26.0578 49.6802 25.8532 48.6825L24.3182 42.5428V36.1473Z" fill="#007244" fill-opacity="0.9"/>
<path fill-rule="evenodd" clip-rule="evenodd" d="M24.3182 36.1473L11.5272 35.124L9.55743 46.3545C9.35277 47.3266 9.4551 47.9662 10.5807 48.1453L21.0182 49.936C22.1182 50.1151 22.6042 49.6546 22.8089 48.6569L24.3438 42.5428L24.3182 36.1473Z" fill="#008453" fill-opacity="0.9"/>
<path fill-rule="evenodd" clip-rule="evenodd" d="M30.8928 0.0766602H17.7411V0.306898C17.7411 1.35576 24.32 4.7 24.32 4.7C24.32 4.7 30.8902 1.35576 30.8902 0.306898L30.8928 0.0766602Z" fill="#177C42"/>
<path fill-rule="evenodd" clip-rule="evenodd" d="M30.1832 0.0703125H18.4994V0.207712C18.4994 0.960669 24.3413 3.8946 24.3413 3.8946C24.3413 3.8946 30.1832 0.960669 30.1832 0.207712V0.0703125Z" fill="#ADA344"/>
</g>
<defs>
<clipPath id="clip0_435_18281">
<rect width="48.6825" height="50" fill="white"/>
</clipPath>
</defs>
</svg>