<?xml version="1.0" encoding="UTF-8"?>
<svg width="191px" height="196px" viewBox="0 0 191 196" version="1.1" xmlns="http://www.w3.org/2000/svg" xmlns:xlink="http://www.w3.org/1999/xlink">
    <title>0255B335-B799-4223-8107-3DBA864CEA8A</title>
    <g id="*Championship-2020-2021" stroke="none" stroke-width="1" fill="none" fill-rule="evenodd">
        <g id="Championship-2019-20" transform="translate(-1699.000000, -785.000000)">
            <g id="Nottingham-Forrest" transform="translate(1699.000000, 785.000000)">
                <path d="M95.1,140.7 L145.1,137.7 L153.1,181.7 C153.9,185.6 153.5,188 149.1,188.7 L108.1,195.7 C103.7,196.4 101.9,194.6 101.1,190.7 L95.1,166.7 L95.1,140.7 Z" id="shorts" fill="#CCCCCC"></path>
                <path d="M95.1,140.7 L45.1,137.7 L37.4,181.6 C36.6,185.4 37,187.9 41.4,188.6 L82.2,195.6 C86.5,196.3 88.4,194.5 89.2,190.6 L95.2,166.7 L95.1,140.7 Z" id="Path" fill="#E6E6E6"></path>
                <path d="M95.1,0.7 L120.1,0.7 C124.4,0.8 146.5,1 161.1,9.8 C146.3,21.5 145.1,58.7 145.1,58.7 L145.1,137.7 L95.1,140.7 L95.1,0.7 Z" id="Path-2" fill="#B01625"></path>
                <path d="M95.1,0.7 L70.1,0.7 C65.8,0.8 43.7,1 29.1,9.8 C43.9,21.5 45.1,58.7 45.1,58.7 L45.1,137.7 L95.1,140.7 L95.1,0.7 Z" id="Path-3" fill="#CC1426"></path>
                <g id="Group">
                    <path d="M95.4,0.7 L70.6,0.7 C70.6,0.7 40.9,-0.8 27.7,10.7 C14.5,22.2 3.2,44.7 0.7,49.7 C-1.8,54.7 3.3,58.7 12.3,63.7 C21.9,69.1 30.7,74.7 34.3,68.7 C37.9,62.7 44.7,51.7 44.7,51.7 C44.7,51.7 48.5,20.7 61.1,9.3 C70.7,0.7 95.3,4.2 95.3,4.2 L95.4,0.7 Z" id="Path-4" fill="#B61323"></path>
                    <g id="Mask" transform="translate(0.000000, 47.000000)" fill="#EDEDED">
                        <path d="M17.2,10.9 C11.8,7.9 6.6,4.6 1.6,0.9 C1,2 0.7,2.8 0.6,2.9 C-1.8,7.9 3.2,11.9 12.2,16.9 C21.8,22.3 30.7,27.8 34.3,21.8 C34.6,21.3 34.9,20.9 35.2,20.4 C30.9,19 24.9,15.2 17.2,10.9 Z" id="path-5"></path>
                    </g>
                    <path d="M1,49.1 C1,49.1 17.6,61.7 34.6,68.2 L34,69.2 C22.3,64.6 10.8,57.7 0.5,50.2 L1,49.1 Z" id="Path" fill="#B61323"></path>
                    <path d="M0.3,50.6 C0.3,50.6 16.7,63.1 33.7,69.5 L33.2,70.1 C20.7,66 9.8,59.3 0.1,51.4 L0.3,50.6 Z" id="Path" fill="#B61323"></path>
                </g>
                <g id="Group" transform="translate(95.000000, 0.000000)">
                    <path d="M0.1,0.7 L24.8,0.7 C24.8,0.7 54.5,-0.8 67.7,10.7 C80.9,22.2 92.3,45.7 94.7,50.7 C97.1,55.7 92.1,59.7 83.1,64.7 C74.7,69.4 63.5,72.7 61.1,68.7 C57.5,62.7 50.7,51.7 50.7,51.7 C50.7,51.7 46.9,20.7 34.3,9.3 C24.8,0.7 0.1,4.2 0.1,4.2 L0.1,0.7 Z" id="Path-5-2" fill="#B61323"></path>
                    <path d="M78.1,57.8 C83.5,54.8 88.7,52.5 93.7,48.8 C94.3,49.9 94.6,50.7 94.7,50.8 C97.1,55.8 92.1,59.8 83.1,64.8 C74.6,69.5 63.4,72.8 61.1,68.8 C61,68.7 60.7,68.1 60.2,67.2 C64.4,65.8 70.4,62 78.1,57.8 Z" id="Mask-2" fill="#EDEDED"></path>
                    <path d="M94.4,50.2 C77.8,60.1 77.2,60.4 60.8,68.3 L61.2,69 C73.4,64 84.7,57.8 94.8,51 L94.4,50.2 Z" id="Path" fill="#B61323"></path>
                    <path d="M95,51.6 C78.4,61.5 78.4,61.5 61.6,69.5 L62.1,70.1 C74.1,65.2 85.3,59.1 95.2,52.3 L95,51.6 Z" id="Path" fill="#B61323"></path>
                </g>
                <path d="M120.8,0.7 L69.4,0.7 L69.4,1.6 C69.4,4.2 79.8,10.5 87.4,15.5 C92.1,18.6 98.2,18.6 102.8,15.5 C110.4,10.5 120.8,4.2 120.8,1.6 L120.8,0.7 Z" id="colar" fill="#EDEDED"></path>
                <path d="M115.4,0.7 L75.4,0.7 L75.4,1.5 C75.4,4.4 95.4,14.7 95.4,14.7 C95.4,14.7 115.4,4.4 115.4,1.5 L115.4,0.7 Z" id="Path-6" fill="#6C0214"></path>
                <path d="M119.3,0.7 L119.3,1.4 C119.3,2 119.1,2.6 118.6,3.1 C117.6,4.1 115.2,6 109.4,9.8 C98.3,17.1 93,19.7 93,19.7" id="Path" stroke="#B01625"></path>
                <path d="M142.8,137.9 L145.1,137.7 L153.2,182.5 C153.2,182.5 154.3,187 151.2,188.1 L142.8,137.9 Z" id="Path" fill="#B61323"></path>
                <path d="M73.6,0.7 L73.6,1.9 C73.6,1.9 73.6,3.1 76.7,5.2 C79.8,7.3 83.9,9.8 83.9,9.8 L89.5,13.2 L94.3,15.9" id="Path" stroke="#B01625"></path>
                <path d="M71.3,0.7 L71.3,1.4 C71.3,1.4 71.2,3.1 74.5,5.5 C77.8,7.9 79.5,8.9 79.5,8.9 L92.6,16.9" id="Path" stroke="#B01625"></path>
                <polygon id="Path" fill="#EDEDED" fill-rule="nonzero" points="95.4 14.7 91.1 17.3 92.7 17.6 96.4 15.3"></polygon>
                <path d="M117,0.7 L117,1.7 C117,1.7 116.7,3 113.7,5.1 L106.2,10.2 L98.6,14.7 L90.9,19.1" id="Path" stroke="#B01625"></path>
                <polygon id="Path" fill="#CC1426" fill-rule="nonzero" points="91.8 17.5 93 17.7 94 17.8 95.1 17.9 95 23 88 19.9"></polygon>
            </g>
        </g>
    </g>
</svg>