<svg width="191" height="196" viewBox="0 0 191 196" version="1.1" xmlns="http://www.w3.org/2000/svg"><title>Asset 1</title><symbol id="olympiakos" viewBox="0 0 191 196"><g id="Page-1" stroke="none" stroke-width="1" fill="none" fill-rule="evenodd"><g id="Asset-1"><path d="M96 142l50-4 8 44c.8 3.9.4 6.3-4 7l-41 7c-4.4.7-6.2-1.1-7-5l-6-24v-25z" id="shorts" fill="#A00A1B" transform="translate(-1 -1)"/><path d="M96 142l-50-4-7.7 43.9c-.8 3.8-.4 6.3 4 7l40.8 7c4.3.7 6.2-1.1 7-5l6-23.9-.1-25z" id="Path" fill="#C40F0F" transform="translate(-1 -1)"/><path d="M96 1h25c4.3.1 26.4 1.3 41 10.1C147.2 22.8 146 60 146 60v78l-50 4V1z" id="Path" fill="#E6E6E6" transform="translate(-1 -1)"/><path d="M136 15c2 .3 4.1 2.1 6.4 5.4 2.3 3.3 3.5 6.2 3.6 8.6v109l-10 1V15z" id="Path" fill="#A00A1B" transform="translate(-1 -1)"/><path d="M96 1H71c-4.3.1-26.4 1.3-41 10.1C44.8 22.8 46 60 46 60v78l50 4V1z" id="Path" fill="#F6F6F6" transform="translate(-1 -1)"/><path d="M56.1 15v123.8l-10-.8V29.4c.1-3.5 1.3-6.8 3.4-9.6 2.3-3.2 2-4.8 6.6-4.8zM79.5 2.1v138.6l-14-1.1v-128c0-3.2 1.2-5.1 3.5-8.3 2.3-3.2 5.9-1.2 10.5-1.2zM96 1v141l-7-.6V14.9c0-3.2.6-6.3 1.8-9.2C92 2.7 93.7 1 96 1z" id="Path" fill="#C40F0F" transform="translate(-1 -1)"/><path d="M124.4 3.8c-1.4-1-5.4-1-11.9 0v136.8l14-1.1V8c.1-1.7-.7-3.2-2.1-4.2zM103 18l-7 4v120l7-.6z" id="Path" fill="#A00A1B" transform="translate(-1 -1)"/><path d="M96.2 1H71.5S41.8.5 28.6 12 4.1 46 1.6 51s2.6 9 11.6 14c9.6 5.4 18.4 10 22 4 3.6-6 10.4-16 10.4-16S49.4 21 62 9.6C71.5 1 96.1 4.5 96.1 4.5l.1-3.5z" id="Path" fill="#F0F0F0" transform="translate(-1 -1)"/><path d="M96 1h24.7s29.7-.5 42.9 11 24.6 34 27 39c2.4 5-2.6 9-11.6 14-9.6 5.4-18.4 10-22 4-3.6-6-10.4-16-10.4-16s-3.8-32-16.4-43.4C120.7 1 96 4.5 96 4.5V1z" id="Path" fill="#F0F0F0" transform="translate(-1 -1)"/><path d="M72.2 5l3.3-4h-3c-6.5 0-12.9.5-19.3 1.4C45.4 3.5 40 5 37 6.9l2.5 3c4.7-1.8 9.5-3 14.5-3.7C60 5.4 66.1 5 72.2 5z" id="Rectangle-3" fill="#C40F0F" transform="translate(-1 -1)"/><path d="M118.9 4.9L116 1c7.3-.1 14.6.3 21.9 1.2 7 .9 12.4 2.5 16.2 4.6l-2.5 3c-4.7-1.8-9.5-3-14.5-3.7-6-.8-12.1-1.2-18.2-1.2z" id="Path" fill="#A00A1B" transform="translate(-1 -1)"/><path d="M122 1H70v.9C70 6 96 22 96 22s26-16 26-20.1V1z" id="colar" fill="#E6E6E6" transform="translate(-1 -1)"/><path d="M116 1H76v.8C76 4.7 96 16 96 16s20-11.3 20-14.2V1z" id="Path" fill="#CCC" transform="translate(-1 -1)"/></g></g></symbol></svg>