<svg xmlns="http://www.w3.org/2000/svg" xmlns:xlink="http://www.w3.org/1999/xlink"><defs><path d="M0 .003h24.665s29.725-.469 42.894 11c13.17 11.467 24.56 34.002 27 39C97 55 92 59 83 64c-9.64 5.356-18.44 10.003-22 4-3.56-6.003-10.44-15.997-10.44-15.997s-3.833-32.03-16.411-43.414C24.665.003 0 3.454 0 3.454V.003z" id="path-65"/><path d="M0 .003h24.665s29.725-.469 42.894 11c13.17 11.467 24.56 34.002 27 39C97 55 92 59 83 64c-9.64 5.356-18.44 10.003-22 4-3.56-6.003-10.44-15.997-10.44-15.997s-3.833-32.03-16.411-43.414C24.665.003 0 3.454 0 3.454V.003z" id="path-66"/></defs><symbol id="porto" viewBox="0 0 200 200"><g id="Design-Screens" stroke="none" stroke-width="1" fill="none" fill-rule="evenodd"><g transform="translate(-4 -3)" id="1-2-FREE-Jerseys-V1"><path d="M119 3H81v.781C81 6.662 99.987 18 99.987 18S119 6.662 119 3.781V3z" id="inside-neck" fill="#D31818"/><path d="M158.32 140h-50l-8 44c-.784 3.856-.37 6.308 4 7l41 7c4.37.692 6.216-1.145 7-5l6-24v-29z" id="shorts" fill="#073D7E" transform="matrix(-1 0 0 1 258.32 0)"/><path d="M100 140H50l-7.682 43.892c-.78 3.846-.367 6.292 3.979 6.982l40.774 6.983c4.346.69 6.182-1.142 6.962-4.988l5.966-23.94L100 140z" id="shorts" fill="#073D7E"/><path d="M166 3h-25c-4.32.136-26.398 1.285-41 10.05C114.77 24.774 116 62 116 62v78l50 4V3z" id="top-highlight" fill="#CCC" transform="matrix(-1 0 0 1 266 0)"/><path d="M100 3H75c-4.32.136-26.398 1.285-41 10.05C48.77 24.774 50 62 50 62v78l50 4V3z" id="top-highlight" fill="#F2F2F2"/><g id="arm-fill" stroke-width="1" transform="matrix(-1 0 0 1 100 3)"><mask id="mask-2" fill="#fff"><use xlink:href="#path-65"/></mask><use id="Mask" fill="#E8E7E7" xlink:href="#path-65"/><path d="M23.972 59c9-19 18-33 28-43 7.384-7.384 17-9 22-9s14.285 2.323 14.285 6.323c0 10.009 10.349-10.69 9.715-11.323-.667-.667-1-1.333-1-2-40-6.667-66 11.333-78 54 2.577 2.276 4.243 3.943 5 5z" id="Fill-1" fill="#1157A9" mask="url(#mask-2)" transform="matrix(-1 0 0 1 116.972 0)"/></g><g id="arm-fill" stroke-width="1" transform="translate(100 3)"><mask id="mask-4" fill="#fff"><use xlink:href="#path-66"/></mask><use id="Mask" fill="#E8E7E7" xlink:href="#path-66"/><path d="M23.972 59c9-19 18-33 28-43 7.384-7.384 17-9 22-9s14.285 2.323 14.285 6.323c0 10.009 10.349-10.69 9.715-11.323-.667-.667-1-1.333-1-2-40-6.667-66 11.333-78 54 2.577 2.276 4.243 3.943 5 5z" id="Fill-1" fill="#1157A9" mask="url(#mask-4)" transform="matrix(-1 0 0 1 116.972 0)"/></g><path d="M85.653 4v139.165l-15-1.202V17.7c0-3.044.202-5.15-11.24-7.862C47.973 7.126 80.653 4 85.653 4z" id="stripe" fill="#1157A9"/><path d="M145.653 3v139.165l-15-1.202V16.7c0-3.044.202-5.15-11.24-7.862C107.973 6.126 140.653 3 145.653 3z" id="stripe-copy" fill="#1157A9" transform="matrix(-1 0 0 1 262.653 0)"/><path d="M126 3l-52 .024v.902C74 8 99.988 24 99.988 24S126 7.999 126 3.926V3z" id="colar" fill="#F2F2F2"/><path d="M120 3H80v.781C80 6.662 99.987 18 99.987 18S120 6.662 120 3.781V3z" id="inside-neck" fill="#747474"/></g></g></symbol></svg>