<?xml version="1.0" encoding="UTF-8"?>
<svg width="191px" height="203px" viewBox="0 0 191 203" version="1.1" xmlns="http://www.w3.org/2000/svg" xmlns:xlink="http://www.w3.org/1999/xlink">
    <title>C94FB9FC-FB4F-4128-8643-427CC25807D2</title>
    <g id="*Championship-2020-2021" stroke="none" stroke-width="1" fill="none" fill-rule="evenodd">
        <g id="Championship-2019-20" transform="translate(-2010.000000, -785.000000)">
            <g id="Preston-North-End" transform="translate(2010.000000, 785.000000)">
                <g id="Mask-2" transform="translate(95.000000, 137.000000)" fill="#091938">
                    <path d="M0,0 L50,0 L58,44 C58.784,47.856 58.37,50.308 54,51 L13,58 C8.63,58.692 6.784,56.855 6,53 L0,29 L0,0 Z" id="path-1"></path>
                </g>
                <g id="Mask-3" transform="translate(37.000000, 137.000000)" fill="#0E1F49">
                    <path d="M58,0 L8,0 L0.318,43.892 C-0.461,47.738 -0.049,50.184 4.297,50.874 L45.071,57.857 C49.417,58.547 51.253,56.715 52.033,52.869 L58,28.928 L58,0 Z" id="path-3-2"></path>
                </g>
                <path d="M89.138,191.244 C83.4546667,191.167333 74.748,190.094667 63.018,188.026 C51.576,186.008667 43.1816667,184.038667 37.835,182.116 C37.0026941,181.816457 36.0806169,181.899497 35.3152212,182.342925 C34.5498256,182.786354 34.0191377,183.544966 33.865,184.416 L32.951,189.602 C32.8126422,190.385588 32.9912544,191.192044 33.4475384,191.843932 C33.9038225,192.49582 34.6003962,192.939732 35.384,193.078 L88.228,202.4 C89.8597251,202.687463 91.415535,201.597725 91.703,199.966 C91.7219622,199.860145 91.7349826,199.753311 91.742,199.646 L92.091,194.446 C92.1447986,193.652053 91.8809521,192.869259 91.3575198,192.269872 C90.8340875,191.670485 90.0939594,191.303618 89.3,191.25 C89.245,191.247 89.192,191.244 89.138,191.244 Z" id="Path"></path>
                <g id="Group">
                    <path d="M114,0 L76,0 L76,0.781 C76,3.662 94.987,15 94.987,15 C94.987,15 114,3.662 114,0.781 L114,0 Z" id="inside-neck" fill="#D31818"></path>
                    <g transform="translate(95.000000, 0.000000)">
                        <g id="Mask-4-2" fill="#091938">
                            <path d="M0,-4.33680869e-19 L24.665,-4.33680869e-19 C24.665,-4.33680869e-19 54.39,-0.469 67.559,11 C80.728,22.469 92.118,45 94.559,50 C97,55 92,59 83,64 C73.36,69.356 64.559,74 61,68 C57.441,62 50.559,52 50.559,52 C50.559,52 46.727,19.971 34.149,8.586 C24.665,-4.33680869e-19 0,3.454 0,3.454 L0,-4.33680869e-19 Z" id="path-7"></path>
                        </g>
                        <path d="M0,0 L25,0 C29.32,0.136 51.4,1.285 66,10.05 C51.229,21.774 50,59 50,59 L50,137 L0,141 L0,0 Z" id="top-highlight" fill="#CCCCCC"></path>
                    </g>
                    <g>
                        <g id="Mask-5" fill="#0E1F49">
                            <path d="M95.176,-8.67361738e-19 L70.51,-8.67361738e-19 C70.51,-8.67361738e-19 40.786,-0.466 27.617,11 C14.448,22.466 3.058,45 0.617,50 C-1.824,55 3.176,59 12.176,64 C21.816,69.356 30.617,74 34.176,68 C37.735,62 44.617,52 44.617,52 C44.617,52 48.449,19.971 61.027,8.586 C70.51,-8.67361738e-19 95.176,3.454 95.176,3.454 L95.176,-8.67361738e-19 Z" id="path-5"></path>
                        </g>
                        <path d="M95,0 L70,0 C65.68,0.136 43.6,1.285 29,10.05 C43.771,21.774 45,59 45,59 L45,137 L95,141 L95,0 Z" id="top-highlight-2" fill="#F2F2F2"></path>
                    </g>
                    <path d="M121,0 L69,0.024 L69,0.924 C69,5 94.988,21 94.988,21 C94.988,21 121,5 121,0.926 L121,0 Z" id="colar" fill="#FFFFFF"></path>
                    <path d="M115,0 L75,0 L75,0.781 C75,3.662 94.987,15 94.987,15 C94.987,15 115,3.662 115,0.781 L115,0 Z" id="inside-neck-2" fill="#7F7F7F"></path>
                    <polygon id="Path" fill="#CCCCCC" points="95 23.296 94.997 16.552 94.987 15 100.98 19.348"></polygon>
                    <polygon id="Path" fill="#F2F2F2" points="94.987 23.296 94.997 16.552 94.987 15 89.007 19.348"></polygon>
                    <polygon id="Path" fill="#FFFFFF" points="92.456 16.84 92.456 33.808 94.987 33.808 94.987 15"></polygon>
                    <polygon id="Path" fill="#FFFFFF" points="97.519 16.84 97.519 33.808 94.987 33.808 94.987 15"></polygon>
                </g>
                <path d="M44.138,141.927 L46.289,142.5 L38.189,186.625 C38.189,186.625 36.449,185.788 37.189,181.609 C37.929,177.43 44.138,141.927 44.138,141.927 Z" id="Path" fill="#F2F2F2"></path>
                <path d="M146.185,142.072 L144.034,142.645 L152.134,186.769 C152.134,186.769 153.874,185.933 153.134,181.754 C152.394,177.575 146.185,142.072 146.185,142.072 Z" id="Path" fill="#F2F2F2"></path>
            </g>
        </g>
    </g>
</svg>