<svg xmlns="http://www.w3.org/2000/svg" xmlns:xlink="http://www.w3.org/1999/xlink"><defs><path d="M0 .003h24.665s29.725-.469 42.894 11c13.17 11.467 24.56 34.002 27 39C97 55 92 59 83 64c-9.64 5.356-18.44 10.003-22 4-3.56-6.003-10.44-15.997-10.44-15.997s-3.833-32.03-16.411-43.414C24.665.003 0 3.454 0 3.454V.003z" id="path-67"/><path d="M0 .003h24.665s29.725-.469 42.894 11c13.17 11.467 24.56 34.002 27 39C97 55 92 59 83 64c-9.64 5.356-18.44 10.003-22 4-3.56-6.003-10.44-15.997-10.44-15.997s-3.833-32.03-16.411-43.414C24.665.003 0 3.454 0 3.454V.003z" id="path-68"/></defs><symbol id="psv-eindhoven" viewBox="0 0 200 200"><g id="Design-Screens" stroke="none" stroke-width="1" fill="none" fill-rule="evenodd"><g transform="translate(-4 -3)" id="1-2-FREE-Jerseys-V1"><path d="M119 3H81v.781C81 6.662 99.987 18 99.987 18S119 6.662 119 3.781V3z" id="inside-neck" fill="#D31818"/><path d="M158.32 140h-50l-8 44c-.784 3.856-.37 6.308 4 7l41 7c4.37.692 6.216-1.145 7-5l6-24v-29z" id="shorts" fill="#282828" transform="matrix(-1 0 0 1 258.32 0)"/><path d="M100 140H50l-7.682 43.892c-.78 3.846-.367 6.292 3.979 6.982l40.774 6.983c4.346.69 6.182-1.142 6.962-4.988l5.966-23.94L100 140z" id="shorts" fill="#4A4A4A"/><path d="M166 3h-25c-4.32.136-26.398 1.285-41 10.05C114.77 24.774 116 62 116 62v78l50 4V3z" id="top-highlight" fill="#CCC" transform="matrix(-1 0 0 1 266 0)"/><path d="M100 3H75c-4.32.136-26.398 1.285-41 10.05C48.77 24.774 50 62 50 62v78l50 4V3z" id="top-highlight" fill="#E6E6E6"/><path d="M77 3v139.165l-15-1.202V16.7c0-3.044 1.25-6.089 3.75-9.133C68.25 4.522 72 3 77 3z" id="stripe" fill="#D03E3E"/><path id="stripe" fill="#C23030" d="M100 18.202h8v125.16l-8 .64z"/><path id="stripe" fill="#D03E3E" d="M92 18.202h8V144.01l-8-.637z"/><g id="arm-fill" stroke-width="1" transform="translate(100 3)"><mask id="mask-2" fill="#fff"><use xlink:href="#path-67"/></mask><use id="Mask" fill="#B82727" xlink:href="#path-67"/></g><g id="arm-fill" stroke-width="1" transform="matrix(-1 0 0 1 100 3)"><mask id="mask-4" fill="#fff"><use xlink:href="#path-68"/></mask><use id="Mask" fill="#E14949" xlink:href="#path-68"/></g><path d="M123 3c4.833.289 8.5 1.956 11 5s3.833 5.711 4 8v124.948l-15 1.207V3z" id="stripe" fill="#C23030"/><path d="M126 3l-52 .024v.902C74 8 99.988 24 99.988 24S126 7.999 126 3.926V3z" id="colar" fill="#B82727"/><path d="M120 3H80v.781C80 6.662 99.987 18 99.987 18S120 6.662 120 3.781V3z" id="inside-neck" fill="#E6E6E6"/></g></g></symbol></svg>