<?xml version="1.0" encoding="UTF-8"?>
<svg width="191px" height="196px" viewBox="0 0 191 196" version="1.1" xmlns="http://www.w3.org/2000/svg" xmlns:xlink="http://www.w3.org/1999/xlink">
    <title>A3A678CE-60BB-42E2-AB35-DAC8B1CAEF6F</title>
    <g id="*Championship-2020-2021" stroke="none" stroke-width="1" fill="none" fill-rule="evenodd">
        <g id="Championship-2019-20" transform="translate(-2297.000000, -786.000000)">
            <g id="QPR" transform="translate(2297.000000, 786.000000)">
                <path d="M95.1,141.7 L145.1,137.7 L153.1,181.7 C153.9,185.6 153.5,188 149.1,188.7 L108.1,195.7 C103.7,196.4 101.9,194.6 101.1,190.7 L95.1,166.7 L95.1,141.7 Z" id="shorts" fill="#D8D8D8"></path>
                <path d="M95.1,141.7 L45.1,137.7 L37.4,181.6 C36.6,185.4 37,187.9 41.4,188.6 L82.2,195.6 C86.5,196.3 88.4,194.5 89.2,190.6 L95.2,166.7 L95.1,141.7 Z" id="Path" fill="#EBEBEB"></path>
                <path d="M95.1,0.7 L120.1,0.7 C124.4,0.8 146.5,2 161.1,10.8 C146.3,22.5 145.1,59.7 145.1,59.7 L145.1,137.7 L95.1,141.7 L95.1,0.7 Z" id="Path-2" fill="#E5E5E5"></path>
                <path d="M95.1,0.7 L70.1,0.7 C65.8,0.8 43.7,2 29.1,10.8 C43.9,22.5 45.1,59.7 45.1,59.7 L45.1,137.7 L95.1,141.7 L95.1,0.7 Z" id="Path-3" fill="#F2F2F2"></path>
                <path d="M95.4,0.7 L70.6,0.7 C70.6,0.7 40.9,0.2 27.7,11.7 C14.5,23.2 3.2,45.7 0.7,50.7 C-1.8,55.7 3.3,59.7 12.3,64.7 C21.9,70.1 30.7,74.7 34.3,68.7 C37.9,62.7 44.7,52.7 44.7,52.7 C44.7,52.7 48.5,20.7 61.1,9.3 C70.7,0.7 95.3,4.2 95.3,4.2 L95.4,0.7 Z" id="Path-4" fill="#EBEBEB"></path>
                <g id="Mask" transform="translate(0.000000, 48.000000)" fill="#EDEDED">
                    <path d="M17.2,10.9 C11.8,7.9 6.6,4.6 1.6,0.9 C1,2 0.7,2.8 0.6,2.9 C-1.8,7.9 3.2,11.9 12.2,16.9 C21.8,22.3 30.7,26.8 34.3,20.8 C34.6,20.3 34.9,19.9 35.2,19.4 C30.9,18 24.9,15.2 17.2,10.9 Z" id="path-5"></path>
                </g>
                <path d="M1,50.1 C1,50.1 17.6,61.7 34.6,68.2 L34.2,68.9 C22.4,64.1 11.2,58 0.6,50.9 L1,50.1 Z" id="Path" fill="#B61323"></path>
                <path d="M0.3,51.6 C0.3,51.6 16.7,63.1 33.7,69.5 L33.2,70.1 C21.6,65.4 10.5,59.4 0.1,52.4 L0.3,51.6 Z" id="Path" fill="#B61323"></path>
                <path d="M95.1,0.7 L119.8,0.7 C119.8,0.7 149.5,0.2 162.7,11.7 C175.9,23.2 187.3,45.7 189.7,50.7 C192.1,55.7 187.1,59.7 178.1,64.7 C168.5,70.1 159.7,74.7 156.1,68.7 C152.5,62.7 145.7,52.7 145.7,52.7 C145.7,52.7 141.9,20.7 129.3,9.3 C119.8,0.7 95.1,4.2 95.1,4.2 L95.1,0.7 Z" id="Path-5-2" fill="#D8D8D8"></path>
                <path d="M121.1,0.7 L69.1,0.7 L69.1,1.6 C69.1,5.7 95.1,21.7 95.1,21.7 C95.1,21.7 121.1,5.7 121.1,1.6 L121.1,0.7 Z" id="colar_2_" fill="#EEEEEE"></path>
                <path d="M173.1,58.8 C178.5,55.8 183.7,52.5 188.7,48.8 C189.3,49.9 189.6,50.7 189.7,50.8 C192.1,55.8 187.1,59.8 178.1,64.8 C168.5,70.2 159.6,74.8 156.1,68.8 C156,68.7 155.7,68.1 155.2,67.2 C159.4,65.8 165.4,63 173.1,58.8 Z" id="Mask-2" fill="#EDEDED"></path>
                <path d="M189.4,50.2 C189.4,50.2 172.8,61.8 155.8,68.3 L156.2,69 C168,64.2 179.2,58.1 189.8,51 L189.4,50.2 Z" id="Path" fill="#B61323"></path>
                <path d="M190,51.6 C190,51.6 173.6,63.1 156.6,69.5 L157.1,70.1 C168.7,65.4 179.8,59.4 190.2,52.3 L190,51.6 Z" id="Path" fill="#B61323"></path>
                <path d="M115.4,0.7 L75.4,0.7 L75.4,1.5 C75.4,4.4 95.4,15.7 95.4,15.7 C95.4,15.7 115.4,4.4 115.4,1.5 L115.4,0.7 Z" id="Path-6" fill="#CCCCCC"></path>
                <path d="M117,0.7 L117,1.1 C117,1.3 116.9,1.6 116.8,1.8 C116.2,2.8 113.7,5.8 104.7,11.1 C93.2,18.4 90.2,20.1 90.2,20.1" id="Path" stroke="#B01625" stroke-width="0.5"></path>
                <path d="M118.1,0.7 L118.1,1.2 C118.1,1.5 117.9,1.8 117.7,2.1 C117,3.2 114.7,5.9 106.5,11 C95.3,18 91.3,20.7 91.3,20.7" id="Path" stroke="#B01625" stroke-width="0.5"></path>
                <path d="M142.8,137.9 L145.1,137.7 L153,181.3 C153,181.3 154.8,186.8 151.7,187.9 L142.8,137.9 Z" id="Path" fill="#1157A9"></path>
                <path d="M119.3,0.7 L119.3,1 C119.3,1.4 119.2,1.9 118.9,2.2 C118.1,3.4 115.5,6.2 107.6,11.4 C96.6,18.7 92.5,21.2 92.5,21.2" id="Path" stroke="#B01625" stroke-width="0.5"></path>
                <path d="M120.3,0.7 L120.3,1.3 C120.3,1.6 120.2,1.9 120.1,2.2 C119.5,3.3 117.1,6.1 108.9,11.7 C99.7,18.1 94,21.7 94,21.7" id="Path" stroke="#B01625" stroke-width="0.5"></path>
                <path d="M94.6,16.8 C94.6,16.8 94.3,16.7 85.5,11.1 C76.5,5.8 74,2.8 73.4,1.8 C73.3,1.6 73.2,1.4 73.2,1.1 L73.2,0.7" id="Path" stroke="#B01625" stroke-width="0.5"></path>
                <path d="M93.6,17.4 C93.6,17.4 93.2,17.1 83.7,11.1 C75.5,5.9 73.1,3.3 72.5,2.2 C72.3,1.9 72.1,1.6 72.1,1.3 L72.1,0.7" id="Path" stroke="#B01625" stroke-width="0.5"></path>
                <path d="M92.5,18 C92.5,18 92.1,17.8 82.5,11.5 C74.6,6.3 72.1,3.4 71.2,2.3 C70.9,1.9 70.8,1.5 70.8,1.1 L70.8,0.7" id="Path" stroke="#B01625" stroke-width="0.5"></path>
                <path d="M91.5,18.7 C91.5,18.7 90.5,18.1 81.2,11.8 C73.1,6.2 70.6,3.4 70,2.3 C69.9,2 69.8,1.7 69.8,1.4 L69.8,0.7" id="Path" stroke="#B01625" stroke-width="0.5"></path>
                <polygon id="Path" fill="#EEEEEE" points="95.4 15.7 90.3 18.7 91.1 19.2 96.1 16.1"></polygon>
                <polygon id="Path" fill="#F2F2F2" points="95.1 21.7 89.5 18.2 88.6 19.4 91 21.9 95.1 22.1"></polygon>
                <path d="M44.7,52.5 L95.2,52.5 L95.1,30.1 L49.7,30.1 C49.7,30.1 46.2,42.2 44.7,52.5 Z" id="Path" fill="#1A60B2"></path>
                <path d="M145.5,52.5 L95.1,52.5 L95.2,30.1 L140.6,30.1 C140.6,30.1 144.1,42.2 145.5,52.5 Z" id="Path" fill="#1157A9"></path>
                <path d="M45.1,92.9 L95.2,92.9 L95.1,70.5 L45.1,70.5 C45.1,70.5 45.1,80.9 45.1,92.9 Z" id="Path" fill="#1A60B2"></path>
                <path d="M45.1,133.2 L95.2,133.2 L95.1,110.8 L45.1,110.8 C45.1,110.8 45.3,122 45.1,133.2 Z" id="Path" fill="#1A60B2"></path>
                <path d="M145.1,92.9 L95,92.9 L95.1,70.5 L145.1,70.5 C145.1,70.5 145.1,80.9 145.1,92.9 Z" id="Path" fill="#1157A9"></path>
                <path d="M145.1,133.2 L95,133.2 L95.1,110.8 L145.1,110.8 C145.1,110.8 144.9,122 145.1,133.2 Z" id="Path" fill="#1157A9"></path>
                <path d="M0,53.4 C0,53.4 15.4,64.3 32.4,70.8 L31.5,71.3 C19.8,66.5 10.4,61.4 0,54.3 L0,53.4 Z" id="Path" fill="#B61323"></path>
                <path d="M0.7,56 C0.7,56 13.2,65.1 30.2,71.6 L28.8,71.7 C17.2,66.9 12,64.4 1.6,57.3 L1.4,57 L1.2,56.7 L1,56.5 L0.7,56 Z" id="Path" fill="#B61323"></path>
                <path d="M190.3,54.3 C179.9,61.4 170.5,66.5 158.8,71.2 L157.9,70.7 C174.9,64.2 190.3,53.3 190.3,53.3 L190.3,54.3 Z" id="Path" fill="#B61323"></path>
                <path d="M189.3,56.4 L189.1,56.7 L188.9,57 L188.7,57.3 C178.3,64.4 173.2,66.9 161.5,71.6 L160.1,71.5 C177.1,65 189.6,55.9 189.6,55.9 L189.3,56.4 Z" id="Path" fill="#B61323"></path>
                <path d="M38.5,187.9 C35.4,186.8 37.2,181.3 37.2,181.3 L45.1,137.7 L47.4,137.9 L38.5,187.9 Z" id="Path" fill="#1157A9"></path>
            </g>
        </g>
    </g>
</svg>