<svg width="200" height="200" viewBox="0 0 200 200" version="1.1" xmlns="http://www.w3.org/2000/svg" xmlns:xlink="http://www.w3.org/1999/xlink"><title>Bundesliga/RB-Leipzig</title><defs><path d="M0 1.003h25.138S35.427.413 46.5 2.5c8.173 1.54 16.655 4.735 22.354 9.686 13.421 11.658 25.03 34.569 27.518 39.65 2.487 5.08-2.609 9.146-11.781 14.23-9.825 5.444-18.795 10.169-22.422 4.066C58.542 64.03 51 53 51 53S47.623 21.306 34.803 9.731C25.138 1.003 0 4.511 0 4.511V1.003z" id="path-1"/><path d="M0 1.003h24.665S54.331.032 67.5 11.5c13.17 11.467 24.618 34.505 27.06 39.503C97 56 92 60 83 65c-9.64 5.356-18.44 10.003-22 4-3.56-6.003-10.5-15.5-10.5-15.5S46.727 20.974 34.149 9.589C24.665 1.003 0 4.454 0 4.454V1.003z" id="path-3"/></defs><symbol viewBox="0 0 200 200" id="rb-leipzig" stroke="none" stroke-width="1" fill="none" fill-rule="evenodd"><path fill="#FFF" d="M0 0h200v200H0z"/><g id="Bayern-Munich"><g id="Kit"><path d="M115 1H77v.781C77 4.662 95.987 16 95.987 16S115 4.662 115 1.781V1z" id="inside-neck" fill="#D31818" transform="translate(4 2)"/><path d="M154.32 138h-50l-8 44c-.784 3.856-.37 6.308 4 7l41 7c4.37.692 6.216-1.145 7-5l6-24v-29z" id="shorts" fill="#A00A1B" transform="matrix(-1 0 0 1 254.32 2)"/><path d="M96 138H46l-7.682 43.892c-.78 3.846-.367 6.292 3.979 6.982l40.774 6.983c4.346.69 6.182-1.142 6.962-4.988l5.966-23.94L96 138z" id="shorts" fill="#C40F0F" transform="translate(4 2)"/><path d="M162 1h-25c-4.32.136-26.398 1.285-41 10.05C110.77 22.774 112 60 112 60v78l50 4V1z" id="top-highlight" fill="#E6E6E6" transform="matrix(-1 0 0 1 262 2)"/><path d="M96 1H71c-4.32.136-26.398 1.285-41 10.05C44.77 22.774 46 60 46 60v78l50 4V1z" id="top-highlight" fill="#F3F3F3" transform="translate(4 2)"/><path d="M1 1.003h24.665s29.725-.469 42.894 11c13.17 11.467 24.56 34.002 27 39C98 56 93 60 84 65c-9.64 5.356-18.44 10.003-22 4-3.56-6.003-10.44-15.997-10.44-15.997s-3.833-32.03-16.411-43.414C25.665 1.003 1 4.454 1 4.454V1.003z" id="Mask" fill="#EF2525" transform="matrix(-1 0 0 1 101.176 2)"/><path d="M96 1.003h24.665s29.725-.469 42.894 11c13.17 11.467 24.56 34.002 27 39C193 56 188 60 179 65c-9.64 5.356-18.44 10.003-22 4-3.56-6.003-10.44-15.997-10.44-15.997s-3.833-32.03-16.411-43.414C120.665 1.003 96 4.454 96 4.454V1.003z" id="Mask" fill="#C62020" transform="translate(4 2)"/><g id="arm-fill" transform="translate(4 2)"><mask id="mask-2" fill="#fff"><use xlink:href="#path-1"/></mask><use id="Mask" fill="#F0F0F0" transform="matrix(-1 0 0 1 97 0)" xlink:href="#path-1"/><path d="M-.614 57.503c4.709.897 11.358 1.346 19.948 1.346 8.316 0 14.62-.42 18.914-1.262a3 3 0 0 1 3.577 2.945v5.092a3 3 0 0 1-3 3h-40a3 3 0 0 1-3-3V60.45a3 3 0 0 1 3.561-2.947z" id="Rectangle-2" fill="#C40F0F" mask="url(#mask-2)" transform="scale(-1 1) rotate(-29 0 135.828)"/></g><g id="arm-fill" transform="translate(100 2)"><mask id="mask-4" fill="#fff"><use xlink:href="#path-3"/></mask><use id="Mask" fill="#CCC" xlink:href="#path-3"/><path d="M60.147 57.376c4.709.897 11.358 1.346 19.947 1.346 8.316 0 14.621-.421 18.915-1.262a3 3 0 0 1 3.577 2.944v5.093a3 3 0 0 1-3 3h-40a3 3 0 0 1-3-3v-5.174a3 3 0 0 1 3.561-2.947z" id="Rectangle-2" fill="#A00A1B" mask="url(#mask-4)" transform="rotate(-29 79.586 62.91)"/></g><path d="M122 1l-52 .024v.902C70 6 95.988 22 95.988 22S122 5.999 122 1.926V1z" id="colar" fill="#3D3D3D" transform="translate(4 2)"/><path d="M116 1H76v.781C76 4.662 95.987 16 95.987 16S116 4.662 116 1.781V1z" id="inside-neck" fill="#E6E6E6" transform="translate(4 2)"/></g></g><circle id="Oval" fill="#F1C700" cx="100" cy="59" r="11"/><path d="M121.025 51.954c-.695.252-1.055 0-1.6.322-1.002.591-.431.985-1.493 1.503-.698.34-1.26-.107-2.027.214-1.286.538-.8.93-2.08 1.503-.88.393-1.313.066-2.24.43-.993.388-.753.559-1.6 1.073-.967.586-.862.76-2.027 1.127-.622.196-1.083.233-1.547 0-.656-.33-.511-.55-.693-1.127-.165-.522-.308-.59 0-1.074.358-.563.768-.478 1.333-1.02.555-.531.596-.54.907-1.126.33-.622.459-.658.373-1.288-.074-.55-.082-.674-.693-1.074-.456-.297-.756-.125-1.44-.322-.622-.178-.683-.162-1.174-.429-.496-.27-.6-.778-.8-.644-.36.242-.32.7-.32 1.395 0 .539.009.566.32 1.074.249.405.215.55.8.751.508.175 1.228-.185 1.387 0 .187.218-.366.398-.693.805-.58.72-.705.702-1.12 1.45-.331.594-.374.615-.374 1.234 0 .696.04.722.373 1.395.2.4.147.482.694.751.813.401.972.386 2.027.59.465.09.88-.203 1.013 0 .374.575-.14.788 0 1.557.1.546.48.55.48 1.073 0 .283-.062.423-.48.537-.569.155-1.151-.258-1.493 0-.618.466-.016.78-.427 1.449-.15.243-.347.376-.693.376-.347 0-.342-.19-.694-.376-.209-.11-.25-.292-.427-.215-.623.272-.587.456-1.173.913-.24.187-.264.18-.48.375-.317.288-.477.27-.587.59-.184.539-.457 1.373-.32 1.557.263.353.505.503 1.12.644.319.073.353-.215.747-.215.673 0 .951.41 1.387.215.818-.368.36-.839 1.12-1.342.254-.168.52.098.907 0 .574-.144.573-.21 1.013-.483.467-.29.222-.504.8-.644.755-.182.965.088 1.867 0 .752-.073.829-.078 1.44-.322.669-.266.775-.287 1.12-.697.536-.637.362-.695.64-1.396.042-.104-.163-.18 0-.214.877-.181 1.028-.176 2.08-.215 1.855-.069 2.247-.284 3.734 0 .62.118.587.452.48.805-.08.264-.335.342-.853.43-.762.127-1.052-.173-1.707 0-.465.122-.533.281-.533.59 0 .496.16.535.533 1.02.267.347.338.335.747.643.338.256.445.217.746.483.366.324.055.728.587.698 1.362-.077 1.658-.407 3.2-.912.832-.273 1.074-.215 1.547-.644.593-.537.672-.644.587-1.288-.155-1.18-1.532-1.476-1.067-2.362.282-.536 2.226-.716 2.56-.483.36.25-.784.702-1.173 1.45-.198.38-.137.431 0 .804.05.137.318.08.373.215.131.32 0 .349 0 .698 0 .483-.447.799 0 .966.486.181.987-.074 1.867-.269.454-.1.347-.248.8-.322.534-.087.7.14 1.174 0 .7-.208.665-.769 1.173-.697.639.09.311.748 1.12 1.02.711.238 1.756.179 1.92 0 .156-.17-.912-.263-1.28-.698-.832-.987-.994-1.473-1.12-2.147-.034-.185.592.16.8.43.352.455-.063.583.32 1.019.23.261.418.22.907.376.605.193 1.28.44 1.28.322 0-.177-.85-.403-1.28-.913-.476-.563-.13-.645-.533-1.234-.37-.538-.73-.474-1.014-1.02-.33-.634-.096-.671-.213-1.341-.123-.699-.11-.7-.267-1.396-.163-.726-.102-.734-.373-1.449-.289-.76-.234-.78-.747-1.503-.687-.967-.765-.956-1.654-1.878-.87-.903-.837-.92-1.866-1.77-.758-.626-.862-.588-1.707-1.182-.301-.211-.204-.31-.587-.429-.31-.096-.439-.075-.8 0-.679.14-.881.254-1.28.43-.998.438-.722.52-1.654.858z" id="Line-Copy" fill="#C40F0F" transform="matrix(-1 0 0 1 237 0)"/><path d="M84.025 51.954c-.695.252-1.055 0-1.6.322-1.002.591-.431.985-1.493 1.503-.698.34-1.26-.107-2.027.214-1.286.538-.8.93-2.08 1.503-.88.393-1.313.066-2.24.43-.993.388-.753.559-1.6 1.073-.967.586-.862.76-2.027 1.127-.622.196-1.083.233-1.547 0-.656-.33-.511-.55-.693-1.127-.165-.522-.308-.59 0-1.074.358-.563.768-.478 1.333-1.02.555-.531.596-.54.907-1.126.33-.622.459-.658.373-1.288-.074-.55-.082-.674-.693-1.074-.456-.297-.756-.125-1.44-.322-.622-.178-.683-.162-1.174-.429-.496-.27-.6-.778-.8-.644-.36.242-.32.7-.32 1.395 0 .539.009.566.32 1.074.249.405.215.55.8.751.508.175 1.228-.185 1.387 0 .187.218-.366.398-.693.805-.58.72-.705.702-1.12 1.45-.331.594-.374.615-.374 1.234 0 .696.04.722.373 1.395.2.4.147.482.694.751.813.401.972.386 2.027.59.465.09.88-.203 1.013 0 .374.575-.14.788 0 1.557.1.546.48.55.48 1.073 0 .283-.062.423-.48.537-.569.155-1.151-.258-1.493 0-.618.466-.016.78-.427 1.449-.15.243-.347.376-.693.376-.347 0-.342-.19-.694-.376-.209-.11-.25-.292-.427-.215-.623.272-.587.456-1.173.913-.24.187-.264.18-.48.375-.317.288-.477.27-.587.59-.184.539-.457 1.373-.32 1.557.263.353.505.503 1.12.644.319.073.353-.215.747-.215.673 0 .951.41 1.387.215.818-.368.36-.839 1.12-1.342.254-.168.52.098.907 0 .574-.144.573-.21 1.013-.483.467-.29.222-.504.8-.644.755-.182.965.088 1.867 0 .752-.073.829-.078 1.44-.322.669-.266.775-.287 1.12-.697.536-.637.362-.695.64-1.396.042-.104-.163-.18 0-.214.877-.181 1.028-.176 2.08-.215 1.855-.069 2.247-.284 3.734 0 .62.118.587.452.48.805-.08.264-.335.342-.853.43-.762.127-1.052-.173-1.707 0-.465.122-.533.281-.533.59 0 .496.16.535.533 1.02.267.347.338.335.747.643.338.256.445.217.746.483.366.324.055.728.587.698 1.362-.077 1.658-.407 3.2-.912.832-.273 1.074-.215 1.547-.644.593-.537.672-.644.587-1.288-.155-1.18-1.532-1.476-1.067-2.362.282-.536 2.226-.716 2.56-.483.36.25-.784.702-1.173 1.45-.198.38-.137.431 0 .804.05.137.318.08.373.215.131.32 0 .349 0 .698 0 .483-.447.799 0 .966.486.181.987-.074 1.867-.269.454-.1.347-.248.8-.322.534-.087.7.14 1.174 0 .7-.208.665-.769 1.173-.697.639.09.311.748 1.12 1.02.711.238 1.756.179 1.92 0 .156-.17-.912-.263-1.28-.698-.832-.987-.994-1.473-1.12-2.147-.034-.185.592.16.8.43.352.455-.063.583.32 1.019.23.261.418.22.907.376.605.193 1.28.44 1.28.322 0-.177-.85-.403-1.28-.913-.476-.563-.13-.645-.533-1.234-.37-.538-.73-.474-1.014-1.02-.33-.634-.096-.671-.213-1.341-.123-.699-.11-.7-.267-1.396-.163-.726-.102-.734-.373-1.449-.289-.76-.234-.78-.747-1.503-.687-.967-.765-.956-1.654-1.878-.87-.903-.837-.92-1.866-1.77-.758-.626-.862-.588-1.707-1.182-.301-.211-.204-.31-.587-.429-.31-.096-.439-.075-.8 0-.679.14-.881.254-1.28.43-.998.438-.722.52-1.654.858z" id="Line" fill="#C40F0F"/></symbol></svg>