<?xml version="1.0" encoding="UTF-8"?>
<svg width="192px" height="203px" viewBox="0 0 192 203" version="1.1" xmlns="http://www.w3.org/2000/svg" xmlns:xlink="http://www.w3.org/1999/xlink">
    <title>2F92927C-82AB-4225-A1FB-904ED5F4B06D</title>
    <g id="*Championship-2020-2021" stroke="none" stroke-width="1" fill="none" fill-rule="evenodd">
        <g id="Championship-2019-20" transform="translate(-2595.000000, -785.000000)">
            <g id="Reading" transform="translate(2595.000000, 785.000000)">
                <g id="Mask-2" transform="translate(96.000000, 137.000000)" fill="#D6D6D6">
                    <path d="M0,0 L50,0 L58,44 C58.8,47.9 58.4,50.3 54,51 L13,58 C8.6,58.7 6.8,56.9 6,53 L0,29 L0,0 Z" id="path-1"></path>
                </g>
                <g id="Mask-3" transform="translate(37.000000, 137.000000)" fill="#E2E2E2">
                    <path d="M59,0 L9,0 L1.3,43.9 C0.5,47.7 0.9,50.2 5.3,50.9 L46.1,57.9 C50.4,58.6 52.3,56.8 53.1,52.9 L59.1,29 L59.1,0 L59,0 Z" id="path-3-2"></path>
                </g>
                <path d="M90.1,191.2 C84.4,191.1 75.7,190.1 64,188 C52.6,186 44.2,184 38.8,182.1 C37.2,181.5 35.5,182.3 35,183.9 C34.9,184.1 34.9,184.2 34.9,184.4 L34,189.6 C33.7,191.2 34.8,192.8 36.4,193.1 C36.4,193.1 36.4,193.1 36.4,193.1 L89.2,202.4 C90.8,202.7 92.4,201.6 92.7,200 C92.7,199.9 92.7,199.8 92.7,199.7 L93,194.5 C93.1,192.8 91.9,191.4 90.2,191.3 C90.2,191.3 90.2,191.3 90.2,191.3 C90.2,191.2 90.2,191.2 90.1,191.2 Z" id="Path"></path>
                <path d="M96,0 L121,0 C125.3,0.1 147.4,1.3 162,10.1 C147.2,21.8 146,59 146,59 L146,137 L96,141 L96,0 Z" id="top-highlight" fill="#E2E2E2"></path>
                <g id="Mask-4-2" transform="translate(96.000000, 0.000000)" fill="#0C48A8">
                    <path d="M0,0 L24.7,0 C24.7,0 54.4,-0.5 67.6,11 C80.8,22.5 92.2,45 94.6,50 C97,55 92,59 83,64 C73.4,69.4 64.6,74 61,68 C57.4,62 50.6,52 50.6,52 C50.6,52 46.8,20 34.2,8.6 C24.7,0 0,3.5 0,3.5 L0,0 Z" id="path-7"></path>
                </g>
                <path d="M96,0 L71,0 C66.7,0.1 44.6,1.3 30,10.1 C44.8,21.8 46,59 46,59 L46,137 L96,141 L96,0 Z" id="top-highlight-2" fill="#F2F2F2"></path>
                <g id="Mask-5" fill="#0E5AC2">
                    <path d="M96.2,0 L71.5,0 C71.5,0 41.8,-0.5 28.6,11 C15.4,22.5 4.1,45 1.6,50 C-0.9,55 4.2,59 13.2,64 C22.8,69.4 31.6,74 35.2,68 C38.8,62 45.6,52 45.6,52 C45.6,52 49.4,20 62,8.6 C71.5,0 96.2,3.5 96.2,3.5 L96.2,0 Z" id="path-5"></path>
                </g>
                <path d="M56,16.6 L96,16.6 L96,30.3 L50.3,30.3 C50.3,30.3 53.4,20.6 56,16.6 Z" id="Path" fill="#0E43C2"></path>
                <path d="M46.7,45 L96,45 L96,58.7 L46,58.7 C46,58.7 46,57.7 45.9,56.3 C45.8,54.9 45.6,53.7 45.5,52.2 C45.5,51.5 46.1,48.5 46.2,47.7 C46.5,46.5 46.3,47.4 46.7,45 Z" id="Path" fill="#0E43C2"></path>
                <path d="M46,73.5 L96,73.5 L96,87.2 L46,87.2 C46,87.3 46,81.5 46,73.5 Z" id="Path" fill="#0E43C2"></path>
                <path d="M46,102 L96,102 L96,115.7 L46,115.7 C46,115.7 45.8,107 46,102 Z" id="Path" fill="#0E43C2"></path>
                <path d="M46,130.5 L96,130.5 L96,141 L46,137 C46,137 46,133.7 46,130.5 Z" id="Path" fill="#0E43C2"></path>
                <path d="M136.6,16.6 L96.6,16.6 L96.6,30.3 L142.2,30.3 C142.3,30.3 139.2,20.6 136.6,16.6 Z" id="Path" fill="#1148B7"></path>
                <g id="Group" transform="translate(70.000000, 0.000000)">
                    <path d="M45,0 L7,0 L7,0.8 C7,3.7 26,15 26,15 C26,15 45,3.7 45,0.8 L45,0 Z" id="inside-neck" fill="#D31818"></path>
                    <path d="M52,0 L0,0 L0,0.9 C0,5 26,21 26,21 C26,21 52,5 52,0.9 L52,0 Z" id="colar" fill="#FFFFFF"></path>
                    <path d="M46,0 L6,0 L6,0.8 C6,3.7 26,15 26,15 C26,15 46,3.7 46,0.8 L46,0 Z" id="inside-neck-2" fill="#7F7F7F"></path>
                    <path d="M3.7,0 L3.7,0.7 C3.7,0.7 3.7,1.5 4.4,2.4 C4.4,2.4 5.1,3.2 6.5,4.3 C7.9,5.4 11.1,7.7 11.1,7.7 L13.9,9.7 L17.7,12.4 L24.1,16.6" id="Path" stroke="#B61323"></path>
                    <path d="M2.6,0 C2.6,0 2.5,1.6 3.4,2.8 C4.3,3.9 5.9,5.1 5.9,5.1 L9.9,8.1 L14,11 L20.3,15.4 L23.4,17.3" id="Path" stroke="#B61323"></path>
                    <path d="M48.4,0 L48.4,0.7 C48.4,0.7 48.4,1.5 47.7,2.4 C47.7,2.4 47,3.2 45.6,4.3 C44.2,5.4 41,7.7 41,7.7 L38.2,9.7 L34.4,12.4 L28,16.6" id="Path" stroke="#B61323"></path>
                    <path d="M49.4,0 C49.4,0 49.5,1.6 48.6,2.8 C47.7,4 46.1,5.1 46.1,5.1 L42.1,8.1 L38,11 L31.7,15.4 L28.6,17.3" id="Path" stroke="#B61323"></path>
                    <path d="M3.1,0 L3.1,0.5 C3.1,1.1 3.2,1.6 3.5,2.1 L3.5,2.1 C3.7,2.4 3.9,2.7 4.1,2.9 L4.6,3.4 L5.7,4.3 C5.7,4.3 14.4,11 23.8,17" id="Path" stroke="#0E40C2"></path>
                    <path d="M48.9,0 L48.9,0.5 C48.9,1.1 48.8,1.6 48.5,2.1 L48.5,2.1 C48.3,2.4 48.1,2.7 47.9,2.9 L47.4,3.4 L46.3,4.3 C46.3,4.3 37.6,11 28.2,17" id="Path" stroke="#0E40C2"></path>
                </g>
                <polygon id="Path" fill="#0E43C2" points="96 23.3 96 16.6 96 15 102 19.3"></polygon>
                <polygon id="Path" fill="#FFFFFF" points="98.5 16.8 98.5 33.8 96 33.8 96 15"></polygon>
                <polygon id="Path" fill="#0E43C2" points="96 23.3 96 16.6 96 15 90 19.3"></polygon>
                <polygon id="Path" fill="#FFFFFF" points="93.5 16.8 93.5 33.8 96 33.8 96 15"></polygon>
                <path d="M145.4,45 L96,45 L96,58.7 L146,58.7 C146,58.7 146,57.7 146.1,56.3 C146.2,54.9 146.5,53.5 146.5,52 C146.5,51.3 146,48.5 145.9,47.8 C145.7,46.6 145.9,47.4 145.4,45 Z" id="Path" fill="#1148B7"></path>
                <path d="M146,73.5 L96,73.5 L96,87.2 L146,87.2 C146,87.3 146,81.5 146,73.5 Z" id="Path" fill="#1148B7"></path>
                <path d="M146,102 L96,102 L96,115.7 L146,115.7 C146,115.7 146.2,107 146,102 Z" id="Path" fill="#1148B7"></path>
                <path d="M146,130.5 L96,130.5 L96,141 L146,137 C146,137 146,133.7 146,130.5 Z" id="Path" fill="#1148B7"></path>
                <path d="M2.5,48.3 C1.9,49.2 1.4,50.4 1.2,51.4 C0.9,52.4 1.1,53.5 1.5,54.5 C2.7,57.4 6.6,60.5 14.1,64.9 C19.7,67.9 22.5,69.4 26.3,70.6 C29.1,71.5 32.5,72.2 35.3,68.4 C35.5,68.4 25.7,63.3 17.8,58.7 C12.5,55.5 7.3,52.1 2.5,48.3 Z" id="Path" fill="#E8E8E8"></path>
                <path d="M189.6,48.1 C190.5,49.6 190.7,50.2 191,51.1 C191.4,52.4 191.1,53.7 190.7,54.7 C189.1,57.8 185.7,60.3 178.2,64.7 C172.6,67.7 169.8,69.2 166,70.4 C163.2,71.3 159,71.4 157.1,68.1 C156.9,68.1 166.6,63.1 174.5,58.5 C179.8,55.4 184.8,51.9 189.6,48.1 Z" id="Path" fill="#E8E8E8"></path>
                <path d="M1.7,49.6 C1.7,49.6 17.8,61.9 34.4,69.2 L33.8,69.8 C22.3,64.4 11.7,58.1 1.4,50.5 L1.5,50.2 L1.6,50 L1.7,49.8 L1.7,49.6 Z" id="Path" fill="#B61323"></path>
                <path d="M1.4,50.3 C1.4,50.3 17.3,62.4 33.9,69.6 L33.8,69.7 L33.6,69.9 L33.3,70.1 L33,70.3 L32.7,70.5 L32.5,70.6 L32.3,70.7 L32.1,70.8 L31.9,70.9 C20.7,65.6 11,59.7 1,52.2 L1,51.9 L1.1,51.6 L1.2,51.3 L1.2,51 L1.3,50.7 L1.4,50.3 Z" id="Path" fill="#0E5AC2"></path>
                <path d="M1,52.1 C1,52.1 15.6,63.5 32.2,70.8 L31.9,70.9 L31.6,71 L31.3,71.1 L31.2,71.1 C19.7,65.8 11.2,60.6 1.1,53.1 L1.1,52.9 L1.1,52.5 L1,52.1 Z" id="Path" fill="#B61323"></path>
                <path d="M190.5,49.7 L190.6,49.9 L190.7,50.1 L190.8,50.4 C180.5,58 169.9,64.4 158.4,69.7 L157.8,69.1 C174.5,61.8 190.5,49.5 190.5,49.5 L190.5,49.7 Z" id="Path" fill="#B61323"></path>
                <path d="M190.8,50.5 L190.9,50.8 L191,51.1 L191.1,51.4 L191.2,51.7 L191.2,52 C181.1,59.5 171.5,65.4 160.1,70.7 L159.9,70.6 L159.7,70.5 L159.5,70.4 L159.3,70.3 L159,70.1 L158.7,69.9 L158.4,69.7 L158.2,69.5 L158.1,69.4 C174.8,62.2 190.6,50.1 190.6,50.1 L190.8,50.5 Z" id="Path" fill="#0E5AC2"></path>
                <path d="M191.2,52.3 L191.2,52.7 L191.2,52.9 C181.1,60.5 172.6,65.6 161.1,70.9 L161,70.9 L160.7,70.8 L160.3,70.7 L160,70.6 C176.7,63.3 191.2,51.9 191.2,51.9 L191.2,52.3 Z" id="Path" fill="#B61323"></path>
            </g>
        </g>
    </g>
</svg>