<?xml version="1.0" encoding="UTF-8"?>
<svg width="192px" height="197px" viewBox="0 0 192 197" version="1.1" xmlns="http://www.w3.org/2000/svg" xmlns:xlink="http://www.w3.org/1999/xlink">
    <title>4477B3DF-5E76-46EE-8A8F-3C29815AF950</title>
    <g id="*Championship-2020-2021" stroke="none" stroke-width="1" fill="none" fill-rule="evenodd">
        <g id="Championship-2020-21" transform="translate(-2900.000000, -784.000000)">
            <g id="Rotherham-United" transform="translate(2900.000000, 784.000000)">
                <path d="M96,142 L146,138 L154,182 C154.8,185.9 154.4,188.3 150,189 L109,196 C104.6,196.7 102.8,194.9 102,191 L96,167 L96,142 Z" id="shorts" fill="#000000" fill-rule="nonzero"></path>
                <path d="M96,142 L46,138 L38.3,181.9 C37.5,185.7 37.9,188.2 42.3,188.9 L83.1,195.9 C87.4,196.6 89.3,194.8 90.1,190.9 L96.1,167 L96,142 Z" id="Path" fill="#282828"></path>
                <path d="M96.3,1 L71.5,1 C71.5,1 41.8,0.5 28.6,12 C15.4,23.5 4.1,46 1.6,51 C-0.9,56 4.2,60 13.2,65 C22.8,70.4 31.6,75 35.2,69 C38.8,63 45.6,53 45.6,53 C45.6,53 49.4,21 62,9.6 C71.6,1 96.2,4.5 96.2,4.5 L96.3,1 Z" id="Path-4" fill="#E8E8E8"></path>
                <path d="M96,1 L120.7,1 C120.7,1 150.4,0.5 163.6,12 C176.8,23.5 188.2,46 190.6,51 C193,56 188,60 179,65 C169.4,70.4 160.6,75 157,69 C153.4,63 146.6,53 146.6,53 C146.6,53 142.8,21 130.2,9.6 C120.7,1 96,4.5 96,4.5 L96,1 Z" id="Path-5" fill="#E8E8E8"></path>
                <path d="M96,1 L121,1 C125.3,1.1 147.4,2.3 162,11.1 C147.2,22.8 146,60 146,60 L146,138 L96,142 L96,1 Z" id="Path-2" fill="#D9D9D9"></path>
                <path d="M96,1 L71,1 C66.7,1.1 44.6,2.3 30,11.1 C44.8,22.8 46,60 46,60 L46,138 L96,142 L96,1 Z" id="Path-3" fill="#ECECEC"></path>
                <path d="M122.3,1 L70.3,1 L70.3,1.9 C70.3,6 96.3,22 96.3,22 C96.3,22 122.3,6 122.3,1.9 L122.3,1 Z" id="colar" fill="#EDEDED"></path>
                <path d="M116.3,1 L76.3,1 L76.3,1.8 C76.3,4.7 96.3,16 96.3,16 C96.3,16 116.3,4.7 116.3,1.8 L116.3,1 Z" id="Path-6" fill="#B2B2B2"></path>
                <path d="M24.5,16 L25.9,17 C25.9,17 36,8.3 47.4,6.2 C58.8,4.1 79.6,5.4 79.6,5.4 C79.6,5.4 76.2,2.9 76.3,1.8 L76.3,1 C76.3,1 71.7,0.8 65.8,1.1 C63.9,1.2 62,1.4 59.9,1.5 C58.2,1.6 56.6,1.9 55,2.1 C53.3,2.4 51.6,2.6 50,2.9 C48.3,3.2 46.7,3.6 45.3,4 C36.3,6.6 31.9,9.6 31.9,9.6 C31.9,9.6 26.7,13.1 24.5,16 Z" id="Path" fill="#282828"></path>
                <line x1="72.4" y1="5" x2="72.4" y2="142" id="Path" stroke="#000000" stroke-width="0.75" fill="#ECECEC"></line>
                <line x1="120.2" y1="5" x2="120.2" y2="140.4" id="Path" stroke="#000000"></line>
                <line x1="96.3" y1="22" x2="96" y2="142" id="Path" stroke="#B01625"></line>
                <line x1="52" y1="5.5" x2="52" y2="138.5" id="Path" stroke="#B01625"></line>
                <line x1="140.7" y1="5.5" x2="140.7" y2="138.5" id="Path" stroke="#B01625"></line>
                <path d="M168.2,16 L166.8,17 C166.8,17 156.7,8.3 145.3,6.2 C133.9,4.1 113.1,5.4 113.1,5.4 C113.1,5.4 116.5,2.9 116.4,1.8 L116.4,1 C116.4,1 121,0.8 126.9,1.1 C128.8,1.2 130.7,1.4 132.8,1.5 C134.5,1.6 136.1,1.9 137.7,2.1 C139.4,2.4 141.1,2.6 142.7,2.9 C144.4,3.2 146,3.6 147.4,4 C156.4,6.6 160.8,9.6 160.8,9.6 C160.8,9.6 166,13.1 168.2,16 Z" id="Path" fill="#282828"></path>
            </g>
        </g>
    </g>
</svg>