<svg xmlns="http://www.w3.org/2000/svg" xmlns:xlink="http://www.w3.org/1999/xlink"><defs><path d="M0 .003h24.665s29.725-.469 42.894 11c13.17 11.467 24.56 34.002 27 39C97 55 92 59 83 64c-9.64 5.356-18.44 10.003-22 4-3.56-6.003-10.44-15.997-10.44-15.997s-3.833-32.03-16.411-43.414C24.665.003 0 3.454 0 3.454V.003z" id="path-73"/><path d="M0 .003h24.665s29.725-.469 42.894 11c13.17 11.467 24.56 34.002 27 39C97 55 92 59 83 64c-9.64 5.356-18.44 10.003-22 4-3.56-6.003-10.44-15.997-10.44-15.997s-3.833-32.03-16.411-43.414C24.665.003 0 3.454 0 3.454V.003z" id="path-74"/></defs><symbol id="scotland" viewBox="0 0 200 200"><g fill="none" fill-rule="evenodd"><path d="M119 3H81v.781C81 6.662 99.987 18 99.987 18S119 6.662 119 3.781V3z" id="inside-neck" fill="#D31818"/><path d="M158.32 140h-50l-8 44c-.784 3.856-.37 6.308 4 7l41 7c4.37.692 6.216-1.145 7-5l6-24v-29z" id="shorts" fill="#CCC" transform="matrix(-1 0 0 1 258.32 0)"/><path d="M100 140H50l-7.682 43.892c-.78 3.846-.367 6.292 3.979 6.982l40.774 6.983c4.346.69 6.182-1.142 6.962-4.988l5.966-23.94L100 140z" id="shorts" fill="#E6E6E6"/><path d="M166 3h-25c-4.32.136-26.398 1.285-41 10.05C114.77 24.774 116 62 116 62v78l50 3V3z" id="top-highlight" fill="#192A54" transform="matrix(-1 0 0 1 266 0)"/><path d="M100 3H75c-4.32.136-26.398 1.285-41 10.05C48.77 24.774 50 62 50 62v78l50 3V3z" id="top-highlight" fill="#2D447D"/><g id="arm-fill" transform="translate(5 3)"><mask id="mask-2" fill="#fff"><use xlink:href="#path-73"/></mask><use id="Mask" fill="#384F89" transform="matrix(-1 0 0 1 95.176 0)" xlink:href="#path-73"/><path d="M-1.614 56.503c4.709.897 11.358 1.346 19.948 1.346 8.316 0 14.62-.42 18.914-1.262a3 3 0 013.577 2.945v5.092a3 3 0 01-3 3h-40a3 3 0 01-3-3V59.45a3 3 0 013.561-2.947z" id="Rectangle-2" fill="#E6E6E6" mask="url(#mask-2)" transform="scale(-1 1) rotate(-29 0 130.96)"/></g><g id="arm-fill" transform="translate(100 3)"><mask id="mask-4" fill="#fff"><use xlink:href="#path-74"/></mask><use id="Mask" fill="#0E1F49" xlink:href="#path-74"/><path d="M60.147 56.376c4.709.897 11.358 1.346 19.947 1.346 8.316 0 14.621-.421 18.915-1.262a3 3 0 013.577 2.944v5.093a3 3 0 01-3 3h-40a3 3 0 01-3-3v-5.174a3 3 0 013.561-2.947z" id="Rectangle-2" fill="#E6E6E6" mask="url(#mask-4)" transform="rotate(-29 79.586 61.91)"/></g><path d="M126 3l-52 .024v.902C74 8 99.988 24 99.988 24S126 7.999 126 3.926V3z" id="colar" fill="#E6E6E6"/><path d="M120 3H80v.781C80 6.662 99.987 18 99.987 18S120 6.662 120 3.781V3z" id="inside-neck" fill="#13244D"/></g></symbol></svg>