<svg xmlns="http://www.w3.org/2000/svg" xmlns:xlink="http://www.w3.org/1999/xlink" viewBox="0 0 192.16 195.14"><defs><style>.cls-1{fill:#fff;}.cls-1,.cls-2,.cls-3,.cls-4,.cls-5,.cls-6,.cls-8{fill-rule:evenodd;}.cls-2{fill:#d31818;}.cls-3{fill:#001937;}.cls-4{fill:#02244e;}.cls-5{fill:#e6e6e6;}.cls-6{fill:#074d9e;}.cls-7{mask:url(#mask);}.cls-8{fill:#032e62;}</style><mask id="mask" x="0" y="0" width="97.16" height="73.5" maskUnits="userSpaceOnUse"><g id="mask-2"><path id="path-1" class="cls-1" d="M2,0H26.65S56.37-.47,69.54,11s24.56,34,27,39S94,59,85,64c-9.64,5.36-18.44,10-22,4S52.54,52,52.54,52,48.71,20,36.13,8.59C26.65,0,2,3.45,2,3.45Z"/></g></mask></defs><g id="Layer_2" data-name="Layer 2"><g id="Layer_2-2" data-name="Layer 2"><g id="Kit"><path id="inside-neck" class="cls-2" d="M116,0H78V.78C78,3.66,97,15,97,15S116,3.66,116,.78Z"/><path id="shorts" class="cls-3" d="M97,137h50l8,44c.79,3.86.37,6.31-4,7l-41,7c-4.37.69-6.21-1.15-7-5l-6-24Z"/><path id="shorts-2" data-name="shorts" class="cls-4" d="M97,137H47L39.3,180.89c-.78,3.85-.37,6.29,4,7l40.77,7c4.35.69,6.19-1.15,7-5l6-23.94Z"/><path id="top-highlight" class="cls-5" d="M97,0h25c4.32.14,26.4,1.29,41,10.05-14.77,11.72-16,49-16,49v78l-50,4Z"/><path id="top-highlight-2" data-name="top-highlight" class="cls-5" d="M97,0H72C67.66.14,45.59,1.29,31,10.05,45.75,21.77,47,59,47,59v78l50,4Z"/><path id="stripe" class="cls-6" d="M74,0V139.16L59,138V13.7q0-4.56,3.75-9.13T74,0Z"/><polygon id="stripe-2" data-name="stripe" class="cls-6" points="96.98 15.2 104.98 15.2 104.98 140.36 96.98 141 96.98 15.2"/><polygon id="stripe-3" data-name="stripe" class="cls-6" points="88.98 15.2 96.98 15.2 96.98 141.01 88.98 140.37 88.98 15.2"/><path id="stripe-4" data-name="stripe" class="cls-6" d="M120,0q7.26.43,11,5c2.5,3,3.84,5.71,4,8V138l-15,1.21Z"/><g id="arm-fill"><g id="Mask-2-2" data-name="Mask"><path id="path-1-2" data-name="path-1" class="cls-6" d="M97.16,0H72.49S42.77-.47,29.6,11,5,45,2.6,50s2.56,9,11.56,14c9.64,5.36,18.44,10,22,4S46.6,52,46.6,52,50.43,20,63,8.59C72.49,0,97.16,3.45,97.16,3.45Z"/></g><g class="cls-7"><path id="Rectangle-2" class="cls-4" d="M39.68,66.68a174.26,174.26,0,0,1-18-9,160.44,160.44,0,0,1-16.31-10,3,3,0,0,0-4.19.63,3,3,0,0,0-.21.33l-.55,1a3,3,0,0,0,1.17,4.08l35,19.39A3,3,0,0,0,40.61,72l.57-1A3,3,0,0,0,40,66.84,2.6,2.6,0,0,0,39.68,66.68Z"/></g></g><g id="arm-fill-2" data-name="arm-fill"><g id="Mask-3" data-name="Mask"><path id="path-3" class="cls-6" d="M97,0h24.67s29.72-.47,42.89,11,24.56,34,27,39S189,59,180,64c-9.64,5.36-18.44,10-22,4s-10.44-16-10.44-16-3.83-32-16.41-43.41C121.65,0,97,3.45,97,3.45Z"/></g></g><path id="colar" class="cls-8" d="M123,0,71,0V.93C71,5,97,21,97,21S123,5,123,.93Z"/><path id="inside-neck-2" data-name="inside-neck" class="cls-6" d="M117,0H77V.78C77,3.66,97,15,97,15S117,3.66,117,.78Z"/></g></g></g></svg>