<?xml version="1.0" encoding="UTF-8"?>
<svg width="200px" height="200px" viewBox="0 0 200 200" version="1.1" xmlns="http://www.w3.org/2000/svg" xmlns:xlink="http://www.w3.org/1999/xlink">
    <!-- Generator: Sketch 55.1 (78136) - https://sketchapp.com -->
    <title>Slavia Prague</title>
    <desc>Created with Sketch.</desc>
    <defs>
        <path d="M0.175733204,0.902706862 L25.1842879,0.902706862 C25.1842879,0.902706862 55.3225,0.427883416 68.6748147,12.0557599 C82.0271294,23.6824356 93.5755979,46.5315398 96.0504903,51.5984025 C98.5253827,56.6652652 93.4558131,60.7209208 84.3305879,65.7904904 C74.5565061,71.2205358 65.6330729,75.9323364 62.0244818,69.846146 C58.4158908,63.7599557 51.4382782,53.6262303 51.4382782,53.6262303 C51.4382782,53.6262303 47.5528993,21.1518301 34.7997651,9.60800472 C25.1842879,0.902706862 0.175733204,4.40163624 0.175733204,4.40163624 L0.175733204,0.902706862 Z" id="path-1"></path>
        <path d="M0,0.00266971628 L24.665363,0.00266971628 C24.665363,0.00266971628 54.3899893,-0.465637741 67.5590705,11.0026697 C80.7281517,22.4697929 92.118141,45.0053394 94.5590705,50.0026697 C97,55 92,59 83,64 C73.3600476,69.3555291 64.5590705,74.0026697 61,68 C57.4409295,61.9973303 50.5590705,52.0026697 50.5590705,52.0026697 C50.5590705,52.0026697 46.7270105,19.9739148 34.1488873,8.58850502 C24.665363,0.00266971628 0,3.45358338 0,3.45358338 L0,0.00266971628 Z" id="path-3"></path>
    </defs>
    <symbol viewBox="0 0 200 200" id="slavia-prague" stroke="none" stroke-width="1" fill="none" fill-rule="evenodd">
        <rect fill="#FFFFFF" x="0" y="0" width="200" height="200"></rect>
        <g id="Bayern-Munich" transform="translate(4.000000, 2.000000)">
            <g id="Kit">
                <path d="M115,1 L77,1 L77,1.78138753 C77,4.6620789 95.9873181,16 95.9873181,16 C95.9873181,16 115,4.6620789 115,1.78138753 L115,1 Z" id="inside-neck-copy" fill="#D31818"></path>
                <path d="M154.320252,138 L104.320252,138 L96.3202515,182 C95.5363516,185.856041 95.9506032,188.30789 100.320252,189 L141.320252,196 C145.6899,196.69211 147.536352,194.854891 148.320252,191 L154.319083,167 L154.320252,138 Z" id="shorts-copy" fill="#CCCCCC" transform="translate(125.160126, 167.071688) scale(-1, 1) translate(-125.160126, -167.071688) "></path>
                <path d="M96,138 L46,138 L38.318493,181.8915 C37.5388976,185.738032 37.9508744,188.183835 42.2965279,188.874238 L83.0713864,195.856977 C87.4170398,196.54738 89.2533522,194.714692 90.0329475,190.869306 L95.9988376,166.928488 L96,138 Z" id="shorts" fill="#D9D9D9"></path>
                <path d="M162,1 C147.188647,1 138.855314,1 137,1 C132.680002,1.13642052 110.6022,2.2850813 96,11.0500997 C110.770631,22.7740792 112,60 112,60 L112,138 L162,142 L162,1 Z" id="top-highlight-copy" fill="#D9D9D9" transform="translate(129.000000, 71.500000) scale(-1, 1) translate(-129.000000, -71.500000) "></path>
                <path d="M96,1 C81.1886472,1 72.8553139,1 71,1 C66.6800017,1.13642052 44.6021997,2.2850813 30,11.0500997 C44.770631,22.7740792 46,60 46,60 L46,138 L96,142 L96,1 Z" id="top-highlight" fill="#E22121"></path>
                <path d="M1,1.00266972 L25.665363,1.00266972 C25.665363,1.00266972 55.3899893,0.534362259 68.5590705,12.0026697 C81.7281517,23.4697929 93.118141,46.0053394 95.5590705,51.0026697 C98,56 93,60 84,65 C74.3600476,70.3555291 65.5590705,75.0026697 62,69 C58.4409295,62.9973303 51.5590705,53.0026697 51.5590705,53.0026697 C51.5590705,53.0026697 47.7270105,20.9739148 35.1488873,9.58850502 C25.665363,1.00266972 1,4.45358338 1,4.45358338 L1,1.00266972 Z" id="Mask-Copy" fill="#EF2525" transform="translate(48.587867, 36.410470) scale(-1, 1) translate(-48.587867, -36.410470) "></path>
                <path d="M96,1.00266972 L120.665363,1.00266972 C120.665363,1.00266972 150.389989,0.534362259 163.55907,12.0026697 C176.728152,23.4697929 188.118141,46.0053394 190.55907,51.0026697 C193,56 188,60 179,65 C169.360048,70.3555291 160.55907,75.0026697 157,69 C153.44093,62.9973303 146.55907,53.0026697 146.55907,53.0026697 C146.55907,53.0026697 142.727011,20.9739148 130.148887,9.58850502 C120.665363,1.00266972 96,4.45358338 96,4.45358338 L96,1.00266972 Z" id="Mask-Copy-2" fill="#C62020"></path>
                <g id="arm-fill-copy">
                    <mask id="mask-2" fill="white">
                        <use xlink:href="#path-1"></use>
                    </mask>
                    <use id="Mask" fill="#E8E7E7" transform="translate(48.425733, 36.803168) scale(-1, 1) translate(-48.425733, -36.803168) " xlink:href="#path-1"></use>
                </g>
                <g id="arm-fill" transform="translate(96.000000, 1.000000)">
                    <mask id="mask-4" fill="white">
                        <use xlink:href="#path-3"></use>
                    </mask>
                    <use id="Mask" fill="#C40F0F" xlink:href="#path-3"></use>
                    <path d="M60.1470691,56.3758042 C64.8557202,57.272935 71.5047968,57.7215004 80.0942989,57.7215004 C88.4103238,57.7215004 94.7152334,57.3010437 99.0090277,56.4601301 C100.63499,56.1417068 102.211232,57.2016655 102.529667,58.8276252 C102.566865,59.0175633 102.585595,59.2106553 102.585595,59.4042016 L102.585595,64.4967622 C102.585595,66.1536164 101.242449,67.4967622 99.5855949,67.4967622 L59.5855819,67.4967622 C57.9287276,67.4967622 56.5855819,66.1536164 56.5855819,64.4967622 L56.5855819,59.3228075 C56.5855658,57.6659444 57.9287187,56.3227914 59.5855819,56.3227914 C59.7739937,56.3227914 59.9619866,56.3405408 60.1470691,56.3758042 Z" id="Rectangle-2" fill="#C40F0F" mask="url(#mask-4)" transform="translate(79.585588, 61.909777) rotate(-29.000000) translate(-79.585588, -61.909777) "></path>
                </g>
                <path d="M122,1 L70,1.02389078 L70,1.92605233 C70,5.99886234 95.9883492,22 95.9883492,22 C95.9883492,22 122,5.99886234 122,1.92605233 L122,1 Z" id="colar" fill="#C40F0F"></path>
                <path d="M116,1 L76,1 L76,1.78138753 C76,4.6620789 95.9866506,16 95.9866506,16 C95.9866506,16 116,4.6620789 116,1.78138753 L116,1 Z" id="inside-neck" fill="#CCCCCC"></path>
            </g>
            <polygon id="Line-4" fill="#C40F0F" points="114.157895 30.0526316 120.473684 33.6616541 126.639098 29 125 35.6666667 131 39.6766917 123.631579 40.2781955 121.676692 47.6466165 118.819549 41.0300752 111 41.9323308 116.714286 36.518797"></polygon>
            <g id="Group" transform="translate(86.000000, 48.000000)" stroke="#FFFFFF">
                <circle id="Oval" fill="#EF2525" cx="10" cy="10" r="10"></circle>
                <path d="M15.9135167,16.9749638 L14.0043822,1.80106333 C13.9363059,1.25998995 13.4424926,0.87655 12.9014192,0.944626226 C12.7125347,0.968391103 12.534547,1.04625132 12.3888889,1.16883117 L11.3708531,2.02556776 C11.1366484,2.2226647 11.0056149,2.51617207 11.0152384,2.82212375 L11.5053001,18.4022689 C11.5226632,18.9542807 11.9842328,19.387699 12.5362445,19.3703359 C12.6877396,19.3655708 12.8361694,19.3264304 12.9703154,19.2558731 L15.3868484,17.9848395 C15.755683,17.7908421 15.9655398,17.3884459 15.9135167,16.9749638 Z" id="Line-5" stroke-linecap="square"></path>
                <path d="M4.89020477,17.7971189 L4.08581893,2.6193025 C4.06226544,2.17487569 4.40345067,1.7955027 4.84787748,1.7719492 C5.02333899,1.76265019 5.1970316,1.81095463 5.34249983,1.90950519 L6.3145798,2.56806153 C6.55026868,2.72773399 6.70673097,2.98029137 6.74474621,3.262425 L8.77538988,18.3330351 C8.84913934,18.8803737 8.46521956,19.383865 7.91788104,19.4576144 C7.7525005,19.4798981 7.58417265,19.4604406 7.42823716,19.4010149 L5.5326947,18.6786403 C5.16301418,18.5377583 4.91114199,18.1921797 4.89020477,17.7971189 Z" id="Line-5-Copy" stroke-linecap="square"></path>
                <path d="M3.75,9.14285714 L3.50654016,9.14285714 C3.50256718,9.14285714 3.49897103,9.1405052 3.49737858,9.13686533 L3.01916157,8.04379788 C3.01694791,8.03873808 3.01105161,8.03643084 3.00599181,8.0386445 C3.00235194,8.04023694 3,8.04383309 3,8.04780607 L3,11.93 C3,11.9355228 3.00447715,11.94 3.01,11.94 C3.01444444,11.94 3.01835556,11.9370667 3.0196,11.9328 L3.4979,10.2929143 C3.49914444,10.2886476 3.50305556,10.2857143 3.5075,10.2857143 L3.99,10.2857143 C3.99552285,10.2857143 4,10.2812371 4,10.2757143 L4,9.15285714 C4,9.1473343 3.99552285,9.14285714 3.99,9.14285714" id="Line-Copy" stroke-width="0.5" fill="#FFFFFF" stroke-linecap="square"></path>
                <path d="M18.75,9.14285714 L18.5065402,9.14285714 C18.5025672,9.14285714 18.498971,9.1405052 18.4973786,9.13686533 L18.0191616,8.04379788 C18.0169479,8.03873808 18.0110516,8.03643084 18.0059918,8.0386445 C18.0023519,8.04023694 18,8.04383309 18,8.04780607 L18,11.93 C18,11.9355228 18.0044772,11.94 18.01,11.94 C18.0144444,11.94 18.0183556,11.9370667 18.0196,11.9328 L18.4979,10.2929143 C18.4991444,10.2886476 18.5030556,10.2857143 18.5075,10.2857143 L18.99,10.2857143 C18.9955228,10.2857143 19,10.2812371 19,10.2757143 L19,9.15285714 C19,9.1473343 18.9955228,9.14285714 18.99,9.14285714" id="Line-Copy-2" stroke-width="0.5" fill="#FFFFFF" stroke-linecap="square"></path>
            </g>
        </g>
    </symbol>
</svg>
