<?xml version="1.0" encoding="UTF-8"?>
<svg width="191px" height="195px" viewBox="0 0 191 195" version="1.1" xmlns="http://www.w3.org/2000/svg" xmlns:xlink="http://www.w3.org/1999/xlink">
    <!-- Generator: sketchtool 62 (101010) - https://sketch.com -->
    <title>F72036CC-32A1-46D2-812E-9A6A652CD5D3</title>
    <desc>Created with sketchtool.</desc>
    <g id="--Premier-League-2020-21" stroke="none" stroke-width="1" fill="none" fill-rule="evenodd">
        <g id="Premier-League-2020-21" transform="translate(-2007.000000, -619.000000)">
            <g id="Southampton" transform="translate(2007.000000, 619.000000)">
                <g id="Asset-1">
                    <path d="M95.2,140.479592 L145.2,136.5 L153.2,180.27551 C154,184.155612 153.6,186.543367 149.2,187.239796 L108.2,194.204082 C103.8,194.90051 102,193.109694 101.2,189.229592 L95.2,165.352041 L95.2,140.479592 Z" id="shorts" fill="#191818"></path>
                    <path d="M95.2,140.479592 L45.2,136.5 L37.5,180.17602 C36.7,183.956633 37.1,186.443878 41.5,187.140306 L82.3,194.104592 C86.6,194.80102 88.5,193.010204 89.3,189.130102 L95.3,165.352041 L95.2,140.479592 Z" id="Path" fill="#191818"></path>
                    <path d="M95.2,0.198979592 L120.2,0.198979592 C124.5,0.298469388 146.6,1.49234694 161.2,10.247449 C146.4,21.8877551 145.2,58.8979592 145.2,58.8979592 L145.2,136.5 L95.2,140.479592 L95.2,0.198979592 Z" id="Path-2" fill="#BA181D"></path>
                    <path d="M95.2,0.198979592 L70.2,0.198979592 C65.9,0.298469388 43.8,1.49234694 29.2,10.247449 C44,21.8877551 45.2,58.8979592 45.2,58.8979592 L45.2,136.5 L95.2,140.479592 L95.2,0.198979592 Z" id="Path-3" fill="#D81B1C"></path>
                    <path d="M95.4,0.198979592 L70.7,0.198979592 C70.7,0.198979592 41,-0.298469388 27.8,11.1428571 C14.6,22.5841837 3.3,44.9693878 0.8,49.9438776 C-1.7,54.9183673 3.4,58.8979592 12.4,63.872449 C22,69.244898 30.8,73.8214286 34.4,67.8520408 C38,61.8826531 44.8,51.9336735 44.8,51.9336735 C44.8,51.9336735 48.6,20.0969388 61.2,8.75510204 C70.7,0.198979592 95.3,3.68112245 95.3,3.68112245 L95.4,0.198979592 Z" id="Path-4" fill="#E5252E"></path>
                    <path d="M95.2,0.198979592 L119.9,0.198979592 C119.9,0.198979592 149.6,-0.298469388 162.8,11.1428571 C176,22.5841837 187.4,44.9693878 189.8,49.9438776 C192.2,54.9183673 187.2,58.8979592 178.2,63.872449 C168.6,69.244898 159.8,73.8214286 156.2,67.8520408 C152.6,61.8826531 145.8,51.9336735 145.8,51.9336735 C145.8,51.9336735 142,20.0969388 129.4,8.75510204 C119.9,0.198979592 95.2,3.68112245 95.2,3.68112245 L95.2,0.198979592 Z" id="Path-5" fill="#A01920"></path>
                    <path d="M121.2,0.198979592 L69.2,0.198979592 L69.2,1.09438776 C69.2,5.17346939 95.2,21.0918367 95.2,21.0918367 C95.2,21.0918367 121.2,5.17346939 121.2,1.09438776 L121.2,0.198979592 Z" id="colar" fill="#010202"></path>
                    <path d="M115.2,0.198979592 L75.2,0.198979592 L75.2,0.994897959 C75.2,3.88010204 95.2,15.122449 95.2,15.122449 C95.2,15.122449 115.2,3.88010204 115.2,0.994897959 L115.2,0.198979592 Z" id="Path-6" fill="#D1D0D1"></path>
                </g>
                <path d="M33.3,7.3622449 L94.7,110.234694 L94.7,64.9668367 L55.9,0.795918367 C55.9,0.795918367 43.1,2.3877551 33.3,7.3622449 Z" id="Path" fill="#FFFFFF"></path>
                <polygon id="Path" fill="#F2F2F2" points="94.8 64.9668367 138.2 136.897959 112.1 139.086735 94.8 110.234694"></polygon>
                <path d="M1,49.5459184 C1,49.5459184 -0.8,51.5357143 0.5,55.0178571 L0.5,55.0178571 C1.4,56.5102041 2.6,57.7040816 4,58.6989796 C4,58.6989796 14,65.5637755 21.6,68.6479592 C27.2,71.0357143 31.1,71.6326531 33.8,68.747449" id="Path" fill="#010202"></path>
                <path d="M156.8,68.747449 C159.5,71.6326531 163.4,71.0357143 169,68.6479592 C176.6,65.5637755 186.6,58.6989796 186.6,58.6989796 C188,57.7040816 189.2,56.5102041 190.1,55.0178571 L190.1,55.0178571 C191.3,51.5357143 189.6,49.5459184 189.6,49.5459184" id="Path" fill="#010202"></path>
                <polygon id="Path" fill="#FFFFFF" points="33.8 68.747449 1 49.5459184 2.1 47.3571429 35 66.7576531"></polygon>
                <polygon id="Path" fill="#FFFFFF" points="156.7 68.747449 189.6 49.4464286 188.4 47.2576531 155.4 66.6581633"></polygon>
            </g>
        </g>
    </g>
</svg>