<?xml version="1.0" encoding="UTF-8"?>
<svg width="191px" height="196px" viewBox="0 0 191 196" version="1.1" xmlns="http://www.w3.org/2000/svg" xmlns:xlink="http://www.w3.org/1999/xlink">
    <title>BA7E4DAF-C79E-4F0A-9E6A-E515BB0803FC</title>
    <g id="*Championship-2020-2021" stroke="none" stroke-width="1" fill="none" fill-rule="evenodd">
        <g id="Championship-2019-20" transform="translate(-504.000000, -1166.000000)">
            <g id="Stoke-City" transform="translate(504.000000, 1166.000000)">
                <path d="M95.1,141.7 L145.1,137.7 L153.1,181.7 C153.9,185.6 153.5,188 149.1,188.7 L108.1,195.7 C103.7,196.4 101.9,194.6 101.1,190.7 L95.1,166.7 L95.1,141.7 Z" id="shorts" fill="#CCCCCC"></path>
                <path d="M95.1,141.7 L45.1,137.7 L37.4,181.6 C36.6,185.4 37,187.9 41.4,188.6 L82.2,195.6 C86.5,196.3 88.4,194.5 89.2,190.6 L95.2,166.7 L95.1,141.7 Z" id="Path" fill="#E6E6E6"></path>
                <path d="M95.1,0.7 L120.1,0.7 C124.4,0.8 146.5,2 161.1,10.8 C146.3,22.5 145.1,59.7 145.1,59.7 L145.1,137.7 L95.1,141.7 L95.1,0.7 Z" id="Path-2" fill="#B01625"></path>
                <path d="M95.1,0.7 L70.1,0.7 C65.8,0.8 43.7,2 29.1,10.8 C43.9,22.5 45.1,59.7 45.1,59.7 L45.1,137.7 L95.1,141.7 L95.1,0.7 Z" id="Path-3" fill="#CC1426"></path>
                <polygon id="Path" fill="#E5E5E5" points="120.1 1.3 120.1 139.8 133.7 138.7 133.7 1.9"></polygon>
                <polygon id="Path" fill="#E6E6E6" points="70.8 1.3 70.8 139.8 57.2 138.7 57.2 1.9"></polygon>
                <polygon id="Path" fill="#EDEDED" fill-rule="nonzero" points="87.7 15.7 95.4 15.7 95.1 141.7 87.7 141.2"></polygon>
                <polygon id="Path" fill="#E5E5E5" fill-rule="nonzero" points="102.3 15.7 94.7 15.7 95 141.7 102.3 141.2"></polygon>
                <line x1="58.6" y1="10.3" x2="58.6" y2="138.8" id="Path" stroke="#CC1426"></line>
                <line x1="69.4" y1="4.5" x2="69.4" y2="139.7" id="Path" stroke="#CC1426"></line>
                <line x1="89.2" y1="17" x2="89.2" y2="141.3" id="Path" stroke="#CC1426"></line>
                <line x1="100.9" y1="17" x2="100.9" y2="141.3" id="Path" stroke="#CC1426"></line>
                <line x1="132.3" y1="10.9" x2="132.3" y2="138.8" id="Path" stroke="#CC1426"></line>
                <line x1="121.5" y1="5" x2="121.5" y2="139.6" id="Path" stroke="#CC1426"></line>
                <path d="M95.4,0.7 L70.6,0.7 C70.6,0.7 40.9,0.2 27.7,11.7 C14.5,23.2 3.2,45.7 0.7,50.7 C-1.8,55.7 3.3,59.7 12.3,64.7 C21.9,70.1 30.7,74.7 34.3,68.7 C37.9,62.7 44.7,52.7 44.7,52.7 C44.7,52.7 48.5,20.7 61.1,9.3 C70.7,0.7 95.3,4.2 95.3,4.2 L95.4,0.7 Z" id="Path-4" fill="#D31833"></path>
                <path d="M95.1,0.7 L119.8,0.7 C119.8,0.7 149.5,0.2 162.7,11.7 C175.9,23.2 187.3,45.7 189.7,50.7 C192.1,55.7 187.1,59.7 178.1,64.7 C168.5,70.1 159.7,74.7 156.1,68.7 C152.5,62.7 145.7,52.7 145.7,52.7 C145.7,52.7 141.9,20.7 129.3,9.3 C119.8,0.7 95.1,4.2 95.1,4.2 L95.1,0.7 Z" id="Path-5-2" fill="#A3162A"></path>
                <g id="Mask" transform="translate(0.000000, 48.000000)" fill="#EDEDED">
                    <path d="M17.2,10.9 C11.8,7.9 6.6,4.6 1.6,0.9 C1,2 0.7,2.8 0.6,2.9 C-1.8,7.9 3.2,11.9 12.2,16.9 C21.8,22.3 30.7,26.8 34.3,20.8 C34.6,20.3 34.9,19.9 35.2,19.4 C30.9,18 24.9,15.2 17.2,10.9 Z" id="path-5"></path>
                </g>
                <path d="M1,50.1 C1,50.1 17.6,61.7 34.6,68.2 L34.2,68.9 C22.4,64.1 11.2,58 0.6,50.9 L1,50.1 Z" id="Path" fill="#B61323"></path>
                <path d="M0.3,51.6 C0.3,51.6 16.7,63.1 33.7,69.5 L33.2,70.1 C21.6,65.4 10.5,59.4 0.1,52.4 L0.3,51.6 Z" id="Path" fill="#B61323"></path>
                <path d="M173.1,58.8 C178.5,55.8 183.7,52.5 188.7,48.8 C189.3,49.9 189.6,50.7 189.7,50.8 C192.1,55.8 187.1,59.8 178.1,64.8 C168.5,70.2 159.6,74.8 156.1,68.8 C156,68.7 155.7,68.1 155.2,67.2 C159.4,65.8 165.4,63 173.1,58.8 Z" id="Mask-2" fill="#EDEDED"></path>
                <path d="M189.4,50.2 C189.4,50.2 172.8,61.8 155.8,68.3 L156.2,69 C168,64.2 179.2,58.1 189.8,51 L189.4,50.2 Z" id="Path" fill="#B61323"></path>
                <path d="M190,51.6 C190,51.6 173.6,63.1 156.6,69.5 L157.1,70.1 C168.7,65.4 179.8,59.4 190.2,52.3 L190,51.6 Z" id="Path" fill="#B61323"></path>
                <path d="M121.4,0.7 L69.4,0.7 L69.4,1.6 C69.4,5.7 95.4,21.7 95.4,21.7 C95.4,21.7 121.4,5.7 121.4,1.6 L121.4,0.7 Z" id="colar_2_" fill="#FFFFFF"></path>
                <path d="M115.4,0.7 L75.4,0.7 L75.4,1.5 C75.4,4.4 95.4,15.7 95.4,15.7 C95.4,15.7 115.4,4.4 115.4,1.5 L115.4,0.7 Z" id="Path-6" fill="#6C0214"></path>
                <path d="M70.8,0.7 L70.8,1.3 C70.8,1.3 70.3,2.5 77.8,8.5 C85.6,14.1 95.4,19.9 95.4,19.9" id="Path" stroke="#B01625"></path>
                <path d="M118,0.7 L118,1 C118,1 117.5,3.6 106,10.9 C99,15.3 95.4,17.2 95.4,17.2" id="Path" stroke="#B01625"></path>
                <path d="M119.3,0.7 L119.3,1.5 C119.3,1.5 118.9,4.5 107.8,11.8 C96.7,19.1 95.3,19.9 95.3,19.9" id="Path" stroke="#B01625"></path>
                <path d="M72.8,0.7 L72.8,1 C72.8,1.2 72.8,1.3 72.9,1.5 C73.3,2.1 74.7,3.9 80.1,8 C84.6,11.4 90.3,14.8 95.4,17.3" id="Path" stroke="#B01625"></path>
                <path d="M141.9,138 L145.1,137.7 L151.9,174.9 C151.9,174.9 150.7,173.3 148.1,171.3 L141.9,138 Z" id="Path" fill="#B61323"></path>
                <polygon id="Path" fill="#B01625" fill-rule="nonzero" points="94.3 17.3 96.4 17.3 95.4 17.9"></polygon>
                <polygon id="Path" fill="#B01625" fill-rule="nonzero" points="94.3 19.9 96.5 19.9 95.4 20.5"></polygon>
                <path d="M69.4,1.6 C69.4,1.6 46.2,3.7 28.4,11.1 C28.4,11.1 34.3,5.5 48.9,2.7 C62.2,0.1 69.4,0.7 69.4,0.7 L69.4,1.6 Z" id="Path" fill="#E6E6E6"></path>
                <path d="M121.4,1.6 C121.4,1.6 144.6,3.7 162.4,11.1 C162.4,11.1 156.5,5.5 141.9,2.7 C128.6,0.1 121.4,0.7 121.4,0.7 L121.4,1.6 Z" id="Path" fill="#E5E5E5"></path>
                <path d="M42.4,171.3 C39.9,173.6 38.5,175 38.5,175 L45,137.8 L48.2,138.1 L42.4,171.3 Z" id="Path" fill="#B61323"></path>
            </g>
        </g>
    </g>
</svg>