<?xml version="1.0" encoding="UTF-8"?>
<svg width="192px" height="196px" viewBox="0 0 192 196" version="1.1" xmlns="http://www.w3.org/2000/svg" xmlns:xlink="http://www.w3.org/1999/xlink">
    <title>CED8EFE9-B6BB-4901-845A-430B2E82D720</title>
    <g id="*Championship-2020-2021" stroke="none" stroke-width="1" fill="none" fill-rule="evenodd">
        <g id="Championship-2019-20" transform="translate(-826.000000, -1173.000000)">
            <g id="Swansea" transform="translate(826.000000, 1173.000000)">
                <path d="M96,141 L146,137 L154,181 C154.8,184.9 154.4,187.3 150,188 L109,195 C104.6,195.7 102.8,193.9 102,190 L96,166 L96,141 Z" id="shorts" fill="#000000" fill-rule="nonzero"></path>
                <path d="M96,141 L46,137 L38.3,180.9 C37.5,184.7 37.9,187.2 42.3,187.9 L83.1,194.9 C87.4,195.6 89.3,193.8 90.1,189.9 L96.1,166 L96,141 Z" id="Path" fill="#282828"></path>
                <path d="M96,0 L121,0 C125.3,0.1 147.4,1.3 162,10.1 C147.2,21.8 146,59 146,59 L146,137 L96,141 L96,0 Z" id="Path-2" fill="#D9D9D9"></path>
                <path d="M96.3,0.3 L71.3,0.3 C67,0.4 44.9,1.6 30.3,10.4 C45.1,22.1 46.3,59.3 46.3,59.3 L46.3,137.3 L96.3,141.3 L96.3,0.3 Z" id="Path-3" fill="#ECECEC"></path>
                <path d="M96.3,3.51281504e-16 L71.5,3.51281504e-16 C71.5,3.51281504e-16 41.8,-0.5 28.6,11 C15.4,22.5 4.1,45 1.6,50 C-0.9,55 4.2,59 13.2,64 C22.8,69.4 31.6,74 35.2,68 C38.8,62 45.6,52 45.6,52 C45.6,52 49.4,20 62,8.6 C71.6,3.51281504e-16 96.2,3.5 96.2,3.5 L96.3,3.51281504e-16 Z" id="Path-4" fill="#E8E8E8"></path>
                <path d="M96,3.51281504e-16 L120.7,3.51281504e-16 C120.7,3.51281504e-16 150.4,-0.5 163.6,11 C176.8,22.5 188.2,45 190.6,50 C193,55 188,59 179,64 C169.4,69.4 160.6,74 157,68 C153.4,62 146.6,52 146.6,52 C146.6,52 142.8,20 130.2,8.6 C120.7,3.51281504e-16 96,3.5 96,3.5 L96,3.51281504e-16 Z" id="Path-5" fill="#E8E8E8"></path>
                <path d="M122.3,0 L70.3,0 L70.3,0.9 C70.3,5 96.3,21 96.3,21 C96.3,21 122.3,5 122.3,0.9 L122.3,0 Z" id="colar" fill="#F2F0F0"></path>
                <path d="M116.3,0 L76.3,0 L76.3,0.8 C76.3,3.7 96.3,15 96.3,15 C96.3,15 116.3,3.7 116.3,0.8 L116.3,0 Z" id="Path-6" fill="#4C4C4C"></path>
                <path d="M2.4,47.8 C1.8,48.7 1.3,49.9 1.1,50.9 C0.8,51.9 1,53 1.4,54 C2.6,56.9 6.5,60 14,64.4 C19.6,67.4 22.4,68.9 26.2,70.1 C29,71 32.4,71.7 35.2,67.9 C35.4,67.9 25.6,62.8 17.7,58.2 C12.4,55 7.2,51.6 2.4,47.8 Z" id="Path" fill="#282828"></path>
                <path d="M189.6,48 C190.5,49.5 190.7,50.1 191,51 C191.4,52.3 191.1,53.6 190.7,54.6 C189.1,57.7 185.7,60.2 178.2,64.6 C172.6,67.6 169.8,69.1 166,70.3 C163.2,71.2 159,71.3 157.1,68 C156.9,68 166.6,63 174.5,58.4 C179.8,55.3 184.8,51.8 189.6,48 Z" id="Path" fill="#282828"></path>
                <path d="M76.3,0 L70.3,0 L70.3,0.9 C70.3,0.9 69.9,2.9 78,8.7 L76.4,1.4 C76.4,1.2 76.3,1 76.3,0.9 L76.3,0 Z" id="Path" fill="#000000" fill-rule="nonzero"></path>
                <path d="M116.3,0 L122.3,0 L122.3,0.9 C122.3,0.9 122.7,2.9 114.6,8.7 L116.2,1.4 C116.2,1.2 116.3,1 116.3,0.9 L116.3,0 Z" id="Path" fill="#000000" fill-rule="nonzero"></path>
                <path d="M64,30.7 L68.4,30.3 L68,31.3 L67.8,31.9 C67.8,31.9 67.8,32.8 69.5,31.5 C71.1,30.2 72.7,28.5 72.7,28.5 C72.7,28.5 73.2,28 71.8,28 C70.4,28 70.5,27.7 70.5,27.7 L72,26.3 C72,26.3 78.4,25.2 78.5,25.3 C78.6,25.4 81.4,26.6 81.4,26.6 C81.4,26.6 77,26.6 75.8,28 C74.6,29.4 70.6,32.9 70.6,32.9 C70.6,32.9 68.7,34.6 66,33.2 C63.3,31.8 63.8,31.3 63.8,31.3 C63.8,31.3 63.8,31 64,30.7 Z" id="Path" fill="#000000" fill-rule="nonzero"></path>
            </g>
        </g>
    </g>
</svg>