<?xml version="1.0" encoding="UTF-8"?>
<svg width="191px" height="195px" viewBox="0 0 191 195" version="1.1" xmlns="http://www.w3.org/2000/svg" xmlns:xlink="http://www.w3.org/1999/xlink">
    <!-- Generator: sketchtool 62 (101010) - https://sketch.com -->
    <title>952CA103-02DC-46EF-B8D7-44C776A5C41D</title>
    <desc>Created with sketchtool.</desc>
    <g id="--Premier-League-2020-21" stroke="none" stroke-width="1" fill="none" fill-rule="evenodd">
        <g id="Premier-League-2020-21" transform="translate(-2312.000000, -619.000000)">
            <g id="Tottenham-Hotspurs" transform="translate(2312.000000, 619.000000)">
                <g id="Asset-1">
                    <path d="M95.2,140.479592 L145.2,136.5 L153.2,180.27551 C154,184.155612 153.6,186.543367 149.2,187.239796 L108.2,194.204082 C103.8,194.90051 102,193.109694 101.2,189.229592 L95.2,165.352041 L95.2,140.479592 L95.2,140.479592 Z" id="shorts" fill="#192948"></path>
                    <path d="M95.2,140.479592 L45.2,136.5 L37.5,180.17602 C36.7,183.956633 37.1,186.443878 41.5,187.140306 L82.3,194.104592 C86.6,194.80102 88.5,193.010204 89.3,189.130102 L95.3,165.352041 L95.2,140.479592 Z" id="Path" fill="#192948"></path>
                    <path d="M95.2,0.198979592 L120.2,0.198979592 C124.5,0.298469388 146.6,1.49234694 161.2,10.247449 C146.4,21.8877551 145.2,58.8979592 145.2,58.8979592 L145.2,136.5 L95.2,140.479592 L95.2,0.198979592 Z" id="Path-2" fill="#E5E4E4"></path>
                    <path d="M95.2,0.198979592 L70.2,0.198979592 C65.9,0.298469388 43.8,1.49234694 29.2,10.247449 C44,21.8877551 45.2,58.8979592 45.2,58.8979592 L45.2,136.5 L95.2,140.479592 L95.2,0.198979592 Z" id="Path-3" fill="#EBE8E8"></path>
                    <path d="M95.4,0.198979592 L70.7,0.198979592 C70.7,0.198979592 41,-0.298469388 27.8,11.1428571 C14.6,22.5841837 3.3,44.9693878 0.8,49.9438776 C-1.7,54.9183673 3.4,58.8979592 12.4,63.872449 C22,69.244898 30.8,73.8214286 34.4,67.8520408 C38,61.8826531 44.8,51.9336735 44.8,51.9336735 C44.8,51.9336735 48.6,20.0969388 61.2,8.75510204 C70.7,0.198979592 95.3,3.68112245 95.3,3.68112245 L95.4,0.198979592 Z" id="Path-4" fill="#EFEFEF"></path>
                    <path d="M95.2,0.198979592 L119.9,0.198979592 C119.9,0.198979592 149.6,-0.298469388 162.8,11.1428571 C176,22.5841837 187.4,44.9693878 189.8,49.9438776 C192.2,54.9183673 187.2,58.8979592 178.2,63.872449 C168.6,69.244898 159.8,73.8214286 156.2,67.8520408 C152.6,61.8826531 145.8,51.9336735 145.8,51.9336735 C145.8,51.9336735 142,20.0969388 129.4,8.75510204 C119.9,0.198979592 95.2,3.68112245 95.2,3.68112245 L95.2,0.198979592 Z" id="Path-5" fill="#D3D3D3"></path>
                    <path d="M121.2,0.198979592 L69.2,0.198979592 L69.2,1.09438776 C69.2,5.17346939 95.2,21.0918367 95.2,21.0918367 C95.2,21.0918367 121.2,5.17346939 121.2,1.09438776 L121.2,0.198979592 Z" id="colar" fill="#213667"></path>
                    <path d="M115.2,0.198979592 L75.2,0.198979592 L75.2,0.994897959 C75.2,3.88010204 95.2,15.122449 95.2,15.122449 C95.2,15.122449 115.2,3.88010204 115.2,0.994897959 L115.2,0.198979592 Z" id="Path-6" fill="#D1D0D1"></path>
                </g>
                <path d="M44.8,51.9336735 L13.7,27.6581633 C13.7,27.6581633 16.7,20.9923469 27.8,11.1428571 C27.8,11.1428571 30,11.9387755 32.8,13.4311224 C37.6,16.0178571 41.4,19.997449 43.7,24.872449 L48.6,35.119898 L44.8,51.9336735 Z" id="Path" fill="#192948" fill-rule="nonzero"></path>
                <path d="M145.9,52.4311224 L177,28.1556122 C177,28.1556122 174,21.4897959 162.9,11.6403061 C162.9,11.6403061 160.7,12.4362245 157.9,13.9285714 C153.1,16.5153061 149.3,20.494898 147,25.369898 L142.1,35.6173469 L145.9,52.4311224 Z" id="Path" fill="#192948" fill-rule="nonzero"></path>
                <path d="M45.2,58.8979592 C45.2,58.8979592 53.8,79.4923469 54.6,91.3316327 C55.4,103.071429 55.4,103.071429 55.4,103.071429 C55.4,103.071429 52.2,98.3954082 50.3,97.2015306 L45.4,74.7168367 L45.2,58.8979592 Z" id="Path" fill="#192948" fill-rule="nonzero"></path>
                <polygon id="Path" fill="#192948" fill-rule="nonzero" points="50.2 97.2015306 61.1 138.191327 54.2 137.494898 45.1 97.997449"></polygon>
                <path d="M145.2,58.7984694 C145.2,58.7984694 136.6,79.3928571 135.8,91.2321429 C135,102.971939 135,102.971939 135,102.971939 C135,102.971939 138.2,98.2959184 140.1,97.1020408 L145,74.6173469 L145.2,58.7984694 Z" id="Path" fill="#192948" fill-rule="nonzero"></path>
                <polygon id="Path" fill="#192948" fill-rule="nonzero" points="140.2 97.1020408 129.3 138.091837 136.2 137.395408 145.3 97.997449"></polygon>
            </g>
        </g>
    </g>
</svg>