<?xml version="1.0" encoding="UTF-8"?>
<svg width="191px" height="195px" viewBox="0 0 191 195" version="1.1" xmlns="http://www.w3.org/2000/svg" xmlns:xlink="http://www.w3.org/1999/xlink">
    <title>7CE684C4-8727-439C-9B0E-A1A814A5D6A7</title>
    <g id="*Championship-2020-2021" stroke="none" stroke-width="1" fill="none" fill-rule="evenodd">
        <g id="Championship-2019-20" transform="translate(-1127.000000, -1173.000000)">
            <g id="Watford" transform="translate(1127.000000, 1173.000000)">
                <path d="M95.2,141 L145.2,137 L153.2,180.8 C154,184.7 153.6,187.1 149.2,187.8 L108.2,194.8 C103.8,195.5 102,193.7 101.2,189.8 L95.2,165.9 L95.2,141 L95.2,141 Z" id="shorts" fill="#191818"></path>
                <path d="M95.2,141 L45.2,137 L37.5,180.7 C36.7,184.5 37.1,187 41.5,187.7 L82.3,194.7 C86.6,195.4 88.5,193.6 89.3,189.7 L95.3,165.9 L95.2,141 Z" id="Path" fill="#191818"></path>
                <path d="M95.2,0.7 L120.2,0.7 C124.5,0.8 146.6,2 161.2,10.8 C146.4,22.4 145.2,59.5 145.2,59.5 L145.2,137.1 L95.2,141.1 L95.2,0.7 Z" id="Path-2" fill="#EFE80C"></path>
                <path d="M95.2,0.7 L70.2,0.7 C65.9,0.8 43.8,2 29.2,10.8 C44,22.4 45.2,59.5 45.2,59.5 L45.2,137.1 L95.2,141.1 L95.2,0.7 Z" id="Path-3" fill="#EFE80C"></path>
                <path d="M95.4,0.7 L70.7,0.7 C70.7,0.7 41,0.2 27.8,11.6 C14.6,23 3.3,45.5 0.8,50.5 C-1.7,55.5 3.4,59.5 12.4,64.4 C22,69.8 30.8,74.4 34.4,68.4 C38,62.4 44.8,52.5 44.8,52.5 C44.8,52.5 48.6,20.6 61.2,9.3 C70.7,0.7 95.3,4.2 95.3,4.2 L95.4,0.7 Z" id="Path-4" fill="#1C1C1C"></path>
                <path d="M95.2,0.7 L119.9,0.7 C119.9,0.7 149.6,0.2 162.8,11.6 C176,23 187.4,45.4 189.8,50.4 C192.2,55.4 187.2,59.4 178.2,64.3 C168.6,69.7 159.8,74.3 156.2,68.3 C152.6,62.3 145.8,52.4 145.8,52.4 C145.8,52.4 142,20.6 129.4,9.3 C119.9,0.7 95.2,4.2 95.2,4.2 L95.2,0.7 Z" id="Path-5" fill="#010202"></path>
                <path d="M121.2,0.7 L69.2,0.7 L69.2,1.6 C69.2,3.1 72.7,6.2 77.1,9.5 C87.8,17.6 102.6,17.6 113.3,9.5 C117.7,6.2 121.2,3.1 121.2,1.6 C121.2,1.6 121.2,0.7 121.2,0.7 Z" id="colar" fill="#010202"></path>
                <path d="M115.2,0.7 L75.2,0.7 L75.2,1.5 C75.2,2.1 76,3 77.3,4.1 C87.6,12.9 102.9,12.9 113.1,4.1 C114.4,3 115.2,2.1 115.2,1.5 C115.2,1.5 115.2,0.7 115.2,0.7 Z" id="Path-6" fill="#B2AA14"></path>
                <path d="M124.3,31.7 L112.5,8.4 C112.5,8.4 114.9,6.2 116.6,4.3 L124.3,31.7 Z" id="Path_1_" fill="#010202"></path>
                <polyline id="Path_2_" fill="#010202" points="102.9 13.8 120.3 33.8 97.3 15.6"></polyline>
                <polyline id="Path_3_" fill="#1C1C1C" points="64.9 5.7 116.8 36.4 57.1 12.7"></polyline>
                <polygon id="Path_4_" fill="#1C1C1C" points="48.5 31.2 116.1 39.6 53.6 19.4"></polygon>
                <polygon id="Path_5_" fill="#111110" points="62 139.1 120.7 51.7 45.2 137.1"></polygon>
                <polygon id="Path_6_" fill="#111110" points="101.6 141.4 126.5 51.7 87 140.9"></polygon>
                <polyline id="Path_7_" fill="#111110" points="132.8 138.6 145.2 137.1 129.9 52.4"></polyline>
                <polygon id="Path_8_" fill="#111110" points="45.3 102 117.5 48.7 45.2 87.1"></polygon>
                <polygon id="Path_9_" fill="#111110" points="45.3 63.6 116.1 44.7 44.7 52.6"></polygon>
                <polyline id="Path_10_" fill="#111110" points="145.2 70.7 145.2 59.4 133.2 50"></polyline>
                <polyline id="Path_11_" fill="#010202" points="144.5 28.4 142.7 23 134.2 35.1"></polyline>
                <polyline id="Path_12_" fill="#010202" points="144.5 42.7 143.5 38.8 137.1 41.3"></polyline>
                <polygon id="Path_13_" fill="#111110" points="126.7 139.3 128 51.7 108.9 140.1"></polygon>
                <polygon id="Path_14_" fill="#111110" points="45.2 128.7 118.4 50.1 45.2 109.9"></polygon>
                <polygon id="Path_15_" fill="#111110" points="79.4 140.2 123.8 52.4 67 138.8"></polygon>
                <polygon id="Path_16_" fill="#1C1C1C" points="44.3 49.2 115 42.5 48.2 34.7"></polygon>
                <polygon id="Path_17_" fill="#111110" points="45.3 79.4 116.8 47.6 45.2 69.5"></polygon>
                <path d="M75.2,0.7 L75.2,1.5 C75.2,1.5 75.1,2.2 76.5,3.4 C77.9,4.6 78.7,5.2 78.7,5.2 L81.2,6.8 L83.6,8.1 L86.4,9.2 L88.5,9.8 C88.5,9.8 91.5,10.6 94.2,10.7 C96.9,10.8 99.4,10.4 99.4,10.4 C99.4,10.4 102.5,10.1 105.8,8.7 C109,7.3 109.9,6.6 109.9,6.6 L110.9,5.9 L112,5.1 L113,4.3 L114.2,3.2 L114.6,2.8 L115,2.3 L115.1,2.1 C115.1,2.1 115.3,1.8 115.3,1.5 C115.3,1.2 115.3,0.7 115.3,0.7" id="Path" stroke="#EFE80C" stroke-width="0.75"></path>
                <path d="M0.2,51.9 C0.2,51.9 13.4,63.7 33.2,69.9" id="Path" stroke="#EFE80C" stroke-width="0.75"></path>
                <path d="M190.4,51.7 C190.4,51.7 177.2,63.5 157.4,69.7" id="Path" stroke="#EFE80C" stroke-width="0.75"></path>
                <polyline id="Path_18_" fill="#010202" points="145.7 53.2 145.8 52.4 145.2 46.9 136.1 47"></polyline>
                <path d="M129.2,32.3 L131.4,6 C131.4,6 134.6,5.5 137.1,4.8 L129.2,32.3 Z" id="Path_19_" fill="#010202"></path>
            </g>
        </g>
    </g>
</svg>