<?xml version="1.0" encoding="UTF-8"?>
<svg width="192px" height="196px" viewBox="0 0 192 196" version="1.1" xmlns="http://www.w3.org/2000/svg" xmlns:xlink="http://www.w3.org/1999/xlink">
    <!-- Generator: sketchtool 62 (101010) - https://sketch.com -->
    <title>882C0E79-0441-4AF2-9DC6-E41B6FB365AB</title>
    <desc>Created with sketchtool.</desc>
    <g id="--Premier-League-2020-21" stroke="none" stroke-width="1" fill="none" fill-rule="evenodd">
        <g id="Premier-League-2020-21" transform="translate(-2904.000000, -618.000000)">
            <g id="West-Ham" transform="translate(2904.000000, 618.000000)">
                <g id="Asset-1">
                    <path d="M95.7,141.2 L145.7,137.2 L153.7,181.2 C154.5,185.1 154.1,187.5 149.7,188.2 L108.7,195.2 C104.3,195.9 102.5,194.1 101.7,190.2 L95.7,166.2 L95.7,141.2 L95.7,141.2 Z" id="shorts" fill="#EDEDED"></path>
                    <path d="M95.7,141.2 L45.7,137.2 L38,181.1 C37.2,184.9 37.6,187.4 42,188.1 L82.8,195.1 C87.1,195.8 89,194 89.8,190.1 L95.8,166.2 L95.7,141.2 Z" id="Path" fill="#EDEDED"></path>
                    <path d="M95.7,0.2 L120.7,0.2 C125,0.3 147.1,1.5 161.7,10.3 C146.9,22 145.7,59.2 145.7,59.2 L145.7,137.2 L95.7,141.2 L95.7,0.2 Z" id="Path-2" fill="#67140F"></path>
                    <path d="M95.7,0.2 L70.7,0.2 C66.4,0.3 44.3,1.5 29.7,10.3 C44.5,22 45.7,59.2 45.7,59.2 L45.7,137.2 L95.7,141.2 L95.7,0.2 Z" id="Path-3" fill="#76160F"></path>
                    <path d="M96,0.2 L71.2,0.2 C71.2,0.2 41.5,-0.3 28.3,11.2 C15.1,22.7 3.8,45.2 1.3,50.2 C-1.2,55.2 3.9,59.2 12.9,64.2 C22.5,69.6 31.3,74.2 34.9,68.2 C38.5,62.2 45.3,52.2 45.3,52.2 C45.3,52.2 49.1,20.2 61.7,8.8 C71.2,0.2 95.8,3.7 95.8,3.7 L96,0.2 Z" id="Path-4" fill="#BDE2E6"></path>
                    <path d="M95.7,0.2 L120.4,0.2 C120.4,0.2 150.1,-0.3 163.3,11.2 C176.5,22.7 187.9,45.2 190.3,50.2 C192.7,55.2 187.7,59.2 178.7,64.2 C169.1,69.6 160.3,74.2 156.7,68.2 C153.1,62.2 146.3,52.2 146.3,52.2 C146.3,52.2 142.5,20.2 129.9,8.8 C120.4,0.2 95.7,3.7 95.7,3.7 L95.7,0.2 Z" id="Path-5" fill="#A0D2D4"></path>
                    <path d="M121.7,0.2 L69.7,0.2 L69.7,1.1 C69.7,3 75.2,7.4 81.2,11.6 C89.9,17.8 101.5,17.8 110.2,11.6 C116.2,7.4 121.7,3 121.7,1.1 L121.7,0.2 Z" id="colar" fill="#A0D2D4"></path>
                    <path d="M115.7,0.2 L75.7,0.2 L75.7,1 C75.7,2.2 79,4.7 82.9,7.4 C90.7,12.6 100.8,12.6 108.5,7.4 C112.4,4.8 115.7,2.2 115.7,1 C115.7,1 115.7,0.2 115.7,0.2 Z" id="Path-6" fill="#67140F"></path>
                </g>
                <path d="M1.6,49.6 C1.6,49.6 -0.2,51.6 1.1,55.1 L1.1,55.1 C2,56.6 3.2,57.8 4.6,58.8 C4.6,58.8 14.6,65.7 22.2,68.8 C27.8,71.2 31.7,71.8 34.4,68.9" id="Path" fill="#76160F"></path>
                <path d="M157.3,69 C160,71.9 163.9,71.3 169.5,68.9 C177.1,65.8 187.1,58.9 187.1,58.9 C188.5,57.9 189.7,56.7 190.6,55.2 L190.6,55.2 C191.9,51.7 190.1,49.7 190.1,49.7" id="Path" fill="#76160F"></path>
                <path d="M38,181.1 C38,181.1 36.5,186.6 40.1,187.7 L42.9,188.3 L43.7,182.5 L38,181.1 Z" id="Path" fill="#76160F"></path>
                <polygon id="Path" fill="#8DCFD7" points="38 181.1 43.7 182.5 43.8 181.8 38.2 180.3"></polygon>
                <path d="M153.8,181 C153.8,181 155.3,186.5 151.7,187.6 L148.9,188.2 L148.1,182.4 L153.8,181 Z" id="Path" fill="#76160F"></path>
                <polygon id="Path" fill="#8DCFD7" points="153.8 181 148.1 182.4 147.9 181.7 153.6 180.2"></polygon>
                <path d="M112.8,39.8 C112.8,41 112.8,44.3 112.8,45.7 C112.8,52.5 121.2,58.4 121.2,58.4 C121.2,58.4 129.6,52.9 129.6,46.2 C129.6,44.6 129.6,41.3 129.4,39.9 L112.8,39.8 Z" id="Path" stroke="#92CACC" stroke-width="2.1877" fill="#67140F"></path>
            </g>
        </g>
    </g>
</svg>