<?xml version="1.0" encoding="UTF-8"?>
<svg width="191px" height="196px" viewBox="0 0 191 196" version="1.1" xmlns="http://www.w3.org/2000/svg" xmlns:xlink="http://www.w3.org/1999/xlink">
    <!-- Generator: sketchtool 62 (101010) - https://sketch.com -->
    <title>EF1D288A-E0CF-4D12-B9DF-FD08F1BF21FE</title>
    <desc>Created with sketchtool.</desc>
    <g id="--Premier-League-2020-21" stroke="none" stroke-width="1" fill="none" fill-rule="evenodd">
        <g id="Premier-League-2020-21" transform="translate(-520.000000, -976.000000)">
            <g id="West-Bromwich" transform="translate(520.000000, 976.000000)">
                <g id="Asset-1">
                    <path d="M95.7,141.2 L145.7,137.2 L153.7,181.2 C154.5,185.1 154.1,187.5 149.7,188.2 L108.7,195.2 C104.3,195.9 102.5,194.1 101.7,190.2 L95.7,166.2 L95.7,141.2 Z" id="shorts" fill="#F8F7F7"></path>
                    <path d="M95.7,141.2 L45.7,137.2 L38,181.1 C37.2,184.9 37.6,187.4 42,188.1 L82.8,195.1 C87.1,195.8 89,194 89.8,190.1 L95.8,166.2 L95.7,141.2 Z" id="Path" fill="#F8F7F7"></path>
                    <path d="M95.7,0.2 L120.7,0.2 C125,0.3 147.1,1.5 161.7,10.3 C146.9,22 145.7,59.2 145.7,59.2 L145.7,137.2 L95.7,141.2 L95.7,0.2 Z" id="Path-2" fill="#1B2443"></path>
                    <path d="M95.7,0.2 L70.7,0.2 C66.4,0.3 44.3,1.5 29.7,10.3 C44.5,22 45.7,59.2 45.7,59.2 L45.7,137.2 L95.7,141.2 L95.7,0.2 Z" id="Path-3" fill="#263269"></path>
                    <path d="M96,0.2 L71.2,0.2 C71.2,0.2 41.5,-0.3 28.3,11.2 C15.1,22.7 3.8,45.2 1.3,50.2 C-1.2,55.2 3.9,59.2 12.9,64.2 C22.5,69.6 31.3,74.2 34.9,68.2 C38.5,62.2 45.3,52.2 45.3,52.2 C45.3,52.2 49.1,20.2 61.7,8.8 C71.2,0.2 95.8,3.7 95.8,3.7 L96,0.2 Z" id="Path-4" fill="#2E3F7C"></path>
                    <path d="M95.7,0.2 L120.4,0.2 C120.4,0.2 150.1,-0.3 163.3,11.2 C176.5,22.7 187.9,45.2 190.3,50.2 C192.7,55.2 187.7,59.2 178.7,64.2 C169.1,69.6 160.3,74.2 156.7,68.2 C153.1,62.2 146.3,52.2 146.3,52.2 C146.3,52.2 142.5,20.2 129.9,8.8 C120.4,0.2 95.7,3.7 95.7,3.7 L95.7,0.2 Z" id="Path-5" fill="#151D33"></path>
                    <path d="M121.7,0.2 L69.7,0.2 L69.7,1.1 C69.7,4.2 84.2,13.9 91.5,18.6 C94,20.2 97.3,20.2 99.8,18.6 C107.1,13.9 121.6,4.2 121.6,1.1 L121.6,0.2 L121.7,0.2 Z" id="colar" fill="#263269"></path>
                    <path d="M115.7,0.2 L75.7,0.2 L75.7,1 C75.7,3.2 87.4,10.3 92.9,13.6 C94.6,14.6 96.8,14.6 98.5,13.6 C104,10.3 115.7,3.2 115.7,1 L115.7,0.2 Z" id="Path-6" fill="#1B2443"></path>
                </g>
                <path d="M100.3,140.8 L95.7,141.2 L91.5,140.8 L91.6,12.8 L93.6,13.8 C94.8,14.4 96.1,14.4 97.4,13.9 L100,12.8 L100.3,140.8 Z" id="Path" fill="#FFFFFF"></path>
                <polygon id="Path" fill="#FFFFFF" points="89.3 140.6 83.6 140.2 83.6 7.9 89.3 11.4"></polygon>
                <polygon id="Path" fill="#FFFFFF" points="81.1 140 75.5 139.5 76.1 2.1 81.1 6"></polygon>
                <polygon id="Path" fill="#FFFFFF" points="71.1 139.2 65.6 138.8 65.4 6.1 71.1 4.4"></polygon>
                <polygon id="Path" fill="#FFFFFF" points="106.2 140.3 102.5 140.7 102.5 11.1 105.8 9.1"></polygon>
                <polygon id="Path" fill="#FFFFFF" points="115.2 139.6 111.6 139.9 111.6 5.2 114.8 2.6"></polygon>
                <polygon id="Path" fill="#FFFFFF" points="138.9 137.8 135.1 138 135.1 15.3 138.8 22.7"></polygon>
                <path d="M69.7,0.2 L75.7,0.2 C75.7,0.2 75.4,1.4 76.4,2.4 L72.5,5.1 C72.5,5.1 68.8,1.9 69.7,0.2 Z" id="Path" fill="#FFFFFF"></path>
                <path d="M121.7,0.1 L115.7,0.1 C115.7,0.1 116,1.3 115,2.3 L118.9,5 C118.8,5 122.6,1.9 121.7,0.1 Z" id="Path" fill="#FFFFFF"></path>
                <path d="M49.7,137.4 L45.8,136.8 C45.8,136.8 40.5,164.5 40.5,171.1" id="Path" fill="#263269"></path>
                <path d="M52.7,137.7 L47.1,137.3 L47.1,41.9 L49.1,33.8 C49.2,33.3 49.4,32.9 49.5,32.4 L52.6,23.2 L52.7,137.7 Z" id="Path" fill="#FFFFFF"></path>
                <path d="M141.7,137.5 L145.7,137.2 C145.7,137.2 150.9,164.8 150.9,171.4" id="Path" fill="#263269"></path>
                <path d="M146.9,27.3 L173.3,67 C173.3,67 169.9,68.9 166.9,70 L140.6,28 C140.7,28 144.1,27.2 146.9,27.3 Z" id="Path" fill="#FFFFFF"></path>
                <path d="M151.9,4.9 L187.4,58.4 C187.4,58.4 184.9,60.7 181.6,62.4 L143.1,2.4 C143.2,2.5 148.5,3.6 151.9,4.9 Z" id="Path" fill="#FFFFFF"></path>
                <path d="M44.2,26.9 L17.6,66.8 C17.6,66.8 21.1,68.7 24,69.8 L50.4,27.6 C50.4,27.5 47.1,26.7 44.2,26.9 Z" id="Path" fill="#FFFFFF"></path>
                <path d="M38.6,5.3 L3.7,58 C3.7,58 6,60.4 9.3,62.2 L47.6,2.7 C47.6,2.7 42.1,3.8 38.6,5.3 Z" id="Path" fill="#FFFFFF"></path>
            </g>
        </g>
    </g>
</svg>