<?xml version="1.0" encoding="UTF-8"?>
<svg width="191px" height="195px" viewBox="0 0 191 195" version="1.1" xmlns="http://www.w3.org/2000/svg" xmlns:xlink="http://www.w3.org/1999/xlink">
    <!-- Generator: sketchtool 62 (101010) - https://sketch.com -->
    <title>6E0C9CCF-D1AF-44CC-A127-9DB2A381336F</title>
    <desc>Created with sketchtool.</desc>
    <g id="--Premier-League-2020-21" stroke="none" stroke-width="1" fill="none" fill-rule="evenodd">
        <g id="Premier-League-2020-21" transform="translate(-216.000000, -987.000000)">
            <g id="Wolves" transform="translate(216.000000, 987.000000)">
                <g id="Asset-1">
                    <path d="M95.2,140.479592 L145.2,136.5 L153.2,180.27551 C154,184.155612 153.6,186.543367 149.2,187.239796 L108.2,194.204082 C103.8,194.90051 102,193.109694 101.2,189.229592 L95.2,165.352041 L95.2,140.479592 L95.2,140.479592 Z" id="shorts" fill="#191818"></path>
                    <path d="M95.2,140.479592 L45.2,136.5 L37.5,180.17602 C36.7,183.956633 37.1,186.443878 41.5,187.140306 L82.3,194.104592 C86.6,194.80102 88.5,193.010204 89.3,189.130102 L95.3,165.352041 L95.2,140.479592 Z" id="Path" fill="#191818"></path>
                    <path d="M95.2,0.198979592 L120.2,0.198979592 C124.5,0.298469388 146.6,1.49234694 161.2,10.247449 C146.4,21.8877551 145.2,58.8979592 145.2,58.8979592 L145.2,136.5 L95.2,140.479592 L95.2,0.198979592 Z" id="Path-2" fill="#BF9019"></path>
                    <path d="M95.2,0.198979592 L70.2,0.198979592 C65.9,0.298469388 43.8,1.49234694 29.2,10.247449 C44,21.8877551 45.2,58.8979592 45.2,58.8979592 L45.2,136.5 L95.2,140.479592 L95.2,0.198979592 Z" id="Path-3" fill="#CE9F1B"></path>
                    <path d="M95.4,0.198979592 L70.7,0.198979592 C70.7,0.198979592 41,-0.298469388 27.8,11.1428571 C14.6,22.5841837 3.3,44.9693878 0.8,49.9438776 C-1.7,54.9183673 3.4,58.8979592 12.4,63.872449 C22,69.244898 30.8,73.8214286 34.4,67.8520408 C38,61.8826531 44.8,51.9336735 44.8,51.9336735 C44.8,51.9336735 48.6,20.0969388 61.2,8.75510204 C70.7,0.198979592 95.3,3.68112245 95.3,3.68112245 L95.4,0.198979592 Z" id="Path-4" fill="#1C1C1C"></path>
                    <path d="M95.2,0.198979592 L119.9,0.198979592 C119.9,0.198979592 149.6,-0.298469388 162.8,11.1428571 C176,22.5841837 187.4,44.9693878 189.8,49.9438776 C192.2,54.9183673 187.2,58.8979592 178.2,63.872449 C168.6,69.244898 159.8,73.8214286 156.2,67.8520408 C152.6,61.8826531 145.8,51.9336735 145.8,51.9336735 C145.8,51.9336735 142,20.0969388 129.4,8.75510204 C119.9,0.198979592 95.2,3.68112245 95.2,3.68112245 L95.2,0.198979592 Z" id="Path-5" fill="#010202"></path>
                </g>
                <path d="M4.3,43.2780612 C4.3,43.2780612 -1,50.4413265 0.3,53.9234694 L0.3,55.2168367 C1.2,56.7091837 2.4,57.9030612 3.8,58.8979592 C3.8,58.8979592 13.8,65.7627551 21.4,68.8469388 C34.9,75.1147959 35.5,65.0663265 38.2,62.1811224" id="Path" fill="#CE9F1B"></path>
                <path d="M152.4,62.1811224 C155.1,65.0663265 155.6,75.1147959 169.2,68.8469388 C176.8,65.7627551 186.8,58.8979592 186.8,58.8979592 C188.2,57.9030612 189.4,56.7091837 190.3,55.2168367 L190.3,53.9234694 C191.6,50.4413265 186.3,43.2780612 186.3,43.2780612" id="Path" fill="#CE9F1B"></path>
                <polygon id="Path" stroke="#FFFFFF" stroke-width="0.5" fill="#CE9F1B" points="58.8 163.362245 63 170.625 58.8 177.887755 50.4 177.887755 46.2 170.625 50.4 163.362245"></polygon>
                <g id="Group" transform="translate(48.000000, 164.158163)">
                    <polygon id="Path" fill="#010202" points="4.1 0.397959184 5.3 3.18367347 7.5 3.48214286 8.9 0.696428571 12.2 7.2627551 8.8 9.25255102 7.4 12.5357143 5.3 12.3367347 4.6 9.25255102 0.9 6.16836735"></polygon>
                    <polygon id="Path" fill="#FFFFFF" points="4 4.9744898 6 7.3622449 4 7.3622449"></polygon>
                    <polygon id="Path" fill="#FFFFFF" points="9.3 4.875 7.3 7.2627551 9.3 7.2627551"></polygon>
                </g>
                <path d="M145.2,136.5 L153.3,180.57398 C153.3,180.57398 154.8,185.548469 150.8,186.841837 L150.8,186.841837 L141.4,136.798469 L145.2,136.5 Z" id="Path" fill="#CE9F1B"></path>
                <path d="M45.2,136.5 L37.1,180.57398 C37.1,180.57398 35.6,185.548469 39.6,186.841837 L39.6,186.841837 L48.7,136.69898 L45.2,136.5 Z" id="Path" fill="#CE9F1B"></path>
                <path d="M121.3,0.198979592 L69.3,0.198979592 L69.3,1.09438776 C69.3,5.17346939 95.3,21.0918367 95.3,21.0918367 C95.3,21.0918367 121.3,5.17346939 121.3,1.09438776 L121.3,0.198979592 Z" id="colar" fill="#BC8D17"></path>
                <path d="M115.3,0.198979592 L75.3,0.198979592 L75.3,0.994897959 C75.3,3.88010204 95.3,15.122449 95.3,15.122449 C95.3,15.122449 115.3,3.88010204 115.3,0.994897959 L115.3,0.198979592 Z" id="Path-6" fill="#000000" fill-rule="nonzero"></path>
                <path d="M70.2,0.198979592 C70.2,0.198979592 70.2,2.4872449 72.8,4.17857143 L95.3,19.5994898 L95.3,17.8086735 L73.5,2.58673469 C73.5,2.58673469 72.5,2.08928571 72.2,0.198979592 L70.2,0.198979592 Z" id="Path" fill="#000000" fill-rule="nonzero"></path>
                <path d="M119.9,0.198979592 C119.9,0.198979592 120,2.4872449 117.5,4.27806122 L95.3,19.5994898 L95.2,17.8086735 L116.5,2.68622449 C116.5,2.68622449 117.6,2.18877551 117.9,0.198979592 L119.9,0.198979592 Z" id="Path" fill="#000000" fill-rule="nonzero"></path>
            </g>
        </g>
    </g>
</svg>