<?xml version="1.0" encoding="UTF-8"?>
<svg width="191px" height="196px" viewBox="0 0 191 196" version="1.1" xmlns="http://www.w3.org/2000/svg" xmlns:xlink="http://www.w3.org/1999/xlink">
    <title>88D383F2-4A0A-4256-87A1-5981AAC52A9B</title>
    <defs>
        <path d="M95.2,0 L70.5,0 C70.5,0 40.8,-0.5 27.6,11 C14.4,22.5 3.1,45 0.6,50 C-1.8,55 3.2,59 12.2,64 C21.8,69.4 30.6,74 34.2,68 C37.8,62 44.6,52 44.6,52 C44.6,52 48.4,20 61,8.6 C70.5,0 95.2,3.5 95.2,3.5 L95.2,0 Z" id="path-1"></path>
        <path d="M95.2,0 L70.5,0 C70.5,0 40.8,-0.5 27.6,11 C14.4,22.5 3.1,45 0.6,50 C-1.8,55 3.2,59 12.2,64 C21.8,69.4 30.6,74 34.2,68 C37.8,62 44.6,52 44.6,52 C44.6,52 48.4,20 61,8.6 C70.5,0 95.2,3.5 95.2,3.5 L95.2,0 Z" id="path-3"></path>
        <path d="M95.2,0 L70.5,0 C70.5,0 40.8,-0.5 27.6,11 C14.4,22.5 3.1,45 0.6,50 C-1.8,55 3.2,59 12.2,64 C21.8,69.4 30.6,74 34.2,68 C37.8,62 44.6,52 44.6,52 C44.6,52 48.4,20 61,8.6 C70.5,0 95.2,3.5 95.2,3.5 L95.2,0 Z" id="path-5"></path>
        <path d="M95.2,0 L70.5,0 C70.5,0 40.8,-0.5 27.6,11 C14.4,22.5 3.1,45 0.6,50 C-1.8,55 3.2,59 12.2,64 C21.8,69.4 30.6,74 34.2,68 C37.8,62 44.6,52 44.6,52 C44.6,52 48.4,20 61,8.6 C70.5,0 95.2,3.5 95.2,3.5 L95.2,0 Z" id="path-7"></path>
        <path d="M0,0 L24.7,0 C24.7,0 54.4,-0.5 67.6,11 C80.8,22.5 92.2,45 94.6,50 C97,55 92,59 83,64 C73.4,69.4 64.6,74 61,68 C57.4,62 50.6,52 50.6,52 C50.6,52 46.8,20 34.2,8.6 C24.7,0 0,3.5 0,3.5 L0,0 Z" id="path-9"></path>
        <path d="M0,0 L24.7,0 C24.7,0 54.4,-0.5 67.6,11 C80.8,22.5 92.2,45 94.6,50 C97,55 92,59 83,64 C73.4,69.4 64.6,74 61,68 C57.4,62 50.6,52 50.6,52 C50.6,52 46.8,20 34.2,8.6 C24.7,0 0,3.5 0,3.5 L0,0 Z" id="path-11"></path>
        <path d="M0,0 L24.7,0 C24.7,0 54.4,-0.5 67.6,11 C80.8,22.5 92.2,45 94.6,50 C97,55 92,59 83,64 C73.4,69.4 64.6,74 61,68 C57.4,62 50.6,52 50.6,52 C50.6,52 46.8,20 34.2,8.6 C24.7,0 0,3.5 0,3.5 L0,0 Z" id="path-13"></path>
        <path d="M0,0 L24.7,0 C24.7,0 54.4,-0.5 67.6,11 C80.8,22.5 92.2,45 94.6,50 C97,55 92,59 83,64 C73.4,69.4 64.6,74 61,68 C57.4,62 50.6,52 50.6,52 C50.6,52 46.8,20 34.2,8.6 C24.7,0 0,3.5 0,3.5 L0,0 Z" id="path-15"></path>
    </defs>
    <g id="*Championship-2020-2021" stroke="none" stroke-width="1" fill="none" fill-rule="evenodd">
        <g id="Championship-2019-20" transform="translate(-1399.000000, -1178.000000)">
            <g id="Wycombe-Wanderers" transform="translate(1399.000000, 1178.000000)">
                <path d="M114,0 L76,0 L76,0.8 C76,3.7 95,15 95,15 C95,15 114,3.7 114,0.8 L114,0 Z" id="inside-neck" fill="#D31818"></path>
                <path d="M95,137 L145,137 L153,181 C153.8,184.9 153.4,187.3 149,188 L108,195 C103.6,195.7 101.8,193.9 101,190 L95,166 L95,137 Z" id="shorts" fill="#004286"></path>
                <path d="M95,137 L45,137 L37.3,180.9 C36.5,184.7 36.9,187.2 41.3,187.9 L82.1,194.9 C86.4,195.6 88.3,193.8 89.1,189.9 L95.1,166 L95,137 Z" id="shorts_1_" fill="#1157A9"></path>
                <path d="M94.8,0 C109.6,0 117.9,0 119.8,0 C124.1,0.1 146.2,1.3 160.8,10.1 C146,21.8 144.8,59 144.8,59 L144.8,137 L94.8,141 L94.8,0 Z" id="top-highlight" fill="#17589C"></path>
                <polygon id="top-highlight-copy-2" fill="#6FB7E6" points="144.8 72.9 144.8 137 94.8 141 94.8 72.9 111.4 73"></polygon>
                <path d="M95,0 C80.2,0 71.9,0 70,0 C65.7,0.1 43.6,1.3 29,10.1 C43.8,21.8 45,59 45,59 L45,137 L95,141 L95,0 Z" id="top-highlight_1_" fill="#88C4EC"></path>
                <polygon id="top-highlight-copy-3" fill="#1157A9" points="45 72.9 45 137 95 141 95 72.9 78.3 73"></polygon>
                <g id="Group">
                    <g id="Mask-link" fill="#1157A9">
                        <path d="M95.2,0 L70.5,0 C70.5,0 40.8,-0.5 27.6,11 C14.4,22.5 3.1,45 0.6,50 C-1.8,55 3.2,59 12.2,64 C21.8,69.4 30.6,74 34.2,68 C37.8,62 44.6,52 44.6,52 C44.6,52 48.4,20 61,8.6 C70.5,0 95.2,3.5 95.2,3.5 L95.2,0 Z" id="Mask"></path>
                    </g>
                    <g id="Clipped">
                        <mask id="mask-2" fill="white">
                            <use xlink:href="#path-1"></use>
                        </mask>
                        <g id="Mask"></g>
                        <line x1="-0.3" y1="50.8" x2="34.1" y2="69.9" id="Path" stroke="#6FB7E6" stroke-width="0.75" mask="url(#mask-2)"></line>
                    </g>
                    <g id="Clipped">
                        <mask id="mask-4" fill="white">
                            <use xlink:href="#path-3"></use>
                        </mask>
                        <g id="Mask"></g>
                        <line x1="0.7" y1="48.9" x2="35.4" y2="68" id="Path" stroke="#6FB7E6" stroke-width="0.5" mask="url(#mask-4)"></line>
                    </g>
                    <g id="Clipped">
                        <mask id="mask-6" fill="white">
                            <use xlink:href="#path-5"></use>
                        </mask>
                        <g id="Mask"></g>
                        <line x1="1.3" y1="47.7" x2="36.1" y2="66.9" id="Path" stroke="#6FB7E6" stroke-width="0.5" mask="url(#mask-6)"></line>
                    </g>
                    <g id="Clipped">
                        <mask id="mask-8" fill="white">
                            <use xlink:href="#path-7"></use>
                        </mask>
                        <g id="Mask"></g>
                        <line x1="2.2" y1="46.1" x2="37.1" y2="65.3" id="Path" stroke="#6FB7E6" mask="url(#mask-8)"></line>
                    </g>
                </g>
                <g id="Group" transform="translate(95.000000, 0.000000)">
                    <g id="Mask_1_-link" fill="#6FB7E6">
                        <path d="M0,0 L24.7,0 C24.7,0 54.4,-0.5 67.6,11 C80.8,22.5 92.2,45 94.6,50 C97,55 92,59 83,64 C73.4,69.4 64.6,74 61,68 C57.4,62 50.6,52 50.6,52 C50.6,52 46.8,20 34.2,8.6 C24.7,0 0,3.5 0,3.5 L0,0 Z" id="Mask_1_"></path>
                    </g>
                    <g id="Clipped">
                        <mask id="mask-10" fill="white">
                            <use xlink:href="#path-9"></use>
                        </mask>
                        <g id="Mask_1_"></g>
                        <line x1="59.7" y1="66.3" x2="93.9" y2="46.2" id="Path" stroke="#17589C" mask="url(#mask-10)"></line>
                    </g>
                    <g id="Clipped">
                        <mask id="mask-12" fill="white">
                            <use xlink:href="#path-11"></use>
                        </mask>
                        <g id="Mask_1_"></g>
                        <line x1="60.2" y1="67.7" x2="94.5" y2="47.7" id="Path" stroke="#17589C" stroke-width="0.5" mask="url(#mask-12)"></line>
                    </g>
                    <g id="Clipped">
                        <mask id="mask-14" fill="white">
                            <use xlink:href="#path-13"></use>
                        </mask>
                        <g id="Mask_1_"></g>
                        <line x1="61.1" y1="68.7" x2="95.3" y2="48.7" id="Path" stroke="#17589C" stroke-width="0.5" mask="url(#mask-14)"></line>
                    </g>
                    <g id="Clipped">
                        <mask id="mask-16" fill="white">
                            <use xlink:href="#path-15"></use>
                        </mask>
                        <g id="Mask_1_"></g>
                        <line x1="61.8" y1="70.5" x2="96" y2="50.5" id="Path" stroke="#17589C" stroke-width="0.75" mask="url(#mask-16)"></line>
                    </g>
                </g>
                <g id="Group" transform="translate(89.000000, 15.000000)">
                    <line x1="7.5" y1="0" x2="7.5" y2="58" id="Path" stroke="#6FB7E6"></line>
                    <line x1="10.9" y1="0" x2="10.9" y2="58" id="Path" stroke="#6FB7E6" stroke-width="1.5"></line>
                    <line x1="4.6" y1="0" x2="4.7" y2="58" id="Path" stroke="#17589C"></line>
                    <line x1="1.2" y1="0.2" x2="1.2" y2="58.2" id="Path" stroke="#17589C" stroke-width="1.5"></line>
                    <line x1="10.9" y1="57.9" x2="10.9" y2="125.6" id="Path" stroke="#17589C" stroke-width="1.5"></line>
                    <line x1="4.7" y1="57.9" x2="4.7" y2="125.9" id="Path" stroke="#6FB7E6"></line>
                    <line x1="1.2" y1="57.9" x2="1.3" y2="125.6" id="Path" stroke="#6FB7E6" stroke-width="1.5"></line>
                    <line x1="7.5" y1="57.9" x2="7.5" y2="125.8" id="Path" stroke="#17589C"></line>
                </g>
                <g id="Group" transform="translate(45.000000, 67.000000)">
                    <line x1="99.8" y1="4.7" x2="58.3" y2="4.4" id="Path" stroke="#6FB7E6"></line>
                    <line x1="99.8" y1="1.1" x2="58.3" y2="1.1" id="Path" stroke="#6FB7E6" stroke-width="1.5"></line>
                    <line x1="99.8" y1="7.3" x2="58.3" y2="7.3" id="Path" stroke="#17589C"></line>
                    <line x1="99.8" y1="10.7" x2="58.2" y2="10.7" id="Path" stroke="#17589C" stroke-width="1.5"></line>
                    <line x1="58.4" y1="1.1" x2="0" y2="1" id="Path" stroke="#17589C" stroke-width="1.5"></line>
                    <line x1="58.4" y1="7.3" x2="0" y2="7.3" id="Path" stroke="#6FB7E6"></line>
                    <line x1="58.4" y1="10.7" x2="0" y2="10.7" id="Path" stroke="#6FB7E6" stroke-width="1.5"></line>
                    <line x1="58.4" y1="4.4" x2="0" y2="4.4" id="Path" stroke="#17589C"></line>
                </g>
                <path d="M120.8,0.1 L68.8,0.1 L68.8,1 C68.8,2.9 74.2,7.2 80.1,11.3 C88.9,17.6 100.7,17.6 109.6,11.3 C115.5,7.1 120.9,2.8 120.9,1 L120.9,0.1 L120.8,0.1 Z" id="colar" fill="#92C9ED"></path>
                <path d="M84.6,13.9 C85.2,14.2 88.3,16 95,16 C101.3,16 103.4,14.7 105.9,13.5 C105.9,13.5 105.8,10.7 105.6,7.6 C105.4,3.9 84.6,3.4 84.5,7.6 C84.4,10.9 84.5,13.9 84.6,13.9 Z" id="colar-copy" fill="#004286"></path>
                <path d="M115,0 L75,0 L75,0.8 C75,1.8 77.2,3.6 80.2,5.7 C89.1,12 101,12 109.9,5.7 C112.9,3.6 115.1,1.7 115.1,0.7 L115.1,0 L115,0 Z" id="inside-neck_1_" fill="#D9D9D9"></path>
            </g>
        </g>
    </g>
</svg>