<svg viewBox="0 0 40 40" xmlns="http://www.w3.org/2000/svg"><path d="M23 27h17v3H23zm0 5h17v3H23zm0 5h17v3H23z"/><path d="M29.45 25a17.953 17.953 0 0 0-5.55-3.34c3.3-2.08 5.51-5.74 5.51-9.93C29.41 5.26 24.15 0 17.68 0h-.04C11.16 0 5.9 5.26 5.9 11.73c0 4.18 2.21 7.85 5.51 9.93C5.59 23.84 1.03 29.14.06 35.2 0 36.05 0 39.96 0 39.96l2.88.04s.02-4.12.17-4.8c1.48-6.7 7.47-11.73 14.61-11.74 2.35 0 4.58.56 6.56 1.53h5.23zm-11.79-4.47c-4.85-.01-8.78-3.95-8.78-8.8s3.94-8.79 8.78-8.8c4.85.01 8.78 3.95 8.78 8.8 0 4.84-3.94 8.79-8.78 8.8z" fill="#fff"/></svg>