<svg xmlns="http://www.w3.org/2000/svg" width="28" height="44" viewBox="0 0 28 44">
    <path fill="#FFF" fill-rule="evenodd" d="M1.188 42.903C.843 42.55.645 41.7.894 41.498 13.023 31.747 18.718 6.586 18.792 6.352l.401-1.3-1.015.907c-.008.007-.82.726-4.281 3.39-.564.434-1.503 1.054-2.593 1.77l-1.248.826c-.006-.003-.118.028-.359-.018-.337-.066-.63-.226-.745-.352-.38-.415-.415-1.2-.164-1.506.244-.295 2.377-2.302 4.275-3.878l.172-.146c1.871-1.555 3.806-3.164 5.775-4.692C19.617.879 20.387.518 21.13.17c.118-.054.247-.07.441-.032.369.072.673.263.75.374l.107.154c.282.402.571.814.728 1.223.251.648.885 2.327.885 2.327 1.012 2.69 2.615 6.271 3.3 7.8l.285.643c.152.359.121.925-.194 1.216-.162.148-.708.293-1.23.192-.242-.047-.574-.166-.776-.464-.657-.978-1.166-2.103-1.475-2.874-1.116-2.781-1.938-4.168-1.974-4.225l-.417-.7-.264.771c-.097.282-6.068 27.959-19.02 36.31-.23.148-.474.271-.698.228a.74.74 0 0 1-.391-.21z"/>
</svg>
