<svg xmlns="http://www.w3.org/2000/svg" viewBox="0 0 76 379"><path d="M71.7 25.2c-1.7-2.5-3.6-4.9-5.4-7.3C62.7 13 59 8.2 55.7 3.1L53.5 0l-1.9 3.2c-1.6 2.7-3.4 5.4-5.3 7.9-1.9 2.6-3.8 5.1-5.7 7.7l-2.9 3.8-1.4 1.9c-.5.6-.9 1.3-1.3 2-1.5 2.9-3 5.8-4.4 8.7 2.4-2.2 4.8-4.4 7.2-6.5.6-.5 1.1-1.2 1.6-1.8l1.5-1.9 2.9-3.8c1.9-2.5 3.8-5.1 5.8-7.6 1-1.3 2-2.5 3-3.8-.2 1.6-.2 3.1-.3 4.7-.1 4-.2 7.9-.2 11.9s-.2 7.9-.2 11.9l-.1 11.9c0 4-.2 7.9-.3 11.9L50.9 74c-.1 4-.3 7.9-.6 11.9l-.6 11.9c-1.9 31.7-5.1 63.4-9.5 94.8S30 255.5 22.9 286.4c-.8 3.9-1.8 7.7-2.7 11.6l-2.8 11.6c-.9 3.9-2 7.7-3 11.5s-2 7.7-3.1 11.5S9 340.2 8 344.1s-1.9 7.7-2.8 11.6C3.4 363.4 1.6 371.1 0 379c6.3-14.7 11.4-29.8 15.4-45.2 1-3.9 2-7.7 3-11.6s2.1-7.7 3-11.6l2.8-11.6c.9-3.9 1.9-7.7 2.7-11.6 7.1-31.1 12.8-62.5 17.3-94s7.6-63.3 9.6-95.1l.6-11.9c.2-4 .5-7.9.6-11.9l.4-11.9c.1-4 .3-8 .4-11.9.1-8 .3-15.9.3-23.9-.1-4-.2-8-.4-11.9 0-1.3-.1-2.6-.2-3.9 2.7 3.2 5.3 6.5 8 9.7 1.9 2.4 3.8 4.8 5.7 7.1 2.3 2.1 4.6 4.1 7 6.1-1.7-3.2-3.1-5.9-4.5-8.7z" fill="#fff"/></svg>
