<svg xmlns="http://www.w3.org/2000/svg" width="64" height="77" viewBox="0 0 64 77">
  <path fill="#FFF" fill-rule="evenodd" d="M.038 76.658c-.377-1.05 2.118-2.026 3.857-2.88 1.737-.857 19.295-11.71 35.53-32.93C50.656 26.162 54.002 6.612 54.023 6.494l.076-.726-5.592 4.971c-.7.62-1.696 1.087-2.317 1.087-.133 0-.31-.022-.405-.127-.788-.86-.195-1.792.44-2.423.725-.72 1.988-2.217 2.857-3.053 1.603-1.542 3.418-3.29 5.205-4.898.543-.49 1.238-.876 1.91-1.25a.521.521 0 0 1 .29-.076c.372 0 .807.185.933.345l.11.138c.29.363.59.736.768 1.12.335.722.663 1.448.992 2.171 1.324 2.917 4.13 8.358 4.57 8.939.3.394.05.98-.148 1.205-.241.273-.519.406-.849.406-.405-.01-.992-.376-1.155-.565-.463-.537-.852-1.165-1.137-1.651-.391-.664-2.167-3.827-2.167-3.827-.136-.26-1.355-2.175-1.355-2.175l-.066.634c-.028.231-2.799 19.586-15.613 36.496-10.852 14.32-25.578 25.667-32.039 29.9-1.881 1.232-4.258 2.41-6.225 3.248 0 0-2.744 1.18-3.069.274"/>
</svg>
