<?xml version="1.0" encoding="UTF-8"?>
<svg viewBox="0 0 26 33" version="1.1" xmlns="http://www.w3.org/2000/svg"
     xmlns:xlink="http://www.w3.org/1999/xlink">
  <title>Arrow-2</title>
  <desc>Created with Sketch.</desc>
  <g id="Page-1" stroke="none" stroke-width="1" fill="none" fill-rule="evenodd">
    <g id="01_Coral_onboarding_update---MOBILE" transform="translate(-165.000000, -65.000000)" fill="#FFFFFF">
      <g id="Group-12" transform="translate(58.000000, 63.000000)">
        <path
          d="M110.520801,35.9632664 C110.401191,35.948606 110.286443,35.8968059 110.193089,35.8127529 C109.917889,35.5684129 109.962621,35.1598763 110.165861,34.9194457 C120.772246,22.3359333 123.108043,7.84070446 123.119712,7.73808164 L123.218901,6.89852924 L122.598485,7.46930759 C122.555698,7.50937935 118.307115,11.4197974 117.043917,12.3991124 L117.042945,12.3991124 C117.03711,12.3991124 116.983626,12.4127954 116.891245,12.4127954 C116.595623,12.4127954 116.25138,12.278897 116.126908,12.1596591 C115.789472,11.839085 115.715567,11.195982 115.902275,10.93014 C116.124963,10.6173847 116.313616,10.360339 116.529497,10.1462971 C117.930781,8.75355887 119.081176,7.40382445 119.092845,7.39014141 C120.534971,6.00424467 122.049058,4.54602328 123.596207,3.1562171 C124.065895,2.73204278 124.675614,2.38996671 125.265884,2.06059633 C125.347569,2.01563776 125.40008,2 125.496352,2 C125.823091,2 126.173169,2.16321915 126.260688,2.27170613 L126.355987,2.38996671 C126.608821,2.70467669 126.870407,3.03013763 127.024053,3.35853066 C127.314812,3.98208645 127.598764,4.60661961 127.884661,5.23310749 C129.086594,7.8641611 130.329371,10.5851319 131.926114,13.0949928 L131.954315,13.2552799 C132.066146,13.722458 131.954315,13.9306358 131.816229,14.0850587 C131.639245,14.2863949 131.345569,14.4202932 131.084955,14.4202932 C130.997436,14.4202932 130.928393,14.4056328 130.84768,14.3675158 C130.57248,14.2414363 130.290473,14.1114474 130.153359,13.9550698 C129.742018,13.4820274 129.404582,12.9395925 129.158555,12.5193277 C128.872658,12.0384664 128.59843,11.5908355 128.324203,11.1461366 C127.985794,10.5978375 126.140106,7.50546991 126.140106,7.50449255 L125.67917,6.73140065 L125.56345,7.62568522 C125.546919,7.75078732 124.922613,21.111301 111.777191,35.7140395 C111.392105,36.1411459 110.520801,35.9632664 110.520801,35.9632664"
          id="Arrow-2"
          transform="translate(121.000000, 19.000000) rotate(8.000000) translate(-121.000000, -19.000000) "></path>
      </g>
    </g>
  </g>
</svg>
