<svg xmlns="http://www.w3.org/2000/svg" width="52" height="65" viewBox="0 0 52 65">
    <g fill="#FFF" fill-rule="evenodd">
        <path d="M44.754 148.66c3.373-64.419 68.465-135.828 68.862-136.165l1.589-1.302-.991-.004c-.136.001-3.351-.009-4.035.05a98.37 98.37 0 0 1-2.377.187c-.66.042-1.374.069-2.118-.02-.236-.038-.56-.227-.871-.412-.265-.156-.478-.675-.363-1.138.083-.334.293-.535.724-.697l.12-.048c3.585-.15 7.063-.745 10.425-1.32l.14-.024c.766-.131 1.534-.262 2.303-.388.416-.068.903-.031 1.374.005l.25.022c.333.053.832.547.851.747.088.882.168 1.697.072 2.441-.307 2.418-.702 4.857-1.085 7.215 0 0-.838 4.953-1.202 6.978-.065.36-.197.738-.34 1.126-.131.358-.781.71-1.392.614-.357-.075-.845-.593-.86-.762.023-.474.118-1.52.225-2.752l.014-.141c.506-5.729.47-7.743.468-7.826l-.02-.901-1.33 1.474C114.85 15.9 53.749 82 48.13 148.813c-.036.436-1.137 1.528-2.252 1.528-1.125 0-1.135-1.49-1.125-1.68zM.44 62.111C20.47 52.183 41.825 6.906 41.845 6.788l.165-.968-.75.624c-.053.044-5.196 4.323-6.714 5.383-.008 0-.07.012-.177.007-.341-.018-.73-.194-.867-.34-.37-.393-.416-1.143-.185-1.44.276-.35.51-.636.772-.871 1.703-1.531 3.113-3.027 3.127-3.043 1.75-1.52 3.586-3.12 5.457-4.639.568-.463 1.293-.823 1.995-1.17a.472.472 0 0 1 .27-.056c.377.02.77.23.865.362l.103.142c.273.38.555.774.713 1.164.297.741.587 1.483.88 2.227 1.227 3.125 2.497 6.357 4.188 9.365l.022.187c.101.55-.04.784-.21.955a1.19 1.19 0 0 1-.864.344.595.595 0 0 1-.27-.075c-.311-.163-.629-.331-.777-.52-.447-.574-.803-1.224-1.062-1.726-.3-.576-.59-1.111-.88-1.644-.357-.656-2.3-4.355-2.3-4.357l-.485-.924-.188 1.03C44.646 6.95 25.2 51.232 1.9 63.793c-.543.292-1.156.295-1.466.213-.573-.152-.291-1.748.006-1.895z"/>
    </g>
</svg>
