<svg xmlns="http://www.w3.org/2000/svg" viewBox="0 0 22 22"><circle cx="11" cy="11" r="11" fill="#ffcd00"/><path d="M16.67 8.22c-.02-.18-.04-.38-.1-.57 0 0-.3-1.31-.61-1.61-.33-.32-1.73-.57-1.73-.57-.34-.06-.7-.09-1.15-.1h-.29c-.31 0-.62.01-.91.02-.21.01-.41.04-.61.06-.05.01-.09.01-.14.02-.22.03-.41.12-.57.29-1.1 1.11-2.23 2.23-3.31 3.32-.32.31-.63.63-.95.94l-.51.51-1.37 1.37c-.38.39-.39.97-.01 1.36l.06.06.02.02 4.28 4.28.01.01c.02.02.04.04.07.06.19.16.4.25.63.25.07 0 .13-.01.2-.02.19-.04.36-.13.52-.3 1.83-1.83 4-4 6.15-6.14.12-.12.2-.26.23-.41 0-.01 0-.02.01-.03.01-.03.01-.06.02-.09.07-.39.09-.78.1-1.14.02-.61.01-1.12-.04-1.59zm-2.46.68c-.56 0-1.01-.45-1.01-1.01s.45-1.01 1.01-1.01 1.01.45 1.01 1.01c0 .55-.45 1.01-1.01 1.01z" fill="#004696"/></svg>