<svg viewBox="0 0 80 80" xmlns="http://www.w3.org/2000/svg"><path d="M40 0C17.9 0 0 17.9 0 40s17.9 40 40 40 40-17.9 40-40S62.1 0 40 0zm0 76.6C19.8 76.6 3.4 60.2 3.4 40S19.8 3.4 40 3.4 76.6 19.8 76.6 40 60.2 76.6 40 76.6z" fill="#c0392b"/><path d="M28.5 48.6h-3.3V36c-1.2 1.1-2.7 2-4.3 2.5v-3c.9-.3 1.8-.8 2.8-1.6s1.7-1.7 2.1-2.8h2.7v17.5zm7.8-9.4c-.9-.4-1.5-.9-1.9-1.5-.4-.6-.6-1.3-.6-2.1 0-1.3.5-2.4 1.4-3.2.9-.8 2.2-1.3 3.9-1.3 1.7 0 2.9.4 3.9 1.3.9.8 1.4 1.9 1.4 3.2 0 .8-.2 1.5-.6 2.2s-1 1.1-1.8 1.4c1 .4 1.7 1 2.2 1.7.5.7.8 1.6.8 2.6 0 1.6-.5 2.9-1.5 3.9s-2.4 1.5-4.1 1.5c-1.6 0-2.9-.4-4-1.2-1.2-1-1.9-2.3-1.9-4 0-.9.2-1.8.7-2.6.4-.9 1.1-1.5 2.1-1.9zm.4 4.1c0 .9.2 1.6.7 2.1.5.5 1.1.8 1.8.8s1.3-.2 1.7-.7c.5-.5.7-1.2.7-2.1 0-.8-.2-1.5-.7-2-.5-.5-1-.7-1.7-.7-.8 0-1.4.3-1.8.8s-.7 1.1-.7 1.8zm.3-7.5c0 .7.2 1.2.6 1.6.4.4.9.6 1.5.6s1.1-.2 1.5-.6c.4-.4.6-.9.6-1.6 0-.6-.2-1.1-.6-1.5-.4-.4-.9-.6-1.5-.6s-1.2.2-1.5.6c-.4.4-.6.9-.6 1.5zm14.5 10.3v-4.5H47v-3.1h4.6V34h3v4.5h4.6v3.1h-4.6v4.5h-3.1z" fill="#2c2c2c"/></svg>