<svg width="20" height="20" xmlns="http://www.w3.org/2000/svg"><path d="M6.279 3.192l7.17-1.673a1 1 0 0 1 1.193.71l1.88 6.88a1 1 0 0 1-.098.764l-5.297 9.175a1 1 0 0 1-1.366.366L.717 14.192a1 1 0 0 1-.366-1.366l5.289-9.16a1 1 0 0 1 .639-.474zm4.863 6.07L4.5 13.339l.705.407 6.642-4.077-.705-.407zm-4.2-.281c.164-.284.308-.49.431-.618.124-.129.265-.147.423-.056.159.092.213.223.164.394-.05.171-.157.399-.32.682-.182.316-.337.54-.463.674-.126.133-.269.154-.427.063-.159-.092-.212-.225-.16-.402.053-.176.17-.422.353-.737zm-.857-.453a4.68 4.68 0 0 0-.335.69 1.328 1.328 0 0 0-.094.575.88.88 0 0 0 .202.49c.121.15.303.296.546.436.248.143.466.229.654.257a.887.887 0 0 0 .522-.072c.16-.076.31-.2.451-.37.141-.17.284-.382.43-.634a4.68 4.68 0 0 0 .335-.69c.077-.207.109-.4.094-.575a.887.887 0 0 0-.198-.488c-.119-.15-.302-.295-.55-.438a1.933 1.933 0 0 0-.65-.255.885.885 0 0 0-.526.07c-.16.075-.31.198-.451.37a4.68 4.68 0 0 0-.43.634zm1.811 4.618a4.66 4.66 0 0 0-.337.693 1.296 1.296 0 0 0-.09.568.843.843 0 0 0 .21.478c.124.145.307.288.55.428.248.144.465.232.65.265a.844.844 0 0 0 .515-.06c.158-.073.307-.194.446-.362a4.66 4.66 0 0 0 .432-.638 4.68 4.68 0 0 0 .335-.69c.077-.207.109-.399.095-.575a.887.887 0 0 0-.2-.488c-.117-.149-.3-.295-.549-.438a1.933 1.933 0 0 0-.65-.255.885.885 0 0 0-.526.07c-.16.075-.31.199-.451.37a4.68 4.68 0 0 0-.43.634zm.858.453c.164-.284.307-.49.43-.618.124-.128.265-.147.423-.055.159.091.213.222.164.393-.05.171-.156.399-.32.682-.182.316-.336.54-.463.674-.126.133-.269.155-.427.063-.158-.091-.211-.225-.159-.402.053-.176.17-.422.352-.737zm3.162-8.227a1 1 0 1 0 1-1.733 1 1 0 0 0-1 1.733zm3.791-1.424c2.898.326 3.646-.139 3.003-1.464-.53-1.095-1.172-1.13-2.163-.454-.241.165-.893.723-1.135.889l-.295-1.028c.212-.186.601-.506.866-.687 1.435-.98 2.78-.904 3.627.844 1.073 2.213-.354 3.212-3.606 2.935l-.297-1.035z" fill="#fff"/></svg>