<svg xmlns="http://www.w3.org/2000/svg" xmlns:xlink="http://www.w3.org/1999/xlink" width="22" height="22"><defs><path id="A" d="M0 0h22v22H0z"/></defs><g fill="none" fill-rule="evenodd"><mask id="B" fill="#fff"><use xlink:href="#A"/></mask><g mask="url(#B)"><circle stroke="#252835" stroke-width="1.757" cx="11" cy="11" r="7.677"/><g fill="#252835"><rect x="10.389" width="1.222" height="7.333" rx=".611"/><path d="M11 14.667a.61.61 0 0 1 .611.611v6.11a.61.61 0 1 1-1.222 0v-6.11a.61.61 0 0 1 .611-.611z"/><rect transform="matrix(0 1 -1 0 29.333333 -7.333333)" x="17.722" y="7.333" width="1.222" height="7.333" rx=".611"/><rect transform="matrix(0 1 -1 0 14.666667 7.333333)" x="3.056" y="7.333" width="1.222" height="7.333" rx=".611"/></g></g></g></svg>