<svg xmlns="http://www.w3.org/2000/svg" id="Layer_2" data-name="Layer 2" viewBox="0 0 363.3 66.6"><defs><style>.cls-1{fill:#cca652;isolation:isolate;opacity:.4}</style></defs><g id="Layer_1-2" data-name="Layer 1"><path d="m3 2 3 2-3 3-1-1 1-4zM5 31s0 2 2 3l2-1s-4 0-3-3l-1 1ZM19 33v1l-1-2 1 1zM42 6s0-3-4-3l-2 1s5 0 5 4l1-2ZM23 1s0 1 2 2V2s-2 0-2-2v1ZM52 3l1 1-1 2h-1l1-3zM40 24l-1 1-2-5h1l2 4zM31 9s0 3 4 4l1-2s-4 0-4-4l-1 2ZM57 4l-1-1h-1l2 2V4ZM63 6s3-1 3-4l-1-1s0 2-3 3l1 2ZM50 26s0 3 4 4l2-1s-5-1-4-5l-2 2ZM60 10l1-1 3 5-1 1-3-5zM203 8l-2 1-2-6 1-1 3 6zM70 29s-3 1-3 3l1 1s-1-2 2-2v-2ZM94 45h-1l-1-4 2 4zM82 4s1 4 6 5l1-1s-5 0-6-5l-1 1ZM86 19l1 1h1s-2 0-2-1ZM114 11s-5-2-7 3v1s2-4 7-3v-1ZM103 18l-2-3h1l1 3zM95 5l-3 1-2-5 2-1 3 5zM131 7s1-1 1-3 0 1-2 1l1 2ZM142 16s0-3-3-3h-1s3 0 3 3h1ZM119 6s1 5 8 6l1-1s-6 0-7-7l-2 2ZM156 47s1-2-2-2 2 0 2 3v-1ZM142 37h-2l-2-5h1l3 5zM158 24l1 3s2-6 8-4M136 48l-2 1-2-4 2-1 2 4zM147 2s-3 1-4 4l1 1s0-2 3-2V2ZM178 24s1-1 1-3 0 1-2 1l1 1ZM157 17s-4 1-4 5l1 1s-1-2 3-3l-1-3ZM188 32s0-3-3-3h-1s3 1 3 3h1ZM170 24h1l2 3-1 1-2-4zM163 53s0 3 4 3l1-1s-4 0-3-3l-2 1ZM178 52l-1-2h1v2zM174 5s-2 0-2 3l1 1s-1-2 2-2l-1-2ZM218 10s0-3-3-3l-1 1s3 0 3 3l1-2ZM196 36s0 3 3 3l2-1s-4 0-4-4l-1 2ZM223 31s0-2-3-3v1s2 0 2 3l1-1ZM227 26s0-1-2-1h-1s2 0 2 2l1-1ZM206 47s-5 1-5 5l1 2s0-3 4-4v-3ZM234 49s0-4-5-5l-1 1s4 1 5 5l1-1ZM215 2s0 4 6 5l1-2s-5 0-6-4l-1 1ZM208 11s-6 2-6 8l1 2s-1-4 5-5v-5ZM252 14s-1-2-3-2l-1 1s2 0 2 2l2-1ZM263 33l3 2-3 4-2-1 2-5zM235 55l2 2s-1-1-1-2h-1ZM257 2l2-1 2 5-1 1-3-5zM266 21h-1v-1l1 1zM15 66l-1-3 7-2v2l-6 3M186 59s0-4-5-4l-2 1s5 0 5 4l2-1ZM154 65l-1 1-4-7M194 59l-2-1s2 0 2 2v-1ZM238 65s0-3-3-3l-1 1s3 0 3 3l1-1ZM229 63s-5 0-7-5l-1 1M259 66l2-2s-1-3-6-4l-2 2s6 0 6 4M202 58h-1l-2-4M228 56v1h-1l1-1zM129 63s0 2 2 2v-1l-2-1ZM137 57l1-1 2 4-3-3zM84 54s-1-3-3-3l-1 1s3 0 3 3l1-1ZM58 61s-2 0-2 2l1 1 1-2v-1ZM31 55l-2 1-1-3 1-1 2 3zM10 42s-1-4-7-5l-2 2s6 0 7 5l2-2ZM125 60s0-2-2-2l-1 1s2 0 3 1ZM107 67l1-1s-4 0-5-4l-1 1s1 3 5 4M111 56l2-1 3 6-1 1-4-6zM248 57l-2-2 6-5 1 1-5 6zM211 62s5-2 5-7l-2-1s1 3-4 4M17 58l2 2s-1-4 4-5v-4M13 14s0-5-7-7L5 8s6 1 7 8l1-2ZM101 31s-6 1-6 6l2 2s-1-4 4-4v-4ZM178 15s0 3 5 4l2-1s-5 0-5-5l-2 2ZM232 27l4 2-5 7-3-1 4-8zM258 29s0-4-6-4l-2 1s6 0 6 5l2-2ZM36 57l3-2 4 8M67 46l3-2 5 10-2 1-6-9zM126 34s-6-1-7 7l1 1s1-6 8-7l-2-1ZM1 59s5-2 5-8l-2-1s1 3-4 5l1 4ZM52 54l1-1 3 6h-1l-3-5zM286 1l2 2-3 3-1-1 2-4zM287 31s0 2 3 3l1-1s-3 0-3-3l-1 1ZM324 6s0-3-4-3l-1 1s4 0 4 4l1-2ZM314 5h1v1l-1-1zM302 9s-3 1-3 3l1 1s-1-2 2-2V9ZM332 19s0-2-3-3v1s2 0 2 2h1ZM322 24l-1 1-2-5h1l2 4zM329 11l-2-6h1M345 6s3-1 3-4l-1-1s1 2-2 3v2ZM352 19s4-2 4-6l-2-1s1 3-3 4l1 3ZM330 26l-1 2 1-1v-1ZM348 40l-1-1 4-3 1 1-4 3zM339 37l-1 1v-2l1 1zM358 26s-3 1-3 3l1 1s-1-2 2-2v-2ZM363 7l-3 1-1-5 1-1 3 5zM281 64l-4-4 2-1 3 5M297 67v-3l6-2v2l-6 3M336 45l-2-1h-1s2 0 2 2l1-1ZM340 61s-2 0-2 2l1 1 1-2v-1ZM310 43s-5 1-5 5l1 2s-1-3 4-4v-3ZM324 49l-2 1-1-4h1l2 3zM297 36s0 4 5 5l2-1s-5 0-5-5l-2 1ZM280 51s0-3-4-3l-2 1s5 0 5 3l1-1ZM357 54s0-4-6-4l-2 1s6 0 6 5l2-2ZM281 32l-3 1-3-8 2-1 4 8zM307 33s6-2 5-9l-1-1s1 6-5 9l1 1ZM340 32l4-7 3 1M318 58l3-2 4 8M337 59l-3-5 1-1" class="cls-1"/></g></svg>