<svg width="10" height="10" viewBox="0 0 10 10" fill="none" xmlns="http://www.w3.org/2000/svg">
<mask id="mask0_1950_40679" style="mask-type:luminance" maskUnits="userSpaceOnUse" x="0" y="0" width="10" height="10">
<rect width="10" height="10" fill="white"/>
</mask>
<g mask="url(#mask0_1950_40679)">
<path fill-rule="evenodd" clip-rule="evenodd" d="M8.87103 3.97636C8.75981 3.9365 8.6437 3.91192 8.52587 3.90331C7.78441 3.82441 6.62 4.2156 5.81792 4.53519C6.39866 3.90331 7.17043 2.96206 7.34831 2.25239C7.38055 2.14042 7.39691 2.02447 7.39689 1.90796C7.39689 1.21033 6.81979 0.643466 6.11012 0.643466C5.64808 0.643466 5.24192 0.88453 5.0151 1.24613C4.77785 0.870118 4.36396 0.642479 3.91936 0.643466C3.21004 0.643466 2.63295 1.2107 2.63295 1.90723C2.63289 2.02387 2.64924 2.13994 2.68153 2.25202C2.85867 2.96133 3.63044 3.90294 4.21119 4.53482C3.40874 4.21486 2.24469 3.82368 1.50397 3.90294C1.3859 3.91157 1.26955 3.93614 1.15808 3.97599C0.49223 4.21486 0.147436 4.94171 0.390326 5.59696C0.507567 5.91409 0.746994 6.17101 1.05508 6.31029C1.14749 6.35266 1.24282 6.38334 1.33997 6.40307C1.06316 6.74524 0.986841 7.20785 1.13908 7.62081C1.32974 8.13325 1.82429 8.45248 2.35025 8.45248C2.61908 8.45243 2.88129 8.36911 3.10083 8.21397C3.73344 7.79759 4.28968 6.77708 4.69364 6.02102C4.5 8.49991 5.40462 9.73486 5.43822 9.78381C5.47474 9.83859 5.75729 9.78381 5.81938 9.78381C5.85645 9.78391 5.89279 9.77353 5.9242 9.75386C5.9661 9.72694 6.48971 9.54863 6.5 9.49991C6.51029 9.45118 6.50065 9.40036 6.47322 9.3588C6.46591 9.34711 5.60117 8.56066 5.5 5.99991C5.89447 6.75597 6.25402 7.76946 6.929 8.21397L6.9374 8.21945C7.15487 8.37128 7.41363 8.45286 7.67886 8.45321C8.20481 8.45248 8.70009 8.13325 8.89039 7.62044C9.04288 7.2074 8.96625 6.74455 8.68877 6.4027C9.1236 6.31666 9.48314 6.0121 9.63951 5.59733C9.8824 4.94244 9.53724 4.21523 8.87103 3.97636Z" fill="#252835"/>
</g>
</svg>
