<?xml version="1.0" encoding="UTF-8"?>
<svg y="110" width="27" height="27" viewBox="-2 -2 27 27" xmlns="http://www.w3.org/2000/svg">
   <g fill-rule="evenodd">
      <circle cx="11.5" cy="11.5" r="11.5" fill="#FFF"/>
      <path d="M4.32 18.758c.393-.334 2.535-1.167 2.535-1.167l1.458-.608s.82-.216.916-.912c.094-.696.09-2.035.09-2.035s-.32-.335-.537-.62c-.22-.286-.497-1.31-.497-1.31l-.047-.29s.312.066-.1-.088c-.41-.154-.692-.934-.692-.934s-.193-.213-.193-.616c0-.402.507-.676.507-.676s-.314-1.18-.314-1.435c0-.255-.182-1.094-.09-1.696.09-.602.18-1.256.48-1.668.302-.41.844-.964 1.243-1.11.4-.145.54-.322 1.16-.434.62-.11 1.448-.224 1.846-.112.398.112 1.186.367 1.56.703.373.334.43.14.708.25.28.113.98.595 1.183 1.163.203.568.235 2.124.235 2.32 0 .196-.083.768-.083.768s-.193.557-.302.987c-.11.43.063.375.063.375s.458.182.458.7c0 .52-.097.69-.457 1.096-.36.408-.596.485-.596.485s-.3 1.153-.59 1.558c-.29.407-.43.575-.43.575l-.018 1.947s.428.756.774.883c.346.127 2.15.987 2.52 1.09.368.1 1.66.832 1.66.832l.15.363s-.095.766-1.345 1.46c-1.25.69-3.35 1.55-4.185 1.55-.835 0-2 .234-3.485.117-1.487-.116-3.23-1.077-3.708-1.305-.477-.23-2.19-1.58-2.19-1.7 0-.122-.078-.17.314-.504z" fill="#D11F24"/>
      <path d="M11.5 23C17.85 23 23 17.85 23 11.5S17.85 0 11.5 0 0 5.15 0 11.5 5.15 23 11.5 23zm0-1.045c5.774 0 10.455-4.68 10.455-10.455 0-5.774-4.68-10.455-10.455-10.455-5.774 0-10.455 4.68-10.455 10.455 0 5.774 4.68 10.455 10.455 10.455z" fill="#FFF"/>
   </g>
</svg>
