<?xml version="1.0" encoding="UTF-8"?>
<svg width="83px" height="9px" viewBox="0 0 83 9" version="1.1" xmlns="http://www.w3.org/2000/svg" xmlns:xlink="http://www.w3.org/1999/xlink">
    <g id="Racecard" stroke="none" stroke-width="1" fill="none" fill-rule="evenodd">
        <g id="Other-Markets/Other_3-others" transform="translate(-222.000000, -267.000000)">
            <g id="RP_Black" transform="translate(222.000000, 267.000000)">
                <g id="RP_Black-(1)">
                    <ellipse id="Oval" fill="#FFFFFF" cx="63.2786325" cy="4.61538462" rx="3.16866097" ry="3.09230769"/>
                    <path d="M4.87122507,8.86153846 L3.45242165,6.06923077 L2.24643875,6.04615385 L2.24643875,8.83846154 L-7.10542736e-15,8.83846154 L-7.10542736e-15,0.369230769 L4.35099715,0.369230769 C6.29002849,0.369230769 7.37777778,1.61538462 7.37777778,3.20769231 C7.37777778,4.66153846 6.5974359,5.51538462 5.6988604,5.86153846 L7.4014245,8.86153846 L4.87122507,8.86153846 L4.87122507,8.86153846 Z M5.13133903,3.20769231 C5.13133903,2.63076923 4.63475783,2.26153846 4.04358974,2.26153846 L2.27008547,2.26153846 L2.27008547,4.17692308 L4.04358974,4.17692308 C4.70569801,4.17692308 5.13133903,3.80769231 5.13133903,3.20769231 Z" id="Shape" fill="#000000" fill-rule="nonzero"/>
                    <path d="M14.5663818,8.86153846 L13.9988604,7.2 L10.8301994,7.17692308 L10.2863248,8.83846154 L7.73247863,8.83846154 L11.0193732,0.346153846 L13.8333333,0.346153846 L17.1202279,8.83846154 L14.5663818,8.83846154 L14.5663818,8.86153846 Z M12.4145299,2.51538462 L11.4450142,5.30769231 L13.3840456,5.30769231 L12.4145299,2.51538462 Z" id="Shape" fill="#000000" fill-rule="nonzero"/>
                    <polygon id="Path" fill="#000000" points="25.5621083 8.86153846 25.5621083 0.369230769 27.808547 0.369230769 27.808547 8.86153846 25.5621083 8.86153846"/>
                    <polygon id="Path" fill="#000000" points="35.0444444 8.86153846 31.3555556 3.94615385 31.3555556 8.86153846 29.1091168 8.86153846 29.1091168 0.369230769 31.4264957 0.369230769 34.9498575 5.05384615 34.9498575 0.369230769 37.1962963 0.369230769 37.1962963 8.86153846 35.0444444 8.86153846"/>
                    <path d="M38.1185185,4.59230769 C38.0712251,1.89230769 40.2703704,0.184615385 42.7769231,0.184615385 C44.3849003,0.184615385 45.4253561,0.738461538 46.2529915,1.61538462 C46.2529915,1.61538462 44.7632479,2.97692308 44.7632479,2.97692308 C44.1011396,2.28461538 43.722792,2.16923077 42.87151,2.14615385 C41.5945869,2.1 40.4358974,3.20769231 40.4358974,4.54615385 C40.4358974,5.93076923 41.4763533,6.99230769 42.8478632,6.99230769 C43.557265,6.99230769 43.982906,6.80769231 44.3849003,6.50769231 L44.3849003,5.86153846 L43.0843305,5.86153846 L43.0843305,3.92307692 L46.631339,3.92307692 L46.631339,7.06153846 C45.6145299,8.4 44.3139601,8.93076923 42.8478632,8.95384615 C40.6487179,8.97692308 38.165812,7.54615385 38.1185185,4.59230769 Z" id="Path" fill="#000000"/>
                    <path d="M50.8168091,8.86153846 L50.8168091,0.369230769 L55.1678063,0.369230769 C57.1304843,0.369230769 58.1945869,1.70769231 58.1945869,3.25384615 C58.1945869,4.77692308 57.1304843,6.06923077 55.1678063,6.06923077 L53.0632479,6.06923077 L53.0632479,8.86153846 L50.8168091,8.86153846 L50.8168091,8.86153846 Z M55.9245014,3.23076923 C55.9245014,2.65384615 55.4752137,2.26153846 54.8840456,2.26153846 L53.0632479,2.26153846 L53.0632479,4.2 L54.8840456,4.2 C55.4752137,4.2 55.9245014,3.80769231 55.9245014,3.23076923 Z" id="Shape" fill="#000000" fill-rule="nonzero"/>
                    <polygon id="Path" fill="#000000" points="78.1051282 8.86153846 78.1051282 2.26153846 75.6695157 2.26153846 75.6695157 0.346153846 82.7871795 0.346153846 82.7871795 2.26153846 80.351567 2.26153846 80.351567 8.83846154"/>
                    <path d="M63.2786325,0.207692308 C60.7957265,0.207692308 58.785755,2.16923077 58.785755,4.59230769 C58.785755,7.01538462 60.7957265,8.97692308 63.2786325,8.97692308 C65.7615385,8.97692308 67.77151,7.01538462 67.77151,4.59230769 C67.77151,2.16923077 65.7615385,0.207692308 63.2786325,0.207692308 Z M63.2786325,6.92307692 C62.6638177,6.92307692 62.119943,6.71538462 61.694302,6.34615385 C61.1977208,5.90769231 60.8666667,5.28461538 60.8666667,4.59230769 C60.8666667,3.34615385 61.8834758,2.30769231 63.1367521,2.26153846 C63.1840456,2.26153846 63.2076923,2.26153846 63.2549858,2.26153846 C63.3968661,2.26153846 63.5150997,2.26153846 63.6569801,2.28461538 C63.7279202,2.30769231 63.8225071,2.30769231 63.8934473,2.33076923 C63.9880342,2.35384615 64.0589744,2.37692308 64.1535613,2.42307692 C64.177208,2.42307692 64.177208,2.42307692 64.2008547,2.44615385 C65.0521368,2.79230769 65.6669516,3.62307692 65.6669516,4.61538462 C65.6905983,5.88461538 64.602849,6.92307692 63.2786325,6.92307692 Z" id="Shape" fill="#ED1C24" fill-rule="nonzero"/>
                    <path d="M24.7817664,7.52307692 C24.3324786,7.10769231 23.3156695,6.16153846 23.3156695,6.16153846 C22.8900285,6.66923077 22.2279202,7.01538462 21.4002849,7.01538462 C19.9814815,7.01538462 18.9646724,5.76923077 18.9646724,4.54615385 C18.9646724,3.02307692 20.2888889,2.03076923 21.5421652,2.12307692 C22.3934473,2.19230769 22.8900285,2.51538462 23.2920228,2.95384615 C23.2920228,2.95384615 24.7581197,1.59230769 24.7817664,1.56923077 C24.4507123,1.24615385 23.5048433,0.161538462 21.4475783,0.161538462 C18.7045584,0.138461538 16.6472934,1.96153846 16.6472934,4.5 C16.6472934,7.13076923 18.7754986,8.95384615 21.3766382,8.95384615 C23.2683761,8.95384615 24.214245,8.12307692 24.7817664,7.52307692 Z" id="Path" fill="#000000"/>
                    <path d="M68.0316239,7.52307692 C68.0316239,7.52307692 69.5213675,6.16153846 69.5213675,6.16153846 C70.254416,6.80769231 71.105698,7.08461538 72.0752137,7.08461538 C72.8555556,7.08461538 73.2811966,6.80769231 73.2811966,6.39230769 C73.2811966,5.23846154 68.3390313,6.18461538 68.3390313,2.93076923 C68.3390313,1.5 69.5923077,0.184615385 71.8150997,0.184615385 C73.6358974,0.184615385 74.7709402,1.03846154 74.9128205,1.10769231 C74.9128205,1.10769231 73.3994302,2.49230769 73.3994302,2.49230769 C72.8319088,2.21538462 72.217094,2.07692308 71.5786325,2.07692308 C70.9165242,2.07692308 70.6564103,2.33076923 70.6564103,2.7 C70.6564103,3.76153846 75.5749288,2.90769231 75.5749288,6.13846154 C75.5749288,7.84615385 74.2034188,8.95384615 71.9333333,8.95384615 C70.2071225,8.95384615 68.9774929,8.35384615 68.0316239,7.52307692 Z" id="Path" fill="#000000"/>
                </g>
            </g>
        </g>
    </g>
</svg>
