<svg data-name="Layer 1" xmlns="http://www.w3.org/2000/svg" viewBox="0 0 28 34"><path d="M27.19 8a.77.77 0 0 0-.79.72v23.76H1.55V4.23h14.68a.77.77 0 0 0 .77-.75.77.77 0 0 0-.79-.74H.79a.77.77 0 0 0-.79.74v29.78a.77.77 0 0 0 .79.74h26.4a.77.77 0 0 0 .79-.74V8.73a.77.77 0 0 0-.79-.73zm-18.9 6.62L7.21 18.5a.74.74 0 0 0 .59.89h.35l4.15-1a.8.8 0 0 0 .36-.22L25.25 6.48l2.52-2.36a.71.71 0 0 0 0-1L24.7.2a.83.83 0 0 0-1.08 0L21.1 2.56 8.48 14.29a.71.71 0 0 0-.19.33zM24.13 1.75l1.95 1.82-1.41 1.31-1.95-1.82zM9.74 15.18l11.9-11.07L23.59 6 11.72 17l-2.65.64z"/></svg>