<svg id="vip-icon" width="24px" height="24px" viewBox="0 0 20 20" version="1.1" xmlns="http://www.w3.org/2000/svg" xmlns:xlink="http://www.w3.org/1999/xlink">
    <!-- Generator: Sketch 52.6 (67491) - http://www.bohemiancoding.com/sketch -->
    <title>Vip_Icon</title>
    <desc>Created with Sketch.</desc>
    <g id="My-Account-/-VIP" >
      <path d="M2.41591831,17.1867496 C2.81728471,16.8440296 5.01164311,15.9910696 5.01164311,15.9910696 L6.50549431,15.3675496 C6.50549431,15.3675496 7.34586871,15.1453096 7.44359671,14.4325096 C7.54132471,13.7192296 7.53697111,12.3478696 7.53697111,12.3478696 C7.53697111,12.3478696 7.21011991,12.0046696 6.98633911,11.7123496 C6.76256311,11.4195496 6.47785591,10.3712296 6.47785591,10.3712296 L6.42998071,10.0745896 C6.42998071,10.0745896 6.75019351,10.1413096 6.32859031,9.98386961 C5.90699191,9.82594961 5.61953431,9.02626961 5.61953431,9.02626961 C5.61953431,9.02626961 5.42188471,8.80834961 5.42188471,8.39602961 C5.42188471,7.98370961 5.94104311,7.70290961 5.94104311,7.70290961 C5.94104311,7.70290961 5.61953431,6.49426961 5.61953431,6.23218961 C5.61953431,5.97058961 5.43293911,5.11090961 5.52623671,4.49506961 C5.61953431,3.87922961 5.71184311,3.20866961 6.02021431,2.78722961 C6.32859031,2.36530961 6.88380151,1.79938961 7.29227191,1.65010961 C7.70074231,1.50130961 7.84565431,1.31986961 8.47950391,1.20562961 C9.11335831,1.09138961 9.96327511,0.976189605 10.3709823,1.09090961 C10.7786895,1.20562961 11.5856991,1.46626961 11.9682111,1.81042961 C12.3507231,2.15410961 12.4079823,1.95346961 12.6940623,2.06866961 C12.9801471,2.18338961 13.6989759,2.67682961 13.9061871,3.25906961 C14.1133983,3.84178961 14.1467631,5.43538961 14.1467631,5.63602961 C14.1467631,5.83666961 14.0614815,6.42274961 14.0614815,6.42274961 C14.0614815,6.42274961 13.8651087,6.99250961 13.7528751,7.43266961 C13.6406415,7.87282961 13.8178479,7.81666961 13.8178479,7.81666961 C13.8178479,7.81666961 14.2854399,8.00338961 14.2854399,8.53522961 C14.2854399,9.06706961 14.1864639,9.24034961 13.8178479,9.65746961 C13.4492367,10.0745896 13.2065967,10.1537896 13.2065967,10.1537896 C13.2065967,10.1537896 12.8979951,11.3345896 12.6017583,11.7497896 C12.3055215,12.1654696 12.1606095,12.3377896 12.1606095,12.3377896 L12.1432815,14.3321896 C12.1432815,14.3321896 12.5816799,15.1064296 12.9358623,15.2369896 C13.2900447,15.3675496 15.1396863,16.2473896 15.5170815,16.3525096 C15.8944767,16.4576296 17.2188303,17.2054696 17.2188303,17.2054696 L17.3701551,17.5774696 C17.3701551,17.5774696 17.2744143,18.3627496 15.9935775,19.0721896 C14.7127407,19.7816296 12.5631231,20.6624296 11.7068655,20.6624296 C10.8506079,20.6624296 9.65871991,20.9009896 8.13593431,20.7814696 C6.61314391,20.6624296 4.82649271,19.6779496 4.33755511,19.4441896 C3.84861271,19.2099496 2.09319031,17.8256296 2.09319031,17.7013096 C2.09319031,17.5774696 2.01454711,17.5294696 2.41591831,17.1867496 Z"></path>
    </g>
</svg>


