<svg id="Layer_1" data-name="Layer 1" xmlns="http://www.w3.org/2000/svg" viewBox="0 0 27.98 34"><title>ICN_Bin_Red</title><path d="M14,29.47a.85.85,0,0,0,.86-.84h0V9.92a.86.86,0,0,0-1.71,0v18.7A.85.85,0,0,0,14,29.47Z" transform="translate(-0.01 0)" fill="#ef3340"/><path d="M8.29,29.47a.85.85,0,0,0,.86-.84h0V9.92a.86.86,0,0,0-1.71,0v18.7A.85.85,0,0,0,8.29,29.47Z" transform="translate(-0.01 0)" fill="#ef3340"/><path d="M19.71,29.47a.85.85,0,0,0,.86-.84h0V9.92a.86.86,0,0,0-1.71,0v18.7A.85.85,0,0,0,19.71,29.47Z" transform="translate(-0.01 0)" fill="#ef3340"/><path d="M27.14,3.4H19.37A4.59,4.59,0,0,0,18.29.82a2.7,2.7,0,0,0-2-.82H10.57a2.7,2.7,0,0,0-2,.82A4.58,4.58,0,0,0,7.48,3.4H.86a.85.85,0,1,0,0,1.7h.89L2.83,30.9A3,3,0,0,0,5.73,34H22.08a3,3,0,0,0,3.09-2.91q0-.09,0-.17L26.25,5.1h.89a.85.85,0,1,0,0-1.7ZM10.57,1.7h5.71A1,1,0,0,1,17,2a2.68,2.68,0,0,1,.59,1.4H9.21A2.68,2.68,0,0,1,9.8,2,1,1,0,0,1,10.57,1.7Zm14,3.4L23.45,30.86h0a1.35,1.35,0,0,1-1.27,1.43H5.92a1.38,1.38,0,0,1-1.38-1.38s0,0,0-.07L3.46,5.1Z" transform="translate(-0.01 0)" fill="#ef3340"/></svg>