<?xml version="1.0" encoding="UTF-8"?>
<svg width="76px" height="143px" viewBox="0 0 76 143" version="1.1" xmlns="http://www.w3.org/2000/svg" xmlns:xlink="http://www.w3.org/1999/xlink">
  <!-- Generator: Sketch 55.2 (78181) - https://sketchapp.com -->
  <title>Artboard</title>
  <desc>Created with Sketch.</desc>
  <g id="Page-2" stroke="none" stroke-width="1" fill="none" fill-rule="evenodd">
    <g id="Artboard" transform="translate(-6.000000, -7.000000)" fill="#FFFFFF">
      <path d="M6.00144614,148.319497 C9.3743632,83.9002335 74.4657133,12.4908435 74.8630443,12.1541003 L76.4520676,10.8517116 L75.460799,10.8481274 C75.3249466,10.8490023 72.1100893,10.8392585 71.4256598,10.8974907 C70.6331977,10.9665674 69.8431152,11.0349038 69.0491812,11.0847798 C68.3899312,11.1269017 67.6754525,11.1536125 66.9306613,11.0650763 C66.6947349,11.0267254 66.3719684,10.8374271 66.0597155,10.6531354 C65.7950989,10.4964462 65.5824051,9.97751011 65.6966899,9.51464264 C65.7802841,9.18082595 65.9898293,8.97958202 66.4215426,8.81786494 L66.5411467,8.76979422 C70.1264107,8.61930311 73.603621,8.02441175 76.9657254,7.44929057 L77.1052109,7.4255576 C77.8724682,7.29448202 78.6397254,7.16340645 79.4094274,7.03829565 C79.8251586,6.97001394 80.3124119,7.00674638 80.7827702,7.04304393 L81.0326704,7.06463185 C81.3656844,7.1183056 81.8650949,7.61219811 81.8842923,7.81160657 C81.9725509,8.6936188 82.0522616,9.50845048 81.9565074,10.2531895 C81.6491782,12.6705759 81.2535676,15.1097346 80.8707597,17.4683456 C80.8707597,17.4683456 80.0327075,22.4207243 79.6690505,24.4453899 C79.6037154,24.8066357 79.4724451,25.1842541 79.3293422,25.5722788 C79.1978762,25.9297822 78.5480724,26.2824682 77.9368618,26.1860038 C77.5801375,26.1107354 77.0924291,25.5930267 77.0762834,25.4242261 C77.0995812,24.9503459 77.1946075,23.9042294 77.3023234,22.6715475 L77.3156425,22.5308288 C77.8224642,16.8020273 77.7863521,14.7879102 77.7837091,14.7049247 L77.7641112,13.8036226 L76.4339727,15.277417 C76.0983568,15.5603005 14.9958916,81.6595634 9.37838131,148.471987 C9.34176966,148.907431 8.24150871,150 7.12575183,150 C6.00144614,150 5.99149522,148.50955 6.00144614,148.319497 Z" id="Fill-6"></path>
    </g>
  </g>
</svg>
