<svg xmlns="http://www.w3.org/2000/svg" viewBox="0 0 108 128"><path d="M105.5 28.3c-1.2-2.8-2.7-5.5-4-8.2-2.7-5.5-5.3-11-7.8-16.6L92.2 0l-2.5 2.8c-2.1 2.4-4.4 4.7-6.8 6.8-2.3 2.2-4.7 4.3-7.1 6.4l-3.6 3.2-1.8 1.6c-.6.5-1.2 1.1-1.7 1.7-2 2.6-4 5.1-6 7.7 2.8-1.7 5.6-3.4 8.3-5.1.7-.4 1.3-.9 1.9-1.5l1.8-1.6 3.6-3.2c2.4-2.1 4.8-4.3 7.2-6.3 1.3-1.1 2.6-2.2 3.9-3.2l-.4 1.3c-1.1 3.3-2.1 6.6-2.8 9.9-.8 3.3-1.6 6.7-2.6 10-.9 3.3-2 6.5-3.1 9.8C76 53.3 70 65.7 62.7 77.2 55.3 88.7 46.2 99 35.6 107.7c-1.3 1.1-2.7 2.1-4 3.1-1.3 1-2.8 2-4.2 2.9s-2.9 1.9-4.3 2.7c-.7.4-1.5.9-2.2 1.3s-1.5.8-2.3 1.1l-2.3 1.1c-.8.4-1.5.8-2.2 1.2l-2.2 1.2c-.8.4-1.5.8-2.3 1.2l-2.3 1.2-2.3 1.1c-1.6.8-3.2 1.4-4.8 2.2 3.5-.3 7-.9 10.4-1.8 3.5-.8 6.8-2.1 10-3.7 3.1-1.7 6.2-3.5 9.1-5.4 1.5-1 2.9-2 4.4-3 1.5-1 2.8-2.1 4.2-3.2 10.7-9 20.2-19.6 27.7-31.5 7.5-11.8 13.7-24.5 18.3-37.8 1.1-3.3 2.3-6.6 3.2-10s1.8-6.7 2.8-10.1c.5-1.7.8-3.4 1.1-5.1.3-1.7.4-3.5.6-5.2v-.3c2 3.6 4 7.3 5.9 11 1.4 2.7 2.8 5.4 4.3 8 1.9 2.5 3.7 5 5.7 7.4-.6-3-1.5-6-2.4-9z" fill="#fff"/></svg>
