<?xml version="1.0" encoding="UTF-8"?>
<svg viewBox="0 0 39 93" version="1.1" xmlns="http://www.w3.org/2000/svg"
     xmlns:xlink="http://www.w3.org/1999/xlink">
  <title>Arrow-3</title>
  <desc>Created with Sketch.</desc>
  <g id="Page-1" stroke="none" stroke-width="1" fill="none" fill-rule="evenodd">
    <g id="01_Coral_onboarding_update---MOBILE" transform="translate(-210.000000, -65.000000)" fill="#FFFFFF">
      <g id="Group-12" transform="translate(58.000000, 63.000000)">
        <path
          d="M152.635928,95 C152.454114,94.9901632 152.288196,94.9114689 152.168973,94.7786721 C152.050745,94.6488265 151.991133,94.4796336 152.001069,94.3055224 C154.692515,45.6232296 184.67398,7.69747099 184.976011,7.34531377 L186.190092,5.97603207 L185.318775,6.11079615 C185.199553,6.13046973 182.373981,6.56919074 181.780849,6.71575897 C181.094326,6.88691918 180.409791,7.05709571 179.719294,7.21153338 C179.146033,7.34039538 178.522102,7.4633553 177.85545,7.48893096 C177.642836,7.48794728 177.332858,7.36597104 177.032815,7.24694583 C176.778474,7.14562686 176.519165,6.71772633 176.554932,6.29376051 C176.581757,5.98783622 176.737739,5.78126355 177.094413,5.5786256 L177.192772,5.51960484 C180.321367,4.88808267 183.292987,3.8798113 186.166248,2.90498503 L186.28547,2.86465418 C186.941194,2.64234264 187.596917,2.4200311 188.255621,2.20263795 C188.611302,2.08459643 189.044477,2.04918397 189.462749,2.01573887 L189.685297,2 C189.98534,2.00098368 190.493029,2.36691241 190.537738,2.54003998 C190.738429,3.30534254 190.92223,4.01260802 190.942101,4.68249368 C191.00966,6.85642512 191.002705,9.0618343 190.995751,11.1944512 C190.995751,11.1944512 190.951042,15.6770782 190.914282,17.5126239 C190.907327,17.8401891 190.844736,18.1913627 190.773202,18.5533567 C190.70763,18.886824 190.186032,19.2881652 189.635621,19.2881652 C189.311734,19.2714426 188.810999,18.8828893 188.773246,18.736321 C188.727544,18.3153063 188.664952,17.3798272 188.587457,16.2781063 L188.579509,16.1521953 C188.224822,11.0311604 187.911863,9.26053753 187.897954,9.18774526 L187.754887,8.39588335 L186.792166,9.88025555 C186.536831,10.176343 158.740117,42.4292227 153.896705,93.9494304 C153.859945,94.3320817 153.01744,95 152.670701,95 L152.635928,95 Z"
          id="Arrow-3"></path>
      </g>
    </g>
  </g>
</svg>
