<?xml version="1.0" encoding="UTF-8"?>
<svg viewBox="0 0 18 39" version="1.1" xmlns="http://www.w3.org/2000/svg"
     xmlns:xlink="http://www.w3.org/1999/xlink">
  <title>Arrow-4</title>
  <desc>Created with Sketch.</desc>
  <g id="Page-1" stroke="none" stroke-width="1" fill="none" fill-rule="evenodd">
    <g id="01_Coral_onboarding_update---MOBILE" transform="translate(-284.000000, -65.000000)" fill="#FFFFFF">
      <g id="Group-12" transform="translate(58.000000, 63.000000)">
        <path
          d="M226.891295,41 C226.761004,41 226.635764,40.962035 226.527693,40.8881033 C226.179241,40.6493237 225.87624,39.9829388 226.050971,39.7661389 C232.994758,31.0861512 235.337971,7.82762066 235.362211,7.62081156 L235.487451,6.47387027 L234.781458,7.39302183 C234.775397,7.40001537 234.210804,8.12934215 231.733261,10.9067784 C231.330269,11.3593606 230.641445,12.0267445 229.841521,12.7990317 L228.926456,13.6882109 L228.926456,13.6872118 C228.920396,13.6872118 228.831516,13.7311712 228.621434,13.7311712 C228.326513,13.7311712 228.053811,13.6452505 227.936651,13.5593298 C227.548809,13.2755918 227.391248,12.6281894 227.552849,12.3324623 C227.709399,12.0477252 229.175927,10.0315862 230.515195,8.41308023 L230.636395,8.26421765 C231.956472,6.66669228 233.32099,5.01521672 234.727927,3.42468491 C235.16122,2.93213956 235.750053,2.50753151 236.319696,2.09790962 C236.409586,2.03396864 236.515637,2 236.685318,2 C237.007509,2 237.294351,2.10989856 237.378181,2.18982478 L237.492312,2.30072241 C237.795314,2.58945589 238.106395,2.88618199 238.305366,3.20089148 C238.622508,3.69943129 239.430513,4.99423609 239.430513,4.99423609 C240.722309,7.06932063 242.65647,9.79080848 243.482654,10.9527359 L243.828076,11.441285 C244.014927,11.7150323 244.081588,12.1915924 243.863426,12.4843222 C243.751316,12.6341838 243.316003,12.8429911 242.859481,12.8429911 C242.64839,12.8429911 242.350438,12.7980326 242.131267,12.5822318 C241.418203,11.8748847 240.80614,11.0206732 240.420318,10.4292192 C239.02651,8.29518906 238.107405,7.27413157 238.068015,7.2321703 L237.602403,6.71664617 L237.506452,7.40201353 C237.471102,7.65178297 235.077389,32.2730556 227.440738,40.6972794 C227.276107,40.8791116 227.087236,41 226.891295,41"
          id="Arrow-4"></path>
      </g>
    </g>
  </g>
</svg>
