<svg xmlns="http://www.w3.org/2000/svg" width="69" height="87" viewBox="0 0 69 87">
    <path fill="#FFF" fill-rule="evenodd" d="M.856 86.631c1.234.124 1.615-2.827 2.069-4.93.455-2.1 7.435-23.933 25.945-47.122C41.68 18.533 61.855 9.678 61.977 9.624l.761-.277-3.855 7.36c-.48.921-.715 2.12-.548 2.788.036.143.107.33.245.403 1.139.617 1.985-.272 2.494-1.126.582-.974 1.855-2.737 2.523-3.898 1.231-2.141 2.628-4.565 3.88-6.922.383-.717.612-1.57.835-2.395a.579.579 0 0 0 .003-.332c-.1-.401-.416-.82-.622-.912l-.18-.083c-.468-.214-.95-.438-1.412-.526-.87-.167-1.74-.326-2.608-.486-3.5-.643-10.12-2.205-10.864-2.523-.506-.217-1.07.208-1.26.483-.23.333-.297.668-.209 1.023.119.434.672.969.92 1.093.703.355 1.484.605 2.085.782.82.243 4.708 1.307 4.708 1.307.317.076 2.709.876 2.709.876l-.665.242c-.242.091-20.361 8.274-35.145 26.622C13.252 48.66 4.98 67.573 2.154 75.67 1.332 78.029.701 80.906.327 83.25c0 0-.534 3.272.529 3.38"/>
</svg>
