<svg width="21" height="17" xmlns="http://www.w3.org/2000/svg"><path d="M18.633 8.108c1.06-.584 1.829-1.783 1.829-3.567 0-2.936-1.107-4.227-5.258-4.227H9.347v6.518H6.38V3.358H3.474v3.474H0v2.906h3.474v3.474H6.38V9.738h2.967v.015h6.011c1.23 0 2.09.4 2.09 2.045 0 1.49-.676 2.013-2.013 2.013h-2.568v-2.32l-3.52-1.723v6.918h6.195c3.951 0 5.458-1.783 5.458-4.596-.015-2.014-.769-3.352-2.367-3.982zM15.08 6.986h-2.214V4.664L9.347 3.19h5.765c1.337 0 1.86.676 1.86 1.89-.015 1.4-.553 1.907-1.89 1.907z" fill="#004696"/></svg>