<svg viewBox="0 0 17 17" xmlns="http://www.w3.org/2000/svg"><path d="M8.513 17a8.5 8.5 0 0 1-7.31-12.86.34.34 0 0 1 .59.34 7.82 7.82 0 0 0 11.36 10.31l.44.51h-.05a8.43 8.43 0 0 1-5.03 1.7zm7-4a.31.31 0 0 1-.18 0 .33.33 0 0 1-.11-.46 7.94 7.94 0 0 0 1.11-4 7.78 7.78 0 0 0-1.53-4.64A7.88 7.88 0 0 0 8.493.68a7.78 7.78 0 0 0-4.64 1.53l-.41-.54a8.5 8.5 0 0 1 13.56 6.82 8.58 8.58 0 0 1-1.21 4.39.36.36 0 0 1-.29.12h.01zm-2.14-3.9a.85.85 0 0 1-.24.59l-2.77 2.77a.83.83 0 0 1-1.18 0 .8.8 0 0 1-.25-.56v-1.5h-1.78a3.28 3.28 0 0 1-2.54-5 2.58 2.58 0 0 0 2.57 2.45h1.74V6.29a.76.76 0 0 1 .25-.56.83.83 0 0 1 1.19 0l2.76 2.77.1.12.06.13a.87.87 0 0 1 .09.35z" fill="#084D8D"/></svg>