<svg xmlns="http://www.w3.org/2000/svg" viewBox="0 0 566.9 99.2"><path fill="#fff" d="M230.7 91s18.9-53.8 23.9-64.9c5-11.1 5.2-11.1 13.1-11 8.9.1 13.2 6.1 10 13.4-3 6.8-8.2 16.7-30.5 23.8l-.5 3.7 15.6 35h27.6s-3.7-5.9-8.6-14.6c-6.3-11.3-8.2-16.1-11.9-24.3 13.1-3.8 28.6-9.3 32.1-23.9 4.3-18-21.2-17-29.9-17.1h-41.2l-1.7 5c6.3 1.2 5 4.8 2.3 12.6-7.2 20.7-10.9 29.8-16.4 43.9-5.6 14-7.1 18.5-7.1 18.5h23.2zM164 11.1c-15 .2-52.9 4.6-61.9 47C97 82 112.9 94.3 143.4 94c15-.2 52.9-4.6 61.9-47 5.2-23.9-10.7-36.2-41.3-35.9m16.7 38.6c-9.8 33.5-29.1 37.6-36.6 37.3-15.2-.7-21.5-12.7-16-31.6 9.8-33.5 29.1-37.6 36.6-37.3 15.2.7 21.5 12.7 16 31.6m254.1-39l-1.7 4.9c4.1 1.1 6.1 4.1 3.8 12.3-3.3 11.8-23.9 63.7-23.9 63.7s65.8 0 66.4-.1l4.8-14.4H444c5.5-13.9 23.2-66.4 23.2-66.4h-32.4zm-78.6 7.8c-3.4 3.9-54.1 72.9-54.1 72.9h22.1l19.1-25.8h29.5l6.8 25.9h23.7S386 21.7 384.1 15.4c-1.9-6.4-19.9-6.1-27.9 3.1m14.2 39.6h-22.8c-.3 0-.7-.5-.4-.8.6-1 13.1-18.4 18.9-25.9 0 0 1.9 13.4 5.2 26 .1.4-.3.7-.9.7M41.6 83.9C27.1 83.1 24.1 71.4 28 53.7c6.9-31.6 25.6-33 32.8-32.5 8.4.5 10.5 4.2 12.5 10.4h23.6C92 20.6 80.4 10.1 56 10.8 48.3 11 7 15.3.4 53.2c-2.1 12.2 4.1 40.1 43.4 39 5.8-.2 33.1-1 42.8-20.1h-25c-5.3 10.5-15.3 12.1-20 11.8"/><path fill="#ef3340" d="M488.7 64.6c7.5-5.8 19.4-13.6 32.6-11.2 10 1.8 14.8 2.3 22.3-.3-7.2-2.1-10.5-5.5-14.4-10.9 6.6-2.2 8.8-2.6 17.4-7.9-1.5-1.2-6.9-5.7-16.8-5.8-14.2-.1-22.1 4.8-33.1 11.9l-8 24.2z"/><path fill="#ffcd00" d="M566.9 14.2c-3.5 3.5-9.7 9.2-23.2 3.8-13.5-5.4-24.3 1.5-27.2 3L509 43.4c8.3-5 17.6-9.5 27.5-5.7 9.9 3.8 14.5 3.3 23.1-1.3l7.3-22.2z"/><path fill="#78be20" d="M499.4 32.7c11-7.1 18.9-12 33.1-11.9 12.2.1 20-1.3 30.5-15.7-10.4 5.5-16.8 6.3-27.9 2.9-11.1-3.4-19.4-1.4-28.5 3.4l-7.2 21.3z"/></svg>