<svg width="21" height="18" xmlns="http://www.w3.org/2000/svg" xmlns:xlink="http://www.w3.org/1999/xlink"><defs><path id="a" d="M.226.051H16.81V18H.226z"/><path id="c" d="M0 .534h11.026V11.97H0z"/></defs><g fill="none" fill-rule="evenodd"><path d="M5.155 6.287h.8a6.034 6.034 0 0 1-.496-.983 5.225 5.225 0 0 0-.71.06c.112.309.245.62.406.923m2.255-.62c.14.775.323 1.577.565 2.362-.299-.11-.67-.32-1.124-.7-.074-.061-.141-.13-.21-.197v.923c.649.497 1.186.72 1.607.779.136.366.29.719.455 1.064h1.275v1.816c.256.232.516.415.767.56.104-.435.165-.887.165-1.355 0-2.401-1.459-4.45-3.5-5.252" fill="#084D8D"/><g transform="translate(3.938)"><mask id="b" fill="#fff"><use xlink:href="#a"/></mask><path d="M14.123 7.33c-.442.369-.816.583-1.124.698.678-2.198.903-4.54.974-5.974l2.037-.001c.024-.002.07.005.085.02.01.009.026.048.026.131 0 .141-.023 3.475-1.998 5.126m2.43-5.793a.809.809 0 0 0-.588-.199h-1.964c.006-.244.008-.43.008-.537 0-.836-.719-.747-.719-.747H3.746S3.028-.035 3.028.8c0 .107.001.293.007.537H1.071a.809.809 0 0 0-.588.199c-.117.109-.257.313-.257.667 0 .062.005.673.149 1.503.223-.04.45-.07.68-.087a9.048 9.048 0 0 1-.14-1.416c0-.083.017-.122.027-.131.015-.015.064-.02.077-.02a.39.39 0 0 0 .04.002h2.004c.024.487.07 1.085.14 1.741 3.12.765 5.451 3.664 5.451 7.123a7.48 7.48 0 0 1-.88 3.532c.061.465.105.907.105 1.228 0 .83-.552 1.485-.883 1.485h-1.2V18h5.445v-.836h-1.2c-.278 0-.883-.655-.883-1.485 0-.776.25-2.247.408-3.095.733-.264 1.706-.846 2.43-2.138.282-.504.522-1.05.73-1.612.469-.066 1.075-.316 1.83-.946 2.23-1.863 2.255-5.529 2.255-5.684 0-.354-.14-.558-.258-.667" fill="#084D8D" mask="url(#b)"/></g><g transform="translate(0 4.667)"><mask id="d" fill="#fff"><use xlink:href="#c"/></mask><path d="M6.64 7.255v3.63H4.367v-3.63h-3.32V5.231h3.32v-3.61H6.64v3.61h3.338v2.024H6.64zM5.513.534C2.468.534 0 3.094 0 6.252s2.468 5.718 5.513 5.718c3.044 0 5.513-2.56 5.513-5.718S8.557.534 5.513.534z" fill="#084D8D" mask="url(#d)"/></g></g></svg>