<svg width="21" height="18" xmlns="http://www.w3.org/2000/svg"><path d="M18.06 7.33c1.976-1.651 1.999-4.985 1.999-5.126 0-.083-.017-.122-.027-.131-.015-.015-.06-.022-.084-.02l-2.037.001c-.072 1.434-.297 3.776-.974 5.974.308-.115.681-.329 1.123-.698zm1.843-5.992a.809.809 0 0 1 .588.199c.117.109.257.313.257.667 0 .155-.025 3.821-2.255 5.684-.755.63-1.36.88-1.829.946a11.541 11.541 0 0 1-.73 1.612c-.724 1.292-1.698 1.874-2.43 2.138-.158.848-.409 2.319-.409 3.095 0 .83.605 1.485.883 1.485h1.2V18H9.733v-.836h1.2c.331 0 .884-.655.884-1.485 0-.321-.044-.763-.106-1.228a7.48 7.48 0 0 0 .88-3.532c0-3.459-2.33-6.358-5.45-7.123a30.174 30.174 0 0 1-.14-1.741H4.996a.39.39 0 0 1-.04-.003c-.012.001-.061.006-.077.021-.01.009-.026.048-.026.131 0 .057.004.638.14 1.416-.23.018-.457.047-.681.087a9.73 9.73 0 0 1-.149-1.503c0-.354.14-.558.258-.667a.809.809 0 0 1 .588-.199h1.963c-.005-.244-.007-.43-.007-.537 0-.836.719-.747.719-.747h9.544s.718-.089.718.747c0 .107-.001.293-.008.537h1.965zM6.64 11.922h3.338V9.898H6.64v-3.61H4.367v3.61h-3.32v2.024h3.32v3.63H6.64v-3.63zM5.513 5.2c3.044 0 5.513 2.56 5.513 5.72 0 3.157-2.469 5.717-5.513 5.717C2.468 16.637 0 14.077 0 10.92 0 7.76 2.468 5.2 5.513 5.2z" fill-rule="evenodd"/></svg>