<svg width="26" height="23" xmlns="http://www.w3.org/2000/svg"><path d="M18.344 2.426L19.54 1.28v3.77h-3.942l1.948-1.863c-1.104-1.297-2.48-1.907-4.166-1.865-2.013.05-3.695.987-5.081 2.848l-.326.437-.918-.63.325-.436C8.961 1.418 10.96.305 13.342.245c2.01-.05 3.689.686 5.002 2.18zM11.628 18.75a7.763 7.763 0 0 1-.713-1.587l-.43-.324c.088-.12.17-.246.242-.376a7.855 7.855 0 0 1 .119-3.84l-.286.199a3.48 3.48 0 0 0-.333-.415l1.103-1.047C12.587 8.778 15.223 7 18.273 7 22.54 7 26 10.482 26 14.778c0 4.295-3.46 7.778-7.727 7.778A7.673 7.673 0 0 1 13 20.464a7.766 7.766 0 0 1-.747.618l-2.516-3.5a3.47 3.47 0 0 0 .404-.346l1.487 1.514zm-3.9 3.806v-4.321c.179 0 .355-.014.529-.041l.653 4.27a7.65 7.65 0 0 1-1.183.092zm2.348-.367l-1.304-4.117c.168-.054.33-.12.488-.2l1.92 3.865c-.355.18-.724.33-1.104.452zm2.406-13.543l-2.643 3.405a3.442 3.442 0 0 0-.44-.294l2.093-3.773c.346.195.677.416.99.662zM10.33 7.453L8.884 11.52a3.376 3.376 0 0 0-.508-.139l.804-4.244c.392.075.776.18 1.15.315zm-2.251-.445l-.193 4.317a3.488 3.488 0 0 0-.535.016l-.462-4.296a7.769 7.769 0 0 1 1.19-.037zm-2.363.259l1.115 4.172c-.17.046-.335.105-.496.177L4.592 7.667a7.653 7.653 0 0 1 1.124-.4zm-2.216 1l2.35 3.615a3.46 3.46 0 0 0-.419.325L2.56 8.995c.295-.266.61-.51.941-.729zM1.746 9.852l3.322 2.737a3.471 3.471 0 0 0-.303.437l-3.699-2.194c.202-.344.43-.671.68-.98zM.513 11.986l4.007 1.551a3.43 3.43 0 0 0-.15.508l-4.197-.91c.084-.392.198-.776.34-1.149zm-.499 2.316l4.285.261a3.567 3.567 0 0 0 .007.516l-4.278.368a7.903 7.903 0 0 1-.014-1.145zm.207 2.33l4.17-1.028a3.4 3.4 0 0 0 .165.503L.594 17.771a7.77 7.77 0 0 1-.373-1.14zm.94 2.247l3.646-2.28c.093.15.198.294.313.429l-3.257 2.815a7.794 7.794 0 0 1-.702-.964zm1.537 1.804l2.795-3.28c.135.116.277.222.427.315L3.657 21.39a7.749 7.749 0 0 1-.959-.707zm2.087 1.288l1.635-3.995c.162.067.33.122.5.163l-1.002 4.202a7.649 7.649 0 0 1-1.133-.37zm2.405.566l.295-4.31c.08.005.161.008.242.008v4.32c-.18 0-.359-.006-.537-.018zm8.489-7.517v.392h.975v1.296a.82.82 0 0 1-.072.355.854.854 0 0 1-.192.263c-.08.075-.174.136-.28.184a1.781 1.781 0 0 1-.328.112v.77h4.915a.534.534 0 0 0 .4-.172.559.559 0 0 0 .11-.171.485.485 0 0 0 .04-.184v-.516h-3.008c-.13 0-.256.007-.38.022a4.096 4.096 0 0 0-.369.062c.144-.145.258-.304.341-.474.084-.17.126-.365.126-.583v-.964h1.74a.354.354 0 0 0 .256-.099.3.3 0 0 0 .103-.218v-.487h-2.099V13.43c0-.397.087-.707.262-.93.174-.224.438-.336.79-.336.113 0 .213.012.3.035a.873.873 0 0 1 .239.102c.072.044.14.097.202.158.064.062.128.129.193.202a.426.426 0 0 0 .295.158.672.672 0 0 0 .341-.079l.508-.313a2.994 2.994 0 0 0-.326-.509 2.006 2.006 0 0 0-.441-.41 2.16 2.16 0 0 0-.58-.275 2.447 2.447 0 0 0-.731-.102 2.68 2.68 0 0 0-1.037.184 2.068 2.068 0 0 0-.733.499c-.195.21-.341.455-.439.735-.097.28-.146.575-.146.886v1.172h-.55c-.143 0-.25.04-.32.122a.43.43 0 0 0-.105.29z"/></svg>