<svg viewBox="0 10 72 38" xmlns="http://www.w3.org/2000/svg"><path d="M62.11 23.877a30.55 30.55 0 0 1 2.967 13.192H72C72 16.596 55.882 0 36 0S0 16.596 0 37.07h6.923a30.55 30.55 0 0 1 2.968-13.193l4.057 2.342a1.612 1.612 0 0 0 2.199-.588l.237-.41c.44-.762.18-1.755-.59-2.2l-4.111-2.373a29.687 29.687 0 0 1 8.315-8.582l2.107 3.65a1.612 1.612 0 0 0 2.199.59l.411-.237a1.616 1.616 0 0 0 .588-2.199l-2.125-3.68a28.258 28.258 0 0 1 11.437-3.028v4.772c0 .886.72 1.61 1.61 1.61h.474c.88 0 1.609-.72 1.609-1.61V7.222a28.27 28.27 0 0 1 11.046 3.244L47.39 13.87c-.444.77-.173 1.76.588 2.2l.411.237c.77.444 1.756.176 2.199-.59l1.909-3.307c3.094 2.199 5.755 5 7.821 8.238l-4.11 2.374a1.616 1.616 0 0 0-.591 2.198l.237.411a1.612 1.612 0 0 0 2.2.588l4.056-2.342z" fill="#FFF" fill-rule="evenodd"/></svg>