<svg width="21" height="18" xmlns="http://www.w3.org/2000/svg"><path d="M14.621 5.042l.81-3.975v-.18a.83.83 0 0 0-.285-.63c-.21-.18-.465-.27-.735-.255h-1.44l-1.05 5.04H9.266l.975-5.04h-1.44c-.315 0-.63.09-.885.27-.24.195-.405.48-.465.78l-.795 4.005h-1.44c-.36-.03-.72.06-1.02.225-.21.18-.36.435-.405.705l-.24 1.29h2.775l-.675 3.42h-2.46l-.18.975c-.015.135-.015.27 0 .405a.81.81 0 0 0 .21.63c.18.135.405.21.63.195h1.44l-.975 5.07h1.425c.33 0 .645-.09.915-.255.3-.195.495-.51.54-.855l.75-3.96h2.67l-.765 3.795v.24c0 .27.09.525.285.735.165.195.42.3.675.3h1.44l.99-5.07 2.85-.015.165-.96c.015-.135.015-.27 0-.405a.844.844 0 0 0-.21-.645.955.955 0 0 0-.63-.195h-1.77l.66-3.42h1.29c.36.03.705-.06 1.005-.24.225-.18.36-.435.405-.705l.24-1.29h-2.625v.015zm-3.675 5.655H8.291l.675-3.42h2.64l-.66 3.42z" fill="#004696"/></svg>