<svg data-name="Layer 1" xmlns="http://www.w3.org/2000/svg" viewBox="0 0 30 12"><rect width="30" height="12" rx="2" ry="2" fill="#78be20"/><path d="M4.91 3.11h.9a.4.4 0 0 1 .19.06.32.32 0 0 1 .13.18l1 3.46c0 .09 0 .18.07.28s0 .21.06.32c0-.11 0-.22.07-.32s.05-.19.08-.28l1.16-3.46a.38.38 0 0 1 .13-.17.35.35 0 0 1 .23-.08h.32a.39.39 0 0 1 .23.07.35.35 0 0 1 .13.18l1.13 3.46a4.5 4.5 0 0 1 .15.57l.06-.3c0-.1 0-.19.06-.27l1-3.46a.32.32 0 0 1 .12-.17.38.38 0 0 1 .23-.07h.84l-1.8 5.78h-1l-1.26-4v-.35L9 4.78v.16l-1.28 4h-1zM19.36 6a3.2 3.2 0 0 1-.21 1.18 2.79 2.79 0 0 1-.6.94 2.69 2.69 0 0 1-.92.62 3.33 3.33 0 0 1-2.39 0 2.69 2.69 0 0 1-.93-.62 2.75 2.75 0 0 1-.6-.94A3.2 3.2 0 0 1 13.5 6a3.2 3.2 0 0 1 .21-1.18 2.75 2.75 0 0 1 .6-.94 2.71 2.71 0 0 1 .93-.62 3.12 3.12 0 0 1 1.2-.26 3.09 3.09 0 0 1 1.2.22 2.74 2.74 0 0 1 .92.62 2.77 2.77 0 0 1 .6.94 3.2 3.2 0 0 1 .2 1.22zm-1.1 0a2.7 2.7 0 0 0-.13-.85 1.81 1.81 0 0 0-.36-.64 1.55 1.55 0 0 0-.57-.4 2.15 2.15 0 0 0-1.53 0 1.56 1.56 0 0 0-.58.4 1.8 1.8 0 0 0-.37.64 2.64 2.64 0 0 0-.12.85 2.63 2.63 0 0 0 .13.85 1.77 1.77 0 0 0 .37.64 1.57 1.57 0 0 0 .58.4 2.15 2.15 0 0 0 1.53 0 1.56 1.56 0 0 0 .57-.4 1.78 1.78 0 0 0 .36-.64 2.69 2.69 0 0 0 .12-.85zm2.64-2.89h.09l.07.05.08.09 3 3.87V3.11h.95v5.78h-.56a.49.49 0 0 1-.21 0 .46.46 0 0 1-.16-.14l-3-3.85v3.99h-.95V3.11h.68z" fill="#fff"/></svg>