<svg id="Layer_1" xmlns="http://www.w3.org/2000/svg" viewBox="0 0 450 270"><style>.st1{fill:#f90}</style><ellipse cx="134.6" cy="135" rx="134.6" ry="135" fill="#c00"/><path class="st1" d="M315.4 0c-34.8 0-66.5 13.2-90.4 34.9-4.9 4.4-9.4 9.2-13.6 14.3h27.2c3.7 4.5 7.1 9.3 10.3 14.3h-47.7c-2.9 4.6-5.5 9.4-7.8 14.3h63.2c2.2 4.6 4.1 9.4 5.7 14.3h-74.6c-1.6 4.7-2.9 9.4-3.9 14.3h82.5c2 9.2 3 18.8 3 28.6 0 15-2.4 29.4-6.9 42.9h-74.6c1.6 4.9 3.5 9.7 5.7 14.3h63.2c-2.3 4.9-4.9 9.7-7.8 14.3h-47.7c3.1 5 6.5 9.8 10.3 14.3h27.2c-4.2 5.1-8.7 9.9-13.6 14.3 23.9 21.7 55.6 34.9 90.4 34.9 74.4 0 134.6-60.4 134.6-135C450 60.4 389.7 0 315.4 0z"/><path class="st1" d="M432.1 210.3c0-2.4 1.9-4.4 4.4-4.4 2.4 0 4.3 1.9 4.3 4.4s-1.9 4.4-4.3 4.4c-2.5-.1-4.4-2-4.4-4.4zm4.3 3.3c1.8 0 3.3-1.5 3.3-3.3 0-1.8-1.5-3.3-3.3-3.3-1.8 0-3.3 1.5-3.3 3.3 0 1.8 1.5 3.3 3.3 3.3zm-.6-1.4h-.9v-3.8h1.6c.3 0 .7 0 1 .2.3.2.5.6.5 1s-.2.8-.7 1l.7 1.7h-1l-.6-1.5h-.7v1.4zm0-2.2h.5c.2 0 .4 0 .5-.1.1-.1.2-.3.2-.4 0-.1-.1-.3-.2-.4-.2-.1-.4-.1-.6-.1h-.5v1z"/><path d="M103.2 149.8c-1.5-.2-2.2-.2-3.3-.2-8.3 0-12.5 2.9-12.5 8.5 0 3.5 2 5.7 5.2 5.7 6-.1 10.3-5.8 10.6-14zm10.6 24.8h-12.1l.3-5.8c-3.7 4.6-8.6 6.7-15.3 6.7-7.9 0-13.4-6.2-13.4-15.2 0-13.6 9.4-21.5 25.7-21.5 1.7 0 3.8.2 6 .4.5-1.8.6-2.6.6-3.6 0-3.7-2.5-5.1-9.4-5.1-7.2-.1-13 1.7-15.5 2.5.2-.9 2-12.5 2-12.5 7.3-2.1 12.1-3 17.5-3 12.6 0 19.2 5.7 19.2 16.3 0 2.9-.4 6.4-1.2 11-1.3 8.3-4 25.6-4.4 29.8zm-46.6 0H52.6L61 122l-18.7 52.6h-10l-1.2-52.3-8.8 52.3H8.6L20 106.1h21l1.3 38.3 12.8-38.3h23.4zm266.2-24.8c-1.5-.2-2.2-.2-3.3-.2-8.3 0-12.5 2.9-12.5 8.5 0 3.5 2 5.7 5.2 5.7 6.1-.1 10.4-5.8 10.6-14zm10.7 24.8H332l.3-5.8c-3.7 4.6-8.6 6.7-15.3 6.7-7.9 0-13.4-6.2-13.4-15.2 0-13.6 9.4-21.5 25.7-21.5 1.7 0 3.8.2 6 .4.5-1.8.6-2.6.6-3.6 0-3.7-2.5-5.1-9.4-5.1-7.2-.1-13 1.7-15.5 2.5.2-.9 2-12.5 2-12.5 7.3-2.1 12.1-3 17.5-3 12.6 0 19.2 5.7 19.2 16.3 0 2.9-.4 6.4-1.2 11-1.3 8.3-4.1 25.6-4.4 29.8zm-165.3-.9c-4 1.3-7.1 1.8-10.5 1.8-7.5 0-11.5-4.3-11.5-12.2-.1-2.5 1.1-8.9 2-14.8.8-5.2 6.3-38 6.3-38h14.5l-1.7 8.4h8.8l-2 13.4h-8.8c-1.7 10.6-4.1 23.8-4.1 25.5 0 2.9 1.5 4.1 5 4.1 1.7 0 3-.2 3.9-.5l-1.9 12.3zm44.5-.4c-5 1.5-9.8 2.3-14.9 2.3-16.3 0-24.7-8.5-24.7-24.8 0-19 10.8-33.1 25.4-33.1 12 0 19.6 7.8 19.6 20.1 0 4.1-.5 8.1-1.8 13.7H198c-1 8.1 4.2 11.4 12.6 11.4 5.2 0 9.9-1.1 15.1-3.5l-2.4 13.9zm-8.1-33c.1-1.2 1.5-9.9-6.8-9.9-4.6 0-7.9 3.5-9.3 9.9h16.1zm-92.6-3.8c0 7 3.4 11.9 11.1 15.5 5.9 2.8 6.8 3.6 6.8 6.1 0 3.5-2.6 5-8.4 5-4.4 0-8.4-.7-13.1-2.2 0 0-1.9 12.3-2 12.9 3.3.7 6.3 1.4 15.2 1.6 15.4 0 22.5-5.9 22.5-18.6 0-7.7-3-12.1-10.3-15.5-6.1-2.8-6.8-3.5-6.8-6 0-3 2.4-4.5 7.2-4.5 2.9 0 6.8.3 10.5.8l2.1-12.9c-3.8-.6-9.5-1.1-12.9-1.1-16.3.1-22 8.6-21.9 18.9zm171.8-17.4c4.1 0 7.8 1.1 13.1 3.7l2.4-14.9c-2.1-.8-9.7-5.8-16.1-5.8-9.8 0-18.1 4.9-23.9 12.9-8.5-2.8-12 2.9-16.2 8.6l-3.8.9c.3-1.9.5-3.7.5-5.6H237c-1.8 17.2-5.1 34.7-7.6 51.9l-.7 3.7h14.6c2.4-15.9 3.8-26.1 4.6-33l5.5-3.1c.8-3.1 3.4-4.1 8.6-4-.7 3.6-1 7.5-1 11.4 0 18.2 9.8 29.6 25.5 29.6 4.1 0 7.5-.5 12.9-2l2.6-15.6c-4.8 2.4-8.8 3.5-12.4 3.5-8.5 0-13.6-6.3-13.6-16.7-.2-14.9 7.5-25.5 18.4-25.5zm123.7-13l-3.2 19.8c-4-5.3-8.3-9.1-13.9-9.1-7.4 0-14.1 5.6-18.5 13.9-6.1-1.3-12.4-3.4-12.4-3.4v.1c.5-4.6.7-7.4.6-8.4h-13.4c-1.8 17.2-5.1 34.7-7.6 51.9l-.7 3.7h14.6c2-12.9 3.5-23.5 4.6-32 5-4.5 7.5-8.5 12.5-8.2-2.2 5.4-3.5 11.7-3.5 18.1 0 13.9 7 23.1 17.6 23.1 5.4 0 9.5-1.9 13.5-6.1l-.7 5.2h13.8l11.1-68.5h-14.4zm-18.2 55.6c-5 0-7.5-3.7-7.5-11 0-10.9 4.7-18.7 11.3-18.7 5 0 7.7 3.8 7.7 10.9.1 11.1-4.7 18.8-11.5 18.8z" fill="#006"/><path d="M71.4 170.5H56.8l8.4-52.6-18.7 52.6h-10l-1.2-52.3-8.8 52.3H12.8l11.4-68.4h21l.6 42.3L60 102.1h22.7zm36-24.8c-1.5-.2-2.2-.2-3.3-.2-8.3 0-12.5 2.8-12.5 8.5 0 3.5 2 5.7 5.2 5.7 6.1-.1 10.3-5.7 10.6-14zm10.6 24.8h-12.1l.3-5.8c-3.7 4.6-8.6 6.7-15.3 6.7-7.9 0-13.4-6.2-13.4-15.2 0-13.6 9.4-21.5 25.7-21.5 1.7 0 3.8.2 6 .4.5-1.8.6-2.6.6-3.6 0-3.7-2.5-5.1-9.4-5.1-7.2-.1-13 1.7-15.5 2.5.2-.9 2-12.5 2-12.5 7.3-2.1 12.1-3 17.5-3 12.6 0 19.2 5.7 19.2 16.3 0 2.9-.4 6.4-1.2 11-1.3 8.3-4 25.6-4.4 29.8zm196.1-66.6l-2.4 14.9c-5.2-2.6-9-3.7-13.1-3.7-10.9 0-18.6 10.6-18.6 25.7 0 10.4 5.1 16.7 13.6 16.7 3.6 0 7.6-1.1 12.4-3.5l-2.6 15.6c-5.4 1.5-8.9 2-12.9 2-15.7 0-25.5-11.3-25.5-29.6 0-24.5 13.6-41.6 32.9-41.6 6.5-.1 14 2.7 16.2 3.5zm23.5 41.8c-1.5-.2-2.2-.2-3.3-.2-8.3 0-12.5 2.8-12.5 8.5 0 3.5 2 5.7 5.2 5.7 6.1-.1 10.4-5.7 10.6-14zm10.7 24.8h-12.1l.3-5.8c-3.7 4.6-8.6 6.7-15.3 6.7-7.9 0-13.4-6.2-13.4-15.2 0-13.6 9.4-21.5 25.7-21.5 1.7 0 3.8.2 6 .4.5-1.8.6-2.6.6-3.6 0-3.7-2.5-5.1-9.4-5.1-7.1-.1-13 1.7-15.5 2.5.2-.9 2-12.5 2-12.5 7.3-2.1 12.1-3 17.5-3 12.5 0 19.2 5.7 19.2 16.3 0 2.9-.4 6.4-1.2 11-1.3 8.3-4 25.6-4.4 29.8zm-165.3-.8c-4 1.3-7.1 1.8-10.5 1.8-7.5 0-11.6-4.3-11.6-12.2-.1-2.5 1.1-8.9 2-14.8.8-5.2 6.3-38 6.3-38h14.5l-1.7 8.4h7.5l-2 13.4H180c-1.7 10.6-4.1 23.8-4.1 25.5 0 2.9 1.5 4.1 5 4.1 1.7 0 3-.2 3.9-.5l-1.8 12.3zm44.5-.5c-5 1.5-9.8 2.3-14.9 2.3-16.3 0-24.7-8.5-24.7-24.8 0-19 10.8-33.1 25.4-33.1 12 0 19.6 7.8 19.6 20.2 0 4.1-.5 8.1-1.8 13.7h-28.9c-1 8.1 4.2 11.5 12.6 11.5 5.2 0 9.9-1.1 15.1-3.5l-2.4 13.7zm-8.1-33c.1-1.2 1.5-9.9-6.8-9.9-4.6 0-7.9 3.5-9.3 9.9h16.1zm-92.6-3.7c0 7.1 3.4 11.9 11.1 15.6 5.9 2.8 6.8 3.6 6.8 6.1 0 3.5-2.6 5-8.4 5-4.4 0-8.4-.7-13.1-2.2 0 0-1.9 12.3-2 12.9 3.3.7 6.3 1.4 15.2 1.7 15.4 0 22.5-5.9 22.5-18.6 0-7.7-3-12.1-10.3-15.5-6.1-2.8-6.8-3.5-6.8-6.1 0-3 2.4-4.6 7.2-4.6 2.9 0 6.8.3 10.5.8l2.1-12.9c-3.8-.6-9.5-1.1-12.9-1.1-16.3 0-22 8.6-21.9 18.9zm298.8 38h-13.8l.7-5.2c-4 4.3-8.1 6.2-13.5 6.2-10.6 0-17.6-9.2-17.6-23.1 0-18.5 10.9-34.1 23.8-34.1 5.7 0 10 2.3 14 7.6l3.2-19.8h14.4l-11.2 68.4zm-21.5-12.8c6.8 0 11.6-7.7 11.6-18.8 0-7.1-2.7-10.9-7.7-10.9-6.6 0-11.3 7.8-11.3 18.7-.1 7.3 2.4 11 7.4 11zm-42.7-42.9c-1.8 17.2-5.1 34.7-7.6 51.9l-.7 3.7h14.6c5.2-34.1 6.5-40.7 14.7-39.9 1.3-7 3.7-13.1 5.5-16.2-6.1-1.3-9.5 2.2-14 8.8.4-2.9 1-5.6.9-8.4h-13.4zm-120.3 0c-1.8 17.2-5.1 34.7-7.6 51.9l-.7 3.7h14.6c5.2-34.1 6.5-40.7 14.7-39.9 1.3-7 3.7-13.1 5.6-16.2-6.1-1.3-9.5 2.2-14 8.8.4-2.9 1-5.6.9-8.4h-13.5zm191 51.4c0-2.4 2-4.4 4.3-4.4 2.4 0 4.3 1.9 4.3 4.4 0 2.4-1.9 4.4-4.3 4.4-2.4-.1-4.3-2-4.3-4.4zm4.3 3.3c1.8 0 3.3-1.5 3.3-3.3 0-1.8-1.5-3.3-3.3-3.3-1.8 0-3.3 1.5-3.3 3.3 0 1.8 1.5 3.3 3.3 3.3zm-.6-1.4h-.9v-3.8h1.6c.3 0 .7 0 1 .2.3.2.5.6.5 1s-.2.8-.7 1l.7 1.7h-1l-.6-1.5h-.7v1.4zm0-2.2h.5c.2 0 .4 0 .5-.1.1-.1.2-.3.2-.4 0-.1-.1-.3-.2-.4-.2-.1-.4-.1-.6-.1h-.5v1z" fill="#fff"/></svg>