<svg id="Layer_1" data-name="Layer 1" xmlns="http://www.w3.org/2000/svg" viewBox="0 0 17 17"><path d="M4.6,4.15a1,1,0,0,0,1.09-1h0V1A1,1,0,0,0,3.61,1V3.16a1,1,0,0,0,1,1Zm7.78,0a1,1,0,0,0,1.07-1h0V1a1,1,0,0,0-2.08,0V3.16A1,1,0,0,0,12.38,4.15ZM3,7.59H5.9v2.76H3Zm0,3.75H5.9V14.1H3ZM16.65,1.69H14V3.16a1.61,1.61,0,0,1-3.22,0V1.69H6.24V3.16a1.61,1.61,0,0,1-3.2,0V1.69H.36A.36.36,0,0,0,0,2V16.65A.36.36,0,0,0,.36,17h12a1.19,1.19,0,0,0,.86-.34l3.52-3.91a.75.75,0,0,0,.23-.6V2a.36.36,0,0,0-.36-.34Zm-1,9.91a.5.5,0,0,1-.43.56H13.48a.83.83,0,0,0-1,.91v2.1a.5.5,0,0,1-.56.55H1.56a.21.21,0,0,1-.21-.21V6.17A.21.21,0,0,1,1.56,6H15.48a.21.21,0,0,1,.22.2h0Zm-4.56-4H14v2.76h-2.9ZM7.08,11.34H10V14.1H7.09Zm0-3.76H10v2.76H7.09Z"/></svg>
