<?xml version="1.0" encoding="UTF-8"?>
<svg width="11px" height="11px" viewBox="0 0 11 11" version="1.1" xmlns="http://www.w3.org/2000/svg" xmlns:xlink="http://www.w3.org/1999/xlink">
    <!-- Generator: Sketch 53.2 (72643) - https://sketchapp.com -->
    <title>ICN / Live</title>
    <desc>Created with Sketch.</desc>
    <g id="ICN-/-Live" stroke="none" stroke-width="1" fill="none" fill-rule="evenodd">
        <path d="M5.47048372,0.250047303 L5.46973543,0.250045315 C4.09611749,0.244340522 2.77496269,0.777515442 1.79246099,1.73245156 C-0.267742329,3.79893583 -0.263621881,7.14530587 1.80166392,9.2067042 C3.86686957,11.2680225 7.21104939,11.2639 9.26825285,9.200474 C10.0952585,8.34279521 10.6087256,7.23089959 10.725287,6.0471101 C10.741614,5.86414181 10.75,5.6932738 10.7500004,5.52970186 C10.7449298,2.61470272 8.38365057,0.253426357 5.47048372,0.250047303 Z M5.47143782,-0.249951915 C5.47156254,-0.249951405 5.47168725,-0.249950891 5.47181197,-0.249950373 L5.47106368,-0.249952361 C5.4711884,-0.249952216 5.47131311,-0.249952068 5.47143783,-0.249951915 Z" id="Shape" stroke="#F56B23" stroke-width="0.5" fill-rule="nonzero"></path>
        <path d="M5.48578424,2.82480765 C4.7858232,2.82190063 4.11260032,3.09359139 3.61052716,3.58160015 C2.56104226,4.63428462 2.56314122,6.3389232 3.61521531,7.38901697 C4.6672894,8.43911075 6.37093957,8.43701058 7.42042447,7.38432611 C7.84168517,6.94744112 8.10323203,6.38107025 8.16271373,5.77692385 C8.1705273,5.68936109 8.17521544,5.60179832 8.17521544,5.51423555 C8.17263256,4.02936704 6.96979303,2.82652899 5.48578424,2.82480765 Z" id="Shape-Copy" fill="#F56B23" fill-rule="nonzero"></path>
    </g>
</svg>