<?xml version="1.0" encoding="UTF-8"?>
<svg width="15px" height="17px" viewBox="0 0 15 17" version="1.1" xmlns="http://www.w3.org/2000/svg" xmlns:xlink="http://www.w3.org/1999/xlink">
    <!-- Generator: Sketch 52.2 (67145) - http://www.bohemiancoding.com/sketch -->
    <title>ICN_Alerts_On</title>
    <desc>Created with Sketch.</desc>
    <g id="Icons" stroke="none" stroke-width="1" fill="none" fill-rule="evenodd">
        <g id="ICN/Alerts/On" fill="#FFCD00" fill-rule="nonzero">
            <g id="ICN_Alerts_On">
                <path d="M14.2887097,12.25 C12.7551677,10.102511 11.9093043,7.51354876 11.8693548,4.845 C11.8809532,3.57022582 11.401323,2.34304685 10.5362525,1.43413285 C9.67118207,0.525218844 8.49173906,0.00923930077 7.25806452,0 C4.69446202,0.0274780546 2.63711735,2.19591934 2.66129032,4.845 C2.62134087,7.51354876 1.77547749,10.102511 0.241935484,12.25 C-0.00692456921,12.5684905 -0.0591405655,13.005388 0.107256875,13.376872 C0.273654316,13.748356 0.629783487,13.9899478 1.02580645,14 L13.4903226,14 C13.8889646,13.9955511 14.2500875,13.7560865 14.4200861,13.3834634 C14.5900846,13.0108403 14.5390577,12.5705998 14.2887097,12.25 Z" id="Shape"></path>
                <path d="M7.25806452,17 C8.40790795,17.0002425 9.39906359,16.1641656 9.62903226,15 L4.88709677,15 C5.11706544,16.1641656 6.10822108,17.0002425 7.25806452,17 Z" id="Shape"></path>
            </g>
        </g>
    </g>
</svg>