<svg xmlns="http://www.w3.org/2000/svg" width="522" height="410" viewBox="0 0 522 410">
    <g fill="none" fill-rule="evenodd">
        <g>
            <g>
                <g>
                    <path fill="#3383DB" d="M187.005 1.426c30.094-7.449 62.329 14.285 96.704 65.2L59.9 223.874 12.033 111.105c86.555-65.67 144.88-102.23 174.973-109.68z" opacity=".5" transform="translate(56 -148) translate(-55.138 148.62) rotate(23 -182.851 261.076)"/>
                    <path fill="#0375F1" d="M107.843 7.724L234.092 61.804 46.106 191.379 0 82.759z" transform="translate(56 -148) translate(-55.138 148.62) rotate(23 -182.851 261.076)"/>
                </g>
                <g fill="#F01E28">
                    <path d="M182.523 0L244.182 94.919 44.84 236 37.603 102.904z" transform="translate(56 -148) translate(-55.138 148.62) rotate(-160 245.903 136.535)"/>
                    <path d="M234.39 0.598L296 95.423 61.61 263.598 0 168.774z" opacity=".5" transform="translate(56 -148) translate(-55.138 148.62) rotate(-160 245.903 136.535)"/>
                </g>
            </g>
        </g>
    </g>
</svg>
