
<svg xmlns="http://www.w3.org/2000/svg" xmlns:xlink="http://www.w3.org/1999/xlink" width="36" height="19" viewBox="0 0 36 19">
    <defs>
        <path id="x8d0xltq1a" d="M0 0.087L35.794 0.087 35.794 19 0 19z"/>
        <path id="xi2qt5aq1c" d="M0 0.087L33.288 0.087 33.288 19 0 19z"/>
    </defs>
    <g fill="none" fill-rule="evenodd">
        <g>
            <g>
                <g>
                    <g transform="translate(-255 -82) translate(255 82)">
                        <mask id="9xlvvtuslb" fill="#fff">
                            <use xlink:href="#x8d0xltq1a"/>
                        </mask>
                        <path fill="#FED031" d="M35.794 5.108v-1.7c-.147.028-.299.041-.453.041h-.007c-.262 0-.516-.042-.754-.118-1.01-.316-1.738-1.248-1.738-2.35 0-.315.06-.617.17-.894H2.781c.112.277.17.58.17.894 0 1.055-.667 1.954-1.61 2.307-.228.087-.475.141-.73.157-.053.002-.107.004-.16.004C.3 3.45.148 3.436 0 3.41v1.7c.301 0 .546.242.546.54 0 .297-.245.538-.546.538v1.455c.301 0 .546.244.546.541 0 .298-.245.54-.546.54v1.454c.301 0 .546.242.546.541 0 .298-.245.539-.546.539v1.455c.301 0 .546.242.546.541 0 .297-.245.539-.546.539v1.886c.147-.026.299-.04.453-.04h.016c.253.002.5.04.729.11 1.016.315 1.754 1.251 1.754 2.358 0 .315-.058.617-.17.894h30.23c-.11-.277-.17-.579-.17-.894 0-1.158.806-2.128 1.895-2.394.192-.05.396-.074.604-.074l.138.002c.107.007.213.02.315.038v-1.886c-.301 0-.546-.242-.546-.541 0-.297.245-.539.546-.539v-1.455c-.301 0-.546-.241-.546-.541 0-.297.245-.539.546-.539V8.722c-.301 0-.546-.241-.546-.54 0-.298.245-.54.546-.54V6.187c-.301 0-.546-.241-.546-.538 0-.3.245-.541.546-.541" mask="url(#9xlvvtuslb)"/>
                    </g>
                    <g transform="translate(-255 -82) translate(255 82)">
                        <mask id="67em9gggxd" fill="#fff">
                            <use xlink:href="#xi2qt5aq1c"/>
                        </mask>
                        <path fill="#F8AF2C" d="M2.806.087c.112.277.171.58.171.894 0 1.055-.673 1.954-1.623 2.307-.23.087-.48.141-.738.157-.052.002-.107.004-.16.004-.155 0-.308-.013-.456-.04v1.7c.304 0 .55.242.55.54 0 .297-.246.538-.55.538v1.456c.304 0 .55.243.55.54 0 .298-.246.54-.55.54v1.454c.304 0 .55.242.55.541 0 .298-.246.539-.55.539v1.455c.304 0 .55.242.55.541 0 .297-.246.539-.55.539v1.886c.148-.026.301-.04.457-.04h.016c.255.002.504.04.735.11 1.025.315 1.77 1.251 1.77 2.358 0 .315-.06.617-.172.894h30.482L2.806.087" mask="url(#67em9gggxd)"/>
                    </g>
                    <path stroke="#BD2B1D" d="M31.333 5.298v8.3c-1.305.323-2.293 1.432-2.41 2.781H6.548C6.426 14.981 5.373 13.844 4 13.565V5.331c1.34-.272 2.374-1.359 2.537-2.71h22.397c.158 1.305 1.128 2.362 2.4 2.677z" transform="translate(-255 -82) translate(255 82)"/>
                </g>
                <text fill="#FFF" font-family="HelveticaNeue-Bold, Helvetica Neue" font-size="13" font-weight="bold" transform="translate(-255 -82) translate(255 82)">
                    <tspan x="14" y="14">1</tspan>
                </text>
            </g>
        </g>
    </g>
</svg>
