
<svg xmlns="http://www.w3.org/2000/svg" xmlns:xlink="http://www.w3.org/1999/xlink" width="36" height="19" viewBox="0 0 36 19">
    <defs>
        <path id="1nmhlivhka" d="M0.705 0.517L35.76 0.517 35.76 19 0.705 19z"/>
        <path id="ac2p4jvwwc" d="M0.705 0.517L33.035 0.517 33.035 19 0.705 19z"/>
    </defs>
    <g fill="none" fill-rule="evenodd">
        <g>
            <g>
                <g>
                    <g>
                        <g transform="translate(-303 -82) translate(0 70) translate(303 12)">
                            <mask id="130o1a2ayb" fill="#fff">
                                <use xlink:href="#1nmhlivhka"/>
                            </mask>
                            <path fill="#BD2B1D" d="M35.76 5.423v-1.66c-.144.026-.293.04-.443.04h-.007c-.257 0-.506-.042-.739-.117-.989-.308-1.702-1.218-1.702-2.296 0-.308.059-.603.166-.873H3.43c.11.27.167.565.167.873 0 1.03-.654 1.909-1.578 2.254-.223.085-.465.139-.716.154-.05.002-.104.005-.154.005-.152 0-.3-.014-.444-.04v1.662c.295 0 .534.236.534.526 0 .29-.24.527-.534.527V7.9c.295 0 .534.239.534.529 0 .291-.24.527-.534.527v1.42c.295 0 .534.238.534.53 0 .292-.24.526-.534.526v1.422c.295 0 .534.237.534.53 0 .29-.24.526-.534.526v1.844c.144-.026.292-.04.444-.04h.015c.249.003.49.04.714.107.995.308 1.719 1.224 1.719 2.305 0 .308-.058.603-.167.874h29.605c-.107-.27-.166-.566-.166-.874 0-1.13.79-2.08 1.855-2.34.19-.047.388-.071.593-.071l.135.002c.104.006.208.02.308.037V13.91c-.294 0-.534-.236-.534-.529 0-.29.24-.527.534-.527v-1.422c-.294 0-.534-.234-.534-.528 0-.29.24-.527.534-.527V8.956c-.294 0-.534-.236-.534-.53 0-.29.24-.526.534-.526V6.478c-.294 0-.534-.237-.534-.527 0-.291.24-.528.534-.528" mask="url(#130o1a2ayb)"/>
                        </g>
                        <g transform="translate(-303 -82) translate(0 70) translate(303 12)">
                            <mask id="5enxtulfvd" fill="#fff">
                                <use xlink:href="#ac2p4jvwwc"/>
                            </mask>
                            <path fill="#9D2721" d="M3.43.517c.109.27.166.565.166.873 0 1.03-.653 1.909-1.576 2.254-.224.085-.465.138-.716.154-.051.002-.104.005-.156.005-.15 0-.3-.014-.443-.04v1.662c.294 0 .535.237.535.526 0 .291-.24.527-.535.527V7.9c.294 0 .535.238.535.529 0 .29-.24.526-.535.526v1.422c.294 0 .535.237.535.53 0 .29-.24.525-.535.525v1.422c.294 0 .535.237.535.53 0 .29-.24.525-.535.525v1.845c.144-.026.293-.04.443-.04h.016c.248.003.49.04.713.107.997.308 1.72 1.223 1.72 2.305 0 .31-.058.603-.166.874h29.604L3.431.517" mask="url(#5enxtulfvd)"/>
                        </g>
                        <path stroke="#FEFEFE" stroke-width=".5" d="M31.672 5.608v8.197c-1.284.32-2.255 1.414-2.37 2.746H7.297c-.119-1.38-1.155-2.504-2.505-2.779v-8.13C6.11 5.371 7.128 4.3 7.287 2.964h22.026c.156 1.29 1.108 2.333 2.36 2.643z" transform="translate(-303 -82) translate(0 70) translate(303 12)"/>
                    </g>
                    <text fill="#FFF" font-family="HelveticaNeue-Bold, Helvetica Neue" font-size="13" font-weight="bold" transform="translate(-303 -82) translate(0 70) translate(303 12)">
                        <tspan x="15" y="14">1</tspan>
                    </text>
                </g>
            </g>
        </g>
    </g>
</svg>
