<svg width="174" height="18" xmlns="http://www.w3.org/2000/svg"><g fill="none" fill-rule="evenodd"><path d="M66.505 7.81c-6.479.133-12.959.2-19.435.385-8.936.256-17.868.606-26.802.894a2611.6 2611.6 0 0 1-18.264.515 3.6 3.6 0 0 1-1.47-.297C.258 9.187.016 8.821 0 8.554c-.017-.274.165-.67.424-.816.404-.227.94-.38 1.432-.404 4.917-.221 9.834-.451 14.754-.599 12.433-.373 24.866-.747 37.303-1.038 8.42-.197 16.844-.27 25.266-.364 5.833-.066 11.666-.106 17.5-.099 12.053.014 24.113-.086 36.162.15 9.84.19 19.69.466 29.503 1.225 1.418.11 2.827.293 4.243.418.904.08 1.1 2.514.516 2.45-2.31-.249-4.618-.576-6.94-.693-5.948-.3-11.908-.451-17.857-.753-13.726-.699-27.467-.508-41.204-.572-8.166-.038-16.331.078-25.893.132-1.97.05-5.338.15-8.705.219z" fill="#FFF"/><path d="M157.82 13.269c-3.266 3.29-4.608 2.59-2.51 1.153 0 0 7.644-5.8 14.53-5.934 6.886-.134-.968.392-11.4-6.663" stroke="#FFF" stroke-width="2.5" stroke-linecap="round" stroke-linejoin="round"/></g></svg>