<svg xmlns="http://www.w3.org/2000/svg" viewBox="0 0 16 20" id="bell-icon-off" width="100%" height="100%"><path d="M5.82 2.99C5.878 1.404 6.59.5 7.914.5c1.328 0 2.021.91 2.037 2.492 1.443.52 2.453 1.622 3.024 3.172.049.133.094.267.136.405.191.624.271 1.057.438 2.182.202 1.362.36 1.928.76 2.457.924 1.248 1.181 2.021 1.151 3.035l-.007.203c-.007.165-.01.243-.01.337v.556l-.542.126a31.538 31.538 0 0 1-6.89.8H7.77l-.006-.005v.004a31.573 31.573 0 0 1-6.901-.8L.32 15.34v-.557c0-.093-.003-.171-.01-.336a14.987 14.987 0 0 1-.007-.203c-.03-1.014.227-1.788 1.155-3.041.396-.523.554-1.09.756-2.452.167-1.124.247-1.558.438-2.181a7.59 7.59 0 0 1 .136-.405C3.36 4.61 4.373 3.507 5.82 2.989zm1.017-.256a6.823 6.823 0 0 1 1.049-.078c.37 0 .723.028 1.057.08C8.888 1.854 8.555 1.5 7.914 1.5c-.643 0-.992.357-1.077 1.234zm.878 16.688C5.995 19.39 5 18.379 5 16.647h1.62c0 .847.289 1.146 1.138 1.155.849-.01 1.138-.308 1.138-1.155h1.62c0 1.732-.996 2.743-2.716 2.775a.656.656 0 0 1-.085 0zm.06-4.558l.133.001h.081a30.324 30.324 0 0 0 6.071-.648v-.015c.021-.691-.134-1.16-.872-2.156-.585-.773-.788-1.498-1.024-3.09-.156-1.053-.228-1.444-.391-1.977a6.19 6.19 0 0 0-.111-.33c-.619-1.678-1.815-2.59-3.777-2.593-1.966 0-3.165.912-3.783 2.592a6.19 6.19 0 0 0-.111.33c-.163.533-.236.924-.392 1.978-.236 1.592-.439 2.316-1.02 3.084-.742 1.002-.897 1.47-.877 2.162v.015c1.96.415 3.984.631 6.072.647z"></path></svg>
