<svg data-name="Layer 1" xmlns="http://www.w3.org/2000/svg" viewBox="0 0 17 17"><path d="M4.6 4.15a1 1 0 0 0 1.09-1V1a1 1 0 0 0-2.08 0v2.16a1 1 0 0 0 1 1zm7.78 0a1 1 0 0 0 1.07-1V1a1 1 0 0 0-2.08 0v2.16a1 1 0 0 0 1.01.99zM3 7.59h2.9v2.76H3zm0 3.75h2.9v2.76H3zm13.65-9.65H14v1.47a1.61 1.61 0 0 1-3.22 0V1.69H6.24v1.47a1.61 1.61 0 0 1-3.2 0V1.69H.36A.36.36 0 0 0 0 2v14.65a.36.36 0 0 0 .36.35h12a1.19 1.19 0 0 0 .86-.34l3.52-3.91a.75.75 0 0 0 .23-.6V2a.36.36 0 0 0-.36-.34zm-1 9.91a.5.5 0 0 1-.43.56h-1.74a.83.83 0 0 0-1 .91v2.1a.5.5 0 0 1-.56.55H1.56a.21.21 0 0 1-.21-.21V6.17A.21.21 0 0 1 1.56 6h13.92a.21.21 0 0 1 .22.2zm-4.56-4H14v2.76h-2.9zm-4.01 3.74H10v2.76H7.09zm0-3.76H10v2.76H7.09z"/></svg>