<svg xmlns="http://www.w3.org/2000/svg" xmlns:xlink="http://www.w3.org/1999/xlink" width="22" height="22"><defs><path id="A" d="M0 0h22v22H0z"/></defs><g fill-rule="evenodd"><mask id="B" fill="#fff"><use xlink:href="#A"/></mask><path d="M5.524 16.416h3l1.295 2.2c-1.63-.254-3.135-1.026-4.293-2.2zm-1.067-6.91l-1.15 1.952c-.064-1.06.092-2.124.46-3.12l.69 1.17zm4.376-5.9l1.51 2.565-1.82 3.092H4.876l-.873-1.485a7.74 7.74 0 0 1 4.83-4.171zm5.576 2.322h-3.646L9.322 3.48c.55-.123 1.114-.186 1.678-.186a7.66 7.66 0 0 1 4.217 1.261l-.81 1.373zm4.1 3.334h-1.86l-1.82-3.09.788-1.34c1.43 1.074 2.475 2.632 2.892 4.43zm-7.746-2.85h3.647l1.82 3.092-1.82 3.092h-3.647l-1.82-3.09 1.82-3.092zm-5.68 9.518a7.68 7.68 0 0 1-1.685-3.672l1.48-2.512h3.647l1.82 3.092-1.82 3.093h-3.44zM11 18.708a7.72 7.72 0 0 1-.581-.025l-1.477-2.5 1.82-3.092h3.647l1.82 3.092-.562.956c-1.34 1.025-2.98 1.58-4.665 1.578zM18.707 11c0 1.874-.673 3.593-1.79 4.93h-.27l-1.82-3.092 1.82-3.09h1.956c.068.408.104.826.104 1.253zm-.52 5.416l.024-.03A8.96 8.96 0 0 0 20 11a8.96 8.96 0 0 0-1.788-5.385 9.05 9.05 0 0 0-1.937-1.905C14.742 2.596 12.895 1.998 11 2a8.97 8.97 0 0 0-6.364 2.636 8.98 8.98 0 0 0-1.333 1.697A8.96 8.96 0 0 0 2 11a8.98 8.98 0 0 0 .887 3.902 8.96 8.96 0 0 0 .9 1.483 9.07 9.07 0 0 0 .849.979A8.97 8.97 0 0 0 11 20c.725 0 1.43-.088 2.104-.25.712-.17 1.4-.426 2.025-.754 1.2-.62 2.245-1.503 3.06-2.58z" fill="#252835" mask="url(#B)"/></g></svg>