<svg xmlns="http://www.w3.org/2000/svg" viewBox="0 0 80 80"><path d="M40 0C17.9 0 0 17.9 0 40s17.9 40 40 40 40-17.9 40-40S62.1 0 40 0zm26.1 52.5c-1.1-.4-2.4.2-2.8 1.3-.3.9 0 1.9.7 2.5l3.8 2.2c-2.6 3.9-6 7.2-9.9 9.7L56 65.1c-.2-.4-.6-.6-1-.6-.2 0-.4.1-.6.2-.6.3-.7 1-.4 1.6l1.8 3c-4.2 2.3-8.8 3.6-13.5 3.9v-4.3c0-1.2-1-2.2-2.2-2.2-1.2 0-2.2 1-2.2 2.2v4.4c-4.7-.3-9.2-1.6-13.3-3.8l1.8-3.1c.3-.6.1-1.3-.4-1.6-.2-.1-.4-.2-.6-.2-.4 0-.8.2-1 .6l-1.8 3.1c-4-2.5-7.5-5.8-10.1-9.7l3.7-2.3c1.1-.6 1.4-2 .8-3-.6-1.1-2-1.4-3-.8l-3.8 2.2C8.2 50.5 7 46 6.8 41.4h3.7c.6 0 1.2-.5 1.2-1.2V40c0-.6-.5-1.2-1.2-1.2H6.7c.2-4.7 1.3-9.3 3.4-13.6l3.8 2.2c1.2.4 2.4-.2 2.8-1.4.3-.9 0-1.9-.7-2.5l-3.7-2.3c2.6-3.9 6-7.1 9.9-9.6l1.8 3.1c.1.2.2.3.4.4.4.2.8.2 1.2 0 .6-.3.7-1 .4-1.6l-1.8-3c4.2-2.3 8.8-3.7 13.5-4v4.4c0 1.2 1 2.2 2.2 2.2 1.2 0 2.2-1 2.2-2.2V6.7c4.7.3 9.2 1.6 13.3 3.8l-1.8 3.1c-.3.6-.1 1.3.4 1.6.2.1.4.2.6.2.4 0 .8-.2 1-.6l1.8-3.1c4 2.5 7.5 5.8 10.1 9.7L64 23.6c-1.1.6-1.4 2-.8 3 .6 1.1 2 1.4 3 .8l3.8-2.2c2 4.2 3.2 8.7 3.4 13.3h-3.7c-.6 0-1.2.5-1.2 1.2 0 .4.2.8.6 1 .2.1.4.2.6.2h3.6c-.1 4.7-1.3 9.4-3.4 13.7l-3.8-2.1z"/><path d="M40 15.7c-1.5 0-2.7 1.2-2.7 2.7V39l-9.9 9.9c-1.1 1-1.2 2.6-.3 3.8s2.6 1.2 3.8.3l.3-.3L41.9 42c.5-.5.8-1.2.8-1.9V18.3c0-1.4-1.2-2.6-2.7-2.6z"/></svg>