<svg width="151" height="64" xmlns="http://www.w3.org/2000/svg"><path d="M18.6 18.76L23.56 1h8.32l-8.72 26h-9.6l.68-15.32L9.68 27H.08L.4 1h8.32L7.44 18.76h.08L12.96 1h6.36l-.8 17.76h.08zm27.8-7.36l-.84 4.8h-6.64L38 21.4h7.24l-.92 5.6H28.76l4.52-26h15.56l-1 5.6H40.6l-.84 4.8h6.64zm.12 15.6l4.52-26h8.32l-3.6 20.4h5.4l-.92 5.6H46.52zm28.44-15.96l.52-3c.28-1.6-.12-1.96-1.12-1.96-1.04 0-1.56.36-1.84 1.96l-2.08 11.92c-.28 1.6.08 1.96 1.12 1.96 1 0 1.56-.36 1.84-1.96l.6-3.4h7.8l-.28 1.4c-1.24 7.2-3.36 9.56-10.92 9.56-6.72 0-9.52-1.72-8.24-9.4l1.44-8.24C65.16 2.2 68.64.48 75.36.48c7.56 0 8.84 2.36 7.56 9.56l-.16 1h-7.8zm18.52-3L91.4 19.96c-.28 1.6.08 1.96 1.12 1.96s1.56-.36 1.84-1.96l2.08-11.92c.28-1.6-.08-1.96-1.12-1.96s-1.56.36-1.84 1.96zm11.04 1.84l-1.44 8.24c-1.32 7.68-4.8 9.4-11.52 9.4s-9.52-1.72-8.24-9.4l1.44-8.24C86.12 2.2 89.6.48 96.32.48c6.72 0 9.56 1.72 8.2 9.4zm13.28-1.16l.32 5.56h.08l2.24-5.56 3.4-7.72h8.84l-4.52 26h-7.44l1.4-8.08 1.16-5.76-2.4 5.76-3.56 8.08h-2.72l-.76-8.08-.4-5.76-.84 5.76-1.4 8.08h-7.44l4.52-26h8.84l.68 7.72zm30.4 2.68l-.84 4.8h-6.64l-.92 5.2h7.24l-.92 5.6h-15.56l4.52-26h15.56l-1 5.6h-7.24l-.84 4.8h6.64zM2.78 63L6.3 42.6H1.9l1-5.6h17.12l-1 5.6h-4.4L11.1 63H2.78zm25.2-18.96L25.9 55.96c-.28 1.6.08 1.96 1.12 1.96s1.56-.36 1.84-1.96l2.08-11.92c.28-1.6-.08-1.96-1.12-1.96s-1.56.36-1.84 1.96zm11.04 1.84l-1.44 8.24c-1.32 7.68-4.8 9.4-11.52 9.4s-9.52-1.72-8.24-9.4l1.44-8.24c1.36-7.68 4.84-9.4 11.56-9.4 6.72 0 9.56 1.72 8.2 9.4zm19.96 1.16l.52-3c.28-1.6-.12-1.96-1.12-1.96-1.04 0-1.56.36-1.84 1.96l-2.08 11.92c-.28 1.6.08 1.96 1.12 1.96 1 0 1.56-.36 1.84-1.96l.6-3.4h7.8l-.28 1.4c-1.24 7.2-3.36 9.56-10.92 9.56-6.72 0-9.52-1.72-8.24-9.4l1.44-8.24c1.36-7.68 4.84-9.4 11.56-9.4 7.56 0 8.84 2.36 7.56 9.56l-.16 1h-7.8zm18.52-3l-2.08 11.92c-.28 1.6.08 1.96 1.12 1.96s1.56-.36 1.84-1.96l2.08-11.92c.28-1.6-.08-1.96-1.12-1.96s-1.56.36-1.84 1.96zm11.04 1.84l-1.44 8.24c-1.32 7.68-4.8 9.4-11.52 9.4s-9.52-1.72-8.24-9.4l1.44-8.24c1.36-7.68 4.84-9.4 11.56-9.4 6.72 0 9.56 1.72 8.2 9.4zM87.78 63l4.52-26h9.4c6.72 0 9.64.88 8.32 8.56-.8 4.36-2.24 6.28-4.72 7.44l2.4 10h-8.32l-1.84-9.44L95.9 63h-8.12zm13.04-20.4h-1.4l-1.12 6.56h1.4c1.04 0 1.6-.36 1.88-1.96l.48-2.64c.28-1.6-.2-1.96-1.24-1.96zm20.4 20.4l.2-4.8h-3.88l-1.36 4.8h-8.28l9.36-26h11.92l.32 26h-8.28zm1.08-20.96l-3.36 11.36h2.76l.68-11.36h-.08zM130.9 63l4.52-26h8.32l-3.6 20.4h5.4l-.92 5.6H130.9z" fill="#FFF" fill-rule="evenodd"/></svg>