<svg data-name="Layer 1" xmlns="http://www.w3.org/2000/svg" viewBox="0 0 32 34"><path d="M5.71 6.87a1.18 1.18 0 0 0 .59-.17 1 1 0 0 0 .43-.42l1.74-1.87v5.82a1.29 1.29 0 0 0 1 1 1.27 1.27 0 0 0 1.49-1V4.49s1.49 1.53 2 2a1.21 1.21 0 0 0 1.63.16A1.29 1.29 0 0 0 15 4.81l-.25-.23c-.84-.86-3.17-3.34-4-4.13A1.33 1.33 0 0 0 9.79 0a1.06 1.06 0 0 0-.84.33 37.79 37.79 0 0 0-4 4.26 1.24 1.24 0 0 0-.48 1 1.29 1.29 0 0 0 1.24 1.28zm17.71 9.45a8.84 8.84 0 0 0 0 17.68 8.84 8.84 0 0 0 0-17.68zm0 15.13a6.28 6.28 0 0 1 0-12.56 6.19 6.19 0 0 1 6.12 6.26 6.19 6.19 0 0 1-6.15 6.31z" fill="#cccfd9"/><path d="M22.54 22.91a1.65 1.65 0 0 1 1.08-.33 2 2 0 0 1 1.68.6l.22-.16.27-.28c.06-.07.06-.24.16-.33A.78.78 0 0 0 26 22a.53.53 0 0 0-.08-.33l-.27-.24a2.59 2.59 0 0 0-.79-.44 7.11 7.11 0 0 0-1.33-.16 3.16 3.16 0 0 0-2.25.77 2.78 2.78 0 0 0-.84 2.25h-.08V29H26v-1.78h-3.79v-1.47H25a.66.66 0 0 0 .16-.33 1.51 1.51 0 0 0 .08-.6.94.94 0 0 0-.24-.6 2.39 2.39 0 0 0-.76-.16h-2v-.16a1.33 1.33 0 0 1 .3-.99zM13.05 20a1.24 1.24 0 0 0-.44.11 11.06 11.06 0 0 1-2.86.33A11.56 11.56 0 0 1 4 19.11c-1-.55-1.51-1.22-1.51-1.63s.38-.82 1-1.3a14.06 14.06 0 0 0 6.28 1.3h.48a13.89 13.89 0 0 0 5.79-1.3 2.72 2.72 0 0 1 .38.33 1.23 1.23 0 0 0 1.77 0 1.31 1.31 0 0 0 0-1.82 3.79 3.79 0 0 0 1.3-2.75A4.63 4.63 0 0 0 16.69 8a1.26 1.26 0 0 0-1.6.84 1.32 1.32 0 0 0 .49 1.48c1 .52 1.46 1.19 1.46 1.6s-.57 1.08-1.51 1.63a11.35 11.35 0 0 1-5.71 1.3h-.14a11.6 11.6 0 0 1-5.4-1.15 1.24 1.24 0 0 0-.28-.25c-1-.52-1.48-1.19-1.48-1.6s.6-1.08 1.54-1.63a1.31 1.31 0 0 0 .8-1.65 1.25 1.25 0 0 0-2-.58C.48 9.33 0 10.83 0 11.86a4 4 0 0 0 1.33 2.82A3.79 3.79 0 0 0 0 17.45a3.93 3.93 0 0 0 1.27 2.77A3.79 3.79 0 0 0 0 22.93a4.47 4.47 0 0 0 2.47 3.69 1.25 1.25 0 0 0 .38.33 14.12 14.12 0 0 0 6.43 1.58 1.58 1.58 0 0 0 .48 0 15.41 15.41 0 0 0 2.94-.26 1.305 1.305 0 0 0 0-2.61 1.24 1.24 0 0 0-.49.1 13.13 13.13 0 0 1-2.49.24 11.47 11.47 0 0 1-5.44-1.2 1.24 1.24 0 0 0-.28-.24C3 24 2.49 23.37 2.49 23s.38-.82 1-1.3A14 14 0 0 0 9.31 23h.48a13.37 13.37 0 0 0 3.41-.37 1.302 1.302 0 0 0-.14-2.6zm6.5-8.09z" fill="#cccfd9"/></svg>