<svg viewBox="0 0 20.015 11.96" xmlns="http://www.w3.org/2000/svg"><path d="M19.929 1.365a.97.97 0 0 0-.52-.19l-2.74-.19-.13-.09a.494.494 0 0 0-.41-.36h-.05l-.93-.31-1.08-.18a.385.385 0 0 0-.24-.04.737.737 0 0 0-.14.04c-.12.06-.2-.01-.22.12a1.696 1.696 0 0 0 .22 1.18l-.21.47-.23.1c-1.52.55-7.1 2.06-8.84 3.7a.347.347 0 0 1-.19-.12l-.42.57-.23.31-.04.05c.09.06.19.12.29.18l-1.71 1.29-1.2.83a.658.658 0 0 0-.25.4l-.65 2.43a.327.327 0 0 0 .08.3.294.294 0 0 0 .28.1l.87-.1a.424.424 0 0 0 .34-.25l.86-1.86a.022.022 0 0 1 .02-.02l1.15-.61 2.11-.99a.63.63 0 0 0 .31-.28.769.769 0 0 0 .22-.32l.37-.56 5.87-1.24a.037.037 0 0 1 .03.01c.01.01.02.02.02.03l3.35 2.21a.303.303 0 0 0 .12.25.363.363 0 0 0 .27.08l.82-.1c.17-.02.31-.71.34-.88.01-.07-.05-.13-.15-.19-.41-.38-2.07-.87-2.3-2.24l.03-.2.61-.97c.08-.36.13-.58.15-.72l3.58-.41a.514.514 0 0 0 .42-.38l.22-.48a.422.422 0 0 0-.07-.37zm-15.44 4.76h.1l.07-.07c1.64-1.61 7.35-3.17 8.75-3.67l.32-.12a.372.372 0 0 0 .21-.22l.3-.78-.07-.1c-.21-.32-.23-.35-.21-.6l1.08.19 1.01.3.13.1a.463.463 0 0 0 .32.33l.03.01 2.96.19-.22.44-4.52.56a.244.244 0 0 0-.202.28l.002.01a.26.26 0 0 0 .29.21l.41-.07c-.09.43-.5.47-.73 1.49l-.02.1a1.944 1.944 0 0 0 1.04 1.98 14.002 14.002 0 0 1 1.19.92.241.241 0 0 1 .03.16l-.38.04-3.35-2.04a.526.526 0 0 0-.21-.42.501.501 0 0 0-.39-.11c-.02 0-.04.01-.07.01l-2.96.5-2.6.66.13-.37a.248.248 0 0 0-.147-.32h-.003a.208.208 0 0 0-.11-.01.249.249 0 0 0-.21.17l-.28.81c-.01.02-.02.03-.02.05l-.39.64a.752.752 0 0 0-.03.15.473.473 0 0 1-.12.07l-2.91 1.51-.39.14a.525.525 0 0 0-.35.3l-.84 1.83-.57.06.59-2.19a.24.24 0 0 1 .07-.12l1.25-.87c.08-.07.15.02.16-.09l1.72-1.42v-.05l.03-.18-.19-.27c-.07-.03.03-.07.12-.12z"/><path d="M3.779 6.065l.01.01v-.01h-.01z"/></svg>