<svg xmlns="http://www.w3.org/2000/svg" width="48" height="32"><path fill="#1A1F71" d="M18.224 5.274L11.94 20.266h-4.1L4.747 8.3c-.187-.735-.35-1.006-.92-1.317C2.893 6.478 1.353 6.004 0 5.71l.091-.435h6.601c.84 0 1.597.559 1.789 1.528l1.634 8.676 4.034-10.204h4.075zm5.543 0L20.56 20.266h-3.879l3.207-14.992h3.88zM34.29 15.37c.016-3.956-5.47-4.175-5.435-5.943.014-.538.525-1.11 1.646-1.256.555-.072 2.088-.129 3.825.671l.68-3.18C34.07 5.324 32.87 5 31.377 5c-3.835 0-6.532 2.037-6.553 4.955-.026 2.16 1.926 3.362 3.394 4.081 1.512.735 2.019 1.207 2.012 1.863-.011 1.006-1.208 1.451-2.32 1.468-1.951.03-3.082-.528-3.984-.948l-.704 3.287c.908.416 2.58.777 4.312.795 4.077 0 6.743-2.013 6.755-5.13zm10.125 4.895H48L44.867 5.274h-3.309c-.746 0-1.373.433-1.652 1.099l-5.82 13.893h4.073l.808-2.24h4.977l.47 2.24zm-4.33-5.312l2.043-5.63 1.173 5.63h-3.216zm-11.353 9.439h-1.576v1.466h1.763v.441h-2.294V22.23h2.204v.441h-1.673v1.286h1.576v.435zm1.001-2.38h.531V26.3h-.53v-4.286zm1.871 2.923c.012.718.465 1.014 1.002 1.014.38 0 .616-.066.81-.15l.096.38a2.385 2.385 0 0 1-.978.187c-.9 0-1.437-.598-1.437-1.48 0-.88.52-1.57 1.37-1.57.96 0 1.208.834 1.208 1.371 0 .109-.006.187-.018.248h-2.053zm1.558-.38c.006-.332-.14-.858-.737-.858-.543 0-.773.49-.815.857h1.552zm3.404 1.642c-.14.066-.447.169-.84.169-.881 0-1.454-.598-1.454-1.491 0-.9.615-1.558 1.57-1.558.313 0 .59.078.736.157l-.12.404a1.302 1.302 0 0 0-.617-.139c-.67 0-1.032.501-1.032 1.105 0 .677.434 1.093 1.014 1.093.302 0 .501-.072.652-.139l.09.399zm1.49-3.52v.7h.76v.404h-.76v1.576c0 .363.103.568.398.568.145 0 .23-.012.308-.036l.024.404a1.451 1.451 0 0 1-.47.073c-.248 0-.447-.085-.574-.223-.145-.164-.205-.423-.205-.767v-1.595h-.453v-.404h.453v-.543l.519-.157zm1.502 1.612c0-.344-.006-.64-.024-.912h.465l.024.58h.018c.133-.393.459-.64.815-.64.055 0 .097.006.145.012v.501c-.054-.012-.108-.012-.181-.012-.374 0-.64.278-.712.676a1.601 1.601 0 0 0-.019.248V26.3h-.53v-2.01zm4.709.525c0 1.08-.755 1.552-1.456 1.552-.784 0-1.4-.58-1.4-1.503 0-.973.646-1.546 1.449-1.546.839 0 1.407.61 1.407 1.497zm-2.313.03c0 .64.362 1.123.882 1.123.507 0 .887-.477.887-1.135 0-.495-.247-1.117-.875-1.117-.622 0-.894.58-.894 1.13zm3.127-.676c0-.308-.007-.55-.025-.79h.471l.03.482h.013c.144-.272.483-.543.966-.543.404 0 1.032.241 1.032 1.243v1.74h-.531v-1.685c0-.47-.175-.863-.676-.863-.345 0-.616.247-.713.543a.754.754 0 0 0-.036.248V26.3h-.531v-2.13z"/></svg>