<svg xmlns="http://www.w3.org/2000/svg" width="10" height="7"><path fill="#FFF" d="M4.104 0v.963H1.219v1.926h2.435v.968H1.22v2.65H0V0h4.104zm.95 6.507V0h2.245c.426 0 .79.04 1.091.121.302.082.55.197.743.347.193.15.335.331.425.544.09.214.135.453.135.72 0 .154-.022.3-.067.44a1.27 1.27 0 0 1-.21.39 1.568 1.568 0 0 1-.36.332 2.177 2.177 0 0 1-.52.252c.895.2 1.341.683 1.341 1.449 0 .276-.052.53-.157.764a1.687 1.687 0 0 1-.459.606c-.201.17-.448.302-.742.398-.295.096-.63.144-1.008.144H5.053zm1.21-2.853v1.908h1.228c.226 0 .414-.027.565-.081a.98.98 0 0 0 .365-.216.791.791 0 0 0 .198-.315 1.188 1.188 0 0 0-.007-.763.713.713 0 0 0-.211-.288.989.989 0 0 0-.37-.182 2.042 2.042 0 0 0-.544-.063H6.264zm0-.837h.967c.412 0 .723-.075.937-.225.213-.15.319-.388.319-.716 0-.339-.096-.58-.288-.724-.192-.144-.492-.216-.9-.216H6.264v1.881z"/></svg>
