<svg xmlns="http://www.w3.org/2000/svg" viewBox="0 0 273.19 272.92"><path d="M231.02 169.47H42.41c13.73 39 50.76 66.67 94.3 66.67s80.58-27.67 94.31-66.67z" fill="#ffcd00"/><path d="M236.72 136.47c0-11.69-2.01-23-5.7-33H42.41c-3.69 10-5.7 21.31-5.7 33s2.01 23 5.7 33h188.6c3.69-10 5.71-21.31 5.71-33z" fill="#ff1300"/><path d="M136.72 36.81c-43.54 0-80.57 27.67-94.3 66.67h188.6c-13.73-39.01-50.76-66.67-94.3-66.67z"/><path d="M136.72 13.65c32.81 0 63.65 12.78 86.85 35.97 23.2 23.2 35.97 54.04 35.97 86.85 0 32.81-12.78 63.65-35.97 86.85-23.2 23.2-54.04 35.97-86.85 35.97s-63.65-12.78-86.85-35.97c-23.2-23.2-35.97-54.04-35.97-86.85s12.78-63.65 35.97-86.85c23.19-23.2 54.04-35.97 86.85-35.97m0-13.65C61.34 0 .24 61.1.24 136.47s61.1 136.47 136.47 136.47 136.47-61.1 136.47-136.47C273.19 61.1 212.09 0 136.72 0z" fill="#fff"/></svg>