<svg viewBox="0 0 70 70" xmlns="http://www.w3.org/2000/svg"><path d="M69.8 16.5H69c-2.9 0-5.5.6-7.3 1.1.9-5.1-2.3-10.2-7.3-11.7-1-.3-1.9-.4-2.9-.4-4.6 0-8.7 3.1-10 7.5-.2.6-.3 1.3-.4 2-2.1 1.3-4.8 3-4.8 3l-3.2 2.1h8.8l.6 1.6-1.1 5.6 2.8-.6 1.9 4.6 5.4-2.5 2.1.9-3.1 5.3-11.1-5.2L4.7 44.9l-1.8-1 .9-2.9 19.6-22c.4-.3.5-.9.3-1.4-.4-.8-.6-1.6-.6-2.5 0-1.7.8-3.3 2.1-4.5 1.3 1.1 2.1 2.7 2.1 4.5 0 .8-.2 1.6-.5 2.3-.2.5-.1 1.1.3 1.4L30 21l2.8-.8-3.6-2.8c.2-.8.4-1.6.4-2.4 0-1.5-.4-3-1.2-4.2-.7-1.1-1.5-2-2.6-2.7-.1-.1-.4-.1-.6-.1-.2 0-.4 0-.6.1-2.4 1.5-3.8 4.1-3.8 6.9 0 .9.2 1.9.5 2.7L1.6 40.2l-1.4 5L8.9 50l20.8-9c.9 1.8 8.6 22.8 8.6 22.8.2.3.5.6.9.7h.2c.3 0 .6-.1.8-.3l16.9-17.3c.4-.5.4-1.2 0-1.6l-4.5-3.6-1.5 1.7 3.7 3-15 15s-7.6-20.6-8.4-22.3c-.2-.4-.6-.6-1-.6-.1 0-.2 0-.4.1L9.1 47.3l-1.9-1 32.2-14.1 12.1 5.7 5.4-9.2-5.3-2.3-4.2 2-1.7-4.2-1.3.3.5-2.9-1.3-3.7h-2.8c.7-.5 2.6-1.7 2.6-1.7v-.6c0-.7.1-1.4.3-2 .6-2.1 2-3.8 3.9-4.9 1.2-.7 2.5-1 3.9-1 .8 0 1.6.1 2.3.3 2.1.6 3.8 2 4.9 3.9 1 1.9 1.3 4 .7 6.1-.3.4-1.5 1.4-2.7 2.3l-.2.1 1.3 1.8 2.9-1.9c.7-.3 4.2-1.6 8.3-1.6h.9l.1-2.2h-.2z"/></svg>