<svg version="1.1" id="Layer_1" xmlns="http://www.w3.org/2000/svg" x="0" y="0" viewBox="0 0 40 40" xml:space="preserve"><style>.st0{fill:#1e201d}</style><path class="st0" d="M13.1 37.6c.5.6 1.5.6 2 0 .5-.5.5-1.5 0-2L4.9 25.4h33.7c.8 0 1.4-.6 1.4-1.4s-.6-1.4-1.4-1.4H4.9l10.2-10.2c.5-.6.5-1.5 0-2-.6-.6-1.5-.6-2 0L.4 23c-.6.5-.6 1.5 0 2l12.7 12.6z"/><path class="st0" d="M40 24.4v-21c0-.8-.6-1.4-1.4-1.4s-1.4.6-1.4 1.4v21"/><path class="st0" d="M38.4 2H23.7c-.8 0-1.4.6-1.4 1.4s.6 1.4 1.4 1.4h14.7"/></svg>