<svg data-name="Layer 1" xmlns="http://www.w3.org/2000/svg" viewBox="0 0 34 44"><path d="M33.11 0H.89A.87.87 0 0 0 0 .85v42.3a.84.84 0 0 0 .45.74.94.94 0 0 0 .9 0l4-2.25 3.1 2.2a.94.94 0 0 0 1 0l4-2.25 3.1 2.2a.94.94 0 0 0 1 0l4-2.25 3.1 2.2a.94.94 0 0 0 1 0l4-2.25 3.1 2.2a.93.93 0 0 0 .54.17.94.94 0 0 0 .4-.09.84.84 0 0 0 .49-.76V.85A.87.87 0 0 0 33.11 0zm-.89 41.46l-2.15-1.52a.94.94 0 0 0-1 0l-4 2.25L22 39.94a.94.94 0 0 0-1 0l-4 2.25-3-2.25a.94.94 0 0 0-1 0l-4 2.2-3.1-2.2a.94.94 0 0 0-1 0l-3.11 1.72v-40h30.42v39.8z"/><path d="M9.84 7.62H5.37a.85.85 0 1 0 0 1.69h4.47a.85.85 0 1 0 0-1.69zm17 4.23h-4.47a.85.85 0 1 0 0 1.69h4.47a.85.85 0 1 0 0-1.69zm0 4.23h-4.47a.85.85 0 1 0 0 1.69h4.47a.85.85 0 1 0 0-1.69zm0 4.23h-4.47a.85.85 0 1 0 0 1.69h4.47a.85.85 0 1 0 0-1.69zm0 4.23h-4.47a.85.85 0 1 0 0 1.69h4.47a.85.85 0 1 0 0-1.69zm0 4.23h-4.47a.85.85 0 1 0 0 1.69h4.47a.85.85 0 1 0 0-1.69zm-8.95-16.92H5.37a.85.85 0 1 0 0 1.69h12.52a.85.85 0 1 0 0-1.69zm0 4.23H5.37a.85.85 0 1 0 0 1.69h12.52a.85.85 0 1 0 0-1.69zm0 4.23H5.37a.85.85 0 1 0 0 1.69h12.52a.85.85 0 1 0 0-1.69zm0 4.23H5.37a.85.85 0 1 0 0 1.69h12.52a.85.85 0 1 0 0-1.69zm0 4.23H5.37a.85.85 0 1 0 0 1.69h12.52a.85.85 0 1 0 0-1.69z"/></svg>