<svg data-name="Layer 1" xmlns="http://www.w3.org/2000/svg" viewBox="0 0 27.98 34"><path d="M13.99 29.47a.85.85 0 0 0 .86-.84V9.92a.86.86 0 0 0-1.71 0v18.7a.85.85 0 0 0 .85.85zm-5.71 0a.85.85 0 0 0 .86-.84V9.92a.86.86 0 0 0-1.71 0v18.7a.85.85 0 0 0 .85.85zm11.42 0a.85.85 0 0 0 .86-.84V9.92a.86.86 0 0 0-1.71 0v18.7a.85.85 0 0 0 .85.85z" fill="#fff"/><path d="M27.13 3.4h-7.77A4.59 4.59 0 0 0 18.28.82a2.7 2.7 0 0 0-2-.82h-5.72a2.7 2.7 0 0 0-2 .82A4.58 4.58 0 0 0 7.47 3.4H.85a.85.85 0 1 0 0 1.7h.89l1.08 25.8a3 3 0 0 0 2.9 3.1h16.35a3 3 0 0 0 3.09-2.91v-.17L26.24 5.1h.89a.85.85 0 1 0 0-1.7zM10.56 1.7h5.71a1 1 0 0 1 .72.3 2.68 2.68 0 0 1 .59 1.4H9.2A2.68 2.68 0 0 1 9.79 2a1 1 0 0 1 .77-.3zm14 3.4l-1.12 25.76a1.35 1.35 0 0 1-1.27 1.43H5.91a1.38 1.38 0 0 1-1.38-1.38v-.07L3.45 5.1z" fill="#fff"/></svg>