<svg viewBox="0 0 24 24" xmlns="http://www.w3.org/2000/svg"><path d="M12 2.33c-5.33 0-9.67 4.34-9.67 9.67s4.34 9.67 9.67 9.67 9.67-4.34 9.67-9.67S17.33 2.33 12 2.33zm0 17.99c-4.59 0-8.32-3.73-8.32-8.32S7.41 3.68 12 3.68s8.32 3.73 8.32 8.32-3.73 8.32-8.32 8.32z"/><path d="M16.66 11.69h-3.4c-.14-.57-.65-1-1.26-1-.23 0-.45.07-.64.17L7.18 6.69a.453.453 0 0 0-.63 0c-.17.17-.17.46 0 .63l4.23 4.23A1.297 1.297 0 0 0 12 13.3c.51 0 .94-.29 1.16-.71h3.51c.25 0 .45-.2.45-.45a.463.463 0 0 0-.46-.45z"/></svg>