<svg data-name="Layer 1" xmlns="http://www.w3.org/2000/svg" viewBox="0 0 25 25"><path d="M23.49 16.46A5 5 0 1 0 25 20a5 5 0 0 0-1.51-3.54zM20 24.19A4.19 4.19 0 1 1 24.15 20 4.2 4.2 0 0 1 20 24.19z"/><path d="M21.62 21.09l-1.26-1.26v-2.59a.4.4 0 0 0-.81 0V20a.4.4 0 0 0 .12.29l1.38 1.38a.4.4 0 1 0 .57-.57zM6.7 16.49a.49.49 0 1 0 0 1h7.9a6.07 6.07 0 0 1 .6-1z"/><path d="M16.79 4.86a.4.4 0 0 0 .4.4h3.68v8.56a6.42 6.42 0 0 1 .8.15V4.68L17.36 0H4.64a1.31 1.31 0 0 0-1.31 1.31v22.38A1.31 1.31 0 0 0 4.64 25H16l-.36-.34a6.17 6.17 0 0 1-.42-.47H4.64a.51.51 0 0 1-.51-.51V1.31A.51.51 0 0 1 4.64.8h12.15v4.06zm.8-.66V1.43l.44.48L20 4l.39.43h-2.8z"/><path d="M6.7 14.22h11.16a.49.49 0 0 0 0-1H6.7a.49.49 0 1 0 0 1zm0-3.22h11.16a.49.49 0 0 0 0-1H6.7a.49.49 0 1 0 0 1zm0-3.28h11.16a.49.49 0 0 0 0-1H6.7a.49.49 0 1 0 0 1z"/></svg>