<svg data-name="Layer 1" xmlns="http://www.w3.org/2000/svg" viewBox="0 0 44 44"><circle cx="22" cy="22" r="22" fill="#80a52f"/><path d="M16.23 19.48a11.8 11.8 0 0 1 3.07-3.78h-1.63C13 15.72 9 15 7.54 14a.38.38 0 0 0-.59.3V17c0 1.27 4.05 2.32 9.28 2.48zM15 25.2v-1.45a11.66 11.66 0 0 1 .44-2.31c-3.69-.18-6.69-.81-7.9-1.63a.38.38 0 0 0-.59.3v2.66c0 1.17 3.4 2.15 8.05 2.43zm.76 3.9c-.07-.18-.14-.36-.2-.54l-.09-.27c-.09-.28-.16-.56-.23-.84l-.05-.25c-3.58-.2-6.47-.81-7.66-1.62a.38.38 0 0 0-.59.3v2.66c0 1.3 4.25 2.37 9.68 2.49v-.17l-.28-.49a11.71 11.71 0 0 1-.58-1.27z" fill="#fff"/><ellipse cx="17.68" cy="11.3" rx="10.74" ry="2.51" fill="#fff"/><path d="M36 20.3l-.11-.23-.24-.44q-.25-.44-.54-.84l-.15-.2a10.44 10.44 0 0 0-.81-1q-.26-.27-.54-.52t-.57-.48l-.4-.3-.21-.14q-.31-.21-.64-.4l-.44-.24q-.34-.17-.69-.32a10.36 10.36 0 0 0-4-.82 10.39 10.39 0 0 0-10.36 9.5v.94a10.48 10.48 0 0 0 .12 1.58q.06.39.15.76t.2.74l.08.24q.08.24.17.48a10.35 10.35 0 0 0 .53 1.14l.25.44.13.21.28.41.15.2a10.46 10.46 0 0 0 1.91 2q.29.23.61.44l.42.27.44.25q.33.18.68.34a10.43 10.43 0 0 0 8.32.1l.34-.15.57-.29.36-.2.5-.32q.31-.21.61-.44t.57-.48q.28-.25.54-.52A10.45 10.45 0 0 0 35 31l.15-.2q.26-.37.49-.76l.09-.16.2-.36.11-.23a10.42 10.42 0 0 0 0-9zM25.72 28a1.21 1.21 0 0 1-1.14 1h-6.26l.24-1.4c.76-4.31 5.59-3.4 6-5.69.17-1 0-1.51-1.1-1.51a1.45 1.45 0 0 0-1.5.79 1.32 1.32 0 0 1-1.17.7H19.6c.42-2.4 1.9-3.28 4.17-3.28 2.72 0 3.32 1.29 3 3.25-.61 3.5-5.37 2.79-5.82 5.35h4.94zm6.46-3.56a1.13 1.13 0 0 0-.2 1.15L33.52 29h-1.77a.86.86 0 0 1-.85-.59l-.59-1.78-1.21 1.78A1.31 1.31 0 0 1 28 29h-1.74L29 25.61a1.13 1.13 0 0 0 .2-1.15l-1.47-3.3h1.08a1.71 1.71 0 0 1 1.68 1.15l.39 1.14 1.18-1.71a1.31 1.31 0 0 1 1-.58h1.72z" fill="#fff"/></svg>