<svg viewBox="0 0 75 75" xmlns="http://www.w3.org/2000/svg"><path d="M28.209 27.577L26.327 33.5c7.479-3.536 13.923-4.221 20.908-1.49 7.853 3.07 11.079 3.071 17.208-.394l3.367-10.673c-2.62.948-5.45 1.215-8.697.699 1.435-.937 2.867-2.09 4.324-3.505 5.458-.485 8.67-3.743 10.826-5.94L67.39 33.975c-7.833 4.677-12.093 4.97-21.438 1.316-9.346-3.654-18.004.73-25.7 5.7l3.717-11.704a40.389 40.389 0 0 1 4.239-1.71zm16.507 13.407c2.004.593 3.772.927 5.446.996-3.74 2.27-5.976 3.197-8.954 4.262-.244.082-.557.193-.94.332-.77.27-1.598.559-2.517.885.528.75 1.041 1.464 1.554 2.143.18.238.392.512.632.822 2.896 3.674 5.917 6.259 11.317 7.904-7.027 2.643-11.436 2.056-20.805.293C18.05 56.271 7.027 64.056 0 69.784l7.44-24.087c3.2-2.214 6.13-4.224 9.052-5.937l-1.654 5.209a191.59 191.59 0 0 0-4.394 2.935l-3.97 12.851C14.68 55.667 22.492 53.53 31.1 55.16c4.25.8 7.26 1.276 9.722 1.411-1.977-1.797-3.84-4.084-5.95-7.085l-2.67-3.793 4.37-1.552c.095-.034 3.431-1.204 4.232-1.499a46.24 46.24 0 0 0 1.844-.717c.682-.283 1.36-.59 2.068-.941zM12.995 25.399c9.315-5.778 15.458-7.6 25.381-7.6 7.73.102 12.679-.82 17.298-4.418-4.929.78-9.808.087-15.925-1.962-8.374-2.805-14.888-1.967-23.277 2.586L12.995 25.4zm-6.244 8.394l6.767-22.172c8.881-5.081 16.776-7.083 27.35-3.542C51.44 11.621 57.501 10.697 67.511 5 57.362 19.935 50.03 21.475 38.33 21.321c-13.534 0-21.006 5.081-31.579 12.472z"/></svg>