<svg viewBox="0 0 24 24" xmlns="http://www.w3.org/2000/svg"><path d="M12 1.96C6.45 1.96 1.96 6.45 1.96 12S6.45 22.04 12 22.04 22.04 17.55 22.04 12 17.55 1.96 12 1.96z" fill="#084d8d"/><path d="M14.66 17.01l-.18.73c-.54.21-.97.37-1.29.48-.32.11-.69.17-1.12.17-.65 0-1.16-.16-1.52-.48-.36-.32-.54-.72-.54-1.21 0-.19.01-.38.04-.58.03-.2.07-.42.13-.67l.67-2.38c.06-.23.11-.44.15-.65.04-.2.06-.39.06-.56 0-.3-.06-.52-.19-.64s-.36-.18-.72-.18c-.17 0-.35.03-.54.08s-.34.11-.47.15l.18-.73c.44-.18.86-.33 1.26-.46s.78-.19 1.14-.19c.65 0 1.15.16 1.5.47s.53.72.53 1.22c0 .1-.01.29-.04.55s-.07.5-.13.72l-.67 2.37c-.05.19-.1.41-.15.65-.04.24-.06.43-.06.55 0 .32.07.53.21.64.14.11.38.17.73.17.16 0 .35-.03.55-.09.23-.03.37-.08.47-.13zm.17-9.95c0 .41-.16.76-.47 1.06-.31.29-.69.44-1.13.44s-.82-.15-1.13-.44c-.32-.29-.47-.64-.47-1.06s.15-.76.47-1.06c.32-.29.69-.44 1.13-.44s.82.15 1.13.44c.31.3.47.65.47 1.06z" fill="#fff"/></svg>