<svg data-name="Layer 1" xmlns="http://www.w3.org/2000/svg" viewBox="0 0 17 17"><path d="M13.84 13.12a18.51 18.51 0 0 0-3.26-.52C12 10.16 13.71 7 13.71 5.28a5.22 5.22 0 1 0-10.44 0C3.28 7 5 10.16 6.41 12.59a18.47 18.47 0 0 0-3.26.52c-1.43.4-2.15.95-2.15 1.64s.84 1.31 2.42 1.71A22 22 0 0 0 8.5 17a22 22 0 0 0 5.07-.53c1.59-.4 2.43-1 2.43-1.71s-.73-1.25-2.16-1.64zM8.5.85a4.41 4.41 0 0 1 4.37 4.43c0 .91-.61 2.52-1.83 4.78-.94 1.74-2 3.4-2.55 4.29-.49-.75-1.58-2.5-2.54-4.3C4.74 7.8 4.13 6.19 4.13 5.28A4.4 4.4 0 0 1 8.5.85zM3 14a15.41 15.41 0 0 1 3.88-.64c.67 1.1 1.17 1.86 1.24 1.95a.46.46 0 0 0 .34.18.44.44 0 0 0 .35-.18c.07-.09.58-.87 1.24-2A15.44 15.44 0 0 1 14 14c.94.31 1.19.6 1.19.71s-.45.52-1.68.85a19.57 19.57 0 0 1-5 .54 19.53 19.53 0 0 1-5-.54c-1.23-.33-1.68-.69-1.68-.85S2.16 14.34 3 14z"/><path d="M8.5 7.62a2.34 2.34 0 1 0-2.31-2.34A2.33 2.33 0 0 0 8.5 7.62zm0-3.82A1.48 1.48 0 1 1 7 5.28 1.48 1.48 0 0 1 8.5 3.8z"/></svg>