<svg xmlns="http://www.w3.org/2000/svg" viewBox="0 0 273.19 272.92"><style>.st0{display:none}.st1,.st2{display:inline;fill:#ff1300}.st2{fill:#fff}.st3{fill:#004fbb}.st3,.st5{display:inline}.st9{fill:#fff}.st11{fill:#ff1300}.st14{fill:#ffde00}</style><g class="st0"><path class="st1" d="M169.62 42.12v188.7c39-13.69 66.8-50.76 66.8-94.35s-27.8-80.66-66.8-94.35z"/><path class="st2" d="M136.72 36.47c-11.71 0-23.1 2.02-33.1 5.72v188.56c10 3.7 21.39 5.72 33.1 5.72 11.64 0 22.9-2 32.9-5.65V42.12c-10-3.65-21.26-5.65-32.9-5.65z"/><path class="st3" d="M37.02 136.47c0 43.51 27.6 80.53 66.6 94.28V42.19c-39 13.75-66.6 50.77-66.6 94.28z"/></g><g class="st0"><path class="st1" d="M231.02 169.47H42.41c13.73 39 50.76 66.67 94.3 66.67s80.58-27.67 94.31-66.67z"/><path class="st3" d="M236.72 136.47c0-11.69-2.01-23-5.7-33H42.41c-3.69 10-5.7 21.31-5.7 33s2.01 23 5.7 33h188.6c3.69-10 5.71-21.31 5.71-33z"/><path class="st2" d="M136.72 36.81c-43.54 0-80.57 27.67-94.3 66.67h188.6c-13.73-39.01-50.76-66.67-94.3-66.67z"/></g><g class="st0"><path class="st3" d="M231.02 169.47H42.41c13.73 39 50.76 66.67 94.3 66.67 43.55 0 80.58-27.67 94.31-66.67z"/><path class="st2" d="M236.72 136.47c0-11.69-2.01-23-5.7-33H42.41c-3.69 10-5.7 21.31-5.7 33s2.01 23 5.7 33h188.6c3.69-10 5.71-21.31 5.71-33z"/><path class="st1" d="M136.72 36.81c-43.54 0-80.57 27.67-94.3 66.67h188.6c-13.73-39.01-50.76-66.67-94.3-66.67z"/></g><g class="st0"><path d="M231.02 169.47H42.41c13.73 39 50.76 66.67 94.3 66.67s80.58-27.67 94.31-66.67z" fill="#ffcd00"/><path class="st1" d="M236.72 136.47c0-11.69-2.01-23-5.7-33H42.41c-3.69 10-5.7 21.31-5.7 33s2.01 23 5.7 33h188.6c3.69-10 5.71-21.31 5.71-33z"/><path class="st5" d="M136.72 36.81c-43.54 0-80.57 27.67-94.3 66.67h188.6c-13.73-39.01-50.76-66.67-94.3-66.67z"/></g><g class="st0"><path class="st1" d="M169.62 42.12v188.7c39-13.69 66.8-50.76 66.8-94.35s-27.8-80.66-66.8-94.35z"/><path class="st2" d="M136.72 36.47c-11.71 0-23.1 2.02-33.1 5.72v188.56c10 3.7 21.39 5.72 33.1 5.72 11.64 0 22.9-2 32.9-5.65V42.12c-10-3.65-21.26-5.65-32.9-5.65z"/><path d="M37.02 136.47c0 43.51 27.6 80.53 66.6 94.28V42.19c-39 13.75-66.6 50.77-66.6 94.28z" fill="#00995a"/></g><g class="st0"><circle class="st2" cx="136.72" cy="136.47" r="100"/><circle class="st1" cx="136.72" cy="136.47" r="45.72"/></g><g class="st0"><path class="st3" d="M37.81 151.47c4.43 30 21.81 54.96 46.81 70.09v-70.09H37.81zm197.81 0h-121v82.33c5 1.19 10.51 1.67 16.03 2.67h12.13c47.45-3 85.97-39 92.84-85zm-151-100.46c-25 15.07-42.24 40.46-46.75 70.46h46.75V51.01zm150.95 70.46c-7.32-48-48.72-85-98.78-85-7.65 0-15.17.67-22.17 2.3v82.7h120.95z"/><path d="M235.57 121.47H114.62v-82.7c-11 2.45-21 6.63-30 12.24v70.46H37.86c-.75 5-1.15 10.02-1.15 15.19 0 5.03.38 9.81 1.09 14.81h46.81v70.09c9 5.61 19 9.79 30 12.24v-82.33h121.01c.72-5 1.09-9.78 1.09-14.81.01-5.16-.39-10.19-1.14-15.19z" fill="#ffd200"/></g><g class="st0"><circle class="st1" cx="136.72" cy="136.47" r="100"/><path class="st2" d="M185.62 121.49h-34v-34h-31v34h-34v30h34v34h31v-34h34z"/></g><path d="M103.72 230.77V42.17c-39 13.73-66.67 50.76-66.67 94.3s27.67 80.58 66.67 94.3z" fill="#128807"/><path class="st9" d="M136.72 236.47c11.69 0 23-2.01 33-5.7V42.17c-10-3.69-21.31-5.7-33-5.7s-23 2.01-33 5.7v188.6c10 3.69 21.31 5.7 33 5.7z"/><path d="M236.38 136.47c0-43.54-27.67-80.57-66.67-94.3v188.6c39.01-13.72 66.67-50.76 66.67-94.3z" fill="#f93"/><g class="st0"><g class="st5"><path class="st11" d="M169.62 42.12v188.7c39-13.69 66.8-50.76 66.8-94.35s-27.8-80.66-66.8-94.35z"/><path class="st9" d="M136.72 36.47c-11.71 0-23.1 2.02-33.1 5.72v188.56c10 3.7 21.39 5.72 33.1 5.72 11.64 0 22.9-2 32.9-5.65V42.12c-10-3.65-21.26-5.65-32.9-5.65z"/><path d="M37.02 136.47c0 43.51 27.6 80.53 66.6 94.28V42.19c-39 13.75-66.6 50.77-66.6 94.28z" fill="#006542"/></g></g><g class="st0"><g class="st5"><path d="M236.72 137.1c0-19.71-5.7-37.91-15.55-53.91H52.26c-9.84 16-15.55 34.2-15.55 53.91 0 19.36 5.51 38.09 15.04 53.09h169.92c9.54-15 15.05-33.73 15.05-53.09z" fill="#ffcd00"/><path class="st11" d="M136.72 36.76c-35.52 0-66.71 19.43-84.45 46.43h168.9c-17.74-27-48.93-46.43-84.45-46.43zm84.96 153.43H51.75c15.51 25 41.67 42 72.12 46h25.68c30.46-4 56.62-21 72.13-46z"/></g></g><g class="st0"><circle class="st1" cx="136.72" cy="136.47" r="100"/><g class="st5"><path class="st14" d="M238.58 241.52l49.32 151.8-129.12-93.81h159.6l-129.12 93.81z"/></g><g class="st5"><path class="st14" d="M100.419 116.796l-8.35 15.65-2.441-17.565 12.303 12.773-17.46-3.1z"/></g><g class="st5"><path class="st14" d="M51.002 174.897l-17.02 4.96 10.85-14.02-.538 17.728-9.983-14.656z"/></g><g class="st5"><path class="st14" d="M-50.765 191.596l-15.054-9.366 17.686-1.272-13.565 11.425 4.255-17.213z"/></g><g class="st5"><path class="st14" d="M81.789 180.754l-7.016 16.281-3.898-17.297 13.315 11.71-17.655-1.644z"/></g></g><g class="st0"><g class="st5"><path class="st9" d="M201.23 60.07c-18-14.72-39.93-23.59-64.51-23.59-24.57 0-47.49 8.87-64.49 23.57V212.9c17 14.7 39.91 23.57 64.49 23.57 24.59 0 46.51-8.88 64.51-23.59V60.07z"/><path class="st11" d="M36.71 136.47c0 30.66 13.52 58.09 35.52 76.43V60.04c-22 18.35-35.52 45.78-35.52 76.43zm200.01 0c0-30.64-14.49-58.06-35.49-76.41v152.81c21-18.34 35.49-45.75 35.49-76.4z"/></g><path d="M136.33 78.23l-9.42 17.57c-1.07 1.91-2.98 1.73-4.9.67l-6.82-3.53 5.08 26.99c1.07 4.93-2.36 4.93-4.05 2.8l-11.9-13.32-1.93 6.77c-.22.89-1.2 1.82-2.67 1.6l-15.05-3.16 3.95 14.37c.85 3.2 1.51 4.52-.85 5.37l-5.36 2.52 25.91 21.04c1.03.8 1.54 2.23 1.18 3.52l-2.27 7.44c8.92-1.03 16.91-2.58 25.84-3.53.79-.08 2.11 1.22 2.1 2.13l-1.18 27.26h4.34l-.68-27.2c-.01-.91 1.19-2.27 1.98-2.19 8.92.95 16.92 2.5 25.84 3.53l-2.27-7.44c-.37-1.3.15-2.73 1.18-3.52l25.91-21.04-5.36-2.52c-2.36-.84-1.7-2.17-.85-5.37l3.95-14.37-15.05 3.16c-1.47.22-2.45-.71-2.67-1.6l-1.93-6.77-11.9 13.32c-1.69 2.13-5.12 2.13-4.05-2.8l5.08-26.99-6.82 3.53c-1.92 1.07-3.83 1.24-4.9-.67l-9.46-17.57z" fill="red"/></g><g class="st0"><path class="st2" d="M143.62 66.71h65.05c-5.03-5-10.61-10-16.66-14h-48.39v14zm0 31h85.26c-2.04-5-4.46-10-7.21-14h-78.05v14zm85.25 77H44.56c2.04 5 4.46 10 7.21 14h169.89c2.75-4 5.17-9 7.21-14zm-20.21 31H64.77c5.03 5 10.61 10 16.66 14H192c6.05-4 11.64-9 16.66-14zm27.71-61H37.06c.39 5 1.11 9 2.13 14h195.04c1.03-5 1.75-9 2.14-14zm-92.75-17h92.75c-.39-4-1.11-9-2.13-14h-90.62v14z"/><path class="st1" d="M192 52.71c-14.05-9-30.39-14.73-48.39-15.94v15.94H192zm-55.28-16.14c-1.76 0-3.51.14-5.24.14h10.49c-1.75 0-3.5-.14-5.25-.14zm6.9 47.14h78.05c-3.74-6-8.1-12-13-17h-65.05v17zm0 30h90.62c-1.31-5-3.11-11-5.36-16h-85.26v16zm0 31h92.75c.23-3 .35-5.69.35-8.5s-.12-5.5-.35-8.5h-92.75v17zm90.61 14H39.2c1.31 6 3.11 11 5.36 16h184.31c2.26-5 4.06-10 5.36-16zm-12.57 30H51.77c3.74 6 8.1 12 13 17h143.89c4.9-5 9.26-11 13-17zm-140.23 31c15.84 10 34.84 16.67 55.29 16.67 20.44 0 39.45-6.67 55.29-16.67H81.43z"/><path d="M143.62 128.2V36.77c-1-.04-1.12-.06-1.66-.06h-10.49c-9.04 0-17.76 2.19-26.02 4.9l1.32 4.1h4.49l-3.63 2.57 1.39 4.24-3.63-2.66-3.63 2.63 1.39-4.21-3.63-2.58H104l1.3-4.07c-7.77 2.57-15.12 6.03-21.91 10.32l.18.54-.5-.37c-4.5 2.87-8.76 6.09-12.73 9.62l.51 1.56-1.25-.98C61.26 69.87 54.21 78.7 48.79 88.7h4.3l1.39-4.27 1.39 4.27h4.49l-3.63 2.71 1.39 4.31-3.63-2.62-3.63 2.65 1.39-4.27-3.5-2.52c-1.87 3.46-3.55 6.74-5.01 10.74h3.91L44 102.33l1.39 4.26-3.32-2.72c-1.88 5.51-3.3 10.83-4.2 16.83h2.5l1.39-4.27 1.39 4.27h4.49L44 123.65l1.39 4.42-3.63-2.56-3.63 2.68 1.39-4.25-1.83-1.32c-.63 4.54-.97 9.11-.97 13.83 0 2.81.12 5.26.35 8.26h106.55V128.2zm-9.15-10.79l-3.63-2.64-3.63 2.64 1.39-4.17-3.63-2.53h4.49l1.39-4.27 1.39 4.27h4.49l-3.63 2.53 1.37 4.17zm-25.45 0l-3.63-2.64-3.63 2.64 1.39-4.17-3.63-2.53H104l1.39-4.27 1.39 4.27h4.49l-3.63 2.53 1.38 4.17zm-25.45 0l-3.63-2.64-3.63 2.64 1.39-4.17-3.63-2.53h4.49l1.39-4.27 1.39 4.27h4.49l-3.63 2.53 1.37 4.17zm3.21-39.7h4.49l1.39-4.27 1.39 4.27h4.49l-3.63 2.8 1.39 4.35-3.63-2.6-3.63 2.66 1.39-4.43-3.65-2.78zm24.49-11l-3.63 2.89 1.39 4.4-3.63-2.58-3.63 2.67 1.39-4.51-3.63-2.88H104l1.39-4.27 1.39 4.27h4.49zm-2.25 29.06l-3.63-2.64-3.63 2.64 1.39-4.35-3.63-2.71H104l1.39-4.27 1.39 4.27h4.49l-3.63 2.71 1.38 4.35zM79.94 84.43l1.39 4.27h4.49l-3.63 2.71 1.39 4.31-3.63-2.62-3.63 2.65 1.39-4.34-3.63-2.71h4.49l1.37-4.27zm12.72 11l1.39 4.27h4.49l-3.63 2.62 1.39 4.26-3.63-2.64-3.63 2.64 1.39-4.26-3.63-2.62h4.49l1.37-4.27zm31.33 4.28l-3.63 2.62 1.39 4.26-3.63-2.64-3.63 2.64 1.39-4.26-3.63-2.62h4.49l1.39-4.27 1.39 4.27h4.47zm10.48-3.94l-3.63-2.64-3.63 2.64 1.39-4.35-3.63-2.71h4.49l1.39-4.27 1.39 4.27h4.49l-3.63 2.71 1.37 4.35zm-12.72-10.82l-3.63-2.64-3.63 2.64 1.39-4.44-3.63-2.8h4.49l1.39-4.27 1.39 4.27h4.49l-3.63 2.8 1.37 4.44zm14.97-18.24l-3.63 2.89 1.39 4.4-3.63-2.58-3.63 2.67 1.39-4.51-3.63-2.88h4.49l1.39-4.27 1.39 4.27h4.47zm-5.88-25.28l1.39 4.27h4.49l-3.63 2.57 1.39 4.24-3.63-2.66-3.63 2.63 1.39-4.21-3.63-2.58h4.49l1.37-4.26zM119.5 55.71h4.49l-3.63 2.98 1.39 4.44-3.63-2.55-3.63 2.68 1.39-4.59-3.63-2.96h4.49l1.39-4.27 1.37 4.27zm-26.84-4.28l1.39 4.27h4.49l-3.63 2.98 1.39 4.44-3.63-2.55-3.63 2.68 1.39-4.59-3.63-2.96h4.49l1.37-4.27zm-12.72 11l1.39 4.27h4.49l-3.63 2.89 1.39 4.4-3.63-2.58-3.63 2.67 1.39-4.51-3.63-2.88h4.49l1.37-4.26zM61.33 77.71h4.49l1.39-4.27 1.39 4.27h4.49l-3.63 2.8 1.39 4.35-3.63-2.6-3.63 2.66 1.39-4.43-3.65-2.78zm5.88 17.72l1.39 4.27h4.49l-3.63 2.62 1.39 4.26-3.63-2.64-3.63 2.64 1.39-4.26-3.63-2.62h4.49l1.37-4.27zM48.6 110.71h4.49l1.39-4.27 1.39 4.27h4.49l-3.63 2.53 1.39 4.22-3.63-2.67-3.63 2.63 1.39-4.17-3.65-2.54zm9.52 28.33l-3.63-2.64-3.63 2.64 1.39-4.48-3.63-2.85h4.49l1.39-4.27 1.39 4.27h4.49l-3.63 2.85 1.37 4.48zm5.46-10.82l1.39-4.57-3.63-2.94h4.49l1.39-4.27 1.39 4.27h4.49l-3.63 2.94 1.39 4.42-3.63-2.56-3.65 2.71zm19.99 10.82l-3.63-2.64-3.63 2.64 1.39-4.48-3.63-2.85h4.49l1.39-4.27 1.39 4.27h4.49l-3.63 2.85 1.37 4.48zm5.46-10.82l1.39-4.57-3.63-2.94h4.49l1.39-4.27 1.39 4.27h4.49l-3.63 2.94 1.39 4.42-3.63-2.56-3.65 2.71zm19.99 10.82l-3.63-2.64-3.63 2.64 1.39-4.48-3.63-2.85H104l1.39-4.27 1.39 4.27h4.49l-3.63 2.85 1.38 4.48zm5.46-10.82l1.39-4.57-3.63-2.94h4.49l1.39-4.27 1.39 4.27H124l-3.63 2.94 1.39 4.42-3.63-2.56-3.65 2.71zm19.99 10.82l-3.63-2.64-3.63 2.64 1.39-4.48-3.63-2.85h4.49l1.39-4.27 1.39 4.27h4.49l-3.63 2.85 1.37 4.48z" fill="#3c3b6e"/><path class="st2" d="M44 102.33l3.63-2.62h-3.91c-.59 1-1.14 2.97-1.66 4.48l3.32 2.41-1.38-4.27zm-5.88 25.89l3.63-2.64 3.63 2.64-1.38-4.57 3.63-2.94h-4.49l-1.39-4.27-1.39 4.27h-2.5c-.07 1-.12 1.18-.18 1.61l1.83 1.48-1.39 4.42zm12.73-32.45l3.63-2.64 3.63 2.64-1.39-4.35 3.63-2.71h-4.49l-1.39-4.27-1.39 4.27h-4.3c-.02 0-.03.14-.05.17l3.5 2.58-1.38 4.31zm0 21.64l3.63-2.65 3.64 2.65-1.39-4.17 3.63-2.53h-4.49l-1.39-4.28-1.38 4.28h-4.5l3.64 2.53zm5.02 14.3l-1.39-4.28-1.38 4.28h-4.5l3.64 2.85-1.39 4.38 3.63-2.59 3.64 2.67-1.39-4.47 3.63-2.84zm14.47-69.96c-.25.22-.49.43-.74.66l1.25.91-.51-1.57zm-6.76 23.2l3.63-2.64 3.63 2.64-1.38-4.44 3.63-2.8H68.6l-1.39-4.28-1.39 4.28h-4.49l3.63 2.8zm-2.25 14.76l3.63 2.62-1.38 4.26 3.63-2.64 3.63 2.64-1.38-4.26 3.63-2.62H68.6l-1.39-4.28-1.39 4.28zm9.51 28.51l-1.38-4.57 3.63-2.94H68.6l-1.39-4.28-1.39 4.28h-4.49l3.63 2.94-1.38 4.42 3.63-2.56zm12.55-76.29c-.11.07-.21.13-.32.2l.5.36-.18-.56zm-9.33 14.78l3.63 2.89L76.3 74l3.64-2.58 3.63 2.67-1.39-4.51 3.64-2.87h-4.5l-1.38-4.28-1.39 4.28zm3.63 24.71l-1.39 4.31 3.64-2.62 3.63 2.65-1.39-4.34 3.64-2.71h-4.5l-1.38-4.28-1.39 4.28h-4.49zm8.13 19.29h-4.5l-1.38-4.28-1.39 4.28h-4.49l3.63 2.53-1.39 4.22 3.64-2.67 3.63 2.63-1.39-4.17zm-4.5 21l-1.38-4.28-1.39 4.28h-4.49l3.63 2.85-1.39 4.38 3.64-2.59 3.63 2.67-1.39-4.47 3.64-2.84zm5.46-76l3.64 2.98-1.39 4.44 3.63-2.55 3.64 2.68-1.39-4.59 3.63-2.96h-4.49l-1.39-4.28-1.39 4.28zm2.25 29.24l3.63-2.64 3.64 2.64-1.39-4.44 3.63-2.8h-4.49l-1.39-4.28-1.39 4.28h-4.49l3.64 2.8zm-2.25 14.76l3.64 2.62-1.39 4.26 3.63-2.64 3.64 2.64-1.39-4.26 3.63-2.62h-4.49l-1.39-4.28-1.39 4.28zm9.52 28.51l-1.39-4.57 3.63-2.94h-4.49l-1.39-4.28-1.39 4.28h-4.49l3.64 2.94-1.39 4.42 3.63-2.56zm3.21-82.51l3.63 2.57-1.39 4.24 3.63-2.66 3.63 2.63-1.39-4.21 3.63-2.58h-4.49l-1.32-4.12c-.05.02-.1.07-.16.08l-1.3 4.04h-4.47zm5.88 16.72L104 66.71h-4.49l3.63 2.89-1.39 4.4 3.64-2.58 3.63 2.67-1.39-4.51 3.64-2.87h-4.49zm1.39 26.28l-1.39-4.28-1.39 4.28h-4.49l3.63 2.71-1.39 4.31 3.64-2.62 3.63 2.65-1.39-4.34 3.64-2.71zm4.49 22h-4.49l-1.39-4.28-1.39 4.28h-4.49l3.63 2.53-1.39 4.22 3.64-2.67 3.63 2.63-1.39-4.17zm-4.49 21l-1.39-4.28-1.39 4.28h-4.49l3.63 2.85-1.39 4.38 3.64-2.59 3.63 2.67-1.39-4.47 3.64-2.84zm9.95-76h-4.5l3.64 2.98-1.39 4.44 3.63-2.55 3.64 2.68-1.39-4.59 3.63-2.96h-4.49l-1.39-4.28zm7.26 22h-4.49l-1.39-4.28-1.38 4.28h-4.5l3.64 2.8-1.39 4.35 3.63-2.6 3.64 2.67-1.39-4.43zm-5.88 17.72l-1.38 4.28h-4.5l3.64 2.62-1.39 4.26 3.63-2.64 3.64 2.64-1.39-4.26 3.63-2.62h-4.49zm3.64 32.79l-1.39-4.57 3.63-2.94h-4.49l-1.39-4.28-1.38 4.28h-4.5l3.64 2.94-1.39 4.42 3.63-2.56zm6.84-79.94l-1.38 4.24 3.63-2.66 3.63 2.64-1.38-4.21 3.63-2.58h-4.49l-1.39-4.28-1.39 4.28h-4.49zm2.25 14.15l-1.39 4.28h-4.49l3.63 2.89-1.38 4.4 3.63-2.58 3.63 2.67-1.38-4.51 3.63-2.87h-4.49zm1.39 26.28l-1.39-4.28-1.39 4.28h-4.49l3.63 2.71-1.38 4.31 3.63-2.62 3.63 2.65-1.38-4.34 3.63-2.71zm4.49 22h-4.49l-1.39-4.28-1.39 4.28h-4.49l3.63 2.53-1.38 4.22 3.63-2.67 3.63 2.63-1.38-4.17zm-4.49 21l-1.39-4.28-1.39 4.28h-4.49l3.63 2.85-1.38 4.38 3.63-2.59 3.63 2.67-1.38-4.47 3.63-2.84z"/></g><g class="st0"><path d="M37.5 148.19h44.15v-45h-39.4c-3.25 10-5.6 19.98-5.6 30.43v5.54c0 3.11.49 6.03.85 9.03zm44.15-95.05c-12 7.51-21.19 17.05-28.6 28.05h28.6V53.14zm66 28.05v22h-44v45h132.41c.47-4 .72-7.71.72-11.77 0-3.53-.19-7.23-.54-10.23h-88.59v-22h83.74c-2.74-8-6.46-16-11.02-23h-72.72v-22h53.05c-14.34-12-32.06-20-51.51-22h-24.82c-7.27 1-14.72 2.55-20.72 4.93v39.07h44zm-10.87 154.57c23.44 0 44.99-7.57 62.04-21.57H74.75c17.04 14 38.59 21.57 62.03 21.57zm-82.56-43.57h165.12c4.73-6 8.62-14 11.51-22H42.71c2.89 8 6.78 16 11.51 22z" fill="#0d5eaf"/><path class="st2" d="M74.75 214.19h124.07c7.9-6 14.82-13 20.52-22H54.22c5.7 9 12.63 16 20.53 22zm72.9-88h88.59c-.79-8-2.44-15-4.85-22h-83.74v22z"/><path class="st2" d="M81.65 148.19H37.5c.91 8 2.68 15 5.21 22h188.14c2.53-7 4.3-14 5.21-22H103.65v-45h44v-22h-44V42.11c-8 2.77-16 6.49-22 11.02v28.05h-28.6c-4.45 7-8.1 15-10.8 22h39.4v45.01z"/><path class="st2" d="M147.65 81.19h72.72c-5.44-8-12.08-16-19.66-22h-53.05v22z"/></g><g class="st0"><circle class="st2" cx="136.72" cy="136.46" r="100"/><g class="st5"><path class="st11" d="M156.63 234.51v-76.46c0-.31 0-.63.01-.94 0-.38.2-.58.58-.58.34 0 .68-.01 1.02-.01h76.47c1.32-6.48 2.01-13.15 2.01-20.01 0-6.86-.69-14.01-2.01-20.01h-76.55c-1.52 0-1.52-.03-1.52-1.55V38.47c-5.57-1.13-11.31-1.97-17.18-1.97H134c-5.96 0-11.79.85-17.44 2.01v76.41c0 .31 0 .63-.01.94 0 .38-.2.57-.58.58-.34 0-.68.01-1.02.01H38.74c-1.32 6.48-2.01 13.17-2.01 20.03s.69 14.03 2.01 20.03h76.29c1.52 0 1.53.01 1.53 1.53v76.44c5.66 1.16 11.49 2.03 17.45 2.03h5.45c5.85-.03 11.59-.88 17.17-2z"/><path d="M103.36 96.07v-53.9c-18.11 6.41-33.82 17.87-45.43 32.71 14.69 7.35 29.39 14.69 44.08 22.04 1.35.68 1.35.68 1.35-.85zm67.74.89c14.78-7.39 29.56-14.78 44.33-22.17-11.65-14.86-27.43-26.34-45.61-32.71v54.06c0 1.44.02 1.45 1.28.82zm-69.03 79.01c-14.72 7.36-29.43 14.72-44.15 22.08 11.61 14.84 27.33 26.3 45.43 32.71v-53.98c.01-1.43-.01-1.44-1.28-.81zm67.75.89v53.99c18.18-6.38 33.96-17.85 45.62-32.71-14.75-7.38-29.51-14.76-44.26-22.13-1.36-.68-1.36-.68-1.36.85z" fill="#3c3b6e"/><path class="st11" d="M174.49 102.52c-.29.15-.68.21-.82.62.41.16.77.09 1.13.09 8.98 0 17.96-.01 26.94.02 1.02 0 1.92-.21 2.84-.67 7.2-3.6 14.41-7.2 21.61-10.81a100 100 0 0 0-6.87-11.67c-1 .5-2 1-3.01 1.5-13.94 6.97-27.88 13.94-41.82 20.92zm-75.81 67.89c.29-.15.68-.21.82-.62-.41-.16-.77-.09-1.13-.09-8.98 0-17.96.01-26.94-.02-1.02 0-1.92.21-2.84.67-7.13 3.57-14.27 7.14-21.41 10.71a98.6 98.6 0 0 0 6.85 11.68c.94-.47 1.88-.94 2.81-1.41 13.96-6.97 27.9-13.95 41.84-20.92zm-28.81-67.37c-.37-.2-.66-.36-.95-.5-7.22-3.61-14.43-7.22-21.65-10.82-1.86 3.72-3.5 7.57-4.9 11.53 8.87-.02 17.73-.01 26.6-.02.26 0 .56.07.9-.19zm133.52 66.79c.26.35.63.44.94.6l21.78 10.89c1.88-3.75 3.54-7.63 4.95-11.63-8.95.02-17.9.01-26.85.02-.27-.01-.56-.09-.82.12z"/></g></g><path class="st9" d="M136.72 13.65c32.81 0 63.65 12.78 86.85 35.97 23.2 23.2 35.97 54.04 35.97 86.85 0 32.81-12.78 63.65-35.97 86.85-23.2 23.2-54.04 35.97-86.85 35.97s-63.65-12.78-86.85-35.97c-23.2-23.2-35.97-54.04-35.97-86.85s12.78-63.65 35.97-86.85c23.19-23.2 54.04-35.97 86.85-35.97m0-13.65C61.34 0 .24 61.1.24 136.47s61.1 136.47 136.47 136.47 136.47-61.1 136.47-136.47C273.19 61.1 212.09 0 136.72 0z"/></svg>