<svg viewBox="0 0 40 40" xmlns="http://www.w3.org/2000/svg"><style>.svg-y{fill:#ffcd00}.svg-g{fill:#78be20}</style><path class="svg-g" d="M20 31.8c-6.5 0-11.8-5.3-11.8-11.8S13.5 8.2 20 8.2 31.8 13.5 31.8 20c0 .9-.7 1.6-1.6 1.6s-1.6-.7-1.6-1.6c0-4.8-3.9-8.7-8.7-8.7s-8.7 3.9-8.7 8.7 3.9 8.7 8.7 8.7c.9 0 1.6.7 1.6 1.6s-.6 1.5-1.5 1.5z"/><path class="svg-g" d="M18.2 20.6L16 18.5 13.6 21l3.2 3.2 1.4 1.4 1.7-1.7 6.2-6.2-2.5-2.5z"/><path class="svg-y" d="M38.9 29.4c.6-.6 1-1.4 1-2.1 0-2.4-3.3-4.3-7.7-4.3s-7.7 1.8-7.7 4.3c0 .8.3 1.5 1 2.1-.6.6-1 1.4-1 2.1 0 1.2.8 2.2 2.2 3 .2.1.3.1.5.1.4 0 .7-.2.9-.5.3-.5.1-1.1-.4-1.4-.7-.4-1.1-.9-1.1-1.2s.3-.6.7-1c1.4.6 3.1 1 4.9 1s3.6-.4 4.9-1c.5.3.7.7.7 1 0 .4-.4.8-1.1 1.2-.5.3-.7.9-.4 1.4.2.3.5.5.9.5.2 0 .3 0 .5-.1 1.4-.8 2.2-1.9 2.2-3 0-.8-.3-1.5-1-2.1zm-11.2-.9c-.7-.4-1.1-.9-1.1-1.2 0-.9 2.2-2.2 5.7-2.2s5.7 1.3 5.7 2.2c0 .4-.4.8-1.1 1.2-1.1.6-2.8 1-4.5 1s-3.6-.4-4.7-1z"/><path class="svg-y" d="M37.7 32.7h-.1c-.1 0-.1 0-.2-.1H37c-.1 0-.1 0-.2.1h-.1c-1.1.6-2.8 1-4.5 1s-3.4-.4-4.5-1h-.1c-.1 0-.1 0-.2-.1H27c-.1 0-.1 0-.2.1h-.1c-1.4.8-2.2 1.9-2.2 3 0 1.2.8 2.2 2.2 3 1.5.8 3.4 1.2 5.5 1.2s4.1-.4 5.5-1.2c1.8-1 2.2-2.2 2.2-3 0-1.2-.8-2.2-2.2-3zm-1 4.2c-1.1.6-2.8 1-4.5 1s-3.4-.4-4.5-1c-.7-.4-1.1-.9-1.1-1.2s.3-.6.7-1c1.4.6 3.1 1 4.9 1s3.6-.4 4.9-1c.5.3.7.7.7 1 .1.4-.4.8-1.1 1.2z"/><path d="M5.7 36.9c-1.4 0-2.6-1.2-2.6-2.6V5.7c0-1.4 1.2-2.6 2.6-2.6h28.6c1.4 0 2.6 1.2 2.6 2.6v15.5H40V5.7C40 2.5 37.4 0 34.3 0H5.7C2.6 0 0 2.5 0 5.7v28.6C0 37.4 2.6 40 5.7 40h15.6v-3.1H5.7z" fill="#fff"/></svg>