<svg xmlns="http://www.w3.org/2000/svg" viewBox="0 0 450 73"><style>.svg-g{fill:#8dc540}</style><path class="svg-g" d="M396.8 30.8c-3.2 1.8-7 2.7-10.7 2.4h-4.8l3.6-18.9h3.5c3.1-.2 6.2.4 8.9 1.8 2.3 1.5 3.6 4 3.4 6.6.3 3.2-1.2 6.2-3.9 8.1M113.3 54.4H76.5L78.9 42H102l2.6-13.9H81.7L84 15.9h36.7l-7.4 38.5zM416.7 5.2C411.2 1.8 403.1 0 392.3 0h-28.1l-10.4 54.5H317l2.4-12.4h22.2l2.6-13.9H322l2.4-12.3h22.8l3-16h-46.4l-9.9 51.7h-17l10-51.7h-24.2l-9.9 51.7h-16.6l10-51.7H222l-10.5 54.5h-37.2l2.3-12.4h22.3l2.6-13.8h-22.2l2.4-12.4h23.1l3-16H63.3L55.1 43 38.7 0H13.5L0 70.5h24l8.2-44.4 15.9 44.4h86.1L144.7 16h13.5l-10.4 54.6h226.6l6.4-34.4 10.6 34.4h24l-11-28.1 2.5-.5c5.1-.9 9.6-3.5 12.9-7.3 3.2-4.1 4.8-9.1 4.5-14.2.5-6.1-2.5-11.8-7.6-15.3m19.8 57l3.3-.2c.6 0 1.1-.1 1.6-.3.4-.1.7-.4.9-.7.2-.3.3-.7.2-1 0-.5-.3-1-.7-1.3-.6-.4-1.2-.5-1.9-.4l-3.6.2.2 3.7zm-1.3 6.3l-.6-11.1 5.1-.3c.8-.1 1.6 0 2.3.2.6.2 1 .5 1.3 1 .3.5.5 1.1.6 1.6 0 .7-.2 1.5-.8 2-.6.6-1.5 1-2.4 1.1.3.1.7.3.9.5.5.4 1 .9 1.3 1.4l2.2 2.9-1.9.1-1.6-2.2c-.5-.6-.9-1.1-1.2-1.5-.2-.3-.5-.5-.8-.7-.2-.1-.5-.2-.7-.3h-2.7l.2 4.9-1.2.4z"/><path class="svg-g" d="M430.2 63.1c-.3-4.7 3.5-8.8 8.5-9 4.9-.2 9.1 3.4 9.4 8.2v.4c-.2 4.8-4.3 8.5-9.3 8.3-4.5-.2-8.2-3.6-8.6-7.9m8.4-10.8c-5.9.3-10.5 5.2-10.2 10.9.3 5.7 5.4 10.1 11.4 9.8 5.9-.3 10.5-5.2 10.2-10.9-.3-5.7-5.4-10.1-11.4-9.8"/></svg>