<svg width="245" height="59" xmlns="http://www.w3.org/2000/svg"><path d="M19.436 8.942h-7.215l.259-1.48c.259-1.48-.111-1.813-1.036-1.813-.962 0-1.443.333-1.702 1.813l-.037.407c-.333 1.776-.074 2.701 2.479 2.96 6.549.666 6.771 2.886 6.068 7.03-.888 5.032-3.441 7.622-10.323 7.622-5.92 0-8.658-1.517-7.585-7.696l.185-1.147h7.585l-.259 1.776c-.296 1.48.037 1.887.999 1.887.925 0 1.443-.407 1.739-1.887l.185-1.11c.259-1.702 0-2.331-2.516-2.701-6.105-.925-6.66-3.108-5.957-7.215C3.119 2.763 6.264.469 12.406.469c6.031 0 8.214 1.85 7.141 7.807l-.111.666zM21.841 25l3.256-18.87h-4.07l.925-5.18h15.836l-.925 5.18h-4.07L29.537 25h-7.696zm22.607 0l.185-4.44h-3.589L39.786 25h-7.659L40.785.95h11.026L52.107 25h-7.659zm.999-19.388L42.339 16.12h2.553l.629-10.508h-.074zM55.289 25l1.332-7.844L53.883.95h7.918l-.074 8.991h.074L64.835.95h7.918l-8.436 16.206L62.985 25h-7.696zm33.559-14.763l.481-2.775c.259-1.48-.111-1.813-1.036-1.813-.962 0-1.443.333-1.702 1.813l-1.924 11.026c-.259 1.48.074 1.813 1.036 1.813.925 0 1.443-.333 1.702-1.813l.555-3.145h7.215l-.259 1.295c-1.147 6.66-3.108 8.843-10.101 8.843-6.216 0-8.806-1.591-7.622-8.695l1.332-7.622C79.783 2.06 83.002.469 89.218.469c6.993 0 8.177 2.183 6.993 8.843l-.148.925h-7.215zm17.131-2.775l-1.924 11.026c-.259 1.48.074 1.813 1.036 1.813.962 0 1.443-.333 1.702-1.813l1.924-11.026c.259-1.48-.074-1.813-1.036-1.813-.962 0-1.443.333-1.702 1.813zm10.212 1.702l-1.332 7.622c-1.221 7.104-4.44 8.695-10.656 8.695s-8.806-1.591-7.622-8.695l1.332-7.622C99.171 2.06 102.39.469 108.606.469c6.216 0 8.843 1.591 7.585 8.695zM137.244.95L133.063 25h-6.512l-2.331-11.951L122.148 25h-6.66L119.669.95h6.956l2.035 10.915L130.584.95h6.66zm19.795 0L152.858 25h-6.512l-2.331-11.951L141.943 25h-6.66L139.464.95h6.956l2.035 10.915L150.379.95h6.66zm14.356 9.62l-.777 4.44h-6.142l-.851 4.81h6.697l-.851 5.18h-14.393L159.259.95h14.393l-.925 5.18h-6.697l-.777 4.44h6.142zm12.987-.333l.481-2.775c.259-1.48-.111-1.813-1.036-1.813-.962 0-1.443.333-1.702 1.813l-1.924 11.026c-.259 1.48.074 1.813 1.036 1.813.925 0 1.443-.333 1.702-1.813l.555-3.145h7.215l-.259 1.295c-1.147 6.66-3.108 8.843-10.101 8.843-6.216 0-8.806-1.591-7.622-8.695l1.332-7.622c1.258-7.104 4.477-8.695 10.693-8.695 6.993 0 8.177 2.183 6.993 8.843l-.148.925h-7.215zM194.039 25l3.256-18.87h-4.07l.925-5.18h15.836l-.925 5.18h-4.07L201.735 25h-7.696zm29.748-14.43l-.777 4.44h-6.142l-.851 4.81h6.697l-.851 5.18H207.47L211.651.95h14.393l-.925 5.18h-6.697l-.777 4.44h6.142zm12.247-4.44h-1.369l-2.405 13.69h1.369c.962 0 1.443-.333 1.702-1.813l1.776-10.064c.259-1.48-.111-1.813-1.073-1.813zM232.704 25h-8.806L228.079.95h8.806c6.216 0 8.769 1.48 7.511 8.584l-1.184 6.882C241.954 23.52 238.92 25 232.704 25zM53.439 50.378l4.588-16.428h7.696L57.657 58h-8.88l.629-14.171L45.188 58h-8.88l.296-24.05H44.3l-1.184 16.428h.074l5.032-16.428h5.883l-.74 16.428h.074zM62.837 58l4.181-24.05h7.696L70.533 58h-7.696zm13.431 0l3.256-18.87h-4.07l.925-5.18h15.836l-.925 5.18h-4.07L83.964 58h-7.696zm35.742-24.05L107.829 58h-7.696l1.702-9.99h-2.738L97.395 58h-7.696l4.181-24.05h7.696l-1.702 9.62h2.738l1.702-9.62h7.696zm17.205 9.287l.481-2.775c.259-1.48-.111-1.813-1.036-1.813-.962 0-1.443.333-1.702 1.813l-1.924 11.026c-.259 1.48.074 1.813 1.036 1.813.925 0 1.443-.333 1.702-1.813l.555-3.145h7.215l-.259 1.295c-1.147 6.66-3.108 8.843-10.101 8.843-6.216 0-8.806-1.591-7.622-8.695l1.332-7.622c1.258-7.104 4.477-8.695 10.693-8.695 6.993 0 8.177 2.183 6.993 8.843l-.148.925h-7.215zm17.131-2.775l-1.924 11.026c-.259 1.48.074 1.813 1.036 1.813.962 0 1.443-.333 1.702-1.813l1.924-11.026c.259-1.48-.074-1.813-1.036-1.813-.962 0-1.443.333-1.702 1.813zm10.212 1.702l-1.332 7.622c-1.221 7.104-4.44 8.695-10.656 8.695s-8.806-1.591-7.622-8.695l1.332-7.622c1.258-7.104 4.477-8.695 10.693-8.695 6.216 0 8.843 1.591 7.585 8.695zM155.855 58l4.181-24.05h8.695c6.216 0 8.917.814 7.696 7.918-.74 4.033-2.072 5.809-4.366 6.882l2.22 9.25h-7.696l-1.702-8.732L163.366 58h-7.511zm12.062-18.87h-1.295l-1.036 6.068h1.295c.962 0 1.48-.333 1.739-1.813l.444-2.442c.259-1.48-.185-1.813-1.147-1.813zM186.787 58l.185-4.44h-3.589L182.125 58h-7.659l8.658-24.05h11.026l.296 24.05h-7.659zm.999-19.388l-3.108 10.508h2.553l.629-10.508h-.074zM195.741 58l4.181-24.05h7.696l-3.33 18.87h4.995l-.851 5.18h-12.691z" fill="#FFF" fill-rule="evenodd"/></svg>