<svg xmlns="http://www.w3.org/2000/svg" viewBox="0 0 80 80"><path d="M21.3 0h37.3C70.4 0 80 9.6 80 21.3v37.3C80 70.4 70.4 80 58.7 80H21.3C9.6 80 0 70.4 0 58.7V21.3C0 9.6 9.6 0 21.3 0z" fill="#333"/><path d="M30.7 64h18.7v16H30.7z" fill="#8c8d8c"/><circle cx="40" cy="40" r="24" fill="#e8e8e8"/><path d="M40 70.7C22.9 70.7 9.3 57.1 9.3 40S22.9 9.3 40 9.3 70.7 22.9 70.7 40c0 16.8-13.9 30.7-30.7 30.7zm0-48c-9.6 0-17.3 7.7-17.3 17.3S30.4 57.3 40 57.3 57.3 49.6 57.3 40 49.6 22.7 40 22.7z" fill="#dc0e04"/></svg>