<svg viewBox="0 0 17 17" version="1.1" xmlns="http://www.w3.org/2000/svg">
  <g id="Page-1" stroke="none" stroke-width="1" fill="none" fill-rule="evenodd">
    <path d="M8.51340499,17.0002315 C5.45145158,17.0050601 2.62353885,15.3626599 1.11040532,12.7007041 C-0.402728212,10.0387482 -0.367202754,6.768686 1.20340499,4.14023145 C1.2972934,3.97730746 1.50548099,3.92134305 1.66840499,4.01523146 C1.83132899,4.10911986 1.88729339,4.31730745 1.79340499,4.48023145 C-0.129034802,7.67918452 0.477012238,11.7907997 3.24068325,14.2990257 C6.00435426,16.8072518 10.1553015,17.0129439 13.153405,14.7902315 L13.593405,15.3002315 L13.543405,15.3002315 C12.0936188,16.3939009 10.3294147,16.9901527 8.51340499,17.0002315 Z M15.513405,13.0002315 C15.4547256,13.0180342 15.3920844,13.0180342 15.333405,13.0002315 C15.2568764,12.9546561 15.2020213,12.88008 15.1813056,12.7934509 C15.16059,12.7068218 15.1757732,12.6154973 15.223405,12.5402315 C15.9415691,11.3289215 16.3246623,9.94840582 16.333405,8.54023145 C16.3348794,6.86939941 15.798417,5.24248072 14.803405,3.90023145 C13.328288,1.88866087 10.9878363,0.694325775 8.49340499,0.680231453 C6.82257294,0.678757078 5.19565425,1.21521949 3.85340499,2.21023145 L3.44340499,1.67023145 C6.02170984,-0.239958119 9.45597674,-0.535391444 12.3226358,0.906394294 C15.1892948,2.34818003 16.9997006,5.28142071 17.003405,8.49023145 C17.0028428,10.035839 16.584785,11.5525942 15.793405,12.8802315 C15.7201799,12.9624808 15.6133374,13.0066915 15.503405,13.0002315 L15.513405,13.0002315 Z M13.373405,9.10023145 C13.3729418,9.20640521 13.3525907,9.31155238 13.313405,9.41023145 C13.2726834,9.51463745 13.211482,9.60983966 13.133405,9.69023145 L10.363405,12.4602315 C10.2075046,12.6177927 9.99505897,12.7064507 9.77340499,12.7064507 C9.55175101,12.7064507 9.33930539,12.6177927 9.18340499,12.4602315 C9.0289914,12.3141853 8.93904093,12.1126962 8.93340499,11.9002315 L8.93340499,10.4002315 L7.15340499,10.4002315 C6.01037621,10.3138802 4.99535289,9.63707574 4.47618803,8.61509767 C3.95702317,7.5931196 4.00904675,6.3742553 4.61340499,5.40023145 C4.68252059,6.77026054 5.81163828,7.84665678 7.18340499,7.85023145 L8.92340499,7.85023145 L8.92340499,6.29023145 C8.92438219,6.07673611 9.01511379,5.87349733 9.17340499,5.73023145 C9.32867835,5.57128137 9.54120248,5.48122877 9.76340499,5.48023145 C9.98840869,5.48186423 10.2038111,5.57161522 10.363405,5.73023145 L13.123405,8.50023145 L13.223405,8.62023145 L13.283405,8.75023145 C13.3375723,8.8593126 13.3682337,8.97855134 13.373405,9.10023145 Z" id="ICN/cash_out_icon" fill="#084D8D" fill-rule="nonzero"></path>
  </g>
</svg>
