<svg xmlns="http://www.w3.org/2000/svg" viewBox="0 0 566.9 99.2">
  <path fill="#fff" d="M230.7,91c0,0,18.9-53.8,23.9-64.9c5-11.1,5.2-11.1,13.1-11c8.9,0.1,13.2,6.1,10,13.4 c-3,6.8-8.2,16.7-30.5,23.8l-0.5,3.7l15.6,35h27.6c0,0-3.7-5.9-8.6-14.6c-6.3-11.3-8.2-16.1-11.9-24.3 c13.1-3.8,28.6-9.3,32.1-23.9c4.3-18-21.2-17-29.9-17.1c-10.9,0-25.9,0-41.2,0l-1.7,5c6.3,1.2,5,4.8,2.3,12.6 c-7.2,20.7-10.9,29.8-16.4,43.9c-5.6,14-7.1,18.5-7.1,18.5H230.7z"></path>
  <path fill="#fff" d="M164,11.1c-15,0.2-52.9,4.6-61.9,47c-5.1,23.9,10.8,36.2,41.3,35.9c15-0.2,52.9-4.6,61.9-47 C210.5,23.1,194.6,10.8,164,11.1 M180.7,49.7c-9.8,33.5-29.1,37.6-36.6,37.3c-15.2-0.7-21.5-12.7-16-31.6 c9.8-33.5,29.1-37.6,36.6-37.3C179.9,18.8,186.2,30.8,180.7,49.7"></path>
  <path fill="#fff" d="M434.8,10.7l-1.7,4.9c4.1,1.1,6.1,4.1,3.8,12.3c-3.3,11.8-23.9,63.7-23.9,63.7c0,0,65.8,0,66.4-0.1 c0,0,4.8-14.4,4.8-14.4h-40.2c5.5-13.9,23.2-66.4,23.2-66.4L434.8,10.7z"></path>
  <path fill="#fff" d="M356.2,18.5c-3.4,3.9-54.1,72.9-54.1,72.9h22.1l19.1-25.8l29.5,0l6.8,25.9h23.7c0,0-17.3-69.8-19.2-76.1 C382.2,9,364.2,9.3,356.2,18.5 M370.4,58.1c-9.3,0-13.4,0-22.8,0c-0.3,0-0.7-0.5-0.4-0.8c0.6-1,13.1-18.4,18.9-25.9 c0,0,1.9,13.4,5.2,26C371.4,57.8,371,58.1,370.4,58.1"></path>
  <path fill="#fff" d="M41.6,83.9C27.1,83.1,24.1,71.4,28,53.7c6.9-31.6,25.6-33,32.8-32.5c8.4,0.5,10.5,4.2,12.5,10.4h23.6 C92,20.6,80.4,10.1,56,10.8c-7.7,0.2-49,4.5-55.6,42.4c-2.1,12.2,4.1,40.1,43.4,39c5.8-0.2,33.1-1,42.8-20.1h-25 C56.3,82.6,46.3,84.2,41.6,83.9"></path>
  <path fill="#ef3340" d="M488.7,64.6c7.5-5.8,19.4-13.6,32.6-11.2c10,1.8,14.8,2.3,22.3-0.3c-7.2-2.1-10.5-5.5-14.4-10.9 c6.6-2.2,8.8-2.6,17.4-7.9c-1.5-1.2-6.9-5.7-16.8-5.8c-14.2-0.1-22.1,4.8-33.1,11.9L488.7,64.6z"></path>
  <path fill="#ffcd00" d="M566.9,14.2c-3.5,3.5-9.7,9.2-23.2,3.8c-13.5-5.4-24.3,1.5-27.2,3L509,43.4c8.3-5,17.6-9.5,27.5-5.7 c9.9,3.8,14.5,3.3,23.1-1.3L566.9,14.2z"></path>
  <path fill="#78be20" d="M499.4,32.7c11-7.1,18.9-12,33.1-11.9c12.2,0.1,20-1.3,30.5-15.7c-10.4,5.5-16.8,6.3-27.9,2.9 c-11.1-3.4-19.4-1.4-28.5,3.4L499.4,32.7z"></path>
</svg>
