<?xml version="1.0" encoding="UTF-8"?>
<svg width="21px" height="18px" viewBox="0 0 21 18" version="1.1" xmlns="http://www.w3.org/2000/svg" xmlns:xlink="http://www.w3.org/1999/xlink">
    <defs>
        <polygon id="path-1" points="0.225553125 0.0513333333 16.8109594 0.0513333333 16.8109594 17.9996667 0.225553125 17.9996667"></polygon>
        <polygon id="path-3" points="0 0.5338 11.025525 0.5338 11.025525 11.9704667 0 11.9704667"></polygon>
    </defs>
    <g id="Page-1" stroke="none" stroke-width="1" fill="none" fill-rule="evenodd">
        <g id="ICN/ExtraPlace">
            <rect id="Rectangle-9" fill="#FFFFFF" fill-rule="nonzero" opacity="0" x="0" y="0" width="21" height="18"></rect>
            <g id="Group" stroke-width="1" fill-rule="evenodd">
                <path d="M5.154975,6.287 L5.9542875,6.287 C5.75544375,5.97166667 5.59269375,5.63833333 5.459475,5.30433333 C5.217975,5.307 4.981725,5.32966667 4.7481,5.36433333 C4.860975,5.673 4.9935375,5.98366667 5.154975,6.287" id="Fill-1" fill="#084D8D"></path>
                <path d="M7.41050625,5.66693333 C7.55094375,6.4416 7.73338125,7.2436 7.97488125,8.02893333 C7.6762875,7.91893333 7.30550625,7.70893333 6.850725,7.3296 C6.77656875,7.2676 6.70963125,7.19826667 6.640725,7.1316 L6.640725,8.05493333 C7.28975625,8.5516 7.827225,8.77493333 8.24788125,8.8336 C8.383725,9.1996 8.5386,9.55293333 8.70331875,9.8976 L9.9784125,9.8976 L9.9784125,11.7142667 C10.23435,11.9462667 10.494225,12.1289333 10.7449125,12.2736 C10.8492562,11.8389333 10.9102875,11.3869333 10.9102875,10.9189333 C10.9102875,8.5176 9.45144375,6.46893333 7.41050625,5.66693333" id="Fill-3" fill="#084D8D"></path>
                <g id="Group-7" transform="translate(3.937500, 0.000000)">
                    <mask id="mask-2" fill="white">
                        <use xlink:href="#path-1"></use>
                    </mask>
                    <g id="Clip-6"></g>
                    <path d="M14.1229594,7.32966667 C13.6806469,7.699 13.3072406,7.913 12.9994594,8.02766667 C13.6767094,5.83033333 13.9018031,3.48766667 13.9733344,2.05433333 L16.0103344,2.053 C16.0339594,2.051 16.0798969,2.05833333 16.0949906,2.073 C16.1041781,2.08166667 16.1212406,2.121 16.1212406,2.20433333 C16.1212406,2.345 16.0982719,5.679 14.1229594,7.32966667 M16.5530531,1.537 C16.3325531,1.33366667 16.0556156,1.33233333 15.9650531,1.33833333 L14.0008969,1.33833333 C14.0074594,1.09366667 14.0087719,0.908333333 14.0087719,0.801 C14.0087719,-0.035 13.2901781,0.0536666667 13.2901781,0.0536666667 L3.74633437,0.0536666667 C3.74633437,0.0536666667 3.02774063,-0.035 3.02774063,0.801 C3.02774063,0.908333333 3.02905312,1.09366667 3.03495938,1.33833333 L1.07145937,1.33833333 C0.980896875,1.33233333 0.703959375,1.33366667 0.483459375,1.537 C0.365990625,1.64566667 0.225553125,1.85033333 0.225553125,2.20433333 C0.225553125,2.26566667 0.231459375,2.877 0.374521875,3.707 C0.598303125,3.667 0.824709375,3.63766667 1.05505313,3.62033333 C0.919865625,2.84166667 0.915271875,2.261 0.915271875,2.20433333 C0.915271875,2.121 0.932334375,2.08166667 0.941521875,2.073 C0.957271875,2.05833333 1.00649062,2.053 1.01895938,2.05233333 C1.03208438,2.05366667 1.04520938,2.055 1.05899063,2.055 L3.06317812,2.055 C3.08745938,2.54233333 3.13208437,3.14033333 3.20361563,3.79633333 C6.32342813,4.561 8.65442812,7.46033333 8.65442812,10.919 C8.65442812,12.199 8.33352188,13.4023333 7.77374063,14.451 C7.83542813,14.9163333 7.87939688,15.3576667 7.87939688,15.679 C7.87939688,16.509 7.32683438,17.1636667 6.99608438,17.1636667 L5.79580313,17.1636667 L5.79580313,17.9996667 L11.2407094,17.9996667 L11.2407094,17.1636667 L10.0404281,17.1636667 C9.76283437,17.1636667 9.15777187,16.509 9.15777187,15.679 C9.15777187,14.903 9.40845937,13.4316667 9.56595938,12.5843333 C10.2989906,12.3196667 11.2722094,11.7376667 11.9967094,10.4456667 C12.2782406,9.94166667 12.5177719,9.39633333 12.7264594,8.83366667 C13.1950219,8.76833333 13.8007406,8.51766667 14.5554281,7.88766667 C16.7853656,6.025 16.8109594,2.359 16.8109594,2.20433333 C16.8109594,1.85033333 16.6705219,1.64566667 16.5530531,1.537" id="Fill-5" fill="#084D8D" mask="url(#mask-2)"></path>
                </g>
                <g id="Group-10" transform="translate(0.000000, 4.666667)">
                    <mask id="mask-4" fill="white">
                        <use xlink:href="#path-3"></use>
                    </mask>
                    <g id="Clip-9"></g>
                    <path d="M6.6404625,7.25513333 L6.6404625,10.8844667 L4.3672125,10.8844667 L4.3672125,7.25513333 L1.04724375,7.25513333 L1.04724375,5.23113333 L4.3672125,5.23113333 L4.3672125,1.62046667 L6.6404625,1.62046667 L6.6404625,5.23113333 L9.97815,5.23113333 L9.97815,7.25513333 L6.6404625,7.25513333 Z M5.513025,0.5338 C2.468025,0.5338 -0.00013125,3.0938 -0.00013125,6.25246667 C-0.00013125,9.41046667 2.468025,11.9704667 5.513025,11.9704667 C8.55736875,11.9704667 11.025525,9.41046667 11.025525,6.25246667 C11.025525,3.0938 8.55736875,0.5338 5.513025,0.5338 Z" id="Fill-8" fill="#084D8D" mask="url(#mask-4)"></path>
                </g>
            </g>
        </g>
    </g>
</svg>
