<svg width="91" height="95" xmlns="http://www.w3.org/2000/svg">
  <path fill="#000" fill-rule="nonzero" d="m87.894,58.334c-1.901,19.248 -17.409,34.72 -36.562,36.49c-22.64,2.092 -41.947,-14.65 -44.186,-36.41l-3.99,0c-2.426,0 -3.942,-2.64 -2.729,-4.754l8.924,-15.54c1.213,-2.113 4.245,-2.113 5.458,0l8.921,15.54c1.213,2.112 -0.303,4.753 -2.729,4.753l-3.474,0c2.257,16.247 17.296,28.43 34.539,25.89c12.76,-1.881 23.109,-12.006 25.278,-24.79c3.246,-19.136 -11.396,-35.79 -29.831,-35.79a30.007,30.007 0 0 0 -16.705,5.048c-2.3,1.533 -5.49,1.23 -7.177,-0.966c-1.838,-2.39 -1.264,-5.804 1.186,-7.468a40.187,40.187 0 0 1 17.663,-6.657l0,-5.89l-4.134,0a2.583,2.583 0 0 1 -2.575,-2.59l0,-2.61c0,-1.43 1.153,-2.59 2.575,-2.59l19.174,0a2.583,2.583 0 0 1 2.575,2.59l0,2.61c0,1.43 -1.153,2.59 -2.575,2.59l-4.554,0l0,5.953c21.123,2.866 37.147,22.124 34.929,44.59l-0.001,0.001zm1.335,-39.201l-7.766,-7.219a2.565,2.565 0 0 0 -3.64,0.144l-2.054,2.235a2.6,2.6 0 0 0 0.144,3.66l7.765,7.22a2.565,2.565 0 0 0 3.64,-0.144l2.054,-2.236a2.6,2.6 0 0 0 -0.143,-3.66z" id="clock"/>
</svg>
