<?xml version="1.0" encoding="UTF-8"?>
<svg width="21px" height="18px" viewBox="0 0 21 18" version="1.1" xmlns="http://www.w3.org/2000/svg" xmlns:xlink="http://www.w3.org/1999/xlink">
    <!-- Generator: Sketch 52.3 (67297) - http://www.bohemiancoding.com/sketch -->
    <title>smart_boost</title>
    <desc>Created with Sketch.</desc>
    <g id="smart_boost" stroke="none" stroke-width="1" fill-rule="evenodd">
        <rect id="Rectangle-9" opacity="0" fill-rule="nonzero" x="0" y="0" width="21" height="18"></rect>
        <path d="M16.8304276,7.51908238 L10.6289677,0.281543274 C10.2986236,-0.0938477581 9.71301363,-0.0938477581 9.39768516,0.281543274 L3.19622531,7.51908238 C2.74575607,8.04462982 3.1211471,8.87049009 3.8118666,8.87049009 L5.50863406,8.87049009 C5.9591033,8.87049009 6.31947869,9.23086548 6.31947869,9.68133472 L6.31947869,17.1891554 C6.31947869,17.6396246 6.67985409,18 7.13032332,18 L12.9263609,18 C13.3768301,18 13.7372055,17.6396246 13.7372055,17.1891554 L13.7372055,9.68133472 C13.7372055,9.23086548 14.0975809,8.87049009 14.5480501,8.87049009 L16.1997707,8.87049009 C16.9055058,8.87049009 17.2808968,8.04462982 16.8304276,7.51908238 Z" id="ICN/PriceBoost" fill-rule="nonzero"></path>
    </g>
</svg>