<svg xmlns="http://www.w3.org/2000/svg" viewBox="0 0 32 20">
  <g fill="none" fill-rule="evenodd">
    <path fill="#3A3D49" d="M19.6566 10.5795l-3.289-3.5376c-.1906-.2049-.1919-.5357-.0076-.734l.2044-.2198c.1864-.2005.4907-.1982.6825.008l3.289 3.5376 3.2892-3.5375c.1905-.205.4981-.2063.6824-.0081l.2044.2199c.1864.2004.1843.5277-.0075.734l-3.289 3.5375 3.1702 3.4098c.1906.2049.1918.5357.0076.734l-.2045.2198c-.1863.2005-.4906.1982-.6824-.008l-3.1703-3.4099-3.1704 3.4098c-.1905.205-.4981.2063-.6824.0081l-.2044-.2199c-.1864-.2004-.1843-.5277.0075-.734l3.1703-3.4097z"/>
    <path stroke="#3A3D49" stroke-width="1.5" d="M12.6078 1.4219a4.25 4.25 0 0 0-2.675.9474C4.2408 6.9797.9873 10.0228.9873 10.4133c0 .3952 3.2492 3.4975 8.9401 8.2173a4.25 4.25 0 0 0 2.7132.9787h17.6537c.6904 0 1.25-.5596 1.25-1.25V2.672c0-.6904-.5596-1.25-1.25-1.25H12.6078z"/>
  </g>
</svg>
