<svg width="16" height="16" xmlns="http://www.w3.org/2000/svg">
  <g fill="#F01E28" fill-rule="evenodd">
    <path d="M6.355 7.393l-.105-.21.012-.058c.606-.513 1.54-1.12 1.995-1.12.221 0 .443.14.443.432 0 .525-.875 3.383-.875 4.06 0 .186.058.291.198.291.164 0 .455-.14.91-.525h.047l.128.21v.059c-.945.711-1.54 1.096-1.948 1.096-.338 0-.502-.221-.502-.536 0-.514.84-3.185.84-3.944 0-.175-.023-.28-.175-.28-.14 0-.408.14-.921.525h-.047zm1.505-3.08c0-.42.397-.91.805-.91.303 0 .56.21.56.525 0 .315-.292.934-.817.934-.361 0-.548-.257-.548-.549z"/>
    <path d="M8 15.35A7.35 7.35 0 1 1 8 .65a7.35 7.35 0 0 1 0 14.7zm0-.7a6.65 6.65 0 1 0 0-13.3 6.65 6.65 0 0 0 0 13.3z" fill-rule="nonzero"/>
  </g>
</svg>
