<svg id="Layer_1" data-name="Layer 1" xmlns="http://www.w3.org/2000/svg" viewBox="0 0 56 12"><title>BDG</title><rect width="56" height="12" rx="2" ry="2" fill="#a5a5a5"/><path d="M8.45,4.16a.28.28,0,0,1-.1.12.25.25,0,0,1-.14,0A.36.36,0,0,1,8,4.26L7.8,4.12A2,2,0,0,0,7.48,4,1.35,1.35,0,0,0,7,3.92,1.25,1.25,0,0,0,6.66,4a.82.82,0,0,0-.28.15.61.61,0,0,0-.17.23.76.76,0,0,0-.06.29A.51.51,0,0,0,6.27,5a1,1,0,0,0,.3.23A2.9,2.9,0,0,0,7,5.39l.49.16a4.73,4.73,0,0,1,.49.2A1.69,1.69,0,0,1,8.41,6a1.29,1.29,0,0,1,.3.43,1.49,1.49,0,0,1,.11.61,2,2,0,0,1-.13.73,1.68,1.68,0,0,1-.39.6,1.86,1.86,0,0,1-.63.4A2.32,2.32,0,0,1,6.81,9a2.73,2.73,0,0,1-.54-.05,2.89,2.89,0,0,1-.51-.15,2.78,2.78,0,0,1-.46-.24,2.23,2.23,0,0,1-.38-.31l.31-.52a.39.39,0,0,1,.11-.09.26.26,0,0,1,.14,0,.38.38,0,0,1,.22.08L6,7.81A2.07,2.07,0,0,0,6.33,8a1.43,1.43,0,0,0,.51.08,1.05,1.05,0,0,0,.71-.22.78.78,0,0,0,.25-.63.58.58,0,0,0-.11-.37.92.92,0,0,0-.3-.24A2.38,2.38,0,0,0,7,6.45L6.48,6.3A4.14,4.14,0,0,1,6,6.11a1.58,1.58,0,0,1-.43-.29,1.32,1.32,0,0,1-.3-.45,1.71,1.71,0,0,1-.11-.67,1.59,1.59,0,0,1,.49-1.15,1.83,1.83,0,0,1,.59-.37A2.16,2.16,0,0,1,7,3,2.7,2.7,0,0,1,8,3.2a2.16,2.16,0,0,1,.74.45Z" fill="#fff"/><path d="M12,8a1.42,1.42,0,0,0,.56-.1,1.17,1.17,0,0,0,.42-.29,1.29,1.29,0,0,0,.26-.46,1.89,1.89,0,0,0,.09-.6V3.11h1.08V6.57a2.67,2.67,0,0,1-.17,1A2.13,2.13,0,0,1,13,8.78a2.89,2.89,0,0,1-2,0,2.15,2.15,0,0,1-.75-.5,2.17,2.17,0,0,1-.48-.76,2.68,2.68,0,0,1-.17-1V3.11h1.08V6.57a1.89,1.89,0,0,0,.09.6,1.32,1.32,0,0,0,.26.46,1.14,1.14,0,0,0,.41.29A1.42,1.42,0,0,0,12,8Z" fill="#fff"/><path d="M18.57,4.16a.28.28,0,0,1-.1.12.25.25,0,0,1-.14,0,.36.36,0,0,1-.18-.06l-.24-.14A2.09,2.09,0,0,0,17.6,4a1.34,1.34,0,0,0-.43-.06,1.27,1.27,0,0,0-.39.05.81.81,0,0,0-.28.15.59.59,0,0,0-.17.23.74.74,0,0,0-.06.29.51.51,0,0,0,.11.34,1,1,0,0,0,.3.23,2.93,2.93,0,0,0,.43.17l.49.16a4.73,4.73,0,0,1,.49.2,1.69,1.69,0,0,1,.43.29,1.29,1.29,0,0,1,.3.43,1.49,1.49,0,0,1,.11.61,2,2,0,0,1-.13.73,1.68,1.68,0,0,1-.39.6,1.86,1.86,0,0,1-.63.4,2.31,2.31,0,0,1-.85.15,2.74,2.74,0,0,1-.54-.05,2.89,2.89,0,0,1-.51-.15,2.77,2.77,0,0,1-.46-.24A2.28,2.28,0,0,1,15,8.2l.31-.52a.4.4,0,0,1,.11-.09.26.26,0,0,1,.14,0,.38.38,0,0,1,.22.08l.27.18a2,2,0,0,0,.37.18,1.44,1.44,0,0,0,.51.08,1.05,1.05,0,0,0,.71-.22.78.78,0,0,0,.25-.63.58.58,0,0,0-.11-.37.93.93,0,0,0-.3-.24,2.34,2.34,0,0,0-.43-.17l-.49-.15a4.22,4.22,0,0,1-.49-.19,1.56,1.56,0,0,1-.43-.29,1.33,1.33,0,0,1-.3-.45,1.71,1.71,0,0,1-.11-.67,1.59,1.59,0,0,1,.49-1.15,1.83,1.83,0,0,1,.59-.37,2.15,2.15,0,0,1,.8-.14,2.7,2.7,0,0,1,.94.16,2.16,2.16,0,0,1,.74.45Z" fill="#fff"/><path d="M20.87,6.86v2H19.8V3.11h1.88a3.32,3.32,0,0,1,1,.14,1.92,1.92,0,0,1,.7.38,1.49,1.49,0,0,1,.41.58,2,2,0,0,1,.13.74,2.07,2.07,0,0,1-.14.77,1.6,1.6,0,0,1-.42.6,2,2,0,0,1-.7.39,3.14,3.14,0,0,1-1,.14Zm0-.84h.81a1.6,1.6,0,0,0,.52-.07,1,1,0,0,0,.36-.21.86.86,0,0,0,.22-.34A1.27,1.27,0,0,0,22.85,5a1.15,1.15,0,0,0-.07-.42.82.82,0,0,0-.22-.32A1,1,0,0,0,22.2,4a1.7,1.7,0,0,0-.52-.07h-.81Z" fill="#fff"/><path d="M28.41,3.11V4H25.85v1.6h2V6.4h-2V8h2.56v.86H24.76V3.11Z" fill="#fff"/><path d="M30,3.11l.09,0,.07.05.08.09,3,3.87c0-.09,0-.18,0-.27s0-.17,0-.25V3.11h.95V8.89h-.56a.49.49,0,0,1-.21,0,.46.46,0,0,1-.16-.14l-3-3.85c0,.09,0,.17,0,.25s0,.16,0,.23V8.89h-.95V3.11H30Z" fill="#fff"/><path d="M40.53,6a3.13,3.13,0,0,1-.21,1.17,2.62,2.62,0,0,1-1.52,1.51,3.24,3.24,0,0,1-1.2.21H35.39V3.11H37.6a3.22,3.22,0,0,1,1.2.21,2.71,2.71,0,0,1,.92.6,2.65,2.65,0,0,1,.6.91A3.12,3.12,0,0,1,40.53,6Zm-1.1,0a2.67,2.67,0,0,0-.13-.85,1.82,1.82,0,0,0-.36-.64,1.57,1.57,0,0,0-.57-.4A2,2,0,0,0,37.6,4H36.47V8H37.6a2,2,0,0,0,.76-.14,1.56,1.56,0,0,0,.57-.4,1.81,1.81,0,0,0,.36-.64A2.66,2.66,0,0,0,39.43,6Z" fill="#fff"/><path d="M45,3.11V4H42.45v1.6h2V6.4h-2V8H45v.86H41.37V3.11Z" fill="#fff"/><path d="M51.09,6a3.13,3.13,0,0,1-.21,1.17,2.62,2.62,0,0,1-1.52,1.51,3.24,3.24,0,0,1-1.2.21H45.95V3.11h2.21a3.22,3.22,0,0,1,1.2.21,2.71,2.71,0,0,1,.92.6,2.65,2.65,0,0,1,.6.91A3.12,3.12,0,0,1,51.09,6ZM50,6a2.67,2.67,0,0,0-.13-.85,1.82,1.82,0,0,0-.36-.64,1.57,1.57,0,0,0-.57-.4A2,2,0,0,0,48.16,4H47V8h1.12a2,2,0,0,0,.76-.14,1.56,1.56,0,0,0,.57-.4,1.81,1.81,0,0,0,.36-.64A2.66,2.66,0,0,0,50,6Z" fill="#fff"/></svg>