<svg id="Layer_1" data-name="Layer 1" xmlns="http://www.w3.org/2000/svg" viewBox="0 0 25 25"><title>ICN</title><path d="M18.31,4.73H10.58a.48.48,0,0,0,0,1h7.73a.48.48,0,0,0,0-1Z"/><path d="M17.31,9.54H10.58a.48.48,0,0,0,0,1h6.73a.48.48,0,0,0,0-1Z"/><path d="M6.57,6.73l0,0a.24.24,0,0,0,.15.05.24.24,0,0,0,.19-.09L9,4.3a.27.27,0,0,0,0-.38l-.18-.21,0,0a.25.25,0,0,0-.29,0l-1.75,2-.66-.8L6,4.83a.25.25,0,0,0-.34,0l-.19.21a.28.28,0,0,0,0,.35Z"/><path d="M8.84,8.52l0,0a.25.25,0,0,0-.29,0l-1.75,2-.66-.8L6,9.64a.24.24,0,0,0-.34,0l-.19.21a.28.28,0,0,0,0,.35l1.07,1.28,0,0a.25.25,0,0,0,.34,0L9,9.11a.27.27,0,0,0,0-.38Z"/><path d="M8.84,13.33l0,0a.24.24,0,0,0-.29,0l-1.75,2-.66-.8L6,14.45a.24.24,0,0,0-.34,0l-.19.21a.28.28,0,0,0,0,.35l1.08,1.29,0,0a.25.25,0,0,0,.15.05.24.24,0,0,0,.19-.09L9,13.92a.28.28,0,0,0,0-.38Z"/><path d="M23.49,16.46A5,5,0,1,0,25,20,5,5,0,0,0,23.49,16.46ZM20,24.19A4.19,4.19,0,1,1,24.15,20,4.2,4.2,0,0,1,20,24.19Z"/><path d="M21.62,21.09l-1.26-1.26V17.24a.4.4,0,0,0-.81,0V20a.4.4,0,0,0,.12.29l1.38,1.38a.4.4,0,1,0,.57-.57Z"/><path d="M14.17,23l-1.64,1-1.66-1.25a.48.48,0,0,0-.54,0L8.2,23.94,6.54,22.69a.48.48,0,0,0-.54,0l-1.68,1V1H20.67V13.54a6.48,6.48,0,0,1,1,.18V.48A.48.48,0,0,0,21.15,0H3.85a.48.48,0,0,0-.48.48v24a.48.48,0,0,0,.73.41l2.13-1.28L7.88,24.9a.48.48,0,0,0,.54,0l2.13-1.28,1.66,1.25a.48.48,0,0,0,.54,0l1.92-1.15A6.46,6.46,0,0,1,14.17,23Z"/><path d="M16.75,14.35H10.58a.48.48,0,0,0,0,1h4.88A6.52,6.52,0,0,1,16.75,14.35Z"/></svg>