<svg xmlns="http://www.w3.org/2000/svg" viewBox="0 0 10 7"><path fill-rule="evenodd" d="M0 4.88l1.32-.12v.15c0 .32.07.56.22.72.14.17.33.25.56.25.32 0 .61-.16.88-.47.26-.3.4-.73.4-1.28 0-.32-.08-.57-.23-.73a.76.76 0 0 0-.6-.25c-.17 0-.34.04-.5.12-.17.09-.33.21-.49.38L.44 3.56 1.5 0H5l-.26 1.25H2.43l-.32 1.07a2.08 2.08 0 0 1 .8-.18c.53 0 .96.18 1.3.54a2 2 0 0 1 .52 1.44c0 .48-.12.96-.36 1.43A2.58 2.58 0 0 1 2.04 7c-.6 0-1.08-.2-1.46-.58C.2 6.04.01 5.52 0 4.88zm6.96 1V4.06H5.13V2.81h1.83V1h1.21V2.8H10v1.25H8.17v1.82H6.96z"/></svg>
