<svg xmlns="http://www.w3.org/2000/svg" viewBox="0 0 26 20" id="bell-icon-on" width="100%" height="100%"><g fill-rule="nonzero"><path d="M23.291 9.28a.405.405 0 0 1 .661-.469c.234.33.45.68.69 1.171.372.765.638 1.586.746 2.447.303 2.4-.65 4.68-3.23 6.617a.405.405 0 1 1-.486-.647c2.345-1.763 3.18-3.756 2.913-5.869a7.043 7.043 0 0 0-.671-2.194 7.095 7.095 0 0 0-.623-1.056z"></path><path d="M21.519 10.165a.405.405 0 0 1 .66-.469c2.073 2.922 1.619 5.5-1.328 7.535a.405.405 0 0 1-.46-.666c2.575-1.78 2.94-3.847 1.128-6.4zM4.828 18.39a.405.405 0 0 1-.46.666 7.875 7.875 0 0 1-1.05-.864 7.842 7.842 0 0 1-1.537-2.044c-1.106-2.152-.989-4.62.771-7.323a.405.405 0 1 1 .679.442c-1.6 2.458-1.703 4.616-.73 6.51.353.687.83 1.299 1.381 1.833.356.345.646.572.946.78z"></path><path d="M6.187 16.952a.405.405 0 1 1-.46.666c-2.948-2.036-3.402-4.613-1.33-7.534a.405.405 0 1 1 .661.468c-1.811 2.553-1.447 4.62 1.129 6.4z"></path><path d="M10.82 2.99c.058-1.585.77-2.49 2.094-2.49 1.328 0 2.021.91 2.037 2.492 1.443.52 2.453 1.622 3.024 3.172.049.133.094.267.136.405.191.624.271 1.057.438 2.182.202 1.362.36 1.928.76 2.457.924 1.248 1.181 2.021 1.151 3.035l-.007.203c-.007.165-.01.243-.01.337v.556l-.542.126a31.538 31.538 0 0 1-6.89.8h-.242l-.006-.005v.004a31.573 31.573 0 0 1-6.901-.8l-.542-.125v-.557c0-.093-.003-.171-.01-.336a14.987 14.987 0 0 1-.007-.203c-.03-1.014.227-1.788 1.155-3.041.396-.523.554-1.09.756-2.452.167-1.124.247-1.558.438-2.181a7.59 7.59 0 0 1 .136-.405C8.36 4.61 9.373 3.507 10.82 2.989zm1.017-.256a6.823 6.823 0 0 1 1.049-.078c.37 0 .723.028 1.057.08-.055-.883-.388-1.236-1.029-1.236-.643 0-.992.357-1.077 1.234zm.878 16.688C10.995 19.39 10 18.379 10 16.647h1.62c0 .847.289 1.146 1.138 1.155.849-.01 1.138-.308 1.138-1.155h1.62c0 1.732-.996 2.743-2.716 2.775a.656.656 0 0 1-.085 0zm.06-4.558l.133.001h.081a30.324 30.324 0 0 0 6.071-.648v-.015c.021-.691-.134-1.16-.872-2.156-.585-.773-.788-1.498-1.024-3.09-.156-1.053-.228-1.444-.391-1.977a6.19 6.19 0 0 0-.111-.33c-.619-1.678-1.815-2.59-3.777-2.593-1.966 0-3.165.912-3.783 2.592a6.19 6.19 0 0 0-.111.33c-.163.533-.236.924-.392 1.978-.236 1.592-.439 2.316-1.02 3.084-.742 1.002-.897 1.47-.877 2.162v.015c1.96.415 3.984.631 6.072.647z"></path><circle fill="#78BE20" cx="18.5" cy="6.5" r="5.5"></circle><path d="M18.347 8.089l-.855.856-.856-.856-1.161-1.161.856-.856 1.16 1.161 3.178-3.178.856.856-3.178 3.178z" fill="#FFF"></path></g></svg>
