<svg xmlns="http://www.w3.org/2000/svg" viewBox="0 0 80 80"><path d="M40 0C17.9 0 0 17.9 0 40s17.9 40 40 40 40-17.9 40-40S62.1 0 40 0z" fill="none"/><path d="M40 0C17.9 0 0 17.9 0 40s17.9 40 40 40 40-17.9 40-40S62.1 0 40 0zm22.6 41.2l-14 1.1-9.8-13.2 5.5-13 14.5-.5 8.9 13.1-5.1 12.5zM47.3 75.6L34.4 77c-1.2-.2-2.3-.4-3.5-.7l-8.3-6.5 2.8-8.3 15.8-1.4 10.4 7.6-4.3 7.9zM2.9 35.3l5.7-14.2 8.2-1.1 3.9 11.3-6 14.4-9 1.9-3-10.8c.1-.5.1-1 .2-1.5zm34-4.5l9.7 13.1-5.9 13.8L25.1 59l-8-12.3L23 32.6l13.9-1.8zm-17 39l2.7 3.3c-2.1-1.1-4.2-2.5-6-4l3.3.7zM54.6 5.5c1.9.8 3.7 1.8 5.5 2.9l-1.4 4.8-14.7.5-11.8-5.5 1.6-5.1c2-.3 4.1-.5 6.1-.5 5.1 0 10.1 1 14.7 2.9zm-41.1 8C18.4 8.7 24.4 5.3 31 3.7L29.6 8l-12.4 9.4-7.7 1c1.2-1.7 2.5-3.4 4-4.9zm53 53C62 71 56.4 74.2 50.3 76l-.1-.4 3.9-6.9L67 59l4.9.7c-1.6 2.4-3.4 4.7-5.4 6.8zm8-11.9c-.4.9-.8 1.8-1.2 2.6l-5.5-.7-3-13.8L69.9 30l5.6.5 1.5 4.1c.3 1.8.4 3.6.4 5.4 0 5-1 10-2.9 14.6z"/></svg>