<?xml version="1.0" encoding="UTF-8"?>
<svg width="42px" height="31px" viewBox="0 0 42 31" version="1.1" xmlns="http://www.w3.org/2000/svg" xmlns:xlink="http://www.w3.org/1999/xlink">
    <!-- Generator: Sketch 48.2 (47327) - http://www.bohemiancoding.com/sketch -->
    <title>icn/horse_unknown_icn</title>
    <desc>Created with Sketch.</desc>
    <defs></defs>
    <g id="Next/Next_horse-racing-Copy" stroke="none" stroke-width="1" fill="none" fill-rule="evenodd" transform="translate(-32.000000, -312.000000)">
        <g id="Group-11" transform="translate(0.000000, 221.000000)">
            <g id="1" transform="translate(0.000000, 89.000000)">
                <g id="icn/horse_unknown_icn" transform="translate(33.000000, 3.000000)">
                    <path d="M16.2810454,2.21528134 L17.4807894,0.0889570552 L20.3503472,0.0889570552 L20.3503472,0.889034812 L27.7161458,4.85005619 L24.7731597,14.3601834 L24.7731597,28.6719647 L16.2666667,28.6719647 L16.2666667,28.6566897 L7.78031252,28.6566897 L7.78031252,14.3449085 L4.83732639,4.8347812 L12.203125,0.873759826 L12.203125,0.0736820685 L15.0726828,0.0736820685 L16.2810454,2.21528134 Z" id="Combined-Shape" fill="#D8D8D8" fill-rule="evenodd"></path>
                    <path d="M17.6883431,0.444785276 L16.2810454,2.93896006 L14.8651291,0.429510289 L12.5586806,0.429510289 L12.5586806,1.08650272 L5.26360777,5.00949068 L8.13586808,14.2910706 L8.13586808,28.3008615 L16.6222222,28.3008615 L24.4176041,28.3161365 L24.4176041,14.3063456 L27.2898645,5.02476567 L19.9947917,1.10177771 L19.9947917,0.444785276 L17.6883431,0.444785276 Z M16.2810454,1.49160263 L17.2732357,-0.266871166 L20.7059028,-0.266871166 L20.7059028,0.676291914 L28.1424272,4.67534671 L25.1287153,14.4140213 L25.1287153,29.0277929 L15.9111111,29.0277929 L7.42475697,29.0125179 L7.42475697,14.3987463 L4.41104501,4.66007172 L11.8475694,0.661016927 L11.8475694,-0.282146152 L15.2802365,-0.282146152 L16.2810454,1.49160263 Z" id="Combined-Shape" fill="#B9B9B9" fill-rule="nonzero"></path>
                    <path d="M0.0821180556,27.7443503 L4.45820091,6.62933881 C4.57027495,6.08856628 5.09951165,5.7410375 5.64028418,5.85311153 C5.88384956,5.90358998 6.09985802,6.04303407 6.24613538,6.24421832 C7.8280069,8.41986339 8.26199187,11.5313254 7.54809028,15.5786043 C6.6552662,20.6402376 5.75271991,25.0938818 4.84045139,28.939537 L0.0821180556,27.7443503 Z" id="Path-5" fill="#D8D8D8" fill-rule="evenodd"></path>
                    <path d="M0.499543162,27.4823336 L4.57729839,28.5065744 C5.45969712,24.7487324 6.33329219,20.4186903 7.19794832,15.5167478 C8.0178121,10.8687439 7.29833412,7.52635481 5.06632218,5.44701843 L0.499543162,27.4823336 Z M4.46276865,4.8550146 C4.51261744,4.61448739 4.74786429,4.45994297 4.98820719,4.50982999 C5.05863654,4.52444873 5.12446824,4.55595596 5.18004945,4.60164623 C7.90287577,6.83993257 8.79862738,10.5359053 7.89823224,15.6404608 C7.00427241,20.7085329 6.10037475,25.1688455 5.18639197,29.0217271 L5.10320529,29.3723994 L-0.335307051,28.006367 L4.46276865,4.8550146 Z" id="Path-5" fill="#B9B9B9" fill-rule="nonzero"></path>
                    <path d="M24.7111111,27.7632884 L29.087194,6.64827693 C29.199268,6.10750441 29.7285047,5.75997562 30.2692772,5.87204966 C30.5128426,5.9225281 30.7288511,6.0619722 30.8751284,6.26315644 C32.457,8.43880151 32.8909849,11.5502635 32.1770833,15.5975424 C31.2842593,20.6591757 30.381713,25.1128199 29.4694444,28.9584751 L24.7111111,27.7632884 Z" id="Path-5" fill="#D8D8D8" fill-rule="evenodd" transform="translate(28.610595, 16.881078) scale(-1, 1) translate(-28.610595, -16.881078) "></path>
                    <path d="M29.2062914,28.5255125 C30.0886902,24.7676705 30.9622852,20.4376284 31.8269414,15.5356859 C32.6468052,10.887682 31.9273272,7.54529294 29.6953152,5.46595655 L25.1285362,27.5012718 L29.2062914,28.5255125 Z M29.0917617,4.87395273 C29.1416105,4.63342551 29.3768573,4.47888109 29.6172002,4.52876811 C29.6876296,4.54338685 29.7534613,4.57489409 29.8090425,4.62058435 C32.5318688,6.85887069 33.4276204,10.5548434 32.5272253,15.6593989 C31.6332655,20.727471 30.7293678,25.1877836 29.815385,29.0406653 L29.7321983,29.3913375 L24.293686,28.0253051 L29.0917617,4.87395273 Z" id="Path-5" fill="#B9B9B9" fill-rule="nonzero" transform="translate(28.579473, 16.955374) scale(-1, 1) translate(-28.579473, -16.955374) "></path>
                    <path d="M31.5204892,11.3270301 C33.0064845,13.9978267 34.8070054,15.0822804 36.9220517,14.5803912 C40.0946211,13.8275574 40.4211836,9.17260145 39.1055586,6.93442804 C38.2284753,5.44231244 35.7001188,6.90651313 31.5204892,11.3270301 Z" id="Path-7" fill="#D8D8D8" fill-rule="evenodd" transform="translate(35.676231, 10.534542) rotate(2.000000) translate(-35.676231, -10.534542) "></path>
                    <path d="M31.2098437,11.5001343 L31.0829527,11.2720717 L31.2622262,11.082466 C33.373648,8.84935519 35.0729246,7.35863013 36.3733969,6.60551145 C37.7846149,5.78825869 38.8494714,5.79698748 39.4120204,6.75400973 C40.1231944,7.96387626 40.3727883,9.78043366 40.0452439,11.385607 C39.6723412,13.2130651 38.6214036,14.5428382 37.0040839,14.9266196 C34.7134659,15.470171 32.766151,14.2973033 31.2098437,11.5001343 Z M36.8400194,14.2341628 C38.1568838,13.9216779 39.0264848,12.8213537 39.3485122,11.2432169 C39.6422177,9.80387519 39.4172348,8.16643785 38.7990968,7.11484635 C38.1422403,5.99738601 35.8462281,7.30422028 31.9601984,11.3804742 C33.3470802,13.7572494 34.9591849,14.6804748 36.8400194,14.2341628 Z" id="Path-7" fill="#B9B9B9" fill-rule="nonzero"></path>
                    <ellipse id="Oval-4" fill="#D8D8D8" fill-rule="evenodd" cx="34.9333333" cy="8.09509202" rx="4.71111111" ry="4.71472393"></ellipse>
                    <path d="M34.9333333,13.1656442 C32.1350906,13.1656442 29.8666667,10.8954806 29.8666667,8.09509202 C29.8666667,5.2947034 32.1350906,3.02453988 34.9333333,3.02453988 C37.7315761,3.02453988 40,5.2947034 40,8.09509202 C40,10.8954806 37.7315761,13.1656442 34.9333333,13.1656442 Z M34.9333333,12.4539877 C37.3388402,12.4539877 39.2888889,10.5024436 39.2888889,8.09509202 C39.2888889,5.6877404 37.3388402,3.73619632 34.9333333,3.73619632 C32.5278264,3.73619632 30.5777778,5.6877404 30.5777778,8.09509202 C30.5777778,10.5024436 32.5278264,12.4539877 34.9333333,12.4539877 Z" id="Oval-4" fill="#B9B9B9" fill-rule="nonzero"></path>
                </g>
            </g>
        </g>
    </g>
</svg>