<svg data-name="Layer 1" xmlns="http://www.w3.org/2000/svg" viewBox="0 0 28 34"><path d="M14 29.47a.85.85 0 0 0 .86-.85V9.92a.86.86 0 0 0-1.71 0v18.7a.85.85 0 0 0 .85.85zm-5.71 0a.85.85 0 0 0 .86-.85V9.92a.86.86 0 0 0-1.71 0v18.7a.85.85 0 0 0 .85.85zm11.42 0a.85.85 0 0 0 .86-.85V9.92a.86.86 0 0 0-1.71 0v18.7a.85.85 0 0 0 .85.85z"/><path d="M27.14 3.4h-7.77A4.59 4.59 0 0 0 18.29.82a2.7 2.7 0 0 0-2-.82h-5.72a2.7 2.7 0 0 0-2 .82A4.58 4.58 0 0 0 7.48 3.4H.86a.85.85 0 1 0 0 1.7h.89l1.08 25.8A3 3 0 0 0 5.92 34h16.16a3 3 0 0 0 3.09-3.08L26.25 5.1h.89a.85.85 0 1 0 0-1.7zM10.57 1.7h5.71a1 1 0 0 1 .77.3 2.68 2.68 0 0 1 .59 1.4H9.21A2.68 2.68 0 0 1 9.8 2a1 1 0 0 1 .77-.3zm14 3.4l-1.12 25.76a1.35 1.35 0 0 1-1.38 1.43H5.92a1.38 1.38 0 0 1-1.38-1.45L3.46 5.1z"/></svg>