<svg width="30" height="30" xmlns="http://www.w3.org/2000/svg"><path d="M15 28.4c7.4 0 13.4-6 13.4-13.4S22.4 1.6 15 1.6 1.6 7.6 1.6 15s6 13.4 13.4 13.4zm0 1.6C6.716 30 0 23.284 0 15 0 6.716 6.716 0 15 0c8.284 0 15 6.716 15 15 0 8.284-6.716 15-15 15zm5.174-14.773l.066-.042a.582.582 0 0 0 .262-.317.59.59 0 0 0-.265-.313l-.059-.036-8.032-5.45-.024-.018v11.86l8.052-5.684zm-7.119 6.984c-.313.26-.699.42-1.105.457l-.072.003c-.892 0-1.356-.754-1.356-1.703V9.048c0-.967.48-1.72 1.387-1.72l.06.003c.403.03.788.182 1.104.433l7.979 5.414a2.19 2.19 0 0 1 1.061 1.563l.017.113-.015.113a2.182 2.182 0 0 1-1.047 1.587l-8.013 5.657z" fill="#fff"/></svg>