<svg xmlns="http://www.w3.org/2000/svg" viewBox="0 0 450 51"><path d="M351.2.3c4.9.5 9.3 2.1 12.8 5.7 2.9 2.9 4.5 6.4 5 10.3 1.2 8.2-.4 16-5.1 22.9-4.3 6.3-10.4 10.1-18.1 11.3-.9.1-1.8.4-2.7.4-1.1.1-3.2.1-4.2 0-1.3-.1-2.5-.4-3.8-.6-5.7-1.1-10.3-3.9-13.3-9-1.6-2.8-2.4-5.8-2.6-8.9-.4-5.2.2-10.3 2.3-15.1 4-9.2 10.9-15.1 21.1-16.8 1.4-.2 2.8-.4 4.3-.4.2 0 3.3.1 4.3.2zm-18.8 29.9c-.1 2 .2 3.9.9 5.7 1.5 3.9 4.4 5.6 8.1 5.6 2.9 0 5.4-1.2 7.5-3.2 2.9-2.7 4.7-6.1 5.8-9.8 1.2-4.1 1.8-8.3.8-12.5-1.3-5.4-5.3-7.7-10.7-6.7-3.2.6-5.5 2.6-7.4 5.2-3.5 4.6-4.8 10-5 15.7z" fill="#ec1d25"/><path d="M245.2 0l4 .4c3.1.3 6.1 1 9.1 1.9.1 0 .2.1.2.2l-2.8 9.8c-1.2-.5-2.4-1-3.6-1.4-3.5-1.3-7.2-1.6-10.9-1.3-2.8.2-5.6.8-8.2 1.9-5.5 2.4-8.8 6.5-9.9 12.3-.7 3.6-.6 7.2.9 10.7 1.8 4 5.1 6.1 9.5 6.7 2.2.3 4.4.1 6.6-.4.6-.1.9-.4 1.1-1.1.6-2.9 1.3-5.8 1.9-8.8 0-.2.1-.4.1-.6H235c.2-1 .4-2 .6-2.9.4-1.8.8-3.5 1.1-5.3.1-.4.2-.5.6-.5h20c-.8 3.6-1.6 7.3-2.4 10.9-1.1 5-2.2 10.1-3.3 15.2-.1.5-.3.8-.9 1-3.7 1.1-7.4 1.8-11.3 1.9-2.4.1-4.9.2-7.3.1-4.3-.2-8.5-1.1-12.4-3.2-5.1-2.8-8.4-7.1-9.7-12.7-2-8.5-.9-16.5 4.5-23.6 4.2-5.5 9.9-8.8 16.7-10.2 2.2-.4 4.5-.6 6.8-.9.2 0 .4-.1.6-.1h6.6zM0 47.9c.3-1.2.6-2.3.9-3.5C2.7 36.2 4.4 28 6.2 19.8 7.5 13.9 8.8 7.9 10 2c.1-.5.3-.7.9-.7 6.7 0 13.4 0 20.1.1 3.2 0 6.4.6 9.4 2 3.9 1.8 5.9 4.9 6.2 9.1.2 3.5-.7 6.7-3.3 9.2-2 2-4.6 3-7.3 3.5-.9.2-1.9.3-2.9.5.3.2.5.4.7.5 2.1 1.5 3.2 3.5 3.8 6 1.3 5.8 2.6 11.7 3.9 17.6H28.6c-.3-1.3-.6-2.6-.9-4-.9-3.9-1.7-7.7-2.6-11.6-.5-2.3-1.7-3.4-4.2-3.6-1.3-.1-2.7 0-4.2 0-.3 1.5-.7 3.1-1 4.8-1 4.6-2 9.2-2.9 13.8-.1.3-.1.6-.6.6H0v-1.9zm18.3-26.5H25c1.7-.2 3.4-.5 4.9-1.4 2.1-1.2 3.2-3.5 2.8-5.8-.4-2.1-1.9-3.6-4.3-3.9-2.4-.3-4.8-.2-7.2-.3-.2 0-.5.3-.5.5-.3 1.5-.7 3-1 4.5-.6 2.1-1 4.2-1.4 6.4zm363.1 29.5l-4.2-.3c-4-.3-8-1.1-11.8-2.5l2.8-9.8c1.5.6 2.9 1.2 4.4 1.7 4.5 1.5 9 1.7 13.5.3 1.1-.4 2.2-1 3.1-1.7 2.4-2.1 2.2-5.7-.5-7.4-1.7-1-3.5-1.7-5.3-2.6-2.2-1-4.4-1.8-6.5-3-3.8-2.3-5.4-5.8-5.2-10 .3-7 4.4-11.3 10.7-13.7 2.5-1 5.2-1.5 7.9-1.6 5.6-.3 11.2.1 16.7 1.5.6.2 1.2.4 1.9.6l-3 9.4c-.4-.2-.7-.3-1.1-.4-2.9-1.2-6-1.8-9.2-1.9-2.1 0-4.1 0-6.1.6-.9.3-1.8.7-2.5 1.3-2.1 1.6-2 4.8.3 6.1 1.6 1 3.5 1.6 5.2 2.4 2.2 1.1 4.5 2.2 6.7 3.5 4.2 2.5 6 6.2 5.7 11-.5 7.3-4.5 11.9-11.2 14.6-3.4 1.3-7 1.8-10.7 1.9-.2 0-.5.1-.7.1l-.9-.1zm-261.8 0c-1.2-.1-2.4-.2-3.5-.3-5-.5-9.6-1.9-13.5-5.1-3.6-3-5.8-6.8-6.7-11.3-1.7-8.7-.1-16.8 5.5-23.9 3.9-4.9 9.1-8 15.3-9.3 2.7-.6 5.5-.9 8.3-.9.2 0 .4 0 .6-.1h.9c1.3.1 2.5.2 3.8.3 4.3.4 8.4 1.3 12.5 2.7l-3.2 9.7c-.2-.1-.4-.1-.5-.2-3.1-1.8-6.5-2.7-10.1-2.8-3.4-.1-6.7.2-9.9 1.5-5.4 2.2-8.4 6.3-9.7 11.7-.7 2.9-.9 5.8-.2 8.7 1.2 4.8 4.4 7.6 9.2 8.8 4.8 1.1 9.4.4 13.9-1.3.8-.3 1.6-.7 2.5-1.1-.1 1.1-.2 2.2-.3 3.2-.3 2.4-.6 4.8-.8 7.1-.1.6-.3.8-.8.9-4 .9-8 1.6-12.1 1.6-.1 0-.3.1-.4.1h-.8zM450 1.6c-.3 1.2-.6 2.3-.9 3.5-.4 1.8-.8 3.6-1.2 5.5H436c-.6 0-.7.2-.8.7l-8.1 37.8c-.1.5-.3.7-.9.7h-12.5l8.5-39.1h-12.3l2-9.3h38.3l-.2.2zm-295.1 48c.3-1.6.7-3.1 1-4.7 1.4-6.6 2.9-13.3 4.3-19.9 1.6-7.5 3.3-15 4.9-22.4.3-1.3.3-1.3 1.7-1.3h14.1c.4 0 .7 0 .9.6 2.8 9.2 5.7 18.4 8.5 27.6.6 2 .9 4 1.3 6 .1.4.2.6.7.5.2-1.5.4-3 .7-4.6.7-3.5 1.4-7 2.2-10.4 1.4-6.4 2.7-12.7 4.1-19.1.1-.4.2-.6.7-.6h11c.1 0 .3 0 .4.1-.3 1.5-.6 2.9-.9 4.4L206.3 25c-1.4 6.6-2.8 13.1-4.3 19.7-.3 1.5-.7 3-1 4.4-.1.5-.3.7-.8.7h-14.9c-.4 0-.7 0-.8-.5l-8.7-28.2c-.6-1.9-.7-3.8-1.1-5.7 0-.2-.2-.4-.3-.5-.1.2-.3.3-.4.5-.6 5.4-1.8 10.6-3 15.9l-3.9 18c-.1.4-.1.6-.6.6h-11.2c-.2-.2-.3-.3-.4-.3zm117.9.1c.4-1.9.8-3.8 1.2-5.6 1.9-8.6 3.7-17.3 5.6-25.9 1.2-5.5 2.3-10.9 3.5-16.3.1-.4.3-.6.7-.6 5.8 0 11.7 0 17.5.1 3.8.1 7.5.7 10.9 2.5 3.6 1.9 5.4 4.9 5.8 8.8.4 4-.3 7.7-2.4 11.1-2.5 4-6.2 6.2-10.7 7.4-3.6 1-7.3 1.2-11.1.9-1.3-.1-2.5-.1-3.8-.1-.1 0-.4.3-.4.5-.8 3.7-1.7 7.5-2.5 11.3l-1.2 5.4c0 .2-.3.4-.5.5h-12.6zm18.9-26.8c2 .2 5.8.1 7.6-.4 2.3-.6 4.2-1.6 5.3-3.7 1.4-2.9.9-6.9-2.8-8.3-2.4-.8-4.8-.7-7.3-.7l-2.8 13.1zM147.9 1.3H161c-.3 1.3-.6 2.6-.8 3.9-1.7 8-3.5 16-5.2 24-1.4 6.6-2.9 13.3-4.3 19.9-.1.4-.2.6-.6.6h-12.2c-.1 0-.2 0-.4-.1l10.4-48.3zM42.7 49.7c.7-1.3 1.4-2.6 2-3.8 7.5-14 15.1-28 22.6-42 .4-.7.8-1.3 1.1-2 .2-.5.5-.6 1-.6h14.2c.7 0 1 .2 1.1.9l4.2 18.6c2 8.6 4 17.3 5.9 25.9.2 1 .4 2 .7 3.1H83.3c-.6 0-.8-.1-.9-.7-.5-3-1.1-6-1.7-9-.1-.4-.2-.6-.6-.6H61.6c-.2 0-.6.3-.7.5-1.6 3-3.1 6.1-4.6 9.1-.2.5-.5.7-1.1.7H43.5c-.2-.1-.5-.1-.8-.1zm22.9-19.5H79l-3.6-19.3h-.2l-9.6 19.3z"/></svg>