<svg width="1297" height="116" xmlns="http://www.w3.org/2000/svg"><g fill="none" fill-rule="evenodd"><path d="M568 109.03v-97h48.39c21.72 0 33.61 15.34 33.61 32.92 0 17.58-11.89 32.17-33.61 32.17h-23.47v31.91H568zm56.64-64.08c0-6.68-4.92-11.1-11.59-11.1h-20.13v22.11h20.13c6.67 0 11.59-4.46 11.59-11.01zM868.1 109.03V33.85H841V12.03h79v21.82h-26.97v75.18H868.1" fill="#202020"/><path d="M705 10.03c-27.6 0-50 22.61-50 50.5s22.39 50.5 50 50.5 50-22.61 50-50.5-22.39-50.5-50-50.5zm0 77.49a26.48 26.48 0 0 1-17.58-6.7 27 27 0 0 1 16.21-47.27H705a26.55 26.55 0 0 1 4.36.37c.89.15 1.78.34 2.66.58a25.13 25.13 0 0 1 2.92 1l.47.19c11.762 5.023 18.386 17.608 15.868 30.147-2.519 12.54-13.489 21.591-26.278 21.683z" fill="#D8222B"/><path d="M757 93.5s16.49-15.77 16.56-15.68c8.26 7.4 17.61 10.56 28.4 10.56 8.56 0 13.45-3.27 13.45-8 0-13.27-54.86-2.41-54.86-39.81 0-16.44 13.86-31.53 38.67-31.53a59 59 0 0 1 34.35 10.73s-16.73 15.79-16.69 15.82a46.09 46.09 0 0 0-20.36-4.77c-7.24 0-10.24 3.08-10.24 7.18 0 12.16 54.7 2.29 54.7 39.5 0 19.67-15.16 32.5-40.36 32.5-19.59 0-33.16-6.76-43.64-16.53M62.61 107.95L47.06 76.515l-13.27-.168V108H9V12h48.13c21.33 0 33.49 14.195 33.49 32.03 0 16.46-8.66 26.045-18.43 29.982L91 107.95H62.61zM66 43.855C66 37.25 60.46 33 53.848 33H34v22h19.848C61.271 55 66 50.76 66 43.854zM169.061 108l-6.16-18.646-34.881-.158L121.939 108H94l35.96-96h30.94l36.1 96h-27.939zm-23.595-71L135 68h21l-10.534-31zM291 12.034h25v96h-25zM394.9 108.034l-40.93-55.551v55.551H329v-96h25.69l39.19 52.83v-52.83H419v96h-24.1M429.008 59.399c-.524-30.771 23.746-50.235 51.27-50.364 17.81-.07 29.148 6.445 38.398 16.326l-16.334 15.554c-7.342-7.812-11.428-9.158-20.975-9.485-13.95-.485-26.813 12.029-26.813 27.434 0 15.841 11.368 27.771 26.714 27.771 7.766 0 12.515-2.07 17.027-5.554v-7.406h-14.306v-21.92H523l-.08 35.82c-11.268 15.386-25.664 21.247-41.553 21.455-24.389.307-51.745-15.84-52.32-49.631M281.96 92.767c-4.853-4.722-16.103-15.574-16.094-15.574a26.724 26.724 0 0 1-21.145 9.703c-15.65 0-27.087-14.109-27.087-28.148 0-17.218 14.68-28.544 28.55-27.396 9.53.792 15.046 4.446 19.425 9.357 0 .059 16.292-15.475 16.391-15.614-3.717-3.713-14.196-15.91-36.795-16.06C214.737 8.839 192 29.442 192 58.432c0 30 23.518 50.603 52.464 50.603 20.76 0 31.06-9.386 37.457-16.267" fill="#202020"/><path d="M964 12h48.985C1034.983 12 1047 26.691 1047 44.276s-12.052 31.866-34.015 31.866h-23.759V109H964V12zm45.635 21.078h-20.374v21.814h20.374c6.734 0 11.724-4.212 11.724-10.753.018-6.54-5.024-11.061-11.724-11.061zM1058 12h25v97h-25zM1094 60.509c0-30.16 22.708-50.509 51.882-50.509 24.183 0 36.703 13.313 43.118 26.211l-21.559 10.243c-3.739-8.622-12.212-14.192-21.559-14.209-15.144 0-26.361 12.295-26.361 28.246 0 15.951 11.217 28.264 26.361 28.264 9.347-.017 17.82-5.587 21.559-14.21l21.525 10.244c-6.26 12.605-18.952 26.211-43.118 26.211-29.123.034-51.848-20.469-51.848-50.491zM1230.67 72.505l-6.564 8.135V109H1199V12h25.106v39.852L1254.024 12h30.931l-37.788 45.366L1287 109h-30.794z" fill="#D8262A" fill-rule="nonzero"/></g></svg>