<svg xmlns="http://www.w3.org/2000/svg" width="140" height="15"><g fill="none"><path fill="#40494e" d="M5.6 2.73c2.26 0 3.4.8 3.4 2.37 0 1.38-.92 2.28-2.6 2.41A2 2 0 0 1 7.34 9L8 12.27H5.55L4.88 9.2c-.12-.55-.42-.73-1.14-.73h-.45l-.79 3.79H0l2-9.53h3.6zm-2 4h.9c1.22 0 1.85-.48 1.85-1.24s-.44-1-1.31-1H4l-.4 2.24zm12.69-4l2.13 9.53h-2.51l-.37-2h-3.73l-1 2H8.24l5-9.53h3.05zm-3.63 5.7h2.56l-.69-3.83-1.87 3.83zM26.86 5a4.13 4.13 0 0 0-2.26-.6A3.36 3.36 0 0 0 21 8.08a2.41 2.41 0 0 0 2.71 2.45 5 5 0 0 0 2.27-.59l-.25 2.2c-.848.23-1.722.35-2.6.36-3 0-4.75-1.7-4.75-4.48a5.58 5.58 0 0 1 1.48-3.83 5.71 5.71 0 0 1 4.44-1.66 10.4 10.4 0 0 1 3.23.56L26.86 5zM31 2.73l-2 9.53h-2.58l2-9.53zm3.94 0l1.48 4.84c.218.65.376 1.32.47 2H37a14.13 14.13 0 0 1 .33-2l1-4.82h2.31l-2 9.53H35.5l-1.62-5.34a7.87 7.87 0 0 1-.32-1.54h-.1c-.11.85-.22 1.47-.3 1.88l-1.05 5h-2.32l2-9.53 3.15-.02zm14.22 2.2a4.73 4.73 0 0 0-2.3-.58c-2.57 0-4 1.43-4 3.61a2.35 2.35 0 0 0 2.47 2.62 3.85 3.85 0 0 0 1-.15l.42-2h-1.57l.37-1.73h4L48.38 12a10.19 10.19 0 0 1-3.27.47c-3.12 0-4.85-1.7-4.85-4.52a5.18 5.18 0 0 1 1.41-3.68 6.22 6.22 0 0 1 4.89-1.77 10.1 10.1 0 0 1 3.15.5l-.55 1.93zm8.1-2.2c2.63 0 3.9.78 3.9 2.58 0 2.16-1.51 3.52-4.1 3.52H55.7l-.7 3.44h-2.56l2-9.53 2.82-.01zM56.08 7h.67c1.25 0 1.93-.55 1.93-1.43 0-.73-.52-1.13-1.48-1.13h-.59L56.08 7z"/><path fill="#E20613" d="M71 6.61a6.5 6.5 0 0 1-1.18 3.76 5.18 5.18 0 0 1-4.3 2.13c-2.67 0-4.22-1.57-4.22-4.13a6.26 6.26 0 0 1 1.1-3.62 5.16 5.16 0 0 1 4.44-2.24c2.65 0 4.16 1.56 4.16 4.1zm-4.33-2.32a2.41 2.41 0 0 0-2 1.35 5.81 5.81 0 0 0-.75 2.83c0 1.37.68 2.17 1.73 2.17a2.43 2.43 0 0 0 2-1.36 5.68 5.68 0 0 0 .75-2.8c.01-1.41-.64-2.19-1.73-2.19z"/><path fill="#40494e" d="M78 4.81a5.14 5.14 0 0 0-2.15-.47c-1.16 0-1.75.36-1.75 1s.66.74 1.66 1.22c1.38.67 2 1.25 2 2.53 0 2-1.6 3.42-4.42 3.42a9.35 9.35 0 0 1-3.12-.51l.55-2a5 5 0 0 0 2.25.59c1.34 0 2.1-.48 2.1-1.2s-.77-1-2.07-1.52a2.3 2.3 0 0 1-1.6-2.24c0-1.79 1.55-3.1 4-3.1a9.57 9.57 0 0 1 3.17.47L78 4.81zm8.47-2.08l-.4 1.84h-2.42L82 12.27h-2.54l1.63-7.69h-2.35l.38-1.84zm10.86 1.11h1.09a.46.46 0 0 1 .29.09.53.53 0 0 1 .17.22l1.72 4.46c.06.14.11.3.16.48s.1.36.15.55a6.29 6.29 0 0 1 .29-1l1.71-4.46a.52.52 0 0 1 .16-.21.44.44 0 0 1 .29-.1h1.09l-2.95 7.32h-1.23l-2.94-7.35zm12.48 0v1.08h-3.23V7h2.55v1h-2.55v2.07h3.23v1.09h-4.6V3.84zm2.58 4.46v2.86H111V3.84h2.23c.432-.01.862.04 1.28.15.316.084.612.23.87.43.22.177.393.408.5.67.218.49.26 1.042.12 1.56a2 2 0 0 1-.81 1.07 2.64 2.64 0 0 1-.68.32c.177.105.327.248.44.42l1.83 2.7h-1.22a.56.56 0 0 1-.51-.27l-1.53-2.34a.54.54 0 0 0-.19-.19.66.66 0 0 0-.3-.06h-.64zm0-1h.85c.227.003.454-.03.67-.1a1.3 1.3 0 0 0 .47-.27 1.08 1.08 0 0 0 .28-.4 1.4 1.4 0 0 0 .09-.51 1 1 0 0 0-.37-.86 1.75 1.75 0 0 0-1.12-.3h-.87V7.3zm11.47.2a4 4 0 0 1-.27 1.5 3.31 3.31 0 0 1-1.92 1.91 4.07 4.07 0 0 1-1.51.27h-2.79V3.84h2.79a4.06 4.06 0 0 1 1.51.27 3.42 3.42 0 0 1 1.17.75c.325.325.58.713.75 1.14a4 4 0 0 1 .27 1.5zm-1.39 0a3.37 3.37 0 0 0-.16-1.08 2.3 2.3 0 0 0-.46-.81 2 2 0 0 0-.72-.51 2.47 2.47 0 0 0-1-.18h-1.42v5.15h1.42a2.47 2.47 0 0 0 1-.18 2 2 0 0 0 .72-.51 2.3 2.3 0 0 0 .46-.81 3.37 3.37 0 0 0 .16-1.07zm3.98 3.66h-1.36V3.84h1.36zm6.66-1.73a.26.26 0 0 1 .19.09l.53.58a3 3 0 0 1-1.09.85 3.75 3.75 0 0 1-1.56.29 3.66 3.66 0 0 1-1.46-.28 3.21 3.21 0 0 1-1.11-.77 3.39 3.39 0 0 1-.7-1.18 4.45 4.45 0 0 1-.24-1.5 4.06 4.06 0 0 1 .27-1.51 3.41 3.41 0 0 1 1.95-2c.484-.19 1-.285 1.52-.28.486-.01.97.078 1.42.26a3.3 3.3 0 0 1 1 .69l-.45.63a.42.42 0 0 1-.1.11.3.3 0 0 1-.17 0 .4.4 0 0 1-.24-.09l-.31-.2a2.52 2.52 0 0 0-.47-.2 2.71 2.71 0 0 0-1.67.09 2.1 2.1 0 0 0-.74.51 2.38 2.38 0 0 0-.48.81 3.14 3.14 0 0 0-.17 1.08c-.008.374.05.746.17 1.1.102.298.262.573.47.81a2 2 0 0 0 .7.5c.275.116.571.174.87.17.166.01.334.01.5 0 .14-.02.277-.053.41-.1.126-.043.247-.1.36-.17a2.24 2.24 0 0 0 .34-.26l.11-.07a.26.26 0 0 1 .15.04zM140 3.84V5h-2.2v6.2h-1.36V5h-2.21V3.84zM91.38 0h1v15h-1z"/></g></svg>