<svg viewBox="0 -25 180 180" xmlns="http://www.w3.org/2000/svg"><path d="M177.01 71.7l-19.9-21a10.44 10.44 0 0 0-14.8 0l-20 21.1a4.59 4.59 0 0 0 .2 6.5 4.82 4.82 0 0 0 3.2 1.3 4.71 4.71 0 0 0 3.3-1.4l16.2-17v6.4a56.34 56.34 0 0 1-92.7 43.1 4.61 4.61 0 1 0-6 7 65.58 65.58 0 0 0 107.8-50.2v-6.4l16.1 17a4.68 4.68 0 0 0 6.5.2 4.91 4.91 0 0 0 .1-6.6zM55.81 55.8a4.59 4.59 0 0 0-6.5.2l-16.2 17v-7.5a56.34 56.34 0 0 1 92.7-43.1 4.61 4.61 0 0 0 6-7 65.58 65.58 0 0 0-107.8 50.2V73L7.91 56a4.6 4.6 0 1 0-6.7 6.3l19.9 21a10.16 10.16 0 0 0 14.8 0l20-21.1a4.47 4.47 0 0 0-.1-6.4z"/></svg>