<svg xmlns="http://www.w3.org/2000/svg" xmlns:xlink="http://www.w3.org/1999/xlink" width="22" height="22"><defs><path id="A" d="M0 0h22v22H0z"/><path id="B" d="M0 0h14v14H0z"/></defs><g fill="none" fill-rule="evenodd"><mask id="C" fill="#fff"><use xlink:href="#A"/></mask><g mask="url(#C)"><g transform="translate(0 1)"><g transform="translate(8)"><mask id="D" fill="#fff"><use xlink:href="#B"/></mask><g mask="url(#D)" fill="#252835"><path d="M2.74 11.212h2.332l1.007 1.712c-1.268-.198-2.438-.798-3.34-1.712zM1.9 5.837l-.894 1.518a5.97 5.97 0 0 1 .358-2.427l.536.91zm3.404-4.588l1.174 1.995-1.415 2.404H2.237l-.68-1.155a6.02 6.02 0 0 1 3.757-3.245zM9.65 3.054H6.815L5.695 1.15c.43-.096.866-.145 1.306-.145 1.166-.001 2.306.34 3.28.98l-.63 1.068zm3.188 2.593h-1.447L9.977 3.243l.613-1.04a6.01 6.01 0 0 1 2.249 3.446zM6.815 3.432H9.65l1.415 2.405L9.65 8.242H6.815L5.4 5.837l1.415-2.405zm-4.417 7.403c-.684-.818-1.137-1.804-1.31-2.856l1.15-1.954h2.836L6.488 8.43l-1.415 2.406H2.398zM7 12.995c-.152 0-.303-.008-.452-.02L5.4 11.024 6.815 8.62H9.65l1.415 2.405-.437.744A5.96 5.96 0 0 1 7 12.995zM12.994 7a5.97 5.97 0 0 1-1.392 3.835h-.2L9.977 8.43l1.415-2.404h1.52a5.96 5.96 0 0 1 .081.974zm-.404 4.212l.02-.024A6.97 6.97 0 0 0 14 7a6.97 6.97 0 0 0-1.391-4.188 7.04 7.04 0 0 0-1.506-1.482C9.91.464 8.474-.002 7 0a6.98 6.98 0 0 0-4.95 2.05c-.397.397-.746.84-1.037 1.32A6.97 6.97 0 0 0 0 7c-.001 1.05.235 2.088.7 3.035a6.97 6.97 0 0 0 .7 1.154c.202.27.422.524.66.762A6.98 6.98 0 0 0 7 14c.564 0 1.11-.07 1.637-.194a6.96 6.96 0 0 0 1.575-.587 7.03 7.03 0 0 0 2.379-2.007z"/></g></g><g transform="matrix(.731354 -.681998 .681998 .731354 .687591 14.668255)" fill="#252835"><rect x="2" width="6" height="1" rx=".5"/><rect y="6" width="8" height="1" rx=".5"/><rect x="4" y="3" width="4" height="1" rx=".5"/></g></g></g></g></svg>