<svg viewBox="0 0 69 15"><path d="M2.54 2.81a4.63 4.63 0 0 0-.88 0H.54C.09 2.77 0 2.6 0 1.64S.05.5.42.5h8c.36 0 .39.21.39 1.09 0 1.07 0 1.18-.36 1.18H7.14a4.63 4.63 0 0 0-.88 0c-.27.17-.21.56-.21.86v9.19a1.6 1.6 0 0 1-1.75 1.81c-1.28 0-1.55 0-1.55-.23V3.67c0-.3.06-.69-.21-.85m8.61 11.78a1.58 1.58 0 0 0 1.7-1.9V.92c0-.37-.09-.39-1.7-.39-1.42 0-1.54.03-1.54.37v13.38c0 .32.06.32 1.54.32m54.74-.39c0 .37.09.41 1.66.41S69 13 69 12.7V.9c0-.39-.21-.37-1.39-.37s-1.51.12-1.82.86c-.45 1.18-.91 2.22-1.33 3.3-.3.81-.63 1.52-.85 1.52s-.51-.67-.85-1.52l-1.33-3.3C61.17.65 61 .51 59.77.51s-1.58 0-1.58.39v13.31c0 .37 0 .41 1.61.41 1.48 0 1.58-1.58 1.58-1.93 0-3.23 0-3.83.09-5.66a.24.24 0 0 1 .45.09c.36 1.29.72 2.36 1 3.14.06.23.18.35.66.35s.57-.11.66-.32c.24-.71.6-1.84 1-3.12a.32.32 0 0 1 .54-.11zm-44.16 0c0 .37.09.41 1.67.41s1.45-1.62 1.45-1.92V.9c0-.39-.21-.37-1.4-.37s-1.51.12-1.82.86c-.45 1.18-.91 2.22-1.33 3.3-.3.81-.63 1.52-.85 1.52s-.51-.67-.85-1.52c-.48-1.2-.85-2.1-1.34-3.3-.26-.74-.47-.88-1.65-.88S14 .53 14 .9v13.31c0 .37 0 .41 1.61.41 1.48 0 1.58-1.58 1.58-1.93 0-3.23 0-3.83.09-5.66a.24.24 0 0 1 .45.09c.36 1.29.72 2.36 1 3.14.06.23.18.35.66.35s.57-.11.66-.32c.24-.71.6-1.84 1-3.12a.32.32 0 0 1 .54-.11zm7.58-10.89c0-.3 0-.28.15-.43a1.45 1.45 0 0 1 .69-.11h3c.39 0 .39-.13.39-1.18s0-1.09-.36-1.09h-6.24c-.3 0-.51 0-.69.19a.52.52 0 0 0-.21.51v11c0 .73-.07 2.41 1.39 2.41h5.81c.33 0 .36-.09.36-1.15s0-1.11-.39-1.11h-2.88a3.2 3.2 0 0 1-.91-.09c-.15-.07-.15-.51-.15-.81v-2c0-.3-.06-.53.21-.67a3.06 3.06 0 0 1 .76-.07h1.37c.39 0 .39-.14.39-1.11s0-1.16-.39-1.16h-1.46a1.32 1.32 0 0 1-.66-.09c-.24-.14-.18-.4-.18-.6V3.32zm16-.58c-.91 0-1.15.74-1.15 1.39v6.52c0 .65 0 1.39 1.15 1.39s1.15-.74 1.15-1.39V4.13c0-.64-.27-1.38-1.15-1.38m-4.94 3.71h-1.69a1.27 1.27 0 0 1-.68-.11c-.21-.14-.18-.39-.18-.6V3.51c0-.3 0-.49.18-.65a1.79 1.79 0 0 1 .66-.09h2.37A3.88 3.88 0 0 1 44.66.4h.7a6.45 6.45 0 0 1 1.57.18A6 6 0 0 0 44.57 0 5.83 5.83 0 0 0 42 .58a.34.34 0 0 0-.26-.08h-6.36c-.3 0-.45 0-.63.19s-.18.23-.18.53v13c0 .37.18.35 1.46.35a1.84 1.84 0 0 0 1.79-1.9V9.51c0-.3-.06-.6.21-.74a2.25 2.25 0 0 1 .76-.07h1.6c.45 0 .45-.11.45-1.11s0-1.13-.46-1.13m16.72 6.26a1.63 1.63 0 0 1-1.67 1.9c-1.45 0-1.58 0-1.58-.39v-3.77c0-.81-.36-1.46-1.12-1.46-1.06 0-1.19 0-1.19.3v3.34a1.77 1.77 0 0 1-1.75 2c-.85 0-1.24 0-1.39-.16a6.11 6.11 0 0 1-2.57.54 4.82 4.82 0 0 1-3.5-1.24 4.41 4.41 0 0 0 1.06.45l.2.06a6.42 6.42 0 0 0 1.68.21c2.94 0 4.42-1.39 4.42-3.32V3.67a2.94 2.94 0 0 0-1.41-2.53.89.89 0 0 1 .12-.5c.18-.19.39-.14.79-.14h3a6.13 6.13 0 0 1 3.54.95A3 3 0 0 1 57 4v1.51A2 2 0 0 1 56.49 7a4 4 0 0 1-1.49.87c0 .09 1 .14 1.54.72a1.87 1.87 0 0 1 .55 1.41v2.68m-3.33-8.2a1.5 1.5 0 0 0-.42-1.27c-.21-.19-.39-.28-1.09-.28-.27 0-.48 0-.6.11a.52.52 0 0 0-.09.3v2.94c0 .21 0 .37.15.46a1.27 1.27 0 0 0 .54 0 1.79 1.79 0 0 0 1.09-.34 1.07 1.07 0 0 0 .42-.9z"/></svg>