<svg id="Layer_1" xmlns="http://www.w3.org/2000/svg" xmlns:xlink="http://www.w3.org/1999/xlink" viewBox="0 0 450 281.2"><style>.st0{fill:#FFFFFF;} .st1{clip-path:url(#SVGID_2_);fill:#FFA000;} .st2{clip-path:url(#SVGID_4_);fill:#0023A0;} .st3{fill:#0023A0;} .st4{fill:#FFA000;} .st5{fill-rule:evenodd;clip-rule:evenodd;fill:#FFFFFF;}</style><path class="st0" d="M0 56.8h450v167.6H0z"/><defs><path id="SVGID_1_" d="M445.4 281.2H4c-2.2 0-4-1.8-4-4V4c0-2.2 1.8-4 4-4h441.4c2.2 0 4 1.8 4 4v273.2c0 2.3-1.8 4-4 4z"/></defs><clipPath id="SVGID_2_"><use xlink:href="#SVGID_1_" overflow="visible"/></clipPath><path class="st1" d="M.6 224.4H450v56.8H.6z"/><defs><path id="SVGID_3_" d="M445.4 281.2H4c-2.2 0-4-1.8-4-4V4c0-2.2 1.8-4 4-4h441.4c2.2 0 4 1.8 4 4v273.2c0 2.3-1.8 4-4 4z"/></defs><clipPath id="SVGID_4_"><use xlink:href="#SVGID_3_" overflow="visible"/></clipPath><path class="st2" d="M0 0h449.4v56.8H0z"/><path class="st3" d="M178.2 183.7l13.9-86h22.1l-13.8 86h-22.2m102.6-83.9c-4.4-1.7-11.3-3.6-19.9-3.6-21.9 0-37.4 11.7-37.5 28.4-.1 12.4 11 19.3 19.4 23.4 8.6 4.2 11.5 6.9 11.5 10.7-.1 5.8-6.9 8.4-13.3 8.4-8.9 0-13.6-1.3-20.9-4.5l-2.9-1.4-3.1 19.2c5.2 2.4 14.8 4.5 24.7 4.6 23.3 0 38.4-11.5 38.6-29.4.1-9.8-5.8-17.2-18.6-23.4-7.7-4-12.5-6.6-12.5-10.7 0-3.6 4-7.4 12.7-7.4 7.3-.1 12.5 1.6 16.6 3.3l2 1 3.2-18.6m56.9-2h-17.1c-5.3 0-9.3 1.5-11.6 7.1l-33 78.9h23.3s3.8-10.6 4.7-12.9h28.4c.7 3 2.7 12.9 2.7 12.9h20.6l-18-86m-27.4 55.4c1.8-4.9 8.8-24 8.8-24-.1.2 1.8-5 2.9-8.2l1.5 7.4s4.3 20.5 5.1 24.8h-18.3zM159.6 97.8l-21.7 58.6-2.3-11.9c-4-13.7-16.6-28.6-30.7-36.1l19.9 75.2h23.5l34.9-85.8h-23.6"/><path class="st4" d="M117.7 97.8H82l-.3 1.8c27.8 7.1 46.2 24.3 53.9 45l-7.8-39.5c-1.4-5.5-5.3-7.2-10.1-7.3z"/><path class="st3" d="M362.8 173.5c2.7 0 4.9 2.2 4.9 4.9s-2.2 4.9-4.9 4.9-4.9-2.2-4.9-4.9 2.2-4.9 4.9-4.9zm0 9.1c2.2 0 4-1.8 4-4.2 0-2.3-1.7-4.2-4-4.2-2.2 0-4 1.8-4 4.2.1 2.3 1.8 4.2 4 4.2zm-1.7-6.7h2.2c.5 0 1.6.1 1.6 1.4 0 .3-.1.8-.8 1.1.6.1.7.7.7 1.2 0 .8 0 .9.2 1.2h-1c-.2-.2-.1-.3-.2-1.1 0-.5-.1-.9-1.1-.9h-.7v2h-.9v-4.9zm.9 2.2h1.1c.7 0 .9-.4.9-.8 0-.6-.4-.7-1-.7h-1v1.5z"/><path class="st5" d="M169.7 271.3h5.2l13.8-.1.7-5.2-13.8.1 1.5-11.1 10.5-.1.7-5.2-10.5.1 1.4-10 13.3-.1.7-5.2-18.6.1-4.9 36.7zm50.4 0h5.2l13.8-.1.7-5.2-13.8.1 1.5-11.1 10.5-.1.7-5.2-10.5.1 1.4-10 13.3-.1.7-5.2-18.6.1-4.9 36.7zm-24.9 0h5.2l13.8-.1.7-5.2-13.8.1 4.8-31.5-5.8.1-4.9 36.6zm91.2 0h5.2l.4-.1 4-31.3 11.4-.1.7-5.2-27 .1-.7 5.2h10.3l-4.3 31.4zm22.3 0l5.2-.1h.4l1.9-15.5h2.8l8.4 15.5h5.7l-8.3-15.5c10.4-2.6 13.4-21.3.4-21.1l-11.1.1-5.4 36.6zm8.3-20.1h6c4.8 0 7.8-12 2-12.1l-6.4-.1-1.6 12.2zm41.5-17.9c8.8 0 14.9 8.7 13.6 19.4-1.2 10.7-9.4 19.4-18.1 19.4-8.8 0-14.9-8.7-13.6-19.4s9.3-19.4 18.1-19.4zm-.7 4.4c6.3 0 10.8 7.3 9.9 15s-6.9 15-13.2 15c-6.3 0-10.7-7.3-9.8-15s6.8-15 13.1-15zm19.2 33.6l5.2-.1h.4l4-28.3 13.7 28.3h4.4l5.1-36.5h-4.9l-4.2 26.3-12.7-26.3h-5.1l-5.9 36.6zm-111.4-38c4 0 7.4 1.6 9.9 4.4l-2.8 4.9c-1.9-2.4-4.6-3.9-7.8-3.9-6.6 0-12.7 6.3-13.6 14-.9 7.7 3.7 14 10.3 14 3.3 0 6.4-1.5 8.9-4v6.2c-2.9 2-6.1 3.2-9.5 3.2-9.1 0-15.5-8.7-14.2-19.4 1.2-10.7 9.7-19.4 18.8-19.4z"/></svg>