<svg xmlns="http://www.w3.org/2000/svg" width="91" height="123" viewBox="0 0 91 123">
  <g fill="none" fill-rule="nonzero">
    <path fill="#000" d="M56.2 100.375H24.957a3.32 3.32 0 0 1-3.32-3.312V9.937a3.32 3.32 0 0 1 3.32-3.312h41.084a3.32 3.32 0 0 1 3.32 3.312v49.416a6.374 6.374 0 0 1 3.414-.961c1.176 0 2.272.313 3.224.854V9.937C76 4.457 71.533 0 66.042 0H24.958C19.468 0 15 4.458 15 9.937v87.126c0 5.48 4.467 9.937 9.958 9.937H58.74a5.292 5.292 0 0 1-.99-1.375c-.777-1.578-1.305-3.383-1.55-5.25z"/>
    <path fill="#000" d="M19 12h54v7H19zM58.056 91.908c0-1.897.748-3.637 1.944-4.908H19v7h39.369a7.158 7.158 0 0 1-.313-2.092z"/>
    <path fill="#000" d="M69.423 123a3.28 3.28 0 0 1-2.524-1.183 3.352 3.352 0 0 1 .394-4.693c12.192-10.384 14.556-25.8 16.455-38.188.139-.905.275-1.79.41-2.651.64-4.034.027-7.164-1.87-9.57-2.686-3.405-8.144-5.481-15.785-6.004-2.969-.202-7.51.31-7.842 2.554-.549 3.705 3.06 5.17 3.214 5.23.12.048.237.102.35.162 3.815 2.046 5.887 4.661 6.16 7.773.36 4.097-2.689 7.121-3.7 8.004-6.062 7.037-7.095 13.25-3.162 18.988a3.35 3.35 0 0 1-.836 4.634 3.28 3.28 0 0 1-4.591-.844c-3.298-4.812-7.19-14.767 3.798-27.367.134-.153.281-.294.44-.42.635-.521 1.547-1.698 1.477-2.415-.05-.512-.745-1.405-2.54-2.394-3.036-1.284-8.167-5.373-7.136-12.336.834-5.635 6.511-8.78 14.814-8.215 9.677.662 16.574 3.522 20.501 8.5 3.074 3.899 4.16 8.868 3.226 14.77-.135.851-.269 1.726-.406 2.62-1.959 12.774-4.641 30.268-18.72 42.26a3.267 3.267 0 0 1-2.127.785zM18.615 83h-8.461C4.555 83 0 78.611 0 73.217v-.434C0 67.389 4.555 63 10.154 63h8.461C20.485 63 22 64.46 22 66.26v13.48c0 1.8-1.516 3.26-3.385 3.26zm-8.461-13.478c-1.866 0-3.385 1.463-3.385 3.26v.435c0 1.798 1.519 3.261 3.385 3.261h5.077v-6.956h-5.077z"/>
    <path fill="#000" d="M18.696 97h-5.783C7.447 97 3 92.611 3 87.217v-.434C3 81.389 7.447 77 12.913 77h5.783C20.52 77 22 78.46 22 80.26v13.48c0 1.8-1.48 3.26-3.304 3.26zm-5.783-13.478c-1.822 0-3.304 1.463-3.304 3.26v.435c0 1.798 1.482 3.261 3.304 3.261h2.478v-6.956h-2.478zM18.696 70h-5.783C7.447 70 3 65.611 3 60.217v-.434C3 54.389 7.447 50 12.913 50h5.783C20.52 50 22 51.46 22 53.26v13.48c0 1.8-1.48 3.26-3.304 3.26zm-5.783-13.478c-1.822 0-3.304 1.463-3.304 3.26v.435c0 1.798 1.482 3.261 3.304 3.261h2.478v-6.956h-2.478z"/>
    <path fill="#FFF" d="M24.318 103.659s0 9.32 4.324 15.722"/>
    <path fill="#000" d="M28.645 122.714a3.204 3.204 0 0 1-2.658-1.429c-4.849-7.178-4.904-17.203-4.904-17.627 0-1.84 1.448-3.333 3.235-3.333 1.785 0 3.233 1.49 3.235 3.329.001.146.086 8.406 3.745 13.822 1.02 1.511.66 3.589-.807 4.64a3.157 3.157 0 0 1-1.846.598z"/>
    <g fill="#FAC031">
      <path d="M58.352 44.807c-.57 5.876-5.22 10.599-10.962 11.139-6.788.639-12.576-4.472-13.248-11.114h-1.196c-.727 0-1.182-.807-.818-1.451l2.676-4.745a.934.934 0 0 1 1.636 0l2.675 4.745c.364.645-.09 1.45-.818 1.45h-1.042c.677 4.96 5.186 8.68 10.355 7.904 3.826-.574 6.929-3.665 7.58-7.568.972-5.841-3.417-10.925-8.945-10.925a8.883 8.883 0 0 0-5.008 1.541c-.69.468-1.646.376-2.152-.295a1.605 1.605 0 0 1 .356-2.28 11.92 11.92 0 0 1 5.296-2.032v-1.798h-1.24a.782.782 0 0 1-.772-.79v-.797c0-.437.346-.791.772-.791h5.748c.427 0 .772.354.772.79v.797c0 .437-.345.791-.772.791H47.88v1.817c6.333.875 11.137 6.754 10.472 13.612zm.4-11.966l-2.328-2.204a.76.76 0 0 0-1.091.044l-.616.683c-.29.32-.27.82.043 1.117l2.328 2.204a.76.76 0 0 0 1.091-.044l.616-.683c.29-.32.27-.82-.043-1.117zm-12.543 3.027V43.6h7.476c0-4.71-3.489-7.733-7.476-7.733z"/>
    </g>
  </g>
</svg>
