<svg xmlns="http://www.w3.org/2000/svg" xmlns:xlink="http://www.w3.org/1999/xlink" width="17" height="18" viewBox="0 0 17 18">
    <defs>
        <path id="a" d="M0 0h18v18H0z"/>
    </defs>
    <g fill="none" fill-rule="evenodd" transform="translate(-1)">
        <mask id="b" fill="#fff">
            <use xlink:href="#a"/>
        </mask>
        <g fill="#000" fill-rule="nonzero" mask="url(#b)">
            <path d="M9.51 17.5A8.5 8.5 0 0 1 2.2 4.64a.34.34 0 0 1 .59.34 7.82 7.82 0 0 0 11.36 10.31l.44.51h-.05a8.43 8.43 0 0 1-5.03 1.7zm7-4a.31.31 0 0 1-.18 0 .33.33 0 0 1-.11-.46 7.94 7.94 0 0 0 1.11-4A7.78 7.78 0 0 0 15.8 4.4a7.88 7.88 0 0 0-6.31-3.22 7.78 7.78 0 0 0-4.64 1.53l-.41-.54A8.5 8.5 0 0 1 18 8.99a8.58 8.58 0 0 1-1.21 4.39.36.36 0 0 1-.29.12h.01z"/>
            <path d="M14.37 9.6a.85.85 0 0 1-.24.59l-2.77 2.77a.83.83 0 0 1-1.18 0 .8.8 0 0 1-.25-.56v-1.5H8.15a3.28 3.28 0 0 1-2.54-5 2.58 2.58 0 0 0 2.57 2.45h1.74V6.79a.76.76 0 0 1 .25-.56.83.83 0 0 1 1.19 0L14.12 9l.1.12.06.13a.87.87 0 0 1 .09.35z"/>
        </g>
    </g>
</svg>
