<svg xmlns="http://www.w3.org/2000/svg" width="78" height="15" viewBox="0 0 78 15">
    <g fill="none" fill-rule="evenodd">
        <path fill="#FAC031" fill-rule="nonzero" d="M.929 0h76.063c.51 0 .925.444.929.993l.079 13c.003.553-.41 1.003-.922 1.007H1.008c-.51 0-.925-.444-.929-.993L0 1.007C-.003.454.41.004.922 0H.93z"/>
        <g fill="#252835" fill-rule="nonzero">
            <path d="M12.224 2h1.922v6.551h-1.922z"/>
            <path d="M10.11 4.246h5.957v1.872H10.11zM3 9.112h2.882v2.808H3zM10.302 10.048h2.882v1.872h-2.882zM6.651 7.99h2.882v3.93H6.651z"/>
        </g>
        <text fill="#252835" font-family="RobotoCondensed-Bold, Roboto Condensed" font-size="10" font-style="condensed" font-weight="bold">
            <tspan x="19.865" y="11.5">EXTRA PLACE</tspan>
        </text>
    </g>
</svg>
