<svg id="Layer_1" data-name="Layer 1" xmlns="http://www.w3.org/2000/svg" viewBox="0 0 51.95 24"><title>BDG_Live</title><rect width="51.95" height="24" rx="4" ry="4" fill="#ef3340"/><path d="M12.15,16h4.63v1.78H10V6.22h2.15Z" transform="translate(0)" fill="#fff"/><path d="M20.7,17.78H18.54V6.22H20.7Z" transform="translate(0)" fill="#fff"/><path d="M22.16,6.22H23.9a.72.72,0,0,1,.46.14.84.84,0,0,1,.26.35l2.72,7.06c.09.23.18.48.26.76s.16.56.24.87a9.84,9.84,0,0,1,.46-1.62L31,6.7a.83.83,0,0,1,.26-.34.69.69,0,0,1,.46-.15h1.74L28.78,17.78H26.83Z" transform="translate(0)" fill="#fff"/><path d="M42,6.22V7.93H36.82v3.21h4v1.66h-4v3.27H42v1.72h-7.3V6.22Z" transform="translate(0)" fill="#fff"/></svg>