<svg viewBox="0 0 80 80" xmlns="http://www.w3.org/2000/svg">
  <style type="text/css">
    .st0{fill:#C0392B;}
    .st1{fill:#2C2C2C;}
  </style>
  <path class="st0" d="M40,0C17.9,0,0,17.9,0,40c0,22.1,17.9,40,40,40s40-17.9,40-40C80,17.9,62.1,0,40,0z M40,76.6
        C19.8,76.6,3.4,60.2,3.4,40S19.8,3.4,40,3.4S76.6,19.8,76.6,40S60.2,76.6,40,76.6z"/>
  <g>
    <path class="st1" d="M28.5,48.6h-3.3V36c-1.2,1.1-2.7,2-4.3,2.5v-3c0.9-0.3,1.8-0.8,2.8-1.6s1.7-1.7,2.1-2.8h2.7V48.6z"/>
    <path class="st1" d="M36.3,39.2c-0.9-0.4-1.5-0.9-1.9-1.5c-0.4-0.6-0.6-1.3-0.6-2.1c0-1.3,0.5-2.4,1.4-3.2c0.9-0.8,2.2-1.3,3.9-1.3
          c1.7,0,2.9,0.4,3.9,1.3c0.9,0.8,1.4,1.9,1.4,3.2c0,0.8-0.2,1.5-0.6,2.2s-1,1.1-1.8,1.4c1,0.4,1.7,1,2.2,1.7
          c0.5,0.7,0.8,1.6,0.8,2.6c0,1.6-0.5,2.9-1.5,3.9c-1,1-2.4,1.5-4.1,1.5c-1.6,0-2.9-0.4-4-1.2c-1.2-1-1.9-2.3-1.9-4
          c0-0.9,0.2-1.8,0.7-2.6C34.6,40.2,35.3,39.6,36.3,39.2z M36.7,43.3c0,0.9,0.2,1.6,0.7,2.1c0.5,0.5,1.1,0.8,1.8,0.8
          c0.7,0,1.3-0.2,1.7-0.7c0.5-0.5,0.7-1.2,0.7-2.1c0-0.8-0.2-1.5-0.7-2c-0.5-0.5-1-0.7-1.7-0.7c-0.8,0-1.4,0.3-1.8,0.8
          S36.7,42.6,36.7,43.3z M37,35.8c0,0.7,0.2,1.2,0.6,1.6c0.4,0.4,0.9,0.6,1.5,0.6c0.6,0,1.1-0.2,1.5-0.6c0.4-0.4,0.6-0.9,0.6-1.6
          c0-0.6-0.2-1.1-0.6-1.5c-0.4-0.4-0.9-0.6-1.5-0.6c-0.6,0-1.2,0.2-1.5,0.6C37.2,34.7,37,35.2,37,35.8z"/>
    <path class="st1" d="M51.5,46.1v-4.5H47v-3.1h4.6v-4.5h3v4.5h4.6v3.1h-4.6v4.5H51.5z"/>
  </g>
</svg>
