<svg viewBox="0 0 20 20" version="1.1" xmlns="http://www.w3.org/2000/svg" xmlns:xlink="http://www.w3.org/1999/xlink">
    <g stroke="none" stroke-width="1" fill="none" fill-rule="evenodd">
        <g transform="translate(-291.000000, -323.000000)" fill="#252835" fill-rule="nonzero">
            <g transform="translate(0.000000, 313.000000)">
                <g transform="translate(301.129165, 17.776279) rotate(-330.000000) translate(-301.129165, -17.776279) translate(294.629165, 6.776279)">
                    <path d="M0.873247798,8.95477559 L6.24713133,3.9207713 C6.63947695,3.55324017 7.25219576,3.56167822 7.6342716,3.93987428 L12.7034892,8.95761658 C12.8932372,9.14543783 13,9.4013373 13,9.66832258 L13,20.2624512 C13,20.8147359 12.5522847,21.2624512 12,21.2624512 L1.55689892,21.2624512 C1.00461417,21.2624512 0.556898922,20.8147359 0.556898922,20.2624512 L0.556898922,9.68458457 C0.556898922,9.40803746 0.671421232,9.14383734 0.873247798,8.95477559 Z M8.11983642,11.7802476 L4.4067953,18.6320856 L5.22073781,18.6320856 L8.93377894,11.7802476 L8.11983642,11.7802476 Z M4.34277735,13.6365224 C4.34277735,13.3089428 4.36411645,13.0587122 4.4067953,12.885823 C4.44947414,12.7129338 4.56226655,12.6264905 4.74517589,12.6264905 C4.92808524,12.6264905 5.04087764,12.7129338 5.08355649,12.885823 C5.12623533,13.0587122 5.14757444,13.3089428 5.14757444,13.6365224 C5.14757444,14.0004997 5.12623533,14.271962 5.08355649,14.4509175 C5.04087764,14.629873 4.92808524,14.7193494 4.74517589,14.7193494 C4.56226655,14.7193494 4.44947414,14.629873 4.4067953,14.4509175 C4.36411645,14.271962 4.34277735,14.0004997 4.34277735,13.6365224 Z M3.37336267,13.6729199 C3.37336267,13.9641018 3.39165333,14.218882 3.4282352,14.4372684 C3.46481707,14.6556548 3.53340704,14.8376407 3.63400718,14.9832316 C3.73460732,15.1288225 3.87483571,15.2364975 4.05469657,15.3062598 C4.23455742,15.3760221 4.4647149,15.4109027 4.74517589,15.4109027 C5.03173387,15.4109027 5.26341556,15.3760221 5.44022793,15.3062598 C5.61704029,15.2364975 5.75574446,15.1288225 5.8563446,14.9832316 C5.95694474,14.8376407 6.02553472,14.6556548 6.06211659,14.4372684 C6.09869846,14.218882 6.11698912,13.9641018 6.11698912,13.6729199 C6.11698912,13.3817381 6.09869846,13.1269578 6.06211659,12.9085715 C6.02553472,12.6901851 5.95694474,12.5081992 5.8563446,12.3626083 C5.75574446,12.2170174 5.61704029,12.1093424 5.44022793,12.0395801 C5.26341556,11.9698178 5.03173387,11.9349371 4.74517589,11.9349371 C4.4647149,11.9349371 4.23455742,11.9698178 4.05469657,12.0395801 C3.87483571,12.1093424 3.73460732,12.2170174 3.63400718,12.3626083 C3.53340704,12.5081992 3.46481707,12.6901851 3.4282352,12.9085715 C3.39165333,13.1269578 3.37336267,13.3817381 3.37336267,13.6729199 Z M7.25102138,16.7667113 C7.25102138,17.0639594 7.26931204,17.3202563 7.30589391,17.5356095 C7.34247578,17.7509627 7.41106575,17.9299155 7.51166589,18.0724733 C7.61226603,18.2150311 7.75249443,18.3181564 7.93235528,18.3818524 C8.11221614,18.4455485 8.34237361,18.477396 8.62283461,18.477396 C8.90939258,18.477396 9.14107427,18.4455485 9.31788664,18.3818524 C9.494699,18.3181564 9.63340318,18.2150311 9.73400332,18.0724733 C9.83460346,17.9299155 9.90319343,17.7509627 9.9397753,17.5356095 C9.97635717,17.3202563 9.99464783,17.0639594 9.99464783,16.7667113 C9.99464783,16.4755295 9.97635717,16.2207492 9.9397753,16.0023629 C9.90319343,15.7839765 9.83460346,15.6019906 9.73400332,15.4563997 C9.63340318,15.3108088 9.494699,15.2031338 9.31788664,15.1333715 C9.14107427,15.0636091 8.90939258,15.0287285 8.62283461,15.0287285 C8.34237361,15.0287285 8.11221614,15.0636091 7.93235528,15.1333715 C7.75249443,15.2031338 7.61226603,15.3108088 7.51166589,15.4563997 C7.41106575,15.6019906 7.34247578,15.7839765 7.30589391,16.0023629 C7.26931204,16.2207492 7.25102138,16.4755295 7.25102138,16.7667113 Z M8.22043606,16.7303138 C8.22043606,16.4027342 8.24177516,16.1525036 8.28445401,15.9796144 C8.32713286,15.8067252 8.43992526,15.7202819 8.62283461,15.7202819 C8.80574395,15.7202819 8.91853635,15.8067252 8.9612152,15.9796144 C9.00389405,16.1525036 9.02523315,16.4027342 9.02523315,16.7303138 C9.02523315,17.0942911 9.00389405,17.3657534 8.9612152,17.5447089 C8.91853635,17.7236644 8.80574395,17.8131408 8.62283461,17.8131408 C8.43992526,17.8131408 8.32713286,17.7236644 8.28445401,17.5447089 C8.24177516,17.3657534 8.22043606,17.0942911 8.22043606,16.7303138 Z M6.84527588,8.02386475 C7.39756063,8.02386475 7.84527588,7.5761495 7.84527588,7.02386475 C7.84527588,6.47158 7.39756063,6.02386475 6.84527588,6.02386475 C6.29299113,6.02386475 5.84527588,6.47158 5.84527588,7.02386475 C5.84527588,7.5761495 6.29299113,8.02386475 6.84527588,8.02386475 Z" id="Combined-Shape"></path>
                    <path d="M9.41659176,4.8960865 C12.0886852,3.72921435 12.5041745,2.95283814 11.2856312,2.12638962 C10.2784492,1.44329198 9.70483845,1.73292179 9.18490233,2.81457119 C9.05830598,3.07793598 8.77316345,3.8869825 8.64623632,4.15216289 L7.87688338,3.4092074 C7.96806235,3.14233089 8.14470564,2.67032953 8.28362139,2.38133606 C9.03625342,0.815597598 10.2390563,0.208273637 11.8469372,1.29878128 C13.8818669,2.67892482 13.1456742,4.2573843 10.1904948,5.64343597 L9.41659185,4.89608659 Z" id="Combined-Shape"></path>
                </g>
            </g>
        </g>
    </g>
</svg>