<svg width="21px" height="18px" viewBox="0 0 21 18" version="1.1" xmlns="http://www.w3.org/2000/svg" xmlns:xlink="http://www.w3.org/1999/xlink">
  <g id="ICN/YOURCALL/Signposting-/-#YourCall-/-Small-/-Blue" stroke="none" stroke-width="1" fill="none" fill-rule="evenodd">
    <rect id="Rectangle-9" fill="#FFFFFF" fill-rule="nonzero" opacity="0" x="0" y="0" width="21" height="18"></rect>
    <path d="M14.62125,5.04161265 L15.43125,1.06661265 C15.43125,1.00661265 15.43125,0.946612652 15.43125,0.886612652 C15.43125,0.646612652 15.32625,0.406612652 15.14625,0.256612652 C14.93625,0.0766126516 14.68125,-0.0133873484 14.41125,0.0016126516 L12.97125,0.0016126516 L11.92125,5.04161265 L9.26625,5.04161265 L10.24125,0.0016126516 L8.80125,0.0016126516 C8.48625,0.0016126516 8.17125,0.0916126516 7.91625,0.271612652 C7.67625,0.466612652 7.51125,0.751612652 7.45125,1.05161265 L6.65625,5.05661265 L5.21625,5.05661265 C4.85625,5.02661265 4.49625,5.11661265 4.19625,5.28161265 C3.98625,5.46161265 3.83625,5.71661265 3.79125,5.98661265 L3.55125,7.27661265 L6.32625,7.27661265 L5.65125,10.6966127 L3.19125,10.6966127 L3.01125,11.6716127 C2.99625,11.8066127 2.99625,11.9416127 3.01125,12.0766127 C2.98125,12.3016127 3.07125,12.5416127 3.22125,12.7066127 C3.40125,12.8416127 3.62625,12.9166127 3.85125,12.9016127 L5.29125,12.9016127 L4.31625,17.9716127 L5.74125,17.9716127 C6.07125,17.9716127 6.38625,17.8816127 6.65625,17.7166127 C6.95625,17.5216127 7.15125,17.2066127 7.19625,16.8616127 L7.94625,12.9016127 L10.61625,12.9016127 L9.85125,16.6966127 L9.85125,16.8166127 C9.85125,16.8616127 9.85125,16.9066127 9.85125,16.9366127 C9.85125,17.2066127 9.94125,17.4616127 10.13625,17.6716127 C10.30125,17.8666127 10.55625,17.9716127 10.81125,17.9716127 L12.25125,17.9716127 L13.24125,12.9016127 L16.09125,12.8866127 L16.25625,11.9266127 C16.27125,11.7916127 16.27125,11.6566127 16.25625,11.5216127 C16.28625,11.2816127 16.19625,11.0566127 16.04625,10.8766127 C15.86625,10.7416127 15.64125,10.6666127 15.41625,10.6816127 L13.64625,10.6816127 L14.30625,7.26161265 L15.59625,7.26161265 C15.95625,7.29161265 16.30125,7.20161265 16.60125,7.02161265 C16.82625,6.84161265 16.96125,6.58661265 17.00625,6.31661265 L17.24625,5.02661265 L14.62125,5.02661265 L14.62125,5.04161265 Z M10.94625,10.6966127 L8.29125,10.6966127 L8.96625,7.27661265 L11.60625,7.27661265 L10.94625,10.6966127 Z" id="ICN/YOURCALL" fill="#004696" fill-rule="nonzero"></path>
  </g>
</svg>
