<svg id="Layer_1" data-name="Layer 1" xmlns="http://www.w3.org/2000/svg" viewBox="0 0 30 12"><title>BDG</title><rect width="30" height="12" rx="2" ry="2" fill="#ffcd00"/><path d="M5,3.11h.87a.36.36,0,0,1,.23.07.41.41,0,0,1,.13.18L7.55,6.88c0,.11.09.24.13.38s.08.28.12.43A5,5,0,0,1,8,6.88L9.39,3.35a.42.42,0,0,1,.13-.17.34.34,0,0,1,.23-.08h.87L8.27,8.89h-1Z" fill="#41494e"/><path d="M16.54,6a3.2,3.2,0,0,1-.21,1.18,2.79,2.79,0,0,1-.6.94,2.69,2.69,0,0,1-.92.62,3.33,3.33,0,0,1-2.39,0,2.69,2.69,0,0,1-.93-.62,2.75,2.75,0,0,1-.6-.94A3.2,3.2,0,0,1,10.67,6a3.2,3.2,0,0,1,.21-1.18,2.75,2.75,0,0,1,.6-.94,2.71,2.71,0,0,1,.93-.62A3.12,3.12,0,0,1,13.61,3a3.09,3.09,0,0,1,1.2.22,2.74,2.74,0,0,1,.92.62,2.77,2.77,0,0,1,.6.94A3.2,3.2,0,0,1,16.54,6Zm-1.1,0a2.7,2.7,0,0,0-.13-.85,1.81,1.81,0,0,0-.36-.64,1.55,1.55,0,0,0-.57-.4,2.15,2.15,0,0,0-1.53,0,1.56,1.56,0,0,0-.58.4,1.8,1.8,0,0,0-.37.64,2.64,2.64,0,0,0-.13.85,2.63,2.63,0,0,0,.13.85,1.77,1.77,0,0,0,.37.64,1.57,1.57,0,0,0,.58.4,2.15,2.15,0,0,0,1.53,0,1.56,1.56,0,0,0,.57-.4,1.78,1.78,0,0,0,.36-.64A2.69,2.69,0,0,0,15.43,6Z" fill="#41494e"/><path d="M18.6,8.89H17.52V3.11H18.6Z" fill="#41494e"/><path d="M25,6a3.13,3.13,0,0,1-.21,1.17A2.62,2.62,0,0,1,23.3,8.68a3.24,3.24,0,0,1-1.2.21H19.9V3.11h2.21a3.22,3.22,0,0,1,1.2.21,2.71,2.71,0,0,1,.92.6,2.65,2.65,0,0,1,.6.91A3.12,3.12,0,0,1,25,6Zm-1.1,0a2.67,2.67,0,0,0-.13-.85,1.82,1.82,0,0,0-.36-.64,1.57,1.57,0,0,0-.57-.4A2,2,0,0,0,22.11,4H21V8h1.12a2,2,0,0,0,.76-.14,1.56,1.56,0,0,0,.57-.4,1.81,1.81,0,0,0,.36-.64A2.66,2.66,0,0,0,23.93,6Z" fill="#41494e"/></svg>