<svg viewBox="0 0 40 40" xmlns="http://www.w3.org/2000/svg">
  <style type="text/css">
    .svg-w { fill: #fff }
  </style>
  <g class="svg-w">
    <rect height="3" width="17" x="23" y="27"></rect>
    <rect height="3" width="17" x="23" y="32"></rect>
    <rect height="3" width="17" x="23" y="37"></rect>
  </g>
  <g transform="translate(-4,-4)">
    <path class="svg-w" d="m33.45 29c-1.63-1.43-3.51-2.58-5.55-3.34 3.3-2.08 5.51-5.74 5.51-9.93 0-6.47-5.26-11.73-11.73-11.73h-0.02-0.02c-6.48 0-11.74 5.26-11.74 11.73 0 4.18 2.21 7.85 5.51 9.93-5.82 2.18-10.38 7.48-11.35 13.54-0.06 0.85-0.06 4.76-0.06 4.76l2.88 0.04s0.02-4.12 0.17-4.8c1.48-6.7 7.47-11.73 14.61-11.74 2.35 0 4.58 0.56 6.56 1.53h5.23zm-11.79-4.47c-4.85-0.01-8.78-3.95-8.78-8.8s3.94-8.79 8.78-8.8c4.85 0.01 8.78 3.95 8.78 8.8 0 4.84-3.94 8.79-8.78 8.8z"></path>
  </g>
</svg>
