<svg id="Layer_1" data-name="Layer 1" xmlns="http://www.w3.org/2000/svg" viewBox="0 0 17 17"><title>ICN</title><path d="M16.71,12.7h0L10.37,2.06a2.17,2.17,0,0,0-3-.75h0a2.2,2.2,0,0,0-.73.74L.31,12.69A2.19,2.19,0,0,0,2.17,16H14.84a2.2,2.2,0,0,0,1.86-3.3Zm-1.51,1.81a.81.81,0,0,1-.38.1H2.18a.82.82,0,0,1-.67-1.22L7.81,2.77a.82.82,0,0,1,.27-.28.8.8,0,0,1,1.11.27h0L15.5,13.4A.82.82,0,0,1,15.19,14.51Z"/><path d="M8.51,10a.69.69,0,0,0,.69-.69v-3a.69.69,0,1,0-1.37,0v3A.69.69,0,0,0,8.51,10Z"/><path d="M9,11.81a.68.68,0,0,0-1,0H8a.7.7,0,0,0,0,1l0,0a.68.68,0,0,0,1,0H9a.7.7,0,0,0,0-1Z"/></svg>