<svg xmlns="http://www.w3.org/2000/svg" xmlns:xlink="http://www.w3.org/1999/xlink" width="22" height="22"><defs><path id="A" d="M0 0h22v22H0z"/><path id="B" d="M8.904 17.287l2.588 2.57c.35.347.932-.18.57-.527l-2.588-2.57c-.35-.347-.92.18-.556.527h-.013z"/></defs><g fill="none" fill-rule="evenodd"><mask id="C" fill="#fff"><use xlink:href="#A"/></mask><g mask="url(#C)" fill-rule="nonzero"><g fill="#000"><path d="M12.424 6.23l3.132-3.176h-.92l3.2 3.1c.57.553 1.5-.296.906-.874l-3.196-3.1a.68.68 0 0 0-.92 0l-3.132 3.176c-.582.6.35 1.453.92.874zm6.742 8.82h-.1c-.573-.024-1.113-.274-1.5-.694a2.1 2.1 0 0 1-.569-1.543c.07-1.182 1.074-2.094 2.265-2.057a2.18 2.18 0 0 1 1.5.7 2.14 2.14 0 0 1 .559 1.549c-.05 1.148-1.004 2.052-2.16 2.044zm0-3.65a1.51 1.51 0 0 0-1.475 1.44 1.53 1.53 0 0 0 .4 1.093 1.48 1.48 0 0 0 1.048.476c.403.02.797-.12 1.094-.4s.472-.65.485-1.05a1.5 1.5 0 0 0-.397-1.083 1.52 1.52 0 0 0-1.052-.486h-.104zm-17.2.744l2.588-2.57c.35-.36-.22-.887-.57-.54l-2.588 2.57c-.362.36.207.874.556.527l.013.013z"/><path d="M1.4 9.573l2.6 2.57c.35.347.92-.167.57-.527l-2.6-2.57c-.35-.347-.92.18-.556.54l-.013-.013zM9.46 19.86l2.588-2.57c.362-.347-.22-.874-.57-.527L8.9 19.33c-.362.347.207.874.556.527h.013z"/><use xlink:href="#B"/><path d="M5.552 5.716l2.588-2.57c.35-.347-.22-.874-.57-.527L4.982 5.19c-.362.347.207.874.556.527h.013z"/><use xlink:href="#B" x="-3.909" y="-14.143"/></g><path d="M14.442 4.02c.207 1.605.092 3.235-.336 4.796-1.294 2.983-4.18 2.7-6.73 3.677a8.11 8.11 0 0 0-4.685 5.747c-.18.784 1.074 1.093 1.294.32a7.57 7.57 0 0 1 1.993-3.664c1.967-1.94 4.93-1.466 7.182-2.983C15.918 10.05 15.75 6.99 15.75 4.02c0-.797-1.294-.797-1.294 0h-.013z" fill="#020202"/></g></g></svg>