<svg xmlns="http://www.w3.org/2000/svg" viewBox="0 0 80 33"><path d="M25.6 10.1h5.1c.8 0 1.5 0 2.3.1.5.1.9.3 1.3.5.4.3.7.7 1 1.1.3.5.4 1 .4 1.5 0 1.2-.7 2.3-1.8 2.8.7.2 1.3.6 1.8 1.2.4.5.6 1.2.6 1.9 0 .6-.1 1.2-.4 1.7-.2.6-.6 1-1.1 1.4-.5.3-1.1.6-1.7.6-.4 0-1.5.1-3.1.1h-4.3V10.1zm2.6 2.1v3h3.6c.4 0 .8-.2 1-.5.3-.3.4-.6.4-1s-.1-.7-.3-1c-.3-.3-.6-.4-1-.5h-3.7zm0 5.2v3.4h2.4c.6 0 1.2 0 1.8-.1.4-.1.7-.2.9-.5.3-.3.4-.7.4-1.1 0-.4-.1-.7-.3-1-.2-.3-.5-.5-.8-.6-.8-.2-1.5-.2-2.3-.2l-2.1.1zM38.5 23V10.1h4.1c1 0 2.1 0 3.1.2.7.2 1.4.6 1.8 1.3.5.7.8 1.6.7 2.5 0 .7-.1 1.4-.4 2-.3.5-.6.9-1.1 1.3-.4.3-.9.5-1.3.6-.9.1-1.8.2-2.7.2H41V23h-2.5zm2.6-10.7V16h1.4c.7 0 1.4 0 2-.2.3-.1.6-.3.8-.6.2-.3.3-.6.3-1s-.1-.8-.4-1.2c-.3-.3-.6-.5-1-.6-.6-.1-1.2-.1-1.9-.1h-1.2zm15.3 5.9V16H62v5.1c-.7.6-1.5 1.1-2.4 1.4-1 .4-2.1.6-3.1.6-1.2 0-2.4-.3-3.5-.8-1-.6-1.8-1.4-2.2-2.4-.5-1.1-.8-2.2-.7-3.4 0-1.2.3-2.5.8-3.6.6-1 1.4-1.9 2.5-2.4 1-.5 2-.7 3.1-.7 1.3-.1 2.6.3 3.7 1 .9.7 1.5 1.7 1.7 2.8l-2.6.5c-.2-.6-.5-1.1-1-1.5-.5-.4-1.2-.6-1.8-.5-1-.1-2 .3-2.7 1.1-.7.9-1.1 2.1-1 3.2-.1 1.2.3 2.5 1 3.4.7.8 1.6 1.2 2.7 1.1.6 0 1.1-.1 1.7-.3.5-.2 1-.5 1.4-.8v-1.7l-3.2.1z"/><path d="M63.6 33H22.2c-7.3 0-13.8-4.9-15.8-12.1-.2-.6-3-2.4-6.1-3.9-.3-.1-.4-.5-.3-.8l.3-.3c3-1.4 5.8-3.1 6-3.7C8.3 5 14.8 0 22.2 0h41.5C72.7 0 80 7.4 80 16.5S72.7 33 63.6 33zM2 16.5c2.1 1.1 5.2 2.9 5.6 4.1 1.8 6.6 7.8 11.1 14.6 11.1h41.5c8.4 0 15.1-6.8 15.1-15.2S72 1.3 63.6 1.3H22.2c-6.9 0-12.9 4.6-14.6 11.3-.4 1.2-3.5 2.9-5.6 3.9z"/></svg>