<?xml version="1.0" encoding="UTF-8"?>
<svg width="28px" height="18px" viewBox="0 0 28 18" version="1.1" xmlns="http://www.w3.org/2000/svg" xmlns:xlink="http://www.w3.org/1999/xlink">
    <!-- Generator: Sketch 51.2 (57519) - http://www.bohemiancoding.com/sketch -->
    <title>ICN_connect_card</title>
    <desc>Created with Sketch.</desc>
    <defs></defs>
    <g id="ICN_connect_card" stroke="none" stroke-width="1" fill="none" fill-rule="evenodd" stroke-linecap="round" stroke-linejoin="round">
        <g id="credit-card-2267_58a8e9a5-6dd1-42ae-850e-e5db7a6665c2" transform="translate(1.000000, 1.000000)" stroke="#011E55" stroke-width="1.1">
            <path d="M26,1.3 C26,0.582029825 25.4179702,0 24.7,0 L1.3,0 C0.582029825,0 1.92438658e-16,0.582029825 0,1.3 L0,4.33333333 L26,4.33333333 L26,1.3 Z M0,4.33333333 L0,15.1666667 C0,15.8846368 0.582029825,16.4666667 1.3,16.4666667 L24.7,16.4666667 C25.4179702,16.4666667 26,15.8846368 26,15.1666667 L26,4.33333333 L0,4.33333333 Z" id="Shape"></path>
            <path d="M3.46666667,7.8 L12.1333333,7.8 M19.9333333,7.8 L22.5333333,7.8 M3.46666667,11.2666667 L6.93333333,11.2666667" id="Shape"></path>
        </g>
    </g>
</svg>