<svg xmlns="http://www.w3.org/2000/svg" viewBox="0 0 20.03 16.95"><title>HORSE_RACING</title><circle cx="14.1" cy="6.09" r=".53"/><path d="M.07 3.19h.22a7.56 7.56 0 0 1 2.08.29 3 3 0 1 1 5.91-.77l1.38.9.91.59H8.02l-.17.47.31 1.62-.8-.18-.51 1.31L5.3 6.7l-.6.26.88 1.52 3.19-1.5 10 4.36.51-.28-.26-.83-5.64-6.33a.33.33 0 0 1-.09-.4 1.68 1.68 0 0 0-.43-2 1.68 1.68 0 0 0-.45 1.98.34.34 0 0 1-.1.4l-.83.6-.81-.22 1-.8a2.34 2.34 0 0 1-.1-.69 2.37 2.37 0 0 1 .34-1.21 2.33 2.33 0 0 1 .74-.76.33.33 0 0 1 .36 0 2.35 2.35 0 0 1 1.01 2.75L19.66 10l.36 1.42-2.48 1.38-6-2.58c-.25.51-2.48 6.54-2.48 6.54a.33.33 0 0 1-.24.19h-.01a.34.34 0 0 1-.24-.1l-4.85-5a.34.34 0 0 1 0-.47l1.3-1 .44.49-1.05.85 4.32 4.32s2.17-5.91 2.42-6.39a.33.33 0 0 1 .3-.18h.1l6 2.53.55-.3-9.23-4-3.55 1.6-1.55-2.65 1.53-.66 1.2.56.52-1.19.35.12-.16-.83.39-1.06h.81l-.75-.51v-.17a2.34 2.34 0 1 0-4.6.7 8.47 8.47 0 0 0 .78.66h.05l-.37.52-.82-.55a7 7 0 0 0-2.4-.45H.02v-.64z"/></svg>