<?xml version="1.0" encoding="utf-8"?>
<!-- Generator: Adobe Illustrator 21.0.2, SVG Export Plug-In . SVG Version: 6.00 Build 0)  -->
<svg version="1.1" id="Layer_1" xmlns="http://www.w3.org/2000/svg" xmlns:xlink="http://www.w3.org/1999/xlink" x="0px" y="0px"
	 viewBox="0 0 40 40" style="enable-background:new 0 0 40 40;" xml:space="preserve">
<style type="text/css">
	.st0{fill:#1E201D;}
</style>
<g>
	<path class="st0" d="M13.1,37.6c0.5,0.6,1.5,0.6,2,0c0.5-0.5,0.5-1.5,0-2L4.9,25.4h33.7c0.8,0,1.4-0.6,1.4-1.4s-0.6-1.4-1.4-1.4
		H4.9l10.2-10.2c0.5-0.6,0.5-1.5,0-2c-0.6-0.6-1.5-0.6-2,0L0.4,23c-0.6,0.5-0.6,1.5,0,2L13.1,37.6z"/>
	<path class="st0" d="M40,24.4v-21C40,2.6,39.4,2,38.6,2s-1.4,0.6-1.4,1.4v21"/>
	<path class="st0" d="M38.4,2H23.7c-0.8,0-1.4,0.6-1.4,1.4s0.6,1.4,1.4,1.4h14.7"/>
</g>
</svg>
