<svg viewBox="0 0 75 75" xmlns="http://www.w3.org/2000/svg" xmlns:xlink="http://www.w3.org/1999/xlink">
    <path d="M28.2087076,27.5765025 L26.3272582,33.500832 C33.8059212,29.9646347 40.2495936,29.2795861 47.2350358,32.0108577 C55.0875899,35.0811656 58.3137883,35.082113 64.4426246,31.6171496 L67.8103597,20.9439636 C65.1906227,21.8919877 62.3591773,22.1589784 59.1133198,21.6426392 C60.548381,20.7060011 61.980076,19.55326 63.4370995,18.1377126 C68.8950853,17.6533388 72.1072496,14.3951297 74.2628322,12.1981747 L67.3914158,33.9753938 C59.5580012,38.6523804 55.2977231,38.9446921 45.9525968,35.2907963 C36.6074706,31.6369005 27.949486,36.0215754 20.2534997,40.9908737 L23.9703605,29.2871797 C25.3485748,28.6409634 26.7526012,28.0680894 28.2087076,27.5765025 Z M44.7164737,40.9836653 C46.7196582,41.5765374 48.4879409,41.9111516 50.1623751,41.9803645 C46.4211092,44.2493242 44.1863546,45.1768409 41.2076257,46.2417529 C40.963662,46.3240404 40.6505765,46.4348666 40.2683692,46.5742314 C39.4983441,46.8448223 38.6702743,47.1326098 37.7514212,47.4591071 C38.278803,48.2086881 38.7923392,48.9228469 39.3045922,49.6024205 C39.485842,49.840409 39.6966942,50.1141984 39.9371489,50.4237886 C42.8334757,54.0983558 45.8535081,56.6828455 51.2537543,58.3275969 C44.2270299,60.9712837 39.8181048,60.3837977 30.449139,58.6213399 C18.0490371,56.2713961 7.02672438,64.0555848 3.55271368e-15,69.7835727 L7.44006111,45.6966492 C10.6408282,43.4834611 13.5700189,41.4729221 16.4919309,39.7604602 L14.8378935,44.9687122 C13.4705713,45.8515874 12.0141261,46.8272951 10.4442116,47.9038384 L6.47463756,60.755188 C14.6803384,55.6674355 22.490608,53.528698 31.1002165,55.1603076 C35.349876,55.959739 38.360007,56.4355702 40.822032,56.5713881 C38.8453733,54.7737055 36.9827442,52.4868649 34.8711373,49.4855847 L32.202933,45.6931984 L36.5722652,44.1406379 C36.6674526,44.1068148 40.0030374,42.9369823 40.8044515,42.6421463 C41.4915439,42.3893686 42.0835975,42.1595704 42.6476739,41.9251522 C43.3302019,41.641508 44.0087947,41.3342383 44.7164737,40.9836653 Z M12.9950261,25.3989624 C22.3098779,19.621266 28.4526625,17.7993202 38.3760471,17.7995609 C46.1061541,17.9012804 51.0546523,16.9789668 55.6738556,13.3809407 C50.7451925,14.1608897 45.8655584,13.4675742 39.7487798,11.418838 C31.375133,8.61419283 24.8605706,9.45228903 16.47235,14.0053063 L12.9950261,25.3989624 Z M6.75116656,33.792699 L13.5179971,11.6207811 C22.3994621,6.53971652 30.2940978,4.53808504 40.8672704,8.07943305 C51.4404431,11.6207811 57.5023955,10.6969511 67.5116656,5 C57.3614198,19.9352503 50.0306868,21.4749668 38.329709,21.3209952 C24.796048,21.3209952 17.3243393,26.4020597 6.75116656,33.792699 Z" id="Generic"></path>
</svg>
