<svg id="Layer_1" data-name="Layer 1" xmlns="http://www.w3.org/2000/svg" viewBox="0 0 25 25"><title>ICN</title><path d="M2.19,9.13a.42.42,0,0,0-.23,0,.38.38,0,0,0,0,.22l-.13,1.44q0,.1.13.1.38,0,.42-.06a1.45,1.45,0,0,0,.1-.19q.13-.28.32-.28H4.52l-.67,1.27a8.28,8.28,0,0,0-.74,1.81,6,6,0,0,0-.25,1.5,1,1,0,0,1,0,.25.18.18,0,0,1-.1.13.29.29,0,0,0-.13.09.7.7,0,0,0,0,.23.42.42,0,0,0,0,.22h2a.89.89,0,0,0,0-.25q0-.2-.09-.25a.38.38,0,0,1-.19-.18,3.11,3.11,0,0,1,0-.73,9.49,9.49,0,0,1,.34-2.8,13.35,13.35,0,0,1,.69-1.87.85.85,0,0,0,.13-.34V9.14H2.19Z"/><path d="M14.93,8.79a1.17,1.17,0,0,0,.17-.46V8l-.17-.05H10.47a.57.57,0,0,0-.33,0A.51.51,0,0,0,10,8.2l-.23,2v.05q0,.13.18.13.51,0,.57-.1a2,2,0,0,0,.17-.27q.15-.38.45-.38h2.48l-.94,1.69a11.33,11.33,0,0,0-1,2.47,8.15,8.15,0,0,0-.34,2,1.4,1.4,0,0,1,0,.33.25.25,0,0,1-.13.15.38.38,0,0,0-.18.13,1,1,0,0,0,0,.33.57.57,0,0,0,0,.31.25.25,0,0,0,.19,0h2.62a1.28,1.28,0,0,0,0-.36q0-.25-.13-.32a.53.53,0,0,1-.25-.25,4.24,4.24,0,0,1-.06-1A13,13,0,0,1,14,11.34,18.31,18.31,0,0,1,14.93,8.79Z"/><path d="M20,15a5,5,0,1,0,3.54,1.46A5,5,0,0,0,20,15Zm0,9.19A4.19,4.19,0,1,1,24.15,20,4.2,4.2,0,0,1,20,24.19Z"/><path d="M20.36,19.83V17.24a.4.4,0,0,0-.81,0V20a.4.4,0,0,0,.12.29l1.38,1.38a.4.4,0,1,0,.57-.57Z"/><path d="M20.7,13.51c-.06.17-.1.35-.14.52a6,6,0,0,1,1.41.32,9.49,9.49,0,0,1,.38-2.7A13.37,13.37,0,0,1,23,9.77a.85.85,0,0,0,.1-.34V9.15h-3.4a.42.42,0,0,0-.22,0,.38.38,0,0,0,0,.19l-.13,1.44a.11.11,0,0,0,.13.13q.38,0,.42-.08L20,10.7q.13-.25.32-.25h1.78l-.69,1.27A8.27,8.27,0,0,0,20.7,13.51Z"/><path d="M18.34,3.46h-.13v-1a13,13,0,0,0-11.46,0v1H6.62A9.65,9.65,0,0,0,0,3.71V21a9.65,9.65,0,0,0,6.62.34h.15v1.18a13,13,0,0,0,8.39,1,6,6,0,0,1-.42-.63,12.22,12.22,0,0,1-7.21-.82H7.41V2.78H7.5a12.25,12.25,0,0,1,9.88,0h.13V14.52a5.91,5.91,0,0,1,.74-.28V4.15h.09a8.92,8.92,0,0,1,5.95,0v11.7a6,6,0,0,1,.72.91v-13A9.65,9.65,0,0,0,18.34,3.46ZM6.7,20.8h0a8.92,8.92,0,0,1-5.95,0H.64V4.16H.7a8.92,8.92,0,0,1,5.92,0H6.7Z"/></svg>