<svg id="Layer_1" data-name="Layer 1" xmlns="http://www.w3.org/2000/svg" viewBox="0 0 29 12"><title>BDG</title><rect width="29" height="12" rx="2" ry="2" fill="#41494e"/><path d="M6.29,8H8.6v.89H5.21V3.11H6.29Z" fill="#fff"/><path d="M14.57,6a3.2,3.2,0,0,1-.21,1.18,2.79,2.79,0,0,1-.6.94,2.69,2.69,0,0,1-.92.62,3.33,3.33,0,0,1-2.39,0,2.69,2.69,0,0,1-.93-.62,2.75,2.75,0,0,1-.6-.94A3.2,3.2,0,0,1,8.71,6a3.2,3.2,0,0,1,.21-1.18,2.75,2.75,0,0,1,.6-.94,2.71,2.71,0,0,1,.93-.62A3.12,3.12,0,0,1,11.65,3a3.09,3.09,0,0,1,1.2.22,2.74,2.74,0,0,1,.92.62,2.77,2.77,0,0,1,.6.94A3.2,3.2,0,0,1,14.57,6Zm-1.1,0a2.7,2.7,0,0,0-.13-.85A1.81,1.81,0,0,0,13,4.5a1.55,1.55,0,0,0-.57-.4,2.15,2.15,0,0,0-1.53,0,1.56,1.56,0,0,0-.58.4,1.8,1.8,0,0,0-.37.64A2.64,2.64,0,0,0,9.81,6a2.63,2.63,0,0,0,.13.85,1.77,1.77,0,0,0,.37.64,1.57,1.57,0,0,0,.58.4,2.15,2.15,0,0,0,1.53,0,1.56,1.56,0,0,0,.57-.4,1.78,1.78,0,0,0,.36-.64A2.69,2.69,0,0,0,13.47,6Z" fill="#fff"/><path d="M18.52,4.16a.28.28,0,0,1-.1.12.25.25,0,0,1-.14,0,.36.36,0,0,1-.18-.06l-.24-.14A2.09,2.09,0,0,0,17.55,4a1.34,1.34,0,0,0-.43-.06,1.27,1.27,0,0,0-.39.05.81.81,0,0,0-.28.15.59.59,0,0,0-.17.23.74.74,0,0,0-.06.29.51.51,0,0,0,.11.34,1,1,0,0,0,.3.23,2.93,2.93,0,0,0,.43.17l.49.16a4.73,4.73,0,0,1,.49.2,1.69,1.69,0,0,1,.43.29,1.29,1.29,0,0,1,.3.43,1.49,1.49,0,0,1,.11.61,2,2,0,0,1-.13.73,1.68,1.68,0,0,1-.39.6,1.86,1.86,0,0,1-.63.4,2.31,2.31,0,0,1-.85.15,2.74,2.74,0,0,1-.54-.05,2.89,2.89,0,0,1-.51-.15,2.77,2.77,0,0,1-.46-.24A2.28,2.28,0,0,1,15,8.2l.31-.52a.4.4,0,0,1,.11-.09.26.26,0,0,1,.14,0,.38.38,0,0,1,.22.08l.27.18A2,2,0,0,0,16.4,8a1.44,1.44,0,0,0,.51.08,1.05,1.05,0,0,0,.71-.22.78.78,0,0,0,.25-.63.58.58,0,0,0-.11-.37.93.93,0,0,0-.3-.24A2.34,2.34,0,0,0,17,6.45l-.49-.15a4.22,4.22,0,0,1-.49-.19,1.56,1.56,0,0,1-.43-.29,1.33,1.33,0,0,1-.3-.45,1.71,1.71,0,0,1-.11-.67,1.59,1.59,0,0,1,.49-1.15,1.83,1.83,0,0,1,.59-.37,2.15,2.15,0,0,1,.8-.14A2.7,2.7,0,0,1,18,3.2a2.16,2.16,0,0,1,.74.45Z" fill="#fff"/><path d="M23.79,3.11V4H22v4.9H21V4H19.23V3.11Z" fill="#fff"/></svg>