<svg id="Layer_1" xmlns="http://www.w3.org/2000/svg" viewBox="0 0 34 34"><path class="st0" d="M17 0C7.7 0 0 7.7 0 17s7.7 17 17 17 17-7.6 17-17S26.4 0 17 0zm0 31.2C9.2 31.2 2.8 24.8 2.8 17S9.2 2.8 17 2.8 31.2 9.2 31.2 17 24.8 31.2 17 31.2z"/><path class="st0" d="M12.1 9.5c.3-.3.6-.5 1-.7.3-.2.7-.4 1.1-.6.3-.2.8-.4 1.3-.5.5-.1 1-.1 1.5-.1.7 0 1.4.1 2 .3.6.2 1.1.5 1.6.9.4.4.8.8 1 1.4s.4 1.1.4 1.8c0 .6-.1 1.2-.3 1.7s-.4.9-.7 1.2c-.3.3-.6.7-.9.9-.3.3-.6.5-.9.7-.3.2-.6.4-.8.7-.2.2-.3.5-.4.7l-.3 1.9h-2.2l-.2-2.1v-.1-.1c0-.4.1-.7.3-1s.4-.5.7-.8c.3-.2.6-.5.9-.7.3-.2.6-.5.9-.7.3-.3.5-.6.7-.9.2-.3.3-.7.3-1.2 0-.3-.1-.6-.2-.8-.1-.2-.3-.5-.5-.6-.2-.2-.4-.3-.7-.4-.3-.1-.6-.1-.9-.1-.5 0-.9.1-1.2.2-.3.1-.6.2-.9.4-.2.1-.4.3-.6.4-.2.1-.3.2-.4.2-.3 0-.5-.1-.7-.4l-.9-1.6zm2.4 15c0-.3 0-.5.1-.8.1-.2.2-.4.4-.6.2-.2.4-.3.6-.4.2-.1.5-.2.8-.2.3 0 .5.1.8.2.2.1.4.2.6.4.2.2.3.4.4.6.1.2.2.5.2.8 0 .3-.1.5-.2.8-.1.2-.2.4-.4.6s-.4.3-.6.4c-.2.1-.5.1-.8.1-.3 0-.5 0-.8-.1-.2-.1-.4-.2-.6-.4s-.3-.4-.4-.6c-.1-.3-.1-.5-.1-.8z"/></svg>
