<?xml version="1.0" encoding="UTF-8"?>
<svg version="1.1" viewBox="0 0 16 14" xmlns="http://www.w3.org/2000/svg" xmlns:xlink="http://www.w3.org/1999/xlink">
<g fill="none" fill-rule="evenodd">
<g transform="translate(-292 -221)">
<g transform="translate(4 165)">
<g transform="translate(284 51)">
<g transform="translate(4 4)">
<mask id="b" fill="white">
  <rect id="a" width="16" height="16"/>
</mask>
<g fill="#252835" fill-rule="nonzero" mask="url(#b)">
<g transform="translate(-1 1)">
<path d="m11.23 0.12c3.5697 0.68519 5.9747 4.0496 5.4677 7.6489-0.50695 3.5993-3.7477 6.1685-7.3677 5.8411l0.15-1.61c2.7935 0.27635 5.3021-1.7144 5.6676-4.4976s-1.544-5.3542-4.3141-5.8085c-2.7701-0.45433-5.4008 1.372-5.9435 4.1262l-1.22-0.14-0.42-0.1c0.33242-1.7832 1.3605-3.3609 2.8575-4.3851 1.497-1.0243 3.34-1.411 5.1225-1.0749z"/>
<rect transform="translate(2.8683 4.1567) rotate(66.84) translate(-2.8683 -4.1567)" x="-.13172" y="3.4067" width="6" height="1.5"/>
<rect transform="translate(5.8131 5.3364) rotate(-23.16) translate(-5.8131 -5.3364)" x="2.8131" y="4.5864" width="6" height="1.5"/>
</g>
</g>
</g>
</g>
</g>
</g>
</g>
</svg>
