<svg xmlns="http://www.w3.org/2000/svg" viewBox="0 0 82 15">
  <path d="M7.438 14.342c-.057.264-.191.33-.48.413-.627.117-3.15.117-4.176.117-1.774 0-3.265-1.263-2.635-3.642C1.007 7.975 3.1.006 3.1.006h2.664L2.852 11.072c-.042.23-.083.452-.093.643-.07.757.262.997 1.167.997h3.56c.119 0 .36.09.278.418-.144.52-.326 1.212-.326 1.212zm16.766-8.423c.452 0 1.276.067 1.794.126l-1.77 6.755c-.396.068-1.18.115-1.868.115-1.261 0-1.668-.486-1.57-1.549.01-.24.057-.528.206-1.197.077-.35.39-1.495.39-1.495.471-1.862 1.155-2.755 2.818-2.755zM30.16.006L27.583 0l-1.038 3.964a17.194 17.194 0 0 0-1.8-.113c-3.099 0-5.024 1.327-5.906 4.827 0 0-.286 1.105-.38 1.495-.161.684-.166.846-.178 1.059-.207 2.121.837 3.768 3.512 3.768 1.242 0 2.716-.183 4.013-.488.454-.11.567-.22.658-.517L30.16.006zm4.06 5.913c1.267 0 1.65.58 1.544 1.626-.015.35-.08.709-.21 1.133l-.376 1.495c-.374 1.432-1.133 2.746-2.8 2.746-.703 0-1.483-.047-1.824-.115l1.777-6.755c.57-.063 1.437-.13 1.889-.13zm3.879 2.757c.106-.405.162-.784.204-1.174.175-2.179-.877-3.65-3.53-3.65-.461 0-1.16.035-1.886.112L33.93.006h-2.55s-3.073 11.703-3.708 14.07c-.098.347.373.423.411.434 1.108.305 2.52.488 3.751.488 3.185 0 5.06-1.608 5.89-4.827l.375-1.495zm12.054-2.648c1.125 0 1.61.624 1.51 1.764-.028.255-.057.539-.145.852l-.43 1.548c-.484 1.815-1.387 2.631-2.737 2.631-1.133 0-1.642-.62-1.553-1.757.021-.166.036-.362.21-1.018.082-.38.374-1.402.374-1.402.522-1.913 1.584-2.618 2.77-2.618zm4.094 1.602c.183-2.02-.886-3.781-3.523-3.781-3.03 0-5.031 1.627-5.881 4.795 0 0-.241.869-.365 1.338-.113.417-.204.85-.228 1.152-.176 2.03.88 3.866 3.521 3.866 3.05 0 4.993-1.608 5.867-4.805l.4-1.498c.113-.43.18-.735.209-1.067zm10.49-3.25c.186-.162.216-.416-.123-.416h-2.298c-.188 0-.324.055-.48.234L60.48 5.54l-2.84 2.806L59.858.009h-2.56s-2.676 10.224-3.799 14.429c-.053.18.054.4.292.4h1.77c.205 0 .452-.179.488-.4l1.206-4.593 1.964 4.597c.072.183.24.39.472.39h2.186c.172 0 .413-.158.283-.443a835.41 835.41 0 0 0-2.494-5.228l5.072-4.782zm3.975 1.648c1.053 0 1.591.605 1.496 1.725-.022.265-.08.493-.132.729h-4.103c.366-1.406 1.184-2.454 2.74-2.454zm3.732 3.119c.139-.616.205-.778.264-1.353.181-2.26-.867-3.947-3.427-3.947-2.967 0-4.982 1.331-5.951 4.935 0 0-.152.529-.29 1.1a12.626 12.626 0 0 0-.217 1.252C62.578 14.046 64.58 15 66.293 15c1.733 0 2.592-.096 3.906-.326.375-.043.439-.181.53-.49 0 0 .373-1.563.392-1.608-.89.136-2.575.262-3.976.262-1.453 0-1.913-.699-1.828-1.751.01-.256.092-.518.158-.788h6.283c.267 0 .437-.162.51-.47.004 0 .07-.244.176-.682zM81.36 4.23c-1.031-.266-2.192-.385-3.368-.385-1.832 0-4.1.59-4.326 3.16-.07.932.362 1.79 1.05 2.301l2.204 1.606c.448.324.586.64.54.946-.056.888-.789 1.057-1.73 1.057-.437 0-2.167-.08-3.07-.198-.338-.037-.483.247-.509.308l-.302 1.2c-.058.196.057.358.251.404 1.165.318 2.808.369 3.449.369 2.281 0 4.345-1.008 4.57-3.425.084-.844-.131-1.623-1.23-2.416L76.772 7.59c-.368-.25-.517-.51-.513-.777.083-.816.971-.893 1.55-.893.78 0 2.14.088 3.023.233.33.053.446-.239.497-.384l.283-1.082c.002 0 .11-.375-.253-.456zm-35.59-.01c.086-.303-.196-.371-.257-.371-.806 0-1.84.081-3.002.918l.098-.392c.058-.21-.057-.394-.287-.394h-1.679c-.221 0-.415.173-.473.394 0 0-2.217 8.384-2.64 10.003-.078.275.001.473.29.473h1.737c.22 0 .44-.183.49-.411l2.049-7.756c1.374-.658 2.228-.681 2.841-.681.192 0 .422-.173.473-.386 0 .002.23-.867.36-1.397zM14.26 5.937c-1.668 0-2.392 1.163-2.81 2.743l-.517 1.99a8.171 8.171 0 0 0-.15.796c-.097 1.089.435 1.449 1.204 1.449.737 0 1.57-.31 2.471-.808l1.621-6.045c-.362-.07-1.133-.125-1.819-.125zm4.646-1.05l-2.51 9.572c-.065.21-.287.375-.48.375h-1.56c-.22 0-.292-.164-.256-.343.056-.313.113-.58.113-.58-1.129.827-2.136 1.074-3.065 1.074-1.774 0-3.06-1.178-2.865-3.463.004-.156.113-.663.226-1.18.132-.614.292-1.272.409-1.662.79-3.014 2.788-4.825 5.898-4.825 1.23 0 2.682.19 3.815.524.292.073.352.186.275.507z" fill="#FFF"></path>
</svg>
