<svg width="28px" height="21px" viewBox="0 0 28 21" version="1.1" xmlns="http://www.w3.org/2000/svg">
  <g>
    <path d="M-1.763-5.821h31.755v31.755H-1.763z" fill="none"></path>
    <g>
      <path
        d="M0 2.003C0 .897.9 0 1.991 0H26.01C27.109 0 28 .889 28 2.003v13.914c0 1.106-.9 2.003-1.991 2.003H1.99C.891 17.92 0 17.031 0 15.917V2.003zm2.24.237v13.44h23.52V2.24H2.24zM5.6 19.6c0-.31.25-.56.559-.56h15.682a.56.56 0 1 1 0 1.12H6.159a.565.565 0 0 1-.559-.56z"></path>
      <path d="M11.76 12.322V5.6l5.602 3.361z"></path>
    </g>
  </g>
</svg>
