<svg xmlns="http://www.w3.org/2000/svg" viewBox="0 0 32 32"><path d="M31.58 16v1.17a14.26 14.26 0 0 1-.36 2.37 15 15 0 0 1-.52 1.73l-.22.6a15.7 15.7 0 0 1-1.22 2.38 15 15 0 0 1-1.79 2.33A15.51 15.51 0 0 1 13 31.29a15.45 15.45 0 0 1-8.46-4.71 15 15 0 0 1-1.79-2.33 15.65 15.65 0 0 1-1.21-2.38l-.23-.6a17.17 17.17 0 0 1-.51-1.73 14.26 14.26 0 0 1-.36-2.37L.42 16v-.33a2 2 0 0 1 0-.25 5.68 5.68 0 0 1 0-.59 13.3 13.3 0 0 1 .26-1.91c0-.16.06-.3.1-.46l.2-.82.3-.92.23-.6a15.52 15.52 0 0 1 1.17-2.3v-.07a7 7 0 0 1 .44-.67 10.8 10.8 0 0 1 .59-.79l.76-.88a12.3 12.3 0 0 1 1-1q.4-.37.84-.72l1-.7.7-.44A15.72 15.72 0 0 1 15.94.42H16A15.7 15.7 0 0 1 24.65 3a16.07 16.07 0 0 1 2.77 2.37 15.1 15.1 0 0 1 1.79 2.34 15.54 15.54 0 0 1 1.21 2.37l.23.6a15.12 15.12 0 0 1 .52 1.74 14.26 14.26 0 0 1 .36 2.37l.05 1.2z" fill="#fff"/><path d="M24.65 3H7.35l.7-.44A15.47 15.47 0 0 1 13 .71h6A15.31 15.31 0 0 1 24.65 3zm4.55 4.75H2.8a7 7 0 0 1 .44-.67 10.8 10.8 0 0 1 .59-.79l.76-.88h22.84a15.1 15.1 0 0 1 1.79 2.34zm1.97 4.7H.83l.2-.82.3-.92.23-.6H30.4l.23.6a15.12 15.12 0 0 1 .52 1.74zm.4 2.37v2.34H.47L.42 16v-.58a5.68 5.68 0 0 1 0-.59zm-.4 4.7a15 15 0 0 1-.52 1.73l-.22.6H1.57l-.23-.6a17.17 17.17 0 0 1-.51-1.73zm-28.4 4.7H29.2a15 15 0 0 1-1.79 2.33H4.57a15 15 0 0 1-1.79-2.33zM7.35 29h17.3A15.31 15.31 0 0 1 19 31.29h-6A15.31 15.31 0 0 1 7.35 29z" fill="#ed1c24"/><path d="M15.94.42v16.75H.47L.42 16v-.58a5.68 5.68 0 0 1 0-.59 13.3 13.3 0 0 1 .26-1.91c0-.16.06-.3.1-.46l.2-.82.3-.92.23-.6a15.52 15.52 0 0 1 1.17-2.3v-.07a7 7 0 0 1 .44-.67 10.8 10.8 0 0 1 .59-.79l.76-.88a12.3 12.3 0 0 1 1-1q.4-.37.84-.72l1-.7.7-.44A15.72 15.72 0 0 1 15.94.42z" fill="#263b86"/><g fill="#fff"><path d="M14.53 15.4l-.26-.58-.25.58h-.56l.4.4-.1.56.5-.26.5.26-.1-.56.4-.4h-.56zm-3.33 0l-.25-.58-.25.58h-.57l.4.4-.1.56.5-.26.5.26-.1-.56.4-.4h-.57zm-3.32 0l-.25-.58-.25.58H6.8l.4.4-.1.56.5-.26.5.26-.1-.56.4-.4h-.56zm-3.32 0l-.25-.58-.26.58H3.5l.4.4-.1.56.5-.26.5.26-.1-.56.4-.4h-.56zm-3.16.42l.1.56-.5-.27-.5.27.1-.56-.15-.15H.42v-.25h.02l.3-.01.25-.58.26.58.56.01-.4.4zm12.06-2.06l-.57-.01-.25-.6-.25.6-.56.01.4.4-.1.56.5-.26.5.26-.1-.56.4-.4zm-3.33 0l-.56-.01-.25-.6-.25.6-.57.01.4.4-.1.56.5-.26.5.26-.1-.56.4-.4zm-3.33 0l-.56-.01-.25-.6-.25.6-.57.01.4.4-.1.56.5-.26.5.26-.1-.56.4-.4zm-3.3 0l-.56-.01-.26-.6-.25.6-.56.01.4.4-.1.56.5-.26.5.26-.1-.56.4-.4zm10.77-2.26l-.25.6h-.56l.4.4-.1.57.5-.27.5.27-.1-.57.4-.4h-.56l-.26-.6zm-3.32 0l-.25.6h-.57l.4.4-.1.57.5-.27.5.27-.1-.57.4-.4h-.57l-.25-.6zm-3.32 0l-.25.6H6.8l.4.4-.1.57.5-.27.5.27-.1-.57.4-.4h-.56l-.25-.6zm-3.33 0l-.26.6h-.56l.4.4-.1.57.5-.27.5.27-.1-.57.4-.4h-.56l-.25-.6zm-2.9.98l.1.57-.5-.27-.25.14c0-.16.06-.3.1-.46l.2-.82.2.44h.54l-.38.37zm10.74-1.1l.5-.27.5.27-.1-.56.4-.4-.57-.01-.25-.58-.25.58-.56.01.4.4-.1.56zm-3.32 0l.5-.27.5.27-.1-.56.4-.4-.56-.01-.25-.58-.25.58-.57.01.4.4-.1.56zm-3.32 0l.5-.27.5.27-.1-.56.4-.4-.56-.01L6 9.83l-.25.58-.57.01.4.4-.1.56zm-3.33 0l.5-.27.5.27-.1-.56.4-.4-.56-.01-.26-.58-.25.58-.56.01.4.4-.1.56zm12.1-3.22l-.25.6h-.56l.4.4-.1.56.5-.26.5.26-.1-.56.4-.4h-.56l-.26-.6zm-3.32 0l-.25.6h-.57l.4.4-.1.56.5-.26.5.26-.1-.56.4-.4h-.57l-.25-.6zm-3.32 0l-.25.6H6.8l.4.4-.1.56.5-.26.5.26-.1-.56.4-.4h-.56l-.25-.6zm-3.33 0l-.26.6H3.5l.4.4-.1.56.5-.26.5.26-.1-.56.4-.4h-.56l-.25-.6zm7.84-.12l.5-.26.5.26-.1-.56.4-.4h-.57l-.25-.6-.25.6h-.56l.4.4-.1.56zm-3.32 0l.5-.26.5.26-.1-.56.4-.4h-.56l-.25-.6-.25.6H8.5l.4.4-.1.56zm-3.32 0l.5-.26.5.26-.1-.56.4-.4h-.56L6 6.5l-.25.6h-.57l.4.4-.1.56zm-2.37-.3l.05.25-.44-.22V7.7a7 7 0 0 1 .44-.67h.26l-.4.4zm11.14-2.92l-.25.58-.56.01.4.4-.1.56.5-.27.5.27-.1-.56.4-.4-.56-.01-.26-.58zm-3.32 0l-.25.58-.57.01.4.4-.1.56.5-.27.5.27-.1-.56.4-.4-.57-.01-.25-.58zm-3.32 0l-.25.58-.57.01.4.4-.1.56.5-.27.5.27-.1-.56.4-.4-.56-.01-.25-.58zm-2.9 1l.1.56-.5-.27-.5.27v-.1l.76-.88h.54zm7.42-1.12l.5-.27.5.27-.1-.56.4-.4-.57-.01-.25-.58-.25.58-.56.01.4.4-.1.56zm-3.32 0l.5-.27.5.27-.1-.56.4-.4-.56-.01-.25-.58-.25.58-.57.01.4.4-.1.56zM6.4 4.15l.1.56-.5-.26-.5.26v-.25q.4-.37.84-.72h.43zm7.37-1.1l.5-.26.5.26-.1-.56.4-.4h-.56l-.26-.6-.25.6h-.56l.4.4-.1.56zM10.95 1.5l-.25.6h-.57l.4.4-.1.56.5-.26.5.26-.1-.56.4-.4h-.57l-.25-.6zM8.13 3l-.43-.18.35-.22z"/><path d="M15.94 32a16 16 0 1 1 16-16 16 16 0 0 1-16 16zm0-30.54A14.54 14.54 0 1 0 30.48 16 14.55 14.55 0 0 0 15.94 1.46z"/></g></svg>