<svg xmlns="http://www.w3.org/2000/svg" width="202" height="79" viewBox="0 0 202 79">
  <path fill="#FFF" fill-rule="nonzero" d="M.08.4H6.8V28h4.848v6H.08V.4zm13.344 0h12.48v6h-5.76v7.536h5.52v6h-5.52V28H26v6H13.424V.4zM38.24 34h-6.72V6.4h-4.08v-6h14.88v6h-4.08V34zM49.904.4v5.184c0 3.408-.336 4.176-2.496 7.104l-1.248 1.68-2.544-.72.672-1.392c1.104-2.208 1.536-3.168 1.68-4.464h-2.304V.4h6.24zm15.312 16.176c2.064 1.488 2.688 2.784 2.688 5.28v6.192c0 4.176-2.064 6.24-6.24 6.24H57.92c-4.176 0-6.24-2.064-6.24-6.24v-7.152h6.576v6.528c0 .816.384 1.2 1.2 1.2h.624c.816 0 1.2-.384 1.2-1.2v-4.032c0-1.056-.336-1.584-1.152-2.16l-5.76-4.272c-2.064-1.488-2.688-2.88-2.688-5.28V6.352c0-4.176 2.064-6.24 6.24-6.24h3.648c4.176 0 6.24 2.064 6.24 6.24v6.144h-6.576v-5.52c0-.816-.384-1.2-1.2-1.2h-.528c-.816 0-1.2.384-1.2 1.2v3.168c0 1.056.336 1.584 1.152 2.16l5.76 4.272zM93.68 34h-7.104l-3.408-15.888V34h-6.72V.4h6.72v15.792L86.912.4h6.96l-4.416 16.512L93.68 34zM94.976.4h12.48v6h-5.76v7.536h5.52v6h-5.52V28h5.856v6H94.976V.4zm14.736 0h12.48v6h-5.76v7.536h5.52v6h-5.52V28h5.856v6h-12.576V.4zm21.456 21.936V34h-6.72V.4h9.84c4.176 0 6.24 2.064 6.24 6.24v9.456c0 4.176-2.064 6.24-6.24 6.24h-3.12zm2.64-14.976c0-.816-.384-1.2-1.2-1.2h-1.44v10.416h1.44c.816 0 1.2-.384 1.2-1.2V7.36zm23.04 4.416L159.248.4h6.384l-5.664 21.648V34h-6.72V22.528L147.584.4h7.008l2.256 11.376zm26.304 16.272c0 4.176-2.064 6.24-6.24 6.24h-4.32c-4.176 0-6.24-2.064-6.24-6.24V6.352c0-4.176 2.064-6.24 6.24-6.24h4.32c4.176 0 6.24 2.064 6.24 6.24v21.696zm-6.72-20.976c0-.816-.384-1.2-1.2-1.2h-.96c-.816 0-1.2.384-1.2 1.2v20.256c0 .816.384 1.2 1.2 1.2h.96c.816 0 1.2-.384 1.2-1.2V7.072zM201.968.4v27.648c0 4.176-2.064 6.24-6.24 6.24h-4.08c-4.176 0-6.24-2.064-6.24-6.24V.4h6.72v26.928c0 .816.384 1.2 1.2 1.2h.72c.816 0 1.2-.384 1.2-1.2V.4h6.72zm-158.424 44v27.648c0 4.176-2.064 6.24-6.24 6.24h-4.08c-4.176 0-6.24-2.064-6.24-6.24V44.4h6.72v26.928c0 .816.384 1.2 1.2 1.2h.72c.816 0 1.2-.384 1.2-1.2V44.4h6.72zm9.072 21.936V78h-6.72V44.4h9.84c4.176 0 6.24 2.064 6.24 6.24v9.456c0 4.176-2.064 6.24-6.24 6.24h-3.12zm2.64-14.976c0-.816-.384-1.2-1.2-1.2h-1.44v10.416h1.44c.816 0 1.2-.384 1.2-1.2V51.36zM80.456 78h-6.72V50.4h-4.08v-6h14.88v6h-4.08V78zm22.224-5.952c0 4.176-2.064 6.24-6.24 6.24h-4.32c-4.176 0-6.24-2.064-6.24-6.24V50.352c0-4.176 2.064-6.24 6.24-6.24h4.32c4.176 0 6.24 2.064 6.24 6.24v21.696zm-6.72-20.976c0-.816-.384-1.2-1.2-1.2h-.96c-.816 0-1.2.384-1.2 1.2v20.256c0 .816.384 1.2 1.2 1.2h.96c.816 0 1.2-.384 1.2-1.2V51.072zM111.512 78V44.4h9.456c4.848 0 7.2 2.352 7.2 7.2v19.2c0 4.848-2.352 7.2-7.2 7.2h-9.456zm6.72-27.84v22.08h1.344c1.296 0 1.872-.576 1.872-1.872V52.032c0-1.296-.576-1.872-1.872-1.872h-1.344zm24.624-5.76l4.416 33.6H140.6l-.528-4.896h-4.224l-.48 4.896h-6.096l4.416-33.6h9.168zm-4.896 8.16l-1.488 14.688h3.024L137.96 52.56zM156.872 78h-6.72V50.4h-4.08v-6h14.88v6h-4.08V78zm5.76-33.6h12.48v6h-5.76v7.536h5.52v6h-5.52V72h5.856v6h-12.576V44.4z"/>
</svg>
