<svg id="Layer_1" xmlns="http://www.w3.org/2000/svg" viewBox="0 0 80 19"><style>.st0{fill:#009BDE;} .st1{fill:#002F87;} .st2{fill:#022169;}</style><g id="Layer_2"><g id="Layer_1-2"><path class="st0" d="M61.6 4.3h-4.4c-.3 0-.6.2-.6.5l-1.8 11c0 .2.1.4.3.4h2.4c.2 0 .4-.1.4-.4l.5-3.1c0-.3.3-.5.6-.5h1.4c2.9 0 4.6-1.4 5-4.1.2-1.2 0-2.1-.6-2.8-.6-.7-1.7-1-3.2-1zm.5 4c-.2 1.5-1.4 1.5-2.6 1.5h-.7l.5-2.9c0-.2.2-.3.4-.3h.3c.8 0 1.5 0 1.9.4.2.4.3.7.2 1.3z"/><path class="st1" d="M30.2 4.3h-4.4c-.3 0-.6.2-.6.5l-1.8 11c0 .2.1.4.3.4h2.2c.3 0 .6-.2.6-.5l.5-3c0-.3.3-.5.6-.5H29c2.9 0 4.6-1.4 5-4.1.2-1.2 0-2.1-.6-2.8-.6-.7-1.7-1-3.2-1zm.5 4c-.2 1.5-1.4 1.5-2.6 1.5h-.7l.5-2.8c0-.2.2-.3.4-.3h.3c.8 0 1.5 0 1.9.4.3.3.3.6.2 1.2zm12.7-.1h-2.1c-.2 0-.3.1-.4.3l-.1.6-.1-.2c-.5-.6-1.5-.9-2.5-.9-2.3 0-4.3 1.7-4.7 4.1-.2 1.2.1 2.4.8 3.2.6.7 1.6 1 2.7 1s2.1-.4 2.9-1.2l-.1.6c0 .2.1.4.3.4H42c.3 0 .6-.2.6-.5l1.1-7.1c.1 0 0-.2-.3-.3zm-2.9 4c-.2 1.1-1.2 2-2.4 2-.9.1-1.7-.5-1.8-1.4v-.6c.2-1.1 1.2-2 2.4-2 .5 0 1 .2 1.4.6.3.4.5.9.4 1.4z"/><path class="st0" d="M74.8 8.2h-2.1c-.2 0-.3.1-.4.3l-.1.6-.1-.2c-.5-.6-1.5-.9-2.5-.9-2.3 0-4.3 1.7-4.7 4.1-.2 1.2.1 2.4.8 3.2.6.7 1.6 1 2.7 1s2.1-.4 2.9-1.2l-.1.6c0 .2.1.4.3.4h2c.3 0 .6-.2.6-.5l1.1-7.1s-.2-.2-.4-.3zm-3 4c-.2 1.1-1.2 2-2.4 2-.9.1-1.7-.5-1.8-1.4v-.6c.2-1.1 1.2-2 2.4-2 .5 0 1 .2 1.4.6.4.4.5.9.4 1.4z"/><path class="st1" d="M54.6 8.2h-2.1c-.2 0-.4.1-.5.3l-2.9 4.2-1.2-4c-.1-.3-.3-.4-.6-.4h-2.1c-.2 0-.4.2-.4.4v.1l2.3 6.7-2.2 3c-.1.2-.1.4.1.5.1 0 .1.1.2.1h2.1c.2 0 .4-.1.5-.3l7-9.9c.2-.3.2-.5 0-.6-.1 0-.1-.1-.2-.1z"/><path class="st0" d="M77.2 4.6l-1.8 11.2c0 .2.1.4.3.4h1.9c.3 0 .6-.2.6-.5l1.8-11c0-.2-.1-.4-.3-.4h-2c-.3 0-.4.1-.5.3zm-62.4.2c.2-1.5 0-2.5-.8-3.4C13.1.4 11.5 0 9.4 0h-6c-.4 0-.8.3-.9.7L0 16.3c0 .3.2.5.4.6h3.8L4 18.5c0 .2.1.5.4.5h3.2c.4 0 .7-.3.7-.6v-.2l.6-3.7v-.2c.1-.3.5-.6.8-.6h.5c3 0 5.4-1.2 6.1-4.7.3-1.5.1-2.7-.6-3.6-.3-.2-.5-.4-.9-.6"/><path class="st2" d="M14.8 4.8c.2-1.5 0-2.5-.8-3.4C13.1.4 11.5 0 9.4 0h-6c-.4 0-.8.3-.9.7L0 16.3c0 .3.2.5.4.6h3.8l.9-5.8v.2c.1-.4.4-.7.9-.7h1.8c3.5 0 6.2-1.4 7-5.4v-.4"/><path class="st1" d="M6.2 4.8c.1-.4.4-.6.7-.6h4.7c.5 0 1 0 1.6.1.1 0 .3 0 .4.1s.3.1.4.1l.2.1c.2.1.4.2.7.3.2-1.5 0-2.5-.8-3.4C13.1.4 11.5 0 9.4 0h-6c-.4 0-.8.3-.9.7L0 16.3c0 .3.2.5.4.6h3.8l.9-5.8 1.1-6.3z"/></g></g></svg>