<svg width="90" height="25" viewBox="0 0 88 11" xmlns="http://www.w3.org/2000/svg">
  <g fill="none">
    <path d="M5.968.766c2.278 0 3.442.802 3.442 2.37 0 1.42-.936 2.286-2.64 2.42.544.334.897.906.95 1.54l.71 3.25H5.913l-.71-3.072c-.12-.546-.426-.71-1.15-.71h-.418l-.795 3.762H.31L2.35.766h3.618zm-2.05 3.982h.915c1.228 0 1.866-.483 1.866-1.242 0-.646-.44-.994-1.328-.994h-1l-.455 2.236zM16.763.766l2.13 9.56h-2.52l-.377-2.037h-3.76l-1.023 2.036H8.637l5.06-9.56h3.066zM13.1 6.48h2.584l-.71-3.84L13.1 6.48zm14.322-3.428a4.194 4.194 0 0 0-2.278-.618c-2.335 0-3.676 1.42-3.676 3.69 0 1.49 1.036 2.45 2.74 2.45a5.11 5.11 0 0 0 2.29-.59l-.24 2.2c-.856.23-1.74.352-2.626.362-3.058 0-4.797-1.71-4.797-4.492a5.57 5.57 0 0 1 1.49-3.84 5.784 5.784 0 0 1 4.47-1.668c1.112.017 2.214.21 3.266.568l-.638 1.938zM31.595.766l-2.05 9.56h-2.577l2.065-9.56zm3.988 0l1.49 4.848c.218.648.375 1.316.47 1.994h.112c.063-.677.175-1.348.334-2.01L39.03.767h2.335l-2.065 9.56h-3.15l-1.633-5.358a7.806 7.806 0 0 1-.32-1.54h-.1a28.04 28.04 0 0 1-.305 1.887l-1.065 4.968h-2.342L32.432.766h3.15zM49.94 2.974a4.79 4.79 0 0 0-2.32-.575c-2.598 0-4.067 1.418-4.067 3.618 0 1.64.937 2.633 2.49 2.633.346 0 .69-.044 1.023-.134l.426-1.994h-1.57L46.3 4.79h3.995l-1.136 5.287c-1.07.334-2.187.493-3.308.47-3.15 0-4.897-1.712-4.897-4.53a5.174 5.174 0 0 1 1.42-3.69c1.213-1.27 2.768-1.76 4.968-1.76 1.077-.01 2.15.147 3.18.47l-.583 1.937zM58.115.766c2.655 0 3.94.788 3.94 2.59 0 2.13-1.52 3.55-4.13 3.55-.318 0-.775-.015-1.37-.043l-.76 3.484h-2.57l2.06-9.58h2.83zm-1.185 4.26h.71c1.256 0 1.952-.555 1.952-1.42 0-.71-.526-1.13-1.49-1.13h-.618l-.554 2.55z" fill="#1B1919"/>
    <path d="M72.01 4.648a6.486 6.486 0 0 1-1.19 3.776 5.237 5.237 0 0 1-4.345 2.13 4.173 4.173 0 0 1-4.258-4.146 6.125 6.125 0 0 1 1.08-3.62A5.216 5.216 0 0 1 67.78.547c2.684 0 4.23 1.583 4.23 4.102zM67.62 2.32a2.427 2.427 0 0 0-2.03 1.35 5.777 5.777 0 0 0-.76 2.838c0 1.377.71 2.178 1.74 2.178a2.455 2.455 0 0 0 2.044-1.362 5.69 5.69 0 0 0 .76-2.84c0-1.376-.654-2.163-1.754-2.163z" fill="#DE1600"/>
    <path d="M79.086 2.84a5.23 5.23 0 0 0-2.17-.47c-1.18 0-1.768.362-1.768.98 0 .617.66.71 1.675 1.227 1.42.71 2.058 1.257 2.058 2.534 0 2.01-1.617 3.43-4.463 3.43a9.488 9.488 0 0 1-3.208-.526l.553-1.966c.7.37 1.478.573 2.27.59 1.356 0 2.13-.484 2.13-1.2 0-.83-.774-.98-2.087-1.526a2.306 2.306 0 0 1-1.618-2.243c0-1.79 1.56-3.116 4.038-3.116a9.7 9.7 0 0 1 3.208.425l-.618 1.86zM87.61.766l-.398 1.846h-2.448l-1.647 7.714h-2.583l1.647-7.714h-2.377l.39-1.846z" fill="#1B1919"/>
  </g>
</svg>
