<svg xmlns="http://www.w3.org/2000/svg" xmlns:xlink="http://www.w3.org/1999/xlink" width="13" height="14" viewBox="0 0 13 14">
    <path fill="#5C636B" d="M6.418 7.67c0 .23-.19.415-.422.415h-3.98a.418.418 0 0 1-.421-.415c0-.23.189-.418.422-.418h3.979a.42.42 0 0 1 .422.418zM2.017 9.046a.42.42 0 0 0-.422.417c0 .23.19.417.422.417h2.962a.42.42 0 0 0 .423-.417.42.42 0 0 0-.423-.417H2.017zM8.22 5.485H2.016a.42.42 0 0 0-.422.418c0 .23.19.416.422.416H8.22c.233 0 .421-.186.421-.416a.42.42 0 0 0-.42-.418M2.017 4.52h5.176a.42.42 0 0 0 .423-.416.42.42 0 0 0-.423-.417H2.017a.42.42 0 0 0-.422.417c0 .23.19.417.422.417"/>
    <path fill="#5C636B" d="M7.327 14h.846V8.519h-.846zM8.714 14h.846v-3.767h-.846zM10.1 14h.846V9.046H10.1zM11.485 14h.846v-2.258h-.846z"/>
    <path fill="#5C636B" d="M9.297 2.43H8.214V1.295L9.297 2.43zm1.183 5.382V2.654L8.004 0H.874A.869.869 0 0 0 0 .861v12.278c0 .475.391.861.873.861h5.658v-.73H.873a.139.139 0 0 1-.14-.137V.861c0-.076.063-.136.14-.136H7.48v2.084c0 .2.164.362.366.362h1.9v4.641h.734z"/>
</svg>
