<svg xmlns="http://www.w3.org/2000/svg" xmlns:xlink="http://www.w3.org/1999/xlink" width="22" height="22"><defs><path id="A" d="M0 0h22v22H0z"/><path id="B" d="M4.93 9.277c.06.572-.35 1.088-.923 1.164-.574-.076-.983-.592-.923-1.164"/></defs><g fill-rule="evenodd"><mask id="C" fill="#fff"><use xlink:href="#A"/></mask><g mask="url(#C)" fill="#000" fill-rule="nonzero"><g transform="matrix(.906308 .422618 -.422618 .906308 2.94885 .100006)"><path d="M2.852 9.47c-1.176.005-2.136-.932-2.15-2.1 0-.064.13-5.766 1.07-5.766.25 0 .434.174.702.44.81.922 1.99 1.445 3.222 1.43C8.123 3.474 9.692.88 9.71.853l.157-.266.286.128 4.698 2.218a36.94 36.94 0 0 0 6.018 1.952 4.3 4.3 0 0 1 2.197.843 1.94 1.94 0 0 1 .858 1.733c-.108.68-.567 1.254-1.21 1.513-.736.333-1.55.457-2.354.357l-17.51.137zM1.93 2.448c-.28 1.628-.45 3.272-.508 4.923.015.788.665 1.417 1.458 1.412l17.585-.064c.68.093 1.37-.01 1.994-.293a1.12 1.12 0 0 0 .835-.964c.05-.463-.195-.907-.613-1.116-.537-.4-1.177-.645-1.846-.706-2.126-.513-4.202-1.212-6.203-2.1l-4.412-2.08c-.508.724-2.086 2.695-4.44 2.695-1.408.01-2.753-.58-3.692-1.622l-.157-.092z"/><use xlink:href="#B"/><use xlink:href="#B" x="2.833"/><use xlink:href="#B" x="5.676"/><use xlink:href="#B" x="10.412"/><use xlink:href="#B" x="13.255"/><use xlink:href="#B" x="16.098"/><path d="M1.006 8.02H23.39v.23H1.006z"/><path d="M8.714 9.213l2.52-3.5c.342-.477-.47-.917-.803-.45l-2.52 3.52c-.332.477.47.917.803.44zm2.676 0l2.52-3.5c.342-.477-.462-.917-.794-.45l-2.52 3.52c-.342.477.47.917.794.44zm.592-5.903l1.1-1.53c.332-.477-.47-.917-.803-.45l-1.08 1.54c-.342.477.47.917.794.44zm1.66.723l1.1-1.54c.332-.477-.47-.917-.794-.45l-1.1 1.54c-.342.477.47.917.794.45zm1.662.715l1.1-1.54c.342-.477-.47-.917-.794-.45L14.5 4.3c-.332.477.47.917.794.45zM5.52 8.855l-.683-.12a3.34 3.34 0 0 0-.138-1.632C4.22 5.957 3.03 5.5 1.44 5.82l-.138-.67c1.9-.403 3.425.23 4.043 1.687a4.09 4.09 0 0 1 .175 2.017z"/></g></g></g></svg>