<svg xmlns="http://www.w3.org/2000/svg" width="39" height="15" viewBox="0 0 39 15">
    <g fill="none" fill-rule="evenodd">
        <rect width="39" height="15" fill="#FAC031" rx="1"/>
        <path fill="#252835" d="M9.726 8.603h.032l.843-4.99h1.482l-1.509 7.82H9.151L8.05 6.643h-.032l-1.09 4.79H5.508L4 3.613h1.482l.844 4.99h.032l1.128-4.99h1.096l1.144 4.99zm6.354 1.17h-2.062l-.42 1.66h-1.54l2.202-7.82h1.59l2.196 7.82h-1.541l-.425-1.66zm-1.75-1.23h1.439l-.704-2.766h-.032l-.704 2.766zm8.234-3.706h-1.762v6.596h-1.525V4.837h-1.751V3.613h5.038v1.224zm5.49 4.077l.016.032c.007.86-.197 1.508-.612 1.945-.416.436-1.028.655-1.837.655-.81 0-1.456-.248-1.939-.744-.483-.496-.725-1.199-.725-2.108V6.357c0-.906.233-1.608.7-2.108.468-.5 1.094-.749 1.878-.749.83 0 1.458.222 1.883.666.424.444.643 1.101.658 1.971l-.017.032h-1.471c.021-.512-.049-.88-.21-1.106-.16-.226-.442-.338-.843-.338-.344 0-.607.134-.79.402-.182.269-.273.675-.273 1.22v2.347c0 .551.097.961.292 1.23.195.268.48.403.857.403.369 0 .626-.107.77-.32.146-.213.21-.577.191-1.093h1.472zm6.425 2.52h-1.526v-3.24h-2.428v3.24h-1.53V3.612h1.53v3.362h2.428V3.613h1.526v7.82z"/>
    </g>
</svg>
