<svg xmlns="http://www.w3.org/2000/svg" width="157" height="76"><g fill="none" fill-rule="evenodd" stroke="#FFF"><g stroke-linecap="round" stroke-linejoin="round" stroke-width="2"><path d="M65.889 49.156V5.889a4.889 4.889 0 1 1 9.778 0v26.889m-9.534 35.689L51.711 44.756a4.889 4.889 0 0 1 2.2-6.6 4.889 4.889 0 0 1 6.6 2.2l5.378 8.8m9.778-23.712a4.889 4.889 0 0 1 9.777 0v9.778m0-7.333a4.889 4.889 0 0 1 9.778 0v9.778"/><path d="M66.133 68.467a12.344 12.344 0 0 0 10.511 5.866h16.134c6.75 0 12.222-5.472 12.222-12.222V32.778a4.889 4.889 0 1 0-9.778 0"/></g><path fill="#FFF" fill-rule="nonzero" stroke-width=".3" d="M18.858 38.714H4.686L9.499 33.9a1.08 1.08 0 1 0-1.526-1.527L1.316 39.03a1.08 1.08 0 0 0 0 1.526l6.657 6.657a1.076 1.076 0 0 0 1.526 0 1.079 1.079 0 0 0 0-1.526l-4.813-4.814h14.172a1.08 1.08 0 0 0 0-2.16zm119.284 0h14.172l-4.813-4.814a1.08 1.08 0 1 1 1.526-1.527l6.657 6.657a1.08 1.08 0 0 1 0 1.526l-6.657 6.657a1.076 1.076 0 0 1-1.526 0 1.079 1.079 0 0 1 0-1.526l4.813-4.814h-14.172a1.08 1.08 0 0 1 0-2.16z"/></g></svg>