<svg xmlns="http://www.w3.org/2000/svg" width="24" height="11"><path fill="#084d8d" d="M0 10.846V.154h3.152C4.255.154 5.116.4 5.735.9s.93 1.218.93 2.188c0 .51-.113.96-.338 1.355a2.084 2.084 0 0 1-1.014.884c.563.133.98.42 1.25.86s.403.957.403 1.55c0 1.023-.292 1.8-.878 2.328s-1.424.793-2.517.793H0zm2.094-4.714V9.18H3.57c.44 0 .77-.122.99-.367s.327-.6.327-1.094c0-.5-.093-.9-.28-1.175s-.485-.41-.896-.41H2.094zm0-1.462h1.154c.426-.01.753-.133.98-.37s.342-.58.342-1.025c0-.5-.118-.865-.353-1.098s-.6-.35-1.066-.35H2.094V4.67zm13.463 2.335c0 1.254-.34 2.233-1.022 2.938S12.948 11 11.816 11s-2.035-.352-2.71-1.057S8.09 8.26 8.09 7.005V4c0-1.248.338-2.228 1.014-2.94S10.682 0 11.81 0s2.033.356 2.72 1.068 1.03 1.693 1.03 2.94v2.996zm-2.08-3c0-.764-.142-1.34-.426-1.73s-.698-.583-1.242-.583-.96.193-1.235.58-.41.964-.41 1.733v3c0 .774.14 1.354.42 1.74s.7.58 1.234.58.95-.193 1.235-.58.426-.966.426-1.74v-3zM24 9.26c-.29.46-.723.865-1.3 1.215S21.39 11 20.502 11c-1.146 0-2.066-.335-2.76-1.006s-1.04-1.625-1.04-2.864V3.87c0-1.23.334-2.18 1.003-2.857S19.26 0 20.363 0c1.185 0 2.074.3 2.667.87s.9 1.41.926 2.493l-.015.044h-1.96c-.015-.602-.148-1.04-.4-1.318s-.638-.415-1.158-.415c-.5 0-.908.18-1.197.54s-.434.907-.434 1.64V7.13c0 .75.146 1.304.437 1.663s.717.54 1.275.54c.417 0 .724-.056.922-.17a1.3 1.3 0 0 0 .489-.5V6.75h-1.4V5.28H24v3.98z"/></svg>