<svg xmlns="http://www.w3.org/2000/svg" viewBox="0 0 273.19 272.92"><style>.st2{fill:#fc0}</style><g class="st0"><circle fill="#322F7D" cx="136.72" cy="136.47" r="110"/><path class="st2" d="M136.59 194.84l2.52 7.75h8.15l-6.59 4.79 2.51 7.75-6.59-4.79-6.59 4.79 2.52-7.75-6.59-4.79h8.15zm-34.58-9.35l2.52 7.74h8.14l-6.59 4.79 2.52 7.75-6.59-4.79-6.59 4.79 2.52-7.75-6.6-4.79h8.15zM77.43 160.9l2.51 7.75h8.15l-6.59 4.79 2.52 7.75-6.59-4.79-6.6 4.79 2.52-7.75-6.59-4.79h8.15zm-9.36-34.58l2.52 7.75h8.14l-6.59 4.78 2.52 7.75-6.59-4.79-6.59 4.79 2.52-7.75-6.59-4.78h8.14zm9.36-34.59l2.51 7.75h8.15l-6.59 4.79 2.52 7.75-6.59-4.79-6.6 4.79 2.52-7.75-6.59-4.79h8.15zm24.58-24.58l2.52 7.75h8.14l-6.59 4.79 2.52 7.74-6.59-4.79-6.59 4.79 2.52-7.74-6.6-4.79h8.15zm34.58-9.36l2.52 7.75h8.15l-6.59 4.79 2.52 7.75-6.6-4.79-6.59 4.79 2.52-7.75-6.59-4.79h8.15zm34.59 9.36l2.52 7.75h8.14l-6.59 4.79 2.52 7.74-6.59-4.78-6.59 4.78 2.52-7.74-6.59-4.79h8.14zm24.58 24.58l2.52 7.75h8.15l-6.59 4.79 2.51 7.75-6.59-4.79-6.59 4.79 2.52-7.75-6.59-4.79h8.15zm9.36 34.59l2.52 7.75h8.14l-6.59 4.78 2.52 7.75-6.59-4.79-6.59 4.79 2.51-7.75-6.59-4.78h8.15zm-9.36 34.58l2.52 7.75h8.15l-6.59 4.79 2.51 7.75-6.59-4.79-6.59 4.79 2.52-7.75-6.59-4.79h8.15zm-24.58 24.59l2.52 7.74h8.14l-6.59 4.79 2.52 7.75-6.59-4.79-6.59 4.79 2.52-7.75-6.6-4.79h8.15z"/><path class="st2" d="M136.59 194.84l2.52 7.75h8.15l-6.59 4.79 2.51 7.75-6.59-4.79-6.59 4.79 2.52-7.75-6.59-4.79h8.15z"/></g><path d="M136.72 13.65c32.81 0 63.65 12.78 86.85 35.97 23.2 23.2 35.97 54.04 35.97 86.85 0 32.81-12.78 63.65-35.97 86.85-23.2 23.2-54.04 35.97-86.85 35.97s-63.65-12.78-86.85-35.97c-23.2-23.2-35.97-54.04-35.97-86.85s12.78-63.65 35.97-86.85c23.19-23.2 54.04-35.97 86.85-35.97m0-13.65C61.34 0 .24 61.1.24 136.47s61.1 136.47 136.47 136.47 136.47-61.1 136.47-136.47C273.19 61.1 212.09 0 136.72 0z" fill="#fff"/></svg>