<svg xmlns="http://www.w3.org/2000/svg" viewBox="0 0 273.19 272.92"><path d="M236.72 137.1c0-19.71-5.7-37.91-15.55-53.91H52.26c-9.84 16-15.55 34.2-15.55 53.91 0 19.36 5.51 38.09 15.04 53.09h169.92c9.54-15 15.05-33.73 15.05-53.09z" fill="#ffcd00"/><path d="M136.72 36.76c-35.52 0-66.71 19.43-84.45 46.43h168.9c-17.74-27-48.93-46.43-84.45-46.43zm84.96 153.43H51.75c15.51 25 41.67 42 72.12 46h25.68c30.46-4 56.62-21 72.13-46z" fill="#ff1300"/><path d="M136.72 13.65c32.81 0 63.65 12.78 86.85 35.97 23.2 23.2 35.97 54.04 35.97 86.85 0 32.81-12.78 63.65-35.97 86.85-23.2 23.2-54.04 35.97-86.85 35.97s-63.65-12.78-86.85-35.97c-23.2-23.2-35.97-54.04-35.97-86.85s12.78-63.65 35.97-86.85c23.19-23.2 54.04-35.97 86.85-35.97m0-13.65C61.34 0 .24 61.1.24 136.47s61.1 136.47 136.47 136.47 136.47-61.1 136.47-136.47C273.19 61.1 212.09 0 136.72 0z" fill="#fff"/></svg>