<svg data-name="Layer 1" xmlns="http://www.w3.org/2000/svg" viewBox="0 0 30 30"><path d="M15 2A13 13 0 1 1 2 15 13 13 0 0 1 15 2m0-2a15 15 0 1 0 15 15A15 15 0 0 0 15 0z" fill="#fff"/><path d="M15 2a13 13 0 1 0 13 13A13 13 0 0 0 15 2z" fill="#78be43"/><path d="M8.16 15.6a.69.69 0 0 1-.16-.42.69.69 0 0 1 .16-.42l.75-.86a.49.49 0 0 1 .68-.07l.08.07.09.08 2.94 3.54a.24.24 0 0 0 .33 0l7.2-8.34h.05A.49.49 0 0 1 21 9.1l.08.07.75.86a.62.62 0 0 1 0 .86l-8.57 9.93a.49.49 0 0 1-.68.07l-.08-.07-4.23-5z" fill="#fff"/></svg>