<svg width="48" height="32" xmlns="http://www.w3.org/2000/svg"><defs><path id="a" d="M0 0h48v32H0z"/></defs><g fill="none" fill-rule="evenodd"><g><path fill="#00579F" d="M20.752 23.395H16.89l2.415-14.934h3.862zM34.75 8.826a9.516 9.516 0 0 0-3.464-.635c-3.813 0-6.498 2.033-6.515 4.94-.031 2.145 1.923 3.337 3.385 4.052 1.494.73 2.001 1.208 2.001 1.86-.015 1-1.207 1.46-2.319 1.46-1.541 0-2.367-.237-3.623-.794l-.508-.238-.54 3.352c.905.413 2.574.779 4.306.795 4.052 0 6.69-2.002 6.72-5.1.016-1.7-1.016-3.003-3.24-4.067-1.351-.684-2.178-1.144-2.178-1.844.016-.635.7-1.286 2.224-1.286a6.56 6.56 0 0 1 2.876.572l.35.158.525-3.225zM39.882 18.105c.318-.858 1.542-4.179 1.542-4.179-.016.032.317-.873.508-1.43l.27 1.287s.731 3.575.89 4.322h-3.21zM44.65 8.46h-2.987c-.921 0-1.621.27-2.018 1.24l-5.736 13.694h4.052l.81-2.24h4.958c.11.524.46 2.24.46 2.24h3.576L44.649 8.461zM13.665 8.461L9.883 18.645 9.47 16.58c-.7-2.384-2.892-4.973-5.339-6.26l3.464 13.06h4.084l6.07-14.919h-4.084z"/><path d="M6.372 8.461H.159l-.064.302c4.847 1.24 8.056 4.227 9.375 7.817L8.12 9.717c-.223-.954-.906-1.224-1.748-1.256z" fill="#FAA61A"/></g></g></svg>
