<svg xmlns="http://www.w3.org/2000/svg" viewBox="0 0 273.19 272.92"><style>.st1{fill:#fff}.st2{fill:#000}</style><circle fill="#322F7D" cx="136.72" cy="136.47" r="130"/><circle class="st1" cx="151.72" cy="121.47" r="72.21"/><path class="st2" d="M113.91 134.81l15.87-36.75c.04.45.09.89.13 1.33l.15 1.31c.05.43.1.86.16 1.28.05.42.11.84.17 1.25l.18 1.22c.06.4.13.79.19 1.17.06.38.13.76.2 1.13.07.37.14.73.21 1.09l4.69 23.33-21.95 3.64m25.96-58.95l-16.37 1.26-29.72 62.05 3.95 9.8c.12.29.26.56.42.81a5.002 5.002 0 0 0 1.23 1.32c.25.19.51.36.8.51.29.15.58.28.87.38.29.1.59.17.88.22.3.05.59.07.9.06.3-.01.6-.04.91-.09l34.99-6.64 4.22 21.04 14.88-3.36-4.22-20.51 4.8-.91c.26-.05.49-.12.71-.2.22-.09.41-.19.59-.31s.34-.26.48-.42c.14-.16.26-.34.36-.53.1-.19.18-.39.24-.6.06-.2.11-.41.13-.62.03-.21.03-.43.02-.65-.01-.22-.04-.45-.09-.68l-2.16-10.38-7.97 1.32-10.85-52.87m46.85 33.63c-1.59.23-3.05.17-4.36-.17-1.32-.34-2.5-.97-3.54-1.88-1.04-.92-1.93-2.12-2.67-3.6-.74-1.49-1.33-3.26-1.77-5.31-.09-.43-.17-.86-.23-1.28-.06-.42-.11-.83-.14-1.24-.03-.41-.05-.81-.05-1.2 0-.4.01-.78.04-1.17.03-.38.08-.75.14-1.11a10.596 10.596 0 0 1 .53-2.02c.12-.31.25-.62.4-.91.15-.29.31-.57.49-.83s.37-.51.57-.75c.2-.24.42-.46.65-.67.23-.21.48-.4.73-.59.26-.18.53-.35.82-.49.29-.15.59-.27.9-.38.31-.11.64-.2.99-.27.34-.07.7-.13 1.07-.16.36-.04.72-.05 1.08-.06.35 0 .7.01 1.05.04.35.03.69.08 1.03.14a10.09 10.09 0 0 1 2.89 1.01c.3.16.59.34.87.53s.55.4.82.62c.26.22.52.46.77.72.25.26.49.53.72.82.23.29.46.59.67.91.22.32.42.66.62 1.02a15.856 15.856 0 0 1 1.05 2.31c.15.42.29.85.42 1.3.13.45.25.91.35 1.39.2.9.34 1.76.42 2.58.08.82.1 1.61.05 2.36-.04.75-.15 1.46-.31 2.14a9.82 9.82 0 0 1-.68 1.91c-.29.6-.64 1.14-1.05 1.62-.41.48-.88.9-1.41 1.26-.53.36-1.12.65-1.78.89-.65.24-1.37.41-2.15.52m-8.18-37.48c-.91.07-1.8.18-2.66.33a21.438 21.438 0 0 0-4.83 1.44c-.75.33-1.47.7-2.16 1.12-.69.42-1.35.87-1.98 1.35-.63.48-1.22.99-1.79 1.54-.56.54-1.1 1.12-1.59 1.73-.5.61-.97 1.25-1.4 1.92-.43.67-.83 1.37-1.19 2.1a23.075 23.075 0 0 0-1.71 4.65c-.21.83-.38 1.68-.52 2.55-.13.88-.23 1.76-.28 2.66-.05.9-.06 1.8-.03 2.72.03.92.11 1.85.22 2.78.12.94.28 1.88.48 2.84.22 1.05.47 2.05.75 3.02.28.97.6 1.89.94 2.78.34.89.72 1.73 1.13 2.54.41.8.84 1.57 1.31 2.29.47.72.95 1.41 1.45 2.06.5.65 1.01 1.26 1.54 1.84.53.58 1.07 1.11 1.63 1.62a22.401 22.401 0 0 0 3.5 2.58c.6.36 1.21.68 1.82.97.61.29 1.23.54 1.85.76.62.22 1.25.4 1.89.55.63.15 1.26.27 1.88.36.62.09 1.23.15 1.83.17.6.03 1.19.02 1.78-.01.58-.03 1.16-.1 1.73-.19.93-.15 1.83-.36 2.68-.62.85-.26 1.66-.57 2.43-.94.77-.36 1.5-.78 2.19-1.25s1.34-.98 1.95-1.55c-.05.16-.11.33-.16.49-.06.16-.11.33-.17.49-.06.16-.12.33-.19.49-.06.17-.13.33-.2.5-.07.17-.14.33-.21.5l-.21.51c-.07.17-.14.34-.22.52-.07.17-.15.35-.22.53l-15.56 36.34 14.08-3.18c.43-.1.85-.22 1.25-.36.4-.14.78-.3 1.14-.48.36-.18.71-.39 1.03-.61.33-.22.64-.47.93-.74.29-.27.56-.54.81-.82.24-.28.47-.56.66-.85.2-.29.37-.58.52-.88.15-.3.28-.61.38-.92l8.81-27.75c.33-1 .63-2.02.9-3.04s.5-2.04.71-3.08a55.487 55.487 0 0 0 .88-6.28c.08-1.06.12-2.15.11-3.26-.01-1.11-.06-2.25-.16-3.41-.1-1.16-.25-2.35-.44-3.57-.19-1.21-.43-2.46-.72-3.73a41.15 41.15 0 0 0-1.62-5.45 34.87 34.87 0 0 0-2.26-4.87c-.43-.76-.88-1.5-1.35-2.21-.47-.71-.97-1.38-1.49-2.03-.52-.65-1.06-1.27-1.62-1.86-.56-.59-1.15-1.15-1.75-1.69-.61-.53-1.24-1.03-1.88-1.5-.65-.47-1.32-.9-2.01-1.3-.69-.4-1.4-.77-2.14-1.1-.74-.33-1.49-.63-2.27-.9s-1.58-.49-2.39-.68c-.82-.18-1.65-.33-2.5-.43-.85-.1-1.72-.16-2.61-.17-.86-.03-1.77 0-2.7.07"/><path class="st1" d="M68.56 37.92l-18 9.47 5.26 2.12 8.91-8.24.41-.38c.14-.13.29-.26.44-.39.15-.13.3-.27.45-.4.15-.14.31-.28.47-.42l.49-.43c.17-.14.34-.29.51-.44.17-.15.34-.29.52-.44.18-.14.36-.29.54-.45m21.92 2.17c-.17-.04-.34-.07-.51-.1-.17-.02-.35-.04-.53-.04-.18 0-.37 0-.55.02-.19.02-.38.04-.58.07-.2.03-.39.08-.59.12-.2.05-.4.1-.6.17-.2.06-.4.13-.61.21-.2.08-.41.16-.62.25-.21.09-.41.19-.62.3a19.01 19.01 0 0 0-1.24.71c-.21.13-.41.27-.62.41-.21.14-.42.29-.62.45-.21.15-.41.31-.61.48-.2.16-.4.33-.59.51-.2.17-.39.35-.58.54-.91.87-1.63 1.66-2.15 2.37-.53.71-.86 1.34-.99 1.89-.14.55-.07 1.03.19 1.42.27.4.74.71 1.41.94.33.11.68.19 1.05.23.37.04.74.04 1.14.01.4-.04.8-.11 1.23-.23.42-.11.86-.27 1.32-.46a14.857 14.857 0 0 0 2.69-1.5c.45-.31.89-.64 1.33-1.01.44-.36.88-.76 1.31-1.18.23-.23.45-.45.65-.66l.57-.63c.17-.21.33-.41.48-.6a8.038 8.038 0 0 0 .94-1.61c.07-.16.12-.32.16-.47a2.309 2.309 0 0 0 .08-.83c-.01-.13-.03-.25-.07-.36-.04-.12-.08-.23-.14-.33-.06-.1-.13-.2-.21-.3-.08-.09-.18-.18-.28-.26-.1-.08-.22-.15-.34-.22a2.43 2.43 0 0 0-.4-.18c-.18-.05-.33-.09-.5-.13m-47.9 10.93a.418.418 0 0 1-.15-.11.377.377 0 0 1-.09-.15.582.582 0 0 1-.03-.19c0-.07.01-.15.03-.23.02-.08.05-.17.09-.26.04-.09.09-.18.14-.27.06-.09.12-.18.19-.28.07-.09.15-.19.24-.29l3.03-3.26 29.83-15.52 5.11 1.03-21.04 19.68 2.41.97-4.36 4.09c-.1.09-.19.17-.29.25-.1.08-.2.15-.31.22-.1.07-.21.13-.32.19-.11.06-.22.11-.33.16-.11.05-.22.09-.33.12-.1.03-.2.05-.3.05-.09.01-.18 0-.27-.01a.754.754 0 0 1-.24-.08l-1.38-.65-8.46 7.9-3.71-2.16 8.22-7.6-7.68-3.6m28.77 4.68c-.22-.09-.43-.19-.63-.31-.19-.12-.37-.24-.54-.39a3.92 3.92 0 0 1-.45-.46c-.13-.17-.25-.34-.36-.54a3.2 3.2 0 0 1-.26-.6c-.07-.21-.11-.43-.14-.66a3.43 3.43 0 0 1-.02-.72c.01-.25.04-.51.09-.79a7.772 7.772 0 0 1 .55-1.74c.13-.31.29-.62.47-.95.18-.33.38-.66.59-1 .22-.34.47-.7.74-1.06.27-.36.58-.73.9-1.11.33-.38.68-.76 1.07-1.16.38-.39.79-.8 1.23-1.21.4-.38.81-.75 1.22-1.1.42-.36.84-.71 1.27-1.05.43-.34.87-.67 1.32-.99.45-.32.91-.63 1.37-.94.47-.3.93-.59 1.4-.87.47-.28.94-.54 1.41-.79s.95-.49 1.43-.72a28.584 28.584 0 0 1 2.89-1.19 26.823 26.823 0 0 1 2.88-.85c.48-.11.96-.21 1.44-.29.48-.08.95-.14 1.42-.18.47-.04.93-.06 1.38-.06.45 0 .9.02 1.34.06.44.04.87.11 1.3.19.44.09.84.19 1.22.31s.73.26 1.06.41a5.444 5.444 0 0 1 1.61 1.12c.21.22.39.46.55.71a4.249 4.249 0 0 1 .59 1.66c.04.31.05.63.03.96-.02.33-.07.68-.15 1.04-.08.36-.19.73-.32 1.11-.14.38-.3.77-.5 1.18-.2.4-.42.82-.67 1.24-.25.43-.54.86-.85 1.3A27.013 27.013 0 0 1 96.99 48c-.43.47-.89.95-1.38 1.43-.65.64-1.3 1.26-1.96 1.85-.66.6-1.32 1.17-1.99 1.72-.67.55-1.35 1.08-2.02 1.58-.68.5-1.36.98-2.04 1.44-.69.46-1.38.9-2.08 1.33-.7.43-1.4.85-2.11 1.25s-1.42.79-2.13 1.17c-.71.37-1.43.73-2.15 1.08l-18.67 9.11c-.2.1-.4.18-.61.26a7.114 7.114 0 0 1-1.25.34c-.21.04-.43.06-.64.08-.22.02-.43.02-.63.01s-.4-.03-.58-.07a4.1 4.1 0 0 1-.53-.15c-.17-.06-.33-.14-.48-.23l-4.68-2.73 22.93-10.14c.12-.05.24-.11.36-.16s.24-.11.36-.16.24-.11.35-.16c.12-.05.23-.11.35-.16.11-.05.23-.1.34-.16.11-.05.22-.11.34-.16.11-.05.22-.11.33-.16.11-.05.22-.11.33-.16-.53.09-1.04.15-1.53.18s-.96.03-1.41 0c-.45-.03-.88-.09-1.29-.18-.41-.08-.8-.2-1.17-.35m26.71-36.31c-3.65-.38-7.78.03-12.12 1.05-4.19.99-8.63 2.56-13.08 4.59-4.36 1.99-8.8 4.45-13.11 7.28a105.03 105.03 0 0 0-12.5 9.63c-4.03 3.63-7.49 7.33-10.32 10.96-2.91 3.73-5.18 7.44-6.73 10.95-1.61 3.65-2.43 7.11-2.33 10.17.11 3.2 1.24 5.97 3.58 8.01 2.47 2.15 6.05 3.27 10.44 3.38 4.59.12 10.02-.85 15.91-2.86 6.05-2.06 12.48-5.16 18.81-9.15 6.37-4.02 12.5-8.85 17.89-14.26 5.29-5.31 9.25-10.56 11.86-15.41 2.51-4.68 3.74-8.93 3.75-12.53.01-3.43-1.1-6.24-3.23-8.26-2.03-1.94-4.99-3.16-8.82-3.55"/><path class="st2" d="M50.55 47.4l18-9.47-.54.45c-.18.15-.35.3-.52.44-.17.15-.34.29-.51.44-.17.14-.33.29-.49.43-.16.14-.32.28-.47.42-.15.14-.31.27-.45.4-.15.13-.29.26-.44.39l-.41.38-8.91 8.24-5.26-2.12m30.43-15.88l-5.11-1.03-29.83 15.52-3.03 3.26c-.09.1-.17.19-.24.29-.07.09-.14.19-.19.28-.06.09-.1.18-.14.27-.04.09-.07.17-.09.26a.97.97 0 0 0-.03.23c0 .07.01.13.03.19.02.06.05.11.09.15.04.04.09.08.15.11l7.69 3.61-8.22 7.6 3.71 2.16 8.46-7.9 1.38.65c.08.04.16.06.24.08.08.01.17.02.27.01.09-.01.19-.02.3-.05a3.428 3.428 0 0 0 .66-.28c.11-.06.21-.12.32-.19.1-.07.21-.14.31-.22.1-.08.2-.16.29-.25l4.36-4.09-2.41-.97 21.03-19.69m-1.52 19.3c-.68-.23-1.15-.55-1.41-.94-.26-.39-.33-.87-.19-1.42.13-.55.47-1.18.99-1.89s1.24-1.5 2.15-2.37c.19-.18.39-.36.58-.54.2-.17.39-.34.59-.51.2-.16.4-.32.61-.48.21-.15.41-.3.62-.45.21-.14.42-.28.62-.41.21-.13.41-.26.62-.37.21-.12.41-.23.62-.34.21-.11.41-.21.62-.3.21-.09.41-.18.62-.25.2-.08.41-.15.61-.21s.4-.12.6-.17c.2-.05.4-.09.59-.12.2-.03.39-.06.58-.07.19-.02.37-.02.55-.02.18 0 .36.02.53.04.17.02.34.05.51.1.16.04.32.09.46.14a2.84 2.84 0 0 1 .74.4c.1.08.2.17.28.26.08.09.15.19.21.3.06.1.11.21.14.33.04.12.06.24.07.36a2.309 2.309 0 0 1-.08.83c-.04.15-.09.31-.16.47-.07.16-.14.33-.24.5-.09.17-.2.35-.31.54a9.634 9.634 0 0 1-.87 1.17c-.17.21-.36.42-.57.63-.2.22-.42.44-.65.66-.43.42-.87.81-1.31 1.18-.44.37-.88.7-1.33 1.01-.45.31-.89.59-1.34.84-.45.25-.9.47-1.35.66-.45.19-.89.35-1.32.46-.42.11-.83.19-1.23.23-.39.04-.77.03-1.14-.01-.33-.05-.67-.13-1.01-.24m17.2-16.58c-.42-.08-.86-.15-1.3-.19-.44-.04-.88-.06-1.34-.06-.45 0-.91.02-1.38.06-.46.04-.94.1-1.42.18a24.461 24.461 0 0 0-2.88.67 32.718 32.718 0 0 0-2.89 1.02c-.48.2-.96.41-1.44.64-.48.23-.95.46-1.43.72-.47.25-.94.51-1.41.79s-.93.57-1.4.87c-.47.3-.92.62-1.37.94-.45.32-.89.65-1.32.99-.43.34-.86.69-1.27 1.05-.4.34-.81.71-1.21 1.08-.44.41-.85.82-1.23 1.21-.38.4-.74.78-1.07 1.16-.33.38-.63.75-.9 1.11-.27.36-.52.71-.74 1.06-.22.34-.42.68-.59 1-.18.33-.33.64-.47.95-.13.31-.25.61-.34.9-.09.29-.16.57-.21.84-.05.27-.08.54-.09.79-.01.25 0 .49.02.72.03.23.08.45.14.66.07.21.15.41.26.6.11.19.23.37.36.54.13.17.28.32.45.46.16.14.34.27.54.39.19.12.4.22.63.31.37.15.76.27 1.17.36.41.09.84.15 1.29.18.45.03.92.03 1.41 0 .49-.03 1-.09 1.53-.18-.11.05-.22.11-.33.16-.11.05-.22.11-.33.16-.11.05-.22.11-.34.16-.11.05-.23.1-.34.16-.12.05-.23.11-.35.16-.12.05-.24.11-.35.16-.12.05-.24.11-.36.16s-.24.11-.36.16L51.05 67.48l4.68 2.73c.15.09.31.17.48.23a3.678 3.678 0 0 0 1.11.22c.2.01.41.01.63-.01.22-.02.43-.05.64-.08a7.114 7.114 0 0 0 1.25-.34c.2-.08.41-.16.61-.26l18.67-9.11a86.3 86.3 0 0 0 2.15-1.08c.72-.38 1.43-.76 2.13-1.17.71-.4 1.41-.82 2.11-1.25.7-.43 1.39-.87 2.08-1.33.68-.45 1.37-.93 2.04-1.44.68-.5 1.35-1.03 2.02-1.58.67-.55 1.33-1.12 1.99-1.72.66-.6 1.31-1.21 1.96-1.85.49-.48.95-.96 1.38-1.43.43-.47.83-.93 1.21-1.39.37-.46.72-.9 1.03-1.35a17.973 17.973 0 0 0 1.52-2.54c.19-.4.36-.79.5-1.18.14-.38.24-.75.32-1.11.08-.36.13-.7.15-1.04.02-.33.01-.65-.03-.96-.04-.3-.11-.6-.21-.87-.1-.28-.22-.54-.38-.79-.15-.25-.34-.49-.55-.71-.21-.22-.45-.42-.72-.61-.27-.19-.57-.36-.89-.51-.32-.15-.68-.29-1.06-.41a10.7 10.7 0 0 0-1.21-.3"/><path class="st1" d="M73.94 221.32l-1.69 12.61 11.09.34-6.73-8.96c-.11-.14-.22-.29-.32-.44-.11-.15-.22-.3-.33-.46-.11-.16-.22-.31-.33-.47-.11-.16-.22-.33-.34-.49-.11-.17-.22-.34-.34-.51-.11-.17-.22-.35-.34-.52-.11-.18-.23-.35-.34-.54-.1-.19-.22-.37-.33-.56m33.09-3.52c-.3 0-.58.02-.85.04s-.52.05-.76.1c-.24.04-.46.09-.67.15-.21.06-.4.13-.58.21-.18.08-.34.17-.49.26-.15.09-.29.19-.41.3-.12.11-.24.22-.33.34-.1.12-.18.25-.25.38s-.13.28-.18.42a2.644 2.644 0 0 0-.12.94 4.038 4.038 0 0 0 .2 1.07c.06.19.13.37.21.57.08.19.18.39.28.58.11.2.22.4.35.6.61.96 1.3 1.8 2.05 2.52.75.71 1.58 1.31 2.48 1.78.9.48 1.88.84 2.93 1.09 1.06.25 2.2.38 3.43.4.61.01 1.16-.01 1.66-.07.5-.06.95-.14 1.35-.27.4-.12.74-.28 1.03-.47.29-.19.53-.41.71-.67.18-.26.31-.54.39-.85.08-.31.09-.64.06-.99-.04-.36-.13-.74-.28-1.14-.15-.41-.35-.84-.62-1.29a10.592 10.592 0 0 0-.95-1.38 11.273 11.273 0 0 0-1.15-1.22c-.21-.19-.43-.37-.65-.55-.22-.17-.45-.34-.68-.5-.23-.16-.47-.31-.71-.45s-.49-.28-.74-.4c-.25-.13-.51-.25-.77-.36-.26-.11-.53-.22-.8-.31-.27-.1-.55-.18-.83-.26-.28-.08-.57-.15-.85-.22-.29-.06-.58-.12-.87-.16-.29-.05-.58-.09-.87-.12-.29-.03-.58-.05-.87-.07-.27 0-.56-.01-.85 0m-36.7 20.87c-.13-.01-.27-.02-.41-.04-.14-.02-.28-.05-.43-.09-.15-.04-.3-.08-.45-.13a5.59 5.59 0 0 1-.47-.18c-.16-.07-.31-.14-.46-.21-.15-.07-.28-.15-.42-.23-.13-.08-.26-.17-.38-.25-.12-.09-.23-.18-.34-.28l-3.58-3.29 2.49-21.82 9.63-.27 16.21 22.65 4.83.15 2.79 4.01c.06.09.11.17.14.25a.75.75 0 0 1 .07.44c-.01.07-.04.13-.08.19s-.09.11-.16.15c-.07.04-.15.08-.25.1-.1.03-.21.04-.33.05-.13.01-.26.01-.42 0l-2.85-.12 5.16 7.21-8.15-.49-5.31-7.07-16.83-.73m43.46-3.52c-.42-.01-.85-.04-1.28-.08-.43-.04-.87-.09-1.32-.15-.45-.06-.9-.14-1.36-.23-.46-.09-.93-.19-1.41-.31-.48-.12-.95-.24-1.43-.38-.47-.14-.95-.29-1.42-.46-.47-.17-.94-.35-1.41-.54a28.801 28.801 0 0 1-2.79-1.32c-.46-.25-.9-.51-1.35-.78-.44-.27-.88-.56-1.32-.86-.43-.3-.86-.62-1.29-.95-.43-.33-.84-.68-1.23-1.04a21.14 21.14 0 0 1-2.22-2.38c-.34-.43-.67-.88-.99-1.34-.29-.43-.55-.85-.78-1.27-.23-.42-.44-.83-.61-1.24-.17-.41-.32-.82-.44-1.22a8.9 8.9 0 0 1-.26-1.2c-.06-.4-.08-.78-.08-1.16 0-.38.04-.74.11-1.1a5.932 5.932 0 0 1 .79-2.02 6.528 6.528 0 0 1 1.56-1.73c.33-.26.68-.51 1.07-.74.39-.23.82-.45 1.27-.65.46-.2.95-.38 1.48-.54.53-.16 1.09-.3 1.69-.41.6-.11 1.24-.2 1.91-.27.67-.07 1.38-.11 2.12-.13.76-.02 1.51-.02 2.27 0 .75.02 1.5.07 2.25.14s1.49.17 2.22.29c.74.12 1.46.26 2.19.43a37.28 37.28 0 0 1 4.2 1.23c.68.24 1.34.51 1.99.79.65.28 1.28.58 1.9.9.62.32 1.22.65 1.81 1 .58.35 1.15.71 1.7 1.09.55.38 1.08.77 1.59 1.18.51.41 1 .83 1.47 1.27a21.868 21.868 0 0 1 3.55 4.19c.32.49.61.99.88 1.5.35.67.66 1.32.92 1.94.26.62.47 1.23.64 1.81.16.58.28 1.14.36 1.68.07.54.1 1.05.09 1.55-.02.49-.06.97-.13 1.45-.07.47-.17.93-.29 1.38-.12.45-.27.88-.45 1.31-.18.42-.38.84-.6 1.24l-5.38 10.03c-.06.1-.14.19-.23.28-.09.09-.21.17-.33.25-.13.08-.28.15-.44.22-.16.07-.35.13-.55.19-.2.06-.41.11-.64.15-.23.04-.47.07-.72.09-.25.02-.52.03-.8.03s-.57-.01-.88-.03l-9.52-.58 7.85-11.93c.04-.07.09-.13.13-.2.04-.07.08-.13.13-.2.04-.07.08-.13.12-.2.04-.06.08-.13.12-.19.04-.06.08-.13.11-.19.04-.06.07-.13.11-.19.03-.06.07-.13.1-.19s.06-.13.09-.19c-.44.19-.92.35-1.42.49-.5.13-1.04.24-1.61.33-.57.08-1.17.14-1.8.17-.65.01-1.31.01-2.01-.01m-44.48-41.68c-6.53.51-11.67 2.14-15.4 4.6-3.56 2.35-5.81 5.43-6.76 8.97-.9 3.39-.62 7.2.82 11.22 1.38 3.86 3.84 7.94 7.37 12.07 3.42 4 7.57 7.73 12.15 11.09 4.5 3.3 9.48 6.28 14.68 8.84 5.18 2.55 10.65 4.71 16.17 6.36 5.58 1.66 11.3 2.82 16.9 3.33 5.76.52 10.92.29 15.37-.58 4.61-.91 8.47-2.53 11.39-4.79 3.04-2.35 5.06-5.41 5.78-9.05.75-3.82.08-8.27-2.32-13.22-2.5-5.15-6.61-10.27-11.92-15.07-5.45-4.92-12.07-9.4-19.35-13.14-7.32-3.77-15.16-6.71-22.95-8.57-7.69-1.84-15.17-2.58-21.93-2.06"/><path class="st2" d="M72.25 233.93l1.69-12.61c.11.19.23.37.34.55.11.18.23.36.34.54.11.18.22.35.34.52.11.17.22.34.34.51.11.17.23.33.34.49.11.16.22.32.33.47.11.15.22.31.33.46.11.15.22.3.32.44l6.73 8.96-11.1-.33m3.28-22.05l-9.63.27-2.49 21.82 3.58 3.29c.11.1.22.19.34.28.12.09.24.17.38.25.13.08.27.16.42.23.15.07.3.14.46.21.16.07.32.13.47.18.15.05.3.1.45.13.15.04.29.07.43.09.14.02.28.03.41.04l16.87.73 5.31 7.07 8.15.49-5.16-7.21 2.85.12c.15.01.29.01.42 0s.24-.03.33-.05c.1-.03.18-.06.25-.1.07-.04.12-.09.16-.15a.64.64 0 0 0 .08-.19.75.75 0 0 0-.07-.44c-.04-.08-.08-.16-.14-.25l-2.79-4.01-4.83-.15-16.25-22.65m38.8 17.68c-1.23-.02-2.37-.16-3.43-.4-1.06-.25-2.03-.61-2.93-1.09-.9-.48-1.72-1.07-2.48-1.78-.76-.72-1.44-1.55-2.05-2.52-.13-.2-.25-.41-.35-.6a6.557 6.557 0 0 1-.49-1.15c-.06-.19-.1-.37-.14-.55a4.88 4.88 0 0 1-.06-.52c-.01-.17 0-.33.02-.49.02-.16.05-.31.1-.45.05-.15.1-.29.18-.42.07-.14.15-.26.25-.38s.21-.24.33-.34c.12-.11.26-.21.41-.3.15-.09.32-.18.49-.26.18-.08.37-.15.58-.21.21-.06.43-.11.67-.15.24-.04.49-.07.76-.1a12.629 12.629 0 0 1 1.72-.02c.29.01.58.04.87.07.29.03.58.07.87.12.29.05.58.1.87.16.29.06.57.14.85.22.28.08.56.17.83.26.27.1.54.2.8.31.26.11.52.23.77.36.25.13.5.26.74.4s.48.29.71.45c.23.16.46.32.68.5a11.127 11.127 0 0 1 2.75 3.15c.26.46.47.89.62 1.29.15.4.24.78.28 1.14.04.35.02.69-.06.99-.07.31-.2.59-.39.85-.18.26-.42.48-.71.67-.29.19-.64.34-1.03.47-.4.12-.85.21-1.35.27-.52.04-1.07.06-1.68.05m-11.51-18.93c-.74.02-1.45.07-2.12.13-.67.07-1.31.16-1.91.27-.6.11-1.16.25-1.69.41-.53.16-1.02.34-1.48.54-.46.2-.88.42-1.27.65a8.755 8.755 0 0 0-1.95 1.56c-.26.29-.49.59-.68.91-.2.32-.36.64-.49.98-.13.34-.23.68-.3 1.04-.07.36-.1.72-.11 1.1 0 .38.02.76.08 1.16.06.4.14.8.26 1.2.12.4.26.81.44 1.22.17.41.38.82.61 1.24.23.42.49.84.78 1.27.32.46.65.91.99 1.34.34.43.7.84 1.07 1.24.37.39.75.77 1.15 1.14a24.15 24.15 0 0 0 2.52 1.99c.43.3.87.59 1.32.86.44.27.89.53 1.35.78a28.801 28.801 0 0 0 2.79 1.32c.47.19.94.37 1.41.54.47.17.94.32 1.42.46.47.14.95.27 1.43.38.48.11.95.22 1.41.31.46.09.92.17 1.36.23.45.06.89.12 1.32.15.43.04.86.06 1.28.08.69.02 1.35.02 1.98-.01.63-.03 1.23-.09 1.8-.17.57-.08 1.11-.19 1.61-.33.51-.14.98-.3 1.42-.49-.03.06-.06.13-.09.19s-.06.13-.1.19c-.03.06-.07.13-.11.19-.04.06-.07.13-.11.19-.04.06-.08.13-.12.19-.04.06-.08.13-.12.2-.04.07-.08.13-.13.2-.04.07-.09.13-.13.2l-7.85 11.93 9.52.58c.31.02.6.03.88.03s.55-.01.8-.03c.25-.02.49-.05.72-.09a5.861 5.861 0 0 0 1.19-.34c.16-.07.31-.14.44-.22.13-.08.24-.16.33-.25.09-.09.17-.18.23-.28l5.38-10.03c.23-.4.43-.82.6-1.24.18-.43.33-.86.45-1.31.12-.45.22-.91.29-1.38.07-.47.11-.95.13-1.45.02-.5-.01-1.01-.09-1.55-.07-.54-.19-1.1-.36-1.68-.17-.58-.38-1.19-.64-1.81a22.446 22.446 0 0 0-1.8-3.44 21.868 21.868 0 0 0-3.55-4.19c-.47-.44-.96-.86-1.47-1.27a29.026 29.026 0 0 0-3.29-2.27c-.58-.35-1.19-.68-1.81-1a32.96 32.96 0 0 0-3.89-1.69c-.68-.24-1.36-.47-2.06-.67-.7-.2-1.41-.39-2.14-.56-.72-.17-1.45-.31-2.19-.43-.73-.12-1.47-.21-2.22-.29-.74-.07-1.49-.12-2.25-.14-.73 0-1.48 0-2.24.02"/><path d="M136.72 13.65c32.81 0 63.65 12.78 86.85 35.97 23.2 23.2 35.97 54.04 35.97 86.85 0 32.81-12.78 63.65-35.97 86.85-23.2 23.2-54.04 35.97-86.85 35.97s-63.65-12.78-86.85-35.97c-23.2-23.2-35.97-54.04-35.97-86.85s12.78-63.65 35.97-86.85c23.19-23.2 54.04-35.97 86.85-35.97m0-13.65C61.34 0 .24 61.1.24 136.47s61.1 136.47 136.47 136.47 136.47-61.1 136.47-136.47C273.19 61.1 212.09 0 136.72 0z" fill="#fff"/></svg>