<svg xmlns="http://www.w3.org/2000/svg" viewBox="0 0 136 283">
  <style>
    .cv1 { fill:#ffffff; }
  </style>
  <path class="cv1"
    d="M133.4 28.3c-1.2-2.8-2.6-5.5-4-8.2-2.7-5.5-5.3-10.9-7.7-16.5L120.2 0l-.8.8V.7c0 .1-.1.2-.1.3l-1.6 1.8c-2.1 2.4-4.4 4.6-6.8 6.8-2.3 2.2-4.7 4.3-7.1 6.4l-3.6 3.2-1.8 1.6c-.6.5-1.2 1.1-1.7 1.7-2 2.6-4 5.1-6 7.7 2.8-1.7 5.6-3.4 8.3-5.1.7-.4 1.3-.9 1.9-1.5l1.8-1.6 3.6-3.2c2.4-2.1 4.8-4.3 7.2-6.3 1.2-1.1 2.5-2.1 3.7-3.1 0 .3-.1.6-.2.9-.3 1.6-.5 3.2-.7 4.8s-.4 3.2-.6 4.9c-.4 3.2-.8 6.5-1.1 9.7s-.8 6.5-1.2 9.7c-1.8 12.9-4.2 25.7-7 38.5-5.7 25.5-13.3 50.5-22.7 74.8-9.4 24.3-20.6 48-34.3 70.2-6.8 11.1-14.4 21.7-22.7 31.7-4.3 4.9-8.4 9.9-12.9 14.6S4.8 278.5 0 283l4.2-2.7c.7-.4 1.4-.9 2.1-1.4l2-1.5c1.3-1 2.6-2 4-3s2.5-2.1 3.8-3.2c2.5-2.1 4.9-4.5 7.2-6.8 2.4-2.3 4.5-4.9 6.7-7.3 8.4-10.1 16.1-20.8 23-32.1 13.7-22.5 25.3-46.2 34.6-70.8 9.5-24.5 17.1-49.7 22.9-75.4 2.9-12.8 5.3-25.7 7.2-38.7l1.4-9.8c.4-3.3.7-6.5 1-9.8.1-1.6.2-3.3.3-4.9.1-1.3.1-2.6.1-3.9 1.9 3.4 3.7 6.8 5.5 10.2 1.4 2.7 2.8 5.4 4.3 8 1.9 2.5 3.7 4.9 5.7 7.3-.8-3-1.7-6-2.6-8.9z"/>
</svg>
