<svg xmlns="http://www.w3.org/2000/svg" viewBox="0 0 34 34"><path d="M33.8 32.7L30.1 29c1.9-1.6 3.2-4 3.2-6.7 0-4.8-3.9-8.7-8.8-8.7s-8.8 3.9-8.8 8.7c0 4.8 3.9 8.7 8.8 8.7 1.6 0 3.1-.4 4.3-1.1l3.9 3.9c.2.2.3.2.5.2s.4-.1.5-.2c.4-.3.4-.8.1-1.1zM17.2 22.3c0-4 3.2-7.2 7.2-7.2s7.2 3.2 7.2 7.2c0 2.4-1.2 4.5-2.9 5.8-.2 0-.4.1-.5.2-.1.1-.1.1-.1.2-1.1.6-2.3 1-3.7 1-4 0-7.2-3.2-7.2-7.2z"/><path d="M13.8 31.1l-6.1 1.2-6-26.4 20.6-4.3 1.3 6.1c.1.4.5.7.9.6.4-.1.7-.5.6-.9L23.6.5c-.1-.4-.5-.7-.9-.6L.6 4.6c-.2 0-.4.2-.5.3-.1.2-.1.4-.1.6l6.3 27.9c.1.4.5.6.8.6h.2l6.8-1.4c.4-.1.7-.5.6-.9-.1-.4-.5-.7-.9-.6z"/><path d="M19.3 7.7c-.1-.4-.5-.7-.9-.6l-11 2.3c-.4.2-.7.6-.6 1 .1.4.4.6.7.6h.2l11-2.3c.4-.1.7-.5.6-1zM13.6 16.8c-.1-.4-.5-.7-.9-.6l-3.6.8c-.4.1-.7.5-.6.9.1.4.4.6.8.6h.2l3.6-.8c.3 0 .6-.4.5-.9zM11.5 24.1l-.8.2c-.4.1-.7.5-.6.9.1.4.4.6.8.6h.2l.8-.2c.4-.1.7-.5.6-.9-.1-.5-.5-.7-1-.6z"/></svg>