<svg viewBox="0 0 39.3 39.3" xmlns="http://www.w3.org/2000/svg">
  <style type="text/css">
    .svg-w { fill: #fff }
    .svg-y { fill: #ffcd00 }
    .svg-g { fill: #78be20 }
  </style>
  <path class="svg-w" d="m 33.7,39.3 -28.1,0 C 2.5,39.3 0,36.8 0,33.7 L 0,5.6 C 0,2.5 2.5,0 5.6,0 l 28.1,0 c 3.1,0 5.6,2.5 5.6,5.6 l 0,28.2 c 0,3 -2.5,5.5 -5.6,5.5 z M 5.6,3.1 C 4.2,3.1 3.1,4.2 3.1,5.6 l 0,28.2 c 0,1.4 1.1,2.5 2.5,2.5 l 28.1,0 c 1.4,0 2.5,-1.1 2.5,-2.5 l 0,-28.2 c 0,-1.4 -1.1,-2.5 -2.5,-2.5 l -28.1,0 z"></path>
  <polygon class="svg-g" transform="translate(-4,-4)" points="15.3,22.6 23.4,14.5 21,12.1 15.3,17.7 13.1,15.5 10.6,17.9 12.9,20.2"></polygon>
  <polygon class="svg-y" transform="translate(-4,-4)" points="21,24.3 15.3,29.9 13.1,27.7 10.6,30.1 15.3,34.8 23.4,26.7"></polygon>
</svg>
