<svg id="Layer_1" data-name="Layer 1" xmlns="http://www.w3.org/2000/svg" viewBox="0 0 46 24"><title>BDG_BPG</title><rect width="46" height="24" rx="6" ry="6" fill="#ffcd00"/><path d="M10.13,17.16V7h3.49a6.63,6.63,0,0,1,1.7.19,3.23,3.23,0,0,1,1.15.54,2.09,2.09,0,0,1,.66.85,2.86,2.86,0,0,1,.21,1.12,2.2,2.2,0,0,1-.11.68,2,2,0,0,1-.33.61,2.43,2.43,0,0,1-.56.51,3.36,3.36,0,0,1-.81.39q2.09.47,2.09,2.25a2.87,2.87,0,0,1-.25,1.19,2.63,2.63,0,0,1-.71.94,3.42,3.42,0,0,1-1.16.62,5,5,0,0,1-1.57.22ZM12,11.42h1.5A2.52,2.52,0,0,0,15,11.07a1.27,1.27,0,0,0,.5-1.11A1.32,1.32,0,0,0,15,8.83a2.34,2.34,0,0,0-1.4-.34H12Zm0,1.3v3h1.91a2.64,2.64,0,0,0,.88-.13,1.53,1.53,0,0,0,.57-.34,1.23,1.23,0,0,0,.31-.49,1.84,1.84,0,0,0,.09-.6,1.57,1.57,0,0,0-.11-.59,1.11,1.11,0,0,0-.33-.45,1.54,1.54,0,0,0-.57-.28,3.17,3.17,0,0,0-.85-.1Z" fill="#41494e"/><path d="M21.2,13.6v3.56H19.32V7h3.3a5.77,5.77,0,0,1,1.76.24,3.39,3.39,0,0,1,1.23.66,2.62,2.62,0,0,1,.71,1,3.56,3.56,0,0,1,.23,1.3,3.6,3.6,0,0,1-.24,1.35,2.81,2.81,0,0,1-.74,1.05,3.42,3.42,0,0,1-1.23.69,5.44,5.44,0,0,1-1.72.25Zm0-1.47h1.41a2.84,2.84,0,0,0,.9-.13,1.67,1.67,0,0,0,.64-.37,1.52,1.52,0,0,0,.38-.59,2.25,2.25,0,0,0,.13-.77,2,2,0,0,0-.13-.73A1.45,1.45,0,0,0,24.15,9a1.67,1.67,0,0,0-.64-.35,3,3,0,0,0-.9-.12H21.2Z" fill="#41494e"/><path d="M32.65,15.77a4.38,4.38,0,0,0,2-.43V13.5H33.39a.4.4,0,0,1-.29-.1.33.33,0,0,1-.11-.25V12.09h3.37v4.1a5.55,5.55,0,0,1-.8.49,5.15,5.15,0,0,1-.89.34,6.85,6.85,0,0,1-1,.2,9.48,9.48,0,0,1-1.16.07,5.27,5.27,0,0,1-2-.38,4.78,4.78,0,0,1-2.67-2.71,5.55,5.55,0,0,1-.38-2.08A5.72,5.72,0,0,1,27.79,10a4.61,4.61,0,0,1,2.71-2.7,6,6,0,0,1,2.18-.38,5.7,5.7,0,0,1,2.15.37,4.94,4.94,0,0,1,1.54,1l-.55.85a.49.49,0,0,1-.43.26A.63.63,0,0,1,35,9.25L34.59,9a3.11,3.11,0,0,0-.52-.23,4.27,4.27,0,0,0-.64-.16,4.68,4.68,0,0,0-.82-.06,3.5,3.5,0,0,0-1.35.25,2.86,2.86,0,0,0-1,.72,3.25,3.25,0,0,0-.66,1.13,4.41,4.41,0,0,0-.23,1.47,4.6,4.6,0,0,0,.24,1.56,3.28,3.28,0,0,0,.69,1.15,3,3,0,0,0,1,.72A3.49,3.49,0,0,0,32.65,15.77Z" fill="#41494e"/></svg>
