<?xml version="1.0" encoding="utf-8"?>
<!-- Generator: Adobe Illustrator 21.0.2, SVG Export Plug-In . SVG Version: 6.00 Build 0)  -->
<svg version="1.1" id="Layer_1" xmlns="http://www.w3.org/2000/svg" xmlns:xlink="http://www.w3.org/1999/xlink" x="0px" y="0px"
	 viewBox="0 0 18 17" style="enable-background:new 0 0 18 17;" xml:space="preserve">
<title>ICN_Leagues</title>
<path d="M12.7,15.8c-1.2-0.1-2.2-1-2.4-2.1H7.8c-0.3,1.1-1.3,2-2.4,2.1C5.1,15.9,5,16,5,16.2v0.6C5,16.9,5.1,17,5.2,17h0h7.7
	c0.1,0,0.2-0.1,0.2-0.2l0,0v-0.6C13.1,16,12.9,15.8,12.7,15.8z M7.5,15.9c0.4-0.3,0.8-0.8,1-1.2h1c0.2,0.5,0.6,0.9,1,1.2H7.5z"/>
<path d="M7.8,12.9h2.3c0.1-1.6,1-2.4,2.2-4.3c1.6-2.4,2.4-5.3,2.4-8.2c0-0.1,0-0.2-0.1-0.3C14.5,0,14.4,0,14.4,0H3.7
	C3.6,0,3.5,0,3.4,0.1C3.3,0.2,3.3,0.3,3.3,0.4c0,2.9,0.8,5.8,2.4,8.2C6.8,10.5,7.7,11.2,7.8,12.9z M13.6,1L13.6,1
	c-0.1,2.5-0.8,4.9-2.2,7c-0.3,0.5-0.6,0.9-0.9,1.3c-0.6,0.7-1,1.6-1.3,2.5H8.8C8.5,10.9,8,10,7.4,9.3C7.2,9,6.9,8.5,6.6,8
	C5.2,5.9,4.5,3.5,4.4,1H13.6z"/>
<path d="M5.1,8.8c-0.5-0.7-1-1.5-1.3-2.4C2.6,5.4,1.7,4.1,1.2,2.6h1.6c0-0.4-0.1-0.8-0.1-1.2H1.4C0.8,1.4,0,1.5,0,2.2
	c0,1.6,2.2,5,5.2,6.8L5.1,8.8z"/>
<path d="M16.6,1.4h-1.2c0,0.4-0.1,0.8-0.1,1.2h1.5c-0.5,1.5-1.4,2.8-2.6,3.9c-0.3,0.8-0.8,1.6-1.3,2.3l-0.2,0.3
	C15.8,7.2,18,3.8,18,2.2C18,1.5,17.2,1.5,16.6,1.4z"/>
</svg>
