<?xml version="1.0" encoding="UTF-8"?>
<svg width="151px" height="64px" viewBox="0 0 151 64" version="1.1" xmlns="http://www.w3.org/2000/svg" xmlns:xlink="http://www.w3.org/1999/xlink">
  <!-- Generator: Sketch 49.2 (51160) - http://www.bohemiancoding.com/sketch -->
  <title>WELCOME TO CORAL</title>
  <desc>Created with Sketch.</desc>
  <defs></defs>
  <g id="Mobile-Designs" stroke="none" stroke-width="1" fill="none" fill-rule="evenodd">
    <g id="06_Register-step-4-splash-confirmation" transform="translate(-87.000000, -97.000000)" fill="#FFFFFF">
      <path d="M105.6,115.76 L110.56,98 L118.88,98 L110.16,124 L100.56,124 L101.24,108.68 L96.68,124 L87.08,124 L87.4,98 L95.72,98 L94.44,115.76 L94.52,115.76 L99.96,98 L106.32,98 L105.52,115.76 L105.6,115.76 Z M133.4,108.4 L132.56,113.2 L125.92,113.2 L125,118.4 L132.24,118.4 L131.32,124 L115.76,124 L120.28,98 L135.84,98 L134.84,103.6 L127.6,103.6 L126.76,108.4 L133.4,108.4 Z M133.52,124 L138.04,98 L146.36,98 L142.76,118.4 L148.16,118.4 L147.24,124 L133.52,124 Z M161.96,108.04 L162.48,105.04 C162.76,103.44 162.36,103.08 161.36,103.08 C160.32,103.08 159.8,103.44 159.52,105.04 L157.44,116.96 C157.16,118.56 157.52,118.92 158.56,118.92 C159.56,118.92 160.12,118.56 160.4,116.96 L161,113.56 L168.8,113.56 L168.52,114.96 C167.28,122.16 165.16,124.52 157.6,124.52 C150.88,124.52 148.08,122.8 149.36,115.12 L150.8,106.88 C152.16,99.2 155.64,97.48 162.36,97.48 C169.92,97.48 171.2,99.84 169.92,107.04 L169.76,108.04 L161.96,108.04 Z M180.48,105.04 L178.4,116.96 C178.12,118.56 178.48,118.92 179.52,118.92 C180.56,118.92 181.08,118.56 181.36,116.96 L183.44,105.04 C183.72,103.44 183.36,103.08 182.32,103.08 C181.28,103.08 180.76,103.44 180.48,105.04 Z M191.52,106.88 L190.08,115.12 C188.76,122.8 185.28,124.52 178.56,124.52 C171.84,124.52 169.04,122.8 170.32,115.12 L171.76,106.88 C173.12,99.2 176.6,97.48 183.32,97.48 C190.04,97.48 192.88,99.2 191.52,106.88 Z M204.8,105.72 L205.12,111.28 L205.2,111.28 L207.44,105.72 L210.84,98 L219.68,98 L215.16,124 L207.72,124 L209.12,115.92 L210.28,110.16 L207.88,115.92 L204.32,124 L201.6,124 L200.84,115.92 L200.44,110.16 L199.6,115.92 L198.2,124 L190.76,124 L195.28,98 L204.12,98 L204.8,105.72 Z M235.2,108.4 L234.36,113.2 L227.72,113.2 L226.8,118.4 L234.04,118.4 L233.12,124 L217.56,124 L222.08,98 L237.64,98 L236.64,103.6 L229.4,103.6 L228.56,108.4 L235.2,108.4 Z M89.78,160 L93.3,139.6 L88.9,139.6 L89.9,134 L107.02,134 L106.02,139.6 L101.62,139.6 L98.1,160 L89.78,160 Z M114.98,141.04 L112.9,152.96 C112.62,154.56 112.98,154.92 114.02,154.92 C115.06,154.92 115.58,154.56 115.86,152.96 L117.94,141.04 C118.22,139.44 117.86,139.08 116.82,139.08 C115.78,139.08 115.26,139.44 114.98,141.04 Z M126.02,142.88 L124.58,151.12 C123.26,158.8 119.78,160.52 113.06,160.52 C106.34,160.52 103.54,158.8 104.82,151.12 L106.26,142.88 C107.62,135.2 111.1,133.48 117.82,133.48 C124.54,133.48 127.38,135.2 126.02,142.88 Z M145.98,144.04 L146.5,141.04 C146.78,139.44 146.38,139.08 145.38,139.08 C144.34,139.08 143.82,139.44 143.54,141.04 L141.46,152.96 C141.18,154.56 141.54,154.92 142.58,154.92 C143.58,154.92 144.14,154.56 144.42,152.96 L145.02,149.56 L152.82,149.56 L152.54,150.96 C151.3,158.16 149.18,160.52 141.62,160.52 C134.9,160.52 132.1,158.8 133.38,151.12 L134.82,142.88 C136.18,135.2 139.66,133.48 146.38,133.48 C153.94,133.48 155.22,135.84 153.94,143.04 L153.78,144.04 L145.98,144.04 Z M164.5,141.04 L162.42,152.96 C162.14,154.56 162.5,154.92 163.54,154.92 C164.58,154.92 165.1,154.56 165.38,152.96 L167.46,141.04 C167.74,139.44 167.38,139.08 166.34,139.08 C165.3,139.08 164.78,139.44 164.5,141.04 Z M175.54,142.88 L174.1,151.12 C172.78,158.8 169.3,160.52 162.58,160.52 C155.86,160.52 153.06,158.8 154.34,151.12 L155.78,142.88 C157.14,135.2 160.62,133.48 167.34,133.48 C174.06,133.48 176.9,135.2 175.54,142.88 Z M174.78,160 L179.3,134 L188.7,134 C195.42,134 198.34,134.88 197.02,142.56 C196.22,146.92 194.78,148.84 192.3,150 L194.7,160 L186.38,160 L184.54,150.56 L182.9,160 L174.78,160 Z M187.82,139.6 L186.42,139.6 L185.3,146.16 L186.7,146.16 C187.74,146.16 188.3,145.8 188.58,144.2 L189.06,141.56 C189.34,139.96 188.86,139.6 187.82,139.6 Z M208.22,160 L208.42,155.2 L204.54,155.2 L203.18,160 L194.9,160 L204.26,134 L216.18,134 L216.5,160 L208.22,160 Z M209.3,139.04 L205.94,150.4 L208.7,150.4 L209.38,139.04 L209.3,139.04 Z M217.9,160 L222.42,134 L230.74,134 L227.14,154.4 L232.54,154.4 L231.62,160 L217.9,160 Z" id="WELCOME-TO-CORAL"></path>
    </g>
  </g>
</svg>
