<svg viewBox="0 0 20.01477 11.95986" xmlns="http://www.w3.org/2000/svg">
  <path d="M19.92721 1.36361a.96919.96919 0 0 0-.52-.19l-2.74-.19-.13-.09a.49377.49377
      0 0 0-.41-.36h-.05l-.93-.31-1.08-.18a.38452.38452 0 0 0-.24-.04.73661.73661 0 0 0-.14.04c-.12.06-.2-.01-.22.12a1.69645
      1.69645 0 0 0 .22 1.18l-.21.47-.23.1c-1.52.55-7.1 2.06-8.84 3.7a.347.347 0 0
      1-.19-.12l-.42.57h0l-.23.31h0l-.04.05c.09.06.19.12.29.18l-1.71 1.29-1.2.83a.65794.65794 0 0
      0-.25.4l-.65 2.43a.32748.32748 0 0 0 .08.3.29394.29394 0 0 0 .28.1l.87-.1a.42392.42392 0 0 0
      .34-.25l.86-1.86a.02151.02151 0 0 1 .02-.02l1.15-.61 2.11-.99a.63063.63063 0 0 0 .31-.28.76881.76881 0 0 0
      .22-.32l.37-.56 5.87-1.24a.03673.03673 0 0 1 .03.01c.01.01.02.02.02.03l3.35 2.21a.30339.30339 0 0 0 .12.25.36347.36347 0 0 0
      .27.08l.82-.1c.17-.02.31-.71.34-.88.01-.07-.05-.13-.15-.19-.41-.38-2.07-.87-2.3-2.24.01-.07.02-.13.03-.2l.61-.97c.08-.36.13-.58.15-.72l3.58-.41a.5142.5142
       0 0 0 .42-.38l.22-.48A.42229.42229 0 0 0 19.92721 1.36361Zm-15.44 4.76h.1l.07-.07c1.64-1.61 7.35-3.17 8.75-3.67l.32-.12a.372.372 0 0 0
       .21-.22l.3-.78-.07-.1c-.21-.32-.23-.35-.21-.6l1.08.19 1.01.3.13.1a.46333.46333 0 0 0 .32.33l.03.01 2.96.19-.22.44-4.52.56a.24443.24443
       0 0 0-.2017.28073l.0017.00927a.26051.26051 0 0 0 .29.21l.41-.07c-.09.43-.5.47-.73 1.49l-.02.1a1.94388 1.94388 0 0 0 1.04 1.98 14.00182
       14.00182 0 0 1 1.19.92.24136.24136 0 0 1 .03.16l-.38.04-3.35-2.04a.52568.52568 0 0 0-.21-.42.50143.50143 0 0 0-.39-.11c-.02
       0-.04.01-.07.01l-2.96.5-2.6.66.13-.37a.24832.24832 0 0 0-.147-.31892l-.003-.00108a.20787.20787 0 0 0-.11-.01.249.249 0 0
       0-.21.17l-.28.81c-.01.02-.02.03-.02.05l-.39.64a.75155.75155 0 0 0-.03.15.47278.47278 0 0 1-.12.07l-2.91 1.51-.39.14a.52514.52514
       0 0 0-.35.3l-.84 1.83-.57.06.59-2.19a.24.24 0 0 1 .07-.12l1.25-.87c.08-.07.15.02.16-.09l1.72-1.42v-.05l.03-.18-.19-.27c-.07-.03.03-.07.12-.12Z"
        transform="translate(0.00167 0.00111)"></path>
  <polygon points="3.779 6.065 3.789 6.075 3.789 6.065 3.779 6.065"></polygon>
</svg>
