<?xml version="1.0" encoding="UTF-8"?>
<svg width="21px" height="18px" viewBox="0 0 21 18" version="1.1" xmlns="http://www.w3.org/2000/svg" xmlns:xlink="http://www.w3.org/1999/xlink">
    <!-- Generator: Sketch 52.3 (67297) - http://www.bohemiancoding.com/sketch -->
    <title>Combined Shape</title>
    <desc>Created with Sketch.</desc>
    <g id="Signposting" stroke="none" stroke-width="1" fill-rule="evenodd">
        <g id="Signposting-/-Extra-Place-/-Small-/-Blue">
            <path d="M18.0604594,7.32966667 C20.0357719,5.679 20.0587406,2.345 20.0587406,2.20433333 C20.0587406,2.121 20.0416781,2.08166667 20.0324906,2.073 C20.0173969,2.05833333 19.9714594,2.051 19.9478344,2.053 L17.9108344,2.05433333 C17.8393031,3.48766667 17.6142094,5.83033333 16.9369594,8.02766667 C17.2447406,7.913 17.6181469,7.699 18.0604594,7.32966667 Z M19.9025531,1.33833333 C19.9931156,1.33233333 20.2700531,1.33366667 20.4905531,1.537 C20.6080219,1.64566667 20.7484594,1.85033333 20.7484594,2.20433333 C20.7484594,2.359 20.7228656,6.025 18.4929281,7.88766667 C17.7382406,8.51766667 17.1325219,8.76833333 16.6639594,8.83366667 C16.4552719,9.39633333 16.2157406,9.94166667 15.9342094,10.4456667 C15.2097094,11.7376667 14.2364906,12.3196667 13.5034594,12.5843333 C13.3459594,13.4316667 13.0952719,14.903 13.0952719,15.679 C13.0952719,16.509 13.7003344,17.1636667 13.9779281,17.1636667 L15.1782094,17.1636667 L15.1782094,17.9996667 L9.73330313,17.9996667 L9.73330313,17.1636667 L10.9335844,17.1636667 C11.2643344,17.1636667 11.8168969,16.509 11.8168969,15.679 C11.8168969,15.3576667 11.7729281,14.9163333 11.7112406,14.451 C12.2710219,13.4023333 12.5919281,12.199 12.5919281,10.919 C12.5919281,7.46033333 10.2609281,4.561 7.14111563,3.79633333 C7.06958438,3.14033333 7.02495938,2.54233333 7.00067813,2.055 L4.99649063,2.055 C4.98270938,2.055 4.96958438,2.05366667 4.95645938,2.05233333 C4.94399063,2.053 4.89477188,2.05833333 4.87902188,2.073 C4.86983438,2.08166667 4.85277188,2.121 4.85277188,2.20433333 C4.85277188,2.261 4.85736563,2.84166667 4.99255313,3.62033333 C4.76220938,3.63766667 4.53580313,3.667 4.31202188,3.707 C4.16895938,2.877 4.16305313,2.26566667 4.16305313,2.20433333 C4.16305313,1.85033333 4.30349063,1.64566667 4.42095938,1.537 C4.64145938,1.33366667 4.91839688,1.33233333 5.00895938,1.33833333 L6.97245938,1.33833333 C6.96655313,1.09366667 6.96524063,0.908333333 6.96524063,0.801 C6.96524063,-0.035 7.68383438,0.0536666667 7.68383438,0.0536666667 L17.2276781,0.0536666667 C17.2276781,0.0536666667 17.9462719,-0.035 17.9462719,0.801 C17.9462719,0.908333333 17.9449594,1.09366667 17.9383969,1.33833333 L19.9025531,1.33833333 Z M6.6404625,11.9218 L9.97815,11.9218 L9.97815,9.8978 L6.6404625,9.8978 L6.6404625,6.28713333 L4.3672125,6.28713333 L4.3672125,9.8978 L1.04724375,9.8978 L1.04724375,11.9218 L4.3672125,11.9218 L4.3672125,15.5511333 L6.6404625,15.5511333 L6.6404625,11.9218 Z M5.513025,5.20046667 C8.55736875,5.20046667 11.025525,7.76046667 11.025525,10.9191333 C11.025525,14.0771333 8.55736875,16.6371333 5.513025,16.6371333 C2.468025,16.6371333 -0.00013125,14.0771333 -0.00013125,10.9191333 C-0.00013125,7.76046667 2.468025,5.20046667 5.513025,5.20046667 Z" id="Combined-Shape"></path>
        </g>
    </g>
</svg>