<?xml version="1.0" encoding="UTF-8"?>
<svg width="19px" height="12px" viewBox="0 0 19 12" version="1.1" xmlns="http://www.w3.org/2000/svg" xmlns:xlink="http://www.w3.org/1999/xlink">
    <!-- Generator: Sketch 48.2 (47327) - http://www.bohemiancoding.com/sketch -->
    <title>eye</title>
    <desc>Created with Sketch.</desc>
    <defs></defs>
    <g id="CRE-102278-|-Log-In" stroke="none" stroke-width="1" fill="none" fill-rule="evenodd" transform="translate(-270.000000, -185.000000)">
        <g id="Group" fill="#5A5A5A">
            <g id="Group-6">
                <g id="Group-4">
                    <g transform="translate(14.000000, 0.000000)" id="password">
                        <g transform="translate(0.000000, 154.000000)">
                            <path d="M257.572567,36.8134165 C258.517952,37.8882455 261.656929,41.2197815 265.287802,41.2197815 C268.918675,41.2197815 272.09458,37.9244107 273.000083,36.8510282 C272.056174,35.7761992 268.918675,32.4808283 265.287802,32.4808283 C261.656929,32.4432166 258.517952,35.740034 257.572567,36.8134165 M265.287802,42.3322223 C260.408724,42.3322223 256.551845,37.3689136 256.401174,37.1461361 C256.249026,36.962417 256.249026,36.6644159 256.401174,36.4806968 C256.551845,36.2579194 260.408724,31.3322223 265.287802,31.3322223 C270.163925,31.3322223 274.022281,36.2955311 274.172952,36.4806968 C274.3251,36.6644159 274.3251,36.962417 274.172952,37.1461361 C274.022281,37.3689136 270.203809,42.3322223 265.287802,42.3322223 Z M265.287359,40.4432429 C267.328801,40.4432429 268.993567,38.8129167 268.993567,36.8137058 C268.993567,34.8130482 267.328801,33.1841687 265.287359,33.1841687 C263.245916,33.1841687 261.581151,34.8130482 261.581151,36.8137058 C261.581151,38.8129167 263.245916,40.4432429 265.287359,40.4432429 Z M265.287359,34.2951629 C266.724641,34.2951629 267.859104,35.4423223 267.859104,36.8137058 C267.859104,38.1836427 266.686234,39.330802 265.287359,39.330802 C263.850077,39.330802 262.715614,38.2198078 262.715614,36.8137058 C262.715614,35.4061571 263.888483,34.2951629 265.287359,34.2951629 Z" id="eye"></path>
                        </g>
                    </g>
                </g>
            </g>
        </g>
    </g>
</svg>