<?xml version="1.0" encoding="UTF-8"?>
<svg width="19px" height="16px" viewBox="0 0 19 16" version="1.1" xmlns="http://www.w3.org/2000/svg" xmlns:xlink="http://www.w3.org/1999/xlink">
    <!-- Generator: Sketch 48.2 (47327) - http://www.bohemiancoding.com/sketch -->
    <title>Combined Shape</title>
    <desc>Created with Sketch.</desc>
    <defs></defs>
    <g id="CRE-102278-|-Log-In---Hide" stroke="none" stroke-width="1" fill="none" fill-rule="evenodd" transform="translate(-270.000000, -183.000000)">
        <g id="Group" fill="#777777">
            <g id="Group-6">
                <g id="Group-4">
                    <g transform="translate(14.000000, 0.000000)" id="password">
                        <g transform="translate(0.000000, 154.000000)">
                            <path d="M267.405917,32.7329922 L268.112983,31.7277104 C268.112983,31.7277104 270.67353,32.6859623 270.67353,32.9437748 L269.914669,34.0140251 C271.412282,35.0392502 272.542717,36.2729677 273.047967,36.8604484 C272.137662,37.9623184 268.944912,41.3451484 265.294782,41.3451484 C265.106887,41.3451484 264.920302,41.3360862 264.735261,41.3187442 L263.886665,42.5155522 C263.886665,42.5155522 261.272651,41.4530522 261.272651,41.4530522 L261.966712,40.4662613 C259.83437,39.3755594 258.181694,37.5683995 257.538627,36.8218384 C258.489027,35.7199684 261.644652,32.3356534 265.294782,32.3742634 C266.02274,32.3742634 266.730971,32.5088112 267.405917,32.7329922 Z M269.949776,32.4856919 C270.358673,32.6768346 270.67353,32.8533694 270.67353,32.9437748 L270.593896,33.0560853 C272.738678,34.5326341 274.137299,36.3676508 274.227057,36.4802884 C274.380012,36.6688834 274.380012,36.9747934 274.227057,37.1633884 C274.075587,37.3920784 270.236862,42.4871134 265.294782,42.4871134 C264.85089,42.4871134 264.415415,42.4453852 263.990356,42.3693118 L263.886665,42.5155522 L263.113013,42.2010915 L261.845059,44.0029211 C261.646412,44.2852099 261.256536,44.3530144 260.974247,44.1543667 C260.691958,43.9557191 260.624154,43.5658431 260.822801,43.2835543 L261.923072,41.7200112 C261.903441,41.7112408 261.883845,41.7024133 261.864286,41.6935299 L261.272651,41.4530522 L261.298467,41.4163484 C258.42964,39.9087476 256.467895,37.3247464 256.361022,37.1633884 C256.208067,36.9747934 256.208067,36.6688834 256.361022,36.4802884 C256.512492,36.2515984 260.389827,31.1951734 265.294782,31.1951734 C266.281735,31.1951734 267.227213,31.4017099 268.109145,31.7331672 L268.112983,31.7277104 C268.112983,31.7277104 268.396052,31.8336454 268.773955,31.984547 L270.322801,29.7835543 C270.521449,29.5012656 270.911325,29.4334611 271.193614,29.6321087 C271.475902,29.8307564 271.543707,30.2206323 271.345059,30.5029211 L269.949776,32.4856919 Z M265.281771,40.5479795 C265.285958,40.5479934 265.290146,40.5480004 265.294336,40.5480004 C267.346606,40.5480004 269.020201,38.8744054 269.020201,36.8221354 C269.020201,36.3859125 268.944697,35.9669075 268.806098,35.5774862 L267.878932,36.8851031 C267.852436,37.9422264 267.161071,38.8607143 266.21531,39.231374 L265.281771,40.5479796 Z M262.671453,39.4642849 L263.334834,38.5211128 C262.943585,38.0692151 262.708951,37.4768375 262.708951,36.8221354 C262.708951,35.3772304 263.888041,34.2367504 265.294336,34.2367504 C265.624287,34.2367504 265.938363,34.2981576 266.226609,34.4096901 L266.89549,33.4586993 C266.409993,33.2264212 265.866902,33.0962704 265.294336,33.0962704 C263.242066,33.0962704 261.568471,34.7683804 261.568471,36.8221354 C261.568471,37.8531524 261.990861,38.7885976 262.671453,39.4642849 Z M269.949776,32.4856919 C269.580313,32.312983 269.134075,32.1283478 268.773955,31.984547 L261.923072,41.7200112 C262.149444,41.8211421 262.38062,41.9146935 262.61619,41.9991512 L263.113013,42.2010915 L269.949776,32.4856919 Z" id="Combined-Shape"></path>
                        </g>
                    </g>
                </g>
            </g>
        </g>
    </g>
</svg>