<?xml version="1.0" encoding="utf-8"?>
<!-- Generator: Adobe Illustrator 19.1.0, SVG Export Plug-In . SVG Version: 6.00 Build 0)  -->
<svg version="1.1" id="Layer_1" xmlns="http://www.w3.org/2000/svg" xmlns:xlink="http://www.w3.org/1999/xlink" x="0px" y="0px"
	 viewBox="0 0 100 100" style="enable-background:new 0 0 100 100;" xml:space="preserve">
<style type="text/css">
	.st0{fill:#EF3340;}
	.st1{enable-background:new    ;}
	.st2{fill:#FFCFD4;}
</style>
<circle class="st0" cx="50" cy="49.9" r="50"/>
<g class="st1">
	<path class="st2" d="M30.4,35.1l-1.6,13.2h14.8l-0.8,6.2H28l-2.2,17.8H18l5.3-43.4h25.3l-0.8,6.2H30.4z"/>
	<path class="st2" d="M69.1,28.9c2.4,0,4.5,0.2,6.2,0.7s3.1,1.1,4.2,2c1.1,0.9,1.9,1.9,2.4,3.1c0.5,1.2,0.8,2.6,0.8,4.1
		c0,1.2-0.2,2.4-0.5,3.6s-0.8,2.2-1.5,3.1s-1.6,1.8-2.7,2.6c-1.1,0.8-2.4,1.4-3.9,1.9c2.5,0.6,4.3,1.6,5.5,3
		c1.2,1.4,1.8,3.2,1.8,5.3c0,2-0.4,3.9-1.1,5.6c-0.7,1.7-1.8,3.2-3.2,4.4c-1.4,1.2-3.1,2.2-5.1,2.9c-2,0.7-4.3,1.1-6.8,1.1H49.8
		l5.3-43.4H69.1z M65.7,66.2c1.4,0,2.6-0.2,3.6-0.6s1.8-0.9,2.5-1.6c0.6-0.7,1.1-1.5,1.4-2.5c0.3-1,0.5-2,0.5-3.2
		c0-1.6-0.5-2.8-1.5-3.8c-1-0.9-2.6-1.4-4.9-1.4h-7.3l-1.6,13.1H65.7z M62.2,34.9l-1.6,12.9h5.8c2.7,0,4.7-0.6,6.2-1.9
		c1.4-1.3,2.2-3.2,2.2-5.8c0-1.8-0.5-3.1-1.5-4s-2.6-1.2-4.8-1.2H62.2z"/>
</g>
</svg>
