<svg xmlns="http://www.w3.org/2000/svg" viewBox="0 0 53 34"><path d="M52.7 12c-.1-.2-1.6-2-2.2-2.7-.5-.7-1-1.5-1.3-1.8-.3-.3-.7-.6-.7-.8 0-.1-.1-.2-.3-.3l.1-.1-.2-.2s-.1 0-.1.1c-.2-.1-.4-.2-.5-.3-.3 0-.5-.2-.5-.2-.1-.2-.5-.5-.8-.8-.3-.3-.7-.6-.9-.6-.1.1.2.3.4.6.2.2.3.7.3.7-.2-.1-.5-.5-.8-.7-.2-.1-.1.1 0 .2s.3.5.3.5h-.2c-.3-.1-.5-.1-.7-.1-.6 0-1.5.2-1.8.3-.3.1-1.4.4-1.3.4.1 0 .8 0 1.4-.1.6-.1.9-.1.9-.1l-.4.2s-.6.1-1.1.2c-1.4.1-2.7.9-2.6.8 1-.3 1.9-.4 1.9-.4l-.4.2c-1.2.1-1.9.4-2.3.6h-.2v-.1c-.1-.4-.6-.2-.6-.2-.1-.2-.4-.2-1.1-.6-.8-.5-1.2-.3-1.1-.3-.2-.4-.1-1.2-.1-1.3 0-.2-.3-.9-.3-.9s.4 0 .3-.2v-.1c.1 0 .1 0 .1-.1s.1-.1.1-.1v.1l.2.2s.1 0 .1-.1c.1.1.2.1.2.1.1.1.3.2.4 0 .1-.2.1-.2.2-.2s.1-.2.1-.2.2.1.2 0 0-.2.1-.1c.1 0 .3.1.3 0v-.4c.1-.1.3-.3.3-.4 0 0 0-.1-.1-.1l.1-.1c.1 0 .3.1.4 0 0 0 .1-.2.1-.4h.9c.1-.1-.8-.4-.8-.4s.1-1.4-1.5-1.8c0 .1-.2.1-.4.1-.9 0-1.4.6-1.7 1.6-.1.2 0 .3.1.4-.1.1-.1.3-.1.3 0-.1-.1-.1-.1-.1-.2-.1-.1 0-.5 0-.2 0-.3-.1-.4-.1-.4-.2-1.3-.4-2.8-.2 0 0-1.3-.1-1.9 0 0 0-.7-.2-1.2.2s-2 1.1-2.2 1.3c0 0-.4.1-.3.4 0 0-.3.2-.4.3h-.2V4c0-.1-.1-.1-.1-.1-.1 0-.1.1-.1.1v.2c-.1 0-.3 0-.3.1-.1 0-.1-.1-.2 0-.3-.6-.8-1.4-1.1-2.3-.2-.4-.3-.8-.5-1.2 0 0 0-.3-.1-.3s.1.3.1.3c-.1.2 0 .5.2 1 .4.9.8 1.8 1.1 2.4-.1.1-.1.2 0 .3l.1.1c-.2.1-.3.3-.3.4 0 .1.2.2.2.2s0 .2.1.2c.1.1.2 0 .3 0v.1l-.1.1c0 .1 0 .1.1.1h.1c.1.1.2.1.3.1.1 0 .1-.1.1-.2h.1s0 .1.1.2c0 .1.1.1.1.1.1 0 .2-.2.2-.3 0-.1 0-.1-.1-.2.1-.1.4-.4.4-.5.2 0 .4-.2.4-.2s.3 0 .8-.2 1.5-.5 1.5-.5h.7c-.9.8-1.5 1.7-1.7 2.2l-.2.2c-.4.4-1.2 1.3-1.1 2.1s.5 1.5 1.3 1.7c.7.2 1.9.4 2.5.4.5 0 2.5.2 2.5.2s-.3-.1-.5.2c-1.1 0-2.1.1-2.7.3-.7.2-2.1.3-2.9 0-.8-.2-1.1-.3-1.2-.1 0 .1.2.5.9.8-.1 0-.2 0-.4-.1-1.9-.3-3.4-1.3-4.8-1.5-1-.2-2.6 0-4.1.3 0 0-.1 0-.2.1-.6.1-1.1.3-1.6.5h-.1c-1.5.5-2.2.5-3.5.6-1.3 0-2.1.7-2.1.7s-2.7.5-3.9.3c-1.2-.2-3 0-4.1-.6-1.1-.6-1.1-.6-1.3-.6-.2 0 .9.9 2 1.2 1.1.3 2 .5 2 .5s-2-.1-2.5-.4c-.5-.2-1.4-.8-1.5-.7-.1 0 1.1.9 1.4 1 .2.1.9.3.9.3s-1.3.2-1.9.8c-.1.1 2.4-.8 3.4-.4 0 0-2.5.7-3 1.1 0 .1.6 0 .6 0s-.7.5-.4.4c1.1-.4 1.8-.6 1.8-.6s-1.1.7-1.2 1.4c0 .1.6-.9 1.5-1 0 0-.7.5-1.1 1.4-.2.4-.3 1.1-.2 1.1.1 0 .2-1 1.6-1.4 0 0-.2.4-.1.5.1 0 .5-.4.9-.5.4-.1 2.7-1.2 2.7-1.2s-.9.7-1.3.9c-.1.1.4.1.9 0 .6-.1 1.5-.5 3.3-1.9 0 0-.7 1-1.2 1.3-.2.1.8-.3.9-.4 0 0-.8.7-.9 1.4 0 .2.3-.6 1-1 0 0-.5.7-.4 1.3 0 0 .3-.7.4-.8 0 0-.1 1.8 1.3 2.2.2.1-.5-.4-.6-1 0 0 .7.6 1.5.8.3.1-1.3-.8-1.4-1.6 0 0 .6-.9 1.4-1.6 0 0 .1 1.5.4 2 .3.5 1.1 1.4 1.4 1.5.2.1-.8-1-1-1.7-.2-.7.1-1.4.1-1.4s-.3 2.2 1.7 3.2c.4.2-1.4-1-1.4-2.7 0 0 .2 1.1.9 1.7.8 2.1 3.9 4.4 4.3 4.8.4.4.4 3.6.3 3.9-.1.3-.3.9-.3 1.4 0 .5.7.9 1.3.9 1.7.1 5.3.9 5.6 1 .3.1.3.4.4.5.2.1.3-.2.6-.1s.2.8 0 .9c-.2.2-.1.3-.1.3s0 .3.1.5 2.1 1.1 2.2 1c.1-.1-.2-1.1-.2-1.1 1-.2.4 1 .2 1.2-.2.2 0 .4 0 .4s.4.6.6.7c.2.1 2.4.1 2.4 0s-.9-1.2-.9-1.3c0-.2-.1-.4-.4-.6-.2-.2-.6-1.2-.8-1.7-.2-.6-1.1-1-1.3-1.1.1 0-1.9-1.7-2.1-2-.2-.3-.8-1.1-1-1.3-.2-.2-.6-1.3-.7-2-.1-.6-.9-3.1-.9-3.1 2.4 1.8 3.3 1.7 4.8 2.1 1.5.3 2.8 0 3.9.1h.4v.1c0 .1 0 .2.1.2h.4s.1-.1.1-.2v-.2c.7 0 1.3-.1 1.3-.1 1.2 2.2 1.9 2.2 1.9 2.2.1.9 1 1.7 1.4 2.1.4.4.5.8.5.8-.2 0-1.5.2-2.1.4-.6.2-1.7.2-1.9.2-.2 0-.6-.1-.6 0s.3.3-.2.4c-.5.1-.8-.6-.7-.8.1-.2-.1-.4-.1-.4s-.4-.3-.5-.3c-.1-.1-2.4.3-2.3.5.2.2 1.1 1.1 1.2 1.1 0 .4.5.6.9.7.3 0 .7.2.9.3.3.2.8.4 1.2.2.7-.2 2.4-.4 2.8-.4.4 0 1.6.3 2.5-.1.9-.3.9-1.2.8-1.5 0-.3-.6-1.5-.9-2-.2-.5-.3-1.1-.3-1.1.2 0 2-.2 2.1-.2.1 0 .3.2.3.2s0 .1-.1 1.1-.2 2.1-.3 2.6c-.2.5-.2.7-.1.7s.3.2 0 .6c-.3.4-.9.1-1.1 0-.2-.1-.2.1-.2.1s-.4.2-.5.4c-.1.1-.3 2.3-.1 2.3.1 0 1.4-.9 1.4-.9.3 0 .8-.5 1-.8.2-.3.8-.8 1-1.1.2-.3.1-.8.1-1.1 0-1.2.5-2.6.8-3.2.3-.6.2-1.3.2-1.7-.1-.3-.7-.7-.9-.8-.3-.1-1.2-.2-1.7-.2-.6-.1-1.6-.4-1.6-.4s.6-.3.9-.9c.3-.5.6-2.6.7-3.3H40.9V18s-.1-.1-.2-.1h-.1c.1-.3.4-1.1.4-1.1s.9-.9 1.5-1.7c.6-.8 1.7-1.8 2.1-2.3.2-.2.3-.4.5-.5.6.2 1.2.3 1.8.4.8.1 1.6.2 2.1.2.3.1.9.4 1.2.5v.1l.2.1s.1 0 .1-.1c.1.1.2.4.3.7.2.3.7.1.9.1.2.1.3-.1.3-.1.2.1.5-.2.7-.4.2-.1.2-.5.3-.8.1-.3-.1-.8-.3-1zM24.9 4v-.1.1zm0 1.2zm.5.4c0 .1-.1.1 0 0-.1.1-.1.1-.1 0 0 0 0-.1-.1-.2.1 0 .1-.1.1-.1s0 .1.1.1v.2zM6.1 15.9s.9-.4 1.4-.8c.6-.4 1.2-.5 1.2-.5s-1.3 1.3-2.6 1.3zm4.2.3c0-1.4 1-2.2 1-2.2 0 .5.2.7.2.7-.8.7-1.2 1.5-1.2 1.5zm3.2-1.1s.1.5.3 1.1c0 .2 0 .5.1.7-.3-.4-.5-1-.4-1.8zm10 12.4s-1.3-.1-1.5-.2c-.2-.1-.9-.7-1.3-.6 0 0 .1-.7.3-1.3.2-.6.5-1.1.5-1.1s.9 1.2 1 1.7c.2.5.3.7.6 1 .3.3.4.5.4.5zM37.6 8.9c-.1.1-.1.2-.1.3-.1.1-.2.1-.2.2-.2 0-.6 0-.9.1-.3.1-.6.3-.7.5.5-.2.9-.4 1.1-.2-.2 0-.5.1-.7.3l-.4.4h-.1c-.2 0-.4.1-.6.1.1-.1.2-.3.2-.4 0-.4-.2-.8-.4-.9-.2-.3-1.4-1-2.3-1.3-.7-.2-1.2-.4-1.4-.4 1.6-.4 2.3-1.1 2.3-1.1.7.7 1 1.2 1 1.2.3.3.3.6.8.6s.6.3 1.2.3c.6-.1.9-.2.9-.2s.4.3.8.2c.1 0 .1 0 .1-.1v.1c-.1 0-.2.1-.3.1 0 .1-.2.1-.3.2zm2.4-1c0-.1-.1-.1-.2-.1h-.1c.6-.1 1.1-.1 1.1-.1-.3 0-.6.1-.8.2zm6.8 4.6c-.5-.1-1.1-.2-1.6-.3.3-.2.5-.3.6-.3.3 0 .2.2.8.6.1.1.2.1.3.1 0-.1-.1-.1-.1-.1z"/></svg>
