<svg data-name="Layer 1" xmlns="http://www.w3.org/2000/svg" viewBox="0 0 38.5 33"><path d="M32.23 18.39h-7.46a.75.75 0 1 0 0 1.5h7.46a.75.75 0 0 0 0-1.5zM32.23 22.25h-7.46a.75.75 0 0 0 0 1.5h7.46a.75.75 0 0 0 0-1.5zM32.23 26.11h-7.46a.75.75 0 0 0 0 1.5h7.46a.75.75 0 0 0 0-1.5zM28.5 11a12 12 0 0 1 2.36.24c2-2.69 3.14-5.36 3.14-7-.09-1.33-1.49-1.41-2.64-1.46h-2.29c-.09.73-.13 1.5-.26 2.27h2.93a19 19 0 0 1-3.39 6zM9.65 17.16a22 22 0 0 1-2.47-4.62A19.58 19.58 0 0 1 2.21 5h2.93c-.08-.81-.14-1.58-.21-2.3H2.64C1.4 2.74 0 2.87 0 4.19c0 3 4.08 9.67 9.9 13.35z"/><path d="M28.5 13a10 10 0 1 0 10 10 10 10 0 0 0-10-10zm0 18a8 8 0 1 1 8-8 8 8 0 0 1-8 8z"/><path d="M14.79 25h1.9a12 12 0 0 1-.19-2 16.47 16.47 0 0 0-2.5-4.89c-.47-.73-1-1.54-1.66-2.57A27.27 27.27 0 0 1 8.25 2h17.46a26.92 26.92 0 0 1-2.29 10.13 11.88 11.88 0 0 1 2.51-.86A29.13 29.13 0 0 0 27.75.77a.86.86 0 0 0-.17-.56.88.88 0 0 0-.51-.21H6.89a.78.78 0 0 0-.51.21.82.82 0 0 0-.21.56 29.54 29.54 0 0 0 4.46 15.92c2.21 3.64 3.86 5.01 4.16 8.31zM19.49 30.9h-5.42a7.64 7.64 0 0 0 1.83-2.4h2a11.91 11.91 0 0 1-.8-1.93h-2.48A5.5 5.5 0 0 1 10 30.73a.75.75 0 0 0-.64.77v1.11a.38.38 0 0 0 .38.39h12.14a12.08 12.08 0 0 1-2.39-2.1z"/></svg>