<svg width="30px" height="30px" viewBox="0 0 30 30" version="1.1" xmlns="http://www.w3.org/2000/svg">
    <g id="General-Nav" stroke="none" stroke-width="1" fill="#fff" fill-rule="evenodd">
        <g id="Nav-/-A-Z-Menu-/-Football" transform="translate(-20.000000, -15.000000)" fill-rule="nonzero">
            <g id="Streaming" transform="translate(0.000000, 7.000000)">
                <g id="Icon-/-White-/-InPlay" transform="translate(20.000000, 8.000000)">
                    <path d="M15,28.4 C22.4006156,28.4 28.4,22.4006156 28.4,15 C28.4,7.59938435 22.4006156,1.6 15,1.6 C7.59938435,1.6 1.6,7.59938435 1.6,15 C1.6,22.4006156 7.59938435,28.4 15,28.4 Z M15,30 C6.71572875,30 0,23.2842712 0,15 C0,6.71572875 6.71572875,0 15,0 C23.2842712,0 30,6.71572875 30,15 C30,23.2842712 23.2842712,30 15,30 Z M20.1740024,15.2265878 L20.2399735,15.184688 C20.3640995,15.1141148 20.456737,15.001053 20.5024417,14.8683563 C20.4546129,14.736621 20.3609064,14.6249253 20.2365744,14.5552509 L20.1784559,14.5193378 L12.1460485,9.06864648 L12.1221087,9.05064374 L12.1221087,20.9108565 L20.1740024,15.2265878 Z M13.055035,22.210781 C12.7417843,22.4715289 12.3563989,22.6311962 11.9498005,22.6680092 L11.8776643,22.6712681 C10.9855791,22.6712681 10.5221087,21.9171064 10.5221087,20.9679666 L10.5221087,9.04747446 C10.5221087,8.08107684 11.0018542,7.32873187 11.9085285,7.32873187 L11.9690508,7.3310245 C12.3722345,7.36161419 12.7565919,7.51255551 13.0726017,7.76378816 L21.0517802,13.178359 C21.622904,13.5115569 22.0135173,14.0857166 22.1130364,14.740891 L22.1301544,14.8535857 L22.1151157,14.9665767 C22.0270041,15.6285915 21.640844,16.2129727 21.0684288,16.5536914 L13.055035,22.210781 Z" id="WatchLive_ribbon_icon"></path>
                </g>
            </g>
        </g>
    </g>
</svg>