<svg id="Layer_1241" xmlns="http://www.w3.org/2000/svg"
     viewBox="0 0 264.424 114.693"
	 xml:space="preserve">
<g id="Guides" display="none">
	<path display="inline" fill="#862165" d="M9.302,18.674c5.141,0,9.308-4.165,9.308-9.302c0-5.139-4.167-9.308-9.308-9.308
		c-5.135,0-9.3,4.169-9.3,9.308C0.002,14.509,4.167,18.674,9.302,18.674z"/>
	<path display="inline" fill="#862165" d="M254.994,18.674c5.141,0,9.309-4.164,9.309-9.301c0-5.139-4.168-9.309-9.309-9.309
		c-5.135,0-9.299,4.17-9.299,9.309C245.695,14.51,249.859,18.674,254.994,18.674z"/>
	<path display="inline" fill="#862165" d="M9.301,114.693c5.141,0,9.309-4.165,9.309-9.302c0-5.139-4.168-9.308-9.309-9.308
		c-5.135,0-9.299,4.169-9.299,9.308C0.002,110.528,4.166,114.693,9.301,114.693z"/>
	<path display="inline" fill="#862165" d="M254.994,114.693c5.141,0,9.309-4.166,9.309-9.303c0-5.139-4.168-9.307-9.309-9.307
		c-5.135,0-9.299,4.168-9.299,9.307C245.695,110.527,249.859,114.693,254.994,114.693z"/>
</g>
<g id="primary_logo">
	<path fill="#862165" d="M199.101,26.15l18.865-3.378v72.441h-18.865V26.15z M226.654,26.15v69.063h18.884V22.772L226.654,26.15z
		 M172.221,95.213h18.882V42.229h-18.882V95.213z M47.466,49.722c-2.386-0.157-7.911-0.513-7.911-5.486
		c0-6.001,7.953-6.001,10.936-6.001c5.246,0,12.038,1.549,16.889,3c0,0,2.706,0.954,5.009,1.932l0.215,0.058v-0.218V26.789
		l-0.294-0.086c-5.725-2.003-12.382-3.931-24.724-3.931c-21.28,0-28.82,12.397-28.82,23.017c0,6.122,2.624,20.53,26.995,22.192
		c2.066,0.127,7.549,0.442,7.549,5.582c0,4.243-4.489,6.745-12.038,6.745c-8.274,0-16.301-2.11-21.175-4.111v16.927
		c7.298,1.913,15.525,2.869,25.167,2.869c20.807,0,30.126-11.729,30.126-23.354C75.389,59.458,64.961,50.894,47.466,49.722z
		 M161.582,41.453c-17.448,0.56-26.305,8.388-26.305,23.949v29.811h19.035v-24.31c0-9.318,1.22-13.313,12.276-13.693V41.727
		C164.729,41.331,161.582,41.453,161.582,41.453z M110.37,42.169c-0.419,1.056-3.442,9.594-10.753,18.444V22.772l-19.48,3.851v68.59
		h19.48V74.011c5.642,8.462,8.428,21.202,8.428,21.202h23.333c-2.308-9.595-12.404-27.287-12.404-27.287
		c9.062-11.488,13.041-23.729,13.674-25.757H110.37z M181.657,37.146c5.141,0,9.308-4.165,9.308-9.302
		c0-5.139-4.167-9.307-9.308-9.307c-5.135,0-9.3,4.168-9.3,9.307C172.357,32.981,176.522,37.146,181.657,37.146z"/>
</g>
</svg>
