<?xml version="1.0" encoding="UTF-8"?>
<svg width="26px" height="23px" viewBox="0 0 26 23" version="1.1" xmlns="http://www.w3.org/2000/svg" xmlns:xlink="http://www.w3.org/1999/xlink">
    <!-- Generator: Sketch 52.3 (67297) - http://www.bohemiancoding.com/sketch -->
    <title>money_back</title>
    <desc>Created with Sketch.</desc>
    <g id="Symbols" stroke="none" stroke-width="1" fill-rule="evenodd">
        <g id="money_back-copy-2" transform="translate(-5.000000, -7.000000)" fill-rule="nonzero">
            <g id="money_back" transform="translate(5.000000, 7.000000)">
                <path d="M18.3435167,2.42573988 L19.5407824,1.28114481 L19.5407824,5.0498223 L15.5986823,5.0498223 L17.5469983,3.18721742 C16.4422666,1.8904784 15.0655944,1.27915281 13.3801333,1.32185236 C11.3672992,1.3728456 9.68527582,2.3086957 8.29879057,4.17027409 L7.97331748,4.60727381 L7.05460978,3.977689 L7.38008287,3.54068928 C8.96136332,1.41756715 10.9602729,0.305406816 13.3415389,0.245079709 C15.3516741,0.194154848 17.0308123,0.931103502 18.3435167,2.42573988 Z M11.6278423,18.7500578 C11.3344474,18.253896 11.0943452,17.7220851 10.9154822,17.1626238 L10.4843959,16.8394224 C10.5734336,16.7191063 10.6545662,16.5932213 10.7272376,16.4625815 C10.6082081,15.9200796 10.5454545,15.356305 10.5454545,14.7777778 C10.5454545,14.0303353 10.6502027,13.3075179 10.8457296,12.6233866 L10.5595041,12.8216839 C10.4593052,12.6751585 10.3479401,12.5364298 10.2265217,12.406839 L11.3297203,11.359655 C12.5867432,8.77772504 15.2234784,7 18.2727273,7 C22.5403822,7 26,10.4822297 26,14.7777778 C26,19.0733258 22.5403822,22.5555556 18.2727273,22.5555556 C16.2345701,22.5555556 14.3807141,21.7613111 12.9999943,20.4635452 C12.7642535,20.685096 12.5149157,20.8917409 12.2534641,21.0821502 L9.73696513,17.5814188 C9.88024115,17.4770741 10.0154978,17.3616871 10.1414143,17.236413 L11.6278423,18.7500578 Z M7.72727302,22.5555556 L7.72727302,18.2345672 C7.90652002,18.2345672 8.08326709,18.2209292 8.25679004,18.1940401 L8.9100066,22.4647137 C8.52052426,22.5250678 8.12540551,22.5555556 7.72727302,22.5555556 Z M10.0764694,22.1890001 L8.77234505,18.0722179 C8.93985961,18.0184563 9.10277344,17.9517195 9.25987828,17.8726505 L11.1797966,21.7374288 C10.8246542,21.9161678 10.4558922,22.0672293 10.0764694,22.1890001 Z M12.4816868,8.64615009 L9.8387479,12.0511766 C9.69949854,11.9416755 9.55221797,11.8431537 9.39825611,11.7565818 L11.4919233,7.98431334 C11.8383547,8.17910974 12.169237,8.40044987 12.4816868,8.64615009 Z M10.3295056,7.4526667 L8.88400941,11.521337 C8.7191369,11.4619938 8.54962198,11.4154702 8.37649783,11.3822609 L9.18017127,7.13766683 C9.57189462,7.21280863 9.95597174,7.31821909 10.3295056,7.4526667 Z M8.07886621,7.00794576 L7.88591298,11.3245673 C7.8342042,11.3222256 7.78226741,11.321029 7.73181757,11.3209877 C7.60087832,11.3209865 7.47536277,11.3277684 7.35102028,11.3413083 L6.88928295,7.04538666 C7.16734749,7.01510757 7.44701032,6.99999681 7.73355387,7 C7.84890601,7.00009291 7.96403086,7.00274529 8.07886621,7.00794576 Z M5.71560618,7.26673599 L6.83114566,11.4392882 C6.66127658,11.4852986 6.49560581,11.5444368 6.33528114,11.6161224 L4.59247751,7.6672313 C4.95536903,7.5049723 5.33072754,7.3709835 5.71560618,7.26673599 Z M3.50007375,8.26622624 L5.85074351,11.8818623 C5.70295104,11.9792082 5.56263537,12.0879834 5.43113816,12.2071036 L2.55933012,8.99532887 C2.85385311,8.72852739 3.16837043,8.48470811 3.50007375,8.26622624 Z M1.74627137,9.85284601 L5.06783676,12.5902627 C4.95583998,12.7279412 4.85455228,12.8739656 4.7649758,13.0269764 L1.06639763,10.8333367 C1.26777634,10.4893499 1.49514333,10.1615596 1.74627137,9.85284601 Z M0.513289002,11.9861254 L4.5200395,13.5373649 C4.45715649,13.7019178 4.40692872,13.8713592 4.36987199,14.0446113 L0.173098062,13.135195 C0.257005791,12.7428994 0.370835895,12.358898 0.513289002,11.9861254 Z M0.0143134001,14.3016027 L4.2993678,14.5632092 C4.29508363,14.6343034 4.29292945,14.7058398 4.29292945,14.7777765 C4.29292945,14.8789816 4.29719306,14.9793944 4.30565295,15.0788944 L0.0283581283,15.4473365 C0.00948314321,15.2253404 0,15.0020019 0,14.7777765 C0,14.6185627 0.00478129491,14.459784 0.0143134001,14.3016027 Z M0.221425574,16.631853 L4.39122342,15.6043827 C4.43306685,15.7764236 4.48801493,15.9444295 4.55551955,16.107279 L0.593609642,17.7711148 C0.44074293,17.4023362 0.316218439,17.0215976 0.221425574,16.631853 Z M1.1606228,18.8789185 L4.80684788,16.5982121 C4.90002612,16.7491323 5.00474125,16.8927966 5.11995307,17.0278483 L1.86297643,19.8427946 C1.60479739,19.540156 1.36991801,19.2179125 1.1606228,18.8789185 Z M2.6984361,20.6832451 L5.4932822,17.4034077 C5.62754632,17.5193186 5.77036398,17.6246549 5.92038654,17.7183698 L3.65664887,21.3897762 C3.31966404,21.1792711 2.99931371,20.9429943 2.6984361,20.6832451 Z M4.78510158,21.9713074 L6.42042387,17.9761117 C6.58246537,18.0433087 6.74958513,18.0978548 6.92067616,18.139204 L5.91838955,22.3407735 C5.53081751,22.2471055 5.15207796,22.1234889 4.78510158,21.9713074 Z M7.18977096,22.5369456 L7.48523418,18.2262035 C7.565359,18.2317674 7.64605925,18.2345672 7.72727302,18.2345672 L7.72727302,22.5555556 C7.54746276,22.5555556 7.36821641,22.5493368 7.18977096,22.5369456 Z M15.6788942,15.0200323 L15.6788942,15.4122905 L16.6538046,15.4122905 L16.6538046,16.7082321 C16.6538046,16.8439508 16.6298597,16.9622891 16.5819691,17.0632506 C16.5340785,17.1642121 16.4699403,17.2519314 16.3895526,17.3264111 C16.3091648,17.4008909 16.2159506,17.4621289 16.1099072,17.510127 C16.0038638,17.5581251 15.8944013,17.5953644 15.7815164,17.6218461 L15.7815164,18.3914666 L20.6971172,18.3914666 C20.7792153,18.3914666 20.8544708,18.3757434 20.9228859,18.3442963 C20.991301,18.3128493 21.049453,18.2714723 21.0973436,18.220164 C21.1452341,18.1688557 21.1820067,18.1117554 21.2076624,18.0488614 C21.233318,17.9859673 21.2461457,17.9247293 21.2461457,17.8651455 L21.2461457,17.348755 L18.2393168,17.348755 C18.1093281,17.348755 17.982762,17.3562028 17.8596148,17.3710988 C17.7364676,17.3859947 17.6133223,17.4066833 17.4901751,17.433165 C17.6338468,17.2875156 17.7475852,17.1294554 17.8313937,16.9589794 C17.9152022,16.7885035 17.9571059,16.5940314 17.9571059,16.3755574 L17.9571059,15.4122905 L19.6965513,15.4122905 C19.7991739,15.4122905 19.8846915,15.3791888 19.9531066,15.3129846 C20.0215217,15.2467803 20.0557288,15.1739568 20.0557288,15.0945117 L20.0557288,14.6079129 L17.9571059,14.6079129 L17.9571059,13.4311383 C17.9571059,13.0339128 18.0443338,12.7235851 18.2187923,12.5001458 C18.3932509,12.2767064 18.6566451,12.1649884 19.0089829,12.1649884 C19.1218678,12.1649884 19.2219234,12.176574 19.3091526,12.1997455 C19.3963819,12.222917 19.4759133,12.2568461 19.5477491,12.301534 C19.619585,12.3462219 19.6871439,12.3991845 19.7504279,12.4604234 C19.8137119,12.5216623 19.8778501,12.5886931 19.9428444,12.6615178 C20.031784,12.7608242 20.1301293,12.8137868 20.2378831,12.8204072 C20.3456369,12.8270276 20.4593753,12.8005463 20.5791017,12.7409625 L21.0870813,12.428149 C20.9947209,12.2460873 20.8861136,12.0764415 20.761256,11.9192064 C20.6363985,11.7619713 20.4893082,11.6254271 20.3199808,11.5095697 C20.1506534,11.3937122 19.9573836,11.3018552 19.7401657,11.2339959 C19.5229477,11.1661365 19.2792225,11.1322074 19.0089829,11.1322074 C18.6121752,11.1322074 18.2666841,11.1934454 17.9724992,11.3159232 C17.6783142,11.4384011 17.4337339,11.6047368 17.2387508,11.8149352 C17.0437678,12.0251337 16.8975327,12.2700858 16.8000412,12.5497987 C16.7025496,12.8295116 16.6538046,13.1249436 16.6538046,13.4361036 L16.6538046,14.6079129 L16.1047761,14.6079129 C15.9611044,14.6079129 15.8542074,14.6484624 15.7840819,14.7295626 C15.7139564,14.8106628 15.6788942,14.907485 15.6788942,15.0200323 Z"></path>
            </g>
        </g>
    </g>
</svg>