<svg viewBox="0 0 40 40" xmlns="http://www.w3.org/2000/svg">
  <style type="text/css">
    .svg-w { fill: #fff }
    .svg-r { fill: #ef3340}
    .svg-y { fill: #ffcd00 }
    .svg-g { fill: #78be20 }
  </style>
  <rect class="svg-g" y="27" x="23" height="3px" width="17px"></rect>
  <rect class="svg-y" y="32" x="23" height="3px" width="17px"></rect>
  <rect class="svg-r" y="37" x="23" height="3px" width="17px"></rect>
  <path class="svg-w" d="m29.4 25c-1.6-1.4-3.5-2.6-5.5-3.3 3.3-2.1 5.5-5.7 5.5-9.9 0-6.5-5.3-11.8-11.7-11.8-6.5 0-11.8 5.3-11.8 11.7 0 4.2 2.2 7.8 5.5 9.9-5.8 2.2-10.4 7.5-11.3 13.6-0.1 0.8-0.1 4.8-0.1 4.8h2.9s0-4.1 0.2-4.8c1.5-6.7 7.5-11.7 14.6-11.7 2.4 0 4.6 0.6 6.6 1.5h5.1zm-11.7-4.5c-4.8 0-8.8-4-8.8-8.8s3.9-8.8 8.8-8.8c4.8 0 8.8 4 8.8 8.8-0.1 4.9-4 8.8-8.8 8.8z"></path>
</svg>
