<svg viewBox="0 0 40 40" xmlns="http://www.w3.org/2000/svg">
  <style type="text/css">
    .svg-w { fill: #fff }
    .svg-y { fill: #ffcd00 }
    .svg-g { fill: #78be20 }
  </style>
  <path class="svg-g" d="m20 31.8c-6.5 0-11.8-5.3-11.8-11.8s5.3-11.8 11.8-11.8 11.8 5.3 11.8 11.8c0 0.9-0.7 1.6-1.6 1.6s-1.6-0.7-1.6-1.6c0-4.8-3.9-8.7-8.7-8.7s-8.7 3.9-8.7 8.7 3.9 8.7 8.7 8.7c0.9 0 1.6 0.7 1.6 1.6s-0.6 1.5-1.5 1.5z"></path>
  <polygon class="svg-g" transform="translate(-4,-4)" points="22.2 24.6 20 22.5 17.6 25 20.8 28.2 22.2 29.6 22.2 29.6 22.2 29.6 23.9 27.9 30.1 21.7 27.6 19.2"></polygon>
  <path class="svg-y" d="m38.9 29.4c0.6-0.6 1-1.4 1-2.1 0-2.4-3.3-4.3-7.7-4.3s-7.7 1.8-7.7 4.3c0 0.8 0.3 1.5 1 2.1-0.6 0.6-1 1.4-1 2.1 0 1.2 0.8 2.2 2.2 3 0.2 0.1 0.3 0.1 0.5 0.1 0.4 0 0.7-0.2 0.9-0.5 0.3-0.5 0.1-1.1-0.4-1.4-0.7-0.4-1.1-0.9-1.1-1.2s0.3-0.6 0.7-1c1.4 0.6 3.1 1 4.9 1s3.6-0.4 4.9-1c0.5 0.3 0.7 0.7 0.7 1 0 0.4-0.4 0.8-1.1 1.2-0.5 0.3-0.7 0.9-0.4 1.4 0.2 0.3 0.5 0.5 0.9 0.5 0.2 0 0.3 0 0.5-0.1 1.4-0.8 2.2-1.9 2.2-3 0-0.8-0.3-1.5-1-2.1zm-11.2-0.9c-0.7-0.4-1.1-0.9-1.1-1.2 0-0.9 2.2-2.2 5.7-2.2s5.7 1.3 5.7 2.2c0 0.4-0.4 0.8-1.1 1.2-1.1 0.6-2.8 1-4.5 1s-3.6-0.4-4.7-1z"></path>
  <path class="svg-y" d="m37.7 32.7h-0.1c-0.1 0-0.1 0-0.2-0.1h-0.2-0.2c-0.1 0-0.1 0-0.2 0.1h-0.1c-1.1 0.6-2.8 1-4.5 1s-3.4-0.4-4.5-1h-0.1c-0.1 0-0.1 0-0.2-0.1h-0.2-0.2c-0.1 0-0.1 0-0.2 0.1h-0.1c-1.4 0.8-2.2 1.9-2.2 3 0 1.2 0.8 2.2 2.2 3 1.5 0.8 3.4 1.2 5.5 1.2s4.1-0.4 5.5-1.2c1.8-1 2.2-2.2 2.2-3 0-1.2-0.8-2.2-2.2-3zm-1 4.2c-1.1 0.6-2.8 1-4.5 1s-3.4-0.4-4.5-1c-0.7-0.4-1.1-0.9-1.1-1.2s0.3-0.6 0.7-1c1.4 0.6 3.1 1 4.9 1s3.6-0.4 4.9-1c0.5 0.3 0.7 0.7 0.7 1 0.1 0.4-0.4 0.8-1.1 1.2z"></path>
  <path class="svg-w" d="m5.7 36.9c-1.4 0-2.6-1.2-2.6-2.6v-28.6c0-1.4 1.2-2.6 2.6-2.6h28.6c1.4 0 2.6 1.2 2.6 2.6v15.5h3.1v-15.5c0-3.2-2.6-5.7-5.7-5.7h-28.6c-3.1 0-5.7 2.5-5.7 5.7v28.6c0 3.1 2.6 5.7 5.7 5.7h15.6v-3.1h-15.6z"></path>
</svg>
