<?xml version="1.0" encoding="UTF-8"?>
<svg width="15px" height="17px" viewBox="0 0 15 17" version="1.1" xmlns="http://www.w3.org/2000/svg" xmlns:xlink="http://www.w3.org/1999/xlink">
    <!-- Generator: Sketch 52.2 (67145) - http://www.bohemiancoding.com/sketch -->
    <title>ICN_Alerts_Off</title>
    <desc>Created with Sketch.</desc>
    <g id="Icons" stroke="none" stroke-width="1" fill="none" fill-rule="evenodd">
        <g id="ICN/Alerts/Off" fill="#fff" fill-rule="nonzero">
            <g id="ICN_Alerts_Off">
                <path d="M7.5,16.5142857 C8.61391082,16.5145213 9.57409285,15.7023323 9.796875,14.5714286 L5.203125,14.5714286 C5.42590715,15.7023323 6.38608918,16.5145213 7.5,16.5142857 Z" id="Shape"></path>
                <path d="M0.9375,13.4494286 L2.6953125,11.3608571 C3.81175887,9.33113672 4.41632777,7.04251142 4.453125,4.70657143 C4.42965351,2.93790804 5.79314193,1.48377611 7.5,1.45714286 C8.46886263,1.46221844 9.37610817,1.95033648 9.9375,2.76857143 L10.875,1.64657143 C10.0411774,0.60644854 8.80493467,0.00331909416 7.5,1.77635684e-15 C5.01651008,0.0266929673 3.02345743,2.13317878 3.046875,4.70657143 C3.00817397,7.29887594 2.18874382,9.81386782 0.703125,11.9 C0.520775029,12.1319641 0.442153568,12.4332983 0.486863426,12.7288705 C0.531573283,13.0244427 0.695401305,13.2864001 0.9375,13.4494286 Z" id="Shape"></path>
                <path d="M11.9859375,5.508 L10.753125,6.96514286 C11.081079,8.81031701 11.7581437,10.5700147 12.7453125,12.1428571 L6.4078125,12.1428571 L5.184375,13.6 L13.5375,13.6 C13.9228385,13.5938495 14.2710541,13.360533 14.4345731,12.9989299 C14.5980922,12.6373269 14.5482812,12.2107568 14.30625,11.9 C12.9761918,10.0332559 12.1728752,7.82027822 11.9859375,5.508 Z" id="Shape"></path>
                <path d="M14.2921875,0.179714286 C14.151233,0.0524794951 13.9671833,-0.0113557494 13.7807116,0.00231549317 C13.5942399,0.0159867358 13.4206982,0.10603892 13.2984375,0.252571429 L0.6421875,15.3097143 C0.383304024,15.6128397 0.410586672,16.0760331 0.703125,16.3442857 C0.995663328,16.6125383 1.44267902,16.5842683 1.7015625,16.2811429 L14.3578125,1.224 C14.4856104,1.07785098 14.550769,0.884260668 14.5384016,0.687458328 C14.5260341,0.490655988 14.4371973,0.307456184 14.2921875,0.179714286 Z" id="Shape"></path>
            </g>
        </g>
    </g>
</svg>