<?xml version="1.0" encoding="UTF-8"?>
<svg width="245px" height="59px" viewBox="0 0 245 59" version="1.1" xmlns="http://www.w3.org/2000/svg" xmlns:xlink="http://www.w3.org/1999/xlink">
    <!-- Generator: Sketch 49.2 (51160) - http://www.bohemiancoding.com/sketch -->
    <title>STAY CONNECTED WITH</title>
    <desc>Created with Sketch.</desc>
    <defs></defs>
    <g id="Mobile-Designs" stroke="none" stroke-width="1" fill="none" fill-rule="evenodd">
        <g id="03_Register-step-4-splash-confirmation" transform="translate(-38.000000, -119.000000)" fill="#FFFFFF">
            <path d="M57.436,127.942 L50.221,127.942 L50.48,126.462 C50.739,124.982 50.369,124.649 49.444,124.649 C48.482,124.649 48.001,124.982 47.742,126.462 L47.705,126.869 C47.372,128.645 47.631,129.57 50.184,129.829 C56.733,130.495 56.955,132.715 56.252,136.859 C55.364,141.891 52.811,144.481 45.929,144.481 C40.009,144.481 37.271,142.964 38.344,136.785 L38.529,135.638 L46.114,135.638 L45.855,137.414 C45.559,138.894 45.892,139.301 46.854,139.301 C47.779,139.301 48.297,138.894 48.593,137.414 L48.778,136.304 C49.037,134.602 48.778,133.973 46.262,133.603 C40.157,132.678 39.602,130.495 40.305,126.388 C41.119,121.763 44.264,119.469 50.406,119.469 C56.437,119.469 58.62,121.319 57.547,127.276 L57.436,127.942 Z M59.841,144 L63.097,125.13 L59.027,125.13 L59.952,119.95 L75.788,119.95 L74.863,125.13 L70.793,125.13 L67.537,144 L59.841,144 Z M82.448,144 L82.633,139.56 L79.044,139.56 L77.786,144 L70.127,144 L78.785,119.95 L89.811,119.95 L90.107,144 L82.448,144 Z M83.447,124.612 L80.339,135.12 L82.892,135.12 L83.521,124.612 L83.447,124.612 Z M93.289,144 L94.621,136.156 L91.883,119.95 L99.801,119.95 L99.727,128.941 L99.801,128.941 L102.835,119.95 L110.753,119.95 L102.317,136.156 L100.985,144 L93.289,144 Z M126.848,129.237 L127.329,126.462 C127.588,124.982 127.218,124.649 126.293,124.649 C125.331,124.649 124.85,124.982 124.591,126.462 L122.667,137.488 C122.408,138.968 122.741,139.301 123.703,139.301 C124.628,139.301 125.146,138.968 125.405,137.488 L125.96,134.343 L133.175,134.343 L132.916,135.638 C131.769,142.298 129.808,144.481 122.815,144.481 C116.599,144.481 114.009,142.89 115.193,135.786 L116.525,128.164 C117.783,121.06 121.002,119.469 127.218,119.469 C134.211,119.469 135.395,121.652 134.211,128.312 L134.063,129.237 L126.848,129.237 Z M143.979,126.462 L142.055,137.488 C141.796,138.968 142.129,139.301 143.091,139.301 C144.053,139.301 144.534,138.968 144.793,137.488 L146.717,126.462 C146.976,124.982 146.643,124.649 145.681,124.649 C144.719,124.649 144.238,124.982 143.979,126.462 Z M154.191,128.164 L152.859,135.786 C151.638,142.89 148.419,144.481 142.203,144.481 C135.987,144.481 133.397,142.89 134.581,135.786 L135.913,128.164 C137.171,121.06 140.39,119.469 146.606,119.469 C152.822,119.469 155.449,121.06 154.191,128.164 Z M175.244,119.95 L171.063,144 L164.551,144 L162.22,132.049 L160.148,144 L153.488,144 L157.669,119.95 L164.625,119.95 L166.66,130.865 L168.584,119.95 L175.244,119.95 Z M195.039,119.95 L190.858,144 L184.346,144 L182.015,132.049 L179.943,144 L173.283,144 L177.464,119.95 L184.42,119.95 L186.455,130.865 L188.379,119.95 L195.039,119.95 Z M209.395,129.57 L208.618,134.01 L202.476,134.01 L201.625,138.82 L208.322,138.82 L207.471,144 L193.078,144 L197.259,119.95 L211.652,119.95 L210.727,125.13 L204.03,125.13 L203.253,129.57 L209.395,129.57 Z M222.382,129.237 L222.863,126.462 C223.122,124.982 222.752,124.649 221.827,124.649 C220.865,124.649 220.384,124.982 220.125,126.462 L218.201,137.488 C217.942,138.968 218.275,139.301 219.237,139.301 C220.162,139.301 220.68,138.968 220.939,137.488 L221.494,134.343 L228.709,134.343 L228.45,135.638 C227.303,142.298 225.342,144.481 218.349,144.481 C212.133,144.481 209.543,142.89 210.727,135.786 L212.059,128.164 C213.317,121.06 216.536,119.469 222.752,119.469 C229.745,119.469 230.929,121.652 229.745,128.312 L229.597,129.237 L222.382,129.237 Z M232.039,144 L235.295,125.13 L231.225,125.13 L232.15,119.95 L247.986,119.95 L247.061,125.13 L242.991,125.13 L239.735,144 L232.039,144 Z M261.787,129.57 L261.01,134.01 L254.868,134.01 L254.017,138.82 L260.714,138.82 L259.863,144 L245.47,144 L249.651,119.95 L264.044,119.95 L263.119,125.13 L256.422,125.13 L255.645,129.57 L261.787,129.57 Z M274.034,125.13 L272.665,125.13 L270.26,138.82 L271.629,138.82 C272.591,138.82 273.072,138.487 273.331,137.007 L275.107,126.943 C275.366,125.463 274.996,125.13 274.034,125.13 Z M270.704,144 L261.898,144 L266.079,119.95 L274.885,119.95 C281.101,119.95 283.654,121.43 282.396,128.534 L281.212,135.416 C279.954,142.52 276.92,144 270.704,144 Z M91.439,169.378 L96.027,152.95 L103.723,152.95 L95.657,177 L86.777,177 L87.406,162.829 L83.188,177 L74.308,177 L74.604,152.95 L82.3,152.95 L81.116,169.378 L81.19,169.378 L86.222,152.95 L92.105,152.95 L91.365,169.378 L91.439,169.378 Z M100.837,177 L105.018,152.95 L112.714,152.95 L108.533,177 L100.837,177 Z M114.268,177 L117.524,158.13 L113.454,158.13 L114.379,152.95 L130.215,152.95 L129.29,158.13 L125.22,158.13 L121.964,177 L114.268,177 Z M150.01,152.95 L145.829,177 L138.133,177 L139.835,167.01 L137.097,167.01 L135.395,177 L127.699,177 L131.88,152.95 L139.576,152.95 L137.874,162.57 L140.612,162.57 L142.314,152.95 L150.01,152.95 Z M167.215,162.237 L167.696,159.462 C167.955,157.982 167.585,157.649 166.66,157.649 C165.698,157.649 165.217,157.982 164.958,159.462 L163.034,170.488 C162.775,171.968 163.108,172.301 164.07,172.301 C164.995,172.301 165.513,171.968 165.772,170.488 L166.327,167.343 L173.542,167.343 L173.283,168.638 C172.136,175.298 170.175,177.481 163.182,177.481 C156.966,177.481 154.376,175.89 155.56,168.786 L156.892,161.164 C158.15,154.06 161.369,152.469 167.585,152.469 C174.578,152.469 175.762,154.652 174.578,161.312 L174.43,162.237 L167.215,162.237 Z M184.346,159.462 L182.422,170.488 C182.163,171.968 182.496,172.301 183.458,172.301 C184.42,172.301 184.901,171.968 185.16,170.488 L187.084,159.462 C187.343,157.982 187.01,157.649 186.048,157.649 C185.086,157.649 184.605,157.982 184.346,159.462 Z M194.558,161.164 L193.226,168.786 C192.005,175.89 188.786,177.481 182.57,177.481 C176.354,177.481 173.764,175.89 174.948,168.786 L176.28,161.164 C177.538,154.06 180.757,152.469 186.973,152.469 C193.189,152.469 195.816,154.06 194.558,161.164 Z M193.855,177 L198.036,152.95 L206.731,152.95 C212.947,152.95 215.648,153.764 214.427,160.868 C213.687,164.901 212.355,166.677 210.061,167.75 L212.281,177 L204.585,177 L202.883,168.268 L201.366,177 L193.855,177 Z M205.917,158.13 L204.622,158.13 L203.586,164.198 L204.881,164.198 C205.843,164.198 206.361,163.865 206.62,162.385 L207.064,159.943 C207.323,158.463 206.879,158.13 205.917,158.13 Z M224.787,177 L224.972,172.56 L221.383,172.56 L220.125,177 L212.466,177 L221.124,152.95 L232.15,152.95 L232.446,177 L224.787,177 Z M225.786,157.612 L222.678,168.12 L225.231,168.12 L225.86,157.612 L225.786,157.612 Z M233.741,177 L237.922,152.95 L245.618,152.95 L242.288,171.82 L247.283,171.82 L246.432,177 L233.741,177 Z" id="STAY-CONNECTED-WITH"></path>
        </g>
    </g>
</svg>