<svg viewBox="0 0 38.299999 39.599998" xmlns="http://www.w3.org/2000/svg">
  <style type="text/css">
    .svg-w { fill: #fff }
    .svg-y { fill: #ffcd00 }
    .svg-g { fill: #78be20 }
  </style>
  <path class="svg-g" d="m17.8 5.6c0.2 0.2 0.3 0.5 0.3 0.9 0 0.8-0.7 1.5-1.5 1.5-0.4 0-0.8-0.2-1.1-0.4-0.6-0.5-2.4-2.4-2.4-2.4v1.3 5.3c0 0.8-0.7 1.5-1.5 1.5s-1.5-0.7-1.5-1.5v-0.2-6.4l-2.1 2.1c-0.1 0.2-0.3 0.4-0.5 0.5s-0.4 0.2-0.7 0.2c-0.8 0-1.5-0.7-1.5-1.5 0-0.5 0.2-0.9 0.6-1.2 3.1-3.3 4.3-4.5 4.8-4.9 0.3-0.3 0.6-0.4 1-0.4s0.8 0.2 1.1 0.5c1 0.9 3.8 3.8 4.7 4.8 0.2 0.1 0.3 0.2 0.3 0.3"></path>
  <path class="svg-y" d="m24.4 27.7c0-1.1 0.3-2 1-2.6s1.6-0.9 2.7-0.9c0.6 0 1.1 0.1 1.6 0.2 0.4 0.1 0.8 0.3 1 0.5l0.3 0.3c0.1 0.1 0.1 0.3 0.1 0.4 0 0.2 0 0.3-0.1 0.4s-0.1 0.3-0.2 0.4l-0.3 0.3c-0.1 0.1-0.2 0.1-0.3 0.2-0.2-0.2-0.4-0.3-0.8-0.5-0.3-0.2-0.7-0.2-1.2-0.2-0.6 0-1 0.1-1.3 0.4s-0.4 0.6-0.4 1.1v0.2h2.5c0.4 0 0.7 0.1 0.9 0.3s0.3 0.4 0.3 0.7c0 0.2 0 0.5-0.1 0.7s-0.1 0.3-0.2 0.4h-3.3v1.7h4.5v2.1h-6.7v-6.1z"></path>
  <path class="svg-y" d="m28 39.6c-5.7 0-10.3-4.6-10.3-10.3s4.6-10.3 10.3-10.3 10.3 4.6 10.3 10.3-4.6 10.3-10.3 10.3zm0-17.7c-4.1 0-7.3 3.3-7.3 7.3 0 4.1 3.3 7.3 7.3 7.3s7.3-3.3 7.3-7.3c0.1-4-3.2-7.3-7.3-7.3z"></path>
  <path class="svg-w" d="m23.4 13.9c0-1.7-1.2-3.3-3.3-4.5-0.7-0.4-1.6-0.1-2 0.6s-0.1 1.6 0.6 2c1.1 0.6 1.8 1.3 1.8 1.9s-0.7 1.3-1.8 1.9c-1.7 1-4.3 1.4-6.9 1.4-1.6 0-3.1-0.2-4.6-0.6-0.9-0.2-1.7-0.5-2.5-0.9-0.8-0.5-1.7-1-1.7-2 0-0.6 0.7-1.2 1.8-1.8 0.7-0.4 1-1.3 0.6-2s-1.3-1-2-0.6c-2.2 1.2-3.4 2.8-3.4 4.6 0 1.2 0.5 2.3 1.5 3.2-1 1-1.5 2.1-1.5 3.2 0 1.2 0.5 2.3 1.5 3.2-1 1-1.5 2.1-1.5 3.2 0 1.7 1.2 3.3 3.3 4.5 2.2 1.2 5.2 1.9 8.4 1.9 1.1 0 2.2-0.1 3.4-0.3 0.8-0.1 1.4-0.9 1.2-1.7-0.1-0.8-0.9-1.4-1.7-1.2-1.1 0.2-2 0.3-2.9 0.3-2.7 0-5.2-0.5-6.9-1.5-1.1-0.6-1.8-1.4-1.8-1.9s0.4-1 1.2-1.5c2.1 1 4.7 1.5 7.6 1.5 1.3 0 2.7-0.1 4-0.4 0.8-0.2 1.3-0.9 1.2-1.8-0.2-0.8-0.9-1.3-1.8-1.2-1.2 0.2-2.3 0.5-3.5 0.5-2.2 0-4.5-0.1-6.6-1.1-0.8-0.4-2.1-1.3-2.1-2.3 0-0.5 0.4-1.1 1.2-1.6 2.1 1 4.7 1.4 7.6 1.4 2.8 0 5.5-0.5 7.5-1.5 0.2 0.1 0.3 0.2 0.5 0.4 0.3 0.3 0.7 0.4 1 0.4 0.4 0 0.8-0.2 1.1-0.5 0.5-0.6 0.5-1.4 0-2 0.9-0.9 1.5-2.1 1.5-3.2z"></path>
</svg>
