<svg id="Layer_1" data-name="Layer 1" xmlns="http://www.w3.org/2000/svg" viewBox="0 0 34 34"><title>ICN_Question</title><path d="M17,0A17,17,0,1,0,34,17,17,17,0,0,0,17,0Zm0,31.17A14.17,14.17,0,1,1,31.17,17,14.21,14.21,0,0,1,17,31.17Z" fill="#41494e"/><path d="M12.08,9.46a8.85,8.85,0,0,1,1-.73,6.81,6.81,0,0,1,1.12-.6,7,7,0,0,1,1.3-.4A7.42,7.42,0,0,1,17,7.59a6.32,6.32,0,0,1,2,.31,4.54,4.54,0,0,1,1.56.87,3.89,3.89,0,0,1,1,1.37,4.38,4.38,0,0,1,.36,1.8,4.55,4.55,0,0,1-.28,1.68,4.59,4.59,0,0,1-.71,1.23,5.62,5.62,0,0,1-.92.91l-.94.72a7.33,7.33,0,0,0-.77.66,1.31,1.31,0,0,0-.39.73l-.29,1.86H15.45l-.22-2.08a.56.56,0,0,1,0-.11v-.11a1.7,1.7,0,0,1,.28-1,4,4,0,0,1,.7-.78q.42-.36.9-.71a8,8,0,0,0,.9-.75,3.73,3.73,0,0,0,.7-.91,2.45,2.45,0,0,0,.28-1.2,1.9,1.9,0,0,0-.17-.82,1.85,1.85,0,0,0-.48-.62,2.13,2.13,0,0,0-.73-.4,3,3,0,0,0-.92-.14,4.1,4.1,0,0,0-1.23.16,4.57,4.57,0,0,0-.85.36L14,11a.82.82,0,0,1-.43.16.69.69,0,0,1-.66-.38Zm2.41,15a2,2,0,0,1,.15-.75,1.77,1.77,0,0,1,.41-.61,2,2,0,0,1,.62-.41,1.94,1.94,0,0,1,.77-.15,1.93,1.93,0,0,1,1.77,2.68,2,2,0,0,1-.41.61,1.86,1.86,0,0,1-.61.4,2,2,0,0,1-.75.15,2,2,0,0,1-.77-.15,1.92,1.92,0,0,1-.62-.4,1.8,1.8,0,0,1-.41-.61A1.94,1.94,0,0,1,14.49,24.5Z" fill="#41494e"/></svg>