<svg viewBox="235 235 130 130" xmlns="http://www.w3.org/2000/svg">
<g>
  <path d="M300,348.1c-28.2,0-53.7-18.1-64.7-46.1c-0.5-1.3-0.5-2.8,0-4.2c11.1-28,36.5-46,64.7-46c28.3,0,53.7,18.1,64.7,46
    c0.5,1.3,0.5,2.8,0,4.2C353.7,330.1,328.2,348.1,300,348.1z M246.7,300c9.7,22.4,30.4,36.8,53.3,36.8c22.9,0,43.6-14.4,53.3-36.8
    c-9.7-22.4-30.4-36.8-53.3-36.8C277.1,263.2,256.4,277.6,246.7,300z"/>
  <path d="M300,325.5c-14.1,0-25.5-11.4-25.5-25.5c0-14,11.4-25.5,25.5-25.5c14.1,0,25.5,11.4,25.5,25.5
    C325.5,314.1,314.1,325.5,300,325.5z"/>
</g>
</svg>
