<svg xmlns="http://www.w3.org/2000/svg" viewBox="150 150 100 100">
<g>
  <path d="M190.1,225.5c-0.6,0-1.2-0.2-1.7-0.7L175.8,213c-1-0.9-1.1-2.5-0.1-3.5c0.9-1,2.5-1.1,3.5-0.1l10.7,10
    l32.8-37.5c0.9-1,2.5-1.1,3.5-0.2c1,0.9,1.1,2.5,0.2,3.5L192,224.6c-0.4,0.5-1.1,0.8-1.8,0.9C190.2,225.5,190.2,225.5,190.1,225.5z
    "/>
</g>
<g>
  <path d="M200,249c-27,0-49-22-49-49c0-27,22-49,49-49s49,22,49,49C248.9,227,227,249,200,249z M200,156
    c-24.2,0-44,19.7-44,44c0,24.2,19.7,44,44,44s44-19.7,44-44S224.2,156,200,156z"/>
</g>
</svg>
