<svg xmlns="http://www.w3.org/2000/svg" viewBox="0 0 80 79"><path d="M73.9 6.1C69.3 1.5 62.7-.6 55.5.1 48.9.9 42.8 3.7 37.9 8c1.2 1 2.2 2.1 3 3.3 2.2-1.9 4.6-3.4 7.2-4.6l5.2 5.2-7.5 7.5-2.7-2.6c.1.7.2 1.4.2 2.2l1.5 1.4-1.6 1.6c-.2.8-.4 1.7-.7 2.5l3.2-3.2 5.7 5.7-7.2 7.2-4.7-4.6c-.3.3-.6.7-.9 1l4.7 4.6-8.7 8.6c-1.9-2.2-3.2-4.8-3.7-7.6l2.5-2.5c-.8.3-1.7.5-2.5.6 0 0-1.7.2-2.4.2-.8 0-1.6-.1-2.4-.2.2 3 1.1 6 2.6 8.7.8 1.5.5 3.3-.8 4.5L0 72.3 6.7 79l25.5-27.3c1.1-1.2 3-1.5 4.5-.7 3.4 1.8 7.1 2.7 10.9 2.7 1 0 1.9-.1 2.9-.2 7.4-.9 14.3-4.3 19.5-9.7 5.4-5.2 8.8-12 9.7-19.4.9-7.1-1.2-13.7-5.8-18.3zm1.1 11l-7.3 7.3-5.9-5.9 9.1-9c2.1 2.1 3.5 4.8 4.1 7.6zm-8.2 8.2l-7.5 7.5-5.9-5.9 7.5-7.5 5.9 5.9zM70 8.6l-9.1 9-5.7-5.7 7.1-7.1c2.8.6 5.5 1.9 7.7 3.8zM49.4 6.2c2.1-.8 4.3-1.4 6.5-1.6.8-.1 1.6-.1 2.4-.1.8 0 1.6.1 2.3.1L54.3 11l-4.9-4.8zm-2.7 14.1l7.5-7.5 5.7 5.7-7.5 7.5-5.7-5.7zm5.7 7.6l5.9 5.9-7.2 7.2-5.9-5.9 7.2-7.2zM35.5 44.7l8.7-8.7 5.9 5.9-6.9 6.9c-2.9-.7-5.5-2.1-7.7-4.1zm14.6 4.4c-1.7.2-3.5.2-5.2-.1l6.3-6.2 4.9 4.9c-2 .7-4 1.2-6 1.4zm7.3-1.9l-5.3-5.3 7.2-7.2 6.8 6.8c-2.5 2.4-5.5 4.3-8.7 5.7zm9.7-6.6l-6.9-6.8 7.5-7.5 5.5 5.5c-1.5 3.2-3.5 6.2-6.1 8.8zM75.4 24c-.2 2.2-.8 4.4-1.6 6.4l-5.1-5.1 6.6-6.6c.3 1.8.3 3.5.1 5.3z"/><path d="M33.6 7.4c.8 2.4 1.8 4.8 3.2 7 1.7 3 3.1 5.6 2.2 8.1-.8 2.1-3.2 3.8-7.7 5.5-1.9.8-3.8 1.2-5.8 1.3-.9 0-1.9-.2-2.7-.6-2.2-1.1-3-3.7-3.8-6.8-.6-2.5-1.5-4.9-2.8-7.2-2.7 6.8.7 14.5 7.5 17.1s14.5-.7 17.2-7.4c2.6-6.7-.7-14.3-7.3-17z"/><path d="M20.5 21.4c.7 2.7 1.3 4.9 2.9 5.7 1.4.7 3.8.5 7.2-.8 3.9-1.4 6.1-2.9 6.7-4.5.7-1.8-.5-4-2.1-6.7-1.6-2.6-2.8-5.5-3.6-8.4C25.9 5.4 19.9 7.9 17 13c1.6 2.6 2.8 5.5 3.5 8.4z"/></svg>