<svg viewBox="0 0 13 18">
<g fill="#5C636B">
  <path d="M5.74481994,12.473363 L5.74481994,13.8502649 C5.74481994,14.1852613 6.0163882,14.4568296 6.35138464,14.4568296 C6.68638108,14.4568296 6.95794934,14.1852613 6.95794934,13.8502649 L6.95794934,12.473363 C7.43345727,12.1988284 7.66528725,11.6391413 7.52317766,11.1087811 C7.38106808,10.578421 6.9004539,10.2096327 6.35138464,10.2096327 C5.80231538,10.2096327 5.3217012,10.578421 5.17959161,11.1087811 C5.03748203,11.6391413 5.26931201,12.1988284 5.74481994,12.473363 Z" id="Shape"></path>
  <path d="M11.2039023,7.78461786 L1.49886701,7.78461786 C1.17712509,7.78461786 0.868560877,7.91242934 0.641054981,8.13993524 C0.413549086,8.36744113 0.285737604,8.67600534 0.285737604,8.99774727 L0.285737604,16.2765237 C0.285737604,16.9465166 0.82887414,17.4896531 1.49886701,17.4896531 L11.2039023,17.4896531 C11.8738951,17.4896531 12.4170317,16.9465166 12.4170317,16.2765237 L12.4170317,8.99774727 C12.4170317,8.32775439 11.8738951,7.78461786 11.2039023,7.78461786 Z M11.2039023,16.2765237 L1.49886701,16.2765237 L1.49886701,8.99774727 L11.2039023,8.99774727 L11.2039023,16.2765237 Z" id="Shape"></path>
  <path d="M10.0319911,7.83237344 L10.0319911,5.44814835 C10.0319847,3.40138222 8.37275111,1.74215384 6.32598498,1.74215384 C4.30727018,1.74215384 2.67077843,3.37864538 2.67077816,5.39736017 C2.67077812,5.70444024 2.42184051,5.95337779 2.11476044,5.95337775 C1.80768038,5.9533777 1.55874283,5.70444009 1.55874287,5.39736003 C1.55874322,2.76448516 3.69311011,0.630118554 6.32598498,0.630118554 C8.98690988,0.630118554 11.1440181,2.78721996 11.1440264,5.44814661 L11.1440264,8.38839108 C11.1440264,8.69547115 10.8950888,8.94440873 10.5880088,8.94440873 L2.11476063,8.94440873 C1.80768057,8.94440873 1.55874299,8.69547115 1.55874299,8.38839108 C1.55874299,8.08131102 1.80768057,7.83237344 2.11476063,7.83237344 L10.0319911,7.83237344 Z" id="Path-2"></path>
  </g>
</svg>
