<svg data-name="Layer 1" xmlns="http://www.w3.org/2000/svg" viewBox="0 0 34 30"><path d="M33.42 23.41L20.74 2.12a4.35 4.35 0 0 0-6-1.48 4.4 4.4 0 0 0-1.47 1.48L.6 23.39A4.38 4.38 0 0 0 4.32 30h25.36a4.4 4.4 0 0 0 3.73-6.59zm-3.76 3.82H4.34A1.63 1.63 0 0 1 3 24.8L15.62 3.55a1.63 1.63 0 0 1 .54-.55 1.61 1.61 0 0 1 2.22.54L31 24.8a1.63 1.63 0 0 1-1.38 2.43z"/><path d="M17 9.18a1.38 1.38 0 0 0-1.37 1.38v6a1.37 1.37 0 1 0 2.75 0v-6A1.38 1.38 0 0 0 17 9.18zM18 21.62a1.37 1.37 0 0 0-1.94 0 1.39 1.39 0 0 0 0 2 1.37 1.37 0 0 0 1.94 0 1.39 1.39 0 0 0 0-2z"/></svg>