<?xml version="1.0" encoding="UTF-8"?>
<svg width="174px" height="18px" viewBox="0 0 174 18" version="1.1" xmlns="http://www.w3.org/2000/svg" xmlns:xlink="http://www.w3.org/1999/xlink">
    <!-- Generator: Sketch 51.2 (57519) - http://www.bohemiancoding.com/sketch -->
    <title>swipe_right_arrow</title>
    <desc>Created with Sketch.</desc>
    <defs></defs>
    <g id="swipe_right_arrow" stroke="none" stroke-width="1" fill="none" fill-rule="evenodd">
        <g id="Group-3" transform="translate(0.000000, -2.000000)">
            <path d="M66.5050711,9.80952567 C60.0263535,9.94265638 53.5460141,10.0098874 47.0697294,10.1949391 C38.133819,10.45055 29.2019633,10.8013494 20.2676748,11.0889118 C14.1806484,11.2852795 8.09200008,11.4503616 2.00416274,11.6041276 C1.5119132,11.6161093 0.965329695,11.4982887 0.533090811,11.3072461 C0.258988104,11.1860972 0.0173235865,10.8206534 0.00110449143,10.554392 C-0.0159255584,10.2801427 0.165728307,9.88407886 0.425233828,9.73830074 C0.829089296,9.51131289 1.36594134,9.35754692 1.85737993,9.33424905 C6.77419861,9.11258642 11.6910173,8.88293596 16.6110798,8.73516087 C29.0438271,8.36172924 41.4773854,7.98829761 53.9141876,7.69740702 C62.3335198,7.50037357 70.7577178,7.42648603 79.1802939,7.33262888 C85.0126805,7.26672919 90.8458781,7.22745563 96.6790756,7.23411216 C108.733107,7.24809089 120.792815,7.14824286 132.841981,7.38321855 C142.682917,7.57492677 152.532773,7.84984168 162.345326,8.60935235 C163.762875,8.71851953 165.172314,8.90223991 166.588241,9.02738277 C167.492456,9.10792685 167.687896,11.5408905 167.104008,11.4776534 C164.793598,11.2280333 162.486432,10.9011975 160.164669,10.7840424 C154.215505,10.4844983 148.255798,10.3327293 142.306634,10.0305226 C128.581225,9.33225209 114.839596,9.522629 101.102834,9.45939191 C92.9373304,9.42144966 84.7718269,9.53660772 75.2098594,9.59119131 C73.2392394,9.64111533 69.8721552,9.7402977 66.5050711,9.80952567 Z" id="Fill-61" fill="#FFFFFF"></path>
            <path d="M162.045919,7.73724887 C162.514093,3.12520333 163.997095,2.82302126 163.271155,5.26079804 C163.271155,5.26079804 160.981026,14.5792801 155.714067,19.0169646 C150.446433,23.4546491 156.219452,18.1025525 168.766788,17.0196788" id="Stroke-3" stroke="#FFFFFF" stroke-width="2.5" stroke-linecap="round" stroke-linejoin="round" transform="translate(161.266788, 12.251114) rotate(-141.000000) translate(-161.266788, -12.251114) "></path>
        </g>
    </g>
</svg>